<?xml version="1.0" standalone="no"?>
<!DOCTYPE svg PUBLIC "-//W3C//DTD SVG 1.1//EN" "http://www.w3.org/Graphics/SVG/1.1/DTD/svg11.dtd" >
<svg xmlns="http://www.w3.org/2000/svg" xmlns:xlink="http://www.w3.org/1999/xlink" version="1.1">
<metadata>
Created by FontForge 20160405 at Fri Feb  3 02:26:39 2017
 By www-data
Copyright (c) 2013 by Aviation Partners. All rights reserved.
</metadata>
<defs>
<font id="Alleyn-Book-Italic" horiz-adv-x="619" >
  <font-face 
    font-family="Alleyn Book"
    font-weight="400"
    font-style="italic"
    font-stretch="normal"
    units-per-em="1000"
    panose-1="2 0 0 0 0 0 0 0 0 0"
    ascent="800"
    descent="-200"
    x-height="517"
    cap-height="704"
    bbox="-191.024 -210.266 1298 950"
    underline-thickness="50"
    underline-position="-100"
    stemh="80"
    stemv="86"
    unicode-range="U+0020-FB02"
  />
<missing-glyph horiz-adv-x="518" 
d="M178 704h366l-124 -704h-366zM99 37h288l111 630h-288z" />
    <glyph glyph-name=".notdef" horiz-adv-x="518" 
d="M178 704h366l-124 -704h-366zM99 37h288l111 630h-288z" />
    <glyph glyph-name="b" unicode="b" horiz-adv-x="629" 
d="M417 529c99 0 184 -63 184 -199c0 -210 -151 -342 -293 -342c-84 0 -130 28 -174 61l-6 -36c-1 -7 -9 -13 -16 -13h-26c-6 0 -12 4 -12 13l126 715c1 8 8 14 16 14h29c7 0 11 -4 11 -14l-44 -247c-4 -22 -13 -64 -13 -65l11 1c40 59 119 112 207 112zM305 39
c119 0 235 101 235 281c0 99 -51 157 -141 157c-92 0 -202 -83 -228 -233l-25 -141c32 -30 69 -64 159 -64z" />
    <glyph glyph-name="c" unicode="c" horiz-adv-x="527" 
d="M469 97l11 -21c1 -2 2 -4 2 -6c0 -5 -3 -10 -6 -13c-57 -42 -127 -69 -194 -69c-128 0 -207 71 -207 201c0 218 142 340 303 340c67 0 127 -28 168 -70c1 -2 1 -4 1 -6c0 -4 -1 -9 -3 -12l-19 -22c-3 -3 -8 -4 -12 -4s-7 1 -10 2c-35 33 -83 60 -134 60
c-123 0 -234 -98 -234 -278c0 -104 59 -160 156 -160c52 0 109 26 156 60c3 2 6 2 9 2c5 0 9 -1 13 -4z" />
    <glyph glyph-name="d" unicode="d" horiz-adv-x="629" 
d="M380 478c-123 0 -245 -104 -245 -286c0 -96 47 -153 139 -153c90 0 203 84 230 233l27 151l-5 4c-31 25 -63 51 -146 51zM255 -12c-100 0 -181 62 -181 194c0 213 159 347 304 347c81 0 121 -22 163 -50l44 250c1 6 8 13 16 13h29c8 0 13 -7 13 -13l-126 -716
c-1 -7 -9 -13 -17 -13h-26c-6 0 -13 4 -13 13l15 86c-3 0 -7 1 -10 0c-40 -59 -123 -111 -211 -111z" />
    <glyph glyph-name="e" unicode="e" horiz-adv-x="597" 
d="M149 292l356 1c2 15 4 30 4 44c0 91 -56 142 -138 142c-99 0 -187 -65 -222 -187zM559 262c-2 -7 -11 -14 -18 -15h-402c-3 -15 -4 -29 -4 -42c0 -102 71 -167 173 -167c60 0 120 16 158 33c2 1 4 1 6 1c4 0 9 -2 11 -7l6 -19c0 -35 -116 -58 -193 -58
c-138 0 -221 77 -221 206c0 205 146 335 306 335c115 0 185 -62 185 -191c0 -23 -2 -48 -7 -76z" />
    <glyph glyph-name="f" unicode="f" horiz-adv-x="357" 
d="M507 738c3 -1 5 -5 5 -10c0 -11 -11 -36 -25 -36c-19 0 -57 11 -90 11c-73 0 -127 -34 -141 -119l-11 -67h165c6 0 10 -7 10 -14l-3 -17c-1 -7 -9 -13 -15 -13h-165l-81 -460c-1 -7 -9 -13 -16 -13h-27c-6 0 -13 4 -13 13l81 460h-76c-6 0 -12 4 -12 13l3 17
c1 7 9 14 17 14h76l10 61c17 106 92 174 209 174c46 0 73 -6 99 -14z" />
    <glyph glyph-name="g" unicode="g" horiz-adv-x="621" 
d="M281 69c89 0 194 78 217 212l21 121c-34 36 -80 76 -162 76c-116 0 -218 -94 -218 -258c0 -94 51 -151 142 -151zM215 -210c-67 0 -157 16 -157 39c0 2 0 6 3 10l9 18c2 4 8 7 15 7h5c28 -10 82 -23 140 -23c97 0 201 66 220 169l8 43c2 11 15 73 15 74c-3 0 -7 1 -11 1
c-36 -59 -113 -110 -199 -110c-107 0 -185 71 -185 193c0 181 135 318 278 318c80 0 130 -31 175 -70l8 45c1 6 9 13 18 13h26c6 0 11 -5 11 -13l-85 -485c-24 -136 -141 -229 -294 -229z" />
    <glyph glyph-name="h" unicode="h" horiz-adv-x="600" 
d="M214 488c-4 -15 -11 -35 -11 -51l8 -4c40 50 111 96 191 96c97 0 148 -52 148 -145c0 -17 -2 -35 -5 -54l-56 -317c-1 -7 -8 -13 -16 -13h-29c-6 0 -12 4 -12 13l53 302c3 19 5 37 5 53c0 71 -33 109 -111 109c-93 0 -183 -83 -196 -160l-53 -304c-1 -7 -7 -13 -15 -13
h-29c-6 0 -12 4 -12 13l126 716c1 6 8 13 16 13h29c6 0 11 -5 11 -13z" />
    <glyph glyph-name="i" unicode="i" horiz-adv-x="245" 
d="M206 517c6 0 10 -5 10 -13l-86 -491c-1 -7 -7 -13 -15 -13h-29c-6 0 -12 4 -12 13l86 491c1 6 9 13 17 13h29zM181 701c4 22 26 41 48 41c20 0 35 -15 35 -34c0 -26 -24 -48 -49 -48c-20 0 -35 14 -35 34c0 2 0 4 1 7z" />
    <glyph glyph-name="j" unicode="j" horiz-adv-x="245" 
d="M229 742c22 0 37 -15 37 -34c0 -26 -24 -48 -51 -48c-20 0 -35 14 -35 34c0 25 24 48 49 48zM-86 -210c-48 0 -105 6 -105 25c0 6 -1 2 10 26c3 5 11 9 18 9c17 0 54 -11 88 -11c73 0 124 36 139 119l96 545c1 7 9 14 17 14h29c7 0 11 -4 11 -14l-95 -538
c-19 -107 -92 -175 -208 -175z" />
    <glyph glyph-name="k" unicode="k" horiz-adv-x="520" 
d="M308 305c24 -45 50 -87 75 -130l91 -156c1 -3 2 -6 2 -7c-1 -6 -8 -12 -16 -12h-34c-4 0 -11 4 -16 6l-148 261l-102 -81l-30 -173c-1 -7 -7 -13 -15 -13h-29c-6 0 -12 4 -12 13l126 716c1 7 8 13 16 13h29c6 0 11 -5 11 -13l-74 -420c-3 -18 -7 -36 -12 -55
c3 0 6 -4 9 -4c13 13 27 27 40 38l260 221c6 4 13 8 19 8h34c7 0 10 -6 10 -11c0 -3 -1 -6 -5 -10c-92 -77 -163 -138 -229 -191z" />
    <glyph glyph-name="l" unicode="l" horiz-adv-x="245" 
d="M245 742c6 0 11 -5 11 -13l-126 -716c-1 -7 -7 -13 -15 -13h-29c-6 0 -12 4 -12 13l126 716c1 7 8 13 16 13h29z" />
    <glyph glyph-name="m" unicode="m" horiz-adv-x="923" 
d="M732 529c92 0 141 -51 141 -140c0 -16 -2 -34 -5 -52l-57 -324c-1 -7 -8 -13 -16 -13h-29c-6 0 -12 4 -12 13l53 303c4 22 6 42 6 59c0 66 -29 102 -103 102c-90 0 -173 -86 -186 -160l-53 -304c-1 -7 -8 -13 -16 -13h-29c-6 0 -11 5 -11 13l53 304c4 22 6 41 6 59
c0 65 -30 101 -103 101c-89 0 -175 -85 -188 -162l-53 -302c-1 -7 -7 -13 -14 -13h-29c-7 0 -14 3 -14 13l86 491c1 6 9 13 19 13h27c6 0 10 -5 10 -13c-4 -22 -7 -35 -9 -47l-3 -20c2 -2 5 -3 8 -4c39 50 108 96 184 96c74 0 121 -35 134 -112c61 76 126 112 203 112z" />
    <glyph glyph-name="n" unicode="n" horiz-adv-x="602" 
d="M401 529c98 0 149 -52 149 -145c0 -17 -2 -35 -5 -54l-56 -317c-1 -7 -8 -13 -16 -13h-29c-6 0 -12 4 -12 13l53 302c3 19 5 37 5 53c0 71 -33 109 -111 109c-109 0 -185 -96 -199 -179l-50 -285c-1 -7 -7 -13 -15 -13h-29c-6 0 -12 4 -12 13l86 491c1 6 9 13 17 13h28
c6 0 10 -5 10 -13c-4 -22 -7 -35 -9 -47l-3 -20c2 -2 5 -3 8 -4c39 50 110 96 190 96z" />
    <glyph glyph-name="o" unicode="o" horiz-adv-x="627" 
d="M298 37c123 0 240 108 240 272c0 105 -64 170 -162 170c-122 0 -240 -109 -240 -274c0 -104 65 -168 162 -168zM385 529c127 0 212 -87 212 -215c0 -190 -150 -326 -308 -326c-129 0 -212 83 -212 212c0 188 146 329 308 329z" />
    <glyph glyph-name="p" unicode="p" horiz-adv-x="629" 
d="M79 -200h-27c-9 0 -14 6 -14 13l122 690c2 8 9 14 17 14h27c7 0 10 -4 10 -10v-4l-15 -87l11 1c39 59 118 112 207 112c99 0 184 -63 184 -199c0 -210 -151 -342 -293 -342c-84 0 -127 28 -172 61l-42 -236c-1 -7 -8 -13 -15 -13zM305 39c119 0 235 101 235 281
c0 99 -51 157 -141 157c-92 0 -202 -83 -228 -233l-25 -141c32 -30 69 -64 159 -64z" />
    <glyph glyph-name="q" unicode="q" horiz-adv-x="629" 
d="M261 -12c-102 0 -186 63 -186 197c0 212 150 344 294 344c82 0 129 -28 173 -61l6 36c1 6 9 13 17 13h26c6 0 12 -5 12 -13l-122 -691c-1 -7 -9 -13 -17 -13h-29c-7 0 -13 4 -13 10c0 1 1 2 1 3l40 222c4 22 14 65 14 66l-11 -1c-39 -59 -118 -112 -205 -112zM372 478
c-120 0 -236 -103 -236 -282c0 -99 51 -157 142 -157s200 84 226 233l25 142c-31 29 -68 64 -157 64z" />
    <glyph glyph-name="r" unicode="r" horiz-adv-x="409" 
d="M462 517c5 -3 8 -7 8 -11c0 -13 -11 -46 -23 -46c-13 0 -39 14 -63 14c-95 0 -189 -96 -215 -241l-39 -220c-1 -7 -7 -13 -15 -13h-29c-6 0 -12 4 -12 13l86 491c2 7 9 13 17 13h26c7 0 11 -6 11 -14l-15 -88l9 1c42 65 117 113 197 113c19 0 43 -5 57 -12z" />
    <glyph glyph-name="s" unicode="s" horiz-adv-x="488" 
d="M77 67c33 -15 87 -30 140 -30c88 0 157 47 157 113c0 109 -265 59 -265 207c0 92 89 172 208 172c61 0 159 -18 159 -43c0 -3 -14 -36 -30 -36c-1 0 -3 0 -5 1c-32 14 -81 28 -130 28c-83 0 -141 -43 -141 -103c0 -108 265 -65 265 -209c0 -100 -101 -179 -224 -179
c-69 0 -169 20 -169 44c0 2 1 6 4 9l13 21c2 3 6 5 11 5h7z" />
    <glyph glyph-name="t" unicode="t" horiz-adv-x="402" 
d="M254 -12c-91 0 -135 44 -135 118c0 13 1 27 4 42l57 325h-75c-6 0 -12 4 -12 13l3 17c2 8 9 14 17 14h75l24 137c1 6 9 13 17 13h28c7 0 12 -7 12 -13l-24 -137h167c6 0 10 -6 10 -14l-3 -17c-1 -7 -9 -13 -15 -13h-167l-57 -321c-2 -13 -3 -24 -3 -34
c0 -55 30 -78 85 -78c31 0 60 11 76 11c6 0 12 -4 14 -8l3 -19c0 -24 -58 -36 -101 -36z" />
    <glyph glyph-name="u" unicode="u" horiz-adv-x="602" 
d="M247 -12c-98 0 -148 50 -148 143c0 17 1 35 5 55l56 317c1 7 9 14 17 14h29c6 0 10 -6 10 -14l-53 -301c-3 -19 -5 -37 -5 -52c0 -72 34 -110 114 -110c107 0 181 94 196 179l50 284c1 7 9 14 17 14h29c6 0 11 -6 11 -14l-86 -490c-1 -7 -9 -13 -16 -13h-28
c-6 0 -12 4 -12 13l3 16c1 6 4 19 6 30l4 21c-2 0 -7 3 -8 4c-39 -50 -112 -96 -191 -96z" />
    <glyph glyph-name="v" unicode="v" horiz-adv-x="524" 
d="M540 517c6 0 11 -5 11 -11c0 -1 -1 -5 -3 -7l-275 -490c-3 -5 -9 -9 -14 -9h-37c-5 0 -12 4 -13 9l-102 490c0 1 -1 3 -1 4c0 7 8 14 16 14h30c5 0 10 -5 11 -9l69 -331c10 -50 12 -96 14 -105l11 -1l10 21c9 19 23 51 43 85l185 331c3 4 10 9 16 9h29z" />
    <glyph glyph-name="w" unicode="w" horiz-adv-x="766" 
d="M773 517c7 0 11 -5 11 -13v-4l-205 -489c-4 -6 -11 -11 -17 -11h-40c-6 0 -14 5 -15 11l-53 329c-6 37 -10 59 -14 90l-7 -1c0 -1 -12 -30 -31 -67l-181 -349c-4 -5 -14 -13 -19 -13h-41c-6 0 -13 5 -14 11c-5 99 -12 200 -32 490c-1 1 -1 2 -1 3c2 7 9 13 19 13h27
c6 0 11 -6 10 -11l21 -339c2 -27 1 -56 2 -98l9 1c23 42 47 100 77 156l134 255c4 5 11 12 18 12h35c7 0 13 -6 14 -11c25 -153 35 -206 42 -256l22 -157l9 1c1 6 19 50 38 97c41 102 66 166 90 222l49 117c3 5 11 11 16 11h27z" />
    <glyph glyph-name="x" unicode="x" horiz-adv-x="501" 
d="M440 20c1 -3 1 -6 1 -8c-1 -6 -6 -12 -14 -12h-34c-4 0 -12 6 -18 16c-21 35 -62 118 -80 153l-24 47h-9c-4 -2 -27 -36 -51 -62l-37 -41c-43 -48 -96 -114 -112 -113h-31c-7 0 -12 4 -12 9c0 1 1 7 5 11l218 242l-129 234c-2 3 -2 6 -2 8c1 6 7 13 15 13h35
c5 0 13 -6 15 -11l72 -136c16 -30 29 -57 30 -65l10 1c2 5 21 28 46 53l120 137l15 14c5 4 9 7 13 7h32c6 0 10 -5 10 -10c0 -4 -2 -7 -5 -11c-70 -77 -140 -155 -212 -235c43 -80 89 -161 133 -241z" />
    <glyph glyph-name="y" unicode="y" horiz-adv-x="529" 
d="M514 517h30c8 0 12 -5 12 -10c0 -3 -1 -7 -3 -9l-394 -687c-4 -5 -12 -11 -17 -11h-26c-8 0 -11 4 -11 10c0 16 24 47 34 64l74 127c-35 164 -70 334 -107 497c0 9 5 19 16 19h22c7 0 15 -9 17 -15l62 -290l24 -139h12l48 93c3 8 7 15 191 341c4 6 11 10 16 10z" />
    <glyph glyph-name="z" unicode="z" horiz-adv-x="520" 
d="M442 47c6 0 12 -3 12 -13l-3 -21c-1 -7 -8 -13 -17 -13h-393c-6 0 -12 4 -12 13l3 20c2 9 6 14 10 18c160 162 270 279 408 418h-318c-7 0 -12 5 -12 11c0 1 1 2 1 3l3 21c1 6 9 13 17 13h374c6 0 12 -4 12 -13l-3 -21c-2 -11 -14 -21 -23 -30l-397 -406h338z" />
    <glyph glyph-name="A" unicode="A" horiz-adv-x="707" 
d="M666 16c0 -1 1 -2 1 -3c0 -6 -7 -13 -16 -13h-30c-9 0 -15 6 -18 14l-44 175h-390c-35 -59 -71 -117 -105 -175c-5 -8 -12 -14 -22 -14h-30c-7 0 -12 4 -12 9c0 1 0 4 2 7l416 677c3 5 12 11 22 11h32c8 0 15 -6 17 -11zM201 240h345c0 -1 -27 108 -41 163l-62 243
l-71 -123c-54 -93 -116 -191 -171 -283z" />
    <glyph glyph-name="B" unicode="B" horiz-adv-x="706" 
d="M534 371c74 -16 109 -73 109 -139c0 -118 -88 -232 -280 -232h-267c-7 0 -12 5 -12 14l119 677c2 7 9 13 17 13h282c105 0 165 -60 165 -142c0 -89 -57 -156 -131 -182zM208 396h213c105 0 185 55 185 154c0 61 -44 101 -125 101h-228zM357 52c125 0 226 44 226 178
c0 83 -68 114 -170 114h-214l-51 -292h209z" />
    <glyph glyph-name="C" unicode="C" horiz-adv-x="731" 
d="M753 620c2 -4 3 -8 3 -10c0 -1 -3 -5 -4 -7l-24 -22c-2 -2 -6 -4 -9 -4c-4 0 -8 1 -10 4c-45 51 -118 81 -195 81c-178 0 -351 -153 -351 -376c0 -149 99 -244 242 -244c77 0 160 30 223 80c4 3 8 4 12 4s6 -1 7 -3l16 -21c2 -3 2 -6 2 -9c-1 -3 -3 -7 -7 -10
c-73 -56 -170 -95 -263 -95c-184 0 -293 120 -293 288c0 241 188 440 422 440c94 0 177 -35 229 -96z" />
    <glyph glyph-name="D" unicode="D" horiz-adv-x="794" 
d="M453 704c196 0 320 -94 320 -273c0 -279 -205 -431 -444 -431h-233c-6 0 -12 4 -12 12l119 679c2 7 9 13 17 13h233zM348 52c198 0 364 138 364 367c0 148 -98 232 -259 232h-200l-105 -599h200z" />
    <glyph glyph-name="E" unicode="E" horiz-adv-x="666" 
d="M670 651h-417l-46 -264h368c6 0 12 -4 12 -13l-4 -27c-1 -6 -9 -12 -17 -12h-368l-50 -283h417c9 0 13 -6 13 -12l-5 -27c-1 -7 -9 -13 -17 -13h-460c-6 0 -12 4 -12 13l119 678c1 6 9 13 17 13h460c6 0 12 -5 12 -13l-4 -27c-2 -7 -10 -13 -18 -13z" />
    <glyph glyph-name="F" unicode="F" horiz-adv-x="627" 
d="M680 704c6 0 12 -5 12 -13l-4 -27c-2 -7 -10 -13 -18 -13h-417l-46 -264h368c6 0 12 -4 12 -13l-4 -27c-1 -6 -9 -12 -17 -12h-368l-57 -322c-1 -7 -8 -13 -15 -13h-30c-6 0 -12 4 -12 13l119 678c1 6 9 13 17 13h460z" />
    <glyph glyph-name="G" unicode="G" horiz-adv-x="769" 
d="M720 343c6 0 12 -4 12 -13l-40 -227c-2 -7 -7 -16 -12 -20c-83 -60 -183 -95 -273 -95c-190 0 -305 121 -305 292c0 240 192 436 422 436c94 0 178 -35 230 -95c2 -2 2 -5 2 -8c0 -4 -1 -8 -3 -10l-24 -22c-2 -2 -5 -3 -9 -3s-8 2 -11 4c-45 49 -119 80 -195 80
c-177 0 -351 -152 -351 -375c0 -148 101 -245 252 -245c83 0 156 28 222 75l31 173h-198c-8 0 -12 6 -12 13l5 27c1 7 9 13 16 13h241z" />
    <glyph glyph-name="H" unicode="H" horiz-adv-x="787" 
d="M772 704c6 0 11 -4 11 -13l-119 -678c-1 -7 -8 -13 -16 -13h-28c-6 0 -13 4 -13 13l57 324h-466l-57 -324c-1 -7 -8 -13 -15 -13h-30c-6 0 -12 4 -12 13l119 678c2 7 9 13 17 13h30c5 0 10 -4 10 -13l-53 -302h466l53 302c2 7 9 13 18 13h28z" />
    <glyph glyph-name="I" unicode="I" horiz-adv-x="265" 
d="M250 704c5 0 10 -4 10 -13l-119 -678c-1 -7 -8 -13 -15 -13h-30c-6 0 -12 4 -12 13l119 678c2 7 9 13 17 13h30z" />
    <glyph glyph-name="J" unicode="J" horiz-adv-x="481" 
d="M473 704c6 0 11 -4 11 -13l-85 -482c-23 -131 -126 -221 -253 -221c-52 0 -102 19 -136 59c-2 1 -3 4 -3 6c0 4 2 8 6 11l24 20c2 2 6 3 9 3c4 0 7 -1 10 -3c26 -24 59 -42 98 -42c101 0 169 68 188 173l84 476c2 7 9 13 18 13h29z" />
    <glyph glyph-name="K" unicode="K" horiz-adv-x="670" 
d="M637 19c1 -2 2 -4 2 -6c0 -7 -6 -13 -12 -13h-40c-8 0 -18 4 -23 10l-259 334l-122 -94l-42 -237c-1 -7 -8 -13 -15 -13h-30c-6 0 -12 4 -12 13l119 678c2 7 9 13 17 13h30c6 0 10 -5 10 -10v-3l-66 -374l478 377c7 5 19 10 28 10h43c3 0 5 -3 5 -7c0 -3 -1 -7 -5 -10
l-391 -308z" />
    <glyph glyph-name="L" unicode="L" horiz-adv-x="596" 
d="M550 52c6 0 11 -4 11 -13l-4 -26c-1 -7 -8 -13 -16 -13h-445c-6 0 -12 4 -12 13l119 678c1 6 9 13 17 13h30c6 0 10 -6 10 -13l-112 -639h402z" />
    <glyph glyph-name="M" unicode="M" horiz-adv-x="914" 
d="M898 691l-95 -678c-1 -6 -9 -13 -16 -13h-30c-6 0 -12 4 -12 13c0 0 58 430 61 450c3 23 10 63 17 99l8 43l-8 -1l-333 -451c-8 -8 -18 -13 -27 -13h-8c-8 0 -17 6 -22 15l-175 449l-8 1l-7 -43c-6 -36 -14 -76 -18 -99c-4 -20 -96 -449 -96 -449c-1 -8 -7 -14 -15 -14
h-31c-6 0 -12 4 -12 13l144 678c3 7 9 13 18 13h34c9 0 17 -7 21 -15l185 -472l350 472c5 8 18 15 27 15h36c6 0 12 -4 12 -13z" />
    <glyph glyph-name="N" unicode="N" horiz-adv-x="778" 
d="M763 704c6 0 11 -4 11 -13l-119 -678c-1 -7 -8 -13 -16 -13h-30c-8 0 -18 6 -22 13c-108 192 -232 404 -339 596l-8 -1c-2 -22 -11 -94 -21 -150l-78 -445c-1 -7 -8 -13 -15 -13h-30c-6 0 -12 4 -12 13l119 678c2 7 9 13 17 13h30c7 0 16 -6 20 -14l340 -597l7 1
c3 28 10 84 21 145l79 452c2 7 9 13 17 13h29z" />
    <glyph glyph-name="O" unicode="O" horiz-adv-x="837" 
d="M808 350c-36 -207 -216 -362 -414 -362c-176 0 -292 121 -292 292c0 228 188 436 421 436c183 0 291 -129 291 -295c0 -23 -2 -47 -6 -71zM404 42c179 0 349 156 349 375c0 150 -98 245 -240 245c-176 0 -350 -153 -350 -376c0 -148 98 -244 241 -244z" />
    <glyph glyph-name="P" unicode="P" horiz-adv-x="685" 
d="M472 704c139 0 220 -69 220 -180c0 -154 -128 -257 -297 -257h-209l-45 -255c-1 -6 -8 -12 -15 -12h-30c-6 0 -12 4 -12 12l120 680c1 6 8 12 16 12h252zM417 320c120 0 215 79 215 197c0 83 -60 134 -158 134h-221l-58 -331h222z" />
    <glyph glyph-name="Q" unicode="Q" horiz-adv-x="832" 
d="M762 19c1 -2 1 -4 1 -6c0 -6 -6 -13 -11 -13h-39c-10 0 -19 7 -25 15l-43 64c-70 -54 -162 -91 -251 -91c-176 0 -292 121 -292 292c0 228 188 436 421 436c183 0 291 -129 291 -295c0 -111 -45 -220 -121 -299zM169 350c-4 -22 -6 -44 -6 -64c0 -148 98 -244 241 -244
c77 0 151 29 214 83l-101 153c-1 1 -1 3 -1 5c0 8 5 18 14 18h33c10 0 15 -7 21 -15l77 -120c55 69 92 156 92 250c0 151 -99 246 -240 246c-163 0 -311 -124 -344 -312z" />
    <glyph glyph-name="R" unicode="R" horiz-adv-x="719" 
d="M394 267h-208l-45 -255c-1 -6 -8 -12 -15 -12h-30c-7 0 -12 5 -12 10v2l120 680c1 6 8 12 16 12h252c137 0 221 -69 221 -179c0 -131 -97 -226 -229 -253l163 -256c1 -2 2 -5 2 -6c-1 -5 -6 -10 -12 -10h-37c-9 0 -19 7 -25 15l-41 64c-39 61 -81 129 -120 188zM195 320
h222c120 0 215 79 215 197c0 83 -61 134 -158 134h-221z" />
    <glyph glyph-name="S" unicode="S" horiz-adv-x="647" 
d="M368 394c146 -27 226 -80 226 -170c0 -142 -139 -236 -302 -236c-90 0 -174 34 -227 84c-2 1 -3 4 -3 8c0 3 1 7 4 10l24 22c4 2 9 4 13 4c3 0 6 -1 8 -2c46 -43 115 -72 193 -72c128 0 228 65 228 168c0 70 -70 105 -206 132c-112 21 -180 76 -180 157
c0 128 136 217 276 217c90 0 173 -28 221 -82c2 -3 3 -6 3 -9c0 -4 -2 -8 -5 -11l-21 -20c-4 -3 -8 -5 -12 -5s-7 2 -10 5c-44 43 -107 68 -187 68c-118 0 -203 -61 -203 -152c0 -58 48 -96 160 -116z" />
    <glyph glyph-name="T" unicode="T" horiz-adv-x="614" 
d="M682 704c6 0 12 -4 12 -13l-4 -27c-2 -7 -10 -13 -18 -13h-243l-112 -638c-1 -7 -8 -13 -17 -13h-30c-6 0 -12 4 -12 13l112 638h-244c-7 0 -12 4 -12 10c0 1 1 2 1 3l4 27c2 7 9 13 17 13h546z" />
    <glyph glyph-name="U" unicode="U" horiz-adv-x="796" 
d="M787 704c6 0 11 -4 11 -13l-68 -389c-33 -188 -180 -314 -356 -314c-157 0 -251 96 -251 245c0 22 2 45 6 69l68 389c2 7 9 13 17 13h30c5 0 10 -4 10 -13l-66 -378c-4 -23 -6 -45 -6 -66c0 -124 72 -205 202 -205c151 0 262 111 290 271l66 378c2 7 8 13 17 13h30z" />
    <glyph glyph-name="V" unicode="V" horiz-adv-x="703" 
d="M773 704c7 0 10 -4 10 -9c0 -3 -2 -8 -4 -11l-411 -670c-4 -7 -14 -14 -23 -14h-30c-10 0 -17 7 -20 14l-175 671c-1 1 -1 3 -1 4c0 7 5 15 16 15h29c10 0 16 -6 18 -14l23 -90c43 -169 123 -477 137 -535c84 143 314 520 378 625c6 8 14 14 23 14h30z" />
    <glyph glyph-name="W" unicode="W" horiz-adv-x="949" 
d="M973 704c6 0 9 -4 9 -10v-5l-230 -675c-3 -8 -13 -14 -22 -14h-32c-11 0 -17 7 -20 14l-133 509l-314 -509c-5 -8 -13 -14 -22 -14h-34c-8 0 -15 6 -16 14l8 675c1 7 8 15 15 15h29c9 0 15 -6 15 -14c2 -183 -10 -538 -16 -605l9 -1l303 496c5 8 13 14 23 14h25
c10 0 17 -6 20 -14l126 -495l8 -1l11 39c13 47 26 98 38 130c19 55 150 437 151 437c3 7 12 14 20 14h29z" />
    <glyph glyph-name="X" unicode="X" horiz-adv-x="668" 
d="M631 19c1 -2 2 -4 2 -6c0 -6 -6 -13 -13 -13h-33c-9 0 -19 8 -25 16l-195 301c-97 -98 -203 -204 -300 -301c-8 -8 -20 -16 -29 -16h-32c-7 0 -10 4 -10 9c0 4 1 7 4 10l340 339l-211 327c0 1 -1 2 -1 3c0 8 6 16 14 16h33c8 0 17 -7 23 -15l184 -288l287 288
c8 8 21 15 29 15h34c6 0 10 -4 10 -9c0 -3 -2 -7 -5 -10l-326 -325z" />
    <glyph glyph-name="Y" unicode="Y" horiz-adv-x="625" 
d="M710 704c5 0 8 -5 8 -10c0 -3 0 -6 -2 -8c-109 -126 -237 -274 -345 -400l-48 -273c-1 -7 -8 -13 -18 -13h-29c-6 0 -13 4 -13 13l48 273c-68 133 -137 267 -205 400c0 7 4 18 14 18h31c8 0 15 -7 20 -15l179 -348l301 348c7 8 19 15 27 15h32z" />
    <glyph glyph-name="Z" unicode="Z" horiz-adv-x="681" 
d="M44 13l4 23c1 6 6 13 12 18l561 597h-440c-7 0 -12 4 -12 10c0 1 1 2 1 3l4 27c1 6 9 13 17 13h504c6 0 12 -5 12 -13l-4 -25c-1 -5 -6 -12 -10 -16c-185 -197 -378 -399 -563 -598h461c6 0 12 -4 12 -12l-5 -27c-1 -7 -8 -13 -16 -13h-526c-6 0 -12 4 -12 13z" />
    <glyph glyph-name="space" unicode=" " horiz-adv-x="337" 
 />
    <glyph glyph-name="zero" unicode="0" 
d="M413 716c129 0 199 -69 199 -226c0 -40 -5 -87 -14 -139c-45 -257 -152 -363 -314 -363c-129 0 -199 67 -199 225c0 40 5 86 14 138c46 257 152 365 314 365zM294 41c124 0 206 91 244 310c8 49 13 92 13 129c0 127 -52 183 -148 183c-124 0 -205 -92 -244 -312
c-9 -49 -13 -91 -13 -127c0 -128 51 -183 148 -183z" />
    <glyph glyph-name="one" unicode="1" 
d="M512 704c6 0 11 -4 11 -13l-119 -678c-1 -7 -8 -13 -16 -13h-30c-6 0 -13 4 -13 13l108 615c-70 -54 -144 -112 -213 -165c-3 -2 -7 -4 -11 -4c-3 0 -6 2 -8 5l-14 21c-2 3 -3 6 -3 8c1 3 3 6 7 9l261 200c1 1 5 2 9 2h31z" />
    <glyph glyph-name="two" unicode="2" 
d="M169 558c35 84 130 158 246 158c115 0 187 -73 187 -172c0 -68 -37 -148 -99 -199c-113 -95 -237 -196 -351 -293h353c9 0 13 -5 13 -12l-5 -27c-1 -7 -9 -13 -17 -13h-416c-9 0 -13 6 -13 13l5 30c2 12 14 22 23 30l381 316c45 37 65 93 65 144c0 74 -54 129 -136 129
s-152 -52 -184 -118c-1 -2 -18 -17 -20 -10l-25 8c-5 1 -9 4 -9 10c0 2 2 5 2 6z" />
    <glyph glyph-name="three" unicode="3" 
d="M148 126c20 -49 67 -84 135 -84c101 0 199 83 199 196c0 76 -58 122 -140 122h-29c-9 0 -13 6 -13 13l5 28c1 7 9 13 17 13h19c82 0 164 59 164 149c0 59 -47 99 -112 99c-91 0 -140 -76 -149 -76c-2 0 -4 0 -6 1l-23 15c-3 2 -4 5 -4 8s1 6 2 9c30 41 96 97 190 97
c96 0 162 -60 162 -143c0 -84 -57 -145 -123 -180v-4c68 -29 100 -80 100 -147c0 -141 -130 -254 -269 -254c-118 0 -183 75 -183 114c0 7 5 13 11 16l28 14c3 1 5 2 8 2c5 0 9 -3 11 -8z" />
    <glyph glyph-name="four" unicode="4" 
d="M509 690c6 5 19 14 26 14h27c6 0 11 -5 11 -13l-80 -458h99c6 0 11 -4 11 -13l-4 -27c-2 -7 -9 -13 -17 -13h-99l-29 -167c-1 -7 -8 -13 -16 -13h-29c-6 0 -12 4 -12 13l29 167h-371c-7 0 -12 4 -12 10c0 1 1 3 5 27c1 7 5 14 9 18zM122 233h314l67 383z" />
    <glyph glyph-name="five" unicode="5" 
d="M237 689c4 9 10 15 20 15h341c5 0 11 -4 11 -13l-4 -27c-2 -7 -10 -14 -17 -14h-306l-59 -215c37 12 82 27 134 27c122 0 204 -75 204 -189c0 -159 -142 -285 -292 -285c-129 0 -193 78 -193 118c2 12 34 27 48 27c4 -1 7 -5 10 -8c20 -48 69 -83 145 -83
c107 0 221 94 221 222c0 88 -65 145 -158 145c-65 0 -112 -17 -149 -47c-4 -4 -10 -7 -15 -7c-2 0 -4 1 -6 2l-16 9c-4 1 -5 4 -5 8c0 2 0 4 1 7z" />
    <glyph glyph-name="six" unicode="6" 
d="M370 456c118 0 196 -78 196 -189c0 -155 -139 -279 -279 -279c-126 0 -195 71 -195 200c0 25 3 52 8 81c42 238 206 446 455 446c6 0 12 -5 12 -14l-4 -25c-2 -8 -10 -14 -18 -14c-164 0 -292 -111 -362 -283l6 -4c56 55 124 81 181 81zM297 42c106 0 207 89 207 219
c0 87 -58 142 -143 142c-109 0 -212 -82 -212 -215c0 -87 53 -146 148 -146z" />
    <glyph glyph-name="seven" unicode="7" 
d="M186 16c-7 -10 -19 -16 -27 -16h-33c-5 0 -10 4 -10 10c0 2 0 4 2 7c170 248 352 486 463 633h-403c-6 0 -12 5 -12 11c0 1 1 2 1 3l4 27c1 6 10 13 17 13h456c6 0 12 -5 12 -13l-4 -23c-2 -11 -7 -20 -13 -29c-90 -117 -283 -374 -453 -623z" />
    <glyph glyph-name="eight" unicode="8" 
d="M456 383c62 -30 93 -87 93 -148c0 -135 -128 -247 -264 -247c-116 0 -190 74 -190 175c0 86 57 178 158 220l2 12c-44 31 -64 73 -64 117c0 112 106 204 223 204c95 0 159 -62 159 -146c0 -64 -36 -130 -115 -175zM404 662c-82 0 -154 -67 -154 -143
c0 -58 44 -107 110 -107c79 0 155 74 155 148c0 58 -45 102 -111 102zM295 42c99 0 193 87 193 186c0 73 -56 131 -137 131c-103 0 -194 -88 -194 -184c0 -75 55 -133 138 -133z" />
    <glyph glyph-name="nine" unicode="9" 
d="M329 247c-118 0 -196 76 -196 187c0 156 137 282 279 282c125 0 195 -73 195 -203c0 -25 -2 -51 -7 -79c-42 -237 -207 -445 -457 -445c-9 0 -13 7 -13 15l4 24c2 8 10 14 18 14c166 0 293 109 362 280l-5 5c-56 -54 -125 -80 -180 -80zM402 662
c-107 0 -209 -92 -209 -220c0 -87 59 -142 145 -142c108 0 211 82 211 215c0 87 -53 147 -147 147z" />
    <glyph glyph-name="exclam" unicode="!" horiz-adv-x="302" 
d="M282 716c6 0 11 -4 11 -13l-34 -194c-21 -102 -43 -208 -65 -309c-2 -7 -10 -13 -18 -13h-12c-8 0 -11 6 -11 13l42 308l34 195c2 7 10 13 18 13h35zM97 34c5 23 29 45 54 45c22 0 41 -18 41 -38c0 -29 -30 -53 -57 -53c-23 0 -39 16 -39 38c0 3 0 5 1 8z" />
    <glyph glyph-name="quotedbl" unicode="&#x22;" horiz-adv-x="390" 
d="M234 742c7 0 12 -7 12 -14l-53 -223c-3 -7 -11 -13 -19 -13h-7c-6 0 -12 4 -12 10c0 1 1 2 1 3l24 223c1 7 9 14 17 14h37zM410 742c8 0 13 -7 13 -14l-55 -224c-2 -6 -9 -12 -16 -12h-8c-7 0 -13 4 -13 10c0 1 1 2 1 3l24 223c1 7 8 14 17 14h37z" />
    <glyph glyph-name="numbersign" unicode="#" 
d="M88 470c0 9 8 16 17 16h139l45 200c2 7 10 14 18 14h13c10 0 20 -5 20 -19c-17 -70 -30 -124 -46 -195h165c14 65 30 136 45 200c2 7 11 14 18 14h14c10 0 19 -5 19 -19l-45 -195h92c9 0 17 -7 17 -16v-19c0 -9 -8 -16 -17 -16h-105l-40 -180h130c10 0 17 -7 17 -16v-19
c0 -9 -7 -17 -17 -17h-142l-44 -192c-2 -8 -10 -14 -17 -14h-17c-10 0 -16 7 -16 15v4c15 62 29 125 42 187h-162l-45 -192c-1 -8 -9 -14 -17 -14h-18c-10 0 -16 6 -16 15c0 1 1 2 1 4c14 62 28 125 43 187h-89c-8 0 -15 8 -15 17v19c0 9 7 16 15 16h100l41 180h-126
c-9 0 -17 7 -17 16v19zM282 435l-40 -180h163l42 180h-165z" />
    <glyph glyph-name="dollar" unicode="$" horiz-adv-x="637" 
d="M107 114c47 -45 113 -72 194 -72c126 0 227 64 227 167c0 69 -69 107 -206 133c-112 21 -180 75 -180 157c0 119 118 205 247 216l11 62c1 7 9 13 17 13h29c6 0 12 -4 12 -13l-11 -61c78 -5 149 -33 193 -82c2 -3 3 -6 3 -9c0 -4 -2 -7 -5 -11l-22 -20
c-3 -3 -8 -5 -12 -5c-3 0 -7 3 -10 5c-44 43 -107 69 -186 69c-119 0 -204 -62 -204 -153c0 -58 48 -95 161 -115c145 -26 226 -83 226 -172c0 -132 -125 -224 -272 -233l-9 -50c-1 -7 -9 -14 -17 -14h-29c-6 0 -12 5 -12 14l9 50c-81 5 -151 34 -200 82c-2 2 -4 5 -4 8
s2 5 5 10l24 22c3 2 8 6 11 6c4 0 7 -1 10 -4z" />
    <glyph glyph-name="percent" unicode="%" horiz-adv-x="799" 
d="M282 714c70 0 108 -37 108 -120c0 -21 -3 -43 -7 -69c-23 -133 -80 -190 -167 -190c-69 0 -106 37 -106 120c0 181 82 259 172 259zM223 377c58 -1 117 66 117 209c0 58 -22 84 -65 84c-55 0 -115 -63 -115 -207c0 -59 22 -86 63 -86zM690 372c70 0 108 -37 108 -120
c0 -20 -3 -43 -7 -69c-24 -134 -81 -189 -168 -189c-69 0 -106 35 -106 118c0 20 2 44 7 71c23 133 80 189 166 189zM631 36c58 0 118 62 118 208c0 58 -23 85 -66 85c-57 0 -116 -65 -116 -208c0 -59 22 -85 64 -85zM711 705h18c5 0 8 -4 8 -9c0 -3 0 -5 -2 -8l-515 -674
c-6 -8 -15 -14 -24 -14h-21c-5 0 -8 4 -8 9c0 2 1 5 2 7c163 213 354 461 515 675c7 8 18 14 27 14z" />
    <glyph glyph-name="ampersand" unicode="&#x26;" horiz-adv-x="718" 
d="M410 662c-67 0 -130 -50 -130 -115c0 -34 20 -70 64 -122c97 45 161 101 161 161c0 49 -35 76 -95 76zM298 42c68 0 142 40 203 105l-183 214c-94 -56 -163 -100 -163 -185c0 -73 47 -134 143 -134zM424 716c85 0 140 -51 140 -120c0 -77 -48 -138 -186 -212l161 -192
c41 54 78 119 99 180c2 6 8 10 17 10l23 -4c5 -1 8 -6 8 -11v-4c-25 -68 -64 -141 -115 -209l111 -135c1 -2 1 -4 1 -6c0 -7 -4 -13 -11 -13h-39c-7 0 -16 6 -22 13l-79 94c-83 -78 -174 -119 -258 -119c-110 0 -182 71 -182 169c0 112 76 172 196 244
c-48 56 -67 94 -67 133c0 89 86 182 203 182z" />
    <glyph glyph-name="quotesingle" unicode="'" horiz-adv-x="215" 
d="M234 742c8 0 12 -6 12 -13l-53 -224c-2 -8 -11 -13 -18 -13h-9c-6 0 -12 3 -12 13c9 74 17 149 26 223c1 7 6 14 16 14h38z" />
    <glyph glyph-name="parenleft" unicode="(" horiz-adv-x="322" 
d="M302 722c10 11 21 20 33 20h23c6 0 10 -3 10 -8c0 -2 0 -4 -2 -7c-171 -206 -222 -444 -222 -626c0 -97 17 -195 61 -285c1 -2 1 -4 1 -5c0 -7 -6 -11 -14 -11h-23c-53 0 -83 230 -83 322c0 202 79 424 216 600z" />
    <glyph glyph-name="parenright" unicode=")" horiz-adv-x="322" 
d="M230 722c38 -89 58 -192 58 -297c0 -195 -78 -427 -217 -604c-9 -11 -22 -21 -33 -21h-23c-7 0 -11 3 -11 7c0 3 1 6 4 9c171 207 220 451 220 627c0 95 -16 193 -59 284c-1 2 -1 4 -1 5c0 6 5 10 13 10h23c12 0 20 -9 26 -20z" />
    <glyph glyph-name="asterisk" unicode="*" horiz-adv-x="526" 
d="M378 739c2 3 6 6 9 6s7 0 11 -1h4c8 -5 20 -7 20 -20l-11 -22l-83 -130c56 2 114 6 169 8c10 0 18 -7 18 -17v-14c0 -10 -8 -16 -18 -16l-169 8l83 -131l11 -21c0 -7 -4 -14 -12 -16l-12 -7c-2 -1 -5 -1 -7 -1c-6 0 -10 3 -13 8l-77 152l-78 -152c-4 -6 -9 -9 -15 -9
c-1 0 -4 0 -5 1c-18 9 -25 14 -25 24c0 1 0 3 1 4c24 49 63 99 93 148c-56 -3 -112 -6 -169 -8c-9 0 -16 6 -16 16v14c0 10 7 17 16 17l170 -8l-84 129c-3 5 -11 16 -11 21c0 7 3 13 9 17l10 4c5 2 11 2 16 2c4 0 8 -3 10 -6c34 -66 47 -90 77 -151z" />
    <glyph glyph-name="plus" unicode="+" 
d="M84 346c0 7 6 14 13 14h222v222c0 7 6 14 15 14h25c8 0 15 -7 15 -14v-222h221c8 0 14 -7 14 -14v-24c0 -8 -6 -15 -14 -15h-221v-221c0 -9 -7 -15 -15 -15h-25c-9 0 -15 6 -15 15v221h-222c-7 0 -13 7 -13 15v24z" />
    <glyph glyph-name="comma" unicode="," horiz-adv-x="256" 
d="M96 -22c0 21 -34 29 -34 58c0 26 29 54 59 54c24 0 44 -18 44 -50c0 -49 -46 -135 -114 -201c-3 -3 -6 -4 -12 -4s-15 4 -15 8c0 5 2 8 4 10c34 42 63 96 68 125z" />
    <glyph glyph-name="hyphen" unicode="-" horiz-adv-x="356" 
d="M75 299c1 7 8 13 17 13h239c7 0 12 -4 12 -13l-4 -22c-1 -7 -8 -13 -17 -13h-239c-7 0 -12 4 -12 13z" />
    <glyph glyph-name="period" unicode="." horiz-adv-x="253" 
d="M101 -12c-26 0 -44 20 -44 44c0 28 32 57 62 57c26 0 45 -19 45 -42c0 -30 -31 -59 -63 -59z" />
    <glyph glyph-name="slash" unicode="/" horiz-adv-x="352" 
d="M411 742h20c6 0 11 -5 11 -11c0 -2 0 -3 -1 -5l-411 -796c-3 -5 -12 -11 -17 -11h-22c-7 0 -11 5 -11 11c0 2 1 5 2 7l412 795c2 5 10 10 17 10z" />
    <glyph glyph-name="colon" unicode=":" horiz-adv-x="268" 
d="M110 -12c-26 0 -44 20 -44 44c0 28 32 57 62 57c26 0 45 -19 45 -42c0 -30 -31 -59 -63 -59zM188 427c-25 0 -44 19 -44 42c0 31 32 60 62 60c26 0 45 -19 45 -44c0 -29 -31 -58 -63 -58z" />
    <glyph glyph-name="semicolon" unicode=";" horiz-adv-x="269" 
d="M147 477c5 28 33 52 61 52c26 0 44 -19 44 -43c0 -30 -30 -59 -62 -59c-25 0 -44 19 -44 42c0 3 0 5 1 8zM103 -22c0 21 -34 29 -34 58c0 26 29 54 59 54c24 0 44 -18 44 -50c0 -49 -46 -135 -114 -201c-3 -3 -6 -4 -12 -4s-15 4 -15 8c0 5 2 8 4 10c34 42 63 96 68 125z
" />
    <glyph glyph-name="less" unicode="&#x3c;" 
d="M597 528c0 -6 -4 -13 -9 -14l-422 -181l422 -181c5 -2 9 -8 9 -13v-27c0 -8 -7 -13 -16 -13l-33 14c-149 62 -295 130 -444 192c-5 3 -8 8 -8 13v25c0 5 1 13 8 18l474 205c2 0 4 1 4 1c8 0 15 -5 15 -14v-25z" />
    <glyph glyph-name="equal" unicode="=" 
d="M591 415h-489c-8 0 -14 6 -14 14v24c0 7 6 14 14 14h489c8 0 14 -7 14 -14v-24c0 -8 -6 -14 -14 -14zM591 200h-489c-8 0 -14 6 -14 15v24c0 8 6 13 14 13h489c8 0 14 -5 14 -13v-24c0 -9 -6 -15 -14 -15z" />
    <glyph glyph-name="greater" unicode="&#x3e;" 
d="M95 528v25c0 9 7 14 15 14l29 -12c214 -92 334 -143 450 -195c4 -2 8 -8 8 -12v-30c0 -5 -4 -9 -8 -12l-474 -206c-2 0 -3 -1 -5 -1c-8 0 -15 4 -15 13v27c0 6 5 11 10 13l422 181l-422 181c-5 1 -10 8 -10 14z" />
    <glyph glyph-name="question" unicode="?" horiz-adv-x="544" 
d="M374 716c122 0 191 -65 191 -154c0 -109 -87 -182 -249 -277l-18 -99c-1 -7 -8 -14 -16 -14h-31c-7 0 -13 5 -13 14l21 115c1 6 8 14 15 18c110 64 227 129 227 228c0 68 -57 114 -140 114c-59 0 -122 -20 -177 -55c-3 -2 -7 -3 -10 -3s-7 2 -9 5l-14 26c-1 1 -1 2 -1 4
c0 4 3 10 7 13c61 37 131 65 217 65zM248 79c23 0 42 -18 42 -38c0 -29 -30 -53 -58 -53c-23 0 -39 16 -39 38c0 26 27 53 55 53z" />
    <glyph glyph-name="at" unicode="@" horiz-adv-x="1022" 
d="M703 27c-41 0 -68 25 -68 79c0 15 2 33 7 54c-2 0 -6 1 -8 0c-60 -85 -134 -133 -212 -133c-84 0 -134 58 -134 154c0 118 107 348 291 348c60 0 110 -25 143 -83l17 58c3 7 12 13 18 13h25c8 0 11 -9 11 -17c-2 -11 -11 -32 -19 -58l-74 -237c-12 -30 -15 -63 -15 -83
c0 -33 11 -52 36 -52c134 0 225 199 225 334c0 164 -118 280 -314 280c-277 0 -494 -241 -494 -511c0 -203 144 -312 355 -312c108 0 205 29 274 55c2 1 4 1 7 1c8 0 8 -1 12 -22c0 -6 -3 -12 -9 -15c-75 -30 -170 -62 -292 -62c-254 0 -397 141 -397 350
c0 326 274 560 554 560c211 0 351 -120 351 -318c0 -187 -126 -382 -290 -383zM444 77c112 0 229 179 251 305l-1 4c-12 27 -39 95 -120 95c-106 0 -226 -146 -226 -296c0 -72 38 -108 96 -108z" />
    <glyph glyph-name="bracketleft" unicode="[" horiz-adv-x="345" 
d="M376 697h-127l-150 -851h127c9 0 13 -6 13 -13l-3 -19c-2 -7 -10 -14 -18 -14h-168c-7 0 -12 5 -12 11c0 1 1 2 1 3l161 916c1 6 8 12 16 12h168c9 0 13 -6 13 -12l-3 -19c-1 -7 -10 -14 -18 -14z" />
    <glyph glyph-name="backslash" unicode="\" horiz-adv-x="352" 
d="M138 742h20c5 0 12 -5 14 -10c132 -796 132 -797 132 -798c0 -8 -8 -15 -15 -15h-23c-5 0 -12 6 -13 11c-129 797 -129 798 -129 799c0 7 6 13 14 13z" />
    <glyph glyph-name="bracketright" unicode="]" horiz-adv-x="345" 
d="M294 697h-126c-7 0 -11 6 -11 14l3 19c1 6 8 12 16 12h169c6 0 12 -4 12 -12l-161 -916c-2 -7 -9 -14 -17 -14h-169c-7 0 -12 5 -12 11c0 1 1 2 1 3l3 19c1 7 8 13 16 13h126z" />
    <glyph glyph-name="asciicircum" unicode="^" horiz-adv-x="618" 
d="M587 374c1 -3 2 -6 2 -8c0 -8 -6 -14 -15 -14h-26c-6 0 -14 5 -17 10l-181 315l-181 -314c-3 -5 -11 -11 -16 -11h-28c-9 0 -16 6 -16 13c0 3 1 5 3 8l205 348c2 5 12 10 17 10h32c6 0 14 -5 17 -10z" />
    <glyph glyph-name="underscore" unicode="_" horiz-adv-x="580" 
d="M623 -150v-34h-590v34h590z" />
    <glyph glyph-name="grave" unicode="`" horiz-adv-x="475" 
d="M331 749l32 -106v-4c0 -8 -5 -16 -16 -16h-12c-5 0 -11 3 -13 7l-65 114c-1 1 -1 2 -1 3c0 7 6 16 16 16h42c9 0 15 -7 17 -14z" />
    <glyph glyph-name="braceleft" unicode="{" horiz-adv-x="409" 
d="M461 731l-3 -18c-1 -8 -9 -14 -16 -14h-11c-94 0 -127 -32 -144 -131l-14 -79c-18 -98 -73 -176 -152 -210l-3 -13c55 -26 83 -82 83 -154c0 -18 -2 -37 -5 -57l-14 -81c-4 -20 -5 -37 -5 -51c0 -58 29 -78 103 -78h11c8 0 12 -6 12 -13l-3 -18c-2 -8 -10 -14 -17 -14
h-26c-94 0 -136 37 -136 118c0 16 2 33 5 53l14 80c4 23 6 44 6 64c0 86 -40 131 -98 134c-5 1 -9 7 -9 13l3 21c2 7 8 14 14 14c74 4 139 67 162 195l14 79c21 117 79 171 191 171h26c7 0 12 -6 12 -11z" />
    <glyph glyph-name="bar" unicode="|" horiz-adv-x="267" 
d="M252 742c6 0 11 -6 11 -12l-161 -916c-2 -7 -10 -14 -16 -14h-20c-7 0 -12 5 -12 11c0 1 1 2 1 3l161 916c1 6 8 12 16 12h20z" />
    <glyph glyph-name="braceright" unicode="}" horiz-adv-x="409" 
d="M157 713l3 18c1 5 9 11 16 11h27c92 0 135 -37 135 -117c0 -16 -2 -34 -5 -54l-14 -79c-4 -22 -5 -43 -6 -61c0 -87 41 -131 101 -134c5 0 8 -5 8 -10v-4l-3 -21c-1 -6 -9 -12 -15 -13c-71 -3 -141 -70 -163 -198l-14 -80c-21 -117 -79 -171 -190 -171h-27
c-6 0 -12 4 -12 11c0 1 1 2 1 3l3 18c1 7 9 13 16 13h11c93 0 127 32 144 129l14 81c17 100 74 178 153 211l3 13c-55 27 -84 83 -84 155c0 18 1 36 5 55l14 79c3 20 5 37 5 52c0 59 -29 79 -103 79h-11c-8 0 -12 6 -12 14z" />
    <glyph glyph-name="asciitilde" unicode="~" horiz-adv-x="709" 
d="M678 431c6 0 12 -8 12 -15c-12 -94 -81 -169 -159 -169c-103 0 -195 125 -272 125c-54 0 -94 -50 -105 -117c-2 -7 -9 -13 -15 -13h-26c-7 0 -13 5 -13 14c12 96 81 170 160 170c101 0 200 -125 272 -125c54 0 95 50 106 116c1 7 7 14 15 14h25z" />
    <glyph glyph-name="degree" unicode="&#xb0;" horiz-adv-x="466" 
d="M112 571c0 87 72 157 157 157s156 -71 156 -157c0 -85 -70 -155 -156 -155s-157 69 -157 155zM158 571c0 -62 49 -111 111 -111s111 50 111 111c0 63 -49 111 -111 111c-63 0 -111 -48 -111 -111z" />
    <glyph glyph-name="cent" unicode="&#xa2;" horiz-adv-x="526" 
d="M420 704c6 0 11 -4 11 -13l-12 -69c56 -6 106 -32 141 -68c3 -3 3 -7 3 -9c-1 -3 -2 -6 -5 -8l-19 -23c-3 -2 -8 -3 -13 -3c-3 0 -7 0 -9 1c-35 34 -84 60 -135 60c-123 0 -233 -98 -233 -278c0 -103 59 -159 156 -159c52 0 109 26 156 60c2 1 5 2 8 2c5 0 10 -2 14 -4
l11 -22c1 -2 1 -4 1 -6c0 -3 -1 -8 -6 -12c-48 -37 -106 -62 -165 -69l-12 -71c-1 -7 -8 -13 -16 -13h-29c-6 0 -13 4 -13 13l12 71c-110 11 -176 82 -176 202c0 202 125 322 271 336l12 69c2 7 9 13 18 13h29z" />
    <glyph glyph-name="sterling" unicode="&#xa3;" horiz-adv-x="588" 
d="M510 0c-14 -4 -73 -9 -108 -9c-59 0 -113 22 -213 22c-43 0 -88 -5 -127 -15c-1 0 -1 -1 -4 -1c-7 0 -13 5 -14 12c-3 44 -3 45 -3 46c1 4 7 10 11 13c80 35 128 125 140 253h-79c-6 0 -12 5 -12 14l3 18c1 6 10 12 17 13h73c2 89 4 107 9 137c21 119 120 213 248 213
c63 0 153 -27 153 -57c0 -5 -1 -7 -4 -12l-17 -16c-4 -3 -8 -5 -13 -5c-3 0 -7 1 -10 3c-29 27 -68 37 -116 37c-94 0 -163 -63 -179 -153c-7 -39 -8 -76 -10 -147h172c6 0 12 -5 12 -13l-3 -18c-2 -8 -9 -14 -17 -14h-165l-4 -24c-9 -52 -27 -163 -139 -240
c-1 -1 -2 -3 0 -4c27 6 61 9 102 9c72 0 136 -21 210 -21c30 0 61 9 91 9c7 0 11 -5 13 -10l-1 -25c-1 -8 -7 -13 -16 -15z" />
    <glyph glyph-name="section" unicode="&#xa7;" horiz-adv-x="552" 
d="M344 101c65 -43 102 -78 102 -131c0 -100 -93 -180 -231 -180c-69 0 -133 27 -174 64c-2 2 -5 7 -5 9c1 3 3 6 6 10l25 23c3 2 7 4 10 4c4 0 7 -1 10 -4c33 -32 85 -54 132 -54c85 0 165 33 165 108c0 53 -56 89 -150 141c-90 49 -141 101 -141 162c0 76 68 145 169 191
c-67 40 -105 75 -105 129c0 99 94 179 230 179c70 0 135 -24 176 -64c2 -3 2 -8 2 -11c-1 -3 -2 -6 -5 -8l-22 -21c-4 -4 -7 -6 -11 -6c-3 0 -6 2 -8 5l-16 11c-35 24 -73 41 -117 42c-88 0 -166 -36 -166 -108c0 -53 53 -88 151 -142c89 -50 139 -102 139 -165
c0 -73 -66 -139 -166 -184zM156 279c-1 -6 -2 -12 -2 -17c0 -59 63 -93 148 -140c81 39 147 100 147 154c0 61 -63 96 -148 144c-58 -29 -136 -86 -145 -141z" />
    <glyph glyph-name="bullet" unicode="&#x2022;" horiz-adv-x="408" 
d="M100 338c0 79 67 144 144 144s143 -66 143 -144c0 -79 -64 -145 -143 -145c-77 0 -144 64 -144 145z" />
    <glyph glyph-name="paragraph" unicode="&#xb6;" horiz-adv-x="600" 
d="M628 656h-28l-148 -842c-2 -7 -10 -14 -17 -14h-23c-7 0 -13 5 -13 11c0 1 1 2 1 3l148 842h-137l-148 -842c-2 -7 -10 -14 -18 -14h-22c-9 0 -14 5 -14 11c0 1 1 2 1 3l84 479c-118 0 -188 73 -188 168c0 148 115 243 271 243h260c7 0 12 -5 12 -14l-3 -20
c-2 -7 -9 -14 -18 -14z" />
    <glyph glyph-name="germandbls" unicode="&#xdf;" horiz-adv-x="635" 
d="M518 191c1 5 1 11 1 16c0 65 -63 138 -180 147c-7 1 -13 5 -13 12c0 1 1 3 1 4l7 44c2 6 7 14 14 17c70 31 157 88 157 175c0 47 -32 95 -105 95c-78 0 -157 -40 -184 -197l-86 -489c-1 -8 -8 -15 -16 -15h-29c-7 0 -11 6 -11 15l86 489c29 163 117 248 252 248
c99 0 154 -58 154 -131c0 -72 -54 -158 -164 -211l-2 -9c123 -30 181 -103 181 -180c0 -122 -116 -233 -236 -233c-28 0 -116 15 -116 45c0 3 1 7 3 10l10 15c3 6 9 8 15 8c2 0 5 0 7 -1c27 -15 62 -28 89 -28c84 0 151 75 165 154z" />
    <glyph glyph-name="registered" unicode="&#xae;" horiz-adv-x="882" 
d="M667 156c7 -9 2 -22 -13 -22h-30c-7 0 -18 5 -24 12c-55 67 -86 107 -119 147h-108v-145c0 -7 -6 -14 -16 -14h-25c-10 0 -17 7 -17 14v414c0 7 7 15 17 15h155c98 0 165 -57 165 -142c0 -63 -39 -111 -103 -137zM373 348h124c60 0 96 32 96 87c0 54 -36 87 -96 87h-124
v-174zM479 750c219 0 397 -177 397 -397c0 -217 -178 -397 -397 -397s-396 180 -396 397c0 220 177 397 396 397zM479 5c192 0 348 156 348 348s-156 349 -348 349c-193 0 -348 -157 -348 -349s155 -348 348 -348z" />
    <glyph glyph-name="copyright" unicode="&#xa9;" horiz-adv-x="882" 
d="M623 223l14 -17c5 -7 5 -17 -2 -24c-40 -35 -95 -56 -152 -56c-134 0 -222 94 -222 228c0 136 88 229 222 229c58 0 110 -22 152 -57c8 -6 7 -18 2 -23l-15 -16c-7 -7 -18 -7 -24 -1c-30 29 -74 43 -115 43c-91 0 -165 -70 -165 -175s74 -173 165 -173c41 0 88 17 116 42
c7 6 17 6 24 0zM479 750c219 0 397 -177 397 -397c0 -217 -178 -397 -397 -397s-396 180 -396 397c0 220 177 397 396 397zM479 5c192 0 348 156 348 348s-156 349 -348 349c-193 0 -348 -157 -348 -349s155 -348 348 -348z" />
    <glyph glyph-name="trademark" unicode="&#x2122;" horiz-adv-x="833" 
d="M659 393c-3 -5 -11 -8 -16 -9h-11c-5 0 -14 1 -16 8l-115 270h-9v-319c0 -9 -7 -16 -15 -16h-11c-8 0 -15 7 -15 16v345c0 8 7 16 15 16h55c6 0 12 -5 13 -10l103 -252c18 43 85 207 103 252c2 5 9 10 15 10h48c8 0 16 -8 16 -16v-345c0 -9 -8 -16 -16 -16h-12
c-9 0 -15 7 -15 16v313h-9zM360 688v-9c0 -9 -6 -15 -15 -15h-108v-321c0 -9 -7 -16 -15 -16h-16c-8 0 -15 7 -15 16v321h-107c-8 0 -15 6 -15 15v9c0 8 7 16 15 16h261c9 0 15 -8 15 -16z" />
    <glyph glyph-name="acute" unicode="&#xb4;" horiz-adv-x="475" 
d="M300 643l71 111c5 4 14 9 18 9h44c7 0 11 -5 11 -11c0 -3 -1 -6 -3 -9l-106 -114c-1 -3 -9 -6 -13 -6h-13c-8 0 -12 5 -12 11c0 3 1 6 3 9z" />
    <glyph glyph-name="dieresis" unicode="&#xa8;" horiz-adv-x="484" 
d="M239 641c-23 0 -38 16 -38 37c0 27 26 50 53 50c19 0 37 -15 37 -36c0 -27 -28 -51 -52 -51zM431 641c-21 0 -38 16 -38 37c0 27 28 50 53 50c21 0 38 -15 38 -35c0 -28 -26 -52 -53 -52z" />
    <glyph glyph-name="plusminus" unicode="&#xb1;" 
d="M85 393c0 8 6 14 13 14h223v215c0 7 6 14 15 14h24c8 0 15 -7 15 -14v-215h220c8 0 14 -6 14 -14v-24c0 -8 -6 -15 -14 -15h-220v-215c0 -9 -7 -16 -15 -16h-24c-9 0 -15 7 -15 16v215h-223c-7 0 -13 7 -13 15v24zM595 0h-496c-8 0 -14 6 -14 14v25c0 7 6 13 14 13h496
c8 0 14 -6 14 -13v-25c0 -8 -6 -14 -14 -14z" />
    <glyph glyph-name="yen" unicode="&#xa5;" horiz-adv-x="625" 
d="M711 704c6 0 10 -5 10 -10c0 0 -1 -7 -4 -8c-46 -54 -99 -113 -144 -165l-71 -84h111c6 0 11 -5 11 -13l-4 -24c-1 -7 -9 -15 -17 -15h-147l-77 -89l-11 -27h215c6 0 11 -4 11 -13l-4 -24c-1 -7 -8 -13 -16 -13h-215l-36 -206c-1 -7 -8 -13 -17 -13h-29
c-10 0 -14 6 -14 13l36 206h-216c-8 0 -12 6 -12 13l4 23c2 7 10 13 17 14h216l-2 26l-47 90h-147c-7 0 -11 7 -11 15l4 24c1 6 10 13 17 13h112c-43 82 -86 166 -129 249c0 1 -1 3 -1 5c0 6 8 13 15 13h32c8 0 15 -7 20 -15c58 -120 119 -233 179 -349
c98 113 204 235 302 349c7 8 19 15 27 15h32z" />
    <glyph glyph-name="mu" unicode="&#xb5;" horiz-adv-x="595" 
d="M243 -12c-44 0 -82 15 -112 44l-38 -218c-2 -8 -10 -14 -17 -14h-30c-7 0 -12 4 -12 10c0 1 1 3 1 4l121 689c1 7 9 14 17 14h29c6 0 12 -5 12 -14l-54 -309c-3 -19 -5 -36 -5 -51c0 -69 34 -104 112 -104c110 0 185 95 200 181l50 283c1 7 10 14 17 14h30
c6 0 11 -6 11 -14l-86 -490c-1 -7 -9 -13 -16 -13h-30c-8 0 -12 6 -12 13l3 16c0 4 6 30 6 30v23c-51 -61 -124 -94 -197 -94z" />
    <glyph glyph-name="ordfeminine" unicode="&#xaa;" horiz-adv-x="567" 
d="M430 489l8 46h-26c-110 0 -202 -17 -202 -100c0 -36 28 -57 79 -57c50 0 130 46 141 111zM460 354c-1 -7 -8 -13 -17 -13h-20c-7 0 -13 4 -13 14l10 49h-4c-34 -44 -82 -72 -143 -72c-73 0 -118 37 -118 93c0 127 134 151 251 151h39l5 28c1 7 2 14 2 21
c0 45 -31 73 -90 73c-48 0 -90 -14 -113 -23c-5 0 -19 3 -19 22c0 25 68 47 153 47c64 0 122 -32 122 -116c0 -12 -2 -25 -4 -39z" />
    <glyph glyph-name="ordmasculine" unicode="&#xba;" horiz-adv-x="625" 
d="M357 377c87 0 174 79 174 198c0 76 -47 123 -117 123c-88 0 -175 -78 -175 -196c0 -77 47 -125 118 -125zM422 744c98 0 163 -69 163 -165c0 -144 -117 -247 -236 -247c-99 0 -164 65 -164 163c0 139 112 249 237 249z" />
    <glyph glyph-name="ae" unicode="&#xe6;" horiz-adv-x="951" 
d="M736 529c115 0 186 -63 186 -191c0 -24 1 -91 -25 -91h-403c-3 -15 -4 -29 -4 -42c0 -102 71 -167 173 -167c63 0 121 15 160 32c2 1 4 1 6 1c4 0 9 -2 11 -7c4 -19 4 -19 4 -20c0 -33 -122 -56 -192 -56c-107 0 -181 52 -209 135c-53 -78 -145 -135 -235 -135
s-151 49 -151 122c0 165 181 193 331 193h58l5 31c2 14 4 27 4 39c0 66 -38 105 -126 105c-61 0 -107 -16 -134 -27c-4 -1 -7 -2 -10 -2c-4 0 -8 2 -8 6l-6 24c0 1 -1 2 -1 3c0 25 107 47 184 47c70 0 137 -32 152 -113c57 71 139 113 230 113zM427 194l11 65h-43
c-153 0 -276 -26 -276 -140c0 -52 39 -80 112 -80c68 0 180 62 196 155zM504 292h356c2 15 4 31 4 45c0 91 -56 142 -138 142c-99 0 -186 -65 -222 -187z" />
    <glyph glyph-name="oslash" unicode="&#xf8;" horiz-adv-x="625" 
d="M530 478c42 -39 66 -97 66 -165c0 -189 -150 -325 -308 -325c-42 0 -81 12 -112 27l-14 -18c-5 -8 -16 -15 -26 -15h-17c-6 0 -10 4 -10 9c0 2 1 5 3 8l29 40c-42 36 -66 92 -66 160c0 188 147 330 309 330c41 0 82 -11 113 -29c4 6 11 15 15 21c6 8 15 14 25 14h17
c7 0 11 -4 11 -9c0 -1 0 -3 -1 -4zM140 257c-3 -15 -4 -29 -4 -44c0 -52 17 -99 42 -129l284 372c-24 15 -53 23 -87 23c-112 0 -211 -86 -235 -222zM297 37c120 0 239 105 239 266c0 53 -17 98 -41 129l-285 -374c23 -13 53 -21 87 -21z" />
    <glyph glyph-name="questiondown" unicode="&#xbf;" horiz-adv-x="544" 
d="M216 -210c-122 0 -192 63 -192 152c0 110 87 182 249 279l18 98c1 8 8 14 17 14h31c7 0 13 -5 13 -14l-20 -114c-2 -7 -9 -15 -16 -19c-110 -64 -227 -129 -227 -227c0 -68 56 -115 140 -115c58 0 123 20 177 55c3 1 6 2 9 2c4 0 8 -1 10 -3l13 -27v-4
c0 -5 -3 -11 -6 -13c-60 -37 -131 -64 -216 -64zM343 437c-24 0 -42 17 -42 38c0 29 31 54 58 54c23 0 39 -16 39 -38c0 -28 -25 -54 -55 -54z" />
    <glyph glyph-name="exclamdown" unicode="&#xa1;" horiz-adv-x="302" 
d="M66 -201c-9 0 -13 6 -13 13l35 194c21 101 44 204 65 306c2 7 9 13 17 13h13c7 0 12 -7 12 -13c-8 -51 -15 -102 -22 -153l-21 -153l-35 -194c-1 -7 -8 -13 -16 -13h-35zM250 482c-4 -24 -29 -45 -53 -45s-42 17 -42 38c0 29 31 54 58 54c21 0 38 -17 38 -38
c0 -3 -1 -6 -1 -9z" />
    <glyph glyph-name="logicalnot" unicode="&#xac;" 
d="M569 118c-8 0 -14 6 -14 14v236h-457c-8 0 -13 6 -13 14v25c0 8 5 14 13 14h496c8 0 15 -6 15 -14v-275c0 -8 -7 -14 -15 -14h-25z" />
    <glyph glyph-name="guillemotleft" unicode="&#xab;" horiz-adv-x="558" 
d="M124 286l155 -188c1 -1 1 -3 1 -5c0 -4 -1 -9 -4 -12l-19 -15c-4 -3 -7 -5 -11 -5c-3 0 -7 2 -9 5l-173 212c-2 2 -3 4 -3 7c0 4 2 8 6 11l248 212c3 3 7 4 11 4c3 0 6 -1 9 -4l13 -15c2 -2 3 -4 3 -7s-2 -7 -6 -10zM369 286l154 -188c1 -2 2 -4 2 -6c0 -4 -2 -8 -5 -11
l-18 -15c-4 -3 -7 -5 -11 -5c-3 0 -7 2 -9 5l-173 212c-2 2 -3 4 -3 7c0 4 2 8 6 11l248 212c3 3 7 4 11 4c3 0 6 -1 9 -4l12 -15c2 -2 3 -4 3 -7s-2 -7 -6 -10z" />
    <glyph glyph-name="guillemotright" unicode="&#xbb;" horiz-adv-x="559" 
d="M278 98l220 190l-154 188c-1 1 -1 2 -1 4c0 4 2 9 4 13l18 15c3 3 7 4 11 4c3 0 6 -1 9 -4l175 -212c1 -2 1 -4 1 -6c0 -4 -1 -9 -4 -12l-250 -212c-4 -3 -7 -5 -11 -5c-3 0 -7 2 -9 5l-12 15c-2 1 -3 3 -3 5c0 4 3 9 6 12zM33 98l220 190l-154 188c-1 1 -1 2 -1 4
c0 4 2 9 4 13l18 15c3 3 7 4 11 4c3 0 6 -1 9 -4l175 -212c1 -2 1 -4 1 -6c0 -4 -1 -9 -4 -12l-250 -212c-4 -3 -7 -5 -11 -5c-3 0 -7 2 -9 5l-12 15c-2 1 -3 3 -3 5c0 4 3 9 6 12z" />
    <glyph glyph-name="ellipsis" unicode="&#x2026;" horiz-adv-x="892" 
d="M421 -12c-25 0 -44 20 -44 44c0 28 33 57 62 57c26 0 46 -20 46 -42c0 -30 -32 -59 -64 -59zM741 -12c-24 0 -43 20 -43 44c0 28 33 57 61 57c27 0 46 -19 46 -42c0 -30 -31 -59 -64 -59zM100 -12c-25 0 -44 20 -44 44c0 28 33 57 62 57c27 0 45 -19 45 -42
c0 -30 -30 -59 -63 -59z" />
    <glyph glyph-name="endash" unicode="&#x2013;" horiz-adv-x="599" 
d="M75 299c1 6 8 13 16 13h485c6 0 10 -6 10 -13l-4 -22c-1 -7 -8 -14 -15 -14h-485c-7 0 -11 6 -11 14z" />
    <glyph glyph-name="emdash" unicode="&#x2014;" horiz-adv-x="1022" 
d="M74 299c1 6 8 13 16 13h908c6 0 12 -4 12 -13l-4 -22c-1 -7 -8 -14 -17 -14h-908c-7 0 -11 6 -11 14z" />
    <glyph glyph-name="quotedblleft" unicode="&#x201c;" horiz-adv-x="441" 
d="M219 610c0 -21 34 -29 34 -58c0 -26 -29 -54 -59 -54c-24 0 -44 18 -44 50c0 49 46 135 114 201c3 3 6 4 12 4s15 -4 15 -8c0 -5 -2 -8 -4 -10c-34 -42 -63 -96 -68 -125zM403 610c0 -21 34 -29 34 -58c0 -26 -29 -54 -59 -54c-24 0 -44 18 -44 50c0 49 46 135 114 201
c3 3 6 4 12 4s15 -4 15 -8c0 -5 -2 -8 -4 -10c-34 -42 -63 -96 -68 -125z" />
    <glyph glyph-name="quotedblright" unicode="&#x201d;" horiz-adv-x="441" 
d="M398 645c0 21 -34 29 -34 58c0 26 29 54 59 54c24 0 44 -18 44 -50c0 -49 -46 -135 -114 -201c-3 -3 -6 -4 -12 -4s-15 4 -15 8c0 5 2 8 4 10c34 42 63 96 68 125zM214 645c0 21 -34 29 -34 58c0 26 29 54 59 54c24 0 44 -18 44 -50c0 -49 -46 -135 -114 -201
c-3 -3 -6 -4 -12 -4s-15 4 -15 8c0 5 2 8 4 10c34 42 63 96 68 125z" />
    <glyph glyph-name="quoteleft" unicode="&#x2018;" horiz-adv-x="257" 
d="M219 610c0 -21 34 -29 34 -58c0 -26 -29 -54 -59 -54c-24 0 -44 18 -44 50c0 49 46 135 114 201c3 3 6 4 12 4s15 -4 15 -8c0 -5 -2 -8 -4 -10c-34 -42 -63 -96 -68 -125z" />
    <glyph glyph-name="quoteright" unicode="&#x2019;" horiz-adv-x="256" 
d="M214 645c0 21 -34 29 -34 58c0 26 29 54 59 54c24 0 44 -18 44 -50c0 -49 -46 -135 -114 -201c-3 -3 -6 -4 -12 -4s-15 4 -15 8c0 5 2 8 4 10c34 42 63 96 68 125z" />
    <glyph glyph-name="divide" unicode="&#xf7;" 
d="M393 148c0 -28 -22 -52 -52 -52c-29 0 -52 24 -52 52c0 29 23 53 52 53c30 0 52 -24 52 -53zM393 503c0 -29 -22 -53 -52 -53c-29 0 -52 24 -52 53c0 28 23 52 52 52c30 0 52 -24 52 -52zM591 302h-489c-8 0 -14 6 -14 14v25c0 7 6 13 14 13h489c8 0 14 -6 14 -13v-25
c0 -8 -6 -14 -14 -14z" />
    <glyph glyph-name="Euro" unicode="&#x20ac;" horiz-adv-x="725" 
d="M614 91c3 1 6 2 9 2c5 0 9 -2 11 -6l11 -24c0 -2 1 -5 1 -6c0 -3 -3 -8 -9 -11c-64 -37 -138 -58 -210 -58c-173 0 -279 104 -292 257h-77c-6 0 -12 3 -12 12l4 23c1 7 9 14 17 15h67c0 40 6 78 21 116h-68c-6 0 -12 5 -12 14l4 22c2 7 9 13 17 14h78
c67 150 211 255 382 255c71 0 138 -23 188 -59c2 -3 5 -8 5 -10c0 -4 -20 -38 -35 -38c-3 0 -6 1 -9 3c-43 28 -103 49 -159 49c-124 0 -245 -76 -310 -200h346c6 0 11 -4 11 -13l-4 -23c-1 -7 -8 -14 -16 -15h-359c-14 -39 -20 -73 -20 -115h359c7 0 11 -6 11 -14l-4 -24
c-1 -7 -8 -12 -16 -13h-347c17 -127 113 -202 240 -202c59 0 123 16 177 49z" />
    <glyph glyph-name="guilsinglleft" unicode="&#x2039;" horiz-adv-x="342" 
d="M279 98c1 -1 1 -3 1 -5c0 -4 -1 -9 -4 -12l-18 -15c-4 -3 -7 -5 -11 -5c-3 0 -7 2 -9 5l-174 212c-2 2 -3 4 -3 7c0 4 2 8 6 11l249 212c3 3 7 4 11 4c3 0 6 -1 9 -4l12 -15c2 -2 3 -4 3 -7s-2 -7 -6 -10l-221 -190z" />
    <glyph glyph-name="guilsinglright" unicode="&#x203a;" horiz-adv-x="342" 
d="M33 98l221 190l-155 188c-1 1 -1 2 -1 4c0 4 2 9 4 13l18 15c3 3 7 4 11 4c3 0 6 -1 9 -4l175 -212c1 -2 1 -4 1 -6c0 -4 -1 -9 -4 -12l-250 -212c-4 -3 -7 -5 -11 -5c-3 0 -7 2 -9 5l-12 15c-2 1 -3 3 -3 5c0 4 3 9 6 12z" />
    <glyph glyph-name="periodcentered" unicode="&#xb7;" horiz-adv-x="310" 
d="M200 286c-24 0 -43 20 -43 44c0 28 31 59 61 59c27 0 46 -20 46 -43c0 -30 -31 -60 -64 -60z" />
    <glyph glyph-name="quotesinglbase" unicode="&#x201a;" horiz-adv-x="256" 
d="M96 -23c0 21 -34 29 -34 58c0 26 29 54 59 54c24 0 44 -18 44 -50c0 -49 -46 -135 -114 -201c-3 -3 -6 -4 -12 -4s-15 4 -15 8c0 5 2 8 4 10c34 42 63 96 68 125z" />
    <glyph glyph-name="quotedblbase" unicode="&#x201e;" horiz-adv-x="441" 
d="M281 -22c0 21 -34 29 -34 58c0 26 29 54 59 54c24 0 44 -18 44 -50c0 -49 -46 -135 -114 -201c-3 -3 -6 -4 -12 -4s-15 4 -15 8c0 5 2 8 4 10c34 42 63 96 68 125zM97 -22c0 21 -34 29 -34 58c0 26 29 54 59 54c24 0 44 -18 44 -50c0 -49 -46 -135 -114 -201
c-3 -3 -6 -4 -12 -4s-15 4 -15 8c0 5 2 8 4 10c34 42 63 96 68 125z" />
    <glyph glyph-name="circumflex" unicode="&#x2c6;" horiz-adv-x="474" 
d="M208 639l98 114c4 5 15 10 19 10h57c4 0 13 -4 15 -10l53 -107c2 -2 3 -7 3 -10c0 -7 -6 -14 -16 -14h-24c-6 0 -12 5 -15 9l-52 99c-31 -31 -83 -108 -102 -108h-24c-7 0 -13 5 -13 14z" />
    <glyph glyph-name="tilde" unicode="&#x2dc;" horiz-adv-x="486" 
d="M497 743h16c7 0 11 -6 11 -16c-24 -57 -67 -94 -116 -94c-51 0 -101 63 -140 63c-27 0 -47 -19 -59 -54c-3 -6 -11 -11 -17 -11h-16c-8 0 -13 6 -13 13c0 1 1 3 1 4c22 57 69 92 115 92c47 0 105 -61 139 -61c25 0 48 24 62 53c2 5 10 11 17 11z" />
    <glyph glyph-name="macron" unicode="&#xaf;" horiz-adv-x="485" 
d="M515 731l-3 -19c-1 -8 -10 -15 -19 -15h-295c-8 0 -13 5 -13 15l3 19c2 7 9 13 19 13h295c6 0 13 -3 13 -13z" />
    <glyph glyph-name="cedilla" unicode="&#xb8;" horiz-adv-x="481" 
d="M281 -53c19 -12 26 -29 26 -45c0 -61 -74 -112 -155 -112c-12 0 -67 -4 -69 19l2 15c2 7 10 14 17 14c5 0 14 -1 20 -2l23 -3c63 0 106 26 106 65c0 18 -22 24 -22 46l15 50c3 5 10 11 17 11h14c9 0 18 -3 18 -11c0 -13 -8 -34 -12 -47z" />
    <glyph glyph-name="ring" unicode="&#x2da;" horiz-adv-x="489" 
d="M231 729c12 65 77 117 143 117c60 0 104 -43 104 -100c0 -75 -75 -140 -147 -140c-59 0 -102 42 -102 101c0 7 1 14 2 22zM268 729c-1 -6 -2 -12 -2 -17c0 -42 30 -72 72 -72c50 0 103 47 103 103c0 40 -30 72 -72 72c-47 0 -93 -39 -101 -86z" />
    <glyph glyph-name="breve" unicode="&#x2d8;" horiz-adv-x="482" 
d="M489 759c7 0 14 -5 14 -13c0 -2 0 -2 -2 -4c-30 -71 -90 -118 -170 -118s-124 47 -129 120c1 8 9 15 17 15h18c6 0 13 -6 14 -12c4 -50 36 -82 86 -82c51 0 94 33 116 82c4 5 12 12 18 12h18z" />
    <glyph glyph-name="dotaccent" unicode="&#x2d9;" horiz-adv-x="482" 
d="M331 640c-20 0 -36 16 -36 37c0 27 28 50 52 50c23 0 40 -16 40 -37c0 -26 -28 -50 -56 -50z" />
    <glyph glyph-name="hungarumlaut" unicode="&#x2dd;" horiz-adv-x="461" 
d="M216 643l65 105c7 9 22 15 29 15h34c7 0 11 -5 11 -10c0 -6 -2 -9 -5 -13l-92 -103c-8 -7 -17 -14 -26 -14h-6c-8 0 -14 3 -14 10c0 1 2 6 4 10zM384 643l65 105c7 9 22 15 29 15h34c7 0 11 -5 11 -10c0 -6 -2 -9 -5 -13l-92 -103c-8 -7 -17 -14 -26 -14h-6
c-8 0 -14 3 -14 10c0 1 2 6 4 10z" />
    <glyph glyph-name="ogonek" unicode="&#x2db;" horiz-adv-x="483" 
d="M297 -158l-3 -14c-4 -19 -44 -28 -73 -28c-75 0 -118 28 -118 93c0 12 11 112 38 112h17c7 0 13 -7 13 -16c-11 -23 -17 -51 -17 -72c0 -44 24 -72 75 -72c18 0 39 10 57 10c8 0 11 -6 11 -13z" />
    <glyph glyph-name="caron" unicode="&#x2c7;" horiz-adv-x="474" 
d="M472 746l-98 -114c-4 -5 -15 -10 -19 -10h-57c-4 0 -13 4 -15 10l-53 107c-2 2 -3 7 -3 10c0 7 6 14 16 14h24c6 0 12 -5 15 -9l52 -99c31 31 83 108 102 108h24c7 0 13 -5 13 -14z" />
    <glyph glyph-name="dagger" unicode="&#x2020;" horiz-adv-x="559" 
d="M121 509c1 6 10 13 17 13h185l32 186c2 7 9 14 18 14h24c6 0 11 -5 11 -14l-32 -186h185c6 0 12 -4 12 -13l-3 -19c-2 -8 -10 -14 -18 -14h-185l-90 -514c-1 -7 -9 -12 -16 -12h-22c-11 0 -15 5 -15 12l90 514h-185c-6 0 -12 4 -12 11c0 1 1 2 1 3z" />
    <glyph glyph-name="daggerdbl" unicode="&#x2021;" horiz-adv-x="559" 
d="M121 509c1 6 9 13 17 13h185l32 186c2 7 9 14 18 14h23c6 0 12 -4 12 -14l-32 -186h185c6 0 12 -5 12 -13l-3 -19c-2 -8 -10 -14 -18 -14h-185l-50 -285h185c9 0 13 -7 13 -14l-4 -19c-1 -7 -9 -12 -17 -12h-185l-32 -185c-2 -7 -10 -13 -18 -13h-21c-9 0 -15 4 -15 10
c0 1 1 2 1 3l32 185h-185c-6 0 -12 3 -12 12l4 19c1 7 8 14 16 14h185l50 285h-185c-7 0 -12 4 -12 10c0 1 1 3 1 4z" />
    <glyph glyph-name="notequal" unicode="&#x2260;" 
d="M88 453c0 7 6 14 14 14h271l72 190c3 6 10 11 16 11h16c7 0 13 -7 13 -15c0 -2 -1 -3 -1 -5l-71 -181h173c8 0 14 -7 14 -14v-24c0 -8 -6 -14 -14 -14h-192l-60 -163h252c8 0 14 -5 14 -13v-24c0 -9 -6 -15 -14 -15h-272l-71 -189c-3 -7 -9 -11 -15 -11h-16
c-9 0 -14 6 -14 13c0 2 0 5 1 7l68 180h-170c-8 0 -14 6 -14 15v24c0 8 6 13 14 13h190l61 163h-251c-8 0 -14 6 -14 14v24z" />
    <glyph glyph-name="approxequal" unicode="&#x2248;" 
d="M603 475c2 -3 3 -7 3 -10c0 -2 0 -4 -1 -5c-32 -63 -76 -100 -140 -100c-87 0 -168 90 -241 90c-39 0 -74 -28 -101 -69c-3 -5 -8 -7 -13 -7c-4 0 -8 2 -11 6l-9 9c-2 2 -3 5 -3 9c0 2 1 4 2 6c35 65 79 101 141 101c92 0 164 -91 242 -91c35 0 71 28 100 68
c3 5 8 7 11 7c7 0 14 -5 20 -14zM603 285c2 -3 3 -7 3 -10c0 -2 0 -4 -1 -6c-32 -62 -76 -100 -140 -100c-87 0 -168 92 -241 92c-41 0 -73 -27 -101 -70c-3 -5 -8 -8 -12 -8c-5 0 -9 2 -12 7l-9 9c-2 2 -3 5 -3 8s1 5 2 7c35 64 79 101 141 101c92 0 163 -91 242 -91
c35 0 71 27 100 68c3 4 8 6 12 6c7 0 13 -5 19 -13z" />
    <glyph glyph-name="lessequal" unicode="&#x2264;" 
d="M89 73c0 7 7 14 15 14h485c8 0 14 -7 14 -14v-24c0 -7 -6 -14 -14 -14h-485c-8 0 -15 7 -15 14v24zM598 602c0 -6 -5 -12 -10 -14l-420 -176l420 -176c5 -2 10 -9 10 -15v-27c0 -8 -7 -14 -14 -14c-2 0 -3 0 -5 1l-475 203c-7 5 -8 11 -8 19v24c0 4 4 11 8 13l475 203h5
c7 0 14 -5 14 -13v-28z" />
    <glyph glyph-name="greaterequal" unicode="&#x2265;" 
d="M603 73v-24c0 -7 -6 -14 -14 -14h-484c-9 0 -15 7 -15 14v24c0 7 6 14 15 14h484c8 0 14 -7 14 -14zM95 602v28c0 8 6 13 14 13h6l473 -202c4 -3 9 -10 9 -14c0 -14 2 -36 -9 -43l-473 -203c-2 -1 -4 -1 -6 -1c-8 0 -14 6 -14 14v27c0 6 5 13 10 15l420 176l-420 176
c-5 2 -10 8 -10 14z" />
    <glyph glyph-name="dotlessi" unicode="&#x131;" horiz-adv-x="245" 
d="M206 517c6 0 10 -5 10 -13l-86 -491c-1 -7 -7 -13 -15 -13h-29c-6 0 -12 4 -12 13l86 491c1 6 9 13 17 13h29z" />
    <glyph glyph-name="a" unicode="a" horiz-adv-x="565" 
d="M427 194l11 66h-43c-153 0 -276 -27 -276 -141c0 -52 39 -80 112 -80c69 0 180 62 196 155zM180 494c45 21 95 35 175 35c82 0 157 -42 157 -151c0 -15 -1 -32 -4 -49l-56 -316c-1 -7 -8 -13 -16 -13h-24c-8 0 -13 5 -13 15l12 69h-9c-38 -48 -119 -96 -194 -96
c-90 0 -150 49 -150 122c0 165 179 193 332 193h56l5 31c2 14 4 27 4 39c0 66 -38 105 -125 105c-61 0 -109 -16 -135 -27c-3 -1 -5 -2 -8 -2c-4 0 -8 2 -9 5c-7 25 -7 26 -7 27c0 5 3 11 9 13z" />
    <glyph glyph-name="fraction" unicode="&#x2044;" horiz-adv-x="791" 
d="M706 704h17c6 0 9 -4 9 -9c0 -3 0 -6 -2 -8l-515 -672c-6 -8 -16 -15 -25 -15h-18c-6 0 -11 4 -11 9c0 2 1 4 3 7l515 674c7 8 19 14 27 14z" />
    <glyph glyph-name="perthousand" unicode="&#x2030;" horiz-adv-x="1157" 
d="M282 714c70 0 108 -37 108 -120c0 -21 -3 -43 -7 -69c-23 -133 -80 -190 -167 -190c-69 0 -106 36 -106 120c0 20 2 44 7 70c23 132 79 189 165 189zM223 377c58 -1 117 66 117 209c0 58 -22 84 -65 84c-56 0 -116 -63 -116 -207c0 -59 22 -86 64 -86zM689 372
c71 0 109 -36 109 -120c0 -20 -3 -43 -7 -69c-24 -134 -81 -189 -169 -189c-68 0 -105 35 -105 117c0 21 2 45 7 72c23 133 80 189 165 189zM630 36c59 0 119 62 119 207c0 59 -23 86 -67 86c-55 0 -115 -65 -115 -208c0 -59 22 -85 63 -85zM710 704h18c5 0 8 -4 8 -9
c0 -3 0 -5 -2 -8l-514 -673c-6 -8 -15 -14 -24 -14h-21c-5 0 -8 4 -8 9c0 2 1 5 2 7c163 213 354 460 515 674c7 8 17 14 26 14zM1027 372c70 0 108 -37 108 -120c0 -20 -3 -43 -7 -69c-24 -134 -81 -189 -168 -189c-69 0 -106 35 -106 118c0 20 2 44 7 71
c23 133 80 189 166 189zM968 36c58 0 118 62 118 208c0 58 -23 85 -66 85c-57 0 -116 -65 -116 -208c0 -59 22 -85 64 -85z" />
    <glyph glyph-name="OE" unicode="&#x152;" horiz-adv-x="1270" 
d="M1275 651h-417l-46 -264h368c6 0 11 -5 11 -13l-4 -27c-1 -6 -9 -12 -16 -12h-368l-50 -283h417c9 0 14 -6 14 -12l-5 -27c-1 -7 -10 -13 -18 -13h-460c-7 0 -12 6 -12 12c0 21 7 47 11 68l12 68c-77 -97 -195 -160 -319 -160c-175 0 -292 121 -292 292
c0 228 190 436 421 436c127 0 221 -65 261 -162l12 68c5 26 8 82 30 82h460c8 0 13 -7 13 -13l-4 -27c-2 -7 -11 -13 -19 -13zM403 42c180 0 350 156 350 375c0 150 -98 245 -241 245c-175 0 -350 -153 -350 -376c0 -148 98 -244 241 -244z" />
    <glyph glyph-name="oe" unicode="&#x153;" horiz-adv-x="1015" 
d="M1009 262c-2 -7 -10 -14 -18 -15h-402c-3 -15 -4 -29 -4 -42c0 -102 72 -168 173 -168c61 0 120 17 159 34c2 1 4 1 6 1c6 0 11 -2 11 -6l6 -20c0 -34 -114 -58 -194 -58c-109 0 -185 56 -209 138c-57 -81 -151 -138 -250 -138c-128 0 -212 84 -212 212
c0 188 148 329 308 329c99 0 173 -59 200 -142c54 87 144 142 247 142c115 0 186 -63 186 -191c0 -24 -2 -49 -7 -76zM296 37c125 0 241 108 241 272c0 106 -65 170 -163 170c-121 0 -240 -108 -240 -273c0 -105 66 -169 162 -169zM598 292h358c3 15 4 31 4 45
c0 91 -58 142 -140 142c-98 0 -186 -65 -222 -187z" />
    <glyph glyph-name="Adieresis" unicode="&#xc4;" horiz-adv-x="707" 
d="M644 16c0 -1 1 -2 1 -3c0 -6 -7 -13 -16 -13h-30c-9 0 -15 6 -18 14l-44 175h-390c-35 -59 -71 -117 -105 -175c-5 -8 -12 -14 -22 -14h-30c-7 0 -12 4 -12 9c0 1 0 4 2 7l416 677c3 5 12 11 22 11h32c8 0 15 -6 17 -11zM179 240h345c0 -1 -27 108 -41 163l-62 243
l-71 -123c-54 -93 -116 -191 -171 -283zM359 828c-23 0 -38 16 -38 37c0 27 26 50 53 50c19 0 37 -15 37 -36c0 -27 -28 -51 -52 -51zM551 828c-21 0 -38 16 -38 37c0 27 28 50 53 50c21 0 38 -15 38 -35c0 -28 -26 -52 -53 -52z" />
    <glyph glyph-name="Aring" unicode="&#xc5;" horiz-adv-x="707" 
d="M351 802c11 65 77 119 143 119c60 0 104 -45 104 -102c0 -61 -51 -116 -107 -132l-1 -1l176 -663v-10c0 -8 -5 -13 -14 -13h-30c-10 0 -15 6 -18 14l-44 176h-390l-106 -176c-4 -8 -13 -14 -21 -14h-30c-8 0 -14 3 -14 9c0 1 24 36 24 41l392 637c-41 13 -66 47 -66 92
c0 7 0 15 2 23zM202 240h345v1c-17 62 -34 129 -50 195l-25 104c0 11 -23 107 -28 107l-1 -1c-24 -44 -51 -88 -76 -133l-64 -105c-33 -54 -68 -116 -101 -167v-1zM388 802c-1 -6 -2 -11 -2 -17c0 -42 30 -71 73 -71c49 0 102 45 102 102c0 41 -30 73 -71 73
c-48 0 -94 -40 -102 -87z" />
    <glyph glyph-name="Ccedilla" unicode="&#xc7;" horiz-adv-x="731" 
d="M405 -51l-1 -1c17 -12 25 -29 25 -46c0 -59 -72 -111 -154 -111c-32 0 -71 -1 -71 16v3l3 16c1 7 10 14 18 14l26 -4c5 -1 10 -1 16 -1c62 0 106 25 106 63c0 22 -22 26 -22 43c0 9 5 19 8 30l7 19c-167 11 -264 127 -264 286c0 241 188 440 422 440
c94 0 177 -35 229 -96c2 -4 3 -8 3 -10c0 -1 -3 -5 -4 -7l-24 -22c-2 -2 -6 -4 -9 -4c-4 0 -8 1 -10 4c-45 51 -118 81 -195 81c-178 0 -351 -153 -351 -376c0 -149 99 -244 242 -244c77 0 160 30 223 80c4 3 8 4 12 4s6 -1 7 -3l16 -21c2 -3 2 -6 2 -9c-1 -3 -2 -7 -7 -10
c-69 -55 -156 -89 -244 -95z" />
    <glyph glyph-name="Eacute" unicode="&#xc9;" horiz-adv-x="666" 
d="M648 651h-417l-46 -264h368c6 0 12 -4 12 -13l-4 -27c-1 -6 -9 -12 -17 -12h-368l-50 -283h417c9 0 13 -6 13 -12l-5 -27c-1 -7 -9 -13 -17 -13h-460c-6 0 -12 4 -12 13l119 678c1 6 9 13 17 13h460c6 0 12 -5 12 -13l-4 -27c-2 -7 -10 -13 -18 -13zM383 830l71 111
c5 4 14 9 18 9h44c7 0 11 -5 11 -11c0 -3 -1 -6 -3 -9l-106 -114c-1 -3 -9 -6 -13 -6h-13c-8 0 -12 5 -12 11c0 3 1 6 3 9z" />
    <glyph glyph-name="Ntilde" unicode="&#xd1;" horiz-adv-x="778" 
d="M741 704c6 0 11 -4 11 -13l-119 -678c-1 -7 -8 -13 -16 -13h-30c-8 0 -18 6 -22 13c-108 192 -232 404 -339 596l-8 -1c-2 -22 -11 -94 -21 -150l-78 -445c-1 -7 -8 -13 -15 -13h-30c-6 0 -12 4 -12 13l119 678c2 7 9 13 17 13h30c7 0 16 -6 20 -14l340 -597l7 1
c3 28 10 84 21 145l79 452c2 7 9 13 17 13h29zM651 930h16c7 0 11 -6 11 -16c-24 -57 -67 -94 -116 -94c-51 0 -101 63 -140 63c-27 0 -47 -19 -59 -54c-3 -6 -11 -11 -17 -11h-16c-8 0 -13 6 -13 13c0 1 1 3 1 4c22 57 69 92 115 92c47 0 105 -61 139 -61c25 0 48 24 62 53
c2 5 10 11 17 11z" />
    <glyph glyph-name="Odieresis" unicode="&#xd6;" horiz-adv-x="837" 
d="M786 350c-36 -207 -216 -362 -414 -362c-176 0 -292 121 -292 292c0 228 188 436 421 436c183 0 291 -129 291 -295c0 -23 -2 -47 -6 -71zM382 42c179 0 349 156 349 375c0 150 -98 245 -240 245c-176 0 -350 -153 -350 -376c0 -148 98 -244 241 -244zM422 828
c-23 0 -38 16 -38 37c0 27 26 50 53 50c19 0 37 -15 37 -36c0 -27 -28 -51 -52 -51zM614 828c-21 0 -38 16 -38 37c0 27 28 50 53 50c21 0 38 -15 38 -35c0 -28 -26 -52 -53 -52z" />
    <glyph glyph-name="Udieresis" unicode="&#xdc;" horiz-adv-x="796" 
d="M765 704c6 0 11 -4 11 -13l-68 -389c-33 -188 -180 -314 -356 -314c-157 0 -251 96 -251 245c0 22 2 45 6 69l68 389c2 7 9 13 17 13h30c5 0 10 -4 10 -13l-66 -378c-4 -23 -6 -45 -6 -66c0 -124 72 -205 202 -205c151 0 262 111 290 271l66 378c2 7 8 13 17 13h30z
M402 828c-23 0 -38 16 -38 37c0 27 26 50 53 50c19 0 37 -15 37 -36c0 -27 -28 -51 -52 -51zM594 828c-21 0 -38 16 -38 37c0 27 28 50 53 50c21 0 38 -15 38 -35c0 -28 -26 -52 -53 -52z" />
    <glyph glyph-name="aacute" unicode="&#xe1;" horiz-adv-x="565" 
d="M405 194l11 66h-43c-153 0 -276 -27 -276 -141c0 -52 39 -80 112 -80c69 0 180 62 196 155zM158 494c45 21 95 35 175 35c82 0 157 -42 157 -151c0 -15 -1 -32 -4 -49l-56 -316c-1 -7 -8 -13 -16 -13h-24c-8 0 -13 5 -13 15l12 69h-9c-38 -48 -119 -96 -194 -96
c-90 0 -150 49 -150 122c0 165 179 193 332 193h56l5 31c2 14 4 27 4 39c0 66 -38 105 -125 105c-61 0 -109 -16 -135 -27c-3 -1 -5 -2 -8 -2c-4 0 -8 2 -9 5c-7 25 -7 26 -7 27c0 5 3 11 9 13zM297 643l71 111c5 4 14 9 18 9h44c7 0 11 -5 11 -11c0 -3 -1 -6 -3 -9
l-106 -114c-1 -3 -9 -6 -13 -6h-13c-8 0 -12 5 -12 11c0 3 1 6 3 9z" />
    <glyph glyph-name="agrave" unicode="&#xe0;" horiz-adv-x="565" 
d="M405 194l11 66h-43c-153 0 -276 -27 -276 -141c0 -52 39 -80 112 -80c69 0 180 62 196 155zM158 494c45 21 95 35 175 35c82 0 157 -42 157 -151c0 -15 -1 -32 -4 -49l-56 -316c-1 -7 -8 -13 -16 -13h-24c-8 0 -13 5 -13 15l12 69h-9c-38 -48 -119 -96 -194 -96
c-90 0 -150 49 -150 122c0 165 179 193 332 193h56l5 31c2 14 4 27 4 39c0 66 -38 105 -125 105c-61 0 -109 -16 -135 -27c-3 -1 -5 -2 -8 -2c-4 0 -8 2 -9 5c-7 25 -7 26 -7 27c0 5 3 11 9 13zM370 749l32 -106v-4c0 -8 -5 -16 -16 -16h-12c-5 0 -11 3 -13 7l-65 114
c-1 1 -1 2 -1 3c0 7 6 16 16 16h42c9 0 15 -7 17 -14z" />
    <glyph glyph-name="acircumflex" unicode="&#xe2;" horiz-adv-x="565" 
d="M405 194l11 66h-43c-153 0 -276 -27 -276 -141c0 -52 39 -80 112 -80c69 0 180 62 196 155zM158 494c45 21 95 35 175 35c82 0 157 -42 157 -151c0 -15 -1 -32 -4 -49l-56 -316c-1 -7 -8 -13 -16 -13h-24c-8 0 -13 5 -13 15l12 69h-9c-38 -48 -119 -96 -194 -96
c-90 0 -150 49 -150 122c0 165 179 193 332 193h56l5 31c2 14 4 27 4 39c0 66 -38 105 -125 105c-61 0 -109 -16 -135 -27c-3 -1 -5 -2 -8 -2c-4 0 -8 2 -9 5c-7 25 -7 26 -7 27c0 5 3 11 9 13zM226 639l98 114c4 5 15 10 19 10h57c4 0 13 -4 15 -10l53 -107
c2 -2 3 -7 3 -10c0 -7 -6 -14 -16 -14h-24c-6 0 -12 5 -15 9l-52 99c-31 -31 -83 -108 -102 -108h-24c-7 0 -13 5 -13 14z" />
    <glyph glyph-name="adieresis" unicode="&#xe4;" horiz-adv-x="565" 
d="M405 194l11 66h-43c-153 0 -276 -27 -276 -141c0 -52 39 -80 112 -80c69 0 180 62 196 155zM158 494c45 21 95 35 175 35c82 0 157 -42 157 -151c0 -15 -1 -32 -4 -49l-56 -316c-1 -7 -8 -13 -16 -13h-24c-8 0 -13 5 -13 15l12 69h-9c-38 -48 -119 -96 -194 -96
c-90 0 -150 49 -150 122c0 165 179 193 332 193h56l5 31c2 14 4 27 4 39c0 66 -38 105 -125 105c-61 0 -109 -16 -135 -27c-3 -1 -5 -2 -8 -2c-4 0 -8 2 -9 5c-7 25 -7 26 -7 27c0 5 3 11 9 13zM254 641c-23 0 -38 16 -38 37c0 27 26 50 53 50c19 0 37 -15 37 -36
c0 -27 -28 -51 -52 -51zM446 641c-21 0 -38 16 -38 37c0 27 28 50 53 50c21 0 38 -15 38 -35c0 -28 -26 -52 -53 -52z" />
    <glyph glyph-name="atilde" unicode="&#xe3;" horiz-adv-x="565" 
d="M405 194l11 66h-43c-153 0 -276 -27 -276 -141c0 -52 39 -80 112 -80c69 0 180 62 196 155zM158 494c45 21 95 35 175 35c82 0 157 -42 157 -151c0 -15 -1 -32 -4 -49l-56 -316c-1 -7 -8 -13 -16 -13h-24c-8 0 -13 5 -13 15l12 69h-9c-38 -48 -119 -96 -194 -96
c-90 0 -150 49 -150 122c0 165 179 193 332 193h56l5 31c2 14 4 27 4 39c0 66 -38 105 -125 105c-61 0 -109 -16 -135 -27c-3 -1 -5 -2 -8 -2c-4 0 -8 2 -9 5c-7 25 -7 26 -7 27c0 5 3 11 9 13zM512 743h16c7 0 11 -6 11 -16c-24 -57 -67 -94 -116 -94
c-51 0 -101 63 -140 63c-27 0 -47 -19 -59 -54c-3 -6 -11 -11 -17 -11h-16c-8 0 -13 6 -13 13c0 1 1 3 1 4c22 57 69 92 115 92c47 0 105 -61 139 -61c25 0 48 24 62 53c2 5 10 11 17 11z" />
    <glyph glyph-name="aring" unicode="&#xe5;" horiz-adv-x="565" 
d="M405 194l11 66h-43c-153 0 -276 -27 -276 -141c0 -52 39 -80 112 -80c69 0 180 62 196 155zM158 494c45 21 95 35 175 35c82 0 157 -42 157 -151c0 -15 -1 -32 -4 -49l-56 -316c-1 -7 -8 -13 -16 -13h-24c-8 0 -13 5 -13 15l12 69h-9c-38 -48 -119 -96 -194 -96
c-90 0 -150 49 -150 122c0 165 179 193 332 193h56l5 31c2 14 4 27 4 39c0 66 -38 105 -125 105c-61 0 -109 -16 -135 -27c-3 -1 -5 -2 -8 -2c-4 0 -8 2 -9 5c-7 25 -7 26 -7 27c0 5 3 11 9 13zM245 729c12 65 77 117 143 117c60 0 104 -43 104 -100
c0 -75 -75 -140 -147 -140c-59 0 -102 42 -102 101c0 7 1 14 2 22zM282 729c-1 -6 -2 -12 -2 -17c0 -42 30 -72 72 -72c50 0 103 47 103 103c0 40 -30 72 -72 72c-47 0 -93 -39 -101 -86z" />
    <glyph glyph-name="ccedilla" unicode="&#xe7;" horiz-adv-x="527" 
d="M292 -51c17 -13 25 -30 25 -47c0 -60 -73 -110 -154 -110h-7c-13 0 -62 -5 -64 19l3 15c1 7 9 14 17 14c12 0 22 -5 34 -5c67 0 115 22 115 63c0 23 -23 25 -23 43c0 2 1 3 1 5l14 44c-111 9 -178 79 -178 199c0 218 142 340 303 340c67 0 127 -28 168 -70
c2 -2 3 -5 3 -8s0 -7 -5 -10l-19 -22c-3 -3 -7 -4 -12 -4c-3 0 -7 1 -10 2c-35 33 -83 60 -134 60c-123 0 -234 -98 -234 -278c0 -104 59 -160 156 -160c46 0 97 21 141 50c10 6 26 10 33 10c2 0 3 -1 4 -2l11 -21c1 -3 2 -6 2 -8c0 -3 -2 -7 -6 -11
c-52 -38 -115 -63 -174 -69c-2 -6 -4 -13 -10 -39z" />
    <glyph glyph-name="eacute" unicode="&#xe9;" horiz-adv-x="597" 
d="M127 292l356 1c2 15 4 30 4 44c0 91 -56 142 -138 142c-99 0 -187 -65 -222 -187zM537 262c-2 -7 -11 -14 -18 -15h-402c-3 -15 -4 -29 -4 -42c0 -102 71 -167 173 -167c60 0 120 16 158 33c2 1 4 1 6 1c4 0 9 -2 11 -7l6 -19c0 -35 -116 -58 -193 -58
c-138 0 -221 77 -221 206c0 205 146 335 306 335c115 0 185 -62 185 -191c0 -23 -2 -48 -7 -76zM336 643l71 111c5 4 14 9 18 9h44c7 0 11 -5 11 -11c0 -3 -1 -6 -3 -9l-106 -114c-1 -3 -9 -6 -13 -6h-13c-8 0 -12 5 -12 11c0 3 1 6 3 9z" />
    <glyph glyph-name="egrave" unicode="&#xe8;" horiz-adv-x="597" 
d="M127 292l356 1c2 15 4 30 4 44c0 91 -56 142 -138 142c-99 0 -187 -65 -222 -187zM537 262c-2 -7 -11 -14 -18 -15h-402c-3 -15 -4 -29 -4 -42c0 -102 71 -167 173 -167c60 0 120 16 158 33c2 1 4 1 6 1c4 0 9 -2 11 -7l6 -19c0 -35 -116 -58 -193 -58
c-138 0 -221 77 -221 206c0 205 146 335 306 335c115 0 185 -62 185 -191c0 -23 -2 -48 -7 -76zM389 749l32 -106v-4c0 -8 -5 -16 -16 -16h-12c-5 0 -11 3 -13 7l-65 114c-1 1 -1 2 -1 3c0 7 6 16 16 16h42c9 0 15 -7 17 -14z" />
    <glyph glyph-name="ecircumflex" unicode="&#xea;" horiz-adv-x="597" 
d="M127 292l356 1c2 15 4 30 4 44c0 91 -56 142 -138 142c-99 0 -187 -65 -222 -187zM537 262c-2 -7 -11 -14 -18 -15h-402c-3 -15 -4 -29 -4 -42c0 -102 71 -167 173 -167c60 0 120 16 158 33c2 1 4 1 6 1c4 0 9 -2 11 -7l6 -19c0 -35 -116 -58 -193 -58
c-138 0 -221 77 -221 206c0 205 146 335 306 335c115 0 185 -62 185 -191c0 -23 -2 -48 -7 -76zM248 639l98 114c4 5 15 10 19 10h57c4 0 13 -4 15 -10l53 -107c2 -2 3 -7 3 -10c0 -7 -6 -14 -16 -14h-24c-6 0 -12 5 -15 9l-52 99c-31 -31 -83 -108 -102 -108h-24
c-7 0 -13 5 -13 14z" />
    <glyph glyph-name="edieresis" unicode="&#xeb;" horiz-adv-x="597" 
d="M127 292l356 1c2 15 4 30 4 44c0 91 -56 142 -138 142c-99 0 -187 -65 -222 -187zM537 262c-2 -7 -11 -14 -18 -15h-402c-3 -15 -4 -29 -4 -42c0 -102 71 -167 173 -167c60 0 120 16 158 33c2 1 4 1 6 1c4 0 9 -2 11 -7l6 -19c0 -35 -116 -58 -193 -58
c-138 0 -221 77 -221 206c0 205 146 335 306 335c115 0 185 -62 185 -191c0 -23 -2 -48 -7 -76zM276 641c-23 0 -38 16 -38 37c0 27 26 50 53 50c19 0 37 -15 37 -36c0 -27 -28 -51 -52 -51zM468 641c-21 0 -38 16 -38 37c0 27 28 50 53 50c21 0 38 -15 38 -35
c0 -28 -26 -52 -53 -52z" />
    <glyph glyph-name="iacute" unicode="&#xed;" horiz-adv-x="245" 
d="M156 643l71 111c5 4 14 9 18 9h44c7 0 11 -5 11 -11c0 -3 -1 -6 -3 -9l-106 -114c-1 -3 -9 -6 -13 -6h-13c-8 0 -12 5 -12 11c0 3 1 6 3 9zM184 517c6 0 10 -5 10 -13l-86 -491c-1 -7 -7 -13 -15 -13h-29c-6 0 -12 4 -12 13l86 491c1 6 9 13 17 13h29z" />
    <glyph glyph-name="igrave" unicode="&#xec;" horiz-adv-x="245" 
d="M203 749l32 -106v-4c0 -8 -5 -16 -16 -16h-12c-5 0 -11 3 -13 7l-65 114c-1 1 -1 2 -1 3c0 7 6 16 16 16h42c9 0 15 -7 17 -14zM184 517c6 0 10 -5 10 -13l-86 -491c-1 -7 -7 -13 -15 -13h-29c-6 0 -12 4 -12 13l86 491c1 6 9 13 17 13h29z" />
    <glyph glyph-name="icircumflex" unicode="&#xee;" horiz-adv-x="245" 
d="M184 517c6 0 10 -5 10 -13l-86 -491c-1 -7 -7 -13 -15 -13h-29c-6 0 -12 4 -12 13l86 491c1 6 9 13 17 13h29zM69 639l98 114c4 5 15 10 19 10h57c4 0 13 -4 15 -10l53 -107c2 -2 3 -7 3 -10c0 -7 -6 -14 -16 -14h-24c-6 0 -12 5 -15 9l-52 99
c-31 -31 -83 -108 -102 -108h-24c-7 0 -13 5 -13 14z" />
    <glyph glyph-name="idieresis" unicode="&#xef;" horiz-adv-x="245" 
d="M96 641c-23 0 -38 16 -38 37c0 27 26 50 53 50c19 0 37 -15 37 -36c0 -27 -28 -51 -52 -51zM288 641c-21 0 -38 16 -38 37c0 27 28 50 53 50c21 0 38 -15 38 -35c0 -28 -26 -52 -53 -52zM184 517c6 0 10 -5 10 -13l-86 -491c-1 -7 -7 -13 -15 -13h-29c-6 0 -12 4 -12 13
l86 491c1 6 9 13 17 13h29z" />
    <glyph glyph-name="ntilde" unicode="&#xf1;" horiz-adv-x="602" 
d="M379 529c98 0 149 -52 149 -145c0 -17 -2 -35 -5 -54l-56 -317c-1 -7 -8 -13 -16 -13h-29c-6 0 -12 4 -12 13l53 302c3 19 5 37 5 53c0 71 -33 109 -111 109c-109 0 -185 -96 -199 -179l-50 -285c-1 -7 -7 -13 -15 -13h-29c-6 0 -12 4 -12 13l86 491c1 6 9 13 17 13h28
c6 0 10 -5 10 -13c-4 -22 -7 -35 -9 -47l-3 -20c2 -2 5 -3 8 -4c39 50 110 96 190 96zM529 743h16c7 0 11 -6 11 -16c-24 -57 -67 -94 -116 -94c-51 0 -101 63 -140 63c-27 0 -47 -19 -59 -54c-3 -6 -11 -11 -17 -11h-16c-8 0 -13 6 -13 13c0 1 1 3 1 4c22 57 69 92 115 92
c47 0 105 -61 139 -61c25 0 48 24 62 53c2 5 10 11 17 11z" />
    <glyph glyph-name="oacute" unicode="&#xf3;" horiz-adv-x="627" 
d="M276 37c123 0 240 108 240 272c0 105 -64 170 -162 170c-122 0 -240 -109 -240 -274c0 -104 65 -168 162 -168zM363 529c127 0 212 -87 212 -215c0 -190 -150 -326 -308 -326c-129 0 -212 83 -212 212c0 188 146 329 308 329zM332 643l71 111c5 4 14 9 18 9h44
c7 0 11 -5 11 -11c0 -3 -1 -6 -3 -9l-106 -114c-1 -3 -9 -6 -13 -6h-13c-8 0 -12 5 -12 11c0 3 1 6 3 9z" />
    <glyph glyph-name="ograve" unicode="&#xf2;" horiz-adv-x="627" 
d="M276 37c123 0 240 108 240 272c0 105 -64 170 -162 170c-122 0 -240 -109 -240 -274c0 -104 65 -168 162 -168zM363 529c127 0 212 -87 212 -215c0 -190 -150 -326 -308 -326c-129 0 -212 83 -212 212c0 188 146 329 308 329zM389 749l32 -106v-4c0 -8 -5 -16 -16 -16
h-12c-5 0 -11 3 -13 7l-65 114c-1 1 -1 2 -1 3c0 7 6 16 16 16h42c9 0 15 -7 17 -14z" />
    <glyph glyph-name="ocircumflex" unicode="&#xf4;" horiz-adv-x="627" 
d="M276 37c123 0 240 108 240 272c0 105 -64 170 -162 170c-122 0 -240 -109 -240 -274c0 -104 65 -168 162 -168zM363 529c127 0 212 -87 212 -215c0 -190 -150 -326 -308 -326c-129 0 -212 83 -212 212c0 188 146 329 308 329zM260 639l98 114c4 5 15 10 19 10h57
c4 0 13 -4 15 -10l53 -107c2 -2 3 -7 3 -10c0 -7 -6 -14 -16 -14h-24c-6 0 -12 5 -15 9l-52 99c-31 -31 -83 -108 -102 -108h-24c-7 0 -13 5 -13 14z" />
    <glyph glyph-name="odieresis" unicode="&#xf6;" horiz-adv-x="627" 
d="M276 37c123 0 240 108 240 272c0 105 -64 170 -162 170c-122 0 -240 -109 -240 -274c0 -104 65 -168 162 -168zM363 529c127 0 212 -87 212 -215c0 -190 -150 -326 -308 -326c-129 0 -212 83 -212 212c0 188 146 329 308 329zM286 641c-23 0 -38 16 -38 37
c0 27 26 50 53 50c19 0 37 -15 37 -36c0 -27 -28 -51 -52 -51zM478 641c-21 0 -38 16 -38 37c0 27 28 50 53 50c21 0 38 -15 38 -35c0 -28 -26 -52 -53 -52z" />
    <glyph glyph-name="otilde" unicode="&#xf5;" horiz-adv-x="627" 
d="M276 37c123 0 240 108 240 272c0 105 -64 170 -162 170c-122 0 -240 -109 -240 -274c0 -104 65 -168 162 -168zM363 529c127 0 212 -87 212 -215c0 -190 -150 -326 -308 -326c-129 0 -212 83 -212 212c0 188 146 329 308 329zM544 743h16c7 0 11 -6 11 -16
c-24 -57 -67 -94 -116 -94c-51 0 -101 63 -140 63c-27 0 -47 -19 -59 -54c-3 -6 -11 -11 -17 -11h-16c-8 0 -13 6 -13 13c0 1 1 3 1 4c22 57 69 92 115 92c47 0 105 -61 139 -61c25 0 48 24 62 53c2 5 10 11 17 11z" />
    <glyph glyph-name="uacute" unicode="&#xfa;" horiz-adv-x="602" 
d="M225 -12c-98 0 -148 50 -148 143c0 17 1 35 5 55l56 317c1 7 9 14 17 14h29c6 0 10 -6 10 -14l-53 -301c-3 -19 -5 -37 -5 -52c0 -72 34 -110 114 -110c107 0 181 94 196 179l50 284c1 7 9 14 17 14h29c6 0 11 -6 11 -14l-86 -490c-1 -7 -9 -13 -16 -13h-28
c-6 0 -12 4 -12 13l3 16c1 6 4 19 6 30l4 21c-2 0 -7 3 -8 4c-39 -50 -112 -96 -191 -96zM327 643l71 111c5 4 14 9 18 9h44c7 0 11 -5 11 -11c0 -3 -1 -6 -3 -9l-106 -114c-1 -3 -9 -6 -13 -6h-13c-8 0 -12 5 -12 11c0 3 1 6 3 9z" />
    <glyph glyph-name="ugrave" unicode="&#xf9;" horiz-adv-x="602" 
d="M225 -12c-98 0 -148 50 -148 143c0 17 1 35 5 55l56 317c1 7 9 14 17 14h29c6 0 10 -6 10 -14l-53 -301c-3 -19 -5 -37 -5 -52c0 -72 34 -110 114 -110c107 0 181 94 196 179l50 284c1 7 9 14 17 14h29c6 0 11 -6 11 -14l-86 -490c-1 -7 -9 -13 -16 -13h-28
c-6 0 -12 4 -12 13l3 16c1 6 4 19 6 30l4 21c-2 0 -7 3 -8 4c-39 -50 -112 -96 -191 -96zM382 749l32 -106v-4c0 -8 -5 -16 -16 -16h-12c-5 0 -11 3 -13 7l-65 114c-1 1 -1 2 -1 3c0 7 6 16 16 16h42c9 0 15 -7 17 -14z" />
    <glyph glyph-name="ucircumflex" unicode="&#xfb;" horiz-adv-x="602" 
d="M225 -12c-98 0 -148 50 -148 143c0 17 1 35 5 55l56 317c1 7 9 14 17 14h29c6 0 10 -6 10 -14l-53 -301c-3 -19 -5 -37 -5 -52c0 -72 34 -110 114 -110c107 0 181 94 196 179l50 284c1 7 9 14 17 14h29c6 0 11 -6 11 -14l-86 -490c-1 -7 -9 -13 -16 -13h-28
c-6 0 -12 4 -12 13l3 16c1 6 4 19 6 30l4 21c-2 0 -7 3 -8 4c-39 -50 -112 -96 -191 -96zM243 639l98 114c4 5 15 10 19 10h57c4 0 13 -4 15 -10l53 -107c2 -2 3 -7 3 -10c0 -7 -6 -14 -16 -14h-24c-6 0 -12 5 -15 9l-52 99c-31 -31 -83 -108 -102 -108h-24
c-7 0 -13 5 -13 14z" />
    <glyph glyph-name="udieresis" unicode="&#xfc;" horiz-adv-x="602" 
d="M225 -12c-98 0 -148 50 -148 143c0 17 1 35 5 55l56 317c1 7 9 14 17 14h29c6 0 10 -6 10 -14l-53 -301c-3 -19 -5 -37 -5 -52c0 -72 34 -110 114 -110c107 0 181 94 196 179l50 284c1 7 9 14 17 14h29c6 0 11 -6 11 -14l-86 -490c-1 -7 -9 -13 -16 -13h-28
c-6 0 -12 4 -12 13l3 16c1 6 4 19 6 30l4 21c-2 0 -7 3 -8 4c-39 -50 -112 -96 -191 -96zM274 641c-23 0 -38 16 -38 37c0 27 26 50 53 50c19 0 37 -15 37 -36c0 -27 -28 -51 -52 -51zM466 641c-21 0 -38 16 -38 37c0 27 28 50 53 50c21 0 38 -15 38 -35
c0 -28 -26 -52 -53 -52z" />
    <glyph glyph-name="Agrave" unicode="&#xc0;" horiz-adv-x="707" 
d="M644 16c0 -1 1 -2 1 -3c0 -6 -7 -13 -16 -13h-30c-9 0 -15 6 -18 14l-44 175h-390c-35 -59 -71 -117 -105 -175c-5 -8 -12 -14 -22 -14h-30c-7 0 -12 4 -12 9c0 1 0 4 2 7l416 677c3 5 12 11 22 11h32c8 0 15 -6 17 -11zM179 240h345c0 -1 -27 108 -41 163l-62 243
l-71 -123c-54 -93 -116 -191 -171 -283zM461 936l32 -106v-4c0 -8 -5 -16 -16 -16h-12c-5 0 -11 3 -13 7l-65 114c-1 1 -1 2 -1 3c0 7 6 16 16 16h42c9 0 15 -7 17 -14z" />
    <glyph glyph-name="Atilde" unicode="&#xc3;" horiz-adv-x="707" 
d="M644 16c0 -1 1 -2 1 -3c0 -6 -7 -13 -16 -13h-30c-9 0 -15 6 -18 14l-44 175h-390c-35 -59 -71 -117 -105 -175c-5 -8 -12 -14 -22 -14h-30c-7 0 -12 4 -12 9c0 1 0 4 2 7l416 677c3 5 12 11 22 11h32c8 0 15 -6 17 -11zM179 240h345c0 -1 -27 108 -41 163l-62 243
l-71 -123c-54 -93 -116 -191 -171 -283zM616 930h16c7 0 11 -6 11 -16c-24 -57 -67 -94 -116 -94c-51 0 -101 63 -140 63c-27 0 -47 -19 -59 -54c-3 -6 -11 -11 -17 -11h-16c-8 0 -13 6 -13 13c0 1 1 3 1 4c22 57 69 92 115 92c47 0 105 -61 139 -61c25 0 48 24 62 53
c2 5 10 11 17 11z" />
    <glyph glyph-name="Otilde" unicode="&#xd5;" horiz-adv-x="837" 
d="M786 350c-36 -207 -216 -362 -414 -362c-176 0 -292 121 -292 292c0 228 188 436 421 436c183 0 291 -129 291 -295c0 -23 -2 -47 -6 -71zM382 42c179 0 349 156 349 375c0 150 -98 245 -240 245c-176 0 -350 -153 -350 -376c0 -148 98 -244 241 -244zM682 930h16
c7 0 11 -6 11 -16c-24 -57 -67 -94 -116 -94c-51 0 -101 63 -140 63c-27 0 -47 -19 -59 -54c-3 -6 -11 -11 -17 -11h-16c-8 0 -13 6 -13 13c0 1 1 3 1 4c22 57 69 92 115 92c47 0 105 -61 139 -61c25 0 48 24 62 53c2 5 10 11 17 11z" />
    <glyph glyph-name="ydieresis" unicode="&#xff;" horiz-adv-x="529" 
d="M492 517h30c8 0 12 -5 12 -10c0 -3 -1 -7 -3 -9l-394 -687c-4 -5 -12 -11 -17 -11h-26c-8 0 -11 4 -11 10c0 16 24 47 34 64l74 127c-35 164 -70 334 -107 497c0 9 5 19 16 19h22c7 0 15 -9 17 -15l62 -290l24 -139h12l48 93c3 8 7 15 191 341c4 6 11 10 16 10zM235 641
c-23 0 -38 16 -38 37c0 27 26 50 53 50c19 0 37 -15 37 -36c0 -27 -28 -51 -52 -51zM427 641c-21 0 -38 16 -38 37c0 27 28 50 53 50c21 0 38 -15 38 -35c0 -28 -26 -52 -53 -52z" />
    <glyph glyph-name="Ydieresis" unicode="&#x178;" horiz-adv-x="625" 
d="M688 704c5 0 8 -5 8 -10c0 -3 0 -6 -2 -8c-109 -126 -237 -274 -345 -400l-48 -273c-1 -7 -8 -13 -18 -13h-29c-6 0 -13 4 -13 13l48 273c-68 133 -137 267 -205 400c0 7 4 18 14 18h31c8 0 15 -7 20 -15l179 -348l301 348c7 8 19 15 27 15h32zM315 828
c-23 0 -38 16 -38 37c0 27 26 50 53 50c19 0 37 -15 37 -36c0 -27 -28 -51 -52 -51zM507 828c-21 0 -38 16 -38 37c0 27 28 50 53 50c21 0 38 -15 38 -35c0 -28 -26 -52 -53 -52z" />
    <glyph glyph-name="Acircumflex" unicode="&#xc2;" horiz-adv-x="707" 
d="M644 16c0 -1 1 -2 1 -3c0 -6 -7 -13 -16 -13h-30c-9 0 -15 6 -18 14l-44 175h-390c-35 -59 -71 -117 -105 -175c-5 -8 -12 -14 -22 -14h-30c-7 0 -12 4 -12 9c0 1 0 4 2 7l416 677c3 5 12 11 22 11h32c8 0 15 -6 17 -11zM179 240h345c0 -1 -27 108 -41 163l-62 243
l-71 -123c-54 -93 -116 -191 -171 -283zM331 826l98 114c4 5 15 10 19 10h57c4 0 13 -4 15 -10l53 -107c2 -2 3 -7 3 -10c0 -7 -6 -14 -16 -14h-24c-6 0 -12 5 -15 9l-52 99c-31 -31 -83 -108 -102 -108h-24c-7 0 -13 5 -13 14z" />
    <glyph glyph-name="Ecircumflex" unicode="&#xca;" horiz-adv-x="666" 
d="M648 651h-417l-46 -264h368c6 0 12 -4 12 -13l-4 -27c-1 -6 -9 -12 -17 -12h-368l-50 -283h417c9 0 13 -6 13 -12l-5 -27c-1 -7 -9 -13 -17 -13h-460c-6 0 -12 4 -12 13l119 678c1 6 9 13 17 13h460c6 0 12 -5 12 -13l-4 -27c-2 -7 -10 -13 -18 -13zM308 826l98 114
c4 5 15 10 19 10h57c4 0 13 -4 15 -10l53 -107c2 -2 3 -7 3 -10c0 -7 -6 -14 -16 -14h-24c-6 0 -12 5 -15 9l-52 99c-31 -31 -83 -108 -102 -108h-24c-7 0 -13 5 -13 14z" />
    <glyph glyph-name="Aacute" unicode="&#xc1;" horiz-adv-x="707" 
d="M644 16c0 -1 1 -2 1 -3c0 -6 -7 -13 -16 -13h-30c-9 0 -15 6 -18 14l-44 175h-390c-35 -59 -71 -117 -105 -175c-5 -8 -12 -14 -22 -14h-30c-7 0 -12 4 -12 9c0 1 0 4 2 7l416 677c3 5 12 11 22 11h32c8 0 15 -6 17 -11zM179 240h345c0 -1 -27 108 -41 163l-62 243
l-71 -123c-54 -93 -116 -191 -171 -283zM424 830l71 111c5 4 14 9 18 9h44c7 0 11 -5 11 -11c0 -3 -1 -6 -3 -9l-106 -114c-1 -3 -9 -6 -13 -6h-13c-8 0 -12 5 -12 11c0 3 1 6 3 9z" />
    <glyph glyph-name="Edieresis" unicode="&#xcb;" horiz-adv-x="666" 
d="M648 651h-417l-46 -264h368c6 0 12 -4 12 -13l-4 -27c-1 -6 -9 -12 -17 -12h-368l-50 -283h417c9 0 13 -6 13 -12l-5 -27c-1 -7 -9 -13 -17 -13h-460c-6 0 -12 4 -12 13l119 678c1 6 9 13 17 13h460c6 0 12 -5 12 -13l-4 -27c-2 -7 -10 -13 -18 -13zM341 828
c-23 0 -38 16 -38 37c0 27 26 50 53 50c19 0 37 -15 37 -36c0 -27 -28 -51 -52 -51zM533 828c-21 0 -38 16 -38 37c0 27 28 50 53 50c21 0 38 -15 38 -35c0 -28 -26 -52 -53 -52z" />
    <glyph glyph-name="Egrave" unicode="&#xc8;" horiz-adv-x="666" 
d="M648 651h-417l-46 -264h368c6 0 12 -4 12 -13l-4 -27c-1 -6 -9 -12 -17 -12h-368l-50 -283h417c9 0 13 -6 13 -12l-5 -27c-1 -7 -9 -13 -17 -13h-460c-6 0 -12 4 -12 13l119 678c1 6 9 13 17 13h460c6 0 12 -5 12 -13l-4 -27c-2 -7 -10 -13 -18 -13zM461 936l32 -106v-4
c0 -8 -5 -16 -16 -16h-12c-5 0 -11 3 -13 7l-65 114c-1 1 -1 2 -1 3c0 7 6 16 16 16h42c9 0 15 -7 17 -14z" />
    <glyph glyph-name="Iacute" unicode="&#xcd;" horiz-adv-x="259" 
d="M225 704c5 0 10 -4 10 -13l-119 -678c-1 -7 -8 -13 -15 -13h-30c-6 0 -12 4 -12 13l119 678c2 7 9 13 17 13h30zM196 830l71 111c5 4 14 9 18 9h44c7 0 11 -5 11 -11c0 -3 -1 -6 -3 -9l-106 -114c-1 -3 -9 -6 -13 -6h-13c-8 0 -12 5 -12 11c0 3 1 6 3 9z" />
    <glyph glyph-name="Icircumflex" unicode="&#xce;" horiz-adv-x="259" 
d="M225 704c5 0 10 -4 10 -13l-119 -678c-1 -7 -8 -13 -15 -13h-30c-6 0 -12 4 -12 13l119 678c2 7 9 13 17 13h30zM110 826l98 114c4 5 15 10 19 10h57c4 0 13 -4 15 -10l53 -107c2 -2 3 -7 3 -10c0 -7 -6 -14 -16 -14h-24c-6 0 -12 5 -15 9l-52 99
c-31 -31 -83 -108 -102 -108h-24c-7 0 -13 5 -13 14z" />
    <glyph glyph-name="Idieresis" unicode="&#xcf;" horiz-adv-x="259" 
d="M225 704c5 0 10 -4 10 -13l-119 -678c-1 -7 -8 -13 -15 -13h-30c-6 0 -12 4 -12 13l119 678c2 7 9 13 17 13h30zM138 828c-23 0 -38 16 -38 37c0 27 26 50 53 50c19 0 37 -15 37 -36c0 -27 -28 -51 -52 -51zM330 828c-21 0 -38 16 -38 37c0 27 28 50 53 50
c21 0 38 -15 38 -35c0 -28 -26 -52 -53 -52z" />
    <glyph glyph-name="Igrave" unicode="&#xcc;" horiz-adv-x="259" 
d="M225 704c5 0 10 -4 10 -13l-119 -678c-1 -7 -8 -13 -15 -13h-30c-6 0 -12 4 -12 13l119 678c2 7 9 13 17 13h30zM245 936l32 -106v-4c0 -8 -5 -16 -16 -16h-12c-5 0 -11 3 -13 7l-65 114c-1 1 -1 2 -1 3c0 7 6 16 16 16h42c9 0 15 -7 17 -14z" />
    <glyph glyph-name="Oacute" unicode="&#xd3;" horiz-adv-x="837" 
d="M786 350c-36 -207 -216 -362 -414 -362c-176 0 -292 121 -292 292c0 228 188 436 421 436c183 0 291 -129 291 -295c0 -23 -2 -47 -6 -71zM382 42c179 0 349 156 349 375c0 150 -98 245 -240 245c-176 0 -350 -153 -350 -376c0 -148 98 -244 241 -244zM479 830l71 111
c5 4 14 9 18 9h44c7 0 11 -5 11 -11c0 -3 -1 -6 -3 -9l-106 -114c-1 -3 -9 -6 -13 -6h-13c-8 0 -12 5 -12 11c0 3 1 6 3 9z" />
    <glyph glyph-name="Ocircumflex" unicode="&#xd4;" horiz-adv-x="837" 
d="M786 350c-36 -207 -216 -362 -414 -362c-176 0 -292 121 -292 292c0 228 188 436 421 436c183 0 291 -129 291 -295c0 -23 -2 -47 -6 -71zM382 42c179 0 349 156 349 375c0 150 -98 245 -240 245c-176 0 -350 -153 -350 -376c0 -148 98 -244 241 -244zM394 826l98 114
c4 5 15 10 19 10h57c4 0 13 -4 15 -10l53 -107c2 -2 3 -7 3 -10c0 -7 -6 -14 -16 -14h-24c-6 0 -12 5 -15 9l-52 99c-31 -31 -83 -108 -102 -108h-24c-7 0 -13 5 -13 14z" />
    <glyph glyph-name="Ograve" unicode="&#xd2;" horiz-adv-x="837" 
d="M786 350c-36 -207 -216 -362 -414 -362c-176 0 -292 121 -292 292c0 228 188 436 421 436c183 0 291 -129 291 -295c0 -23 -2 -47 -6 -71zM382 42c179 0 349 156 349 375c0 150 -98 245 -240 245c-176 0 -350 -153 -350 -376c0 -148 98 -244 241 -244zM533 936l32 -106
v-4c0 -8 -5 -16 -16 -16h-12c-5 0 -11 3 -13 7l-65 114c-1 1 -1 2 -1 3c0 7 6 16 16 16h42c9 0 15 -7 17 -14z" />
    <glyph glyph-name="Uacute" unicode="&#xda;" horiz-adv-x="796" 
d="M765 704c6 0 11 -4 11 -13l-68 -389c-33 -188 -180 -314 -356 -314c-157 0 -251 96 -251 245c0 22 2 45 6 69l68 389c2 7 9 13 17 13h30c5 0 10 -4 10 -13l-66 -378c-4 -23 -6 -45 -6 -66c0 -124 72 -205 202 -205c151 0 262 111 290 271l66 378c2 7 8 13 17 13h30z
M452 830l71 111c5 4 14 9 18 9h44c7 0 11 -5 11 -11c0 -3 -1 -6 -3 -9l-106 -114c-1 -3 -9 -6 -13 -6h-13c-8 0 -12 5 -12 11c0 3 1 6 3 9z" />
    <glyph glyph-name="Ucircumflex" unicode="&#xdb;" horiz-adv-x="796" 
d="M765 704c6 0 11 -4 11 -13l-68 -389c-33 -188 -180 -314 -356 -314c-157 0 -251 96 -251 245c0 22 2 45 6 69l68 389c2 7 9 13 17 13h30c5 0 10 -4 10 -13l-66 -378c-4 -23 -6 -45 -6 -66c0 -124 72 -205 202 -205c151 0 262 111 290 271l66 378c2 7 8 13 17 13h30z
M374 826l98 114c4 5 15 10 19 10h57c4 0 13 -4 15 -10l53 -107c2 -2 3 -7 3 -10c0 -7 -6 -14 -16 -14h-24c-6 0 -12 5 -15 9l-52 99c-31 -31 -83 -108 -102 -108h-24c-7 0 -13 5 -13 14z" />
    <glyph glyph-name="Ugrave" unicode="&#xd9;" horiz-adv-x="796" 
d="M765 704c6 0 11 -4 11 -13l-68 -389c-33 -188 -180 -314 -356 -314c-157 0 -251 96 -251 245c0 22 2 45 6 69l68 389c2 7 9 13 17 13h30c5 0 10 -4 10 -13l-66 -378c-4 -23 -6 -45 -6 -66c0 -124 72 -205 202 -205c151 0 262 111 290 271l66 378c2 7 8 13 17 13h30z
M511 936l32 -106v-4c0 -8 -5 -16 -16 -16h-12c-5 0 -11 3 -13 7l-65 114c-1 1 -1 2 -1 3c0 7 6 16 16 16h42c9 0 15 -7 17 -14z" />
    <glyph glyph-name="multiply" unicode="&#xd7;" 
d="M127 534l16 14c6 6 15 6 20 0l180 -179l178 178c7 7 16 6 21 1l17 -15c6 -6 6 -15 -1 -22l-178 -178l179 -180c5 -5 5 -14 -1 -20l-15 -15c-5 -5 -14 -5 -20 0l-179 179l-179 -179c-6 -5 -15 -5 -21 1l-16 15c-5 6 -5 14 0 20l180 180l-180 180c-6 5 -6 14 -1 20z" />
    <glyph glyph-name="brokenbar" unicode="&#xa6;" horiz-adv-x="267" 
d="M252 742c6 0 11 -6 11 -12l-67 -382c-1 -7 -9 -13 -15 -13h-20c-6 0 -12 4 -12 13l67 382c1 6 8 12 16 12h20zM158 209c6 0 11 -6 11 -12l-67 -383c-2 -7 -10 -14 -16 -14h-20c-7 0 -12 5 -12 11c0 1 1 2 1 3l67 383c1 6 8 12 16 12h20z" />
    <glyph glyph-name="currency" unicode="&#xa4;" 
d="M511 202l51 -50c6 -5 6 -14 0 -19l-15 -15c-6 -6 -15 -6 -20 0l-50 49c-36 -27 -82 -45 -131 -45s-93 17 -129 44l-49 -49c-6 -5 -15 -5 -21 1l-16 15c-6 6 -5 15 0 20l50 50c-28 36 -45 80 -45 130c0 48 17 94 46 129l-51 51c-5 5 -5 14 0 20l15 14c6 6 15 6 21 0
l49 -50c36 29 81 46 130 46s94 -17 130 -45l49 49c6 6 15 6 20 0l17 -15c6 -6 6 -15 0 -21l-50 -50c28 -35 45 -80 45 -128c0 -50 -17 -95 -46 -131zM185 333c0 -90 72 -163 161 -163c90 0 163 73 163 163c0 89 -73 162 -163 162c-89 0 -161 -73 -161 -162z" />
    <glyph glyph-name="uni00AD" unicode="&#xad;" horiz-adv-x="368" 
d="M82 299c1 7 9 13 18 13h239c7 0 12 -4 12 -13l-4 -22c-1 -7 -8 -13 -17 -13h-239c-6 0 -13 4 -13 13z" />
    <glyph glyph-name="Eth" unicode="&#xd0;" horiz-adv-x="791" 
d="M449 704c197 0 322 -95 322 -274c0 -278 -206 -430 -446 -430h-232c-6 0 -13 3 -13 12l55 314h-52c-7 0 -12 5 -12 14l5 26c1 7 8 13 16 13h52l55 312c2 7 9 13 18 13h232zM344 52c199 0 365 138 365 367c0 148 -98 232 -260 232h-199l-48 -272h162c6 0 13 -4 13 -13
l-5 -26c-1 -8 -8 -14 -17 -14h-162l-48 -274h199z" />
    <glyph glyph-name="Oslash" unicode="&#xd8;" horiz-adv-x="837" 
d="M713 654v-1c65 -53 101 -137 101 -233c0 -241 -202 -432 -420 -432c-62 0 -115 14 -160 41l-21 -29c-6 -8 -16 -15 -26 -15h-19c-6 0 -10 4 -10 9c0 2 1 5 3 7l39 51c-63 52 -98 132 -98 227c0 228 188 437 421 437c61 0 113 -14 156 -39l22 29c6 8 16 14 25 14h18
c5 0 9 -4 9 -9c0 -3 -1 -5 -3 -8zM169 350c-4 -21 -5 -41 -5 -60c0 -79 28 -147 73 -189l404 529c-36 20 -80 32 -128 32c-163 0 -311 -124 -344 -312zM404 42c176 0 348 154 348 370c0 82 -30 150 -77 194l-404 -529v-2c37 -22 82 -33 133 -33z" />
    <glyph glyph-name="AE" unicode="&#xc6;" horiz-adv-x="1145" 
d="M1150 651h-415l-46 -264h367c7 0 11 -5 11 -10v-3l-4 -27c-1 -6 -8 -12 -16 -12h-367l-50 -283h415c9 0 13 -6 13 -12l-5 -27c-1 -7 -9 -13 -17 -13h-459c-8 0 -13 5 -13 11v2l30 173h-346c-57 -59 -118 -121 -175 -178c-9 -9 -20 -14 -28 -14h-41c-6 0 -9 2 -9 5
s0 5 4 9c191 191 378 382 569 575l108 109c6 7 18 12 27 12h457c7 0 12 -6 12 -12v-1l-4 -27c-2 -7 -10 -13 -18 -13zM299 238h304l68 384c-66 -67 -147 -149 -228 -234z" />
    <glyph glyph-name="Yacute" unicode="&#xdd;" horiz-adv-x="625" 
d="M688 704c5 0 8 -5 8 -10c0 -3 0 -6 -2 -8c-109 -126 -237 -274 -345 -400l-48 -273c-1 -7 -8 -13 -18 -13h-29c-6 0 -13 4 -13 13l48 273c-68 133 -137 267 -205 400c0 7 4 18 14 18h31c8 0 15 -7 20 -15l179 -348l301 348c7 8 19 15 27 15h32zM364 830l71 111
c5 4 14 9 18 9h44c7 0 11 -5 11 -11c0 -3 -1 -6 -3 -9l-106 -114c-1 -3 -9 -6 -13 -6h-13c-8 0 -12 5 -12 11c0 3 1 6 3 9z" />
    <glyph glyph-name="yacute" unicode="&#xfd;" horiz-adv-x="529" 
d="M492 517h30c8 0 12 -5 12 -10c0 -3 -1 -7 -3 -9l-394 -687c-4 -5 -12 -11 -17 -11h-26c-8 0 -11 4 -11 10c0 16 24 47 34 64l74 127c-35 164 -70 334 -107 497c0 9 5 19 16 19h22c7 0 15 -9 17 -15l62 -290l24 -139h12l48 93c3 8 7 15 191 341c4 6 11 10 16 10zM284 643
l71 111c5 4 14 9 18 9h44c7 0 11 -5 11 -11c0 -3 -1 -6 -3 -9l-106 -114c-1 -3 -9 -6 -13 -6h-13c-8 0 -12 5 -12 11c0 3 1 6 3 9z" />
    <glyph glyph-name="eth" unicode="&#xf0;" horiz-adv-x="587" 
d="M464 661c80 -106 111 -206 111 -306c0 -25 -3 -50 -7 -75c-34 -194 -151 -292 -296 -292c-120 0 -202 63 -202 190c0 194 137 313 281 313c97 0 114 -38 160 -66c-9 87 -44 150 -92 210l-126 -70c-2 -1 -5 -2 -7 -2c-5 0 -10 4 -12 8l-6 13l1 4c1 4 4 8 9 11l116 65
c-14 16 -63 53 -63 67c0 6 24 23 34 23c16 0 54 -39 74 -61l3 -4c11 7 28 16 39 22l65 36c1 0 3 1 5 1c9 0 18 -12 18 -21c0 -5 -2 -9 -9 -13zM281 37c95 0 191 53 220 215c3 17 4 32 4 46c0 110 -82 145 -153 145c-108 0 -220 -91 -220 -258c0 -104 63 -148 149 -148z" />
    <glyph glyph-name="Thorn" unicode="&#xde;" horiz-adv-x="661" 
d="M244 704c5 0 10 -4 10 -13l-20 -115h209c137 0 221 -69 221 -178c0 -154 -128 -259 -298 -259h-209l-22 -127c-1 -6 -8 -12 -15 -12h-30c-6 0 -12 4 -12 12l119 679c2 7 9 13 17 13h30zM388 192c121 0 215 79 215 197c0 82 -59 134 -157 134h-221l-59 -331h222z" />
    <glyph glyph-name="thorn" unicode="&#xfe;" horiz-adv-x="624" 
d="M79 -200h-29c-6 0 -12 4 -12 13l162 916c1 7 9 13 17 13h30c7 0 10 -3 10 -8c0 -2 -1 -3 -1 -5l-47 -267c-3 -16 -5 -38 -6 -39l9 1c38 57 116 105 205 105c94 0 179 -61 179 -198c0 -214 -148 -343 -293 -343c-74 0 -119 23 -166 65l-43 -240c-1 -7 -8 -13 -15 -13z
M305 38c118 0 230 101 230 284c0 99 -48 155 -137 155c-91 0 -200 -77 -224 -212l-27 -153c36 -41 83 -74 158 -74z" />
    <glyph glyph-name="onesuperior" unicode="&#xb9;" horiz-adv-x="239" 
d="M126 570c-4 -3 -7 -5 -10 -5c-4 0 -7 2 -9 5l-9 13c-1 2 -2 5 -2 7c0 3 1 6 5 10l127 97c4 3 10 7 15 7h19c7 0 11 -4 11 -9v-4l-60 -343c-1 -6 -7 -12 -16 -12h-19c-6 0 -12 4 -12 12l51 292z" />
    <glyph glyph-name="twosuperior" unicode="&#xb2;" horiz-adv-x="282" 
d="M295 519l-157 -131l-1 -3h155c6 0 11 -7 11 -13l-3 -18c-1 -7 -9 -12 -15 -12h-213c-6 0 -12 3 -12 12l3 17c2 10 10 18 18 25l188 159c19 16 27 38 27 61c0 33 -24 56 -60 56c-32 0 -65 -20 -79 -49c-4 -8 -12 -14 -19 -14c-11 0 -26 10 -26 17c0 2 0 4 1 6
c21 45 71 84 131 84c62 0 102 -39 102 -93c0 -33 -15 -74 -51 -104z" />
    <glyph glyph-name="threesuperior" unicode="&#xb3;" horiz-adv-x="270" 
d="M111 419c9 -23 33 -40 60 -40c44 0 88 37 88 87c0 34 -26 56 -62 56h-18c-8 0 -13 3 -13 9c0 1 1 2 1 3l3 18c1 6 7 13 16 13h14c35 0 70 26 70 64c0 27 -19 43 -47 43c-32 0 -52 -22 -54 -25c-6 -9 -14 -14 -21 -14c-2 0 -4 0 -6 1l-13 9c-3 3 -5 7 -5 11
c0 18 47 62 107 62c52 0 89 -34 89 -80c0 -35 -23 -65 -50 -88v-4c25 -18 37 -45 37 -76c0 -75 -72 -132 -143 -132s-99 43 -99 64c0 6 4 12 11 15l18 9c3 1 5 2 7 2c5 0 9 -3 10 -7z" />
    <glyph glyph-name="onequarter" unicode="&#xbc;" horiz-adv-x="731" 
d="M396 126c2 5 6 10 12 16l209 214c12 9 19 11 27 11h8c11 0 17 -5 17 -13l-39 -221h41c6 0 11 -5 11 -14l-3 -18c-1 -7 -9 -13 -16 -13h-41l-11 -65c-2 -11 -4 -23 -18 -23h-20c-8 0 -13 3 -13 9c0 1 1 2 1 3l13 76h-173c-7 0 -12 5 -12 14l3 14c0 3 2 7 4 10zM447 126
h136l30 173c-33 -36 -68 -68 -101 -103zM228 641l-93 -71c-3 -2 -7 -4 -9 -4c-5 0 -7 2 -10 5l-9 13c-1 3 -2 6 -2 8s2 6 5 9l129 97c3 2 10 6 13 6h20c6 0 12 -3 12 -12l-61 -344c-1 -6 -7 -12 -16 -12h-20c-6 0 -11 4 -11 12zM663 705h18c6 0 9 -4 9 -9c0 -3 0 -6 -2 -8
l-515 -673c-6 -8 -16 -15 -25 -15h-18c-6 0 -11 4 -11 9c0 2 1 4 3 7l515 675c7 8 18 14 26 14z" />
    <glyph glyph-name="onehalf" unicode="&#xbd;" horiz-adv-x="773" 
d="M228 641l-94 -71c-3 -2 -7 -4 -9 -4c-4 0 -6 2 -9 5l-9 13c-1 3 -2 6 -2 8s2 6 5 9l129 97c3 2 10 6 13 6h20c6 0 12 -3 12 -12l-61 -344c-1 -6 -7 -12 -16 -12h-20c-6 0 -11 4 -11 12zM711 177l-159 -133h156c6 0 11 -6 11 -13l-3 -18c-2 -8 -8 -13 -15 -13h-214
c-6 0 -12 4 -12 13l3 17c1 9 10 17 18 23l190 161c17 15 26 40 26 60c0 33 -24 56 -59 56c-31 0 -66 -22 -81 -49c-4 -6 -12 -14 -18 -14c-12 0 -28 8 -28 17c0 3 0 3 2 6c20 45 69 83 132 83c60 0 102 -39 102 -92c0 -29 -15 -74 -51 -104zM663 705h18c6 0 9 -4 9 -9
c0 -3 0 -6 -2 -8l-515 -673c-6 -8 -16 -15 -25 -15h-18c-6 0 -11 4 -11 9c0 2 1 4 3 7l515 675c7 8 18 14 26 14z" />
    <glyph glyph-name="threequarters" unicode="&#xbe;" horiz-adv-x="749" 
d="M124 419c9 -23 33 -40 60 -40c44 0 87 37 87 87c0 34 -25 56 -61 56h-18c-8 0 -13 3 -13 9c0 1 1 2 1 3l3 18c1 6 7 13 16 13h14c35 0 70 26 70 64c0 27 -19 43 -47 43c-32 0 -52 -22 -54 -25c-6 -9 -14 -14 -21 -14c-2 0 -4 0 -6 1l-15 9c-2 2 -3 6 -3 9
c0 20 45 64 107 64c52 0 88 -34 88 -80c0 -35 -22 -64 -50 -87v-4c25 -18 37 -46 37 -77c0 -75 -71 -132 -142 -132s-100 43 -100 64c0 6 4 12 11 15l17 9c3 1 7 2 9 2c6 0 9 -3 10 -7zM645 356c5 4 16 11 23 11h17c6 0 11 -5 11 -13l-39 -221h42c7 0 11 -4 11 -14l-3 -18
c-1 -7 -8 -13 -16 -13h-42l-13 -76c-2 -7 -7 -12 -14 -12h-21c-7 0 -13 4 -13 9c0 1 1 2 1 3l13 76h-172c-7 0 -13 5 -13 14l3 14c1 6 4 12 8 18zM475 126h137l30 173zM680 705h17c6 0 9 -4 9 -9c0 -3 0 -6 -2 -8l-515 -673c-6 -8 -16 -15 -25 -15h-18c-6 0 -11 4 -11 9
c0 2 1 4 3 7l515 675c7 8 18 14 27 14z" />
    <glyph glyph-name="florin" unicode="&#x192;" horiz-adv-x="618" 
d="M69 -149c-7 2 -12 8 -10 16l5 24c2 8 9 13 17 11c12 -4 28 -11 58 -11c69 0 107 44 131 169l66 363h-101c-8 0 -13 6 -12 14l2 17c1 8 8 14 16 14h102l13 70c29 144 87 201 179 201c33 0 58 -6 79 -10c8 -1 13 -8 11 -16l-4 -22c-2 -9 -9 -14 -17 -13
c-16 3 -36 10 -61 10c-66 0 -106 -34 -128 -150c-2 -10 -10 -57 -13 -70h128c8 0 13 -6 12 -14l-1 -17c-2 -8 -9 -14 -17 -14h-130l-64 -354c-31 -167 -86 -230 -183 -230c-25 0 -57 5 -78 12z" />
    <glyph glyph-name="fi" unicode="&#xfb01;" horiz-adv-x="621" 
d="M485 738c3 -1 5 -5 5 -10c0 -11 -11 -36 -25 -36c-19 0 -57 11 -90 11c-73 0 -127 -34 -141 -119l-11 -67h165c6 0 10 -7 10 -14l-3 -17c-1 -7 -9 -13 -15 -13h-165l-81 -460c-1 -7 -9 -13 -16 -13h-27c-6 0 -13 4 -13 13l81 460h-76c-6 0 -12 4 -12 13l3 17
c1 7 9 14 17 14h76l10 61c17 106 92 174 209 174c46 0 73 -6 99 -14zM559 517c6 0 10 -5 10 -13l-86 -491c-1 -7 -7 -13 -15 -13h-29c-6 0 -12 4 -12 13l86 491c1 6 9 13 17 13h29zM534 701c4 22 26 41 48 41c20 0 35 -15 35 -34c0 -26 -24 -48 -49 -48c-20 0 -35 14 -35 34
c0 2 0 4 1 7z" />
    <glyph glyph-name="fl" unicode="&#xfb02;" horiz-adv-x="620" 
d="M485 738c3 -1 5 -5 5 -10c0 -11 -11 -36 -25 -36c-19 0 -57 11 -90 11c-73 0 -127 -34 -141 -119l-11 -67h165c6 0 10 -7 10 -14l-3 -17c-1 -7 -9 -13 -15 -13h-165l-81 -460c-1 -7 -9 -13 -16 -13h-27c-6 0 -13 4 -13 13l81 460h-76c-6 0 -12 4 -12 13l3 17
c1 7 9 14 17 14h76l10 61c17 106 92 174 209 174c46 0 73 -6 99 -14zM598 742c6 0 11 -5 11 -13l-126 -716c-1 -7 -7 -13 -15 -13h-29c-6 0 -12 4 -12 13l126 716c1 7 8 13 16 13h29z" />
    <glyph glyph-name="Lslash" unicode="&#x141;" horiz-adv-x="596" 
d="M550 52c6 0 11 -4 11 -13l-4 -26c-1 -7 -8 -13 -16 -13h-445c-6 0 -12 4 -12 13l38 219l-121 -65c-2 -1 -5 -1 -7 -1c-7 0 -10 3 -10 9l5 27c2 8 5 13 14 17l129 67l71 405c1 6 9 13 17 13h30c6 0 10 -6 10 -13l-65 -371c42 21 84 44 125 65c2 1 5 2 7 2c6 0 9 -5 9 -10
l-5 -26c-1 -7 -5 -12 -14 -17l-132 -69l-37 -213h402z" />
    <glyph glyph-name="lslash" unicode="&#x142;" horiz-adv-x="245" 
d="M321 351c-1 -7 -6 -12 -15 -17l-132 -69l-44 -252c-1 -7 -7 -13 -15 -13h-29c-6 0 -12 4 -12 13l39 220l-124 -65c-3 -2 -5 -2 -8 -2c-4 0 -7 3 -7 10l4 26c1 8 5 13 13 17l131 69l78 441c1 7 8 13 16 13h29c6 0 11 -5 11 -13l-72 -408l125 64c2 1 4 1 6 1
c7 0 11 -4 11 -9z" />
    <glyph glyph-name="Zcaron" unicode="&#x17d;" horiz-adv-x="681" 
d="M22 13l4 23c1 6 6 13 12 18l561 597h-440c-7 0 -12 4 -12 10c0 1 1 2 1 3l4 27c1 6 9 13 17 13h504c6 0 12 -5 12 -13l-4 -25c-1 -5 -6 -12 -10 -16c-185 -197 -378 -399 -563 -598h461c6 0 12 -4 12 -12l-5 -27c-1 -7 -8 -13 -16 -13h-526c-6 0 -12 4 -12 13zM582 933
l-98 -114c-4 -5 -15 -10 -19 -10h-57c-4 0 -13 4 -15 10l-53 107c-2 2 -3 7 -3 10c0 7 6 14 16 14h24c6 0 12 -5 15 -9l52 -99c31 31 83 108 102 108h24c7 0 13 -5 13 -14z" />
    <glyph glyph-name="zcaron" unicode="&#x17e;" horiz-adv-x="520" 
d="M420 47c6 0 12 -3 12 -13l-3 -21c-1 -7 -8 -13 -17 -13h-393c-6 0 -12 4 -12 13l3 20c2 9 6 14 10 18c160 162 270 279 408 418h-318c-7 0 -12 5 -12 11c0 1 1 2 1 3l3 21c1 6 9 13 17 13h374c6 0 12 -4 12 -13l-3 -21c-2 -11 -14 -21 -23 -30l-397 -406h338zM469 746
l-98 -114c-4 -5 -15 -10 -19 -10h-57c-4 0 -13 4 -15 10l-53 107c-2 2 -3 7 -3 10c0 7 6 14 16 14h24c6 0 12 -5 15 -9l52 -99c31 31 83 108 102 108h24c7 0 13 -5 13 -14z" />
    <glyph glyph-name="Scaron" unicode="&#x160;" horiz-adv-x="647" 
d="M346 394c146 -27 226 -80 226 -170c0 -142 -139 -236 -302 -236c-90 0 -174 34 -227 84c-2 1 -3 4 -3 8c0 3 1 7 4 10l24 22c4 2 9 4 13 4c3 0 6 -1 8 -2c46 -43 115 -72 193 -72c128 0 228 65 228 168c0 70 -70 105 -206 132c-112 21 -180 76 -180 157
c0 128 136 217 276 217c90 0 173 -28 221 -82c2 -3 3 -6 3 -9c0 -4 -2 -8 -5 -11l-21 -20c-4 -3 -8 -5 -12 -5s-7 2 -10 5c-44 43 -107 68 -187 68c-118 0 -203 -61 -203 -152c0 -58 48 -96 160 -116zM567 933l-98 -114c-4 -5 -15 -10 -19 -10h-57c-4 0 -13 4 -15 10
l-53 107c-2 2 -3 7 -3 10c0 7 6 14 16 14h24c6 0 12 -5 15 -9l52 -99c31 31 83 108 102 108h24c7 0 13 -5 13 -14z" />
    <glyph glyph-name="scaron" unicode="&#x161;" horiz-adv-x="488" 
d="M55 67c33 -15 87 -30 140 -30c88 0 157 47 157 113c0 109 -265 59 -265 207c0 92 89 172 208 172c61 0 159 -18 159 -43c0 -3 -14 -36 -30 -36c-1 0 -3 0 -5 1c-32 14 -81 28 -130 28c-83 0 -141 -43 -141 -103c0 -108 265 -65 265 -209c0 -100 -101 -179 -224 -179
c-69 0 -169 20 -169 44c0 2 1 6 4 9l13 21c2 3 6 5 11 5h7zM460 746l-98 -114c-4 -5 -15 -10 -19 -10h-57c-4 0 -13 4 -15 10l-53 107c-2 2 -3 7 -3 10c0 7 6 14 16 14h24c6 0 12 -5 15 -9l52 -99c31 31 83 108 102 108h24c7 0 13 -5 13 -14z" />
    <glyph glyph-name="minus" unicode="&#x2212;" 
d="M84 346c0 7 6 14 13 14h498c8 0 14 -7 14 -14v-24c0 -8 -6 -15 -14 -15h-498c-7 0 -13 7 -13 15v24z" />
    </font>
</defs>
</svg>
