<svg xmlns="http://www.w3.org/2000/svg">
<defs>
<font id="DBAdmanRoundedX" horiz-adv-x="0" >
  <font-face 
    font-family="DB AdmanRounded X"
    font-weight="400"
    font-stretch="normal"
    units-per-em="4096"
    panose-1="2 0 5 6 9 0 0 2 0 4"
    ascent="3276"
    descent="-820"
    x-height="1495"
    cap-height="2183"
    bbox="-1794 -1503 3932 3391"
    underline-thickness="82"
    underline-position="-463"
    unicode-range="U+0020-U+F882"
  />
<missing-glyph horiz-adv-x="1696" 
d="M1729 1638v-57h24q29 0 29 37q0 3 -6.5 11.5t-22.5 8.5h-24zM1741 1577h-12v-57h-21v139h45q49 0 49 -41q0 -28 -12.5 -34.5t-28.5 -6.5l41 -57h-20zM1753 1499q26 0 43.5 8t28 20.5t14.5 27t4 26.5q0 46 -21.5 72t-68.5 26q-46 0 -70 -26t-24 -72q0 -34 22.5 -58
t71.5 -24zM1753 1692q53 0 77.5 -32.5t24.5 -78.5q0 -17 -6 -33.5t-18.5 -30t-32 -22t-45.5 -8.5q-24 0 -44 8.5t-33.5 22t-21 30t-7.5 33.5q0 46 28.5 78.5t77.5 32.5zM823 1294q43 -3 98 -9t114 -15t118.5 -20.5t112 -25.5t94 -30t65.5 -35q-41 81 -107 144.5t-146.5 107
t-171 66t-181.5 22.5q-69 0 -136 -13t-128.5 -40t-115 -68t-95.5 -96q74 9 147.5 12.5t147.5 3.5q46 0 92 -0.5t92 -3.5zM1536 1618v-582q-98 31 -211.5 58t-238.5 47t-259 31.5t-274 11.5q-99 0 -194 -6t-191 -19q24 92 78 175.5t135.5 146.5t189.5 100t240 37
q127 0 229.5 -28.5t179 -70.5t128 -89.5t77.5 -86.5q0 -3 -0.5 11t-0.5 38t-1 55t-1 62.5t-0.5 60t-0.5 48.5h115zM627 520q0 34 -22.5 50t-47.5 16q-28 0 -49 -16t-21 -50t21 -47.5t49 -13.5q12 0 24.5 3t22.5 10.5t16.5 19t6.5 28.5zM131 569q0 95 37.5 168t98.5 122
t139 74t159 25t157.5 -22t135 -67.5t94 -115.5t35.5 -167v-475h434v827h115v-934h-774v107h119v487q0 61 -24 107.5t-66 77t-99 46t-123 15.5q-61 0 -118.5 -17.5t-102 -50.5t-71.5 -81t-27 -109v-439l237 238q-11 4 -25.5 14.5t-28 27t-23 39.5t-9.5 54q0 74 45 117t119 43
q35 0 64 -13t49.5 -35t31.5 -51t11 -61q0 -29 -6.5 -51t-16.5 -38t-20.5 -27l-18.5 -19l-204 -197l-92 -85.5l-101 -98.5h-131v565z" />
    <glyph glyph-name="ellipsis" unicode="&#x2e;&#x2e;&#x2e;" horiz-adv-x="1921" 
d="M1798 184q0 -43 -16 -79.5t-43 -63.5t-63.5 -42t-78.5 -15q-41 0 -77.5 15t-63.5 41.5t-43 62.5t-16 77q0 43 16 80t43 64t63.5 42t77.5 15q42 0 78.5 -15t63.5 -41.5t43 -62.5t16 -78zM520 184q0 -43 -16 -79.5t-43 -63.5t-63.5 -42t-78.5 -15q-41 0 -77.5 15
t-63.5 41.5t-43 62.5t-16 77q0 43 16 80t43 64t63.5 42t77.5 15q42 0 78.5 -15t63.5 -41.5t43 -62.5t16 -78zM1159 184q0 -43 -16 -79.5t-43 -63.5t-63.5 -42t-78.5 -15q-41 0 -77.5 15t-63.5 41.5t-43 62.5t-16 77q0 43 16 80t43 64t63.5 42t77.5 15q42 0 78.5 -15
t63.5 -41.5t43 -62.5t16 -78z" />
    <glyph glyph-name="dochadaphinthuthai" unicode="&#xe0e;&#xe3a;" horiz-adv-x="1921" 
d="M1778 -975q0 -37 -14.5 -69.5t-39.5 -57t-58.5 -39t-72.5 -14.5q-38 0 -71.5 14.5t-58.5 39t-39.5 57t-14.5 69.5t14.5 69.5t39.5 57t58.5 39t71.5 14.5q39 0 72.5 -14.5t58.5 -39t39.5 -57t14.5 -69.5zM1757 -324l-438 -426q-72 54 -140 93t-134 63.5t-132 36.5t-135 12
q-68 0 -135.5 -13.5t-130 -36t-117 -52.5t-96.5 -62q-21 -17 -47 -20t-50.5 5t-46.5 25t-36 40q-14 24 -16 49t5.5 48.5t23 44.5t36.5 38q43 35 109 70t146.5 63t171.5 45.5t183 17.5q140 0 265 -31t243 -96l197 193v1278q0 121 -44 220.5t-122 171t-186.5 110.5t-237.5 39
q-68 0 -133.5 -17t-126.5 -47.5t-114.5 -72.5t-96.5 -93l127 -131v-1110q0 -28 -11 -52t-29.5 -41.5t-43 -27.5t-51.5 -10h-201q-28 0 -52.5 10t-43 27.5t-29 41.5t-10.5 52t10.5 52.5t29 43t43 29t52.5 10.5h61v881l-102 114q-27 31 -35 64.5t-3.5 64.5t16.5 57t24 42
q67 87 148.5 157.5t173 119.5t192 75.5t205.5 26.5q126 0 239 -27t208.5 -77.5t172.5 -122.5t131 -161.5t83 -195t29 -223.5z" />
    <glyph glyph-name="topatakphintuthai" unicode="&#xe0f;&#xe3a;" horiz-adv-x="1921" 
d="M1757 -324l-446 -434l-295 287l-291 -287l-422 406q-40 40 -42 92.5t38 95.5q20 20 44 31.5t48.5 13t49.5 -7.5t46 -29l238 -225l295 283l295 -287l168 164v1282q0 120 -44 219.5t-122 171t-186.5 111t-237.5 39.5q-68 0 -133.5 -17t-126 -47.5t-113 -72.5t-94.5 -93
l123 -131v-1110q0 -28 -11 -52t-29.5 -41.5t-43 -27.5t-51.5 -10h-201q-28 0 -52.5 10t-43 27.5t-29 41.5t-10.5 52t10.5 52.5t29 43t43 29t52.5 10.5h61v882l-102 113q-28 30 -35.5 63.5t-3 65t16.5 57.5t24 42q67 87 148.5 157.5t173 119.5t192 75.5t205.5 26.5
q189 0 347.5 -60t273.5 -167t179 -255t64 -325v-1385zM1778 -975q0 -37 -14.5 -69.5t-39.5 -57t-58.5 -39t-72.5 -14.5q-38 0 -71.5 14.5t-58.5 39t-39.5 57t-14.5 69.5t14.5 69.5t39.5 57t58.5 39t71.5 14.5q39 0 72.5 -14.5t58.5 -39t39.5 -57t14.5 -69.5z" />
    <glyph glyph-name="dochadasarauthai" unicode="&#xe0e;&#xe38;" horiz-adv-x="1921" 
d="M1757 -324l-438 -426q-72 54 -140 93t-134 63.5t-132 36.5t-135 12q-68 0 -135.5 -13.5t-130 -36t-117 -52.5t-96.5 -62q-21 -17 -47 -20t-50.5 5t-46.5 25t-36 40q-14 24 -16 49t5.5 48.5t23 44.5t36.5 38q43 35 109 70t146.5 63t171.5 45.5t183 17.5q140 0 265 -31
t243 -96l197 193v1278q0 121 -44 220.5t-122 171t-186.5 110.5t-237.5 39q-68 0 -133.5 -17t-126.5 -47.5t-114.5 -72.5t-96.5 -93l127 -131v-1110q0 -28 -11 -52t-29.5 -41.5t-43 -27.5t-51.5 -10h-201q-28 0 -52.5 10t-43 27.5t-29 41.5t-10.5 52t10.5 52.5t29 43t43 29
t52.5 10.5h61v881l-102 114q-27 31 -35 64.5t-3.5 64.5t16.5 57t24 42q67 87 148.5 157.5t173 119.5t192 75.5t205.5 26.5q189 0 347.5 -60t273.5 -167t179 -255t64 -325v-1385zM1761 -1294q0 -26 -10 -50t-27.5 -42t-40.5 -28.5t-49 -10.5t-49.5 10.5t-41.5 28.5t-29 42
t-11 50v237h-94q-28 0 -52 9t-41.5 25t-27.5 38.5t-10 50.5q0 56 37.5 87.5t93.5 31.5h221q56 0 93.5 -31.5t37.5 -87.5v-360z" />
    <glyph glyph-name="topataksarauthai" unicode="&#xe0f;&#xe38;" horiz-adv-x="1921" 
d="M1761 -1294q0 -26 -10 -50t-27.5 -42t-40.5 -28.5t-49 -10.5t-49.5 10.5t-41.5 28.5t-29 42t-11 50v237h-94q-28 0 -52 9t-41.5 25t-27.5 38.5t-10 50.5q0 56 37.5 87.5t93.5 31.5h221q56 0 93.5 -31.5t37.5 -87.5v-360zM1757 -324l-446 -434l-295 287l-291 -287
l-422 406q-40 40 -42 92.5t38 95.5q20 20 44 31.5t48.5 13t49.5 -7.5t46 -29l238 -225l295 283l295 -287l168 164v1282q0 120 -44 219.5t-122 171t-186.5 111t-237.5 39.5q-68 0 -133.5 -17t-126 -47.5t-113 -72.5t-94.5 -93l123 -131v-1110q0 -28 -11 -52t-29.5 -41.5
t-43 -27.5t-51.5 -10h-201q-28 0 -52.5 10t-43 27.5t-29 41.5t-10.5 52t10.5 52.5t29 43t43 29t52.5 10.5h61v882l-102 113q-28 30 -35.5 63.5t-3 65t16.5 57.5t24 42q67 87 148.5 157.5t173 119.5t192 75.5t205.5 26.5q189 0 347.5 -60t273.5 -167t179 -255t64 -325v-1385z
" />
    <glyph glyph-name="fongmanfunnuthai" unicode="&#xe4f;&#x22;" horiz-adv-x="2171" 
d="M1987 868q0 -123 -32.5 -237.5t-92 -214.5t-142 -182.5t-183 -142t-215 -92t-237.5 -32.5t-237.5 32.5t-214.5 92t-182.5 142t-142 182.5t-92 214.5t-32.5 237.5t32.5 237.5t92 214.5t142 183t182.5 142t214.5 91.5t237.5 32.5t237.5 -32.5t215 -91.5t183 -142t142 -183
t92 -214.5t32.5 -237.5zM1569 868q0 -98 -38.5 -186t-104.5 -154t-154 -104.5t-187 -38.5q-98 0 -186 38.5t-154 104.5t-104.5 154t-38.5 186t38.5 186t104.5 154t154 105t186 39q66 0 127.5 -17.5t115 -49.5t98 -76.5t76.5 -98.5t49.5 -115.5t17.5 -126.5zM1343 868
q0 54 -20 101t-55 82t-82 55t-101 20t-101 -20t-82 -55t-55 -82t-20 -101t20 -101t55 -82t82 -55t101 -20t101 20t82 55t55 82t20 101zM1753 864q0 92 -24 178t-67.5 160.5t-104.5 136t-135 105.5t-159.5 68t-177.5 24t-177 -24t-159.5 -67.5t-135 -104.5t-104 -135
t-67.5 -159.5t-24 -177.5q0 -138 52.5 -259.5t143 -212t212 -143t259.5 -52.5q93 0 178.5 24t159.5 67.5t134 104t102.5 135t66 159.5t23.5 177zM770 2396q-2 28 5.5 52t22 41.5t36 27.5t47.5 10q27 0 49.5 -10t38.5 -27.5t24 -41.5t6 -52l-32 -426q-3 -40 -21.5 -67
t-64.5 -27q-41 0 -62 27t-24 67zM1171 2396q-2 28 5.5 52t22 41.5t36 27.5t47.5 10q28 0 50.5 -10t38 -27.5t23.5 -41.5t7 -52l-33 -426q-3 -40 -21.5 -67t-64.5 -27q-40 0 -61.5 27t-24.5 67z" />
    <glyph glyph-name="lessequal" unicode="&#x3c;&#x3d;" horiz-adv-x="1602" 
d="M94 676v303l1376 -746q23 -12 39 -30.5t23.5 -40t6.5 -45.5t-11 -47q-11 -22 -28.5 -37.5t-39.5 -23t-46.5 -6.5t-49.5 13zM1475 766q21 -12 36 -32t22.5 -42.5t6 -46t-11.5 -43.5q-12 -21 -32 -36t-42 -22.5t-45 -6.5t-41 12l-1274 659v238l1266 627q20 10 44 11
t47.5 -6.5t44 -23.5t32.5 -39q10 -20 11 -44t-6.5 -47.5t-23.5 -44t-39 -32.5l-1032 -520z" />
    <glyph glyph-name="greaterequal" unicode="&#x3e;&#x3d;" horiz-adv-x="1602" 
d="M242 16q-25 -12 -49.5 -13t-46.5 6.5t-40 23t-28 37.5q-11 23 -12 47t6.5 45.5t23.5 40t39 30.5l1376 746v-303zM1167 1327l-1032 520q-23 12 -39 32.5t-23.5 44t-6.5 47.5t12 44q12 23 32.5 39t44 23.5t47.5 6.5t44 -11l1265 -627v-238l-1273 -659q-19 -11 -41.5 -12
t-45 6.5t-42 22.5t-31.5 36q-11 20 -12 43.5t6.5 46t22.5 42.5t36 32z" />
    <glyph glyph-name="plusminus" unicode="&#x2b;&#x2d;" horiz-adv-x="1597" 
d="M184 950q-27 0 -51 9.5t-42 26.5t-28 40.5t-10 50.5q0 28 10 52t28 41.5t42 27.5t51 10h484v488q0 27 9.5 51t26.5 42t40 28t51 10q27 0 51 -10t42 -28t28 -42t10 -51v-488h487q28 0 52 -10t41.5 -27.5t27.5 -41.5t10 -52q0 -27 -10 -50.5t-27.5 -40.5t-41.5 -26.5
t-52 -9.5h-487v-487q0 -28 -10 -52t-28 -41.5t-42 -27.5t-51 -10q-28 0 -51 10t-40 27.5t-26.5 41.5t-9.5 52v487h-484zM184 0q-27 0 -51 9.5t-42 26.5t-28 40t-10 51t10 52t28 41.5t42 27.5t51 10h1229q28 0 52 -10t41.5 -27.5t27.5 -41.5t10 -52t-10 -51t-27.5 -40
t-41.5 -26.5t-52 -9.5h-1229z" />
    <glyph glyph-name="dochadasarauuthai" unicode="&#xe0e;&#xe39;" horiz-adv-x="1921" 
d="M1176 -819q27 0 51 -10t42 -28t28 -42t10 -51v-197q0 -20 7 -37.5t20 -31t30 -21.5t37 -8q46 0 72 29t26 69v217q0 26 11 50t29 42t41.5 28.5t49.5 10.5t49 -10.5t40.5 -28.5t27.5 -42t10 -50v-217q0 -74 -28 -138.5t-76 -113t-112 -76.5t-136 -28q-74 0 -139 25
t-113 71.5t-76 112.5t-28 147v66h-54q-27 0 -51 10t-42 27.5t-28 41.5t-10 52q0 27 10 51t28 42t42 28t51 10h181zM1757 -324l-438 -426q-72 54 -140 93t-134 63.5t-132 36.5t-135 12q-68 0 -135.5 -13.5t-130 -36t-117 -52.5t-96.5 -62q-21 -17 -47 -20t-50.5 5t-46.5 25
t-36 40q-14 24 -16 49t5.5 48.5t23 44.5t36.5 38q43 35 109 70t146.5 63t171.5 45.5t183 17.5q140 0 265 -31t243 -96l197 193v1278q0 121 -44 220.5t-122 171t-186.5 110.5t-237.5 39q-68 0 -133.5 -17t-126.5 -47.5t-114.5 -72.5t-96.5 -93l127 -131v-1110q0 -28 -11 -52
t-29.5 -41.5t-43 -27.5t-51.5 -10h-201q-28 0 -52.5 10t-43 27.5t-29 41.5t-10.5 52t10.5 52.5t29 43t43 29t52.5 10.5h61v881l-102 114q-27 31 -35 64.5t-3.5 64.5t16.5 57t24 42q67 87 148.5 157.5t173 119.5t192 75.5t205.5 26.5q189 0 347.5 -60t273.5 -167t179 -255
t64 -325v-1385z" />
    <glyph glyph-name="topataksarauuthai" unicode="&#xe0f;&#xe39;" horiz-adv-x="1921" 
d="M1176 -819q27 0 51 -10t42 -28t28 -42t10 -51v-197q0 -20 7 -37.5t20 -31t30 -21.5t37 -8q46 0 72 29t26 69v217q0 26 11 50t29 42t41.5 28.5t49.5 10.5t49 -10.5t40.5 -28.5t27.5 -42t10 -50v-217q0 -74 -28 -138.5t-76 -113t-112 -76.5t-136 -28q-74 0 -139 25
t-113 71.5t-76 112.5t-28 147v66h-54q-27 0 -51 10t-42 27.5t-28 41.5t-10 52q0 27 10 51t28 42t42 28t51 10h181zM1757 -324l-446 -434l-295 287l-291 -287l-422 406q-40 40 -42 92.5t38 95.5q20 20 44 31.5t48.5 13t49.5 -7.5t46 -29l238 -225l295 283l295 -287l168 164
v1282q0 120 -44 219.5t-122 171t-186.5 111t-237.5 39.5q-68 0 -133.5 -17t-126 -47.5t-113 -72.5t-94.5 -93l123 -131v-1110q0 -28 -11 -52t-29.5 -41.5t-43 -27.5t-51.5 -10h-201q-28 0 -52.5 10t-43 27.5t-29 41.5t-10.5 52t10.5 52.5t29 43t43 29t52.5 10.5h61v882
l-102 113q-28 30 -35.5 63.5t-3 65t16.5 57.5t24 42q67 87 148.5 157.5t173 119.5t192 75.5t205.5 26.5q189 0 347.5 -60t273.5 -167t179 -255t64 -325v-1385z" />
    <glyph glyph-name=".notdef" horiz-adv-x="1696" 
d="M1729 1638v-57h24q29 0 29 37q0 3 -6.5 11.5t-22.5 8.5h-24zM1741 1577h-12v-57h-21v139h45q49 0 49 -41q0 -28 -12.5 -34.5t-28.5 -6.5l41 -57h-20zM1753 1499q26 0 43.5 8t28 20.5t14.5 27t4 26.5q0 46 -21.5 72t-68.5 26q-46 0 -70 -26t-24 -72q0 -34 22.5 -58
t71.5 -24zM1753 1692q53 0 77.5 -32.5t24.5 -78.5q0 -17 -6 -33.5t-18.5 -30t-32 -22t-45.5 -8.5q-24 0 -44 8.5t-33.5 22t-21 30t-7.5 33.5q0 46 28.5 78.5t77.5 32.5zM823 1294q43 -3 98 -9t114 -15t118.5 -20.5t112 -25.5t94 -30t65.5 -35q-41 81 -107 144.5t-146.5 107
t-171 66t-181.5 22.5q-69 0 -136 -13t-128.5 -40t-115 -68t-95.5 -96q74 9 147.5 12.5t147.5 3.5q46 0 92 -0.5t92 -3.5zM1536 1618v-582q-98 31 -211.5 58t-238.5 47t-259 31.5t-274 11.5q-99 0 -194 -6t-191 -19q24 92 78 175.5t135.5 146.5t189.5 100t240 37
q127 0 229.5 -28.5t179 -70.5t128 -89.5t77.5 -86.5q0 -3 -0.5 11t-0.5 38t-1 55t-1 62.5t-0.5 60t-0.5 48.5h115zM627 520q0 34 -22.5 50t-47.5 16q-28 0 -49 -16t-21 -50t21 -47.5t49 -13.5q12 0 24.5 3t22.5 10.5t16.5 19t6.5 28.5zM131 569q0 95 37.5 168t98.5 122
t139 74t159 25t157.5 -22t135 -67.5t94 -115.5t35.5 -167v-475h434v827h115v-934h-774v107h119v487q0 61 -24 107.5t-66 77t-99 46t-123 15.5q-61 0 -118.5 -17.5t-102 -50.5t-71.5 -81t-27 -109v-439l237 238q-11 4 -25.5 14.5t-28 27t-23 39.5t-9.5 54q0 74 45 117t119 43
q35 0 64 -13t49.5 -35t31.5 -51t11 -61q0 -29 -6.5 -51t-16.5 -38t-20.5 -27l-18.5 -19l-204 -197l-92 -85.5l-101 -98.5h-131v565z" />
    <glyph glyph-name=".null" 
 />
    <glyph glyph-name="nonmarkingreturn" horiz-adv-x="1159" 
 />
    <glyph glyph-name="space" unicode=" " horiz-adv-x="1024" 
 />
    <glyph glyph-name="yoyingnobasethai" unicode="&#xf70f;" horiz-adv-x="3052" 
d="M1747 643q0 -81 34 -154.5t93 -129t137.5 -88.5t167.5 -33q91 0 169.5 29t136.5 82.5t91 128t33 165.5v1090v-4q0 29 11 54.5t29.5 44t44 29.5t54.5 11t54.5 -11t44.5 -29.5t30 -44t11 -54.5v-1086q0 -93 -25 -179t-71.5 -161t-111 -136t-143 -104.5t-169.5 -67.5
t-189 -24t-189 24t-169.5 67.5t-143 104.5t-111 136t-71.5 161t-25 179v418q0 123 -44 223t-123.5 170.5t-190 109t-244.5 38.5q-69 0 -136.5 -17t-129 -47t-116 -71.5t-97.5 -90.5l123 -135v-975h160q27 0 51.5 -10.5t43 -29t29.5 -43t11 -52.5t-11 -52t-29.5 -41.5
t-43 -27.5t-51.5 -10h-299q-27 0 -51.5 10t-43 27.5t-29.5 41.5t-11 52v1023l-102 111q-28 30 -35.5 63.5t-3 65t16.5 57.5t24 42q67 87 150 157.5t176.5 119.5t196 75.5t207.5 26.5q195 0 357 -60.5t278 -168.5t180 -256.5t64 -325.5v-418z" />
    <glyph glyph-name="quoteleft" unicode="&#x2018;" horiz-adv-x="770" 
d="M532 2298l-49.5 -39.5t-46 -43.5t-45 -54t-47.5 -72q54 -5 94 -20t66.5 -39t39.5 -55t13 -66q0 -37 -14.5 -71t-40 -60.5t-61 -42t-76.5 -15.5q-56 0 -97 21.5t-68 56t-40 78t-13 86.5q0 108 78 225t230 226q24 18 51.5 13t46.5 -30q15 -25 11 -52.5t-32 -45.5z" />
    <glyph glyph-name="quoteright" unicode="&#x2019;" horiz-adv-x="770" 
d="M176 1843l49.5 39.5t46.5 43.5t45.5 54.5t47.5 71.5q-54 4 -94 19.5t-66.5 39.5t-39.5 55t-13 66q0 37 14.5 71t40 60.5t60.5 42t77 15.5q55 0 96 -21.5t68 -56t40 -78t13 -86.5q0 -108 -77.5 -225t-229.5 -225q-25 -19 -52.5 -14t-45.5 30q-16 25 -12 52.5t32 45.5z" />
    <glyph glyph-name="quotedblleft" unicode="&#x201c;" horiz-adv-x="1262" 
d="M532 2298l-49.5 -39.5t-46 -43.5t-45 -54t-47.5 -72q54 -5 94 -20t66.5 -39t39.5 -55t13 -66q0 -37 -14.5 -71t-40 -60.5t-61 -42t-76.5 -15.5q-56 0 -97 21.5t-68 56t-40 78t-13 86.5q0 108 78 225t230 226q24 18 51.5 13t46.5 -30q15 -25 11 -52.5t-32 -45.5z
M1085 2298l-49.5 -39.5t-46 -43.5t-45 -54t-47.5 -72q54 -5 94 -20t66.5 -39t39.5 -55t13 -66q0 -37 -14.5 -71t-40 -60.5t-61 -42t-76.5 -15.5q-56 0 -97 21.5t-68 56t-40 78t-13 86.5q0 108 78 225t230 226q24 18 51.5 13t46.5 -30q15 -25 11 -52.5t-32 -45.5z" />
    <glyph glyph-name="quotedblright" unicode="&#x201d;" horiz-adv-x="1290" 
d="M725 1843l49.5 39.5t46 43.5t45.5 54.5t47 71.5q-54 4 -94 19.5t-66.5 39.5t-39.5 55t-13 66q0 37 14.5 71t40.5 60.5t61 42t77 15.5q55 0 96 -21.5t68 -56t40 -78t13 -86.5q0 -108 -77.5 -225t-229.5 -225q-25 -19 -52.5 -14t-45.5 30q-16 25 -12 52.5t32 45.5z
M172 1843l49.5 39.5t46 43.5t45.5 54.5t47 71.5q-54 4 -94 19.5t-66.5 39.5t-39.5 55t-13 66q0 37 14.5 71t40.5 60.5t61 42t77 15.5q55 0 96 -21.5t68 -56t40 -78t13 -86.5q0 -108 -77.5 -225t-229.5 -225q-25 -19 -52.5 -14t-45.5 30q-16 25 -12 52.5t32 45.5z" />
    <glyph glyph-name="bullet" unicode="&#x2022;" horiz-adv-x="1561" 
d="M1507 819q0 -101 -26 -194.5t-73 -174.5t-113.5 -147.5t-147.5 -113.5t-174.5 -73t-194.5 -26t-194.5 26t-174.5 73t-147.5 113.5t-113.5 147.5t-73 174.5t-26 194.5t26 194.5t73 174.5t113.5 147.5t147.5 113.5t174.5 73t194.5 26t194.5 -26t174.5 -73t147.5 -113.5
t113.5 -147.5t73 -174.5t26 -194.5z" />
    <glyph glyph-name="endash" unicode="&#x2013;" horiz-adv-x="1556" 
d="M164 594q-26 0 -48.5 9.5t-39 26t-26 39t-9.5 48.5t9.5 48.5t26 39t39 26t48.5 9.5h1229q26 0 48.5 -9.5t39 -26t26 -39t9.5 -48.5t-9.5 -48.5t-26 -39t-39 -26t-48.5 -9.5h-1229z" />
    <glyph glyph-name="emdash" unicode="&#x2014;" horiz-adv-x="3113" 
d="M164 594q-26 0 -48.5 9.5t-39 26t-26 39t-9.5 48.5t9.5 48.5t26 39t39 26t48.5 9.5h2785q26 0 48.5 -9.5t39 -26t26 -39t9.5 -48.5t-9.5 -48.5t-26 -39t-39 -26t-48.5 -9.5h-2785z" />
    <glyph glyph-name="uni00A0" unicode="&#xa0;" horiz-adv-x="1024" 
 />
    <glyph glyph-name="kokaithai" unicode="&#xe01;" horiz-adv-x="1884" 
d="M1720 115q0 -29 -11 -54t-29.5 -43t-44 -28t-54.5 -10t-54 10t-43 28t-28 43t-10 54v946q0 123 -44 223.5t-122 172t-186.5 110.5t-237.5 39q-68 0 -133.5 -17.5t-126 -48.5t-113 -73t-94.5 -91l123 -135v-1126q0 -29 -11 -54t-29.5 -43t-44 -28t-54.5 -10t-54 10t-43 28
t-28 43t-10 54v1036l-102 111q-28 30 -35.5 63.5t-3 65t16.5 57.5t24 42q67 87 148 157t172.5 119t192 75.5t205.5 26.5q190 0 349 -60t273.5 -167t178 -255t63.5 -325v-946z" />
    <glyph glyph-name="khokhaithai" unicode="&#xe02;" horiz-adv-x="1638" 
d="M307 1483q-15 -23 -37.5 -37.5t-47 -19.5t-50.5 0t-49 20t-36 37t-17 46.5t0 50.5t16 50q28 57 73 102t103 76t125.5 47.5t140.5 16.5q111 0 207.5 -41t168 -111t112.5 -163t41 -197q0 -81 -14.5 -141.5t-41.5 -107.5t-64 -83t-82.5 -68t-97 -62.5t-106.5 -66.5
q-35 -24 -61.5 -50.5t-43.5 -57.5t-25.5 -68.5t-8.5 -85.5q0 -68 27 -128t73.5 -105t110 -71.5t137.5 -26.5q72 0 135 26t109.5 70.5t73 105t26.5 129.5v1160q0 27 11 51.5t29.5 43t43 29.5t51.5 11q28 0 52.5 -11t43 -29.5t29.5 -43t11 -51.5v-1160q0 -124 -48.5 -233
t-131.5 -190t-195.5 -128t-239.5 -47q-129 0 -241.5 47t-196.5 128t-132 190t-48 233q0 84 14 148.5t39.5 115.5t62 92t82 76.5t99 69.5l112.5 72q32 20 58 40.5t44 46t28 57t10 73.5q0 54 -21 100t-56.5 80.5t-83.5 54t-102 19.5q-38 0 -70 -11t-59 -29t-49.5 -41.5
t-42.5 -49.5z" />
    <glyph glyph-name="khokhuatthai" unicode="&#xe03;" horiz-adv-x="1618" 
d="M152 1614q-41 34 -46.5 81t25.5 87q34 40 81.5 47t90.5 -27l143 -114l213 180q183 -71 280 -198.5t97 -297.5q0 -98 -23.5 -166.5t-61.5 -118.5t-87 -86t-100 -67l-100 -62t-87 -71t-61.5 -95t-23.5 -133q0 -69 26.5 -130t73.5 -106.5t110.5 -72t137.5 -26.5
q72 0 134.5 25.5t109 70t73.5 106t27 133.5v1156q0 27 10.5 51.5t29 43t43 29.5t52.5 11t52.5 -11t43 -29.5t29 -43t10.5 -51.5v-1156q0 -83 -22 -159.5t-62 -143.5t-95.5 -122t-124 -94.5t-147 -61t-163.5 -21.5q-129 0 -242 47t-196.5 128.5t-132 191t-48.5 235.5
q0 107 23.5 185t62 135.5t88 99t101 75l101 63t88 64t62 77.5t23.5 104q0 56 -21 101.5t-61 83.5l-233 -197z" />
    <glyph glyph-name="khokhwaithai" unicode="&#xe04;" horiz-adv-x="1843" 
d="M811 1061q28 0 52 -10t41.5 -27.5t27.5 -41.5t10 -52t-10 -52t-27.5 -41.5t-41.5 -27.5t-52 -10h-373v-684q0 -29 -11 -54t-29.5 -43t-44 -28t-54.5 -10t-54 10t-43 28t-28 43t-10 54v1015q0 101 27 195t76.5 175.5t118.5 148.5t153.5 115t181.5 74t201 26t200.5 -26
t181 -74t153.5 -115t118.5 -148.5t76.5 -175.5t27 -195v-1015q0 -29 -11 -54t-29.5 -43t-44 -28t-54.5 -10t-54 10t-43 28t-28 43t-10 54v1015q0 97 -38.5 182t-104.5 148.5t-154 100t-186 36.5q-103 0 -191.5 -36.5t-153.5 -100t-102 -148.5t-37 -182v-69h373z" />
    <glyph glyph-name="khokhonthai" unicode="&#xe05;" horiz-adv-x="1933" 
d="M852 1061q28 0 52 -10t41.5 -27.5t27.5 -41.5t10 -52t-10 -52t-27.5 -41.5t-41.5 -27.5t-52 -10h-414v-684q0 -29 -11 -54t-29.5 -43t-44 -28t-54.5 -10t-54 10t-43 28t-28 43t-10 54v1061q0 117 34 223t98.5 198.5t157.5 168t210 130.5l303 -270l303 270
q118 -55 211 -130.5t157 -168t97.5 -198.5t33.5 -223v-1061q0 -29 -11 -54t-29.5 -43t-44 -28t-54.5 -10t-54 10t-43 28t-28 43t-10 54v1061q0 120 -51.5 221t-140.5 172l-336 -303l-332 303q-96 -71 -146.5 -174t-50.5 -224v-110h414z" />
    <glyph glyph-name="khorakhangthai" unicode="&#xe06;" horiz-adv-x="1860" 
d="M90 1630q-40 34 -45.5 81t25.5 87q34 40 81 47.5t91 -26.5l123 -99l184 156q158 -62 239.5 -170t75.5 -244q-5 -92 -37.5 -155t-78.5 -110.5t-98 -87.5t-96.5 -85.5t-73.5 -104.5t-29 -145v-61q0 -97 41.5 -184t112 -153t163.5 -104.5t196 -38.5q101 0 185 36.5
t144.5 100t94 148.5t33.5 182v1029q0 27 11 51.5t29.5 43t43 29.5t51.5 11q28 0 52.5 -11t43 -29.5t29.5 -43t11 -51.5v-1033q0 -101 -25 -194.5t-71 -174.5t-111.5 -147.5t-146 -113.5t-175.5 -73t-199 -26q-72 0 -142.5 16t-136 45t-124.5 70t-110 92v-75q0 -29 -11 -54
t-30 -43t-44.5 -28t-54.5 -10t-54 10t-43 28t-28 43t-10 54v639q0 92 18 163t48 125.5t67.5 96t77.5 75l77.5 62t67.5 57t48 59.5t18 70q0 28 -10.5 52.5t-26.5 46.5l-188 -168z" />
    <glyph glyph-name="ngonguthai" unicode="&#xe07;" horiz-adv-x="1524" 
d="M1360 377q0 -84 -31 -157.5t-85.5 -128t-129 -85.5t-160.5 -31q-61 0 -117.5 17t-104.5 48.5t-85.5 75t-60.5 97.5l-480 1012q-11 26 -10 52.5t11.5 50.5t30 43t46.5 30q26 11 53.5 10.5t52.5 -10.5t44.5 -29t30.5 -45l471 -1012q15 -34 43.5 -51.5t74.5 -17.5
q29 0 53 10t41.5 27t27 40.5t9.5 49.5v1204h-143q-28 0 -52 10t-41.5 27.5t-27.5 41.5t-10 52t10 52.5t27.5 43t41.5 29t52 10.5h287q28 0 52 -10.5t41.5 -29t27.5 -43t10 -52.5v-1331z" />
    <glyph glyph-name="chochanthai" unicode="&#xe08;" horiz-adv-x="1683" 
d="M598 1008q-9 27 -8 54.5t11.5 51.5t29.5 42.5t45 27.5q28 10 56 8.5t52.5 -13t43.5 -31.5t28 -46l193 -561l163 454q16 41 24.5 78.5t8.5 77.5q0 92 -37 173.5t-100.5 142t-147.5 95.5t-178 35q-86 0 -156.5 -26.5t-125.5 -74t-95 -113.5t-65 -146q-9 -29 -27 -50
t-41 -32.5t-49.5 -13.5t-54.5 6q-29 9 -50.5 26t-33.5 39.5t-15 48.5t5 54q31 124 100.5 225.5t164.5 173.5t209 111t234 39q154 0 288.5 -55.5t234.5 -152t157.5 -226.5t57.5 -279q0 -65 -12 -124t-33 -118l-312 -831q-12 -34 -42 -58t-77 -24q-43 0 -73.5 24t-44.5 62z
" />
    <glyph glyph-name="chochingthai" unicode="&#xe09;" horiz-adv-x="1757" 
d="M438 659q0 -90 34.5 -168t94 -135.5t139.5 -90t171 -32.5q92 0 172.5 35t140.5 96t94.5 142.5t34.5 173.5v475q0 92 -37 173.5t-100.5 142t-147.5 96t-178 35.5q-74 0 -142 -22t-124 -59.5t-98.5 -86.5t-65.5 -103q-11 -26 -30.5 -44t-44 -27t-51 -9t-50.5 11
q-26 10 -44.5 30t-27.5 44t-9 50.5t11 51.5q40 101 114 181t166 135.5t195 84.5t201 29q101 0 195 -25.5t175.5 -72t148.5 -111.5t114.5 -144.5t73.5 -170.5t26 -189v-1040q0 -28 -10.5 -52.5t-29 -43t-43 -29t-52.5 -10.5t-52.5 10.5t-43 29t-29 43t-10.5 52.5v49
q-96 -96 -202.5 -144.5t-239.5 -48.5q-99 0 -190 24t-170 68.5t-144 107t-111.5 139t-72 165t-25.5 184.5v185h-21q-27 0 -51 10t-42 27.5t-28 41.5t-10 52t10 52.5t28 43t42 29t51 10.5h164q27 0 51 -10.5t42 -29t28 -43t10 -52.5v-316z" />
    <glyph glyph-name="chochangthai" unicode="&#xe0a;" horiz-adv-x="1651" 
d="M1458 1946q18 20 42.5 29.5t50.5 9.5t51 -10t45 -29q19 -20 28.5 -44.5t9.5 -50t-10 -50t-28 -44.5l-283 -307q25 -23 46.5 -56t37.5 -73t25.5 -85t9.5 -93v-570q0 -124 -48.5 -233.5t-131.5 -191.5t-195.5 -129.5t-239.5 -47.5q-129 0 -241.5 47.5t-196.5 129.5
t-132 191.5t-48 233.5q0 84 14 148.5t39.5 115.5t62 92t82 76.5t99 69.5l112.5 72q32 20 58 40.5t44 46t28 57t10 73.5q0 54 -20.5 101t-55.5 82t-83 55t-103 20q-39 0 -72.5 -13t-62.5 -33.5t-53 -45t-42 -47.5q-17 -22 -39 -36t-47 -19.5t-50 -1t-48 19.5t-36.5 37.5
t-17.5 47t0.5 50.5t16.5 49q23 43 68 87.5t105 80.5t131.5 59t146.5 23q92 0 174 -29t148.5 -80t114 -121t70.5 -151zM1065 1364q0 -96 -23.5 -165t-61.5 -120t-87 -87.5t-100.5 -68.5l-100.5 -63.5t-87 -70.5t-61.5 -91t-23.5 -125q0 -69 27 -131t73.5 -108.5t110 -73.5
t137.5 -27q72 0 135 27t109.5 73.5t73 108.5t26.5 131v570q0 73 -34.5 143t-116.5 144q0 -16 2 -33.5t2 -32.5z" />
    <glyph glyph-name="sosothai" unicode="&#xe0b;" horiz-adv-x="1610" 
d="M426 1692l221 188q149 -59 239.5 -156t121.5 -221l409 447q18 20 42.5 29.5t50.5 9.5t51 -10t45 -29q19 -19 28.5 -43.5t9 -50t-10 -50.5t-27.5 -45l-283 -307q25 -23 46.5 -56t37.5 -73t25.5 -85t9.5 -93v-574q0 -124 -48.5 -233.5t-131.5 -191.5t-195.5 -129.5
t-239.5 -47.5q-129 0 -241.5 47.5t-196.5 129.5t-132 191.5t-48 233.5q0 126 30.5 211t85 148t129.5 115l164 112q33 23 59 45.5t44 49t27.5 58t9.5 72.5q0 56 -21 102t-61 83l-242 -209l-315 270q-40 34 -46 81t25 87q34 40 81.5 47.5t90.5 -26.5zM1024 1384
q0 -97 -23.5 -167t-61.5 -122.5t-87 -91t-100.5 -72l-100.5 -66.5t-87 -73.5t-61.5 -93t-23.5 -125.5q0 -69 27 -131t73.5 -108.5t110 -73.5t137.5 -27q72 0 135 27t109.5 73.5t73 108.5t26.5 131v570q0 73 -34.5 140.5t-116.5 141.5q3 -12 3.5 -21.5t0.5 -19.5z" />
    <glyph glyph-name="chochoethai" unicode="&#xe0c;" horiz-adv-x="3056" 
d="M868 1872q192 0 353.5 -60.5t279 -168.5t183 -256.5t65.5 -325.5v-270q0 -82 22 -155t59 -135t85.5 -112t102.5 -84.5t109 -53t105 -18.5q86 0 155.5 25.5t119 76.5t76 128t26.5 180v1086q0 29 11 54.5t29.5 44t44 29.5t54.5 11t54.5 -11t44.5 -29.5t30 -44t11 -54.5
v-1086q0 -164 -50 -289.5t-138 -210.5t-208 -128.5t-260 -43.5q-63 0 -128 17.5t-127 48t-119 71.5t-105 89v-74q0 -29 -11.5 -55t-31 -45.5t-45.5 -31t-55 -11.5t-54.5 11.5t-44.5 31t-30 45.5t-11 55v938q0 123 -44 223.5t-123.5 172t-190 110.5t-244.5 39
q-69 0 -136.5 -17.5t-129 -48.5t-116 -73t-97.5 -91l127 -135l-1 -975h157q27 0 51.5 -10.5t43 -29t29.5 -43t11 -52.5t-11 -52t-29.5 -41.5t-43 -27.5t-51.5 -10h-299q-27 0 -51.5 10t-43 27.5t-29.5 41.5t-11 52v1023l-102 111q-28 30 -35.5 63.5t-3 65t16.5 57.5t24 42
q67 87 150 157.5t176.5 119.5t196 75.5t207.5 26.5z" />
    <glyph glyph-name="dochadathai" unicode="&#xe0e;" horiz-adv-x="1921" 
d="M274 1148l-102 113q-28 30 -35.5 63.5t-3 65t16.5 57.5t24 42q67 87 148.5 157.5t173 119.5t192 75.5t205.5 26.5q189 0 347 -60t272 -167t177.5 -255t63.5 -325l4 -1331l-438 -426q-72 54 -140 92.5t-134 63t-132 36.5t-135 12q-68 0 -135.5 -13.5t-130 -36t-117 -52
t-96.5 -61.5q-21 -17 -47 -20t-50.5 4.5t-46.5 24.5t-36 40q-14 24 -16 49t5.5 48.5t23 44.5t36.5 38q43 35 109 70.5t146.5 63.5t171.5 45.5t183 17.5q140 0 265 -31t243 -96l197 192v1225q0 121 -44 220.5t-122 171t-186.5 110.5t-237.5 39q-68 0 -133.5 -17t-126.5 -47.5
t-114.5 -72.5t-96.5 -93l127 -131v-1110q0 -28 -11 -52t-29.5 -41.5t-43 -27.5t-51.5 -10h-201q-28 0 -52.5 10t-43 27.5t-29 41.5t-10.5 52t10.5 52.5t29 43t43 29t52.5 10.5h61v882z" />
    <glyph glyph-name="topatakthai" unicode="&#xe0f;" horiz-adv-x="1921" 
d="M893 1868q127 0 240.5 -27.5t209.5 -78t172.5 -123t130.5 -163t82.5 -196t28.5 -223.5v-1319l-479 -443l-328 291l-323 -291l-430 398q-19 18 -28.5 41t-9.5 47t9.5 47t28.5 41q18 18 41 27.5t47.5 9.5t48 -9.5t43.5 -27.5l254 -229l319 286l320 -286l213 188v1233
q0 120 -44 219.5t-122 171t-186.5 111t-237.5 39.5q-68 0 -133.5 -17t-126.5 -47.5t-114.5 -72.5t-96.5 -93l127 -131v-1110q0 -28 -11 -52t-29.5 -41.5t-43 -27.5t-51.5 -10h-201q-28 0 -52.5 10t-43 27.5t-29 41.5t-10.5 52t10.5 52.5t29 43t43 29t52.5 10.5h61v882
l-102 113q-28 30 -35.5 63.5t-3 65t16.5 57.5t24 42q67 87 148.5 157.5t173 119.5t192 75.5t205.5 26.5z" />
    <glyph glyph-name="thothanthai" unicode="&#xe10;" horiz-adv-x="1683" 
d="M672 -422l307 287l299 -279l53 45v136q0 26 10 49t27.5 40.5t40.5 27.5t49 10t49 -10t40.5 -27.5t27.5 -40.5t10 -49v-226l-307 -282l-303 286l-307 -286l-418 401q-31 34 -32.5 78t32.5 78q17 17 37.5 25.5t42.5 9t42.5 -7.5t37.5 -23zM1163 78q-12 -34 -42 -58t-77 -24
q-43 0 -73 24.5t-45 61.5l-328 926q-9 27 -8 54.5t11.5 51.5t29.5 42.5t45 27.5q28 10 56 8.5t52.5 -13t43.5 -31.5t28 -46l193 -561l168 450q14 39 21 79.5t7 80.5q0 92 -36 173.5t-98.5 142t-147 95.5t-181.5 35q-86 0 -159 -28t-129.5 -76.5t-96 -114.5t-57.5 -141
q-8 -31 -25.5 -51.5t-40.5 -32t-50.5 -13t-55.5 6.5q-29 9 -50 26t-33 39.5t-14.5 48.5t3.5 54q29 121 98.5 222t165 173.5t210 113t234.5 40.5q109 0 199 -26t174 -73l148 164q18 22 42 35t49.5 16.5t51.5 -3t49 -23.5q23 -18 37 -43.5t17.5 -52.5t-3.5 -53.5t-26 -47.5
l-152 -172q71 -96 111.5 -204.5t40.5 -229.5q0 -62 -12 -123t-33 -123z" />
    <glyph glyph-name="thonangmonthothai" unicode="&#xe11;" horiz-adv-x="1839" 
d="M197 729q0 107 24 189t60.5 146.5t79 115.5l79 96.5t60.5 90t24 95.5q0 31 -7 54t-25 45l-177 -168l-282 245q-40 34 -46 81t25 87q34 41 81.5 48t90.5 -27l123 -103l172 152q155 -62 233.5 -163.5t78.5 -237.5q0 -78 -24.5 -141t-60.5 -118.5t-79 -107t-79 -106.5
t-60.5 -117.5t-24.5 -139.5v-127l721 1242q120 -12 211 -58t152.5 -116.5t92.5 -162t31 -196.5v-1212q0 -28 -10.5 -52.5t-29 -43t-43 -29t-52.5 -10.5t-52.5 10.5t-43 29t-29 43t-10.5 52.5v1228q0 72 -26.5 128t-63.5 90l-880 -1509q-17 -28 -45 -45t-63 -17q-26 0 -49 10
t-40 27t-27 40t-10 49v613z" />
    <glyph glyph-name="thophuthaothai" unicode="&#xe12;" horiz-adv-x="3117" 
d="M1139 74l-57.5 -34.5t-64.5 -32t-77 -23.5t-96 -9q-123 0 -226 33.5t-186 93.5t-145.5 145t-104.5 187t-63 219.5t-21 243.5q0 196 46 356t129.5 283.5t199.5 210t256 137.5l283 -229l282 225q117 -43 213 -106.5t164.5 -147.5t106 -187.5t37.5 -226.5v-442
q0 -77 22.5 -146.5t60.5 -129t87 -108t102 -82.5t106.5 -52.5t99.5 -18.5q86 0 156 25.5t119.5 76.5t76 128t26.5 180v1086q0 29 10.5 54.5t29.5 44t44.5 29.5t54.5 11t54.5 -11t44 -29.5t29.5 -44t11 -54.5v-1086q0 -164 -50 -289t-138 -209t-208 -127t-260 -43
q-62 0 -127.5 19t-128.5 52t-120.5 76.5t-101.5 92.5v-92q0 -29 -11.5 -55t-31 -45.5t-46 -31t-55.5 -11.5t-54.5 11.5t-44.5 31t-29.5 45.5t-10.5 55v1081q0 121 -53.5 211.5t-143.5 149.5l-323 -258l-324 266q-66 -42 -123 -102.5t-98.5 -143.5t-65.5 -190t-24 -240
q0 -141 33 -261t94 -207.5t147.5 -137t192.5 -49.5q26 0 50 6t45.5 16t39 21t29.5 22q21 18 47 21.5t50.5 -4.5t46.5 -25.5t36 -40.5q14 -24 17 -50t-3.5 -51t-22.5 -46.5t-40 -36.5z" />
    <glyph glyph-name="nonenthai" unicode="&#xe13;" horiz-adv-x="3035" 
d="M1753 643q0 -104 29.5 -181t81.5 -128t122.5 -76t151.5 -25t162 39t145 106.5t104 157.5t40 193v1000q0 29 10.5 54.5t29.5 44t44.5 29.5t54.5 11t54.5 -11t44 -29.5t29.5 -44t11 -54.5v-1610q0 -29 -11 -54.5t-29.5 -44.5t-44 -29.5t-54.5 -10.5t-54.5 10.5t-44.5 29.5
t-29.5 44.5t-10.5 54.5v53q-189 -201 -451 -201q-141 0 -262.5 43.5t-210.5 128.5t-139.5 210.5t-50.5 289.5v418q0 123 -44.5 223t-125 170.5t-192 109t-245.5 38.5q-69 0 -136.5 -17t-129 -47t-116 -71.5t-97.5 -90.5l127 -135v-975h156q27 0 51.5 -10.5t43 -29t29.5 -43
t11 -52.5t-11 -52t-29.5 -41.5t-43 -27.5t-51.5 -10h-299q-27 0 -51.5 10t-43 27.5t-29.5 41.5t-11 52v1020l-102 111q-28 30 -35.5 63.5t-3 65t16.5 57.5t24 42q67 87 150 157.5t176.5 119.5t196 75.5t207.5 26.5q195 0 358 -60t280 -167.5t182 -255.5t65 -325v-418z" />
    <glyph glyph-name="dodekthai" unicode="&#xe14;" horiz-adv-x="1933" 
d="M1143 82q-23 -19 -52.5 -37t-66.5 -32.5t-81.5 -23.5t-98.5 -9q-185 0 -324.5 70t-233 191.5t-141 286t-47.5 353.5q0 173 35.5 313.5t98.5 250t148.5 189.5t184.5 132t208 77t218 25q97 0 192.5 -22t182 -63.5t160.5 -103t128 -140t84.5 -174t30.5 -206.5v-1040
q0 -29 -11 -54.5t-29.5 -44.5t-44 -29.5t-54.5 -10.5t-54.5 10.5t-44.5 29.5t-29.5 44.5t-10.5 54.5v1032q0 106 -44 190.5t-116 143t-165 90t-191 31.5q-73 0 -145.5 -18t-139 -56t-123.5 -96.5t-99.5 -139t-66.5 -184t-24 -231.5q0 -137 33 -253.5t94 -201t147.5 -132.5
t192.5 -48q26 0 50 6.5t45.5 16t39 22t29.5 24.5q21 19 47 22.5t50.5 -5t46.5 -26t36 -40.5q28 -49 14 -98.5t-59 -85.5z" />
    <glyph glyph-name="totaothai" unicode="&#xe15;" horiz-adv-x="1946" 
d="M1126 86q-76 -54 -148 -78t-147 -24q-180 0 -317 70t-229.5 192t-139.5 287t-47 356q0 198 45.5 358.5t127 284t195.5 209.5t251 135l278 -229l279 229q115 -43 208 -107.5t159 -149t101.5 -188.5t35.5 -227v-1089q0 -28 -11 -52.5t-29.5 -43t-43 -29t-52.5 -10.5
q-27 0 -51.5 10.5t-43 29t-29.5 43t-11 52.5v1081q0 121 -53 213.5t-143 151.5l-316 -258l-319 262q-63 -42 -118 -104.5t-96.5 -146.5t-65 -190t-23.5 -235q0 -138 32.5 -256t92.5 -204t144.5 -134.5t188.5 -48.5q23 0 46.5 6.5t45 16.5t40 23t32.5 27q22 19 47.5 22.5
t50.5 -5t47 -26t36 -40.5q27 -49 12.5 -99.5t-62.5 -84.5z" />
    <glyph glyph-name="thothungthai" unicode="&#xe16;" horiz-adv-x="1884" 
d="M1720 115q0 -29 -11 -54t-29.5 -43t-44 -28t-54.5 -10t-54 10t-43 28t-28 43t-10 54v946q0 123 -44 223.5t-122 172t-186.5 110.5t-237.5 39q-68 0 -133.5 -17.5t-126.5 -48.5t-114.5 -73t-96.5 -91l123 -135v-975h164q27 0 51.5 -10.5t43 -29t29.5 -43t11 -52.5t-11 -52
t-29.5 -41.5t-43 -27.5t-51.5 -10h-299q-27 0 -51.5 10t-43 27.5t-29.5 41.5t-11 52v1020l-102 111q-28 30 -35.5 63.5t-3 65t16.5 57.5t24 42q67 87 148 157t172.5 119t192 75.5t205.5 26.5q190 0 349 -60t273.5 -167t178 -255t63.5 -325v-946z" />
    <glyph glyph-name="thothahanthai" unicode="&#xe17;" horiz-adv-x="1843" 
d="M164 1729q0 29 10 53.5t28 42.5t43 28.5t54 10.5t54.5 -10.5t44 -28.5t29.5 -42.5t11 -53.5v-123q57 63 123 113t136.5 85t144 53.5t145.5 18.5q87 0 172 -19t162 -57t142.5 -94t113.5 -131t75 -167.5t27 -203.5v-1089q0 -29 -11 -54t-29.5 -43t-44 -28t-54.5 -10t-54 10
t-43 28t-28 43t-10 54v1089q0 98 -35.5 174t-94 127.5t-135 78t-157.5 26.5q-66 0 -131.5 -19.5t-126 -55t-113 -85.5t-91.5 -110t-61 -128.5t-22 -142.5v-954q0 -29 -11 -54t-29.5 -43t-44 -28t-54.5 -10t-54 10t-43 28t-28 43t-10 54v1614z" />
    <glyph glyph-name="thothongthai" unicode="&#xe18;" horiz-adv-x="1745" 
d="M750 987l-153.5 33.5t-149.5 37.5t-134.5 50.5t-109 74.5t-72.5 108t-25 151q3 77 35.5 140t86 112.5t125 86t152 60.5t167.5 35.5t172 11.5q49 0 105.5 -5t116 -16t118.5 -29t113.5 -45t101 -63t80.5 -83q21 -29 32.5 -60t11.5 -59.5t-12 -54t-36 -43.5
q-53 -35 -105 -16.5t-104 77.5q-37 40 -87.5 66.5t-107 42.5t-115 23t-112.5 7q-86 0 -164 -13.5t-137 -39t-94 -61t-35 -78.5q0 -63 39.5 -98t104 -55.5t145.5 -34t165 -34.5l156 -39.5t162.5 -51.5t154 -72t129.5 -101.5t89.5 -139.5t33.5 -185q0 -152 -58.5 -273
t-158.5 -205t-232.5 -129t-279.5 -45t-279 45t-231 129t-157 205t-58 273v250q0 27 11 51.5t29.5 43t43 29.5t51.5 11q28 0 52.5 -11t43 -29.5t29.5 -43t11 -51.5v-250q0 -88 34 -159t94.5 -121.5t144 -77.5t181.5 -27q100 0 183.5 27t144 77.5t94 121.5t33.5 159
q0 67 -25.5 115.5t-68.5 83.5t-100 59.5t-120.5 42t-129 31.5z" />
    <glyph glyph-name="nonuthai" unicode="&#xe19;" horiz-adv-x="1843" 
d="M1405 1729q0 29 10 53.5t28 42.5t43 28.5t54 10.5t54.5 -10.5t44 -28.5t29.5 -42.5t11 -53.5v-1614q0 -29 -11 -54t-29.5 -43t-44 -28t-54.5 -10t-54 10t-43 28t-28 43t-10 54v118q-62 -70 -129.5 -120t-137.5 -81.5t-142 -46t-144 -14.5q-129 0 -252.5 43t-220.5 127.5
t-156 210t-59 291.5v1086q0 29 10 53.5t28 42.5t43 28.5t54 10.5t54.5 -10.5t44 -28.5t29.5 -42.5t11 -53.5v-1086q0 -100 35 -176.5t93.5 -128.5t134.5 -78.5t159 -26.5q66 0 132.5 19t127 53.5t112.5 83t90.5 108.5t60.5 130t22 147v955z" />
    <glyph glyph-name="bobaimaithai" unicode="&#xe1a;" horiz-adv-x="1843" 
d="M1405 1729q0 29 10 53.5t28 42.5t43 28.5t54 10.5t54.5 -10.5t44 -28.5t29.5 -42.5t11 -53.5v-1016q0 -103 -27 -197.5t-76.5 -176.5t-118.5 -149t-153.5 -115t-181 -74t-200.5 -26q-105 0 -201.5 26t-181 74t-153.5 115t-118.5 149t-76.5 177t-27 197v1016q0 29 10 53.5
t28 42.5t43 28.5t54 10.5t54.5 -10.5t44 -28.5t29.5 -42.5t11 -53.5v-1016q0 -97 37 -182.5t102 -149.5t153.5 -101.5t191.5 -37.5q98 0 186 37.5t154 101.5t104.5 149.5t38.5 182.5v1016z" />
    <glyph glyph-name="poplathai" unicode="&#xe1b;" horiz-adv-x="1843" 
d="M1405 2474q0 29 10 54t28 43t43 28t54 10t54.5 -10t44 -28t29.5 -43t11 -54v-1757q0 -103 -27 -197t-76.5 -176t-118.5 -149t-153.5 -115t-181 -74t-200.5 -26q-105 0 -201.5 26t-181 74t-153.5 115t-118.5 149t-76.5 176.5t-27 196.5v1012q0 29 10 53.5t28 42.5t43 28.5
t54 10.5t54.5 -10.5t44 -28.5t29.5 -42.5t11 -53.5v-1012q0 -97 37 -182.5t102 -149.5t153.5 -101.5t191.5 -37.5q98 0 186 37.5t154 101.5t104.5 149.5t38.5 182.5v1757z" />
    <glyph glyph-name="phophungthai" unicode="&#xe1c;" horiz-adv-x="2081" 
d="M909 1585q-83 -5 -167 -37t-151.5 -90t-110 -140.5t-42.5 -187.5v-659q0 -48 18 -89t49.5 -71t74.5 -47.5t92 -17.5q48 0 90 17.5t74 47.5t50.5 71t18.5 89v614q0 28 11 52.5t29.5 43t43 29.5t51.5 11q28 0 52.5 -11t43 -29.5t29.5 -43t11 -52.5v-614q0 -48 18.5 -89
t50.5 -71t74 -47.5t90 -17.5q49 0 91.5 17.5t74 47.5t49.5 71t18 89v1258q0 29 10.5 53.5t28.5 42.5t43 28.5t54 10.5t54.5 -10.5t44 -28.5t29.5 -42.5t11 -53.5v-1258q0 -101 -40 -190t-109 -155t-161.5 -104t-197.5 -38q-219 0 -369 155q-74 -77 -165.5 -116t-202.5 -39
q-105 0 -197.5 38t-161.5 104t-109 155t-40 190v659q0 110 32.5 206.5t87 177.5t126 144t150 107t159 67t153.5 23q30 0 57.5 -8t49 -23.5t36 -37.5t17.5 -49q4 -29 -1 -56t-20.5 -48t-40.5 -34t-61 -14z" />
    <glyph glyph-name="fofathai" unicode="&#xe1d;" horiz-adv-x="2081" 
d="M909 1585q-83 -5 -167 -37t-151.5 -90t-110 -140.5t-42.5 -187.5v-659q0 -48 18 -89t49.5 -71t74.5 -47.5t92 -17.5q48 0 90 17.5t74 47.5t50.5 71t18.5 89v614q0 28 11 52.5t29.5 43t43 29.5t51.5 11q28 0 52.5 -11t43 -29.5t29.5 -43t11 -52.5v-614q0 -48 18.5 -89
t50.5 -71t74 -47.5t90 -17.5q49 0 91.5 17.5t74 47.5t49.5 71t18 89v2003q0 29 10.5 54t28.5 43t43 28t54 10t54.5 -10t44 -28t29.5 -43t11 -54v-2003q0 -101 -40 -190t-109 -155t-161.5 -104t-197.5 -38q-219 0 -369 155q-74 -77 -165.5 -116t-202.5 -39q-105 0 -197.5 38
t-161.5 104t-109 155t-40 190v659q0 112 32 208t86.5 174.5t126 140t150 104.5t159.5 68t154 30q29 2 56.5 -6t49.5 -23.5t36.5 -38.5t17.5 -50q4 -29 -1 -56t-20.5 -48t-40.5 -34t-61 -14z" />
    <glyph glyph-name="phophanthai" unicode="&#xe1e;" horiz-adv-x="2154" 
d="M1720 1729q0 27 11 51.5t29.5 43t43 29.5t51.5 11q28 0 52.5 -11t43 -29.5t29.5 -43t11 -51.5v-1237q0 -105 -41 -198t-112.5 -162.5t-167 -110.5t-204.5 -41q-120 0 -219 45t-170 122q-71 -77 -169.5 -122t-219.5 -45q-109 0 -204.5 41t-166.5 110.5t-112 162.5t-41 198
v1237q0 27 10.5 51.5t29 43t43 29.5t52.5 11t52.5 -11t43 -29.5t29 -43t10.5 -51.5v-1237q0 -51 19.5 -96t54 -78t80.5 -52.5t100 -19.5t100 19.5t80.5 52.5t54 78t19.5 96v1237q0 27 11 51.5t29.5 43t43 29.5t51.5 11q28 0 52.5 -11t43 -29.5t29 -43t10.5 -51.5v-1237
q0 -51 19.5 -96t54 -78t80.5 -52.5t100 -19.5t100.5 19.5t80.5 52.5t53.5 78t19.5 96v1237z" />
    <glyph glyph-name="fofanthai" unicode="&#xe1f;" horiz-adv-x="2159" 
d="M164 1729q0 27 10.5 51.5t29 43t43 29.5t52.5 11t52.5 -11t43 -29.5t29 -43t10.5 -51.5v-1237q0 -51 19.5 -96t54 -78t80.5 -52.5t100 -19.5t100 19.5t80.5 52.5t54 78t19.5 96v1237q0 27 11 51.5t29.5 43t43 29.5t51.5 11q28 0 52.5 -11t43 -29.5t29 -43t10.5 -51.5
v-1237q0 -51 19.5 -96t54 -78t80.5 -52.5t100 -19.5t100.5 19.5t80.5 52.5t53.5 78t19.5 96v1982q0 28 11 52.5t29.5 43t43 29t51.5 10.5q28 0 52.5 -10.5t43 -29t29.5 -43t11 -52.5v-1982q0 -105 -41 -198t-112.5 -162.5t-167 -110.5t-204.5 -41q-114 0 -214 45t-175 122
q-71 -77 -169.5 -122t-219.5 -45q-108 0 -203 41t-166.5 110.5t-113 162.5t-41.5 198v1237z" />
    <glyph glyph-name="phosamphaothai" unicode="&#xe20;" horiz-adv-x="1921" 
d="M274 1148l-102 113q-28 30 -35.5 63.5t-3 65t16.5 57.5t24 42q67 87 148.5 157.5t173 119.5t192 75.5t205.5 26.5q190 0 349 -60t273.5 -167t178 -255t63.5 -325v-946q0 -29 -11 -54t-29.5 -43t-44 -28t-54.5 -10t-54 10t-43 28t-28 43t-10 54v946q0 123 -44 223.5
t-122 172t-186.5 110.5t-237.5 39q-68 0 -133.5 -17.5t-126.5 -48.5t-114.5 -73t-96.5 -91l127 -135v-1110q0 -28 -11 -52t-29.5 -41.5t-43 -27.5t-51.5 -10h-201q-28 0 -52.5 10t-43 27.5t-29 41.5t-10.5 52t10.5 52.5t29 43t43 29t52.5 10.5h61v882z" />
    <glyph glyph-name="momathai" unicode="&#xe21;" horiz-adv-x="1843" 
d="M438 115q0 -29 -11 -54t-29.5 -43t-44 -28t-54.5 -10t-54 10t-43 28t-28 43t-10 54v1614q0 29 10 53.5t28 42.5t43 28.5t54 10.5t54.5 -10.5t44 -28.5t29.5 -42.5t11 -53.5v-955q0 -77 22 -147t61 -130t91.5 -108.5t113 -83t126 -53.5t131.5 -19q81 0 157.5 26.5
t135 78.5t94 128.5t35.5 176.5v1086q0 29 10 53.5t28 42.5t43 28.5t54 10.5t54.5 -10.5t44 -28.5t29.5 -42.5t11 -53.5v-1086q0 -111 -27 -203.5t-75 -167t-113.5 -131t-142.5 -94.5t-162 -57t-172 -19q-72 0 -144.5 18t-142 52t-136 82.5t-126.5 109.5v-118z" />
    <glyph glyph-name="yoyakthai" unicode="&#xe22;" horiz-adv-x="1823" 
d="M741 1552q-21 16 -53.5 33t-73.5 17t-77 -14.5t-62.5 -40.5t-41.5 -61t-15 -77q0 -78 69 -147l299 -299l-368 -369q20 -78 64.5 -143.5t107 -113t140 -73.5t163.5 -26q103 0 192.5 38t156 103t104.5 152.5t38 185.5v1012q0 29 10.5 53.5t28.5 42.5t43 28.5t54 10.5
t54.5 -10.5t44 -28.5t29.5 -42.5t11 -53.5v-1012q0 -103 -27 -197.5t-77 -177t-119.5 -150t-154.5 -116t-183.5 -75t-204.5 -26.5q-100 0 -193.5 24t-176 69t-151.5 109t-121 143.5t-84 173t-40 198.5l294 275l-109.5 101.5t-87 96t-57 108t-20.5 136.5q0 94 36.5 177.5
t100.5 146t150 99t184 36.5q48 0 89 -8.5t76.5 -23t65.5 -33t56 -38.5q22 -17 35 -40.5t16.5 -49t-3 -51.5t-23.5 -47t-40.5 -34t-49 -16.5t-51.5 2.5t-48 23z" />
    <glyph glyph-name="roruathai" unicode="&#xe23;" horiz-adv-x="1671" 
d="M1511 504q0 -88 -26.5 -161t-73.5 -131.5t-111.5 -101.5t-141 -72t-162 -43.5t-173.5 -14.5q-80 0 -170.5 12.5t-177.5 40t-162.5 73t-124.5 111.5q-49 62 -46 119t59 94q55 34 105 18t100 -75q30 -37 79 -63t105 -42t114 -23t107 -7q89 0 163.5 20.5t128.5 55.5t84 81
t30 97q0 73 -29.5 124t-80.5 87t-118.5 60.5t-143.5 45.5l-156.5 42t-156.5 49t-143.5 67.5t-118.5 96.5t-80.5 136.5t-29.5 188.5q0 91 28 163t76.5 127t114 94t139.5 63.5t153 36t156 11.5q81 0 164.5 -11.5t161 -39.5t145.5 -73.5t119 -112.5q44 -62 39.5 -119t-59.5 -94
q-50 -34 -103 -19.5t-102 76.5q-31 40 -70.5 66.5t-86 42.5t-99 23t-109.5 7q-71 0 -138.5 -13t-120 -41.5t-85 -74.5t-32.5 -112q0 -68 29.5 -115.5t80.5 -81t119 -57.5t144 -44.5l157 -41.5t157 -49.5t144 -68.5t119 -98.5t80.5 -139t29.5 -189.5z" />
    <glyph glyph-name="ruthai" unicode="&#xe24;" horiz-adv-x="1884" 
d="M1720 -585q0 -29 -11 -54t-29.5 -43t-44 -28t-54.5 -10t-54 10t-43 28t-28 43t-10 54v1646q0 123 -44 223.5t-122 172t-186.5 110.5t-237.5 39q-68 0 -133.5 -17.5t-126.5 -48.5t-114.5 -73t-96.5 -91l123 -135v-975h164q27 0 51.5 -10.5t43 -29t29.5 -43t11 -52.5
t-11 -52t-29.5 -41.5t-43 -27.5t-51.5 -10h-299q-27 0 -51.5 10t-43 27.5t-29.5 41.5t-11 52v1020l-102 111q-28 30 -35.5 63.5t-3 65t16.5 57.5t24 42q67 87 148 157t172.5 119t192 75.5t205.5 26.5q190 0 349 -60t273.5 -167t178 -255t63.5 -325v-1646z" />
    <glyph glyph-name="lolingthai" unicode="&#xe25;" horiz-adv-x="1806" 
d="M414 1270q-13 -59 -59 -87t-105 -16q-56 13 -84.5 58t-18.5 102q18 101 84 197.5t165 172t223 121.5t258 46q90 0 181.5 -19t176.5 -57.5t159.5 -96t129.5 -134t86.5 -172t31.5 -209.5v-1061q0 -28 -10.5 -52.5t-29 -43t-43 -29t-52.5 -10.5q-27 0 -51.5 10.5t-43 29
t-29.5 43t-11 52.5v393q0 106 -41 186.5t-109 134.5t-155.5 81.5t-181.5 27.5q-92 0 -177.5 -27.5t-150.5 -81.5t-104 -134.5t-39 -186.5q0 -49 10.5 -91t28.5 -78.5t42 -68.5t50 -61q20 -20 30 -45t10.5 -51t-9 -51.5t-27.5 -45.5t-42.5 -30t-50 -10t-51 10t-45.5 30
q-48 45 -88.5 98t-70 114.5t-46 131.5t-16.5 148q0 109 29 203t80.5 171.5t122 138t153.5 102.5t175 63.5t186 21.5q127 0 251.5 -38t235.5 -121v127q0 104 -43 183t-112.5 132t-158.5 79.5t-181 26.5q-86 0 -162 -21.5t-136 -63.5t-102.5 -103t-62.5 -139z" />
    <glyph glyph-name="luthai" unicode="&#xe26;" horiz-adv-x="1921" 
d="M274 1148l-102 113q-28 30 -35.5 63.5t-3 65t16.5 57.5t24 42q67 87 148.5 157.5t173 119.5t192 75.5t205.5 26.5q190 0 349 -60t273.5 -167t178 -255t63.5 -325v-1647q0 -29 -11 -54t-29.5 -43t-44 -28t-54.5 -10t-54 10t-43 28t-28 43t-10 54v1647q0 123 -44 223.5
t-122 172t-186.5 110.5t-237.5 39q-68 0 -133.5 -17.5t-126.5 -48.5t-114.5 -73t-96.5 -91l127 -135v-1110q0 -28 -11 -52t-29.5 -41.5t-43 -27.5t-51.5 -10h-201q-28 0 -52.5 10t-43 27.5t-29 41.5t-10.5 52t10.5 52.5t29 43t43 29t52.5 10.5h61v882z" />
    <glyph glyph-name="wowaenthai" unicode="&#xe27;" horiz-adv-x="1655" 
d="M303 1434q-21 -19 -45.5 -27t-49 -6t-48 13.5t-41.5 31.5q-37 40 -31.5 88.5t39.5 91.5q54 61 120 106.5t140 75.5t153.5 45t159.5 15q129 0 241 -38.5t204.5 -105t164.5 -157.5t121.5 -196t75 -220t25.5 -229q0 -125 -27.5 -244t-79.5 -224.5t-126 -194.5t-166.5 -153
t-201.5 -99.5t-231 -35.5q-80 0 -162 17.5t-158.5 49.5t-142.5 78.5t-114 104.5q-17 20 -26.5 42.5t-10 46t7 46t25.5 41.5t41 29.5t47.5 12t47.5 -6.5t40 -26q38 -40 86 -71.5t100 -53t106 -32.5t105 -11q91 0 168 28.5t139.5 78.5t110 116.5t79.5 142.5t48 157.5t16 160.5
q0 85 -17 168.5t-50 159t-81 140t-110 111.5t-137 74t-162 27q-105 0 -206.5 -45t-186.5 -123z" />
    <glyph glyph-name="sosalathai" unicode="&#xe28;" horiz-adv-x="1843" 
d="M1520 1593q74 -96 116.5 -208.5t42.5 -245.5v-1024q0 -29 -11 -54t-29.5 -43t-44 -28t-54.5 -10t-54 10t-43 28t-28 43t-10 54v1024q0 97 -37 182t-102 148.5t-153 100t-191 36.5q-99 0 -187 -36.5t-154 -100t-104.5 -148.5t-38.5 -182v-70h373q28 0 52 -10t41.5 -27.5
t27.5 -41.5t10 -52t-10 -52t-27.5 -41.5t-41.5 -27.5t-52 -10h-373v-692q0 -29 -11 -54t-29.5 -43t-44 -28t-54.5 -10t-54 10t-43 28t-28 43t-10 54v1024q0 101 27 195t76.5 175t118.5 148t153.5 115t181.5 74t201 26q108 0 203 -26t182 -72l143 155q20 22 45 33.5
t51.5 12.5t52.5 -8.5t48 -29.5q21 -20 32.5 -45t12.5 -51.5t-8 -52.5t-29 -47z" />
    <glyph glyph-name="sorusithai" unicode="&#xe29;" horiz-adv-x="1847" 
d="M1741 1208q28 0 52 -10t41.5 -27.5t27.5 -41.5t10 -52q0 -27 -10 -51t-27.5 -42t-41.5 -28t-52 -10h-62v-233q0 -103 -27 -197.5t-76.5 -176.5t-118.5 -149t-153.5 -115t-181 -74t-200.5 -26q-105 0 -201.5 26t-181 74t-153.5 115t-118.5 149t-76.5 177t-27 197v1016
q0 29 10 53.5t28 42.5t43 28.5t54 10.5t54.5 -10.5t44 -28.5t29.5 -42.5t11 -53.5v-1016q0 -98 37 -184t102 -150t153.5 -100.5t191.5 -36.5q98 0 186 36.5t154 100.5t104.5 150t38.5 184v233h-229q-62 0 -114.5 22t-90.5 60.5t-60 89t-22 107.5v57q0 28 10 52t27.5 41.5
t41.5 27.5t52 10t52 -10t41.5 -27.5t27.5 -41.5t10 -52v-49q0 -25 25 -25h229v521q0 29 10 53.5t28 42.5t43 28.5t54 10.5t54.5 -10.5t44 -28.5t29.5 -42.5t11 -53.5v-521h62z" />
    <glyph glyph-name="sosuathai" unicode="&#xe2a;" horiz-adv-x="1806" 
d="M1446 1933q20 22 45 33.5t51.5 12.5t52.5 -8t47 -29q22 -20 33.5 -45.5t12.5 -52t-8 -52.5t-29 -47l-144 -160q68 -83 101.5 -186t33.5 -223v-1061q0 -28 -10.5 -52.5t-29 -43t-43 -29t-52.5 -10.5q-27 0 -51.5 10.5t-43 29t-29.5 43t-11 52.5v397q0 106 -41 186
t-109 133t-155.5 80t-181.5 27t-180 -27.5t-151.5 -81.5t-104.5 -134.5t-39 -186.5q0 -99 38 -172.5t97 -126.5q20 -20 30 -45t10.5 -51t-9 -51.5t-27.5 -45.5t-42.5 -30t-50 -10t-51 10t-45.5 30q-48 45 -88.5 98t-70 115t-46 132.5t-16.5 150.5q0 106 29 199t80.5 170.5
t122 138t153.5 102.5t175 64t186 22q127 0 251.5 -36t235.5 -119v123q0 103 -43 182.5t-112.5 133.5t-158.5 82t-181 28q-86 0 -162 -22.5t-136 -65t-102.5 -104.5t-62.5 -140q-16 -59 -60.5 -87t-103.5 -16q-28 6 -49.5 21.5t-35 37t-18.5 47.5t0 54q13 71 47.5 139t86 128
t117.5 110.5t143 86.5t162 56.5t174 20.5q108 0 211 -25t202 -78z" />
    <glyph glyph-name="hohipthai" unicode="&#xe2b;" horiz-adv-x="1888" 
d="M1458 1823q23 17 48 23.5t49 3.5t45 -16.5t38 -35.5q16 -22 23 -47t4 -49.5t-15.5 -46.5t-35.5 -37l-266 -188q86 -33 155.5 -85t118.5 -119.5t75.5 -148.5t26.5 -172v-790q0 -29 -11 -54t-29.5 -43t-44 -28t-54.5 -10t-54 10t-43 28t-28 43t-10 54v803q0 61 -22 115.5
t-61.5 95.5t-94.5 65t-121 24q-53 0 -99 -15.5t-81 -39.5l-533 -377v-671q0 -29 -11 -54t-29.5 -43t-44 -28t-54.5 -10t-54 10t-43 28t-28 43t-10 54v1614q0 29 10 53.5t28 42.5t43 28.5t54 10.5t54.5 -10.5t44 -28.5t29.5 -42.5t11 -53.5v-627z" />
    <glyph glyph-name="lochulathai" unicode="&#xe2c;" horiz-adv-x="2159" 
d="M1536 1843q60 0 95 4t54.5 14t26.5 25.5t12 38.5q5 28 16.5 52.5t28.5 43t40 29t51 10.5q27 0 51.5 -10.5t43 -29t29.5 -43t11 -52.5q0 -29 -4.5 -62t-16 -65t-30.5 -62t-48 -53q58 -65 78.5 -140.5t20.5 -170.5v-880q0 -106 -41 -198.5t-112.5 -161.5t-168 -108.5
t-207.5 -39.5q-114 0 -214 45t-175 123q-71 -78 -169.5 -123t-219.5 -45q-108 0 -203 39.5t-166.5 108.5t-113 161.5t-41.5 198.5v1237q0 27 10.5 51.5t29 43t43 29.5t52.5 11t52.5 -11t43 -29.5t29 -43t10.5 -51.5l4 -1237q0 -50 19 -94t52.5 -77t79 -52t99.5 -19t100 19.5
t80.5 52.5t54 78t19.5 96v675q0 28 11.5 52.5t30.5 43t44 29.5t52 11q28 0 52.5 -11t43.5 -29.5t30 -43t11 -52.5v-679q0 -51 19 -95t52 -77t78.5 -51.5t99.5 -18.5t100.5 19t80.5 52t53.5 77t19.5 94v876q0 63 -14.5 106.5t-40.5 71t-62 39.5t-79 12h-148q-26 0 -48.5 9.5
t-39 26t-26 39t-9.5 48.5t9.5 48.5t26 39t39 26t48.5 9.5h160z" />
    <glyph glyph-name="oangthai" unicode="&#xe2d;" horiz-adv-x="2048" 
d="M124 889q0 27 10.5 51t28 41.5t41.5 28t51 10.5h675q28 0 52 -10t41.5 -27.5t27.5 -41.5t10 -52t-10 -52t-27.5 -41.5t-41.5 -27.5t-52 -10h-512q23 -112 76.5 -208.5t132.5 -168t181.5 -112t223.5 -40.5q135 0 249.5 53.5t197.5 147t129.5 221t46.5 275.5q0 149 -45 277
t-126.5 222t-196.5 147.5t-255 53.5q-89 0 -175.5 -26t-162 -73.5t-134.5 -113t-93 -143.5q-12 -26 -31.5 -45.5t-43 -30.5t-49.5 -12t-52 10q-28 11 -47.5 30t-30 42.5t-11 50.5t10.5 53q52 124 140.5 221t198.5 163.5t233.5 101t246.5 34.5q139 0 259.5 -35.5t220.5 -100
t177.5 -153.5t130.5 -196t81 -228t28 -249t-29 -249t-83.5 -227.5t-133 -195t-178.5 -152.5t-219 -99.5t-254 -35.5q-131 0 -249 32.5t-219 92.5t-182.5 144t-138.5 186.5t-88 220.5t-31 246z" />
    <glyph glyph-name="honokhukthai" unicode="&#xe2e;" horiz-adv-x="2048" 
d="M930 1020q28 0 52 -10t41.5 -27.5t27.5 -41.5t10 -52t-10 -52t-27.5 -41.5t-41.5 -27.5t-52 -10h-512q23 -115 76.5 -212t132.5 -167.5t181.5 -110t223.5 -39.5q135 0 249.5 53t197.5 146.5t129.5 221t46.5 276.5t-45 276.5t-126.5 220.5t-196.5 146t-255 53
q-100 0 -189 -29.5t-162.5 -79t-128 -113t-85.5 -130.5q-12 -26 -31.5 -45.5t-43 -30.5t-49.5 -12t-52 10q-28 11 -47.5 30t-30 42.5t-11 50.5t10.5 53q32 81 82.5 151t114.5 128t139 102.5t155.5 75.5t163.5 47t164 16q133 0 244 -30t207 -89l180 201q20 22 45 33.5
t51.5 12.5t52.5 -8.5t48 -29.5q21 -20 32.5 -45t12.5 -51.5t-8 -52.5t-29 -47l-168 -193q111 -133 170 -302.5t59 -364.5q0 -128 -29 -249t-83.5 -227.5t-133 -195t-178.5 -152.5t-219 -99.5t-254 -35.5q-131 0 -249 33t-219 93.5t-182.5 144.5t-138.5 187t-88 221.5
t-31 246.5q0 27 10.5 51t28 41.5t41.5 28t51 10.5h675z" />
    <glyph glyph-name="paiyannoithai" unicode="&#xe2f;" horiz-adv-x="1679" 
d="M1241 1237q-179 -135 -414 -135q-97 -5 -184.5 20.5t-162 71.5t-135 109t-103.5 132t-67.5 139.5t-27.5 133.5q-1 26 6.5 52t22.5 47.5t36.5 36.5t49.5 20q26 4 51.5 -3t46 -22.5t35 -38.5t19.5 -51q12 -80 46 -150t87 -122.5t123.5 -82.5t156.5 -30t155 29.5t120 79
t83 114t44 133.5q4 29 16 55.5t30.5 46t43 31t53.5 11.5t55.5 -11.5t46 -31t31 -46t11.5 -55.5v-1605q0 -29 -11 -54t-30 -43t-44.5 -28t-54.5 -10t-54 10t-43 28t-28 43t-10 54v1122z" />
    <glyph glyph-name="saraathai" unicode="&#xe30;" horiz-adv-x="877" 
d="M639 1434q28 0 52 -10t41.5 -28t27.5 -42t10 -51q0 -28 -10 -51t-27.5 -40t-41.5 -26.5t-52 -9.5h-221q-62 0 -115.5 23.5t-93.5 64t-63 93.5t-23 113v37q0 28 9.5 52t26.5 41.5t40 27.5t51 10t52 -10t41.5 -27.5t27.5 -41.5t10 -52v-37q0 -15 11.5 -25.5t21.5 -10.5h225
zM639 434q28 0 52 -10t41.5 -27.5t27.5 -41.5t10 -52t-10 -51t-27.5 -40t-41.5 -26.5t-52 -9.5h-221q-62 0 -115.5 23.5t-93.5 64t-63 94t-23 113.5v37q0 28 9.5 52t26.5 41.5t40 27.5t51 10t52 -10t41.5 -27.5t27.5 -41.5t10 -52v-37q0 -15 11.5 -26t21.5 -11h225z" />
    <glyph glyph-name="maihanakatthai" unicode="&#xe31;" 
d="M-111 2388q28 0 52 -10.5t41.5 -29t27.5 -43t10 -52.5t-10 -51t-27.5 -39.5t-41.5 -25.5t-52 -9h-812q-68 0 -119.5 20.5t-86.5 56.5t-53 86t-18 108v79q0 28 9.5 52t26.5 41.5t40 27.5t51 10t52 -10t41.5 -27.5t27.5 -41.5t10 -52v-50q0 -16 11.5 -28t27.5 -12h792z" />
    <glyph glyph-name="saraaathai" unicode="&#xe32;" horiz-adv-x="1393" 
d="M82 1716q37 32 83.5 59.5t103.5 48t126 32.5t150 12q177 0 306 -53.5t213 -145t124.5 -213t40.5 -256.5v-1085q0 -28 -11 -52.5t-29.5 -43t-43 -29t-51.5 -10.5q-28 0 -52.5 10.5t-43 29t-29.5 43t-11 52.5v1052q0 212 -104.5 327.5t-312.5 115.5q-108 0 -177 -27.5
t-106 -67.5q-18 -20 -43.5 -28.5t-52.5 -6t-52.5 14.5t-43.5 33t-25.5 46t-5 51t14 49.5t32.5 41.5z" />
    <glyph glyph-name="saraamthai" unicode="&#xe33;" horiz-adv-x="1393" 
d="M-8 2355q0 -60 -23 -113t-63 -92.5t-94 -62.5t-115 -23q-62 0 -115.5 23t-93.5 62.5t-63 92.5t-23 113q0 61 23 115t63 94t93.5 63t115.5 23q61 0 115 -23t94 -63t63 -94t23 -115zM-209 2355q0 40 -27 67t-67 27q-20 0 -37.5 -7t-31 -20t-21.5 -30t-8 -37t8 -37.5
t21.5 -31t31 -21.5t37.5 -8t37 8t30 21.5t20 31t7 37.5zM82 1716q37 32 83.5 59.5t103.5 48t126 32.5t150 12q177 0 306 -53.5t213 -145t124.5 -213t40.5 -256.5v-1085q0 -28 -11 -52.5t-29.5 -43t-43 -29t-51.5 -10.5q-28 0 -52.5 10.5t-43 29t-29.5 43t-11 52.5v1052
q0 212 -104.5 327.5t-312.5 115.5q-108 0 -177 -27.5t-106 -67.5q-18 -20 -43.5 -28.5t-52.5 -6t-52.5 14.5t-43.5 33t-25.5 46t-5 51t14 49.5t32.5 41.5z" />
    <glyph glyph-name="saraithai" unicode="&#xe34;" 
d="M-274 2388q26 0 49.5 -10t41.5 -27.5t29 -41.5t11 -52t-11 -51t-29 -40t-41.5 -26.5t-49.5 -9.5h-1278q-26 0 -50 9.5t-42 26.5t-28.5 40t-10.5 51t10.5 52t28.5 41.5t42 27.5t50 10h1278z" />
    <glyph glyph-name="saraiithai" unicode="&#xe35;" 
d="M-1552 2130q-26 0 -50 9.5t-42 26.5t-28.5 40t-10.5 51t10.5 52t28.5 41.5t42 27.5t50 10h1130v135q0 28 11 52.5t29 43t41.5 29t49.5 10.5t49 -10.5t40.5 -29t27.5 -43t10 -52.5v-266q0 -28 -10.5 -51t-28.5 -40t-42 -26.5t-50 -9.5h-1257z" />
    <glyph glyph-name="sarauethai" unicode="&#xe36;" 
d="M-643 2388q1 54 21.5 99t54.5 77.5t78.5 51t95.5 18.5q54 0 100 -19t80.5 -52.5t54 -79t19.5 -99.5t-20 -100t-54.5 -80.5t-79.5 -54t-96 -19.5h-1163q-26 0 -50 9.5t-42 26.5t-28.5 40t-10.5 51t10.5 52t28.5 41.5t42 27.5t50 10h909zM-307 2380q0 17 -7 32.5t-19 27.5
t-27.5 19t-32.5 7t-32.5 -7t-27.5 -19t-19 -27.5t-7 -32.5t7 -32.5t19 -27.5t27.5 -19t32.5 -7t32.5 7t27.5 19t19 27.5t7 32.5z" />
    <glyph glyph-name="saraueethai" unicode="&#xe37;" 
d="M-1552 2130q-26 0 -50 9.5t-42 26.5t-28.5 40t-10.5 51t10.5 52t28.5 41.5t42 27.5t50 10h696v135q0 28 10.5 52.5t28.5 43t42 29t50 10.5t49 -10.5t40.5 -29t27.5 -43t10 -52.5v-135h176v135q0 28 11 52.5t29 43t41.5 29t49.5 10.5t49 -10.5t40.5 -29t27.5 -43t10 -52.5
v-266q0 -28 -10.5 -51t-28.5 -40t-42 -26.5t-50 -9.5h-1257z" />
    <glyph glyph-name="sarauthai" unicode="&#xe38;" 
d="M-164 -659q0 -26 -10 -50t-27.5 -42t-40.5 -29t-49 -11t-49.5 11t-41.5 29t-29 42t-11 50v237h-94q-28 0 -52 9t-41.5 25t-27.5 38.5t-10 50.5q0 56 37.5 87.5t93.5 31.5h221q28 0 52 -10t41.5 -28t27.5 -42t10 -51v-348z" />
    <glyph glyph-name="sarauuthai" unicode="&#xe39;" 
d="M-614 -508q0 -20 7 -37.5t20 -31t30 -21.5t37 -8q46 0 72 29t26 69v217q0 26 11 50t29 42t41.5 28.5t49.5 10.5t49 -10.5t40.5 -28.5t27.5 -42t10 -50v-217q0 -74 -28 -139t-76 -113t-112 -76t-136 -28q-74 0 -139 25t-113 71.5t-76 112.5t-28 147v66h-54q-27 0 -51 10
t-42 27.5t-28 41.5t-10 52q0 27 10 51t28 42t42 28t51 10h181q27 0 51 -10t42 -28t28 -42t10 -51v-197z" />
    <glyph glyph-name="phinthuthai" unicode="&#xe3a;" 
d="M-119 -332q0 -37 -14.5 -69.5t-39 -57t-57 -39t-69.5 -14.5t-69.5 14.5t-57 39t-39 57t-14.5 69.5t14.5 70t39 57.5t57 38.5t69.5 14t69.5 -14t57 -38.5t39 -57.5t14.5 -70z" />
    <glyph glyph-name="PUCR2005" unicode="&#xe3e;" 
 />
    <glyph glyph-name="bahtthai" unicode="&#xe3f;" horiz-adv-x="1597" 
d="M1090 1581q0 121 -55.5 201t-170.5 114v-643q60 17 103 48t70 73t40 94.5t13 112.5zM618 1917h-212v-680h212v680zM1270 631q0 100 -33 165t-88.5 105t-129.5 59t-155 27v-745q85 6 159 33t129 75.5t86.5 118.5t31.5 162zM618 991h-212v-749h212v749zM296 0
q-29 0 -54.5 10.5t-44.5 29.5t-29.5 44.5t-10.5 54.5v1884q0 29 10.5 54.5t29.5 44.5t44.5 30t54.5 11h322v209q0 26 9.5 48t26 38.5t39 26t48.5 9.5t48.5 -9.5t39 -26t26 -38.5t9.5 -48v-218q118 -17 208 -67.5t150 -127.5t90.5 -177t30.5 -217q0 -123 -37.5 -219
t-125.5 -179q81 -38 145 -92t108.5 -121.5t67.5 -147.5t23 -171q0 -146 -50 -261.5t-138.5 -197t-209.5 -127t-262 -49.5v-229q0 -26 -9.5 -48.5t-26 -39t-39 -26t-48.5 -9.5t-48.5 9.5t-39 26t-26 39t-9.5 48.5v229h-322z" />
    <glyph glyph-name="saraethai" unicode="&#xe40;" horiz-adv-x="725" 
d="M225 1724q0 29 10.5 54.5t28.5 44.5t42.5 30t53.5 11t54.5 -11t44.5 -30t30 -44.5t11 -54.5v-1605q0 -29 -11 -54.5t-30 -44.5t-44.5 -29.5t-54.5 -10.5t-53.5 10.5t-42.5 29.5t-28.5 44.5t-10.5 54.5v1605z" />
    <glyph glyph-name="saraaethai" unicode="&#xe41;" horiz-adv-x="1327" 
d="M225 1724q0 29 10.5 54.5t28.5 44.5t42.5 30t53.5 11t54.5 -11t44.5 -30t30 -44.5t11 -54.5v-1605q0 -29 -11 -54.5t-30 -44.5t-44.5 -29.5t-54.5 -10.5t-53.5 10.5t-42.5 29.5t-28.5 44.5t-10.5 54.5v1605zM827 1724q0 29 10.5 54.5t28.5 44.5t43 30t54 11t54.5 -11
t44 -30t29.5 -44.5t11 -54.5v-1605q0 -29 -11 -54.5t-29.5 -44.5t-44 -29.5t-54.5 -10.5t-54 10.5t-43 29.5t-28.5 44.5t-10.5 54.5v1605z" />
    <glyph glyph-name="saraothai" unicode="&#xe42;" horiz-adv-x="754" 
d="M233 1937q0 36 -14.5 63t-36.5 48.5t-49 39l-51 34.5q-29 18 -57 43t-50 57t-35.5 71t-13.5 87q0 90 35.5 145.5t89.5 86t117 40.5t119 10h426q27 0 51 -10t42 -27.5t28 -41.5t10 -52q0 -27 -10 -50.5t-28 -40.5t-42 -26.5t-51 -9.5h-451q-22 0 -41.5 -5.5t-19.5 -26.5
q0 -24 45 -50q57 -35 105 -72t83 -82.5t54.5 -102.5t19.5 -132v-1814q0 -29 -11 -54.5t-29.5 -44.5t-44 -29.5t-54.5 -10.5t-54 10.5t-43 29.5t-28.5 44.5t-10.5 54.5v1818z" />
    <glyph glyph-name="saraaimaimuanthai" unicode="&#xe43;" horiz-adv-x="754" 
d="M-147 2273q3 39 18 85t42 91.5t66 87.5t89 74.5t111 52t132 19.5q98 0 184 -36t149.5 -98.5t100.5 -147t37 -181.5q0 -99 -38.5 -184.5t-100.5 -147.5l-131 -131v-1638q0 -29 -11 -54.5t-29.5 -44.5t-44 -29.5t-54.5 -10.5t-54 10.5t-43 29.5t-28 44.5t-10 54.5v1749
q16 16 42.5 39.5l56.5 51.5t60.5 60t55 66t40 68t15.5 67q0 38 -14.5 73t-40.5 61.5t-61 42.5t-77 16q-41 0 -73 -15t-55 -39t-38 -55t-22 -63q-16 -59 -56.5 -92t-99.5 -27q-58 9 -90 49t-28 102z" />
    <glyph glyph-name="saraaimaimalaithai" unicode="&#xe44;" horiz-adv-x="754" 
d="M467 2662q39 0 81 -4t82.5 -15.5t77 -31t64 -51t43.5 -76t16 -104.5q0 -48 -13.5 -87t-35 -71t-49.5 -57t-57 -43l-51.5 -34.5t-49 -39t-37 -48.5t-14.5 -63v-1818q0 -29 -11 -54.5t-29.5 -44.5t-44 -29.5t-54.5 -10.5t-54 10.5t-43 29.5t-28 44.5t-10 54.5v1814
q0 75 18.5 132t52.5 102.5t82.5 82.5t108.5 72q45 26 45 50q0 21 -20 26.5t-41 5.5h-459q-28 0 -51 9.5t-40 26.5t-26.5 40.5t-9.5 50.5q0 28 9.5 52t26.5 41.5t40 27.5t51 10h430z" />
    <glyph glyph-name="lakkhangyaothai" unicode="&#xe45;" horiz-adv-x="1413" 
d="M70 1704q44 37 93.5 67t107 51.5t125.5 33.5t149 12q177 0 306 -53.5t213 -145t124.5 -213t40.5 -256.5v-1786q0 -27 -11 -51.5t-29.5 -43t-43 -29.5t-51.5 -11q-28 0 -52.5 11t-43 29.5t-29.5 43t-11 51.5v1753q0 212 -104.5 327.5t-312.5 115.5q-54 0 -96.5 -7
t-77 -19.5t-63 -31t-54.5 -41.5q-21 -17 -46 -24.5t-49.5 -5t-47.5 14t-41 32.5t-25 45.5t-6 49t10.5 46t24.5 35.5z" />
    <glyph glyph-name="maiyamokthai" unicode="&#xe46;" horiz-adv-x="1937" 
d="M356 627q-34 36 -70 90.5t-66 121.5t-49 142.5t-19 153.5q0 123 36.5 235t106.5 206.5t171 169t230 122.5l230 -230l233 230q127 -48 227.5 -121.5t170.5 -168t106.5 -205.5t36.5 -234v-1725q0 -27 -11 -51.5t-29.5 -43t-43 -29.5t-51.5 -11q-28 0 -52.5 11t-43 29.5
t-29 43t-10.5 51.5v1725q0 63 -15.5 121.5t-44.5 110.5t-70 97t-92 80l-282 -282l-283 282q-51 -35 -91.5 -80.5t-69.5 -98.5t-44.5 -112t-15.5 -122q0 -51 14 -102.5t34.5 -96t43 -78.5t39.5 -51q20 -20 29 -45t8 -50.5t-12.5 -50t-32.5 -43.5q-20 -18 -44.5 -27t-50 -8
t-50.5 12t-44 32z" />
    <glyph glyph-name="maitaikhuthai" unicode="&#xe47;" 
d="M-811 2466q17 -61 55.5 -86t79.5 -25q58 0 88 32t39 79q4 26 18 46.5t34 34t45 18.5t51 -1q26 -5 46 -18.5t33 -33.5t17 -44.5t-2 -50.5q-12 -60 -41.5 -115.5t-75 -98.5t-108 -68.5t-140.5 -25.5q-77 0 -142.5 28t-115.5 75q-49 -47 -114 -75t-140 -28q-86 0 -156 30
t-120 83.5t-77.5 127t-27.5 161.5q0 87 27.5 161.5t77.5 128.5t120 84.5t156 30.5h918q26 0 48.5 -9.5t39 -26t26 -39t9.5 -48.5t-9.5 -48t-26 -38.5t-39 -26t-48.5 -9.5h-918q-32 0 -57.5 -13t-42.5 -35t-26 -51t-9 -61q0 -31 9 -59t26 -49.5t41 -34.5t55 -13q45 0 82 24.5
t53 84.5q11 42 44.5 68t77.5 26t76.5 -25.5t43.5 -66.5z" />
    <glyph glyph-name="maiekthai" unicode="&#xe48;" 
d="M-418 3174q0 26 10 49t27.5 40.5t40.5 27.5t49 10t49 -10t40.5 -27.5t27.5 -40.5t10 -49v-290q0 -26 -10 -49.5t-27.5 -40.5t-40.5 -27t-49 -10t-49 10t-40.5 27t-27.5 40.5t-10 49.5v290z" />
    <glyph glyph-name="maithothai" unicode="&#xe49;" 
d="M-823 3133q-20 -11 -42 -15.5t-44 -1.5t-41 13.5t-33 28.5t-18 40.5t0 44t16 41.5t31 34q73 49 168 49q66 0 122 -22.5t97.5 -61.5t64.5 -92.5t23 -114.5q0 -16 -5 -30.5t-10 -24.5q5 0 24.5 1t35.5 1h328q26 0 49 -10t40 -27.5t27 -40.5t10 -49t-10 -48.5t-27 -39
t-40 -26t-49 -9.5h-807l29.5 43.5l39.5 56.5l42 61.5t38 59.5t28 50t11 33q0 30 -14.5 48.5t-42.5 18.5q-10 0 -21.5 -3t-19.5 -8z" />
    <glyph glyph-name="maitrithai" unicode="&#xe4a;" 
d="M-1008 2814q-46 49 -66 98t-20 99q0 60 23 112.5t62.5 92t92.5 62.5t113 23q23 0 47.5 -6t47 -16.5t42 -23.5t31.5 -27q12 14 31 27t41 23.5t47 16.5t49 6q60 0 112.5 -22.5t91.5 -60.5t62 -89.5t25 -109.5h168q26 0 48.5 -9.5t39 -26t26 -39t9.5 -48.5t-9.5 -48t-26 -38
t-39 -24.5t-48.5 -8.5h-520l110 205q6 9 7 19.5t1 13.5q0 21 -15.5 39t-37.5 18q-8 0 -19 -2.5t-21 -12t-17.5 -28.5t-7.5 -51h-213q0 55 -17 74.5t-45 19.5q-25 0 -41 -20t-16 -41q0 -7 1 -19.5t15 -30.5q28 -36 27 -80t-35 -75q-17 -15 -37.5 -22t-42 -6t-41.5 10t-35 26z
" />
    <glyph glyph-name="maichattawathai" unicode="&#xe4b;" 
d="M-422 3178v66q0 28 11 52t29 41.5t41.5 27.5t49.5 10t49 -10t40.5 -27.5t27.5 -41.5t10 -52v-66h82q23 0 43.5 -8.5t35.5 -23.5t23.5 -35t8.5 -43t-8.5 -43.5t-23.5 -35.5t-35.5 -23.5t-43.5 -8.5h-82v-69q0 -28 -10 -52t-27.5 -41.5t-40.5 -27.5t-49 -10t-49.5 10
t-41.5 27.5t-29 41.5t-11 52v69h-82q-23 0 -43 8.5t-35 23.5t-23.5 35.5t-8.5 43.5t8.5 43t23.5 35t35 23.5t43 8.5h82z" />
    <glyph glyph-name="thanthakhatthai" unicode="&#xe4c;" 
d="M-377 2793q12 -23 16 -47t-1 -45.5t-19 -40t-37 -30.5q-49 -25 -91 -10t-73 59q-6 7 -14.5 21t-16 33t-13 43.5t-5.5 53.5q0 60 21.5 112.5t60 91t90 61t111.5 22.5h184q26 0 48.5 -9.5t39 -26t26 -39t9.5 -48.5t-9.5 -48.5t-26 -39t-39 -26t-48.5 -9.5h-184
q-15 0 -28.5 -9.5t-13.5 -31.5q0 -6 2 -13t4 -12q3 -6 7 -12z" />
    <glyph glyph-name="nikhahitthai" unicode="&#xe4d;" 
d="M-8 2355q0 -60 -23 -113t-63 -92.5t-94 -62.5t-115 -23q-62 0 -115.5 23t-93.5 62.5t-63 92.5t-23 113q0 61 23 115t63 94t93.5 63t115.5 23q61 0 115 -23t94 -63t63 -94t23 -115zM-209 2355q0 40 -27 67t-67 27q-20 0 -37.5 -7t-31 -20t-21.5 -30t-8 -37t8 -37.5
t21.5 -31t31 -21.5t37.5 -8t37 8t30 21.5t20 31t7 37.5z" />
    <glyph glyph-name="yamakkanthai" unicode="&#xe4e;" 
d="M-143 2953q31 -28 31.5 -68t-27.5 -71q-28 -28 -62.5 -31.5t-66.5 26.5q-8 7 -19.5 14.5t-25 13.5t-28 10t-28.5 4q-29 0 -54.5 -10.5t-44 -28.5t-29.5 -42.5t-11 -53.5t11 -57t33.5 -50t57 -35.5t82.5 -13.5v-152q-48 0 -82.5 -13.5t-57 -35t-33.5 -49.5t-11 -57
t10 -51.5t27 -38.5t40.5 -26.5t49.5 -14.5q20 -3 35.5 -14t26 -26.5t15 -35t1.5 -39.5q-3 -18 -13 -34t-25 -26.5t-34 -15.5t-39 -2q-55 11 -107.5 37.5t-93 68t-65.5 96t-25 122.5q0 71 24.5 127t74.5 102q-99 99 -99 234q0 67 25.5 127t70.5 104t106.5 70t133.5 26
q65 -3 122 -26.5t104 -63.5z" />
    <glyph glyph-name="fongmanthai" unicode="&#xe4f;" horiz-adv-x="2171" 
d="M1987 868q0 -123 -32.5 -237.5t-92 -214.5t-142 -182.5t-183 -142t-215 -92t-237.5 -32.5t-237.5 32.5t-214.5 92t-182.5 142t-142 182.5t-92 214.5t-32.5 237.5t32.5 237.5t92 214.5t142 183t182.5 142t214.5 91.5t237.5 32.5t237.5 -32.5t215 -91.5t183 -142t142 -183
t92 -214.5t32.5 -237.5zM1569 868q0 -98 -38.5 -186t-104.5 -154t-154 -104.5t-187 -38.5q-98 0 -186 38.5t-154 104.5t-104.5 154t-38.5 186t38.5 186t104.5 154t154 105t186 39q66 0 127.5 -17.5t115 -49.5t98 -76.5t76.5 -98.5t49.5 -115.5t17.5 -126.5zM1343 868
q0 54 -20 101t-55 82t-82 55t-101 20t-101 -20t-82 -55t-55 -82t-20 -101t20 -101t55 -82t82 -55t101 -20t101 20t82 55t55 82t20 101zM1753 864q0 92 -24 178t-67.5 160.5t-104.5 136t-135 105.5t-159.5 68t-177.5 24t-177 -24t-159.5 -67.5t-135 -104.5t-104 -135
t-67.5 -159.5t-24 -177.5q0 -138 52.5 -259.5t143 -212t212 -143t259.5 -52.5q93 0 179 24t160 67t135 104t104 134.5t66.5 158t23.5 175.5z" />
    <glyph glyph-name="zerothai" unicode="&#xe50;" horiz-adv-x="1810" 
d="M1733 770q0 -112 -29.5 -215t-83 -192.5t-129 -163t-167 -126t-196.5 -81.5t-219 -29t-219 29t-196.5 81.5t-166.5 126t-128.5 163t-83 193t-29.5 214.5q0 112 29.5 215t83 193t128.5 163.5t166.5 126t197 81t218.5 28.5q114 0 219 -28.5t196.5 -81t167 -126t129 -163.5
t83 -193t29.5 -215zM1458 770q0 111 -42.5 209t-116.5 172t-174.5 117t-215.5 43t-215 -43t-174.5 -117t-117 -172t-42.5 -209t42.5 -209t117 -172t174.5 -117t215 -43t215.5 43t174.5 117t116.5 172t42.5 209z" />
    <glyph glyph-name="onethai" unicode="&#xe51;" horiz-adv-x="1810" 
d="M340 156q-21 17 -33.5 40t-15.5 47.5t4 50t24 46.5q17 22 41.5 35.5t50.5 17t51.5 -3t45.5 -24.5q71 -62 168.5 -99t212.5 -37t215 43t174.5 117t117 172t42.5 209t-42.5 209t-117 172t-174.5 117t-215 43q-86 0 -163.5 -23t-141.5 -63t-113 -94t-78 -115
q-14 -29 -15.5 -50t5.5 -34.5t20.5 -20t30.5 -6.5h160q28 0 52.5 -10.5t43 -29t29 -43t10.5 -52.5t-10.5 -52t-29 -41.5t-43 -27.5t-52.5 -10h-168q-82 0 -141 24t-97 64.5t-57 92.5t-22 108t9.5 112t37.5 103q48 94 122 173.5t169 137.5t207 90.5t235 32.5
q113 0 218.5 -28.5t197 -81t166.5 -126t128.5 -163.5t83 -193t29.5 -215t-29.5 -215t-83 -192.5t-128.5 -163t-166.5 -126t-197 -81.5t-218.5 -29q-72 0 -142.5 10t-138.5 33t-135 59.5t-133 90.5z" />
    <glyph glyph-name="twothai" unicode="&#xe52;" horiz-adv-x="2089" 
d="M1350 1165q0 -28 -10.5 -52.5t-29 -43t-43 -29t-52.5 -10.5t-52.5 10.5t-43 29t-29 43t-10.5 52.5v23q0 56 -35.5 93.5t-106.5 37.5q-35 0 -64 -12.5t-49 -34t-31 -50.5t-11 -63q0 -25 13 -56.5t53 -62.5q18 -15 28 -39t10 -50.5t-9.5 -52.5t-29.5 -46q-40 -40 -91 -43
t-93 39q-80 79 -112.5 155t-32.5 156q0 78 27.5 155t80.5 138t131.5 99t179.5 38q84 0 157.5 -32t129.5 -81q55 49 129 81t157 32q100 0 171.5 -37t119 -98t75.5 -139t42.5 -160.5t18.5 -162.5t4 -144q0 -200 -64.5 -360.5t-182 -273.5t-281 -173.5t-361.5 -60.5
q-136 0 -255 30t-217.5 85.5t-176 133t-131 173t-81.5 206.5t-28 232v942q0 29 10 54.5t28 44t43 29.5t54 11t54.5 -11t44 -29.5t29.5 -44t11 -54.5v-942q0 -128 40.5 -236.5t119 -188t193 -124.5t262.5 -45q141 0 255 41t193.5 118.5t122.5 189.5t43 253q0 39 -0.5 88.5
t-5.5 102t-16.5 102.5t-33.5 89t-56.5 63t-85.5 24q-53 0 -86 -36.5t-33 -92.5v-23z" />
    <glyph glyph-name="threethai" unicode="&#xe53;" horiz-adv-x="2085" 
d="M873 237q50 21 89.5 0.5t61.5 -69.5q17 -35 14 -63.5t-19 -51.5t-42 -40t-56.5 -28t-62.5 -16.5t-59 -5.5q-115 3 -211.5 36.5t-174.5 89.5t-137 131.5t-98.5 163t-59.5 183t-20 191.5q0 85 15 170.5t47 166.5t82 157t119 141t158.5 118.5t201.5 90.5l344 -340l336 331
q136 -52 245.5 -133t186 -184t117.5 -224t41 -253q0 -120 -29 -232t-86 -211t-141 -183t-195 -148q-18 -13 -38.5 -22.5l-39.5 -18.5q-24 -14 -50.5 -16t-51.5 6t-45.5 25t-32.5 42q-14 24 -16 50.5t6 51.5t25.5 45.5t41.5 32.5q97 48 168.5 110t118.5 136t70.5 157.5
t23.5 174.5q0 75 -19 145.5t-54.5 132.5t-85.5 113t-111 88l-385 -385l-401 401q-75 -43 -131.5 -102.5t-93.5 -130t-55.5 -149t-18.5 -158.5q1 -106 31.5 -201t86 -167t134.5 -116.5t178 -48.5q9 0 32.5 3t45.5 13z" />
    <glyph glyph-name="fourthai" unicode="&#xe54;" horiz-adv-x="1884" 
d="M1745 201q20 -20 30 -45.5t10.5 -51.5t-9 -51t-27.5 -45q-20 -20 -44.5 -30t-49.5 -10t-49.5 10t-44.5 30l-127 119q-112 -74 -242.5 -115t-269.5 -41q-114 0 -219 29t-196.5 81t-167 125.5t-129 163t-83 192t-29.5 212.5q0 112 29.5 215t83 193t129 163.5t167 126
t196.5 81t219 28.5h630q11 0 17 8l168 221q15 23 38 37.5t48.5 19.5t52 0t49.5 -20t37 -38.5t18 -50t-1.5 -53.5t-20.5 -50l-184 -238q-34 -46 -86 -74t-123 -28h-643q-116 0 -216.5 -43t-175.5 -117t-118 -172t-43 -209t43 -208.5t118 -170t175.5 -115t216.5 -42.5
q83 0 161.5 21t149.5 65l-225 221q-49 49 -84.5 100.5t-47 104t5.5 106t72 107.5l58 53q20 18 44.5 27.5t50 10t50 -9t43.5 -28.5t29 -44t10 -51t-9.5 -50.5t-29.5 -43.5l-49 -45z" />
    <glyph glyph-name="fivethai" unicode="&#xe55;" horiz-adv-x="1884" 
d="M1774 1421q-34 -46 -86 -72t-123 -26h-647q-116 0 -216 -43t-174 -117t-116.5 -172t-42.5 -209t43 -209t118 -171.5t175.5 -116.5t216.5 -43q83 0 161.5 22.5t149.5 63.5l-225 221q-49 49 -84.5 100.5t-47 104t5.5 106t72 107.5l58 57q20 18 45 28t50.5 10.5t50 -9
t42.5 -29.5q20 -18 30 -43t10 -51t-10 -51t-30 -43l-49 -50l594 -589q20 -20 30 -45.5t10.5 -51.5t-9 -51t-27.5 -45q-20 -20 -44.5 -30t-49.5 -10t-49.5 10t-44.5 30l-127 131q-229 -160 -512 -160q-114 0 -219 29t-196.5 81.5t-167 126t-129 163t-83 193t-29.5 214.5
q0 140 43 265t122 226.5t191.5 175.5t252.5 112q-7 18 -11 37t-4 40q0 72 28.5 133t76.5 105.5t111 69t132 24.5q68 0 130 -24t109.5 -68t76 -105t28.5 -135q0 -15 -0.5 -27t-3.5 -22h171q13 0 18 8l168 222q16 22 39 36t48.5 19.5t51.5 0.5t49 -20t37.5 -38.5t19 -50.5
t-1.5 -54t-22 -49zM1176 1638q0 29 -10.5 54t-28.5 43t-43 28.5t-54 10.5t-54.5 -10.5t-44 -28.5t-29.5 -43t-11 -54t11 -53t29.5 -41.5t44 -27t54.5 -9.5t54 9.5t43 27t28.5 41.5t10.5 53z" />
    <glyph glyph-name="sixthai" unicode="&#xe56;" horiz-adv-x="1782" 
d="M516 676l-49.5 -47t-40.5 -49.5t-18 -52.5t18 -56q34 -49 82 -90.5t105.5 -71.5t122 -46.5t132.5 -16.5q114 0 214.5 43t175.5 117.5t119 173.5t44 211q0 78 -22 150.5t-61.5 135.5t-94.5 114.5t-121 86.5l-352 -356l-582 577q-19 19 -29 43.5t-10 50.5t9.5 50.5
t29.5 44.5q19 19 44.5 29t51.5 10t50.5 -9.5t42.5 -29.5l393 -390l287 287q144 -41 261.5 -119t200.5 -182.5t128 -230.5t45 -262q0 -111 -29 -214.5t-82.5 -194t-128.5 -165.5t-166.5 -129t-197 -83.5t-220.5 -29.5q-107 0 -204 26.5t-180 72.5t-151.5 107t-119.5 130
q-44 60 -63.5 113.5t-19.5 102t16.5 92t44.5 84t64.5 79.5l76.5 78q18 18 42.5 27.5t49.5 9.5t49.5 -9.5t42.5 -27.5t27.5 -42.5t10 -50t-9 -49.5t-28.5 -42z" />
    <glyph glyph-name="seventhai" unicode="&#xe57;" horiz-adv-x="2109" 
d="M1720 1806q0 28 11 52.5t29.5 43t43 29.5t51.5 11q28 0 52.5 -11t43 -29.5t29.5 -43t11 -52.5v-999q0 -126 -32 -246t-97 -226t-165 -194t-235 -149q-24 -14 -50.5 -16t-51.5 6t-45.5 25.5t-32.5 41.5q-14 25 -16 51.5t6 51t25.5 45t41.5 32.5q97 48 168.5 110t118.5 136
t70.5 157.5t23.5 174.5q0 72 -18 141.5t-52.5 132t-85 116t-114.5 93.5l-385 -389l-401 402q-75 -42 -131.5 -101t-93.5 -129.5t-55.5 -148.5t-18.5 -158q0 -106 29.5 -201.5t85 -168t135.5 -116.5t180 -47q6 0 24.5 3.5t40.5 12.5q25 11 49.5 11t46.5 -9.5t39.5 -27.5
t28.5 -43q17 -36 13.5 -65.5t-20.5 -52t-44.5 -39t-58.5 -27.5t-62.5 -16t-56.5 -5q-115 0 -211.5 32t-174.5 88.5t-137 132.5t-98.5 163.5t-59.5 183.5t-20 191q0 127 35 255t111 241t194.5 204.5t286.5 147.5l344 -344l336 336q87 -31 170.5 -85.5t148.5 -131.5v417z" />
    <glyph glyph-name="eightthai" unicode="&#xe58;" horiz-adv-x="2122" 
d="M1466 1130q52 0 113 -18.5t122 -53.5t118 -86t100.5 -115t69.5 -140.5t26 -163.5q0 -120 -47 -226t-131 -185t-198.5 -125t-249.5 -46l-324 316l-344 -336q-143 48 -259 127t-197.5 182.5t-126 228.5t-44.5 265q0 114 30.5 220.5t86 198.5t133 168t172 130.5t203.5 84
t227 29.5h762q5 0 9 3.5t7 8.5l168 218q17 24 40 39t48.5 20.5t51.5 0.5t49 -20q23 -17 37.5 -41t19.5 -50.5t-0.5 -53.5t-23.5 -51l-181 -238q-34 -46 -87.5 -74t-125.5 -28h-774q-120 0 -225 -44t-183 -120.5t-123.5 -179.5t-45.5 -221q0 -80 21 -153.5t60 -137.5
t93.5 -116t120.5 -89l401 393l418 -409q55 10 103 39t83 70t55.5 93t20.5 109q0 59 -25 112t-67.5 94.5t-99 69.5t-119.5 39q-28 5 -50.5 19.5t-38 34.5t-22.5 44.5t-4 49.5q4 28 18.5 49t34.5 35.5t44.5 22t49.5 7.5z" />
    <glyph glyph-name="ninethai" unicode="&#xe59;" horiz-adv-x="2154" 
d="M1028 1262q-19 29 -61.5 43t-91.5 14q-65 0 -127 -19.5t-117.5 -55t-102 -85.5t-80 -110t-52.5 -128.5t-19 -142.5q0 -112 42.5 -210t116.5 -170.5t174 -114t216 -41.5q29 0 60 4t58.5 9.5t49 12t32.5 11.5q26 10 53 9.5t51 -10.5t43 -28.5t30 -44.5q9 -25 7.5 -52
t-12 -51.5t-29 -44.5t-44.5 -30q-12 -6 -44 -15.5t-74 -18.5t-89.5 -15.5t-91.5 -6.5q-114 0 -219 29t-196.5 81.5t-167 126t-129 163t-83 193t-29.5 214.5t29 213.5t80.5 192.5t123 163.5t157.5 126.5t183.5 82t199.5 29q55 0 110 -11.5t105 -35t92 -58.5t71 -83
q44 47 82 78.5t73.5 51t71 29t76 13.5t88.5 4h107q43 0 90 58t109 175q10 22 29.5 36.5t43 20.5t48.5 3t47 -15q21 -12 35.5 -31.5t20.5 -42.5t3.5 -47.5t-14.5 -46.5q-56 -92 -100.5 -158t-87 -109.5t-89 -67t-104.5 -30.5q-54 -6 -92.5 -6t-68 -0.5t-53.5 -4t-48.5 -18
t-53.5 -42.5t-69 -76l647 -1003q15 -23 19.5 -48.5t-1.5 -49.5t-21 -45.5t-38 -36.5t-47.5 -19.5t-48 1.5t-44.5 21t-36 38z" />
    <glyph glyph-name="angkhankhuthai" unicode="&#xe5a;" horiz-adv-x="2281" 
d="M1843 1724q0 29 10.5 54.5t28.5 44.5t42.5 30t53.5 11t54.5 -11t44.5 -30t30 -44.5t11 -54.5v-1605q0 -29 -11 -54.5t-30 -44.5t-44.5 -29.5t-54.5 -10.5t-53.5 10.5t-42.5 29.5t-28.5 44.5t-10.5 54.5v1605zM1241 1237q-179 -135 -414 -135q-103 0 -192.5 28.5t-164 76
t-132.5 109.5t-99.5 129t-64.5 135t-27 128q-2 26 5.5 52t22.5 47.5t37 36.5t50 20q26 4 51.5 -3t46 -22.5t35 -38.5t19.5 -51q12 -80 49 -150t92 -122.5t124.5 -82.5t147.5 -30q86 0 155 29.5t120 79t83 114t44 133.5q4 29 16 55.5t30.5 46t43 31t53.5 11.5t55.5 -11.5
t46 -31t31 -46t11.5 -55.5v-1605q0 -29 -11 -54t-30 -43t-44.5 -28t-54.5 -10t-54 10t-43 28t-28 43t-10 54v1122z" />
    <glyph glyph-name="khomutthai" unicode="&#xe5b;" horiz-adv-x="4121" 
d="M3805 1069q26 0 49 -10t40.5 -27.5t27.5 -40.5t10 -49t-10 -49.5t-27.5 -40.5t-40.5 -27t-49 -10h-643l-99.5 -164l-67.5 -110.5l-41.5 -66t-20.5 -28.5q-9 21 -31 62l-50.5 91.5l-61 105l-61.5 103.5l-52.5 87l-34.5 55q-8 -22 -30.5 -64.5l-54 -98l-68.5 -118
l-74.5 -123l-72 -114.5t-61.5 -92q-14 31 -41 81l-61 109l-71 121.5l-71 118.5l-63 101t-45 67q-13 -99 -51 -195.5t-96.5 -183t-136 -159.5t-170 -126.5t-198 -83.5t-220.5 -30q-209 0 -371 56t-272.5 158.5t-168 246.5t-57.5 321q0 119 26.5 218.5t72.5 179.5t108 140.5
t134 101t150.5 61t156.5 20.5q114 0 209 -39.5t163 -106t106 -155t38 -186.5q0 -23 -8 -45t-23 -39t-36.5 -28.5t-47.5 -14.5q-21 -2 -42.5 6t-39 23.5t-29 37t-12.5 47.5q-5 48 -26.5 93t-58.5 80t-88 56t-114 21q-66 0 -133 -28t-121 -86t-88 -147t-34 -210
q0 -143 48 -244.5t130 -166.5t191.5 -95t232.5 -30q110 0 209.5 41.5t180 111.5t139 162.5t88 194.5t25.5 207t-48 200l180 123q33 -30 77 -79.5t92 -110l97 -126l92 -127t76 -114t49 -86.5q7 10 21.5 39.5l32.5 69l37.5 84.5l36.5 86l30 74t18 48l176 103q11 -11 35 -42
l54 -72l63 -87l61.5 -88.5l49.5 -76t28 -48.5l86 176h766z" />
    <glyph glyph-name="saraulowthai" unicode="&#xf718;" 
d="M-164 -1298q0 -26 -10 -50t-27.5 -42t-40.5 -29t-49 -11t-49.5 11t-41.5 29t-29 42t-11 50v237h-94q-28 0 -52 9t-41.5 25t-27.5 38.5t-10 50.5q0 56 37.5 87.5t93.5 31.5h225q26 0 49 -11t40.5 -29t27.5 -42t10 -50v-347z" />
    <glyph glyph-name="sarauulowthai" unicode="&#xf719;" 
d="M-614 -1147q0 -20 7 -37.5t20 -31t30 -21.5t37 -8q46 0 72 29t26 69v217q0 26 11 50t29 42t41.5 28.5t49.5 10.5t49 -10.5t40.5 -28.5t27.5 -42t10 -50v-217q0 -74 -28 -138.5t-76 -113t-112 -76.5t-136 -28q-74 0 -139 25t-113 71.5t-76 112.5t-28 147v66h-54
q-27 0 -51 10t-42 27.5t-28 41.5t-10 52q0 27 10 51t28 42t42 28t51 10h185q26 0 49 -11t40.5 -29t27.5 -42t10 -50v-196z" />
    <glyph glyph-name="phinthulowthai" unicode="&#xf71a;" 
d="M-119 -979q0 -37 -14.5 -69t-39 -56t-57 -37.5t-69.5 -13.5t-69.5 13.5t-57 37.5t-39 56t-14.5 69q0 38 14.5 71t39 57t57 38t69.5 14t69.5 -14t57 -38t39 -57t14.5 -71z" />
    <glyph glyph-name="rulakkhangyao" unicode="&#xf881;" horiz-adv-x="2740" 
d="M872 1868q77 0 152.5 -11t147.5 -33.5t138 -56t124 -79.5q46 44 96.5 77.5t109.5 56.5t129.5 34.5t155.5 11.5q177 0 306 -53.5t213 -145t124.5 -213t40.5 -256.5v-1786q0 -27 -10.5 -51.5t-29 -43t-43 -29.5t-52.5 -11t-52.5 11t-43 29.5t-29 43t-10.5 51.5v1753
q0 212 -104.5 327.5t-313.5 115.5q-107 0 -180.5 -27t-134.5 -84q65 -102 98 -212.5t33 -225.5v-1647q0 -29 -11 -54t-30 -43t-44.5 -28t-54.5 -10t-53.5 10t-42.5 28t-28.5 43t-10.5 54v1647q0 120 -43.5 219.5t-122 171t-187 111t-237.5 39.5q-68 0 -133.5 -17.5
t-126.5 -48.5t-114.5 -73t-96.5 -91l123 -135v-971h164q28 0 52.5 -10.5t43 -29t29 -43t10.5 -52.5t-10.5 -52t-29 -41.5t-43 -27.5t-52.5 -10h-299q-27 0 -51.5 10t-43 27.5t-29.5 41.5t-11 52v1020l-102 111q-28 30 -35.5 63.5t-3 65t16.5 57.5t24 42q67 87 148 157
t172.5 119t192 75.5t205.5 26.5z" />
    <glyph glyph-name="lulakkhangyao" unicode="&#xf882;" horiz-adv-x="2736" 
d="M254 1148l-101 113q-27 31 -35 64.5t-3.5 64.5t16.5 57t24 42q67 87 148 157.5t172.5 119.5t191.5 75.5t205 26.5q155 0 298 -44t260 -136q46 41 96.5 74.5t110 57t129.5 36t155 12.5q177 0 306 -53.5t213 -145t124.5 -213t40.5 -256.5v-1786q0 -27 -10.5 -51.5t-29 -43
t-43 -29.5t-52.5 -11t-52.5 11t-43 29.5t-29 43t-10.5 51.5v1753q0 212 -105 327.5t-313 115.5q-54 0 -96.5 -7t-78.5 -21t-68 -34.5t-64 -48.5q65 -102 96 -212.5t31 -225.5v-1647q0 -29 -11 -54t-30 -43t-44.5 -28t-54.5 -10t-53.5 10t-42.5 28t-28.5 43t-10.5 54v1647
q0 121 -43.5 220.5t-122 171t-187 110.5t-237.5 39q-68 0 -133.5 -17t-126.5 -47t-114.5 -71.5t-96.5 -90.5l127 -135v-1110q0 -28 -11 -52t-29.5 -41.5t-43 -27.5t-51.5 -10h-200q-28 0 -52.5 10t-43 27.5t-29.5 41.5t-11 52t11 52.5t29.5 43t43 29t52.5 10.5h61v882z" />
    <glyph glyph-name="lochula.short" unicode="&#xf71d;" horiz-adv-x="2159" 
d="M1536 1843q60 0 95 4t54.5 14t26.5 25.5t12 38.5q5 28 16.5 52.5t28.5 43t40 29t51 10.5q27 0 51.5 -10.5t43 -29t29.5 -43t11 -52.5q0 -32 -6 -67t-19 -67.5t-33.5 -60.5t-50.5 -47q30 -25 51 -58.5t34 -74t18.5 -85.5t5.5 -93v-880q0 -106 -41 -198.5t-112.5 -161.5
t-168 -108.5t-207.5 -39.5q-114 0 -214 45t-175 123q-71 -78 -169.5 -123t-219.5 -45q-108 0 -203 39.5t-166.5 108.5t-113 161.5t-41.5 198.5v1237q0 27 10.5 51.5t29 43t43 29.5t52.5 11t52.5 -11t43 -29.5t29 -43t10.5 -51.5l4 -1237q0 -50 19 -94t52.5 -77t79 -52
t99.5 -19t100 19.5t80.5 52.5t54 78t19.5 96v675q0 28 11 52.5t29.5 43t43 29.5t51.5 11q28 0 52.5 -11t43 -29.5t29 -43t10.5 -52.5l5 -679q0 -51 19 -95t52 -77t78.5 -51.5t99.5 -18.5t100.5 19t80.5 52t53.5 77t19.5 94v876q0 63 -14.5 106.5t-40.5 71t-62 39.5t-79 12
h-127q-26 0 -48.5 9.5t-39 26t-26 39t-9.5 48.5t9.5 48.5t26 39t39 26t48.5 9.5h139z" />
    <glyph glyph-name="uni25CC" unicode="&#x25cc;" horiz-adv-x="2744" 
d="M1061 733l-197 -61l70 192q28 -40 59 -71.5t68 -59.5zM1278 1692l94 184l90 -180q-21 3 -42.5 3.5t-43.5 0.5q-25 0 -49 -2.5t-49 -5.5zM1454 639l-82 -172l-86 172q22 -3 45.5 -5.5t44.5 -2.5q22 0 41 2.5t37 5.5zM1905 1257l172 -90l-172 -77q3 18 5.5 37t2.5 40
q0 22 -2.5 45.5t-5.5 44.5zM852 1081l-184 95l184 90q-3 -25 -5.5 -49.5t-2.5 -49.5q0 -21 2.5 -42.5t5.5 -43.5zM946 1487l-53 188l184 -65q-40 -25 -71.5 -55.5t-59.5 -67.5zM1802 840l49 -168l-168 53q35 25 64.5 53t54.5 62zM1679 1610l201 65l-70 -192q-27 37 -58.5 68
t-72.5 59z" />
    <glyph glyph-name="yamakkanleftthai" 
d="M-512 2953q31 -28 31.5 -68t-27.5 -71q-28 -28 -66 -31.5t-69 27.5q-6 6 -16 13t-23 13.5t-27 10.5t-28 4q-29 0 -54.5 -10.5t-44.5 -28.5t-30 -42.5t-11 -53.5t11 -55.5t34 -46.5t57.5 -32t82.5 -12v-172q-48 0 -82.5 -11.5t-57.5 -31.5t-34 -46.5t-11 -55.5t10 -51.5
t27.5 -38.5t40.5 -26.5t49 -14.5q20 -3 36 -14t26.5 -26.5t14.5 -35t1 -39.5q-3 -18 -13 -34t-25 -26.5t-33.5 -15.5t-38.5 -2q-56 11 -108 37.5t-93 68t-65.5 96t-24.5 122.5q0 71 24.5 127t73.5 102q-98 100 -98 234q0 67 25.5 127t70.5 104t106.5 70t133.5 26
q65 0 122 -25t103 -65z" />
    <glyph glyph-name="copyright" unicode="&#xa9;" horiz-adv-x="2294" 
d="M2273 1085q0 -157 -40 -301.5t-113.5 -270t-176 -228.5t-227 -176.5t-268 -113.5t-297.5 -40q-157 0 -301.5 40t-270.5 113.5t-229 176.5t-176.5 228.5t-113.5 270.5t-40 301q0 155 40 298t113.5 268t176.5 227.5t229 176t270.5 113.5t301.5 40q154 0 297.5 -40
t268 -113.5t227 -176t176 -227.5t113.5 -268t40 -298zM2040 1085q0 123 -32 236.5t-89.5 212.5t-139 180t-180 139t-212 89.5t-236.5 31.5q-126 0 -241.5 -31.5t-215 -89.5t-181 -139t-139 -180t-89 -212.5t-31.5 -236.5q0 -126 31.5 -241t89 -215t139 -181t181 -139
t215 -89.5t241.5 -31.5q123 0 236.5 31.5t212 89.5t180 139t139 181t89.5 215t32 241zM1585 524q-37 -26 -80 -50.5t-92 -43t-104.5 -30t-116.5 -11.5q-95 0 -180.5 24.5t-158.5 69t-131.5 107t-99.5 138.5t-63 163.5t-22 181.5t22.5 181t64.5 162.5t101 137.5t132.5 106.5
t159 68.5t179.5 24q105 0 202 -31t187 -96q21 -15 33.5 -36t15.5 -44t-3 -47t-21 -45q-31 -40 -76.5 -43.5t-91.5 27.5q-59 37 -117.5 59.5t-132.5 22.5q-88 0 -164 -35.5t-132.5 -96t-89 -142t-32.5 -173.5q0 -91 33 -172.5t89.5 -143t132 -98t159.5 -36.5q71 0 131.5 24.5
t122.5 65.5q46 31 91.5 27.5t76.5 -44.5q15 -21 21 -45t3 -47t-15.5 -44t-33.5 -36z" />
    <glyph glyph-name="registered" unicode="&#xae;" horiz-adv-x="2339" 
d="M2331 1085q0 -159 -41.5 -306t-117 -275.5t-181.5 -234t-235 -181t-277 -117t-308 -41.5q-161 0 -310 41t-278.5 116.5t-236 180.5t-182.5 233.5t-118 276t-42 307.5q0 159 42 305.5t118 274t182.5 232t236 179t278.5 115.5t310 41q160 0 308 -41t277 -115.5t235 -179
t181.5 -232t117 -274t41.5 -305.5zM2097 1077q0 128 -33 246t-93.5 220.5t-144.5 186.5t-187 144t-221.5 92.5t-246.5 32.5q-130 0 -249.5 -32.5t-223.5 -91.5t-188.5 -142.5t-145 -185t-93.5 -218.5t-33 -244q0 -128 33 -246t93.5 -220.5t145 -186t188.5 -143.5
t223.5 -92.5t249.5 -32.5q128 0 246 32.5t220.5 92.5t186.5 143.5t144 186t92.5 220.5t32.5 246zM1528 1343q0 49 -26.5 76t-67.5 39.5t-91 14.5t-98 2h-311v-279h284h99t101 12.5t78.5 43t31.5 91.5zM700 1590q0 24 9.5 45.5t25.5 37.5t38 25.5t46 9.5h434q129 0 224 -25
t157 -72t92.5 -115.5t30.5 -156.5q0 -87 -26.5 -151.5t-73.5 -109t-110.5 -71t-137.5 -36.5l258 -385q12 -18 14.5 -40.5t-3.5 -44.5t-20.5 -43t-35.5 -36q-18 -11 -40 -13.5t-44 2.5t-41 17.5t-31 30.5l-319 508h-209v-439q0 -24 -9.5 -45.5t-25.5 -37.5t-37.5 -25.5
t-46.5 -9.5q-24 0 -46 9.5t-38 25.5t-25.5 37.5t-9.5 45.5v1062z" />
    <glyph glyph-name="trademark" unicode="&#x2122;" horiz-adv-x="2376" 
d="M598 938q0 -37 -24.5 -59.5t-61.5 -22.5t-59.5 22.5t-22.5 59.5v1061h-233q-38 0 -60 22.5t-22 59.5t22 61.5t60 24.5h634q38 0 60 -24.5t22 -61.5t-22 -59.5t-60 -22.5h-233v-1061zM1191 1702l-24 84l-10 -81l-157 -776q-7 -33 -35.5 -51.5t-62.5 -11.5q-16 3 -29 12.5
t-22 23t-12 29.5t0 32l235 1160q5 22 22 36t40 14q20 0 35.5 -11.5t23.5 -28.5l375 -937l375 937q8 17 24 28.5t36 11.5q23 0 39.5 -14t21.5 -36l233 -1160q3 -16 0 -32t-12 -29.5t-22 -23t-29 -12.5q-17 -3 -33.5 0t-30.5 11.5t-24 21.5t-13 30l-151 778l-8 76l-25 -78
l-315 -793q-8 -19 -25 -30.5t-39 -11.5q-21 0 -38 12t-25 31z" />
    <glyph glyph-name="multiply" unicode="&#xd7;" horiz-adv-x="1556" 
d="M778 590l-438 -443q-18 -18 -42.5 -28t-50 -10t-50.5 9t-45 29q-20 19 -30 44t-10 51.5t10 52t30 45.5l438 438l-438 434q-20 20 -30 46t-10 52t10 51t30 44t45 28.5t50.5 9.5t50 -10t42.5 -28l438 -438l439 438q18 18 42.5 28t50 10t50.5 -9.5t45 -28.5q19 -19 28.5 -43
t9.5 -50.5t-10 -52t-28 -47.5l-438 -434l438 -438q20 -20 29.5 -45.5t9.5 -52t-10 -51.5t-29 -44q-20 -20 -45 -29t-50.5 -9t-50 10t-42.5 28z" />
    <glyph glyph-name="divide" unicode="&#xf7;" horiz-adv-x="1556" 
d="M979 1253q0 -41 -16 -77.5t-43 -63.5t-63.5 -43t-78.5 -16q-41 0 -77.5 16t-63.5 43t-43 63.5t-16 77.5q0 42 16 78.5t43 63.5t63.5 43t77.5 16q42 0 78.5 -16t63.5 -43t43 -63.5t16 -78.5zM979 303q0 -41 -16 -77.5t-43 -64t-63.5 -43.5t-78.5 -16q-41 0 -77.5 16
t-63.5 43.5t-43 64t-16 77.5q0 42 16 78.5t43 63.5t63.5 43t77.5 16q42 0 78.5 -16t63.5 -43t43 -63.5t16 -78.5zM1413 647q28 0 52 9.5t41.5 26.5t27.5 40t10 51t-10 52.5t-27.5 43t-41.5 29t-52 10.5h-1229q-27 0 -51 -10.5t-42 -29t-28 -43t-10 -52.5t10 -51t28 -40
t42 -26.5t51 -9.5h1229z" />
    <glyph glyph-name="ZWSP" unicode="&#x200b;" 
 />
    <glyph glyph-name="yoyingthai" unicode="&#xe0d;" horiz-adv-x="3031" 
d="M868 1872q195 0 357.5 -60.5t278.5 -168.5t180.5 -256.5t64.5 -325.5v-418q0 -84 29 -158t81.5 -129t126.5 -86.5t165 -31.5t170.5 30t139 84t94 129.5t34.5 165.5v1082q0 29 10.5 54.5t29.5 44t44.5 29.5t54.5 11t54.5 -11t44 -29.5t29.5 -44t11 -54.5v-1704
q0 -94 -25 -182t-71 -165t-110.5 -141t-144 -109.5t-172.5 -70.5t-194 -25q-201 10 -352.5 89t-253.5 231q-17 24 -21 51.5t2.5 53.5t23 49t40.5 38q25 15 52 19.5t52.5 -1.5t48.5 -22t40 -41q71 -99 162.5 -149.5t205.5 -50.5q92 0 172 33.5t139.5 91.5t93.5 135.5
t34 165.5v112q-90 -77 -203.5 -121.5t-234.5 -44.5q-98 0 -187 24t-164.5 68t-136.5 106t-104 137t-66 161.5t-23 179.5v418q0 121 -44 221t-123.5 171t-190 110t-244.5 39q-69 0 -136.5 -17.5t-129 -48.5t-116 -73t-97.5 -91l127 -131v-979h156q27 0 51.5 -10.5t43 -29
t29.5 -43t11 -52.5t-11 -52t-29.5 -41.5t-43 -27.5t-51.5 -10h-299q-27 0 -51.5 10t-43 27.5t-29.5 41.5t-11 52v1023l-102 111q-28 30 -35.5 63.5t-3 65t16.5 57.5t24 42q67 87 150 157.5t176.5 119.5t196 75.5t207.5 26.5z" />
    <glyph glyph-name="sterling" unicode="&#xa3;" horiz-adv-x="1647" 
d="M1556 1547q2 -29 -6 -55t-24 -47t-39.5 -35t-52.5 -18q-29 -3 -56 4.5t-48 24t-35 41t-17 53.5q-12 93 -46.5 166.5t-88.5 124t-125.5 77t-157.5 26.5q-84 0 -153.5 -33t-119 -92t-77 -140t-27.5 -178v-299h299q28 0 52 -10t41.5 -28t27.5 -43t10 -54q0 -28 -10 -52
t-27.5 -41.5t-41.5 -27.5t-52 -10h-303v-639h897q28 0 52 -10t41.5 -27.5t27.5 -41.5t10 -52t-10 -52t-27.5 -41.5t-41.5 -27.5t-52 -10h-1196q-28 0 -52 10t-41.5 27.5t-27.5 41.5t-10 52t10 52t27.5 41.5t41.5 27.5t52 10h21v639h-21q-28 0 -52 10t-41.5 27.5t-27.5 41.5
t-10 52q0 29 10 54t27.5 43t41.5 28t52 10h21v299q0 148 46.5 280t132.5 232t208 158.5t272 58.5q99 4 187.5 -22t164 -73.5t136.5 -112t105.5 -138t70.5 -151.5t32 -151z" />
    <glyph glyph-name="yen" unicode="&#xa5;" horiz-adv-x="1737" 
d="M1405 2146q15 28 38 45.5t49 25t53.5 4.5t51.5 -17q26 -15 43 -37.5t24 -48t4 -53.5t-17 -54l-336 -586h180q28 0 51 -10t40 -27.5t26.5 -41.5t9.5 -52q0 -27 -9.5 -50.5t-26.5 -40.5t-40 -26.5t-51 -9.5h-328l-102 -168h434q28 0 51 -10t40 -27.5t26.5 -41.5t9.5 -52
q0 -27 -9.5 -50.5t-26.5 -40.5t-40 -26.5t-51 -9.5h-483v-618q0 -31 -11.5 -57t-31.5 -45t-47 -30t-58 -11t-57 11t-45 30t-30 45t-11 57v618h-467q-28 0 -51 9.5t-40 26.5t-26.5 40.5t-9.5 50.5q0 28 9.5 52t26.5 41.5t40 27.5t51 10h418l-98 168h-316q-28 0 -51 9.5
t-40 26.5t-26.5 40.5t-9.5 50.5q0 28 9.5 52t26.5 41.5t40 27.5t51 10h168l-340 586q-14 26 -17 54t4 53.5t23.5 48t42.5 37.5q26 14 54 17t53.5 -4.5t48 -25t37.5 -45.5l532 -925z" />
    <glyph glyph-name="cent" unicode="&#xa2;" horiz-adv-x="1864" 
d="M864 1528q-63 -23 -115 -66t-89 -100t-57.5 -124.5t-20.5 -139.5t21 -140t58.5 -125t89 -101t113.5 -68v864zM1491 1462q-15 -23 -38.5 -36t-49 -16t-51 4t-45.5 24q-47 37 -92.5 64t-104.5 42v-897q53 16 103 40.5t98 66.5q21 18 44.5 25t46.5 4.5t44.5 -14.5t36.5 -32
q34 -46 28.5 -96t-49.5 -84q-23 -18 -60.5 -43t-84.5 -49.5t-100 -44t-107 -27.5v-106q0 -26 -9.5 -48.5t-26 -39t-39 -26t-48.5 -9.5t-48.5 9.5t-39 26t-26 39t-9.5 48.5v114q-121 25 -220 88t-169 155t-108.5 207.5t-38.5 246.5q0 129 39.5 244t110.5 206.5t169.5 154
t216.5 87.5v115q0 26 9.5 48.5t26 39t39 26t48.5 9.5t48.5 -9.5t39 -26t26 -39t9.5 -48.5v-103q105 -15 190.5 -53.5t153.5 -97.5q21 -18 36 -41.5t21 -48.5t1.5 -50.5t-21.5 -48.5z" />
    <glyph glyph-name="Euro" unicode="&#x20ac;" horiz-adv-x="2277" 
d="M193 1171q-28 0 -51 9.5t-40 26.5t-26.5 40.5t-9.5 50.5q0 28 9.5 52t26.5 42t40 28t51 10h163q40 110 100.5 209.5t138 184t171 152.5t198.5 116t220 73.5t237 25.5q86 0 173 -14.5t166.5 -38.5t147 -56t115.5 -67q22 -17 37 -39.5t21 -47t2 -51t-19 -50.5
q-15 -23 -38 -39.5t-48.5 -23t-52 -1.5t-49.5 23q-35 26 -89.5 49.5t-117.5 41.5t-129.5 29t-126.5 11q-123 0 -236.5 -37.5t-209.5 -103t-172.5 -154.5t-126.5 -192h643q27 0 50.5 -10t40.5 -28t26.5 -42t9.5 -52q0 -27 -9.5 -50.5t-26.5 -40.5t-40.5 -26.5t-50.5 -9.5
h-721q-3 -27 -3.5 -52.5t-0.5 -53.5t0.5 -53.5t3.5 -53.5h721q27 0 50.5 -10t40.5 -27.5t26.5 -41.5t9.5 -52q0 -27 -9.5 -50.5t-26.5 -40.5t-40.5 -26.5t-50.5 -9.5h-631q54 -100 133.5 -184t175 -145t203.5 -95t221 -34q60 0 126.5 11t129.5 30t117.5 43.5t89.5 50.5
q23 18 49.5 22.5t52 -2t48.5 -22.5t38 -39q15 -25 19.5 -51.5t-1.5 -52t-21 -48t-38 -37.5q-49 -35 -114.5 -67t-143.5 -56t-166 -38.5t-182 -14.5q-169 0 -326 51t-293.5 146t-247 230t-185.5 302h-172q-28 0 -51 9.5t-40 26.5t-26.5 40.5t-9.5 50.5q0 28 9.5 52t26.5 41.5
t40 27.5t51 10h110q-3 28 -3.5 58t-0.5 61q0 25 0.5 49t3.5 45h-110z" />
    <glyph glyph-name="onequarter" unicode="&#xbc;" horiz-adv-x="2220" 
d="M1503 406h258v376zM594 995q0 -21 -8.5 -40t-23 -32.5t-34 -21.5t-41.5 -8q-43 0 -72.5 29.5t-29.5 72.5v963h-131q-43 0 -72.5 29.5t-29.5 72.5q0 44 29.5 73.5t72.5 29.5h233q22 0 41.5 -8t34 -21.5t23 -32.5t8.5 -40v-1066zM1840 1248q11 14 26 23t34 9q30 0 52 -22
t22 -52v-800h58q21 0 40 -8t32.5 -22t21.5 -33t8 -40q0 -43 -29.5 -72.5t-72.5 -29.5h-58v-115q0 -21 -8.5 -40.5t-23 -34t-34 -23t-40.5 -8.5q-22 0 -41.5 8.5t-34 23t-23 34t-8.5 40.5v115h-532q-26 0 -44.5 18.5t-18.5 44.5q0 20 11 36zM537 20q-12 -17 -30.5 -27.5
t-38.5 -14t-40 1t-35 16.5q-18 12 -29 30.5t-14 38.5t2 40.5t17 37.5l1413 1999q12 17 30.5 27.5t38 14t39.5 -0.5t35 -16q18 -12 29 -30.5t14 -39t-1.5 -41t-16.5 -37.5z" />
    <glyph glyph-name="onehalf" unicode="&#xbd;" horiz-adv-x="2220" 
d="M415 20q-12 -17 -30.5 -27.5t-38.5 -14t-40 1t-35 16.5q-18 12 -29 30.5t-14 38.5t2 40.5t17 37.5l1413 1999q12 17 30.5 27.5t38 14t39.5 -0.5t35 -16q18 -12 29 -30.5t14 -39t-1.5 -41t-16.5 -37.5zM594 995q0 -21 -8.5 -40t-23 -32.5t-34 -21.5t-41.5 -8
q-43 0 -72.5 29.5t-29.5 72.5v963h-131q-43 0 -72.5 29.5t-29.5 72.5q0 44 29.5 73.5t72.5 29.5h233q22 0 41.5 -8t34 -21.5t23 -32.5t8.5 -40v-1066zM1389 186q-14 -15 -22.5 -34.5t-8.5 -41.5q0 -23 8.5 -43t23.5 -35t35 -23.5t43 -8.5h588q44 0 73.5 27.5t29.5 70.5
q0 44 -29.5 73.5t-73.5 29.5h-373l230 250l82 90t73.5 96.5t53 107.5t20.5 123q0 86 -31.5 159t-87 126t-130 83t-160.5 30q-79 0 -150 -33t-126 -85.5t-88.5 -118.5t-37.5 -132q-1 -20 5.5 -39t19 -35t30.5 -27t39 -14q20 -3 39.5 3.5t35 19.5t26.5 31.5t14 40.5
q12 83 60.5 133.5t132.5 50.5q41 0 77 -14t62.5 -39t41.5 -59.5t15 -76.5q0 -29 -10.5 -59t-28 -59.5t-39.5 -57.5t-45 -53l-202.5 -228.5z" />
    <glyph glyph-name="threequarters" unicode="&#xbe;" horiz-adv-x="2220" 
d="M618 20q-12 -17 -30 -27.5t-38 -14t-40 1t-35 16.5q-18 12 -29 30.5t-14 38.5t2 40.5t17 37.5l1413 1999q12 17 30 27.5t38 14t40 -0.5t35 -16q18 -12 29 -30.5t14 -39t-1.5 -41t-16.5 -37.5zM543 1470q98 -16 140 -64t42 -112q0 -38 -15 -73t-40.5 -61.5t-60 -42
t-72.5 -15.5q-72 0 -112.5 42.5t-55.5 117.5q-3 20 -14 37.5t-27.5 30t-36.5 19t-41 3.5q-20 -2 -37.5 -13t-30.5 -27t-19 -35.5t-3 -39.5q10 -75 42 -136.5t81.5 -105t114 -67t139.5 -23.5q86 0 159.5 30t127 82.5t84 124.5t30.5 156t-34 154.5t-106 120.5q65 50 94.5 113
t29.5 141q0 75 -29 140t-78.5 113t-116 75.5t-141.5 27.5q-145 0 -239 -82t-117 -237q-3 -21 3 -40t19 -35t30.5 -26.5t37.5 -13.5q21 -2 41 4.5t36.5 19t27.5 29.5t14 37q12 71 46.5 107t96.5 36q32 0 60.5 -11.5t49.5 -32t33.5 -48t12.5 -59.5q0 -61 -38.5 -105.5
t-131.5 -63.5q-33 -7 -55.5 -33.5t-22.5 -62.5t23.5 -63.5t58.5 -32.5zM1503 406h258v376zM1840 1248q11 14 26 23t34 9q30 0 52 -22t22 -52v-800h58q21 0 40 -8t32.5 -22t21.5 -33t8 -40q0 -43 -29.5 -72.5t-72.5 -29.5h-58v-115q0 -21 -8.5 -40.5t-23 -34t-34 -23
t-40.5 -8.5q-22 0 -41.5 8.5t-34 23t-23 34t-8.5 40.5v115h-532q-26 0 -44.5 18.5t-18.5 44.5q0 20 11 36z" />
    <glyph glyph-name="saraamleft" horiz-adv-x="1393" 
d="M-635 2355q0 -60 -23 -113t-63 -92.5t-94 -62.5t-115 -23q-60 0 -113.5 23t-94 62.5t-64 92.5t-23.5 113q0 61 23.5 115t64 94t94 63t113.5 23q61 0 115 -23t94 -63t63 -94t23 -115zM-831 2355q0 20 -8 37t-21.5 30t-31.5 20t-38 7q-40 0 -67 -27t-27 -67q0 -20 7 -37.5
t20 -31t30 -21.5t37 -8t38 8t31.5 21.5t21.5 31t8 37.5zM82 1716q42 32 89 60t103 48.5t123 32t148 11.5q177 0 306 -53.5t213 -145t124.5 -213t40.5 -256.5v-1085q0 -28 -11 -52.5t-29.5 -43t-43 -29t-51.5 -10.5q-28 0 -52.5 10.5t-43 29t-29.5 43t-11 52.5v1052
q0 212 -106.5 327.5t-314.5 115.5q-102 0 -169.5 -26.5t-113.5 -72.5q-20 -20 -45.5 -28t-51.5 -5t-50 15.5t-41 34.5q-19 21 -26.5 47t-5.5 51.5t14.5 49t33.5 40.5z" />
    <glyph glyph-name="uni0E33.alt1" horiz-adv-x="1393" 
d="M-635 2355q0 -60 -23 -113t-63 -92.5t-94 -62.5t-115 -23q-60 0 -113.5 23t-94 62.5t-64 92.5t-23.5 113q0 61 23.5 115t64 94t94 63t113.5 23q61 0 115 -23t94 -63t63 -94t23 -115zM-831 2355q0 20 -8 37t-21.5 30t-31.5 20t-38 7q-40 0 -67 -27t-27 -67q0 -20 7 -37.5
t20 -31t30 -21.5t37 -8t38 8t31.5 21.5t21.5 31t8 37.5zM82 1716q42 32 89 60t103 48.5t123 32t148 11.5q177 0 306 -53.5t213 -145t124.5 -213t40.5 -256.5v-1085q0 -28 -11 -52.5t-29.5 -43t-43 -29t-51.5 -10.5q-28 0 -52.5 10.5t-43 29t-29.5 43t-11 52.5v1052
q0 212 -106.5 327.5t-314.5 115.5q-102 0 -169.5 -26.5t-113.5 -72.5q-20 -20 -45.5 -28t-51.5 -5t-50 15.5t-41 34.5q-19 21 -26.5 47t-5.5 51.5t14.5 49t33.5 40.5z" />
    <glyph glyph-name="guillemotleft" unicode="&#xab;" horiz-adv-x="1274" 
d="M684 553q17 -20 24 -43t4.5 -46t-13.5 -44.5t-31 -38.5q-41 -34 -89.5 -29t-82.5 45l-443 521l443 520q34 40 82.5 45t89.5 -29q20 -17 31 -38.5t13.5 -44.5t-4.5 -46t-24 -43l-303 -364zM1188 553q17 -20 24 -43t4.5 -46t-14 -44.5t-31.5 -38.5q-40 -34 -84.5 -29
t-78.5 45l-443 521l443 520q34 40 78.5 45t84.5 -29q20 -17 31.5 -38.5t14 -44.5t-4.5 -46t-24 -43l-303 -364z" />
    <glyph glyph-name="guillemotright" unicode="&#xbb;" horiz-adv-x="1274" 
d="M905 918l-303 364q-17 20 -24 43t-5 46t13.5 44.5t31.5 38.5q41 34 89.5 29t83.5 -45l442 -520l-442 -521q-35 -40 -83.5 -45t-89.5 29q-20 17 -31.5 38.5t-13.5 44.5t5 46t24 43zM401 918l-303 364q-17 20 -24 43t-4.5 46t14 44.5t31.5 38.5q40 34 84.5 29t79.5 -45
l442 -520l-442 -521q-35 -40 -79.5 -45t-84.5 29q-20 17 -31.5 38.5t-14 44.5t4.5 46t24 43z" />
    <glyph glyph-name="thothannobasethai" unicode="&#xf700;" horiz-adv-x="1683" 
d="M1163 78q-12 -34 -42 -58t-77 -24q-43 0 -73.5 24t-44.5 62l-328 926q-9 27 -8 54.5t11.5 51.5t29.5 42.5t45 27.5q28 10 56 8.5t52.5 -13t43.5 -31.5t28 -46l193 -561l168 450q14 39 21 79.5t7 80.5q0 92 -36 173.5t-98.5 142t-147 95.5t-181.5 35q-86 0 -159 -28
t-129.5 -76.5t-96 -114.5t-57.5 -141q-8 -31 -25.5 -51.5t-40.5 -32t-50.5 -13t-55.5 6.5q-29 9 -50 26t-33 39.5t-14.5 48.5t3.5 54q29 121 98.5 222t165 173.5t210 113t234.5 40.5q109 0 199 -26t174 -73l148 164q18 22 42 35t49.5 16.5t51.5 -3t49 -23.5q23 -18 36 -42.5
t16 -51t-3.5 -53.5t-23.5 -50l-152 -172q71 -96 111.5 -204.5t40.5 -229.5q0 -62 -12 -123t-33 -123z" />
    <glyph glyph-name="exclam" unicode="!" horiz-adv-x="840" 
d="M618 176q0 -41 -16 -77t-43 -62.5t-63.5 -41.5t-77.5 -15q-42 0 -78.5 15t-63.5 41.5t-43 62.5t-16 77q0 43 15 80.5t42 65t64 43.5t80 16t79.5 -16t63.5 -43.5t42 -65t15 -80.5zM528 582q-3 -47 -34.5 -77t-83.5 -30q-47 0 -75.5 30t-31.5 77l-41 725v716
q0 34 11.5 63.5t32.5 51t49.5 33.5t62.5 12t63 -12t50.5 -33.5t34 -51t12.5 -63.5v-716z" />
    <glyph glyph-name="quotedbl" unicode="&#x22;" horiz-adv-x="823" 
d="M94 2068q-2 28 7.5 52t26.5 42t40 28t49 10q28 0 52.5 -10t42.5 -28t27.5 -42t8.5 -52l-33 -552q-3 -41 -27 -68t-71 -27q-40 0 -67.5 27t-30.5 68zM475 2068q-2 28 7.5 52t26.5 42t40 28t49 10q28 0 52.5 -10t42.5 -28t27.5 -42t8.5 -52l-33 -552q-3 -41 -27.5 -68
t-70.5 -27q-40 0 -67.5 27t-30.5 68z" />
    <glyph glyph-name="numbersign" unicode="#" horiz-adv-x="1733" 
d="M766 1196l-49 -348h274l45 348h-270zM1122 90q-5 -26 -18.5 -47t-33 -35.5t-43.5 -20.5t-48 -3q-26 4 -47 18t-35 33.5t-19.5 43t-0.5 48.5l73 467h-266l-78 -504q-5 -26 -18.5 -47t-33 -35.5t-43.5 -20.5t-48 -3q-26 4 -46.5 18t-34 33.5t-19.5 43t-3 48.5l66 467h-201
q-26 0 -49 10t-40.5 27t-27.5 40.5t-10 49.5t10 49t27.5 40.5t40.5 27.5t49 10h238l49 348h-213q-26 0 -49.5 10t-40.5 27t-27 40.5t-10 49.5t10 49t27 40.5t40.5 27.5t49.5 10h246l73 463q5 24 18.5 45t33 35.5t44 21.5t52.5 4q24 -5 45.5 -18t36.5 -32.5t22 -44t2 -52.5
l-65 -422h270l70 463q3 24 16 45t33 35.5t45.5 21.5t52.5 4q25 -5 46.5 -18t36.5 -32.5t21.5 -44t2.5 -52.5l-62 -422h168q26 0 49 -10t40.5 -27.5t27.5 -40.5t10 -49t-10 -49.5t-27.5 -40.5t-40.5 -27t-49 -10h-209l-53 -348h197q26 0 49 -10t40.5 -27.5t27.5 -40.5t10 -49
t-10 -49.5t-27.5 -40.5t-40.5 -27t-49 -10h-238z" />
    <glyph glyph-name="dollar" unicode="$" horiz-adv-x="1692" 
d="M745 1888q-41 -17 -75 -45.5t-58 -65t-37.5 -80t-13.5 -91.5q0 -43 14.5 -77t39.5 -62t58.5 -52t71.5 -47v520zM1241 647q0 43 -15.5 79t-44 68t-68.5 61t-89 58v-618q49 29 89 67t68.5 83t44 96t15.5 106zM188 422q-12 26 -13 53.5t8 52.5t27 45.5t44 32.5t54.5 13.5
t54 -7.5t46.5 -27t33 -44q19 -39 48.5 -83t68 -84t85.5 -70.5t101 -41.5v791q-90 41 -174.5 89.5t-149 112.5t-103.5 148.5t-39 198.5q0 112 33.5 207.5t95 170t147.5 125.5t190 74v197q0 29 11 54.5t30 44t44.5 29.5t54.5 11t54.5 -11t44 -29.5t29.5 -44t11 -54.5v-209
q60 -17 116.5 -47.5t105 -66.5t86.5 -74t61 -70q15 -23 22.5 -50.5t6 -55.5t-12.5 -55t-33 -48q-14 -14 -37.5 -22.5t-50.5 -6.5t-54 18t-46 52q-17 30 -40.5 55.5t-47.5 44t-44.5 28.5t-31.5 10v-650l128 -65.5t118.5 -70t102 -81.5t80 -99t52.5 -123.5t19 -154.5
q0 -115 -39 -217.5t-106.5 -185.5t-158.5 -144.5t-196 -95.5v-221q0 -29 -11 -54.5t-29.5 -44.5t-44 -30t-54.5 -11t-54.5 11t-44.5 30t-30 44.5t-11 54.5v209q-104 13 -191 55.5t-156.5 103.5t-121.5 134.5t-88 148.5z" />
    <glyph glyph-name="percent" unicode="%" horiz-adv-x="2023" 
d="M1004 1708q0 -100 -38 -185.5t-103.5 -148t-153 -98t-185.5 -35.5t-185.5 35.5t-152.5 98t-103 148t-38 185.5q0 105 37.5 192t102.5 150t152 98t187 35t187.5 -35t152.5 -98t102.5 -150t37.5 -192zM1974 451q0 -103 -38 -189t-103.5 -147.5t-152.5 -96t-185 -34.5
t-186 34.5t-154 96t-104.5 147.5t-38.5 189t38.5 189.5t104.5 149t154 97.5t186 35t185 -35t152.5 -97.5t103.5 -149t38 -189.5zM737 1708q0 43 -16.5 81t-45.5 66.5t-67.5 45t-83.5 16.5q-43 0 -81 -16t-66.5 -44t-45 -66t-16.5 -83q0 -42 16.5 -79t45 -65t66.5 -44.5
t81 -16.5t81.5 16.5t68 44.5t46.5 65t17 79zM1708 451q0 44 -17 82t-46.5 66t-68 44t-81.5 16q-45 0 -83.5 -16t-67.5 -44t-45.5 -66t-16.5 -82q0 -43 16.5 -80.5t45.5 -65t67.5 -43.5t83.5 -16q43 0 81.5 16t68 43.5t46.5 65t17 80.5zM1487 2163q28 46 74.5 60t93.5 -11
q49 -28 63 -75.5t-14 -96.5l-1172 -2040q-12 -21 -32.5 -35.5t-44.5 -20.5t-50 -3.5t-49 14.5q-21 14 -35 34.5t-19 44t-2 48t15 45.5z" />
    <glyph glyph-name="ampersand" unicode="&#x26;" horiz-adv-x="2134" 
d="M1532 348q-74 -74 -155.5 -141.5t-169.5 -121.5t-181 -89.5t-190 -44.5q-83 -7 -161 8t-147 49.5t-128 85.5t-103 114.5t-72.5 138.5t-36.5 157q-8 90 8.5 170.5t51.5 153t85 137.5t108.5 124.5t122.5 113.5l128 104q-41 43 -78.5 88.5t-67 95t-48.5 103.5t-23 114
q-8 95 22.5 183t89 156.5t139.5 112.5t175 52q98 7 182.5 -23t148 -87t102 -136t46.5 -168q8 -92 -14 -168.5t-64 -142t-99 -123t-118 -111.5l443 -499l151 172q19 21 43.5 33.5t50.5 15t52 -4.5t47 -24q23 -18 36 -42.5t15.5 -51t-5 -53t-26.5 -49.5l-176 -205l303 -348
q18 -22 26.5 -47t7 -50.5t-13 -49.5t-32.5 -42q-20 -17 -45 -24.5t-50 -6t-48.5 12t-40.5 30.5zM1098 1774q-5 37 -20.5 68t-39 53.5t-54.5 33.5t-66 8q-33 -3 -63 -21.5t-52 -48t-34 -67.5t-7 -80q4 -35 18.5 -69t34.5 -65.5t43.5 -60.5l46.5 -55l71.5 63t65 68.5t44.5 79
t12 93.5zM877 1085l-88.5 -69t-94.5 -76.5t-90 -85t-74.5 -94t-48 -104.5t-10.5 -115q7 -72 36.5 -133t75 -104.5t104 -65.5t124.5 -17q61 5 129.5 31.5t137.5 71t135.5 105t125.5 132.5z" />
    <glyph glyph-name="quotesingle" unicode="'" horiz-adv-x="582" 
d="M160 2068q-2 28 7.5 52t26.5 42t40 28t49 10q27 0 51.5 -10t42.5 -28t28 -42t9 -52l-33 -552q-3 -41 -27.5 -68t-70.5 -27q-41 0 -68.5 27t-30.5 68z" />
    <glyph glyph-name="parenleft" unicode="(" horiz-adv-x="840" 
d="M676 -254q12 -23 14 -48t-5 -48t-22 -42t-36 -30q-23 -12 -47.5 -13.5t-47 6t-42 22t-31.5 34.5q-85 134 -155 289t-120.5 322t-78 341.5t-27.5 346.5q0 170 29.5 337t81.5 325t122.5 305t151.5 278q12 20 32 33.5t43 19t47 2t46 -17.5q21 -12 34.5 -32t18.5 -43t1 -47
t-17 -46q-65 -107 -120.5 -231t-96 -264t-63.5 -297t-23 -330q0 -174 27 -338.5t71.5 -313.5t100 -280.5t112.5 -239.5z" />
    <glyph glyph-name="parenright" unicode=")" horiz-adv-x="840" 
d="M160 -246q57 108 112.5 239.5t99.5 280.5t71.5 313.5t27.5 338.5t-23 330.5t-63.5 297t-96 264t-120.5 230.5q-13 22 -17 46t0.5 47t18 43t35.5 32q21 14 45.5 17.5t47.5 -2t43 -19t32 -33.5q81 -131 151.5 -277.5t122.5 -305t81.5 -325t29.5 -337.5q0 -172 -28 -346.5
t-78 -341.5t-120.5 -322t-154.5 -289q-12 -20 -31.5 -34.5t-42 -22t-47 -6t-47.5 13.5q-21 11 -36 30t-22 42t-5 48t14 48z" />
    <glyph glyph-name="asterisk" unicode="*" horiz-adv-x="1442" 
d="M721 1389l-164 -226q-17 -23 -40.5 -36.5t-49.5 -17t-52.5 4t-49.5 25.5q-23 17 -37 40.5t-17.5 49.5t4 52.5t25.5 49.5l180 234l-278 86q-28 9 -47.5 26.5t-30.5 40.5t-12 50t8 55q9 27 26.5 47t40.5 30.5t50 12t55 -7.5l266 -90l-12 282q-2 28 8.5 52.5t29.5 43t44 29
t53 10.5t53 -10.5t43.5 -29t29 -43t9.5 -52.5l-8 -282l266 90q28 9 55 7.5t50 -12t40.5 -30.5t26.5 -47q9 -28 8 -55t-12 -50t-30.5 -40.5t-47.5 -26.5l-278 -86l180 -234q18 -23 25.5 -49.5t4 -52.5t-17.5 -49.5t-37 -40.5q-23 -18 -49.5 -25.5t-52.5 -4t-49.5 17
t-40.5 36.5z" />
    <glyph glyph-name="plus" unicode="+" horiz-adv-x="1597" 
d="M184 647q-27 0 -51 9.5t-42 26.5t-28 40t-10 51t10 52t28 41.5t42 27.5t51 10h484v488q0 27 9.5 51t26.5 42t40 28t51 10q27 0 51 -10t42 -28t28 -42t10 -51v-488h487q28 0 52 -10t41.5 -27.5t27.5 -41.5t10 -52t-10 -51t-27.5 -40t-41.5 -26.5t-52 -9.5h-487v-487
q0 -28 -10 -52t-28 -41.5t-42 -27.5t-51 -10q-28 0 -51 10t-40 27.5t-26.5 41.5t-9.5 52v487h-484z" />
    <glyph glyph-name="comma" unicode="," horiz-adv-x="606" 
d="M135 -156l21 17.5t34 30t39 39t37 44.5q-35 5 -66.5 22t-55 42.5t-37 58.5t-13.5 70q0 42 16 79t44 65t66 44.5t83 16.5q60 0 104 -23t73 -59.5t43 -81.5t14 -90q0 -57 -22.5 -118t-62 -119.5t-93.5 -110.5t-117 -90q-17 -11 -36 -14.5t-38 0.5t-35 14.5t-27 27.5t-14 36
t1 37.5t14.5 34.5t27.5 27z" />
    <glyph glyph-name="hyphen" unicode="-" horiz-adv-x="1090" 
d="M217 651q-28 0 -52 9.5t-41.5 26.5t-27.5 40.5t-10 50.5q0 28 10 52t27.5 41.5t41.5 27.5t52 10h660q27 0 51 -10t42 -27.5t28 -41.5t10 -52q0 -27 -10 -50.5t-28 -40.5t-42 -26.5t-51 -9.5h-660z" />
    <glyph glyph-name="period" unicode="." horiz-adv-x="606" 
d="M504 168q0 -43 -16 -80t-43 -64t-63.5 -42t-78.5 -15q-41 0 -77.5 15t-64 41.5t-43.5 62.5t-16 78q0 43 16 80t43.5 64t64 42t77.5 15q42 0 78.5 -15t63.5 -41.5t43 -62.5t16 -78z" />
    <glyph glyph-name="slash" unicode="/" horiz-adv-x="1876" 
d="M1446 2396q28 47 74.5 60.5t93.5 -11.5q49 -28 63 -75t-14 -97l-1253 -2273q-12 -21 -33 -36t-45 -21.5t-50 -4t-49 16.5q-22 13 -35.5 33.5t-19 44t-1.5 48.5t16 46z" />
    <glyph glyph-name="zero" unicode="0" horiz-adv-x="1679" 
d="M1610 1094q0 -139 -21.5 -276.5t-64 -262t-107 -231.5t-149.5 -185.5t-191 -123t-233 -44.5q-126 0 -231.5 44.5t-191 123t-149.5 185.5t-107.5 231.5t-65 262t-21.5 276.5q0 140 21.5 276t65 258t107.5 225t149.5 178t191 117.5t231.5 42.5q124 0 228.5 -42.5
t190 -117.5t150.5 -178t108.5 -225t66 -258t22.5 -276zM1315 1094q0 107 -16 210t-45.5 194.5t-71.5 168.5t-94 132.5t-114 86.5t-130 31q-70 0 -132 -31t-115 -86.5t-95 -132.5t-71.5 -168.5t-45.5 -194.5t-16 -210q0 -180 35 -335.5t98 -270.5t150 -180.5t192 -65.5
q103 0 189.5 65.5t149 180.5t97.5 270.5t35 335.5z" />
    <glyph glyph-name="one" unicode="1" horiz-adv-x="1679" 
d="M893 2163q29 0 55 -11.5t45.5 -31t31 -46t11.5 -55.5v-1900q0 -29 -11.5 -54.5t-31 -44.5t-45.5 -29.5t-55 -10.5t-54.5 10.5t-44.5 29.5t-29.5 44.5t-10.5 54.5v1765h-267q-29 0 -54.5 11t-44 29.5t-29.5 44t-11 54.5t11 54.5t29.5 44.5t44 30t54.5 11h406z" />
    <glyph glyph-name="two" unicode="2" horiz-adv-x="1679" 
d="M897 954q60 63 121 135.5t110.5 147.5t81 150.5t31.5 144.5q0 81 -31.5 152t-85 123.5t-125 83t-151.5 30.5q-84 0 -151.5 -27.5t-117 -77t-80 -119t-40.5 -153.5q-5 -29 -20.5 -53t-37.5 -40.5t-47.5 -24.5t-50.5 -5q-29 5 -53 20.5t-40.5 37.5t-24.5 47.5t-5 50.5
q10 82 39 159.5t74 145.5t104.5 125t130.5 98t152 63.5t168 22.5q140 0 263 -50.5t215 -140t145 -211.5t53 -265q0 -109 -37.5 -211.5t-96 -195t-129 -174t-135.5 -148.5l-512 -529h787q28 0 52.5 -10.5t43 -29t29 -43t10.5 -52.5t-10.5 -52t-29 -41.5t-43 -27.5t-52.5 -10
h-1114q-28 0 -52.5 10.5t-43 29t-29 43t-10.5 52.5t10.5 52t25.5 42z" />
    <glyph glyph-name="three" unicode="3" horiz-adv-x="1679" 
d="M893 1241q74 18 127.5 54.5t88 84.5t51 105t16.5 117q0 72 -24.5 130t-67.5 99.5t-100.5 63.5t-123.5 22q-132 0 -210.5 -75.5t-100.5 -207.5q-5 -29 -20 -53t-37 -40.5t-48.5 -24.5t-54.5 -5q-29 5 -53 20t-40.5 37t-24.5 48.5t-5 54.5q14 112 59 207.5t120.5 165
t180 108.5t238.5 39q123 0 232 -43t190 -121.5t128.5 -188t47.5 -241.5q0 -142 -57.5 -258t-171.5 -209q63 -44 112 -99.5t82 -118.5t50.5 -132t17.5 -141q0 -141 -45.5 -263t-130.5 -212t-207.5 -141.5t-275.5 -51.5q-85 -5 -164 15.5t-148 59.5t-126 92.5t-99 115
t-66.5 127t-27.5 127.5q-3 60 26.5 105t87.5 55q28 4 54.5 -3t48 -23.5t37 -41t20.5 -55.5q11 -63 37.5 -118.5t69.5 -96.5t104 -64.5t141 -23.5q85 0 153.5 30.5t117.5 83t75.5 123.5t26.5 152q0 64 -19 123t-58 107t-97.5 84t-136.5 54q-40 10 -67 43t-27 76q0 22 7 42
t20 36.5t30 28t37 16.5z" />
    <glyph glyph-name="four" unicode="4" horiz-adv-x="1679" 
d="M1069 1593l-647 -934h647v934zM1094 2114q18 27 49.5 46t68.5 19q29 0 55.5 -11.5t46 -31t31 -45.5t11.5 -55v-1377h123q29 0 54.5 -11t44 -29.5t29.5 -44t11 -54.5t-11 -54.5t-29.5 -44.5t-44 -29.5t-54.5 -10.5h-123v-258q0 -29 -11.5 -55t-31 -45.5t-46 -31
t-55.5 -11.5t-55 11.5t-45.5 31t-31 45.5t-11.5 55v258h-868q-32 0 -60 11.5t-48.5 31.5t-32 48t-11.5 60q0 51 25 86z" />
    <glyph glyph-name="five" unicode="5" horiz-adv-x="1679" 
d="M283 2017q0 31 11 58t30 47t45 31.5t57 11.5h848q29 0 54.5 -11t44 -29.5t29.5 -44t11 -54.5t-11 -54.5t-29.5 -44.5t-44 -30t-54.5 -11h-701v-407q59 18 120.5 27.5t129.5 9.5q107 0 205 -27t182.5 -76t153 -118t116.5 -153t74.5 -181.5t26.5 -202.5q0 -115 -28.5 -218
t-80.5 -191t-124.5 -158.5t-161.5 -120.5t-191 -76.5t-213 -26.5q-98 0 -189 25t-171.5 69.5t-147.5 106t-118 135.5q-17 25 -24.5 52t-4.5 53.5t16 50t37 41.5t51.5 24t54 2t50.5 -18t41 -37q37 -51 83 -93t98.5 -72t110 -47t117.5 -17q108 0 200.5 38.5t161 107.5
t107.5 164.5t39 209.5q0 103 -40 191t-108.5 153t-159 102t-191.5 37q-57 0 -114.5 -12t-120 -35.5t-131 -57.5t-146.5 -79v956z" />
    <glyph glyph-name="six" unicode="6" horiz-adv-x="1679" 
d="M782 1536q16 0 32 2t38 2q103 0 198.5 -29t177.5 -81t149.5 -125t115.5 -161t74 -188t26 -206q0 -75 -15.5 -148t-43.5 -140.5t-67 -129t-87 -115.5q-108 -124 -245 -185t-295 -61q-104 0 -200 27.5t-179.5 78t-152.5 121t-118.5 157t-76.5 186.5t-27 209
q0 72 10.5 136.5t30 124t47.5 115.5t64 111l618 930q15 24 40 40t53 22t56.5 2t51.5 -19q24 -15 40 -40t22 -53.5t1 -57.5t-22 -54zM1303 754q0 106 -38 197.5t-101.5 159.5t-147.5 107t-176 39t-175.5 -39t-146.5 -107t-100 -159.5t-37 -197.5q0 -108 37 -200.5t100 -161
t146.5 -107.5t175.5 -39t176 39t147.5 107.5t101.5 161t38 200.5z" />
    <glyph glyph-name="seven" unicode="7" horiz-adv-x="1679" 
d="M1421 2163q39 0 72 -14t57 -38t38 -57t14 -72q0 -27 -8.5 -51.5t-20.5 -46.5l-1061 -1884q-14 -25 -36.5 -41.5t-49.5 -23.5t-56 -4.5t-55 16.5q-23 14 -38.5 36.5t-23 49t-5.5 54.5t14 52l987 1745h-999q-29 0 -54.5 11t-44.5 29.5t-29.5 44t-10.5 54.5t10.5 54.5
t29.5 44.5t44.5 30t54.5 11h1171z" />
    <glyph glyph-name="eight" unicode="8" horiz-adv-x="1679" 
d="M1503 602q0 -92 -24 -174.5t-67.5 -153t-104.5 -126.5t-134 -95.5t-156.5 -60.5t-172.5 -21q-87 0 -169.5 21t-155.5 60.5t-133.5 95.5t-104.5 126.5t-68.5 153t-24.5 174.5q0 164 62.5 296t195.5 228q-108 96 -160.5 212t-52.5 243q0 129 47 240.5t129.5 193.5t194 129
t240.5 47q130 0 242.5 -47t195 -129t129.5 -193.5t47 -240.5q0 -127 -52 -243t-161 -212q133 -96 195.5 -228t62.5 -296zM1171 1585q0 67 -26.5 127.5t-71 106t-104 72t-125.5 26.5t-125 -26.5t-103 -72t-70 -106t-26 -127.5q0 -69 25.5 -129t69 -104t102.5 -69.5t127 -25.5
q67 0 127 26t104 70.5t70 104t26 127.5zM1221 614q0 75 -30 141.5t-81.5 116t-120 78.5t-145.5 29q-75 0 -143 -29t-119 -78.5t-81 -116t-30 -141.5q0 -78 30.5 -146t82 -118t119 -79t141.5 -29q75 0 143.5 29t120 79t82.5 118t31 146z" />
    <glyph glyph-name="nine" unicode="9" horiz-adv-x="1679" 
d="M1298 1413q0 105 -36.5 196t-98 158.5t-143 106.5t-172.5 39q-92 0 -176 -39t-148 -106.5t-101.5 -158.5t-37.5 -196q0 -106 37.5 -198t101.5 -160t148 -107t176 -39q91 0 172.5 39t143 107t98 160t36.5 198zM840 0q-14 -25 -36.5 -41.5t-49.5 -23.5t-56 -4.5t-55 16.5
q-23 14 -38.5 36.5t-23 49t-5.5 54.5t14 52l323 496q-21 -3 -40.5 -3.5t-41.5 -0.5q-101 0 -195.5 28.5t-176.5 80.5t-150 124t-116.5 159t-75.5 185.5t-27 204.5q0 110 27.5 211t77.5 187.5t120 156.5t154 119.5t180.5 76.5t198.5 27q105 0 202 -28t180 -79t151 -122.5
t116 -159.5t74 -189.5t26 -211.5q0 -69 -11 -131.5t-31.5 -121t-49 -113.5t-63.5 -109z" />
    <glyph glyph-name="colon" unicode=":" horiz-adv-x="606" 
d="M504 1266q0 -43 -16 -80t-43 -64t-63.5 -42t-78.5 -15q-41 0 -77.5 15t-64 41.5t-43.5 62.5t-16 78q0 43 16 79.5t43.5 63.5t64 42t77.5 15q42 0 78.5 -15t63.5 -41.5t43 -62.5t16 -77zM504 172q0 -43 -16 -80t-43 -64t-63.5 -42t-78.5 -15q-41 0 -77.5 15t-64 41.5
t-43.5 62.5t-16 78q0 43 16 80t43.5 64t64 42t77.5 15q42 0 78.5 -15t63.5 -41.5t43 -62.5t16 -78z" />
    <glyph glyph-name="semicolon" unicode=";" horiz-adv-x="606" 
d="M504 1262q0 -42 -16 -78.5t-43 -63.5t-63.5 -43t-78.5 -16q-41 0 -77 16t-62.5 43t-42 63.5t-15.5 78.5q0 41 15.5 77.5t42 63.5t62.5 43t77 16q42 0 78.5 -16t63.5 -43t43 -63.5t16 -77.5zM135 -156l21 17.5t34 30t39 39t37 44.5q-35 5 -66.5 22t-55 42.5t-37 58.5
t-13.5 70q0 42 16 79t44 65t66 44.5t83 16.5q60 0 104 -23t73 -59.5t43 -81.5t14 -90q0 -57 -22.5 -118t-62 -119.5t-93.5 -110.5t-117 -90q-17 -11 -36 -14.5t-38 0.5t-35 14.5t-27 27.5t-14 36t1 37.5t14.5 34.5t27.5 27z" />
    <glyph glyph-name="less" unicode="&#x3c;" horiz-adv-x="1602" 
d="M1360 1540q20 11 44 12t47.5 -6.5t44 -23.5t32.5 -39q10 -20 11 -44t-6.5 -47.5t-23.5 -44t-39 -32.5l-1032 -520l1037 -562q21 -12 36 -31.5t22.5 -42t6 -46t-11.5 -43.5q-12 -22 -32 -36.5t-42 -21.5t-45 -6t-41 10l-1212 627q-38 19 -60 58.5t-22 89.5q0 55 25 96.5
t65 62.5z" />
    <glyph glyph-name="equal" unicode="=" horiz-adv-x="1630" 
d="M201 881q-28 0 -52 9.5t-41.5 26.5t-27.5 40t-10 51q0 27 10 51t27.5 42t41.5 28t52 10h1229q27 0 51 -10t42 -28t28 -42t10 -51q0 -28 -10 -51t-28 -40t-42 -26.5t-51 -9.5h-1229zM201 418q-28 0 -52 9.5t-41.5 26.5t-27.5 40t-10 51q0 27 10 51t27.5 42t41.5 28t52 10
h1229q27 0 51 -10t42 -28t28 -42t10 -51q0 -28 -10 -51t-28 -40t-42 -26.5t-51 -9.5h-1229z" />
    <glyph glyph-name="greater" unicode="&#x3e;" horiz-adv-x="1602" 
d="M1438 950q40 -21 65 -62.5t25 -96.5q0 -50 -22.5 -89.5t-59.5 -58.5l-1213 -627q-18 -9 -41 -10t-45 6t-41.5 21.5t-31.5 36.5q-11 20 -12 43.5t6.5 46t22.5 42t36 31.5l1036 562l-1032 520q-23 12 -39 32.5t-23.5 44t-6.5 47.5t12 44q12 23 32 39t43.5 23.5t48 6.5
t44.5 -12z" />
    <glyph glyph-name="question" unicode="?" horiz-adv-x="1401" 
d="M909 172q0 -43 -15 -80.5t-42 -65t-63.5 -43.5t-79.5 -16t-80 16t-64 43.5t-42 65t-15 80.5t15 80t42 64t64 42t80 15q41 0 77.5 -15t63.5 -42t43 -64t16 -80zM57 1593q-6 69 10.5 143.5t52.5 145t91.5 133t127.5 108.5t160 71.5t189 21.5q144 0 260 -47t197.5 -127
t125.5 -185.5t44 -222.5q0 -81 -20 -147t-53 -121.5t-75 -102t-85.5 -89l-85.5 -82t-75 -80.5t-53 -85t-20 -96v-204q0 -29 -11 -54.5t-29.5 -44.5t-44 -30t-54.5 -11t-54.5 11t-44.5 30t-30 44.5t-11 54.5v213q0 74 20 134.5t52.5 112t74 96t85 86l85 82.5t74 85t52.5 93.5
t20 108.5q0 55 -21 109.5t-63.5 98t-107 70t-152.5 26.5q-94 0 -157.5 -25.5t-104 -71.5t-60.5 -109.5t-26 -138.5q-2 -27 -12.5 -52.5t-29 -45t-43.5 -32t-54 -13.5q-28 -2 -53 7.5t-44.5 28t-31.5 44.5t-15 59z" />
    <glyph glyph-name="at" unicode="@" horiz-adv-x="2261" 
d="M1425 1290q10 30 -1.5 68.5t-42.5 72.5t-80 57t-113 23q-62 0 -120 -25.5t-109.5 -69t-94.5 -101.5t-74 -123t-48 -133.5t-17 -132.5q0 -53 12 -98.5t40.5 -79t75.5 -53t118 -19.5q55 0 110 25.5t101.5 66t81.5 89.5t51 97zM2159 365q-88 -100 -193 -173.5t-221 -121.5
t-240 -71.5t-248 -23.5q-158 0 -309.5 34t-285.5 100t-246.5 162t-194 220t-127 274.5t-45.5 324.5q0 151 40.5 291.5t114.5 262.5t177 222t228 171.5t267 110.5t295 39q144 0 277.5 -31.5t249 -89.5t210.5 -141t162.5 -186.5t104.5 -225t37 -256.5q0 -114 -29.5 -221
t-80.5 -200t-120.5 -170t-148.5 -132t-164.5 -85.5t-169.5 -30.5q-66 0 -108 17t-66.5 42t-36.5 53.5t-18 51.5q-93 -59 -178.5 -83t-165.5 -24q-100 0 -177.5 34t-130 92.5t-79.5 138t-27 169.5q0 91 20.5 186.5t61 185t100 169t137 138.5t173 93.5t208.5 34.5
q81 0 157 -29.5t151 -97.5l8 29q7 21 22 38t33.5 27t39 13t40.5 -4q25 -8 41 -23.5t24.5 -34.5t9.5 -40.5t-5 -41.5l-250 -749q-2 -6 -7 -22.5t-9 -37.5t-4.5 -44t6.5 -41.5t23.5 -31t47.5 -12.5q50 0 104.5 28t106 76.5t98 112.5t82 136.5t56 149t20.5 149.5
q0 108 -32.5 204t-89.5 176.5t-135 144.5t-170 108.5t-194 68t-206 23.5q-127 0 -245 -34t-221 -95.5t-187.5 -147t-145 -188t-94 -218.5t-33.5 -239q0 -139 38.5 -260t107 -221t163 -178t206.5 -132t237.5 -82t255.5 -28q103 0 204.5 19t196 58.5t180 100.5t156.5 146
q31 37 70 42.5t73 -22.5q18 -14 29 -32.5t13.5 -38t-4 -39.5t-21.5 -37z" />
    <glyph glyph-name="A" unicode="A" horiz-adv-x="1905" 
d="M954 1622l-278 -680h549zM1835 172q11 -26 9.5 -54t-13 -53.5t-32 -46t-46.5 -30.5q-26 -11 -53.5 -9.5t-52 13.5t-44 33t-30.5 49l-238 590h-766l-237 -590q-11 -28 -30.5 -49t-44.5 -33t-52 -13.5t-53 9.5q-26 10 -46.5 30.5t-32 46t-13 53.5t9.5 54l782 1942
q12 30 40 49.5t62 19.5q38 0 66 -19.5t41 -49.5z" />
    <glyph glyph-name="B" unicode="B" horiz-adv-x="1556" 
d="M1032 1573q0 92 -29 153t-84 97t-134 50.5t-179 14.5h-164v-635h164q60 0 115.5 4t102.5 16t85.5 34t66 57.5t42 86.5t14.5 122zM1212 631q0 96 -42.5 172.5t-116.5 114.5q-39 20 -85.5 31.5t-97 17t-103 7t-103.5 1.5h-222v-705h250q112 0 207.5 17t165 58.5t108.5 111
t39 174.5zM299 0q-29 0 -54.5 10.5t-44.5 29.5t-29.5 44.5t-10.5 54.5v1884q0 29 10.5 54.5t29.5 44.5t44.5 30t54.5 11h356q148 0 270 -35t209.5 -109.5t136 -190t48.5 -276.5q0 -119 -32.5 -211.5t-115.5 -169.5q158 -83 243 -221.5t85 -314.5q0 -111 -27.5 -201
t-76 -160.5t-116.5 -122t-149 -85t-172.5 -50t-187.5 -16.5h-471z" />
    <glyph glyph-name="C" unicode="C" horiz-adv-x="1913" 
d="M1769 2015q22 -17 37 -39.5t21 -47t2 -51t-19 -50.5q-15 -23 -38 -39.5t-48.5 -23t-52 -1.5t-49.5 23q-35 26 -89.5 49.5t-117.5 41.5t-129.5 29t-126.5 11q-113 0 -218 -31.5t-196.5 -88.5t-167.5 -135.5t-130.5 -173.5t-84.5 -202t-30 -221q0 -107 31 -209t86 -193.5
t132 -168.5t169 -133t196 -87.5t213 -31.5q60 0 126.5 11t129.5 30t117.5 43.5t89.5 50.5q23 18 49.5 22.5t52 -2t48.5 -22.5t38 -39q15 -25 19.5 -51.5t-1.5 -52t-21 -48t-38 -37.5q-49 -35 -114.5 -67t-143.5 -56t-166 -38.5t-182 -14.5q-151 0 -292 40t-265.5 112
t-227.5 173.5t-177 224.5t-115 264t-41 292q0 153 41 295t115 265.5t177.5 225.5t228 175t267 113t293.5 40q86 0 173 -14.5t166.5 -38.5t147 -56t115.5 -67z" />
    <glyph glyph-name="D" unicode="D" horiz-adv-x="1778" 
d="M602 2163q165 0 313 -34t274.5 -98.5t227.5 -158.5t172.5 -214.5t109.5 -266.5t38 -314q0 -166 -39 -310t-111.5 -264t-174.5 -213.5t-228 -158t-273 -98t-309 -33.5h-299q-29 0 -54.5 10.5t-44.5 29.5t-29.5 44.5t-10.5 54.5v1884q0 29 10.5 54.5t29.5 44.5t44.5 30
t54.5 11h299zM1450 1077q0 186 -63 336t-175.5 255.5t-269.5 162.5t-344 57h-152v-1618h152q186 0 342.5 57t269.5 162.5t176.5 254.5t63.5 333z" />
    <glyph glyph-name="E" unicode="E" horiz-adv-x="1380" 
d="M299 0q-29 0 -54.5 10.5t-44.5 29.5t-29.5 44.5t-10.5 54.5v1884q0 29 10.5 54.5t29.5 44.5t44.5 30t54.5 11h856q29 0 54.5 -11t44 -30t29.5 -44.5t11 -54.5t-11 -53.5t-29.5 -42.5t-44 -28.5t-54.5 -10.5h-713v-577h713q29 0 54.5 -11t44 -30t29.5 -44.5t11 -54.5
t-11 -53.5t-29.5 -42.5t-44 -28.5t-54.5 -10.5h-713v-762h713q29 0 54.5 -11t44 -29.5t29.5 -44t11 -54.5t-11 -54t-29.5 -43t-44 -28t-54.5 -10h-856z" />
    <glyph glyph-name="F" unicode="F" horiz-adv-x="1204" 
d="M160 2023q0 29 10.5 54.5t29.5 44.5t44.5 30t54.5 11h725q29 0 54.5 -11t44 -30t29.5 -44.5t11 -54.5t-11 -53.5t-29.5 -42.5t-44 -28.5t-54.5 -10.5h-578v-577h578q29 0 54.5 -11t44 -30t29.5 -44.5t11 -54.5t-11 -53.5t-29.5 -42.5t-44 -28.5t-54.5 -10.5h-578v-909
q0 -31 -11.5 -57.5t-31.5 -46.5t-46.5 -31.5t-57.5 -11.5q-29 0 -54.5 11.5t-44.5 31.5t-29.5 46.5t-10.5 57.5v1896z" />
    <glyph glyph-name="G" unicode="G" horiz-adv-x="2347" 
d="M2146 1225q29 0 55.5 -11.5t46 -31t31 -46t11.5 -55.5q0 -152 -37 -294t-105.5 -265t-166.5 -224.5t-219.5 -174t-264 -112.5t-301.5 -40q-156 0 -300.5 39.5t-270.5 111.5t-230 173.5t-178 225t-115 265t-41 295.5q0 153 41 294.5t115 265t178 225t230 173.5t270.5 112
t300.5 40q147 0 284.5 -37.5t258 -103t221 -154.5t174.5 -192q17 -25 22.5 -53.5t0.5 -56.5t-20 -53t-40 -42q-24 -17 -52 -22t-55.5 1t-52 22t-41.5 40q-270 369 -700 369q-117 0 -225 -29.5t-202.5 -83t-172 -129t-132.5 -167.5t-85.5 -198t-30.5 -221q0 -114 30.5 -220
t85.5 -198t132.5 -167.5t172 -129t202.5 -83t225 -29.5q154 0 288 51.5t238.5 143t174 217t94.5 272.5h-754q-65 0 -106 38.5t-41 100.5q0 32 11 59.5t30.5 47t46.5 30.5t59 11h909z" />
    <glyph glyph-name="H" unicode="H" horiz-adv-x="1942" 
d="M1499 1032h-1057v-909q0 -29 -11.5 -55t-31 -45.5t-45.5 -31t-55 -11.5t-54.5 11.5t-44.5 31t-29.5 45.5t-10.5 55v1917q0 29 10.5 55t29.5 45.5t44.5 31t54.5 11.5t55 -11.5t45.5 -31t31 -45.5t11.5 -55v-729h1057v729q0 29 11 55t29.5 45.5t44 31t54.5 11.5t55.5 -11.5
t46 -31t31 -45.5t11.5 -55v-1917q0 -29 -11.5 -55t-31 -45.5t-46 -31t-55.5 -11.5t-54.5 11.5t-44 31t-29.5 45.5t-11 55v909z" />
    <glyph glyph-name="I" unicode="I" horiz-adv-x="643" 
d="M467 123q0 -29 -11.5 -55t-31 -45.5t-45.5 -31t-55 -11.5t-56 11.5t-47.5 31t-32.5 45.5t-12 55v1917q0 29 12 55t32.5 45.5t47.5 31t56 11.5t55 -11.5t45.5 -31t31 -45.5t11.5 -55v-1917z" />
    <glyph glyph-name="J" unicode="J" horiz-adv-x="627" 
d="M-193 -479q-26 13 -43.5 35t-25.5 48t-6.5 54.5t14.5 54.5t35 43.5t48.5 25t55 5t54.5 -16.5q18 -10 37 -15.5t40 -5.5q36 0 66 14t51.5 37.5t34 55t12.5 66.5v2118q0 29 12 55t32 45.5t46 31t54 11.5q29 0 55 -11.5t45.5 -31t31 -45.5t11.5 -55v-2118
q0 -92 -35.5 -174.5t-96.5 -144.5t-143 -98.5t-176 -36.5q-49 0 -100.5 12t-108.5 41z" />
    <glyph glyph-name="K" unicode="K" horiz-adv-x="1692" 
d="M1520 221q20 -21 30.5 -48t10.5 -55t-10 -54.5t-31 -47.5t-47.5 -30.5t-54 -8.5t-53.5 12t-46 31l-877 889v-786q0 -29 -11.5 -55t-31 -45.5t-45.5 -31t-55 -11.5t-54.5 11.5t-44.5 31t-29.5 45.5t-10.5 55v1917q0 29 10.5 55t29.5 45.5t44.5 31t54.5 11.5t55 -11.5
t45.5 -31t31 -45.5t11.5 -55v-705l815 807q20 20 45.5 31t52.5 12t52.5 -8.5t46.5 -30.5t31 -46.5t9.5 -52.5t-10.5 -53.5t-30 -47.5l-831 -824z" />
    <glyph glyph-name="L" unicode="L" horiz-adv-x="963" 
d="M299 0q-29 0 -54 10t-43 28t-28 43t-10 54v1909q0 28 12 53t32 44t45.5 30.5t53.5 11.5t53 -11.5t44 -30.5t30.5 -44t11.5 -53v-1774h390q29 0 53.5 -10.5t42.5 -29t28.5 -43t10.5 -52.5q0 -29 -10.5 -54t-28.5 -43t-42.5 -28t-53.5 -10h-537z" />
    <glyph glyph-name="M" unicode="M" horiz-adv-x="2511" 
d="M623 1384l-41 140l-17 -135l-262 -1299q-5 -28 -20.5 -50.5t-38 -37t-50 -19.5t-55.5 1q-27 4 -49.5 20t-37 38.5t-20 50t0.5 54.5l394 1942q8 36 36.5 60t66.5 24q34 0 60.5 -19t38.5 -48l628 -1569l629 1569q12 29 38.5 48t60.5 19q38 0 66.5 -24t36.5 -60l390 -1942
q6 -27 0 -54.5t-20 -50t-36.5 -38.5t-49.5 -20q-28 -6 -56 -1t-51.5 19.5t-40 37t-20.5 50.5l-254 1303l-13 127l-41 -131l-529 -1328q-13 -32 -41.5 -51.5t-65.5 -19.5q-35 0 -63.5 20.5t-41.5 52.5z" />
    <glyph glyph-name="N" unicode="N" horiz-adv-x="2277" 
d="M2118 106q0 -24 -9 -45t-25 -37t-37 -25t-45 -9q-25 0 -46.5 10t-37.5 27l-1476 1620v-1524q0 -29 -11.5 -55t-31 -45.5t-45.5 -31t-55 -11.5q-26 0 -51 11.5t-44.5 31t-31.5 45.5t-12 55v1934q0 24 9 45t25 37t37 25t45 9q25 0 46.5 -10t37.5 -27l1475 -1608v1512
q0 29 12 55t31.5 45.5t44.5 31t51 11.5q29 0 55.5 -11.5t46 -31t31 -45.5t11.5 -55v-1934z" />
    <glyph glyph-name="O" unicode="O" horiz-adv-x="2343" 
d="M2286 1081q0 -153 -40.5 -294.5t-113.5 -264.5t-175.5 -224.5t-226.5 -174t-265.5 -112.5t-293.5 -40q-153 0 -294.5 40t-265.5 112.5t-226 174t-175 224.5t-113 265t-40 294t40 293t113 264.5t175 225t226 174.5t266 113t294 40t293.5 -40t265.5 -113t226.5 -174.5
t175.5 -225t113.5 -264.5t40.5 -293zM1999 1081q0 114 -30.5 220t-85 199t-131 169.5t-168.5 131.5t-196.5 85.5t-216.5 30.5q-113 0 -218 -30.5t-196.5 -85.5t-167.5 -131.5t-130.5 -169.5t-84.5 -199t-30 -220t30 -220t84.5 -199.5t130.5 -170.5t167.5 -132.5t197 -86
t217.5 -30.5t216.5 30.5t196.5 86t168.5 132.5t131 170.5t85 200t30.5 219.5z" />
    <glyph glyph-name="P" unicode="P" horiz-adv-x="1294" 
d="M995 1561q0 96 -33.5 159t-90.5 100.5t-133 52.5t-160 15h-136v-663h152q82 0 155 19t127.5 59.5t86.5 104.5t32 153zM160 2023q0 29 10.5 54.5t29.5 44.5t44.5 30t54.5 11h291q137 0 262 -37.5t219.5 -113.5t150.5 -191t56 -269q0 -151 -57 -264t-152.5 -188
t-219.5 -112.5t-259 -37.5h-148v-827q0 -29 -11.5 -55t-31 -45.5t-45.5 -31t-55 -11.5q-26 0 -51 11.5t-44.5 31t-31.5 45.5t-12 55v1900z" />
    <glyph glyph-name="Q" unicode="Q" horiz-adv-x="2339" 
d="M1823 578q86 114 131 232.5t45 254.5q0 117 -29 225.5t-82 203t-127.5 172.5t-166 134t-197.5 86.5t-221 30.5q-112 0 -216.5 -30.5t-196.5 -85.5t-168.5 -131.5t-131 -169.5t-85 -199t-30.5 -220q0 -116 30 -223t84.5 -200.5t131 -170t169 -131t198 -84.5t219.5 -30
q111 0 220.5 40t217.5 111l-299 312q-20 20 -30 46.5t-10.5 54.5t9.5 55t31 48t47 31t53.5 9.5t54 -11.5t46.5 -33zM2179 201q20 -20 30 -46t10 -53t-10 -52.5t-30 -45.5t-45 -30t-51 -9.5t-51 11.5t-45 32l-172 172q-146 -102 -308 -155.5t-336 -53.5q-153 0 -294.5 39.5
t-265.5 111t-226 172.5t-175 224.5t-113 266t-40 296.5q0 153 40.5 294.5t114 265t176 225t227 173.5t266.5 112t295 40q150 0 291.5 -39.5t265 -111.5t226 -172.5t176.5 -223t114.5 -263t40.5 -291.5q0 -209 -65 -387t-197 -338z" />
    <glyph glyph-name="R" unicode="R" horiz-adv-x="1479" 
d="M1036 1556q0 98 -34.5 162.5t-93 102t-134.5 52.5t-160 15h-170v-663h187q79 0 152.5 19t129.5 59t89.5 102.5t33.5 150.5zM160 2023q0 29 10.5 54.5t29.5 44.5t44.5 30t54.5 11h287q96 0 188 -14.5t174 -45.5t151 -79t118.5 -116t77.5 -156.5t28 -199.5
q0 -128 -36.5 -228t-103 -173.5t-159.5 -119.5t-205 -64l508 -746q34 -49 37 -105t-37 -100q-21 -20 -49.5 -30.5t-57 -10.5t-54 11t-40.5 34l-622 914h-62v-815q0 -28 -11.5 -53t-30.5 -44t-44 -30.5t-53 -11.5t-53.5 11.5t-45.5 30.5t-32 44t-12 53v1904z" />
    <glyph glyph-name="S" unicode="S" horiz-adv-x="1507" 
d="M1438 623q0 -134 -44 -251t-129.5 -204t-212 -137.5t-290.5 -50.5q-105 0 -195.5 22t-164 57.5t-129 81t-89.5 92.5q-29 39 -40 75.5t-8.5 67.5t15.5 55.5t33 39.5q37 28 84.5 24.5t87.5 -49.5q29 -35 69.5 -72t91.5 -67t111.5 -49.5t129.5 -19.5q103 0 178.5 33
t125 85.5t73.5 119t24 134.5q0 97 -36.5 165t-98 118.5t-141.5 87.5t-166 72l-129 52.5t-125 61.5t-112.5 76.5t-91 98t-61 126.5t-22.5 162q0 140 47.5 245.5t130 176.5t193.5 107t239 36q105 0 184 -15.5t139 -41t103.5 -59t77.5 -68.5q56 -62 59.5 -119.5t-42.5 -97.5
q-17 -14 -39.5 -21t-48.5 -4.5t-56 16t-61 42.5q-26 24 -55 44t-66 34.5t-84.5 23t-110.5 8.5q-78 0 -139 -21.5t-102.5 -60t-63.5 -91t-22 -113.5q0 -74 31.5 -128t85 -96.5t125 -76.5t151.5 -68l138.5 -61.5t135.5 -70.5t122 -87.5t99 -111.5t66.5 -144t24.5 -184z" />
    <glyph glyph-name="T" unicode="T" horiz-adv-x="1331" 
d="M1208 2163q31 0 56.5 -11t44 -30t29 -44.5t10.5 -54.5t-10.5 -53.5t-29 -42.5t-44 -28.5t-56.5 -10.5h-401v-1769q0 -28 -11.5 -53t-30.5 -44t-44.5 -30.5t-52.5 -11.5q-28 0 -54 11.5t-46 30.5t-32 44t-12 53v1769h-401q-31 0 -56.5 10.5t-44 28.5t-28.5 42.5t-10 53.5
t10 54.5t28.5 44.5t44 30t56.5 11h1085z" />
    <glyph glyph-name="U" unicode="U" horiz-adv-x="1835" 
d="M1389 2040q0 29 10.5 55.5t29.5 47t44.5 32.5t54.5 12q31 0 57.5 -12t46.5 -32.5t31.5 -47t11.5 -55.5v-1209q0 -40 -0.5 -77t-3.5 -74q-2 -60 -9.5 -116.5t-25 -111t-45.5 -107.5t-71 -107q-56 -66 -126 -117t-149 -85t-162.5 -51.5t-164.5 -17.5q-87 0 -171.5 17.5
t-161.5 51.5t-144 83t-120.5 112t-91 138.5t-53.5 162.5q-12 72 -14 147t-2 152v1209q0 29 10.5 55.5t29.5 47t44.5 32.5t54.5 12q31 0 57.5 -12t46.5 -32.5t31.5 -47t11.5 -55.5v-1168q0 -72 2 -137t11 -122.5t27.5 -107.5t50.5 -91q32 -42 76.5 -74t95 -53.5t104.5 -33
t105 -11.5t106 11.5t106.5 33t96.5 53.5t76 74q32 41 49.5 91t25.5 107.5t9.5 122.5t1.5 137v1168z" />
    <glyph glyph-name="V" unicode="V" horiz-adv-x="1671" 
d="M61 1995q-9 26 -7 54t13.5 52.5t32 44.5t47.5 29q26 9 54 7.5t53 -13t45 -32t29 -48.5l471 -1376l37 -148l36 148l471 1376q9 28 29 48.5t45 32t53 13t54 -7.5q27 -9 47.5 -29t32 -44.5t13.5 -52.5t-7 -54l-675 -1931q-11 -32 -39.5 -53t-65.5 -21q-35 0 -63 20.5
t-39 52.5z" />
    <glyph glyph-name="W" unicode="W" horiz-adv-x="3076" 
d="M1439 2098q14 32 41.5 53.5t63.5 21.5q38 0 66.5 -21.5t42.5 -54.5l579 -1384l49 -160l41 164l435 1372q9 28 28.5 48.5t44.5 32t53 13t54 -7.5q28 -9 48 -28.5t31 -44.5t13 -53t-6 -54l-622 -1930q-11 -33 -40.5 -54t-67.5 -21q-35 0 -62.5 21t-40.5 53l-613 1492
l-41 136l-37 -136l-612 -1491q-14 -32 -42 -53.5t-66 -21.5q-35 0 -63.5 21t-39.5 53l-615 1931q-9 26 -7 54t13.5 52.5t32 44.5t47.5 29q26 9 54 7.5t53 -13t45 -32t29 -48.5l442 -1384l37 -156l45 151z" />
    <glyph glyph-name="X" unicode="X" horiz-adv-x="1511" 
d="M1405 188q14 -26 17.5 -54t-2.5 -54t-22 -48t-42 -36t-54.5 -17t-54.5 4t-48 23.5t-36 42.5l-413 770l-406 -770q-14 -26 -36 -42.5t-48 -23.5t-54 -4t-54 17t-42.5 36t-22.5 48t-2.5 54t17.5 54l488 914l-467 872q-14 26 -18 54.5t2 54.5t22.5 48t42.5 36t54.5 17
t54.5 -4t48 -23.5t36 -42.5l389 -717l381 717q13 26 35 42.5t48 23.5t54.5 4t54.5 -17t42.5 -36t22.5 -48t2 -54.5t-18 -54.5l-463 -872z" />
    <glyph glyph-name="Y" unicode="Y" horiz-adv-x="1737" 
d="M1016 913v-790q0 -28 -12 -53.5t-32 -45.5t-46 -32t-54 -12q-29 0 -56 12t-48 32t-34 45.5t-13 53.5v790l-610 1061q-14 26 -18 55t2 56t22.5 49.5t42.5 36.5q27 14 56 17t55.5 -4.5t48.5 -25t36 -44.5l512 -893l512 893q14 27 36 44.5t48.5 25t55.5 4.5t57 -17
q26 -14 42.5 -36.5t22.5 -49.5t2 -56t-18 -55z" />
    <glyph glyph-name="Z" unicode="Z" horiz-adv-x="1634" 
d="M254 0q-37 0 -69 13.5t-56 37.5t-37.5 56t-13.5 69q0 26 7.5 51t20.5 45l1065 1616h-942q-31 0 -56.5 10.5t-44 28.5t-28.5 42.5t-10 53.5t10 54.5t28.5 44.5t44 30t56.5 11h1147q34 0 63.5 -12.5t51.5 -34.5t34.5 -51.5t12.5 -63.5q0 -24 -7 -46.5t-19 -41.5
l-1082 -1643h983q29 0 54 -10.5t43 -29t28 -43t10 -52.5q0 -29 -10 -54t-28 -43t-43 -28t-54 -10h-1159z" />
    <glyph glyph-name="bracketleft" unicode="[" horiz-adv-x="819" 
d="M250 -487q-29 0 -54 10.5t-43 29t-28 43t-10 52.5v2531q0 28 10 52.5t28 43t43 29t54 10.5h360q29 0 54 -10.5t43 -29t28 -43t10 -52.5q0 -29 -10 -54t-28 -43t-43 -28t-54 -10h-225v-2261h225q29 0 54 -11t43 -29.5t28 -43t10 -51.5q0 -29 -10 -54t-28 -43t-43 -28
t-54 -10h-360z" />
    <glyph glyph-name="backslash" unicode="\" horiz-adv-x="1876" 
d="M1688 127q12 -21 15 -45.5t-2 -48t-19 -44t-35 -34.5q-23 -12 -49 -14.5t-50.5 3.5t-45 20.5t-32.5 35.5l-1253 2273q-28 50 -14 97t63 75q47 25 93.5 11.5t74.5 -60.5z" />
    <glyph glyph-name="bracketright" unicode="]" horiz-adv-x="819" 
d="M210 -487q-29 0 -54 10t-43 28t-28 43t-10 54q0 27 10 51.5t28 43t43 29.5t54 11h225v2261h-225q-29 0 -54 10t-43 28t-28 43t-10 54q0 28 10 52.5t28 43t43 29t54 10.5h360q29 0 54 -10.5t43 -29t28 -43t10 -52.5v-2531q0 -28 -10 -52.5t-28 -43t-43 -29t-54 -10.5h-360
z" />
    <glyph glyph-name="asciicircum" unicode="^" horiz-adv-x="1688" 
d="M1589 954q11 -23 12 -48t-7 -48t-25 -42t-41 -30q-23 -12 -47.5 -13t-47 7t-42 24.5t-31.5 39.5l-516 1036l-512 -1036q-12 -23 -31.5 -39.5t-42 -24.5t-47 -7t-47.5 13q-25 11 -42 30t-25 42.5t-7 48t12 47.5l587 1189q22 45 63 72t92 27q52 0 93.5 -26.5t62.5 -69.5z
" />
    <glyph glyph-name="underscore" unicode="_" horiz-adv-x="1552" 
d="M119 -385q-28 0 -52 9t-41.5 25t-27.5 38.5t-10 50.5t10 51t27.5 40t41.5 26.5t52 9.5h1315q27 0 51 -9.5t42 -26.5t28 -40t10 -51t-10 -50.5t-28 -38.5t-42 -25t-51 -9h-1315z" />
    <glyph glyph-name="grave" unicode="`" horiz-adv-x="836" 
d="M180 1901q-21 24 -28 53t-1 57t24 54t46 44q26 19 55.5 25.5t58 1.5t53.5 -21t42 -42l250 -385q28 -44 14.5 -90.5t-59.5 -77.5q-40 -25 -83 -14.5t-77 50.5z" />
    <glyph glyph-name="a" unicode="a" horiz-adv-x="1753" 
d="M1339 774q0 109 -35.5 201.5t-101.5 159.5t-160 105t-211 38q-106 0 -196 -42.5t-155.5 -114t-102.5 -165t-37 -194.5q0 -109 35 -206.5t99.5 -171t157 -116.5t208.5 -43q118 0 211 42.5t157 117t97.5 174.5t33.5 215zM1597 106q0 -27 -10.5 -51.5t-29 -43t-43 -29.5
t-52.5 -11q-27 0 -51.5 11t-43 29.5t-29.5 43t-11 51.5v41q-195 -176 -483 -176q-180 0 -323 63t-243.5 171t-154 252t-53.5 305t53.5 301.5t153 244.5t241 164t318.5 60q289 0 491 -172v37q0 27 11 51.5t29.5 43t43 29.5t51.5 11q28 0 52.5 -11t43 -29.5t29 -43t10.5 -51.5
v-1291z" />
    <glyph glyph-name="b" unicode="b" horiz-adv-x="1757" 
d="M1417 766q0 103 -37 197t-103 166t-157 114.5t-198 42.5q-122 0 -216.5 -39t-159 -108.5t-98.5 -165t-34 -207.5t34 -210t98.5 -170.5t157 -114.5t209.5 -42t210.5 43t158.5 116.5t100 171t35 206.5zM152 2327q0 27 10.5 51.5t29 43t43 29.5t52.5 11q29 0 54.5 -11
t44 -29.5t29.5 -43t11 -51.5v-951q51 43 109 74t121 51t129.5 29.5t132.5 9.5q178 0 320.5 -59.5t242.5 -163.5t153.5 -245.5t53.5 -305.5q0 -108 -24.5 -208t-71 -188t-113.5 -160.5t-153.5 -125t-190 -81t-222.5 -28.5q-66 0 -132 11t-128.5 33t-120 55t-106.5 78v-41
q0 -28 -11 -52.5t-29.5 -43t-44 -29.5t-54.5 -11q-28 0 -52.5 11t-43 29.5t-29 43t-10.5 52.5v2216z" />
    <glyph glyph-name="c" unicode="c" horiz-adv-x="1446" 
d="M1348 102q-42 -29 -96 -53.5t-115.5 -42.5t-127.5 -28.5t-132 -10.5q-116 0 -220.5 28t-194.5 78.5t-162.5 122t-123.5 159t-78.5 188.5t-27.5 211q0 108 28 208t79.5 186.5t124 157t162 121t194 78t219.5 27.5q66 0 132 -9.5t127.5 -27t115.5 -42.5t96 -56
q46 -34 61.5 -82.5t-12.5 -97.5q-14 -25 -35 -41t-45.5 -22.5t-50.5 -2.5t-49 20q-27 18 -65 37.5t-83 36t-95.5 27t-101.5 10.5q-112 0 -208.5 -43t-167.5 -115.5t-111.5 -168t-40.5 -201.5t40.5 -202.5t111.5 -170t167.5 -117t208.5 -43.5q51 0 102 9t96.5 24t83.5 34.5
t63 39.5q21 18 47 22.5t50.5 -2.5t46.5 -24t36 -41q28 -50 12.5 -98.5t-61.5 -82.5z" />
    <glyph glyph-name="d" unicode="d" horiz-adv-x="1757" 
d="M340 766q0 -109 35 -206.5t100 -171t158.5 -116.5t210.5 -43t209.5 42t157 114.5t98.5 170.5t34 210t-34 207.5t-98.5 165t-159 108.5t-215.5 39q-108 0 -199 -42.5t-157 -114.5t-103 -166t-37 -197zM1606 111q0 -28 -11 -52.5t-29.5 -43t-43 -29.5t-52.5 -11
q-29 0 -54.5 11t-44 29.5t-29.5 43t-11 52.5v41q-49 -45 -106.5 -78t-120 -55t-128.5 -33t-132 -11q-178 0 -321.5 63t-244 171t-154.5 252t-54 305q0 164 53.5 305.5t153.5 245.5t242.5 163.5t320.5 59.5q66 0 132 -9.5t129 -29.5t121 -51t109 -74v951q0 27 11 51.5
t29.5 43t44 29.5t54.5 11q28 0 52.5 -11t43 -29.5t29.5 -43t11 -51.5v-2216z" />
    <glyph glyph-name="e" unicode="e" horiz-adv-x="1659" 
d="M344 676q11 -106 52.5 -190.5t108 -143t154.5 -90t193 -31.5q310 12 426 238q14 24 34.5 41.5t45 25.5t50.5 6t50 -16q25 -14 41 -34.5t22.5 -45t3 -50.5t-17.5 -50q-37 -74 -103 -141t-154 -117.5t-193.5 -80.5t-220.5 -30q-118 0 -220.5 29t-187.5 81.5t-151.5 125
t-112.5 160t-70 187t-24 204.5q0 103 24 201t70 184.5t112.5 158.5t151.5 124t187.5 81t220.5 29q100 0 194 -24.5t177 -70.5t151.5 -111t118 -146.5t77 -177t27.5 -201.5q0 -26 -10 -48.5t-27 -39.5t-39.5 -27t-48.5 -10h-1112zM1303 926q-23 75 -67 139.5t-104 111.5
t-135 74t-161 27t-163 -27t-140 -74t-108.5 -111.5t-68.5 -139.5h947z" />
    <glyph glyph-name="f" unicode="f" horiz-adv-x="774" 
d="M721 2200q-16 5 -39 6.5t-51 1.5q-49 0 -81.5 -14t-52 -38t-28.5 -56t-12 -68t-2.5 -74t0.5 -74v-389h254q26 0 49 -10t40.5 -27.5t27.5 -40.5t10 -49t-10 -49.5t-27.5 -40.5t-40.5 -27t-49 -10h-254v-1130q0 -28 -11 -52.5t-30 -43t-44.5 -29.5t-54.5 -11
q-27 0 -51.5 11t-43 29.5t-29.5 43t-11 52.5v1130h-53q-26 0 -49.5 10t-40.5 27t-27 40.5t-10 49.5t10 49t27 40.5t40.5 27.5t49.5 10h53v397q0 37 1 83.5t7 96t19.5 98.5t38.5 91q29 51 71 88.5t91.5 62.5t104 37.5t110.5 12.5q37 0 83.5 -5.5t96.5 -27.5q23 -9 40.5 -26.5
t27.5 -39t12 -45t-6 -45.5q-9 -23 -25.5 -39.5t-38 -26t-45.5 -11.5t-47 4z" />
    <glyph glyph-name="g" unicode="g" horiz-adv-x="1757" 
d="M1343 766q0 106 -36 198t-103 160t-161.5 107t-211.5 39q-106 0 -195 -42.5t-154 -114.5t-101.5 -166t-36.5 -197q0 -111 35 -209t100 -172t157.5 -117t207.5 -43q120 0 212.5 43.5t156.5 118.5t97 176.5t33 218.5zM66 -225q-5 26 0.5 51.5t20 46.5t36.5 36t49 21
q27 5 52.5 -0.5t47 -19.5t36.5 -36t20 -50q12 -72 52 -140t103 -120.5t146.5 -84.5t181.5 -32q113 0 195.5 26t141 72.5t95 110t57 139.5t28 161.5t7.5 174.5q-108 -87 -236 -131.5t-268 -44.5q-115 0 -215.5 30t-185 83t-151.5 126.5t-113.5 161t-71 185.5t-24.5 200
q0 107 26 207t74.5 187t118 158.5t156.5 123t189.5 79.5t217.5 28q282 0 483 -176v49q0 27 11 51.5t29.5 43t43 29.5t51.5 11q28 0 52.5 -11t43 -29.5t29.5 -43t11 -51.5v-1285q0 -122 -17.5 -237t-55.5 -216.5t-99 -186.5t-148 -146t-202 -95t-261 -34q-148 0 -282 43.5
t-242 132.5q-54 43 -94 93t-68.5 102t-46 105t-24.5 102z" />
    <glyph glyph-name="h" unicode="h" horiz-adv-x="1536" 
d="M152 2331q0 27 10.5 51.5t29 43t43 29.5t52.5 11q27 0 51.5 -11t43 -29.5t29.5 -43t11 -51.5v-938q167 143 393 143q168 0 277.5 -47.5t174.5 -132.5t91 -203.5t26 -259.5v-782q0 -28 -11 -52.5t-29.5 -43t-44 -29.5t-54.5 -11q-28 0 -52.5 11t-43 29.5t-29 43
t-10.5 52.5v782q0 92 -11.5 164.5t-44.5 122.5t-93 76t-158 26q-78 0 -136.5 -20.5t-100.5 -57t-70 -87t-44.5 -110.5t-23 -127.5t-6.5 -138.5v-630q0 -28 -11 -52.5t-29.5 -43t-43 -29.5t-51.5 -11q-28 0 -52.5 11t-43 29.5t-29 43t-10.5 52.5v2220z" />
    <glyph glyph-name="i" unicode="i" horiz-adv-x="614" 
d="M504 2007q0 -42 -15 -77t-41.5 -60.5t-62.5 -40t-78 -14.5q-41 0 -76.5 14.5t-61 40t-40 60.5t-14.5 77q0 38 14.5 73t40 61.5t61 42.5t76.5 16q42 0 78 -16t62.5 -42.5t41.5 -61.5t15 -73zM168 1376q0 29 10.5 54.5t29.5 44.5t44.5 30t54.5 11t54.5 -11t44 -30
t29.5 -44.5t11 -54.5v-1257q0 -29 -11 -54.5t-29.5 -44.5t-44 -29.5t-54.5 -10.5t-54.5 10.5t-44.5 29.5t-29.5 44.5t-10.5 54.5v1257z" />
    <glyph glyph-name="j" unicode="j" horiz-adv-x="614" 
d="M504 2007q0 -42 -15 -77t-41.5 -60.5t-62.5 -40t-78 -14.5q-41 0 -76.5 14.5t-61 40t-40 60.5t-14.5 77q0 38 14.5 73t40 61.5t61 42.5t76.5 16q42 0 78 -16t62.5 -42.5t41.5 -61.5t15 -73zM168 1376q0 29 10.5 54.5t29.5 44.5t44.5 30t54.5 11t54.5 -11t44 -30
t29.5 -44.5t11 -54.5v-2134q0 -29 -11 -54.5t-29.5 -44.5t-44 -29.5t-54.5 -10.5t-54.5 10.5t-44.5 29.5t-29.5 44.5t-10.5 54.5v2134z" />
    <glyph glyph-name="k" unicode="k" horiz-adv-x="1413" 
d="M1274 205q20 -20 28 -46t6 -52.5t-14 -51.5t-32 -43q-20 -17 -44.5 -24t-49.5 -4.5t-49 14t-42 31.5l-631 639l-12 -13v-536q0 -29 -11 -54.5t-29.5 -44.5t-44 -29.5t-54.5 -10.5t-54 10.5t-43 29.5t-28 44.5t-10 54.5v2208q0 29 10 54.5t28 44t43 29.5t54 11t54.5 -11
t44 -29.5t29.5 -44t11 -54.5v-1295l586 438q22 16 47 26.5t50.5 13t50 -5t44.5 -26.5q19 -19 31 -43.5t13.5 -50t-8 -49.5t-31.5 -41l-586 -446z" />
    <glyph glyph-name="l" unicode="l" horiz-adv-x="614" 
d="M168 2331q0 29 10.5 54.5t29.5 44t44.5 29.5t54.5 11t54.5 -11t44 -29.5t29.5 -44t11 -54.5v-2212q0 -29 -11 -54.5t-29.5 -44.5t-44 -29.5t-54.5 -10.5t-54.5 10.5t-44.5 29.5t-29.5 44.5t-10.5 54.5v2212z" />
    <glyph glyph-name="m" unicode="m" horiz-adv-x="2277" 
d="M160 1380q0 26 10 50.5t28 43.5t43 30.5t54 11.5q28 0 52.5 -11.5t43 -30.5t29 -43.5t10.5 -50.5v-24q71 93 159 134.5t181 41.5q130 0 229 -52t164 -145q86 105 194.5 151t231.5 46q112 0 194.5 -24t141.5 -67.5t96.5 -102.5t59 -129.5t29.5 -148.5t8 -159v-778
q0 -29 -11 -55t-30.5 -45.5t-45.5 -31t-57 -11.5q-29 0 -54 11.5t-43 31t-28 45.5t-10 55v795q0 86 -10.5 153t-38.5 113t-76.5 70t-124.5 24q-106 0 -168.5 -35.5t-95 -96.5t-42 -143t-9.5 -176v-721q0 -26 -11 -50.5t-29.5 -43t-43 -30t-51.5 -11.5q-29 0 -54 11.5t-43 30
t-28 43t-10 50.5v775q0 89 -10.5 162t-40 125.5t-81.5 81t-135 28.5q-58 0 -103 -21.5t-78.5 -58t-57 -85t-37.5 -103t-20.5 -112.5t-6.5 -112v-667q0 -28 -11 -53t-29.5 -44t-44 -30.5t-54.5 -11.5t-54 11.5t-43 30.5t-28 44t-10 53v1261z" />
    <glyph glyph-name="n" unicode="n" horiz-adv-x="1524" 
d="M1090 885q0 104 -18.5 177.5t-55 119.5t-91 67t-126.5 21q-63 0 -114.5 -20.5t-92.5 -56t-71.5 -83t-50.5 -102t-30 -113t-10 -114.5v-662q0 -28 -10 -53t-28 -44t-43 -30.5t-54 -11.5t-54 11.5t-43 30.5t-28 44t-10 53v1261q0 26 10 50.5t28 43.5t43 30.5t54 11.5
q28 0 52.5 -11.5t43 -30.5t29 -43.5t10.5 -50.5v-37q35 46 79.5 80.5t94 58t102.5 35t105 11.5q153 0 259 -47t171 -131.5t94 -203t29 -261.5v-779q0 -26 -11 -50.5t-29.5 -43t-44 -30t-54.5 -11.5t-54 11.5t-43 30t-28 43t-10 50.5v779z" />
    <glyph glyph-name="o" unicode="o" horiz-adv-x="1733" 
d="M1663 758q0 -168 -61.5 -311.5t-169.5 -249.5t-254.5 -166t-317.5 -60q-110 0 -211 28t-188.5 79.5t-159.5 123t-123.5 158.5t-79.5 187t-28 207t28 207.5t79.5 187.5t123.5 159t159.5 123.5t189 80t210.5 28.5q114 0 217.5 -27t193 -77.5t162 -121t123.5 -157.5t79 -188
t28 -211zM1393 754q0 115 -41.5 211.5t-114 166t-171.5 108t-214 38.5q-106 0 -198 -41.5t-160 -113t-107 -167t-39 -202.5q0 -105 39.5 -200t108 -167t160 -115t196.5 -43q115 0 214 40.5t171.5 111.5t114 166.5t41.5 206.5z" />
    <glyph glyph-name="p" unicode="p" horiz-adv-x="1729" 
d="M1384 733q0 109 -34.5 208t-97 174t-150 119t-193.5 44q-117 0 -206 -43.5t-150 -118.5t-92 -176.5t-31 -218.5q0 -111 34 -203t97 -158t152 -102.5t200 -36.5q103 0 189.5 41t149 111t97.5 163t35 197zM160 1376q0 28 10 53t28 44.5t43 31t54 11.5t54.5 -11.5t44 -31
t29.5 -44.5t11 -53v-20q108 95 228 133.5t243 38.5q178 0 319 -63t238.5 -171t149 -252t51.5 -305q0 -164 -51.5 -305.5t-149 -245.5t-237 -163.5t-316.5 -59.5q-126 0 -246.5 40.5t-228.5 135.5v-884q0 -26 -11 -50.5t-29.5 -43.5t-44 -30.5t-54.5 -11.5t-54 11.5t-43 30.5
t-28 43.5t-10 50.5v2121z" />
    <glyph glyph-name="q" unicode="q" horiz-adv-x="1729" 
d="M344 733q0 -104 35 -197t97.5 -163t149 -111t189.5 -41q111 0 200 36.5t152 102.5t97 158t34 203q0 117 -31 218.5t-92 176.5t-150 118.5t-206 43.5q-106 0 -193.5 -44t-150 -119t-97 -174t-34.5 -208zM1569 -762q0 -26 -10.5 -50.5t-28.5 -43t-42.5 -30t-53.5 -11.5
t-54.5 11.5t-44.5 30t-30 43t-11 50.5v901q-107 -95 -228 -135.5t-247 -40.5q-177 0 -316.5 59.5t-236.5 163.5t-148.5 245.5t-51.5 305.5q0 161 51.5 305t149 252t238 171t318.5 63q123 0 243.5 -38.5t227.5 -133.5v20q0 28 11 53t30 44.5t44.5 31t54.5 11.5t53.5 -11.5
t42.5 -31t28.5 -44.5t10.5 -53v-2138z" />
    <glyph glyph-name="r" unicode="r" horiz-adv-x="950" 
d="M818 1215q-75 39 -132 36.5t-100 -34t-72 -85.5t-47 -118t-25.5 -131t-7.5 -124v-640q0 -28 -11 -53t-29.5 -44t-44 -30.5t-54.5 -11.5t-54 11.5t-43 30.5t-28 44t-10 53v1257q0 28 10 53t28 44.5t43 31t54 11.5t54.5 -11.5t44 -31t29.5 -44.5t11 -53v-20
q69 84 149.5 126.5t171.5 42.5q88 0 183 -42q28 -12 47.5 -34t29.5 -49.5t9.5 -58t-12.5 -59.5q-12 -26 -33.5 -45.5t-48 -29t-55.5 -8.5t-57 16z" />
    <glyph glyph-name="s" unicode="s" horiz-adv-x="1167" 
d="M49 377q-15 56 1.5 103t72.5 69q28 11 56 11t52 -10t42 -30t26 -49q17 -57 44.5 -103t64 -79t82.5 -50.5t100 -17.5q49 0 93 19t77 51.5t52 76.5t19 95q0 45 -14.5 76t-42 54.5t-69 42t-95.5 36.5q-83 29 -164 65.5t-145.5 88t-104.5 121.5t-40 167q0 95 36.5 172.5
t98 132t142 84t169.5 29.5q60 0 121.5 -19t116.5 -51.5t99 -76.5t69 -95q12 -26 16 -53t-0.5 -51.5t-18.5 -46.5t-38 -37q-23 -14 -48.5 -18t-50 2t-46 21t-36.5 40q-34 59 -86 93t-102 34q-32 0 -62 -12t-52.5 -32.5t-36 -47.5t-13.5 -56q0 -45 34.5 -79.5t84.5 -61.5
t105.5 -48l98.5 -38q74 -30 138 -68t111 -90t73.5 -121t26.5 -161q0 -111 -41 -202t-111.5 -156.5t-164 -101.5t-199.5 -36q-98 0 -185.5 32.5t-158.5 88.5t-121.5 131.5t-75.5 161.5z" />
    <glyph glyph-name="t" unicode="t" horiz-adv-x="881" 
d="M279 1921q0 28 10.5 52.5t29 43t43 29t52.5 10.5q29 0 54.5 -10.5t44 -29t29.5 -43t11 -52.5v-426h201q27 0 51 -10t42 -27.5t28 -41.5t10 -52q0 -26 -10 -49.5t-28 -40.5t-42 -27t-51 -10h-201v-1126q0 -28 -11 -52.5t-29.5 -43t-44 -29.5t-54.5 -11q-28 0 -52.5 11
t-43 29.5t-29 43t-10.5 52.5v1126h-111q-28 0 -52 10t-41.5 27t-27.5 40.5t-10 49.5q0 28 10 52t27.5 41.5t41.5 27.5t52 10h111v426z" />
    <glyph glyph-name="u" unicode="u" horiz-adv-x="1524" 
d="M1364 561q0 -83 -21.5 -160t-61 -144t-94 -121.5t-121.5 -94t-144 -61t-160 -21.5t-160 21.5t-144 61t-121.5 94t-94 121.5t-61 144t-21.5 160v823q0 28 10.5 52.5t29 43t43 29.5t52.5 11t52.5 -11t43 -29.5t29 -43t10.5 -52.5v-839q0 -69 25 -129t69.5 -104.5
t104.5 -69.5t129 -25t129.5 25t105.5 69.5t71 104.5t26 129v835q0 29 10.5 54.5t29 44.5t43 30t52.5 11q29 0 54.5 -11t44 -30t29.5 -44.5t11 -54.5v-819z" />
    <glyph glyph-name="v" unicode="v" horiz-adv-x="1413" 
d="M41 1327q-12 28 -13.5 55t7 50.5t26 41.5t41.5 29q53 25 102.5 5.5t74.5 -74.5l434 -963l417 963q12 27 32 46t44.5 28t51.5 8t53 -13q24 -11 41.5 -30t25.5 -43t7 -51.5t-13 -55.5l-550 -1260q-14 -32 -44 -52.5t-68 -20.5q-37 0 -66.5 20t-43.5 52z" />
    <glyph glyph-name="w" unicode="w" horiz-adv-x="2367" 
d="M1091 1438q12 30 38.5 48.5t60.5 18.5q35 0 62.5 -19t40.5 -49l399 -962l401 955q12 27 32 46t44 28t50 8t50 -13q50 -22 68 -71t-6 -105l-536 -1262q-14 -32 -43.5 -51.5t-65.5 -19.5q-37 0 -66.5 20t-43.5 52l-392 929l-372 -928q-13 -33 -43.5 -53t-67.5 -20
q-39 0 -69.5 20.5t-44.5 53.5l-546 1255q-12 29 -13.5 57.5t7.5 53t27 43.5t44 30q26 12 53 13t51.5 -8.5t44.5 -29t32 -48.5l413 -955z" />
    <glyph glyph-name="x" unicode="x" horiz-adv-x="1393" 
d="M1331 197q17 -20 24 -45t4.5 -50.5t-13.5 -49t-31 -40.5q-22 -18 -48.5 -26t-53 -6t-50.5 13.5t-41 31.5l-430 557l-430 -557q-17 -20 -40.5 -31.5t-49 -13.5t-51.5 6t-47 26q-20 17 -31.5 39.5t-14 47.5t4.5 49.5t24 44.5l463 598l-414 516q-17 20 -24 43.5t-4.5 47.5
t14 46t31.5 39q21 18 46.5 26t50 6t47.5 -13.5t40 -31.5l389 -479l373 475q17 22 40.5 34t49.5 14.5t53 -5.5t50 -26q20 -18 31 -42t13.5 -49t-4.5 -49.5t-24 -44.5l-401 -507z" />
    <glyph glyph-name="y" unicode="y" horiz-adv-x="1602" 
d="M647 -819q-11 -26 -31.5 -44t-45 -27t-52 -8t-51.5 13q-25 12 -41.5 32t-25 44t-7 51t12.5 53l282 668l-643 1360q-12 26 -13.5 53t7 51t26 44t41.5 32q25 12 51.5 12.5t51.5 -8.5t45.5 -27t32.5 -42l549 -1147l487 1147q12 24 32.5 42t45.5 27t51.5 8.5t50.5 -12.5
q25 -12 42 -32t25.5 -44t7.5 -51t-13 -53z" />
    <glyph glyph-name="z" unicode="z" horiz-adv-x="1450" 
d="M224 0q-32 0 -60.5 12.5t-49.5 33.5t-33.5 49.5t-12.5 60.5q0 29 10.5 55t28.5 47l872 983h-754q-26 0 -49 10t-40.5 27t-27.5 40.5t-10 49.5t10 49t27.5 40.5t40.5 27.5t49 10h1010q30 0 57 -11.5t47 -31.5t31.5 -47t11.5 -57q0 -28 -10 -52t-27 -44l-878 -998h799
q26 0 49 -10t40.5 -27.5t27.5 -40.5t10 -49t-10 -49.5t-27.5 -40.5t-40.5 -27t-49 -10h-1042z" />
    <glyph glyph-name="braceleft" unicode="{" horiz-adv-x="844" 
d="M688 -475q-92 7 -167.5 36t-129 87t-83 149t-29.5 222v493q0 48 -12.5 93.5t-38 86t-64 74.5t-90.5 57v189q55 25 93 57.5t62 70t34.5 80.5t10.5 91v508q0 132 31.5 222t86.5 145.5t130 82.5t162 33q26 2 51.5 -6t46 -23.5t35 -37.5t19.5 -48q3 -26 -5 -51t-24 -45.5
t-39 -34t-51 -16.5q-39 -5 -70.5 -10.5t-54 -21t-35 -44.5t-12.5 -80v-495q0 -97 -11.5 -169.5t-33.5 -128.5t-54 -98.5t-73 -79.5q41 -37 72.5 -80.5t52.5 -101.5t32 -132.5t11 -172.5v-487q0 -54 13 -84.5t36.5 -46t55.5 -20t71 -5.5q28 -2 51 -15t39 -33.5t24 -45.5
t5 -49q-5 -26 -19.5 -48t-34.5 -37.5t-44.5 -23.5t-49.5 -6z" />
    <glyph glyph-name="bar" unicode="|" horiz-adv-x="856" 
d="M291 2273q0 29 10 54.5t28 44.5t43 30t54 11t54.5 -11t44 -30t29.5 -44.5t11 -54.5v-2183q0 -29 -11 -54.5t-29.5 -44.5t-44 -29.5t-54.5 -10.5t-54 10.5t-43 29.5t-28 44.5t-10 54.5v2183z" />
    <glyph glyph-name="braceright" unicode="}" horiz-adv-x="844" 
d="M155 -475q-25 -2 -49.5 6t-44.5 23.5t-34.5 37.5t-19.5 48q-3 24 5 49t24 45.5t39 34t51 14.5q39 2 71 8t55.5 23.5t36.5 48.5t13 83v480q0 98 11 172.5t32 132.5t52.5 101.5t72.5 80.5q-41 37 -73 79.5t-54 98.5t-33.5 128.5t-11.5 169.5v495q0 51 -12.5 80t-35 44.5
t-54 21t-70.5 10.5q-28 3 -51.5 16.5t-39.5 34t-24 45.5t-4 51t18.5 48t35.5 37.5t46.5 23.5t51.5 6q87 -6 162 -33t130 -82.5t86.5 -145.5t31.5 -222v-508q0 -48 10.5 -91t34.5 -80.5t62 -70t93 -57.5v-189q-52 -23 -90.5 -57t-64 -74.5t-38 -86t-12.5 -93.5v-493
q0 -131 -29.5 -222t-83 -149t-129 -87t-167.5 -36z" />
    <glyph glyph-name="asciitilde" unicode="~" horiz-adv-x="1765" 
d="M1393 958q15 25 37.5 41.5t47.5 24.5t52 6t51 -14q25 -15 41.5 -38t23.5 -49t4.5 -53.5t-16.5 -52.5q-16 -28 -40 -62t-54.5 -69.5t-68 -69t-81 -60t-93.5 -42.5t-105 -16t-107.5 16.5t-102.5 41t-99 53t-98 53t-98.5 41t-100.5 16.5q-31 0 -59.5 -13t-55 -35.5
t-51 -53.5t-47.5 -66q-15 -23 -38 -38t-48.5 -21t-52.5 -1.5t-50 19.5q-24 15 -40 38t-22 48.5t-2 52.5t19 50l44 56t57.5 66t69.5 66.5t81.5 58t92.5 41t102 15.5q55 0 113.5 -16t116.5 -40t113.5 -52.5l104.5 -52.5t90.5 -40t71.5 -16q29 0 54.5 11.5t48.5 33.5t46 53
t48 69z" />
    <glyph glyph-name="sarainarrowthai" 
d="M-270 2388q26 0 49.5 -10t41.5 -27.5t29 -41.5t11 -52t-11 -51t-29 -40t-41.5 -26.5t-49.5 -9.5h-1192q-26 0 -50 9.5t-42 26.5t-28.5 40t-10.5 51t10.5 52t28.5 41.5t42 27.5t50 10h1192z" />
    <glyph glyph-name="saraiinarrowthai" 
d="M-1462 2130q-26 0 -50 9.5t-42 26.5t-28.5 40t-10.5 51t10.5 52t28.5 41.5t42 27.5t50 10h1040v135q0 28 11 52.5t29 43t41.5 29t49.5 10.5t49 -10.5t40.5 -29t27.5 -43t10 -52.5v-266q0 -28 -10.5 -51t-28.5 -40t-42 -26.5t-50 -9.5h-1167z" />
    <glyph glyph-name="sarauenarrowthai" 
d="M-307 2380q0 17 -7 32.5t-19 27.5t-27.5 19t-32.5 7t-32.5 -7t-27.5 -19t-19 -27.5t-7 -32.5t7 -32.5t19 -27.5t27.5 -19t32.5 -7t32.5 7t27.5 19t19 27.5t7 32.5zM-643 2388q1 54 21.5 99t54.5 77.5t78.5 51t95.5 18.5q54 0 100 -19t80.5 -52.5t54 -79t19.5 -99.5
t-20 -100t-54.5 -80.5t-79.5 -54t-96 -19.5h-1073q-26 0 -50 9.5t-42 26.5t-28.5 40t-10.5 51t10.5 52t28.5 41.5t42 27.5t50 10h819z" />
    <glyph glyph-name="saraueenarrowthai" 
d="M-1458 2130q-26 0 -50 9.5t-42 26.5t-28.5 40t-10.5 51t10.5 52t28.5 41.5t42 27.5t50 10h602v135q0 28 10.5 52.5t28.5 43t42 29t50 10.5t49 -10.5t40.5 -29t27.5 -43t10 -52.5v-135h176v135q0 28 11 52.5t29 43t41.5 29t49.5 10.5t49 -10.5t40.5 -29t27.5 -43t10 -52.5
v-266q0 -28 -10.5 -51t-28.5 -40t-42 -26.5t-50 -9.5h-1163z" />
    <glyph glyph-name="sarauchochanthai" 
d="M-532 -659q0 -26 -10 -50t-27.5 -42t-40.5 -29t-49 -11t-50 11t-42 29t-29 42t-11 50v237h-94q-27 0 -51 9t-42 25t-28 38.5t-10 50.5q0 56 38 87.5t93 31.5h226q26 0 49 -10t40.5 -27.5t27.5 -40.5t10 -49v-352z" />
    <glyph glyph-name="sarauuchochanthai" 
d="M-909 -180q27 0 51 -10t42 -28t28 -42t10 -51v-197q0 -20 7 -37.5t20 -31t30 -21.5t37 -8q46 0 72 29t26 69v217q0 26 11 50t29 42t41.5 28.5t49.5 10.5t49 -10.5t40.5 -28.5t27.5 -42t10 -50v-217q0 -74 -28 -139t-76 -113t-112 -76t-136 -28q-74 0 -139 25t-113 71.5
t-76 112.5t-28 147v66h-54q-27 0 -51 10t-42 27.5t-28 41.5t-10 52q0 27 10 51t28 42t42 28t51 10h181z" />
    <glyph glyph-name="saraileftthai" 
d="M-696 2388q26 0 49.5 -10t41.5 -27.5t29 -41.5t11 -52t-11 -51t-29 -40t-41.5 -26.5t-49.5 -9.5h-967q-26 0 -50 9.5t-42 26.5t-28.5 40t-10.5 51t10.5 52t28.5 41.5t42 27.5t50 10h967z" />
    <glyph glyph-name="saraileftthai" unicode="&#xf701;" 
d="M-696 2388q26 0 49.5 -10t41.5 -27.5t29 -41.5t11 -52t-11 -51t-29 -40t-41.5 -26.5t-49.5 -9.5h-967q-26 0 -50 9.5t-42 26.5t-28.5 40t-10.5 51t10.5 52t28.5 41.5t42 27.5t50 10h967z" />
    <glyph glyph-name="saraiileftthai" 
d="M-1663 2130q-26 0 -50 9.5t-42 26.5t-28.5 40t-10.5 51t10.5 52t28.5 41.5t42 27.5t50 10h815v135q0 28 11 52.5t29 43t41.5 29t49.5 10.5t50 -10.5t42 -29t28.5 -43t10.5 -52.5v-266q0 -28 -11 -51t-29 -40t-41.5 -26.5t-49.5 -9.5h-946z" />
    <glyph glyph-name="saraiileftthai" unicode="&#xf702;" 
d="M-1663 2130q-26 0 -50 9.5t-42 26.5t-28.5 40t-10.5 51t10.5 52t28.5 41.5t42 27.5t50 10h815v135q0 28 11 52.5t29 43t41.5 29t49.5 10.5t50 -10.5t42 -29t28.5 -43t10.5 -52.5v-266q0 -28 -11 -51t-29 -40t-41.5 -26.5t-49.5 -9.5h-946z" />
    <glyph glyph-name="saraueleftthai" 
d="M-717 2380q0 17 -7 32.5t-19 27.5t-27.5 19t-32.5 7t-32.5 -7t-27.5 -19t-19 -27.5t-7 -32.5t7 -32.5t19 -27.5t27.5 -19t32.5 -7t32.5 7t27.5 19t19 27.5t7 32.5zM-1053 2388q1 54 21.5 99t54.5 77.5t78.5 51t95.5 18.5q54 0 100.5 -19t80.5 -52.5t53.5 -79t19.5 -99.5
t-20 -100t-54.5 -80.5t-79.5 -54t-96 -19.5h-864q-26 0 -50 9.5t-42 26.5t-28.5 40t-10.5 51t10.5 52t28.5 41.5t42 27.5t50 10h610z" />
    <glyph glyph-name="saraueleftthai" unicode="&#xf703;" 
d="M-717 2380q0 17 -7 32.5t-19 27.5t-27.5 19t-32.5 7t-32.5 -7t-27.5 -19t-19 -27.5t-7 -32.5t7 -32.5t19 -27.5t27.5 -19t32.5 -7t32.5 7t27.5 19t19 27.5t7 32.5zM-1053 2388q1 54 21.5 99t54.5 77.5t78.5 51t95.5 18.5q54 0 100.5 -19t80.5 -52.5t53.5 -79t19.5 -99.5
t-20 -100t-54.5 -80.5t-79.5 -54t-96 -19.5h-864q-26 0 -50 9.5t-42 26.5t-28.5 40t-10.5 51t10.5 52t28.5 41.5t42 27.5t50 10h610z" />
    <glyph glyph-name="saraueeleftthai" 
d="M-1663 2130q-26 0 -50 9.5t-42 26.5t-28.5 40t-10.5 51t10.5 52t28.5 41.5t42 27.5t50 10h393v135q0 28 10 52.5t27.5 43t40.5 29t49 10.5t49 -10.5t40.5 -29t27.5 -43t10 -52.5v-135h176v135q0 28 10 52.5t27.5 43t40.5 29t49 10.5t49 -10.5t40.5 -29t27.5 -43t10 -52.5
v-266q0 -28 -11 -51t-29 -40t-41.5 -26.5t-49.5 -9.5h-946z" />
    <glyph glyph-name="saraueeleftthai" unicode="&#xf704;" 
d="M-1663 2130q-26 0 -50 9.5t-42 26.5t-28.5 40t-10.5 51t10.5 52t28.5 41.5t42 27.5t50 10h393v135q0 28 10 52.5t27.5 43t40.5 29t49 10.5t49 -10.5t40.5 -29t27.5 -43t10 -52.5v-135h176v135q0 28 10 52.5t27.5 43t40.5 29t49 10.5t49 -10.5t40.5 -29t27.5 -43t10 -52.5
v-266q0 -28 -11 -51t-29 -40t-41.5 -26.5t-49.5 -9.5h-946z" />
    <glyph glyph-name="maieklowleftthai" 
d="M-1044 2630q0 27 10.5 51.5t29 43t43 29.5t52.5 11q27 0 51 -11t42 -29.5t28 -43t10 -51.5v-369q0 -28 -10 -52.5t-28 -43t-42 -29t-51 -10.5q-28 0 -52.5 10.5t-43 29t-29 43t-10.5 52.5v369z" />
    <glyph glyph-name="maieklowleftthai" unicode="&#xf705;" 
d="M-1044 2630q0 27 10.5 51.5t29 43t43 29.5t52.5 11q27 0 51 -11t42 -29.5t28 -43t10 -51.5v-369q0 -28 -10 -52.5t-28 -43t-42 -29t-51 -10.5q-28 0 -52.5 10.5t-43 29t-29 43t-10.5 52.5v369z" />
    <glyph glyph-name="maitholowleftthai" 
d="M-1339 2482q-21 -11 -43 -15.5t-43.5 -1.5t-40.5 13.5t-33 28.5t-18 40.5t0 44t16 41t31 33.5q74 50 167 50q66 0 122.5 -22.5t98 -61.5t64.5 -92.5t23 -114.5q0 -16 -3 -30t-8 -28q3 0 15 1.5t41 3.5h327q26 0 49 -10t40.5 -27.5t27.5 -40.5t10 -49t-10 -48.5t-27.5 -39
t-40.5 -26t-49 -9.5h-807l29.5 43.5l39.5 56.5l42.5 61t38.5 58t28 47t11 29q0 37 -15 57.5t-42 20.5q-10 0 -21.5 -4t-19.5 -9z" />
    <glyph glyph-name="maitholowleftthai" unicode="&#xf706;" 
d="M-1339 2482q-21 -11 -43 -15.5t-43.5 -1.5t-40.5 13.5t-33 28.5t-18 40.5t0 44t16 41t31 33.5q74 50 167 50q66 0 122.5 -22.5t98 -61.5t64.5 -92.5t23 -114.5q0 -16 -3 -30t-8 -28q3 0 15 1.5t41 3.5h327q26 0 49 -10t40.5 -27.5t27.5 -40.5t10 -49t-10 -48.5t-27.5 -39
t-40.5 -26t-49 -9.5h-807l29.5 43.5l39.5 56.5l42.5 61t38.5 58t28 47t11 29q0 37 -15 57.5t-42 20.5q-10 0 -21.5 -4t-19.5 -9z" />
    <glyph glyph-name="maitrilowleftthai" 
d="M-1688 2159q-14 13 -32 35.5t-34.5 52.5t-28 66.5t-11.5 78.5q0 66 26 125t70.5 103t104 70t127.5 26q55 0 107.5 -17.5t92.5 -60.5q47 43 98 60.5t107 17.5q66 0 125.5 -22.5t104.5 -63.5t71.5 -97.5t26.5 -124.5q0 -14 -2.5 -26.5t-5.5 -22.5h127q23 0 43.5 -9.5
t36.5 -25.5t25 -37.5t9 -45.5q0 -25 -9 -46t-25 -36.5t-36.5 -24t-43.5 -8.5h-496q62 99 96.5 166.5t34.5 107.5q0 20 -7.5 36t-20.5 27t-29 17t-33 6q-12 0 -29 -6t-33 -21.5t-27.5 -41.5t-12.5 -66h-189q-2 40 -11 66t-22.5 41.5t-30.5 21.5t-34 6t-33.5 -6t-30 -17
t-22 -27t-8.5 -36q0 -31 14.5 -52.5t30.5 -37.5q20 -18 27.5 -41t5 -45.5t-13.5 -43t-28 -34.5q-18 -15 -41 -21.5t-46 -4.5t-45.5 12t-39.5 27z" />
    <glyph glyph-name="maitrilowleftthai" unicode="&#xf707;" 
d="M-1688 2159q-14 13 -32 35.5t-34.5 52.5t-28 66.5t-11.5 78.5q0 66 26 125t70.5 103t104 70t127.5 26q55 0 107.5 -17.5t92.5 -60.5q47 43 98 60.5t107 17.5q66 0 125.5 -22.5t104.5 -63.5t71.5 -97.5t26.5 -124.5q0 -14 -2.5 -26.5t-5.5 -22.5h127q23 0 43.5 -9.5
t36.5 -25.5t25 -37.5t9 -45.5q0 -25 -9 -46t-25 -36.5t-36.5 -24t-43.5 -8.5h-496q62 99 96.5 166.5t34.5 107.5q0 20 -7.5 36t-20.5 27t-29 17t-33 6q-12 0 -29 -6t-33 -21.5t-27.5 -41.5t-12.5 -66h-189q-2 40 -11 66t-22.5 41.5t-30.5 21.5t-34 6t-33.5 -6t-30 -17
t-22 -27t-8.5 -36q0 -31 14.5 -52.5t30.5 -37.5q20 -18 27.5 -41t5 -45.5t-13.5 -43t-28 -34.5q-18 -15 -41 -21.5t-46 -4.5t-45.5 12t-39.5 27z" />
    <glyph glyph-name="maichattawalowleftthai" 
d="M-1114 2593v119q0 27 10.5 51t28.5 42t42 28t50 10t49 -10t40.5 -28t27.5 -42t10 -51v-119h127q24 0 46 -9.5t38 -25.5t25.5 -37.5t9.5 -46.5t-9.5 -46.5t-25.5 -37.5t-38 -25.5t-46 -9.5h-127v-119q0 -27 -10 -51t-27.5 -42t-40.5 -28t-49 -10t-50 10t-42 28t-28.5 42
t-10.5 51v119h-127q-25 0 -46.5 9.5t-37.5 25.5t-25.5 37.5t-9.5 46.5t9.5 46.5t25.5 37.5t37.5 25.5t46.5 9.5h127z" />
    <glyph glyph-name="maichattawalowleftthai" unicode="&#xf708;" 
d="M-1114 2593v119q0 27 10.5 51t28.5 42t42 28t50 10t49 -10t40.5 -28t27.5 -42t10 -51v-119h127q24 0 46 -9.5t38 -25.5t25.5 -37.5t9.5 -46.5t-9.5 -46.5t-25.5 -37.5t-38 -25.5t-46 -9.5h-127v-119q0 -27 -10 -51t-27.5 -42t-40.5 -28t-49 -10t-50 10t-42 28t-28.5 42
t-10.5 51v119h-127q-25 0 -46.5 9.5t-37.5 25.5t-25.5 37.5t-9.5 46.5t9.5 46.5t25.5 37.5t37.5 25.5t46.5 9.5h127z" />
    <glyph glyph-name="thanthakhatlowleftthai" 
d="M-938 2277q16 -17 23.5 -39.5t6 -46t-11 -45.5t-26.5 -37q-18 -17 -40.5 -24t-45.5 -5.5t-45.5 10.5t-40.5 24q-12 10 -27 30t-28 47t-22 59.5t-9 67.5q0 66 19.5 118.5t55.5 89t88.5 56t118.5 19.5h250q26 0 48.5 -10t39 -27.5t26 -40.5t9.5 -49t-9.5 -48.5t-26 -39
t-39 -26t-48.5 -9.5h-254q-9 0 -23 -7.5t-14 -29.5q0 -7 3.5 -13.5t8.5 -11.5q5 -6 13 -12z" />
    <glyph glyph-name="thanthakhatlowleftthai" unicode="&#xf709;" 
d="M-938 2277q16 -17 23.5 -39.5t6 -46t-11 -45.5t-26.5 -37q-18 -17 -40.5 -24t-45.5 -5.5t-45.5 10.5t-40.5 24q-12 10 -27 30t-28 47t-22 59.5t-9 67.5q0 66 19.5 118.5t55.5 89t88.5 56t118.5 19.5h250q26 0 48.5 -10t39 -27.5t26 -40.5t9.5 -49t-9.5 -48.5t-26 -39
t-39 -26t-48.5 -9.5h-254q-9 0 -23 -7.5t-14 -29.5q0 -7 3.5 -13.5t8.5 -11.5q5 -6 13 -12z" />
    <glyph glyph-name="maieklowrightthai" 
d="M-430 2630q0 27 10.5 51.5t29 43t43 29.5t52.5 11t52 -11t41.5 -29.5t27.5 -43t10 -51.5v-389q0 -28 -10 -52.5t-27.5 -43t-41.5 -29.5t-52 -11t-52.5 11t-43 29.5t-29 43t-10.5 52.5v389z" />
    <glyph glyph-name="maieklowrightthai" unicode="&#xf70a;" 
d="M-430 2630q0 27 10.5 51.5t29 43t43 29.5t52.5 11t52 -11t41.5 -29.5t27.5 -43t10 -51.5v-389q0 -28 -10 -52.5t-27.5 -43t-41.5 -29.5t-52 -11t-52.5 11t-43 29.5t-29 43t-10.5 52.5v389z" />
    <glyph glyph-name="maitholowrightthai" 
d="M-840 2478q-21 -11 -44 -16.5t-45 -4.5t-41.5 10t-33.5 27q-14 19 -19 44t-1.5 51t16.5 49t37 37q74 45 168 45q66 0 122 -22.5t97.5 -61.5t64.5 -92.5t23 -114.5q0 -15 -2 -30.5t-9 -26.5q8 2 17 3t19 1h365q26 0 49 -10t40 -27.5t27 -40.5t10 -49t-10 -48.5t-27 -39
t-40 -26t-49 -9.5h-820l53 69t64 85.5t53.5 81t22.5 55.5q0 31 -15.5 51t-46.5 23q-12 0 -24 -4t-21 -9z" />
    <glyph glyph-name="maitholowrightthai" unicode="&#xf70b;" 
d="M-840 2478q-21 -11 -44 -16.5t-45 -4.5t-41.5 10t-33.5 27q-14 19 -19 44t-1.5 51t16.5 49t37 37q74 45 168 45q66 0 122 -22.5t97.5 -61.5t64.5 -92.5t23 -114.5q0 -15 -2 -30.5t-9 -26.5q8 2 17 3t19 1h365q26 0 49 -10t40 -27.5t27 -40.5t10 -49t-10 -48.5t-27 -39
t-40 -26t-49 -9.5h-820l53 69t64 85.5t53.5 81t22.5 55.5q0 31 -15.5 51t-46.5 23q-12 0 -24 -4t-21 -9z" />
    <glyph glyph-name="maitrilowrightthai" 
d="M-1270 2159q-14 13 -32 35.5t-34.5 52.5t-28 66.5t-11.5 78.5q0 66 26 125t70 103t103.5 70t127.5 26q56 0 108.5 -17.5t92.5 -60.5q47 43 98 60.5t107 17.5q66 0 125.5 -22.5t104.5 -63.5t71.5 -97.5t26.5 -124.5q0 -13 -2.5 -26t-6.5 -23h230q23 0 43.5 -9.5
t36.5 -25.5t25 -37.5t9 -45.5q0 -25 -9 -46t-25 -36.5t-36.5 -24t-43.5 -8.5h-598q62 99 96.5 166.5t34.5 107.5q0 20 -7.5 36t-20.5 27t-29 17t-33 6q-12 0 -29.5 -6t-33 -21.5t-27.5 -41.5t-13 -66h-188q-2 40 -11 66t-22.5 41.5t-30.5 21.5t-34 6t-34 -6t-30.5 -17
t-22 -27t-8.5 -36q0 -31 15 -52.5t30 -37.5q20 -18 27.5 -41t5.5 -45.5t-13 -43t-28 -34.5q-18 -15 -41 -21.5t-46.5 -4.5t-45.5 12t-39 27z" />
    <glyph glyph-name="maitrilowrightthai" unicode="&#xf70c;" 
d="M-1270 2159q-14 13 -32 35.5t-34.5 52.5t-28 66.5t-11.5 78.5q0 66 26 125t70 103t103.5 70t127.5 26q56 0 108.5 -17.5t92.5 -60.5q47 43 98 60.5t107 17.5q66 0 125.5 -22.5t104.5 -63.5t71.5 -97.5t26.5 -124.5q0 -13 -2.5 -26t-6.5 -23h230q23 0 43.5 -9.5
t36.5 -25.5t25 -37.5t9 -45.5q0 -25 -9 -46t-25 -36.5t-36.5 -24t-43.5 -8.5h-598q62 99 96.5 166.5t34.5 107.5q0 20 -7.5 36t-20.5 27t-29 17t-33 6q-12 0 -29.5 -6t-33 -21.5t-27.5 -41.5t-13 -66h-188q-2 40 -11 66t-22.5 41.5t-30.5 21.5t-34 6t-34 -6t-30.5 -17
t-22 -27t-8.5 -36q0 -31 15 -52.5t30 -37.5q20 -18 27.5 -41t5.5 -45.5t-13 -43t-28 -34.5q-18 -15 -41 -21.5t-46.5 -4.5t-45.5 12t-39 27z" />
    <glyph glyph-name="maichattawalowrightthai" 
d="M-422 2593v119q0 27 11 51t29 42t41.5 28t49.5 10t49 -10t40.5 -28t27.5 -42t10 -51v-119h127q25 0 46.5 -9.5t37.5 -25.5t25.5 -37.5t9.5 -46.5t-9.5 -46.5t-25.5 -37.5t-37.5 -25.5t-46.5 -9.5h-127v-119q0 -27 -10 -51t-27.5 -42t-40.5 -28t-49 -10t-49.5 10t-41.5 28
t-29 42t-11 51v119h-127q-24 0 -46 9.5t-38 25.5t-25.5 37.5t-9.5 46.5t9.5 46.5t25.5 37.5t38 25.5t46 9.5h127z" />
    <glyph glyph-name="maichattawalowrightthai" unicode="&#xf70d;" 
d="M-422 2593v119q0 27 11 51t29 42t41.5 28t49.5 10t49 -10t40.5 -28t27.5 -42t10 -51v-119h127q25 0 46.5 -9.5t37.5 -25.5t25.5 -37.5t9.5 -46.5t-9.5 -46.5t-25.5 -37.5t-37.5 -25.5t-46.5 -9.5h-127v-119q0 -27 -10 -51t-27.5 -42t-40.5 -28t-49 -10t-49.5 10t-41.5 28
t-29 42t-11 51v119h-127q-24 0 -46 9.5t-38 25.5t-25.5 37.5t-9.5 46.5t9.5 46.5t25.5 37.5t38 25.5t46 9.5h127z" />
    <glyph glyph-name="thanthakhatlowrightthai" 
d="M-455 2277q17 -18 24 -41t5.5 -46t-11 -44.5t-26.5 -36.5q-18 -17 -40.5 -24t-45.5 -5.5t-45.5 10.5t-40.5 24q-12 10 -27 30t-28 47t-22 59.5t-9 67.5q0 66 19.5 118.5t56 89t89 56t118.5 19.5h250q26 0 48 -10t38.5 -27.5t26 -40.5t9.5 -49t-9.5 -48.5t-26 -39
t-38.5 -26t-48 -9.5h-254q-10 0 -23.5 -7.5t-13.5 -29.5q0 -8 3.5 -14.5t8.5 -11.5q5 -6 12 -11z" />
    <glyph glyph-name="thanthakhatlowrightthai" unicode="&#xf70e;" 
d="M-455 2277q17 -18 24 -41t5.5 -46t-11 -44.5t-26.5 -36.5q-18 -17 -40.5 -24t-45.5 -5.5t-45.5 10.5t-40.5 24q-12 10 -27 30t-28 47t-22 59.5t-9 67.5q0 66 19.5 118.5t56 89t89 56t118.5 19.5h250q26 0 48 -10t38.5 -27.5t26 -40.5t9.5 -49t-9.5 -48.5t-26 -39
t-38.5 -26t-48 -9.5h-254q-10 0 -23.5 -7.5t-13.5 -29.5q0 -8 3.5 -14.5t8.5 -11.5q5 -6 12 -11z" />
    <glyph glyph-name="maihanakatleftthai" 
d="M-29 2388q28 0 52 -10.5t41.5 -29t27.5 -43t10 -52.5t-10 -50.5t-27.5 -38.5t-41.5 -25t-52 -9l-874 -4q-68 0 -119.5 20.5t-86.5 57.5t-53 87t-18 108v79q0 28 9.5 52t26.5 41.5t40 27.5t51 10t52 -10t41.5 -27.5t27.5 -41.5t10 -52v-50q0 -16 11.5 -28t27.5 -12h854z
" />
    <glyph glyph-name="maihanakatleftthai" unicode="&#xf710;" 
d="M-29 2388q28 0 52 -10.5t41.5 -29t27.5 -43t10 -52.5t-10 -50.5t-27.5 -38.5t-41.5 -25t-52 -9l-874 -4q-68 0 -119.5 20.5t-86.5 57.5t-53 87t-18 108v79q0 28 9.5 52t26.5 41.5t40 27.5t51 10t52 -10t41.5 -27.5t27.5 -41.5t10 -52v-50q0 -16 11.5 -28t27.5 -12h854z
" />
    <glyph glyph-name="nikhahitleftthai" 
d="M-635 2355q0 -60 -23 -113t-63 -92.5t-94 -62.5t-115 -23q-60 0 -113.5 23t-94 62.5t-64 92.5t-23.5 113q0 61 23.5 115t64 94t94 63t113.5 23q61 0 115 -23t94 -63t63 -94t23 -115zM-831 2355q0 20 -8 37t-21.5 30t-31.5 20t-38 7q-40 0 -67 -27t-27 -67q0 -20 7 -37.5
t20 -31t30 -21.5t37 -8t38 8t31.5 21.5t21.5 31t8 37.5z" />
    <glyph glyph-name="nikhahitleftthai" unicode="&#xf711;" 
d="M-635 2355q0 -60 -23 -113t-63 -92.5t-94 -62.5t-115 -23q-60 0 -113.5 23t-94 62.5t-64 92.5t-23.5 113q0 61 23.5 115t64 94t94 63t113.5 23q61 0 115 -23t94 -63t63 -94t23 -115zM-831 2355q0 20 -8 37t-21.5 30t-31.5 20t-38 7q-40 0 -67 -27t-27 -67q0 -20 7 -37.5
t20 -31t30 -21.5t37 -8t38 8t31.5 21.5t21.5 31t8 37.5z" />
    <glyph glyph-name="maitaikhuleftthai" 
d="M-1020 2430q2 -19 11.5 -32.5t23.5 -22t30.5 -12.5t32.5 -4q75 0 95 86q6 23 20 42t33 31t42 15.5t48 -2.5q23 -6 41.5 -20t30.5 -33t16 -42t-2 -48q-12 -49 -37.5 -96t-65.5 -84t-94 -59.5t-123 -22.5q-131 0 -217 86q-37 -47 -94 -66.5t-119 -19.5q-78 0 -143.5 27.5
t-112.5 76t-73.5 115.5t-26.5 145q0 88 25.5 159t72.5 121t112.5 77.5t145.5 27.5h770q25 0 46.5 -9.5t37.5 -25.5t25.5 -37.5t9.5 -45.5q0 -25 -9.5 -46.5t-25.5 -37.5t-37.5 -25.5t-46.5 -9.5h-786q-29 0 -50 -14t-34.5 -35t-20 -46.5t-6.5 -48.5t6.5 -47t20.5 -43.5
t35.5 -32t52.5 -12.5q18 0 36 4.5t33.5 14t26.5 24.5t15 36q7 38 40 61t74 23q44 0 77 -25t38 -67z" />
    <glyph glyph-name="maitaikhuleftthai" unicode="&#xf712;" 
d="M-1020 2430q2 -19 11.5 -32.5t23.5 -22t30.5 -12.5t32.5 -4q75 0 95 86q6 23 20 42t33 31t42 15.5t48 -2.5q23 -6 41.5 -20t30.5 -33t16 -42t-2 -48q-12 -49 -37.5 -96t-65.5 -84t-94 -59.5t-123 -22.5q-131 0 -217 86q-37 -47 -94 -66.5t-119 -19.5q-78 0 -143.5 27.5
t-112.5 76t-73.5 115.5t-26.5 145q0 88 25.5 159t72.5 121t112.5 77.5t145.5 27.5h770q25 0 46.5 -9.5t37.5 -25.5t25.5 -37.5t9.5 -45.5q0 -25 -9.5 -46.5t-25.5 -37.5t-37.5 -25.5t-46.5 -9.5h-786q-29 0 -50 -14t-34.5 -35t-20 -46.5t-6.5 -48.5t6.5 -47t20.5 -43.5
t35.5 -32t52.5 -12.5q18 0 36 4.5t33.5 14t26.5 24.5t15 36q7 38 40 61t74 23q44 0 77 -25t38 -67z" />
    <glyph glyph-name="maiekupperleftthai" 
d="M-836 3187q0 27 9.5 51.5t26 43t40 29.5t50.5 11q28 0 51.5 -11t40.5 -29.5t26.5 -43t9.5 -51.5v-275q0 -27 -9 -51.5t-25 -43t-38.5 -29.5t-50.5 -11q-27 0 -51 11t-42 29.5t-28 43t-10 51.5v275z" />
    <glyph glyph-name="maiekupperleftthai" unicode="&#xf713;" 
d="M-836 3187q0 27 9.5 51.5t26 43t40 29.5t50.5 11q28 0 51.5 -11t40.5 -29.5t26.5 -43t9.5 -51.5v-275q0 -27 -9 -51.5t-25 -43t-38.5 -29.5t-50.5 -11q-27 0 -51 11t-42 29.5t-28 43t-10 51.5v275z" />
    <glyph glyph-name="maithoupperleftthai" 
d="M-987 3150q-20 -11 -43 -16.5t-45.5 -4.5t-42 10t-33.5 27t-19 43.5t-1 51t17 48.5t36 37q73 45 168 45q66 0 122 -22.5t97.5 -61.5t64.5 -92t23 -114q0 -32 -11 -57q5 1 15.5 2t20.5 1h348q26 0 49 -10t40.5 -27.5t27.5 -40.5t10 -49t-10 -48t-27.5 -38.5t-40.5 -26
t-49 -9.5h-807q12 18 31.5 43.5l41 54.5l43.5 58.5l40 55.5t29 46.5t11 31.5q0 64 -61 70q-12 0 -24.5 -1.5t-20.5 -6.5z" />
    <glyph glyph-name="maithoupperleftthai" unicode="&#xf714;" 
d="M-987 3150q-20 -11 -43 -16.5t-45.5 -4.5t-42 10t-33.5 27t-19 43.5t-1 51t17 48.5t36 37q73 45 168 45q66 0 122 -22.5t97.5 -61.5t64.5 -92t23 -114q0 -32 -11 -57q5 1 15.5 2t20.5 1h348q26 0 49 -10t40.5 -27.5t27.5 -40.5t10 -49t-10 -48t-27.5 -38.5t-40.5 -26
t-49 -9.5h-807q12 18 31.5 43.5l41 54.5l43.5 58.5l40 55.5t29 46.5t11 31.5q0 64 -61 70q-12 0 -24.5 -1.5t-20.5 -6.5z" />
    <glyph glyph-name="maitriupperleftthai" 
d="M-1094 2966q17 -17 24 -38t5.5 -42t-11 -41t-26.5 -35q-34 -31 -77.5 -27t-77.5 35q-25 23 -43 46t-29.5 48.5t-17 54.5t-5.5 64q0 60 23 113t62.5 92.5t92.5 62.5t113 23q23 0 47.5 -4.5t47 -13.5t42 -22t31.5 -30q25 28 71.5 49t96.5 21q60 0 112.5 -22.5t91.5 -61
t62 -91t25 -112.5h172q24 0 46 -9.5t38 -26t25.5 -39t9.5 -48.5t-9.5 -48t-25.5 -37.5t-38 -24.5t-46 -9h-524l110 209q3 7 5.5 15.5t2.5 17.5q0 22 -14.5 39.5t-38.5 17.5q-11 0 -24 -3t-24.5 -13.5t-19 -30t-7.5 -51.5h-193q0 29 -6 48t-16 30t-23 15.5t-27 4.5
q-29 0 -44.5 -19.5t-15.5 -41.5q0 -14 7.5 -33.5t19.5 -31.5z" />
    <glyph glyph-name="maitriupperleftthai" unicode="&#xf715;" 
d="M-1094 2966q17 -17 24 -38t5.5 -42t-11 -41t-26.5 -35q-34 -31 -77.5 -27t-77.5 35q-25 23 -43 46t-29.5 48.5t-17 54.5t-5.5 64q0 60 23 113t62.5 92.5t92.5 62.5t113 23q23 0 47.5 -4.5t47 -13.5t42 -22t31.5 -30q25 28 71.5 49t96.5 21q60 0 112.5 -22.5t91.5 -61
t62 -91t25 -112.5h172q24 0 46 -9.5t38 -26t25.5 -39t9.5 -48.5t-9.5 -48t-25.5 -37.5t-38 -24.5t-46 -9h-524l110 209q3 7 5.5 15.5t2.5 17.5q0 22 -14.5 39.5t-38.5 17.5q-11 0 -24 -3t-24.5 -13.5t-19 -30t-7.5 -51.5h-193q0 29 -6 48t-16 30t-23 15.5t-27 4.5
q-29 0 -44.5 -19.5t-15.5 -41.5q0 -14 7.5 -33.5t19.5 -31.5z" />
    <glyph glyph-name="maichattawaupperleftthai" 
d="M-844 3174v70q0 28 11 52t29 41.5t41.5 27.5t49.5 10t49 -10t40.5 -27.5t27.5 -41.5t10 -52v-70h82q23 0 43.5 -8.5t35.5 -23.5t23.5 -35t8.5 -43t-8.5 -43.5t-23.5 -35.5t-35.5 -23.5t-43.5 -8.5h-82v-65q0 -28 -10 -52t-27.5 -41.5t-40.5 -27.5t-49 -10t-49.5 10
t-41.5 27.5t-29 41.5t-11 52v65h-82q-23 0 -43 8.5t-35 23.5t-23.5 35.5t-8.5 43.5t8.5 43t23.5 35t35 23.5t43 8.5h82z" />
    <glyph glyph-name="maichattawaupperleftthai" unicode="&#xf716;" 
d="M-844 3174v70q0 28 11 52t29 41.5t41.5 27.5t49.5 10t49 -10t40.5 -27.5t27.5 -41.5t10 -52v-70h82q23 0 43.5 -8.5t35.5 -23.5t23.5 -35t8.5 -43t-8.5 -43.5t-23.5 -35.5t-35.5 -23.5t-43.5 -8.5h-82v-65q0 -28 -10 -52t-27.5 -41.5t-40.5 -27.5t-49 -10t-49.5 10
t-41.5 27.5t-29 41.5t-11 52v65h-82q-23 0 -43 8.5t-35 23.5t-23.5 35.5t-8.5 43.5t8.5 43t23.5 35t35 23.5t43 8.5h82z" />
    <glyph glyph-name="thanthakhatupperleftthai" 
d="M-700 2793q17 -18 24 -41t5.5 -46t-11.5 -44t-27 -36q-18 -17 -40.5 -24.5t-45.5 -6t-45 10.5t-41 24q-12 10 -27 30t-28 47t-22 59.5t-9 67.5q0 66 19.5 118.5t56 89t89 56t118.5 19.5h184q26 0 48.5 -9.5t39 -26t26 -39t9.5 -48.5t-9.5 -48.5t-26 -39t-39 -26
t-48.5 -9.5h-188q-13 0 -24 -5t-11 -30q0 -8 3 -15.5t8 -13.5q5 -7 12 -14z" />
    <glyph glyph-name="thanthakhatupperleftthai" unicode="&#xf717;" 
d="M-700 2793q17 -18 24 -41t5.5 -46t-11.5 -44t-27 -36q-18 -17 -40.5 -24.5t-45.5 -6t-45 10.5t-41 24q-12 10 -27 30t-28 47t-22 59.5t-9 67.5q0 66 19.5 118.5t56 89t89 56t118.5 19.5h184q26 0 48.5 -9.5t39 -26t26 -39t9.5 -48.5t-9.5 -48.5t-26 -39t-39 -26
t-48.5 -9.5h-188q-13 0 -24 -5t-11 -30q0 -8 3 -15.5t8 -13.5q5 -7 12 -14z" />
    <glyph glyph-name="maiekupperleftthai.alt1" 
d="M-1036 3187q0 27 9.5 51.5t26 43t40 29.5t50.5 11q28 0 51.5 -11t40.5 -29.5t26.5 -43t9.5 -51.5v-275q0 -27 -9 -51.5t-25 -43t-38.5 -29.5t-50.5 -11q-27 0 -51 11t-42 29.5t-28 43t-10 51.5v275z" />
    <glyph glyph-name="maichattawaupperleftthai.alt1" 
d="M-1044 3174v70q0 28 11 52t29 41.5t41.5 27.5t49.5 10t49 -10t40.5 -27.5t27.5 -41.5t10 -52v-70h82q23 0 43.5 -8.5t35.5 -23.5t23.5 -35t8.5 -43t-8.5 -43.5t-23.5 -35.5t-35.5 -23.5t-43.5 -8.5h-82v-65q0 -28 -10 -52t-27.5 -41.5t-40.5 -27.5t-49 -10t-49.5 10
t-41.5 27.5t-29 41.5t-11 52v65h-82q-23 0 -43 8.5t-35 23.5t-23.5 35.5t-8.5 43.5t8.5 43t23.5 35t35 23.5t43 8.5h82z" />
    <glyph glyph-name="maithothai.alt2" 
d="M-623 3133q-20 -11 -42 -15.5t-44 -1.5t-41 13.5t-33 28.5t-18 40.5t0 44t16 41.5t31 34q73 49 168 49q66 0 122 -22.5t97.5 -61.5t64.5 -92.5t23 -114.5q0 -16 -5 -30.5t-10 -24.5q5 0 24.5 1t35.5 1h328q26 0 49 -10t40 -27.5t27 -40.5t10 -49t-10 -48.5t-27 -39
t-40 -26t-49 -9.5h-807l29.5 43.5l39.5 56.5l42 61.5t38 59.5t28 50t11 33q0 30 -14.5 48.5t-42.5 18.5q-10 0 -21.5 -3t-19.5 -8z" />
    <glyph glyph-name="maitrithai.alt2" 
d="M-708 2814q-46 49 -66 98t-20 99q0 60 23 112.5t62.5 92t92.5 62.5t113 23q23 0 47.5 -6t47 -16.5t42 -23.5t31.5 -27q12 14 31 27t41 23.5t47 16.5t49 6q60 0 112.5 -22.5t91.5 -60.5t62 -89.5t25 -109.5h168q26 0 48.5 -9.5t39 -26t26 -39t9.5 -48.5t-9.5 -48t-26 -38
t-39 -24.5t-48.5 -8.5h-520l110 205q6 9 7 19.5t1 13.5q0 21 -15.5 39t-37.5 18q-8 0 -19 -2.5t-21 -12t-17.5 -28.5t-7.5 -51h-213q0 55 -17 74.5t-45 19.5q-25 0 -41 -20t-16 -41q0 -7 1 -19.5t15 -30.5q28 -36 27 -80t-35 -75q-17 -15 -37.5 -22t-42 -6t-41.5 10t-35 26z
" />
    </font>
</defs>
</svg>
