<svg xmlns="http://www.w3.org/2000/svg">
<defs>
<font id="DBAdmanRoundedX-Bold" horiz-adv-x="0" >
  <font-face 
    font-family="DB AdmanRounded X Bold"
    font-weight="700"
    font-stretch="normal"
    units-per-em="4096"
    panose-1="2 0 5 6 9 0 0 2 0 4"
    ascent="3276"
    descent="-820"
    x-height="1499"
    cap-height="2183"
    bbox="-2000 -1655 4002 3654"
    underline-thickness="82"
    underline-position="-463"
    unicode-range="U+0020-U+F882"
  />
<missing-glyph horiz-adv-x="1696" 
d="M1729 1638v-57h24q29 0 29 37q0 3 -6.5 11.5t-22.5 8.5h-24zM1741 1577h-12v-57h-21v139h45q49 0 49 -41q0 -28 -12.5 -34.5t-28.5 -6.5l41 -57h-20zM1753 1499q26 0 43.5 8t28 20.5t14.5 27t4 26.5q0 46 -21.5 72t-68.5 26q-46 0 -70 -26t-24 -72q0 -34 22.5 -58
t71.5 -24zM1753 1692q53 0 77.5 -32.5t24.5 -78.5q0 -17 -6 -33.5t-18.5 -30t-32 -22t-45.5 -8.5q-24 0 -44 8.5t-33.5 22t-21 30t-7.5 33.5q0 46 28.5 78.5t77.5 32.5zM823 1294q43 -3 98 -9t114 -15t118.5 -20.5t112 -25.5t94 -30t65.5 -35q-41 81 -107 144.5t-146.5 107
t-171 66t-181.5 22.5q-69 0 -136 -13t-128.5 -40t-115 -68t-95.5 -96q74 9 147.5 12.5t147.5 3.5q46 0 92 -0.5t92 -3.5zM1536 1618v-582q-98 31 -211.5 58t-238.5 47t-259 31.5t-274 11.5q-99 0 -194 -6t-191 -19q24 92 78 175.5t135.5 146.5t189.5 100t240 37
q127 0 229.5 -28.5t179 -70.5t128 -89.5t77.5 -86.5q0 -3 -0.5 11t-0.5 38t-1 55t-1 62.5t-0.5 60t-0.5 48.5h115zM627 520q0 34 -22.5 50t-47.5 16q-28 0 -49 -16t-21 -50t21 -47.5t49 -13.5q12 0 24.5 3t22.5 10.5t16.5 19t6.5 28.5zM131 569q0 95 37.5 168t98.5 122
t139 74t159 25t157.5 -22t135 -67.5t94 -115.5t35.5 -167v-475h434v827h115v-934h-774v107h119v487q0 61 -24 107.5t-66 77t-99 46t-123 15.5q-61 0 -118.5 -17.5t-102 -50.5t-71.5 -81t-27 -109v-439l237 238q-11 4 -25.5 14.5t-28 27t-23 39.5t-9.5 54q0 74 45 117t119 43
q35 0 64 -13t49.5 -35t31.5 -51t11 -61q0 -29 -6.5 -51t-16.5 -38t-20.5 -27l-18.5 -19l-204 -197l-92 -85.5l-101 -98.5h-131v565z" />
    <glyph glyph-name="ellipsis" unicode="&#x2e;&#x2e;&#x2e;" horiz-adv-x="2077" 
d="M1962 184q0 -51 -19 -95t-51.5 -76.5t-76.5 -51t-95 -18.5t-95 18.5t-76.5 51t-51 75.5t-18.5 92q0 51 18.5 95t51 76.5t76.5 51.5t95 19t95 -19t76.5 -51t51.5 -75.5t19 -92.5zM602 184q0 -51 -18.5 -95t-51.5 -76.5t-77 -51t-95 -18.5t-95 18.5t-76.5 51t-51 75.5
t-18.5 92q0 51 18.5 95t51 76.5t76.5 51.5t95 19t95 -19t77 -51t51.5 -75.5t18.5 -92.5zM1282 184q0 -51 -19 -95t-51.5 -76.5t-76.5 -51t-95 -18.5t-95 18.5t-76.5 51t-51 75.5t-18.5 92q0 51 18.5 95t51 76.5t76.5 51.5t95 19t95 -19t76.5 -51t51.5 -75.5t19 -92.5z" />
    <glyph glyph-name="dochadaphinthuthai" unicode="&#xe0e;&#xe3a;" horiz-adv-x="2019" 
d="M1864 -311l-488 -451q-84 60 -155.5 100t-135 64.5t-122.5 34.5t-119 10t-117 -10t-113 -29.5t-114 -48.5t-119 -68q-31 -20 -66 -26t-68.5 1t-64 27t-51.5 52q-20 31 -25 65t3 66.5t28 61t51 48.5q78 51 156 90t158 65.5t165 40t177 13.5q127 0 248 -25t235 -77l139 131
v1229q0 98 -36 180t-103 141t-161.5 92t-211.5 33q-51 0 -101.5 -11t-98.5 -31.5t-91.5 -49t-80.5 -64.5l98 -102v-1043q0 -41 -15.5 -77t-42.5 -63t-63 -42.5t-77 -15.5h-236q-39 0 -72.5 14.5t-58.5 39.5t-39.5 58.5t-14.5 71.5q0 39 14.5 73t39.5 60t58.5 41t72.5 15h37
v758l-102 111q-28 30 -35.5 63.5t-3 65t16.5 57.5t24 42q67 87 151.5 160.5t182 126t207 82t227.5 29.5q133 0 252.5 -27.5t221 -78t182.5 -123t138.5 -163t88 -196t30.5 -223.5v-1368zM1905 -1032q0 -49 -18.5 -92.5t-50.5 -75.5t-74.5 -51t-90.5 -19q-49 0 -92 18.5
t-75.5 50.5t-51 74.5t-18.5 90.5q0 49 18.5 92t50.5 75.5t74 51t90 18.5q49 0 92.5 -18.5t75.5 -50.5t51 -74t19 -90z" />
    <glyph glyph-name="topatakphintuthai" unicode="&#xe0f;&#xe3a;" horiz-adv-x="2019" 
d="M1905 -1032q0 -49 -18.5 -92.5t-50.5 -75.5t-74.5 -51t-90.5 -19q-49 0 -92 18.5t-75.5 50.5t-51 74.5t-18.5 90.5q0 49 18.5 92t50.5 75.5t74 51t90 18.5q49 0 92.5 -18.5t75.5 -50.5t51 -74t19 -90zM1864 -303l-533 -471l-319 287l-320 -287l-459 409
q-26 23 -39.5 53.5t-15.5 62.5t8 64t31 58q23 26 54 40.5t64 17.5t65.5 -6.5t58.5 -30.5l246 -213l307 274l307 -274l151 126v1246q0 98 -37 179.5t-104.5 140t-162.5 90.5t-212 32q-102 0 -200 -40t-172 -112l98 -102v-1043q0 -41 -15.5 -77t-42.5 -63t-63 -42.5t-77 -15.5
h-236q-39 0 -72.5 14.5t-58.5 39.5t-39.5 58.5t-14.5 71.5q0 39 14.5 73t39.5 60t58.5 41t72.5 15h37v758l-102 111q-28 30 -35.5 63.5t-3 65t16.5 57.5t24 42q67 87 151.5 160.5t182 126t207 82t227.5 29.5q133 0 252.5 -27.5t221 -78t182.5 -123t138.5 -163t88 -196
t30.5 -223.5v-1360z" />
    <glyph glyph-name="dochadasarauthai" unicode="&#xe0e;&#xe38;" horiz-adv-x="2019" 
d="M1864 -1417q0 -39 -14.5 -73t-39.5 -60t-58.5 -41t-72.5 -15q-38 0 -72.5 15t-60 41t-40.5 60t-15 73v221h-86q-38 0 -72.5 15t-60 40.5t-40.5 60t-15 72.5q0 39 15 73t40.5 60t60 41t72.5 15h270q39 0 73 -14.5t60 -39.5t41 -58.5t15 -72.5v-413zM1864 -311l-488 -451
q-84 60 -155.5 100t-135 64.5t-122.5 34.5t-119 10t-117 -10t-113 -29.5t-114 -48.5t-119 -68q-31 -20 -66 -26t-68.5 1t-64 27t-51.5 52q-20 31 -25 65t3 66.5t28 61t51 48.5q78 51 156 90t158 65.5t165 40t177 13.5q127 0 248 -25t235 -77l139 131v1229q0 98 -36 180
t-103 141t-161.5 92t-211.5 33q-51 0 -101.5 -11t-98.5 -31.5t-91.5 -49t-80.5 -64.5l98 -102v-1043q0 -41 -15.5 -77t-42.5 -63t-63 -42.5t-77 -15.5h-236q-39 0 -72.5 14.5t-58.5 39.5t-39.5 58.5t-14.5 71.5q0 39 14.5 73t39.5 60t58.5 41t72.5 15h37v758l-102 111
q-28 30 -35.5 63.5t-3 65t16.5 57.5t24 42q67 87 151.5 160.5t182 126t207 82t227.5 29.5q133 0 252.5 -27.5t221 -78t182.5 -123t138.5 -163t88 -196t30.5 -223.5v-1368z" />
    <glyph glyph-name="topataksarauthai" unicode="&#xe0f;&#xe38;" horiz-adv-x="2019" 
d="M1864 -1417q0 -39 -14.5 -73t-39.5 -60t-58.5 -41t-72.5 -15q-38 0 -72.5 15t-60 41t-40.5 60t-15 73v221h-86q-38 0 -72.5 15t-60 40.5t-40.5 60t-15 72.5q0 39 15 73t40.5 60t60 41t72.5 15h270q39 0 73 -14.5t60 -39.5t41 -58.5t15 -72.5v-413zM1864 -303l-533 -471
l-319 287l-320 -287l-459 409q-26 23 -39.5 53.5t-15.5 62.5t8 64t31 58q23 26 54 40.5t64 17.5t65.5 -6.5t58.5 -30.5l246 -213l307 274l307 -274l151 126v1246q0 98 -37 179.5t-104.5 140t-162.5 90.5t-212 32q-102 0 -200 -40t-172 -112l98 -102v-1043q0 -41 -15.5 -77
t-42.5 -63t-63 -42.5t-77 -15.5h-236q-39 0 -72.5 14.5t-58.5 39.5t-39.5 58.5t-14.5 71.5q0 39 14.5 73t39.5 60t58.5 41t72.5 15h37v758l-102 111q-28 30 -35.5 63.5t-3 65t16.5 57.5t24 42q67 87 151.5 160.5t182 126t207 82t227.5 29.5q133 0 252.5 -27.5t221 -78
t182.5 -123t138.5 -163t88 -196t30.5 -223.5v-1360z" />
    <glyph glyph-name="fongmanfunnuthai" unicode="&#xe4f;&#x22;" horiz-adv-x="2302" 
d="M2146 971q0 -136 -36 -263t-101.5 -238.5t-157.5 -203t-203 -157.5t-238 -102t-263 -36t-263 36t-238.5 102t-203 157.5t-157.5 203t-102 238.5t-36 263t36 263t102 238t157.5 203t203 157.5t238.5 101.5t263 36t263 -36t238 -101.5t203 -157.5t157.5 -203t101.5 -238
t36 -263zM1651 971q0 -105 -39.5 -196.5t-108 -160t-160.5 -108t-196 -39.5q-105 0 -196.5 39.5t-160 108t-108 160t-39.5 196.5q0 104 39.5 196t108 160.5t160 108t196.5 39.5q104 0 196 -39.5t160.5 -108t108 -160.5t39.5 -196zM1868 954q0 100 -26 194t-73.5 176
t-113.5 149.5t-146.5 116t-172 75.5t-189.5 27t-189.5 -26t-172 -73.5t-146.5 -113.5t-113.5 -146.5t-73.5 -172t-26 -189.5t26 -189.5t73.5 -172t113.5 -146.5t146.5 -113.5t172 -73.5t189.5 -26t189.5 26t172 73t146.5 112t113.5 143.5t73.5 167t26 182.5zM1380 971
q0 48 -18.5 90t-50.5 74t-74 50.5t-90 18.5t-90.5 -18.5t-74.5 -50.5t-50.5 -74t-18.5 -90t18.5 -90.5t50.5 -74.5t74.5 -50.5t90.5 -18.5t90 18.5t74 50.5t50.5 74.5t18.5 90.5zM803 2593q-2 27 9.5 53t31 46t45 32t53.5 12t53.5 -12.5t45 -33.5t30.5 -47.5t10 -53.5
l-32 -410q-4 -49 -31.5 -82t-83.5 -33q-50 0 -79 33t-32 82zM1212 2593q-2 27 9.5 53t31 46t45.5 32t54 12q27 0 53 -12.5t45.5 -33.5t30.5 -47.5t10 -53.5l-33 -410q-3 -49 -31 -82t-84 -33q-49 0 -78 33t-32 82z" />
    <glyph glyph-name="lessequal" unicode="&#x3c;&#x3d;" horiz-adv-x="1638" 
d="M98 1266v286l1303 652q31 15 63.5 17t63 -8t56 -31t42.5 -52q15 -31 17 -63.5t-8 -63t-31 -56t-52 -42.5l-974 -496l974 -528q31 -17 52 -43t31 -56t8 -62t-17 -61q-17 -30 -42 -51t-54.5 -31t-61.5 -8t-63 17zM98 1094l1454 -787q31 -17 52 -42.5t31 -55.5t8 -62
t-17 -61q-17 -31 -42 -52t-54.5 -31t-61.5 -8t-63 17l-1307 680v402z" />
    <glyph glyph-name="greaterequal" unicode="&#x3e;&#x3d;" horiz-adv-x="1638" 
d="M238 586q-31 -15 -63 -17t-62 8t-55 31t-42 51q-15 29 -17 61t8 62t31 56t52 43l975 528l-975 496q-31 17 -52 42.5t-31 56t-8 63t17 63.5q17 31 43 52t56.5 31t63 8t63.5 -17l1302 -652v-286zM1544 692l-1306 -680q-31 -15 -63 -17t-62 8t-55 31t-42 52q-15 29 -17 61
t8 62t31 55.5t52 42.5l1454 787v-402z" />
    <glyph glyph-name="plusminus" unicode="&#x2b;&#x2d;" horiz-adv-x="1618" 
d="M647 1307v430q0 34 12.5 63.5t34 52t50.5 35.5t63 13t63.5 -13t52 -35.5t35.5 -52t13 -63.5v-430h430q34 0 63.5 -13t52 -35.5t35.5 -52t13 -63.5t-13 -63t-35.5 -50.5t-52 -34t-63.5 -12.5h-430v-430q0 -34 -13 -63.5t-35.5 -52t-52 -35.5t-63.5 -13t-63 13t-50.5 35.5
t-34 52t-12.5 63.5v430h-430q-34 0 -63.5 12.5t-52 34t-35.5 50.5t-13 63t13 63.5t35.5 52t52 35.5t63.5 13h430zM1401 324q34 0 63.5 -13t52 -35.5t35.5 -52t13 -63.5t-13 -63t-35.5 -50.5t-52 -34t-63.5 -12.5h-1184q-34 0 -63.5 12.5t-52 34t-35.5 50.5t-13 63t13 63.5
t35.5 52t52 35.5t63.5 13h1184z" />
    <glyph glyph-name="dochadasarauuthai" unicode="&#xe0e;&#xe39;" horiz-adv-x="2019" 
d="M1319 -1249q0 -37 26 -57.5t60 -20.5t60 20.5t26 57.5v266q0 38 14.5 71.5t39.5 58.5t58.5 39.5t71.5 14.5q39 0 72.5 -14.5t58.5 -39.5t39.5 -58.5t14.5 -71.5v-258q0 -92 -36.5 -168.5t-99 -131t-145.5 -84.5t-175 -30q-90 0 -172 24t-143.5 68.5t-98 107t-36.5 140.5
v123h-73q-39 0 -73 15t-60 40.5t-41 60t-15 72.5q0 39 15 72.5t41 58.5t60 39.5t73 14.5h249q39 0 73 -14.5t60 -39.5t41 -58.5t15 -72.5v-245zM1864 -311l-488 -451q-84 60 -155.5 100t-135 64.5t-122.5 34.5t-119 10t-117 -10t-113 -29.5t-114 -48.5t-119 -68
q-31 -20 -66 -26t-68.5 1t-64 27t-51.5 52q-20 31 -25 65t3 66.5t28 61t51 48.5q78 51 156 90t158 65.5t165 40t177 13.5q127 0 248 -25t235 -77l139 131v1229q0 98 -36 180t-103 141t-161.5 92t-211.5 33q-51 0 -101.5 -11t-98.5 -31.5t-91.5 -49t-80.5 -64.5l98 -102
v-1043q0 -41 -15.5 -77t-42.5 -63t-63 -42.5t-77 -15.5h-236q-39 0 -72.5 14.5t-58.5 39.5t-39.5 58.5t-14.5 71.5q0 39 14.5 73t39.5 60t58.5 41t72.5 15h37v758l-102 111q-28 30 -35.5 63.5t-3 65t16.5 57.5t24 42q67 87 151.5 160.5t182 126t207 82t227.5 29.5
q133 0 252.5 -27.5t221 -78t182.5 -123t138.5 -163t88 -196t30.5 -223.5v-1368z" />
    <glyph glyph-name="topataksarauuthai" unicode="&#xe0f;&#xe39;" horiz-adv-x="2019" 
d="M1319 -1249q0 -37 26 -57.5t60 -20.5t60 20.5t26 57.5v266q0 38 14.5 71.5t39.5 58.5t58.5 39.5t71.5 14.5q39 0 72.5 -14.5t58.5 -39.5t39.5 -58.5t14.5 -71.5v-258q0 -92 -37 -168.5t-100 -131t-146.5 -84.5t-175.5 -30q-90 0 -171.5 24t-142.5 68.5t-97 107t-36 140.5
v123h-73q-39 0 -73 15t-60 40.5t-41 60t-15 72.5q0 39 15 72.5t41 58.5t60 39.5t73 14.5h249q39 0 73 -14.5t60 -39.5t41 -58.5t15 -72.5v-245zM1864 -303l-533 -471l-319 287l-320 -287l-459 409q-26 23 -39.5 53.5t-15.5 62.5t8 64t31 58q23 26 54 40.5t64 17.5t65.5 -6.5
t58.5 -30.5l246 -213l307 274l307 -274l151 126v1246q0 98 -37 179.5t-104.5 140t-162.5 90.5t-212 32q-102 0 -200 -40t-172 -112l98 -102v-1043q0 -41 -15.5 -77t-42.5 -63t-63 -42.5t-77 -15.5h-236q-39 0 -72.5 14.5t-58.5 39.5t-39.5 58.5t-14.5 71.5q0 39 14.5 73
t39.5 60t58.5 41t72.5 15h37v758l-102 111q-28 30 -35.5 63.5t-3 65t16.5 57.5t24 42q67 87 151.5 160.5t182 126t207 82t227.5 29.5q133 0 252.5 -27.5t221 -78t182.5 -123t138.5 -163t88 -196t30.5 -223.5v-1360z" />
    <glyph glyph-name=".notdef" horiz-adv-x="1696" 
d="M1729 1638v-57h24q29 0 29 37q0 3 -6.5 11.5t-22.5 8.5h-24zM1741 1577h-12v-57h-21v139h45q49 0 49 -41q0 -28 -12.5 -34.5t-28.5 -6.5l41 -57h-20zM1753 1499q26 0 43.5 8t28 20.5t14.5 27t4 26.5q0 46 -21.5 72t-68.5 26q-46 0 -70 -26t-24 -72q0 -34 22.5 -58
t71.5 -24zM1753 1692q53 0 77.5 -32.5t24.5 -78.5q0 -17 -6 -33.5t-18.5 -30t-32 -22t-45.5 -8.5q-24 0 -44 8.5t-33.5 22t-21 30t-7.5 33.5q0 46 28.5 78.5t77.5 32.5zM823 1294q43 -3 98 -9t114 -15t118.5 -20.5t112 -25.5t94 -30t65.5 -35q-41 81 -107 144.5t-146.5 107
t-171 66t-181.5 22.5q-69 0 -136 -13t-128.5 -40t-115 -68t-95.5 -96q74 9 147.5 12.5t147.5 3.5q46 0 92 -0.5t92 -3.5zM1536 1618v-582q-98 31 -211.5 58t-238.5 47t-259 31.5t-274 11.5q-99 0 -194 -6t-191 -19q24 92 78 175.5t135.5 146.5t189.5 100t240 37
q127 0 229.5 -28.5t179 -70.5t128 -89.5t77.5 -86.5q0 -3 -0.5 11t-0.5 38t-1 55t-1 62.5t-0.5 60t-0.5 48.5h115zM627 520q0 34 -22.5 50t-47.5 16q-28 0 -49 -16t-21 -50t21 -47.5t49 -13.5q12 0 24.5 3t22.5 10.5t16.5 19t6.5 28.5zM131 569q0 95 37.5 168t98.5 122
t139 74t159 25t157.5 -22t135 -67.5t94 -115.5t35.5 -167v-475h434v827h115v-934h-774v107h119v487q0 61 -24 107.5t-66 77t-99 46t-123 15.5q-61 0 -118.5 -17.5t-102 -50.5t-71.5 -81t-27 -109v-439l237 238q-11 4 -25.5 14.5t-28 27t-23 39.5t-9.5 54q0 74 45 117t119 43
q35 0 64 -13t49.5 -35t31.5 -51t11 -61q0 -29 -6.5 -51t-16.5 -38t-20.5 -27l-18.5 -19l-204 -197l-92 -85.5l-101 -98.5h-131v565z" />
    <glyph glyph-name=".null" 
 />
    <glyph glyph-name="nonmarkingreturn" horiz-adv-x="1159" 
 />
    <glyph glyph-name="space" unicode=" " horiz-adv-x="1024" 
 />
    <glyph glyph-name="yoyingnobasethai" unicode="&#xf70f;" horiz-adv-x="3102" 
d="M1851 664q0 -66 26.5 -125t73 -103.5t110.5 -70t139 -25.5t138.5 24.5t110 68t73 103t26.5 128.5v999q0 42 15 78.5t42 63.5t63.5 43t79.5 16q42 0 78 -16t62.5 -43t41.5 -63.5t15 -78.5v-999q0 -96 -26.5 -185t-75 -166t-116.5 -140t-150.5 -108t-178 -69.5
t-198.5 -24.5q-105 0 -201 24.5t-179.5 69.5t-151.5 108t-116.5 140t-75 166t-26.5 185v389q0 98 -37.5 180t-106.5 141t-165.5 92t-214.5 33q-109 0 -208 -42t-173 -114l98 -98v-876h119q38 0 71.5 -14.5t58.5 -39.5t39.5 -58.5t14.5 -72.5q0 -38 -14.5 -71.5t-39.5 -58.5
t-58.5 -39.5t-71.5 -14.5h-322q-41 0 -77 15.5t-63 42.5t-42.5 63t-15.5 77v936l-102 111q-28 30 -35.5 63.5t-3 65t16.5 57.5t24 42q67 87 153.5 160.5t187 126t212 82t229.5 29.5q133 0 253.5 -27.5t223.5 -78t186 -123t142 -163t90.5 -196t31.5 -223.5v-396z" />
    <glyph glyph-name="quoteleft" unicode="&#x2018;" horiz-adv-x="770" 
d="M451 2454q18 12 39.5 16.5t42.5 1.5t40 -14t33 -29q14 -20 17.5 -41.5t-1 -42t-16 -38.5t-28.5 -30l-44 -33t-41 -34.5t-39.5 -40.5t-39.5 -51q86 -22 135 -77t49 -132q0 -45 -17.5 -86.5t-48.5 -73.5t-73.5 -51t-93.5 -19q-66 0 -115 26.5t-81 67.5t-47.5 91t-15.5 98
q0 121 87 249t258 243z" />
    <glyph glyph-name="quoteright" unicode="&#x2019;" horiz-adv-x="770" 
d="M262 1688q-18 -12 -39.5 -17t-43 -2t-40.5 14t-33 29q-14 20 -17 41.5t1.5 42t16 38.5t28.5 30l44 33t41 34.5t39.5 40.5t39.5 51q-87 22 -135.5 77t-48.5 132q0 45 17.5 86.5t48.5 73.5t73.5 51t93.5 19q66 0 114.5 -26.5t80.5 -67.5t47.5 -91t15.5 -98q0 -121 -87 -249
t-257 -242z" />
    <glyph glyph-name="quotedblleft" unicode="&#x201c;" horiz-adv-x="1262" 
d="M451 2454q18 12 39.5 16.5t42.5 1.5t40 -14t33 -29q14 -20 17.5 -41.5t-1 -42t-16 -38.5t-28.5 -30l-44 -33t-41 -34.5t-39.5 -40.5t-39.5 -51q86 -22 135 -77t49 -132q0 -45 -17.5 -86.5t-48.5 -73.5t-73.5 -51t-93.5 -19q-66 0 -115 26.5t-81 67.5t-47.5 91t-15.5 98
q0 121 87 249t258 243zM1004 2454q18 12 39.5 16.5t42.5 1.5t40 -14t33 -29q14 -20 17.5 -41.5t-1 -42t-16.5 -38.5t-29 -30l-44 -33t-40.5 -34.5t-39 -40.5t-39.5 -51q86 -22 135 -77t49 -132q0 -45 -17.5 -86.5t-48.5 -73.5t-73.5 -51t-93.5 -19q-66 0 -115 26.5t-81 67.5
t-47.5 91t-15.5 98q0 121 87 249t258 243z" />
    <glyph glyph-name="quotedblright" unicode="&#x201d;" horiz-adv-x="1290" 
d="M807 1688q-18 -12 -39.5 -17t-43 -2t-40.5 14t-33 29q-14 20 -17.5 41.5t1 42t16.5 38.5t29 30l44 33t41 34.5t39.5 40.5t39.5 51q-87 22 -136 77t-49 132q0 45 17.5 86.5t49 73.5t74 51t93.5 19q66 0 114.5 -26.5t80.5 -67.5t47.5 -91t15.5 -98q0 -121 -87 -249
t-257 -242zM254 1688q-18 -12 -39.5 -17t-43 -2t-40.5 14t-33 29q-14 20 -17.5 41.5t1 42t16.5 38.5t29 30l44 33t41 34.5t39.5 40.5t39.5 51q-87 22 -136 77t-49 132q0 45 17.5 86.5t49 73.5t74 51t93.5 19q66 0 114.5 -26.5t80.5 -67.5t47.5 -91t15.5 -98q0 -121 -87 -249
t-257 -242z" />
    <glyph glyph-name="bullet" unicode="&#x2022;" horiz-adv-x="1475" 
d="M1425 819q0 -95 -24.5 -183t-69 -164.5t-107.5 -139.5t-139.5 -107.5t-164.5 -69t-183 -24.5t-183 24.5t-164.5 69t-139.5 107.5t-107.5 139.5t-69 164.5t-24.5 183t24.5 183t69 164.5t107.5 139.5t139.5 107.5t164.5 69t183 24.5t183 -24.5t164.5 -69t139.5 -107.5
t107.5 -139.5t69 -164.5t24.5 -183z" />
    <glyph glyph-name="endash" unicode="&#x2013;" horiz-adv-x="1556" 
d="M1393 897q37 0 69.5 -14.5t57 -39t39 -57t14.5 -69.5t-14.5 -70t-39 -57.5t-57 -38.5t-69.5 -14h-1229q-37 0 -69.5 14t-57 38.5t-39 57.5t-14.5 70t14.5 69.5t39 57t57 39t69.5 14.5h1229z" />
    <glyph glyph-name="emdash" unicode="&#x2014;" horiz-adv-x="3113" 
d="M2949 897q37 0 69.5 -14.5t57 -39t39 -57t14.5 -69.5t-14.5 -70t-39 -57.5t-57 -38.5t-69.5 -14h-2785q-37 0 -69.5 14t-57 38.5t-39 57.5t-14.5 70t14.5 69.5t39 57t57 39t69.5 14.5h2785z" />
    <glyph glyph-name="uni00A0" unicode="&#xa0;" horiz-adv-x="1024" 
 />
    <glyph glyph-name="kokaithai" unicode="&#xe01;" horiz-adv-x="1991" 
d="M1835 184q0 -40 -16 -76t-43 -63.5t-63.5 -44t-78.5 -16.5q-41 0 -77 16.5t-62.5 44t-41.5 63.5t-15 76v869q0 98 -36.5 180.5t-103 142.5t-161 93.5t-211.5 33.5q-218 0 -373 -155l98 -107v-1061q0 -40 -16 -76t-43 -63.5t-63.5 -44t-77.5 -16.5q-42 0 -78 16.5
t-62.5 44t-41.5 63.5t-15 76v934l-89 94q-36 37 -45.5 78t-4 78.5t20.5 68.5t30 49q73 92 159 164.5t182 122.5t201 76.5t218 26.5q131 0 249.5 -27.5t219.5 -79t182 -125t138.5 -164.5t88.5 -197.5t31 -225.5v-869z" />
    <glyph glyph-name="khokhaithai" unicode="&#xe02;" horiz-adv-x="1720" 
d="M377 1384q-23 -32 -54 -52t-65.5 -28t-70.5 -2.5t-68 25.5q-32 21 -53 52.5t-29.5 66.5t-2.5 71.5t27 67.5q45 65 97.5 118t115 90.5t136 58t159.5 20.5q118 0 221 -39.5t179.5 -110t120 -168.5t43.5 -215q0 -79 -14 -140t-39.5 -109.5t-62.5 -88t-83 -74.5t-100.5 -69
l-114.5 -72q-29 -20 -48.5 -39t-31 -41.5t-16.5 -49.5t-5 -62q0 -54 21 -100t58.5 -80.5t88.5 -54t111 -19.5t110.5 19.5t86.5 54t56.5 80.5t20.5 100v1073q0 40 16 76t43 63t62.5 42.5t75.5 15.5t76 -15.5t63 -42.5t42.5 -63t15.5 -76v-1073q0 -129 -52.5 -242.5t-143 -198
t-212.5 -133.5t-260 -49q-137 0 -258.5 49t-212.5 133.5t-144 198t-53 242.5q0 115 29 199t83 150t130 121t170 112q29 18 49.5 33.5t33 33t18.5 38.5t6 50q0 84 -45.5 132t-129.5 48q-49 0 -99.5 -31.5t-96.5 -95.5z" />
    <glyph glyph-name="khokhuatthai" unicode="&#xe03;" horiz-adv-x="1679" 
d="M92 1552q-29 23 -45.5 55t-20.5 66t5.5 68t32.5 61q23 29 54.5 46t65.5 20.5t68 -5.5t62 -32l147 -115l197 160q223 -84 334.5 -220t111.5 -313q0 -78 -14 -136.5t-39.5 -103.5t-61.5 -80.5t-79.5 -67t-94 -62t-104.5 -66.5q-35 -23 -59.5 -46t-40 -50t-22.5 -60.5
t-7 -76.5q0 -51 20.5 -97t56.5 -81t86.5 -55.5t110.5 -20.5t110.5 20.5t86.5 55.5t56.5 81t20.5 97v1073q0 40 16 76t43 63t62.5 42.5t75.5 15.5t76 -15.5t63 -42.5t42.5 -63t15.5 -76v-1073q0 -86 -24 -165.5t-67.5 -148t-104.5 -125t-135 -96.5t-159.5 -62t-177.5 -22
q-137 0 -258 48.5t-212.5 132t-144.5 196.5t-53 242q0 108 26.5 189.5t76.5 148t122 122.5t163 113l51.5 34t46 38t33 47t12.5 62q0 21 -6.5 43t-22.5 47l-221 -181z" />
    <glyph glyph-name="khokhwaithai" unicode="&#xe04;" horiz-adv-x="1925" 
d="M811 1114q38 0 71.5 -14.5t58.5 -39.5t39.5 -58.5t14.5 -71.5q0 -39 -14.5 -72t-39.5 -57t-58.5 -37.5t-71.5 -13.5h-258v-570q0 -40 -16 -76t-43 -63.5t-63.5 -44t-78.5 -16.5q-41 0 -77 16.5t-62.5 44t-41.5 63.5t-15 76v934q0 103 29 199t82 179.5t126.5 152
t163.5 117t192.5 75.5t213.5 27q110 0 213 -27t192.5 -75.5t163.5 -117t126.5 -152t81.5 -179.5t29 -199v-930q0 -40 -16 -76t-43 -63.5t-63.5 -44t-77.5 -16.5q-42 0 -78 16.5t-62.5 44t-41.5 63.5t-15 76v930q0 78 -32.5 147.5t-88 121.5t-130 82t-158.5 30
q-88 0 -163 -30t-130 -82t-86 -121.5t-31 -147.5h258z" />
    <glyph glyph-name="khokhonthai" unicode="&#xe05;" horiz-adv-x="2015" 
d="M1462 1163q0 84 -32.5 158t-94.5 133l-331 -278l-324 278q-59 -59 -93 -135t-34 -160v-45h287q38 0 71.5 -14.5t58.5 -39.5t39.5 -58.5t14.5 -71.5q0 -39 -14.5 -72t-39.5 -57t-58.5 -37.5t-71.5 -13.5h-287v-570q0 -40 -16 -76t-43 -63.5t-63.5 -44t-78.5 -16.5
q-41 0 -77 16.5t-62.5 44t-41.5 63.5t-15 76v983q0 118 36.5 226.5t108 203.5t178 174.5t246.5 141.5l283 -242l286 238q137 -60 242.5 -139t177.5 -173.5t109 -203t37 -226.5v-979q0 -40 -16 -76t-43.5 -63.5t-64 -44t-77.5 -16.5q-42 0 -78 16.5t-62.5 44t-41.5 63.5
t-15 76v979z" />
    <glyph glyph-name="khorakhangthai" unicode="&#xe06;" horiz-adv-x="1937" 
d="M106 1585q-26 21 -40.5 49.5t-18 59t5 61t29.5 55.5t49 40.5t58.5 19t61 -5t56.5 -29.5l111 -82l168 135q185 -71 276.5 -183.5t91.5 -266.5q0 -81 -29 -143t-73 -113t-94.5 -94.5t-94.5 -87.5t-73 -92.5t-29 -108.5q0 -62 18 -119.5t50.5 -108.5t77 -93.5t97.5 -73
t112 -47.5t120 -17q72 0 135.5 20.5t111 61t74.5 100t27 137.5v1004q0 40 15 76t41.5 64t62.5 44.5t78 16.5t78.5 -16.5t63.5 -44.5t43 -64t16 -76v-1004q0 -108 -28.5 -201t-79.5 -169.5t-119.5 -136.5t-149.5 -101t-169.5 -62.5t-178.5 -21.5q-68 0 -134.5 12t-130 38.5
t-122 68.5t-109.5 102v-12q0 -38 -15.5 -73.5t-42.5 -62.5t-62.5 -43.5t-75.5 -16.5q-42 0 -78 16.5t-62.5 43.5t-41.5 62.5t-15 73.5v586q0 95 23 169t59.5 132t81.5 103t89 82l81 68.5t59 63.5q4 8 8 22t5.5 30.5t0.5 32t-6 26.5l-159 -143z" />
    <glyph glyph-name="ngonguthai" unicode="&#xe07;" horiz-adv-x="1626" 
d="M1470 410q0 -89 -36.5 -168.5t-99 -138.5t-145.5 -93.5t-177 -34.5q-72 0 -136 19t-118 53t-96.5 80.5t-71.5 101.5l-475 959q-18 35 -20.5 73.5t10 74.5t38 66t62.5 48q35 18 73.5 20t74.5 -10t66 -37.5t48 -62.5l483 -979q20 -33 62 -33q28 0 46.5 18.5t18.5 43.5v1065
h-86q-38 0 -71.5 14.5t-58.5 39t-39.5 58t-14.5 72.5q0 38 14.5 71.5t39.5 58.5t58.5 39.5t71.5 14.5h295q38 0 71.5 -14.5t58.5 -39.5t39.5 -58.5t14.5 -71.5v-1249z" />
    <glyph glyph-name="chochanthai" unicode="&#xe08;" horiz-adv-x="1786" 
d="M1274 111q-22 -56 -73 -91.5t-116 -35.5t-111 35t-65 87l-299 803q-14 37 -11.5 75t18.5 71.5t43.5 59.5t64.5 40t75.5 12t72.5 -17t61 -43t41 -67l119 -323l114 295q25 66 25 127q0 72 -30.5 136.5t-83 113.5t-123.5 77.5t-152 28.5q-67 0 -118 -17t-90 -45.5t-66.5 -64
t-47.5 -73t-33 -73t-22 -63.5q-11 -38 -36.5 -68t-59 -48.5t-72.5 -24t-78 5.5q-38 11 -68 35.5t-48.5 57.5t-24 71.5t5.5 77.5q35 129 104 239t166.5 190.5t220.5 126.5t267 46q109 0 210 -26t188.5 -73t159 -113.5t122 -147.5t78.5 -174.5t28 -194.5q0 -134 -49 -250z" />
    <glyph glyph-name="chochingthai" unicode="&#xe09;" horiz-adv-x="1864" 
d="M573 651q0 -82 31.5 -142t83.5 -98t118.5 -54.5t135.5 -11t135.5 32t118.5 74t83.5 116t31.5 157.5v414q0 73 -30.5 138t-83 113.5t-123.5 76.5t-152 28q-60 0 -117 -14t-105.5 -40.5t-85.5 -64.5t-57 -86q-17 -38 -45 -63.5t-62.5 -37.5t-72.5 -9.5t-74 20.5t-60.5 46
t-37 62t-11 71.5t18.5 74.5q48 84 115.5 159.5t156 132t197.5 89.5t240 33q107 0 207 -26t187 -73t158.5 -113.5t122.5 -147.5t79 -174.5t28 -194.5v-963q0 -40 -15.5 -75t-42.5 -61.5t-63 -42.5t-76 -17q-38 -2 -73.5 13.5t-62.5 41t-43.5 58.5t-16.5 67
q-95 -101 -209 -143t-234 -42q-86 3 -170.5 27t-161 66t-141.5 102t-113 134.5t-75 164t-27 190.5v91q-37 0 -69.5 14t-57 38.5t-39 57.5t-14.5 70t14.5 69.5t39 57t57 39t69.5 14.5h213q37 0 69.5 -14.5t57 -39t39 -57t14.5 -69.5v-279z" />
    <glyph glyph-name="chochangthai" unicode="&#xe0a;" horiz-adv-x="1757" 
d="M1483 1421q46 -59 70 -131t24 -155v-533q0 -131 -52.5 -245t-143 -199t-212.5 -134t-260 -49q-137 0 -258 49t-212 134t-144 199t-53 245q0 85 14 150.5t41 117.5t65 94t85.5 78.5t104 71.5l120.5 74q29 18 49.5 35.5t33 35.5t18 38.5t5.5 45.5q0 84 -51 130.5t-141 46.5
q-25 0 -47.5 -8t-44 -26t-43.5 -46t-45 -68q-21 -36 -53 -57.5t-69.5 -28.5t-77.5 0t-75 29q-34 21 -56.5 54t-31 70t-2.5 75.5t29 70.5q48 67 103.5 122t120 94.5t138.5 61t158 21.5q85 0 162.5 -22t144.5 -61.5t120 -94.5t89 -122l364 378q27 28 63 42t73.5 13.5t74 -14.5
t64.5 -41q27 -27 40.5 -62t13.5 -71.5t-13.5 -72.5t-40.5 -64zM1184 1135q0 23 -5.5 47t-19.5 51q-14 -83 -49.5 -141t-86.5 -104t-114.5 -86l-134.5 -87q-31 -20 -56.5 -40t-44 -44.5t-28.5 -55.5t-10 -73q0 -54 21.5 -100t59 -80.5t87 -54t106.5 -19.5t107 19.5t87.5 54
t59 80.5t21.5 100v533z" />
    <glyph glyph-name="sosothai" unicode="&#xe0b;" horiz-adv-x="1749" 
d="M111 1561q-31 23 -48 54.5t-21 66.5t6 69.5t34 63.5t55.5 46t66 21t68.5 -5t64 -30l172 -123l201 168q143 -54 240 -130t150 -173l351 373q27 28 63 42t73.5 14t73.5 -14.5t64 -41.5q27 -27 40.5 -61.5t13 -71.5t-14 -72.5t-39.5 -64.5l-249 -271q40 -59 67 -131t27 -155
v-537q0 -86 -24 -165.5t-68 -149t-105.5 -126t-136 -97t-160.5 -63t-178 -22.5q-138 0 -260 49t-212.5 133.5t-143 198t-52.5 242.5q0 103 23 180.5t61 135.5t86 101t98.5 77t98.5 62.5t86 58t61 64t23 79.5q0 28 -5.5 49.5t-15.5 40.5l-229 -189zM766 823
q-32 -23 -58.5 -45.5t-45.5 -48.5t-29 -57.5t-10 -73.5q0 -51 21.5 -97t58.5 -81t87 -55.5t107 -20.5q60 0 110.5 20t86.5 55t56.5 82t20.5 101v528q0 24 -5 48.5t-19 52.5q-16 -78 -51.5 -134.5t-86 -102t-112.5 -85.5z" />
    <glyph glyph-name="chochoethai" unicode="&#xe0c;" horiz-adv-x="3138" 
d="M1864 823q0 -115 39 -203.5t100.5 -149t137 -91.5t149.5 -31q57 0 108.5 18.5t91 57.5t63 98.5t23.5 141.5v995q0 43 15 80.5t42 65t64 43.5t80 16t80.5 -16t65 -43.5t43.5 -65t16 -80.5v-995q0 -103 -25.5 -194.5t-70.5 -168t-107 -137t-136 -102.5t-156.5 -64.5
t-168.5 -22.5q-119 0 -233 47.5t-221 157.5q0 -41 -16 -77.5t-43 -63.5t-63.5 -43t-78.5 -16t-78.5 16t-63.5 43t-43 63.5t-16 77.5v873q0 98 -37.5 180.5t-106.5 142.5t-165.5 93.5t-214.5 33.5q-108 0 -204.5 -39.5t-180.5 -120.5l98 -98v-876h103q38 0 71.5 -14.5
t58.5 -39.5t39.5 -58.5t14.5 -72.5q0 -38 -14.5 -71.5t-39.5 -58.5t-58.5 -39.5t-71.5 -14.5h-302q-41 0 -77 15.5t-63 42.5t-42.5 63t-15.5 77v936l-102 111q-28 30 -35.5 63.5t-3 65t16.5 57.5t24 42q67 87 153.5 160.5t187 126t212.5 82t230 29.5q133 0 253.5 -27.5
t223.5 -78t186 -123t142 -163t90.5 -196t31.5 -223.5v-237z" />
    <glyph glyph-name="dochadathai" unicode="&#xe0e;" horiz-adv-x="2019" 
d="M1864 -332l-488 -450q-84 60 -155.5 100t-135 64t-122.5 34.5t-119 10.5t-117 -10t-113 -29.5t-114 -49t-119 -67.5q-31 -20 -66 -26t-68.5 0.5t-64 26.5t-51.5 52q-20 31 -25 65t3 67t28 61.5t51 48.5q78 51 156 90t158 65.5t165 40t177 13.5q127 0 248 -25t235 -78
l139 131v1250q0 98 -36 180t-103 141t-161.5 92t-211.5 33q-51 0 -101.5 -11t-98.5 -31.5t-91.5 -49t-80.5 -64.5l98 -102v-1043q0 -41 -15.5 -77t-42.5 -63t-63 -42.5t-77 -15.5h-236q-39 0 -72.5 14.5t-58.5 39.5t-39.5 58.5t-14.5 71.5q0 39 14.5 73t39.5 60t58.5 41
t72.5 15h37v758l-102 111q-28 30 -35.5 63.5t-3 65t16.5 57.5t24 42q67 87 151.5 160.5t182 126t207 82t227.5 29.5q133 0 252.5 -27.5t221 -78t182.5 -123t138.5 -163t88 -196t30.5 -223.5v-1389z" />
    <glyph glyph-name="topatakthai" unicode="&#xe0f;" horiz-adv-x="2019" 
d="M1864 -324l-533 -471l-319 287l-320 -287l-459 410q-26 23 -39.5 53t-15.5 62.5t8 64.5t31 58q23 26 54 40.5t64 17t65.5 -7t58.5 -30.5l246 -213l307 274l307 -274l151 127v1266q0 98 -37 179.5t-104.5 140t-162.5 90.5t-212 32q-102 0 -200 -40t-172 -112l98 -102
v-1043q0 -41 -15.5 -77t-42.5 -63t-63 -42.5t-77 -15.5h-236q-39 0 -72.5 14.5t-58.5 39.5t-39.5 58.5t-14.5 71.5q0 39 14.5 73t39.5 60t58.5 41t72.5 15h37v758l-102 111q-28 30 -35.5 63.5t-3 65t16.5 57.5t24 42q67 87 151.5 160.5t182 126t207 82t227.5 29.5
q133 0 252.5 -27.5t221 -78t182.5 -123t138.5 -163t88 -196t30.5 -223.5v-1381z" />
    <glyph glyph-name="thothanthai" unicode="&#xe10;" horiz-adv-x="1786" 
d="M1335 -242q0 39 14.5 72.5t39.5 58.5t58.5 39.5t72.5 14.5q38 0 71.5 -14.5t58.5 -39.5t39.5 -58.5t14.5 -72.5v-237l-365 -320l-327 299l-332 -299l-459 402q-26 23 -40 52.5t-16 61t8 62.5t32 57q23 26 53 40.5t62.5 17.5t64 -6.5t57.5 -30.5l242 -209l332 291
l319 -279v98zM1274 111q-22 -56 -73 -91.5t-116 -35.5t-111 35t-65 87l-299 803q-14 37 -11.5 75t18.5 71.5t43.5 59.5t64.5 40t75 12t72.5 -17t61.5 -43t41 -67l119 -323l114 295q25 66 25 127q0 72 -30.5 136.5t-83 113.5t-123.5 77.5t-152 28.5q-66 0 -117.5 -17
t-90.5 -45t-67 -64t-48 -73t-32.5 -73l-21.5 -64q-12 -38 -37 -68t-59 -48.5t-72.5 -24t-77.5 5.5q-38 11 -68 35.5t-48.5 57.5t-24 71.5t5.5 77.5q14 51 32.5 100.5t45.5 99t63.5 99t87.5 98.5q109 99 243 152t286 53q83 0 159.5 -15t147.5 -43l45 -20l143 156
q29 31 65.5 47t74 18t74 -10.5t65.5 -38.5q31 -28 47 -64t18 -74t-10.5 -75t-38.5 -66l-135 -147q65 -82 98 -184.5t33 -212.5q0 -134 -49 -250z" />
    <glyph glyph-name="thonangmonthothai" unicode="&#xe11;" horiz-adv-x="1950" 
d="M229 745q0 72 10.5 135.5t28 119t39.5 104.5t45 92q26 51 51.5 95t44 81.5t27 69t0.5 57.5l-176 -168l-283 275q-21 21 -32.5 48t-12.5 55t9 55.5t32 50.5q21 23 48.5 35t56 13t56 -9t48.5 -31l78 -74l176 135q181 -74 266.5 -185.5t85.5 -255.5q0 -66 -20 -126.5
t-50 -118.5t-64 -116t-62 -119q-31 -67 -25 -172l676 1069q127 -14 227 -62t169 -122.5t105 -170.5t36 -207v-1122q0 -41 -16 -77t-43 -62.5t-63.5 -41.5t-78.5 -15t-78 15t-62.5 41.5t-41.5 62.5t-15 77v1139q0 28 -3.5 51t-12.5 39l-838 -1331q-24 -38 -65 -61t-90 -23
q-38 0 -71.5 14t-58.5 39t-39 58.5t-14 71.5v572z" />
    <glyph glyph-name="thophuthaothai" unicode="&#xe12;" horiz-adv-x="3183" 
d="M1262 111q-31 -26 -68.5 -51.5t-83 -45t-99 -31.5t-114.5 -12q-134 0 -245 35t-199.5 97t-154.5 148.5t-109.5 189t-65 218.5t-21.5 238q0 192 49 350.5t139.5 283t219.5 214t289 143.5l262 -205l266 205q135 -48 243 -114t183.5 -152.5t115.5 -193.5t40 -236v-381
q0 -112 39 -199t100.5 -146.5t137 -90.5t149.5 -31q57 -2 108.5 17t91 58t63 99t23.5 141v1000q0 43 15 80.5t42 65t64 43.5t80 16t80.5 -16t65 -43.5t43.5 -65t16 -80.5v-1000q0 -158 -53 -284t-142.5 -213.5t-205.5 -134.5t-242 -47q-57 0 -117.5 10.5t-121.5 34.5
t-121 62t-115 93q0 -41 -16 -77.5t-43 -63.5t-63.5 -43t-78.5 -16t-78.5 16t-63.5 43t-43 63.5t-16 77.5v1004q0 83 -38 153.5t-97 116.5l-311 -229l-311 233q-50 -35 -94.5 -86.5t-78 -120.5t-53.5 -157t-20 -197q0 -128 30 -230t82.5 -174t124.5 -110.5t156 -38.5
q34 0 59.5 12t59.5 37q31 23 66 35t70.5 10.5t69 -16.5t60.5 -45q25 -29 36.5 -64t9 -71.5t-19 -70.5t-46.5 -60z" />
    <glyph glyph-name="nonenthai" unicode="&#xe13;" horiz-adv-x="3117" 
d="M1864 659q0 -80 23.5 -140t63 -99.5t91 -59.5t108.5 -20q72 0 145.5 28t132 82t95.5 132.5t37 179.5v901q0 42 15 78.5t42 63.5t64 43t80 16q41 0 77.5 -16t63.5 -43t43 -63.5t16 -78.5v-1483q0 -41 -16 -77.5t-43 -63.5t-63.5 -43t-77.5 -16q-42 0 -78.5 16t-63.5 43
t-43 63.5t-16 77.5q-54 -63 -109.5 -103.5t-113.5 -63.5t-117 -31.5t-119 -6.5q-128 5 -243 55.5t-202 139.5t-138.5 213t-51.5 276v394q0 98 -37 180t-105.5 141t-166.5 92t-219 33q-108 0 -206 -42t-175 -114l94 -98v-876h107q38 0 71.5 -14.5t58.5 -39.5t39.5 -58.5
t14.5 -72.5q0 -38 -14.5 -71.5t-39.5 -58.5t-58.5 -39.5t-71.5 -14.5h-306q-41 0 -77 15.5t-63 42.5t-42.5 63t-15.5 77v934l-102 111q-28 30 -35.5 63.5t-3 65t16.5 57.5t24 42q67 87 153.5 160.5t187 126t212.5 82t230 29.5q133 0 253.5 -27.5t223.5 -78t186 -123
t142 -163t90.5 -196t31.5 -223.5v-399z" />
    <glyph glyph-name="dodekthai" unicode="&#xe14;" horiz-adv-x="2023" 
d="M1008 377q32 21 68 28.5t70.5 1.5t65 -25t50.5 -50q21 -31 27.5 -66t-0.5 -69t-26.5 -65t-50.5 -54q-24 -18 -54 -36t-68 -31.5t-85.5 -22t-107.5 -8.5q-198 0 -347 72t-248.5 196t-149.5 288t-50 349q0 171 37.5 310.5t103 248.5t155 189t194 132t218.5 77.5t230 25.5
q102 0 203.5 -21.5t193.5 -63.5t171 -104t136.5 -142.5t90.5 -179t33 -214.5v-963q0 -41 -16 -77.5t-43 -63.5t-63.5 -43t-78.5 -16q-43 0 -80 16t-64 43t-42 63.5t-15 77.5v955q0 90 -41.5 161t-109 118.5t-154 70t-176.5 15.5t-176.5 -46t-154 -113.5t-109 -187.5
t-41.5 -268q0 -125 30 -224t82.5 -169t124.5 -107t156 -37q38 0 66.5 8t44.5 21z" />
    <glyph glyph-name="totaothai" unicode="&#xe15;" horiz-adv-x="2036" 
d="M1012 397q32 22 69 29t72.5 1t66 -25t50.5 -50q21 -32 27 -66.5t-1.5 -68t-26.5 -64t-48 -55.5q-26 -23 -59 -43.5t-74 -36.5t-91.5 -25t-111.5 -9q-128 0 -235.5 33.5t-194 94t-152 144.5t-109.5 185t-66 215.5t-22 236.5q0 192 47 350.5t135 283t214 214t284 143.5
l263 -201l258 201q130 -48 236 -114t181 -152.5t115.5 -193.5t40.5 -236v-1012q0 -40 -16 -75.5t-43 -62.5t-63.5 -42.5t-78.5 -15.5q-41 0 -77 15.5t-62.5 42.5t-41.5 62.5t-15 75.5v1004q0 83 -34 151t-93 115l-312 -234l-311 242q-48 -37 -90 -90t-74 -123t-50.5 -157
t-18.5 -191q0 -125 30 -225t82.5 -170t122.5 -108t150 -38q46 0 75.5 15t51.5 30z" />
    <glyph glyph-name="thothungthai" unicode="&#xe16;" horiz-adv-x="1991" 
d="M1835 180q0 -40 -16 -76t-43 -63.5t-63.5 -44t-78.5 -16.5q-41 0 -77 16.5t-62.5 44t-41.5 63.5t-15 76l4 873q0 98 -37 180.5t-104.5 142.5t-162.5 93.5t-212 33.5q-51 0 -101.5 -11t-98.5 -31.5t-92 -49t-81 -63.5l98 -103v-876h99q38 0 71.5 -14.5t58.5 -39.5
t39.5 -58.5t14.5 -72.5q0 -38 -14.5 -71.5t-39.5 -58.5t-58.5 -39.5t-71.5 -14.5h-298q-41 0 -77 15.5t-63 42.5t-42.5 63t-15.5 77v916l-89 94q-36 37 -45.5 78t-4 78.5t20.5 68.5t30 49q73 92 159 164.5t182 122.5t201 76.5t218 26.5q131 0 249.5 -27.5t219.5 -79
t182 -125t138.5 -164.5t88.5 -197.5t31 -225.5v-873z" />
    <glyph glyph-name="thothahanthai" unicode="&#xe17;" horiz-adv-x="1925" 
d="M553 1671q115 102 231.5 153.5t243.5 51.5q93 0 184.5 -19.5t173.5 -58t152.5 -96.5t121.5 -135t80 -173t29 -210v-1008q0 -41 -16 -77t-43 -62.5t-63.5 -41.5t-77.5 -15q-42 0 -78 15t-62.5 41.5t-41.5 62.5t-15 77v1008q0 78 -27 138.5t-74.5 101.5t-111 62t-135.5 21
q-92 0 -177.5 -37t-150.5 -99.5t-104 -145t-39 -172.5v-877q0 -41 -16 -77t-43 -62.5t-63.5 -41.5t-78.5 -15q-41 0 -77 15t-62.5 41.5t-41.5 62.5t-15 77v1495q0 42 15 78t41.5 62.5t62.5 41.5t77 15q42 0 78.5 -15t63.5 -41.5t43 -62.5t16 -78z" />
    <glyph glyph-name="thothongthai" unicode="&#xe18;" horiz-adv-x="1864" 
d="M123 1425q0 89 34.5 159.5t93.5 124.5t137.5 92t165.5 62t178.5 35t176.5 11q83 0 183 -11t197.5 -39t182.5 -75.5t138 -120.5q42 -58 47 -110.5t-15.5 -93t-60.5 -67t-89.5 -32t-101.5 12.5t-96 65q-20 20 -59.5 41.5t-92 40t-115 31t-126.5 14.5q-68 1 -134.5 -5
t-120 -21.5t-87.5 -42t-35 -66.5q-1 -24 26 -45t69.5 -39.5t94.5 -33.5t101.5 -26.5l89 -20l58.5 -12.5q80 -18 166 -42.5t169 -58.5t157.5 -80t130.5 -109t89 -144t33 -184q0 -104 -29 -194.5t-81.5 -164.5t-124.5 -131.5t-158 -97t-183 -60t-198 -20.5q-103 0 -200 20.5
t-183.5 60t-159 97t-125 131.5t-81.5 164t-29 195v160q0 40 15.5 75.5t42.5 62.5t62.5 42.5t75.5 15.5t76 -15.5t63 -42.5t42.5 -62.5t15.5 -75.5v-156q1 -68 27.5 -123t75.5 -94t120 -60.5t162 -21.5q87 0 157.5 21.5t120 60t76.5 93t27 120.5t-36.5 113t-97 80.5
t-138 57.5t-158.5 44l-186 46.5t-177.5 52t-157.5 64.5t-126.5 83.5t-84 108.5t-30.5 140z" />
    <glyph glyph-name="nonuthai" unicode="&#xe19;" horiz-adv-x="1925" 
d="M1769 180q0 -41 -16 -77.5t-43 -63.5t-63.5 -43t-77.5 -16q-42 0 -78 16t-62.5 43t-41.5 63.5t-15 77.5v29q-49 -60 -107 -105.5t-121.5 -75.5t-130 -45.5t-132.5 -15.5q-91 0 -180.5 21.5t-170 62.5t-149 101t-118.5 136.5t-78.5 170t-28.5 200.5v1004q0 42 15 78.5
t41.5 63.5t62.5 43t77 16q42 0 78.5 -16t63.5 -43t43 -63.5t16 -78.5v-1004q0 -78 27.5 -137.5t74.5 -100t110.5 -61t135.5 -20.5q57 0 114.5 19.5t109.5 53.5t97.5 81t78.5 103t52 117.5t19 125.5v823q0 42 15 78.5t41.5 63.5t62.5 43t78 16q41 0 77.5 -16t63.5 -43
t43 -63.5t16 -78.5v-1483z" />
    <glyph glyph-name="bobaimaithai" unicode="&#xe1a;" horiz-adv-x="1925" 
d="M1372 1663q0 42 15 78.5t41.5 63.5t62.5 43t78 16q41 0 77.5 -16t63.5 -43t43 -63.5t16 -78.5v-938q0 -105 -29 -201t-81.5 -179.5t-126.5 -151.5t-163.5 -116.5t-192.5 -75t-213 -26.5q-111 0 -213.5 26.5t-192.5 75t-163.5 116.5t-126.5 151.5t-82 180t-29 200.5v938
q0 42 15 78.5t41.5 63.5t62.5 43t77 16q42 0 78.5 -16t63.5 -43t43 -63.5t16 -78.5v-938q0 -77 31 -145.5t86 -120t130 -81.5t163 -30q84 0 158.5 30t130 81.5t88 120t32.5 145.5v938z" />
    <glyph glyph-name="poplathai" unicode="&#xe1b;" horiz-adv-x="1925" 
d="M1372 2486q0 42 15 78.5t41.5 63.5t62.5 43t78 16q41 0 77.5 -16t63.5 -43t43 -63.5t16 -78.5v-1761q0 -105 -29 -201t-81.5 -179.5t-126.5 -151.5t-163.5 -116.5t-192.5 -75t-213 -26.5q-111 0 -213.5 26.5t-192.5 75t-163.5 116.5t-126.5 151.5t-82 180t-29 200.5v938
q0 42 15 78.5t41.5 63.5t62.5 43t77 16q42 0 78.5 -16t63.5 -43t43 -63.5t16 -78.5v-938q0 -77 31 -145.5t86 -120t130 -81.5t163 -30q84 0 158.5 30t130 81.5t88 120t32.5 145.5v1761z" />
    <glyph glyph-name="phophungthai" unicode="&#xe1c;" horiz-adv-x="2159" 
d="M963 1487q-91 -11 -166.5 -42.5t-129.5 -79.5t-84 -112t-30 -139v-610q0 -31 12.5 -58.5t34.5 -48.5t52 -33t65 -12t65 12t52 33t34.5 48.5t12.5 58.5v516q0 41 15 77.5t41.5 64t62.5 43.5t77 16q42 0 78.5 -16t63.5 -43.5t43 -64t16 -77.5v-516q0 -31 12.5 -58.5
t34.5 -48.5t52 -33t65 -12t65 12t52 33t34.5 48.5t12.5 58.5v1159q0 42 15 78.5t41.5 63.5t62.5 43t77 16q42 0 78.5 -16t63.5 -43t43 -63.5t16 -78.5v-1159q0 -109 -44.5 -204t-121 -165t-178.5 -110.5t-217 -40.5q-210 0 -365 122q-148 -122 -360 -122q-115 0 -217 40.5
t-178.5 110.5t-121 165t-44.5 204v610q0 161 67 295.5t191 237.5q61 51 127 87t131 60t127.5 37.5t118.5 19.5q37 5 71 -5.5t61.5 -32.5t46.5 -53t25 -68q5 -37 -5.5 -72t-32.5 -63t-53 -47t-68 -23z" />
    <glyph glyph-name="fofathai" unicode="&#xe1d;" horiz-adv-x="2159" 
d="M963 1487q-91 -11 -166.5 -42.5t-129.5 -79.5t-84 -112t-30 -139v-610q0 -31 12.5 -58.5t34.5 -48.5t52 -33t65 -12t65 12t52 33t34.5 48.5t12.5 58.5v516q0 41 15 77.5t41.5 64t62.5 43.5t77 16q42 0 78.5 -16t63.5 -43.5t43 -64t16 -77.5v-516q0 -31 12.5 -58.5
t34.5 -48.5t52 -33t65 -12t65 12t52 33t34.5 48.5t12.5 58.5v1982q0 42 15 78.5t41.5 63.5t62.5 43t77 16q42 0 78.5 -16t63.5 -43t43 -63.5t16 -78.5v-1982q0 -109 -44.5 -204t-121 -165t-178.5 -110.5t-217 -40.5q-210 0 -365 122q-148 -122 -360 -122q-115 0 -217 40.5
t-178.5 110.5t-121 165t-44.5 204v610q0 161 67 295.5t191 237.5q61 51 127 87t131 60t127.5 37.5t118.5 19.5q37 5 71 -5.5t61.5 -32.5t46.5 -53t25 -68q5 -37 -5.5 -72t-32.5 -63t-53 -47t-68 -23z" />
    <glyph glyph-name="phophanthai" unicode="&#xe1e;" horiz-adv-x="2232" 
d="M156 1663q0 42 15 78.5t41.5 63.5t62.5 43t77 16q42 0 78.5 -16t63.5 -43t43 -63.5t16 -78.5v-1143q0 -35 13.5 -66t37.5 -53.5t58 -35.5t75 -13q39 0 72 13t57 35.5t38 53.5t14 66v1143q0 42 15 78.5t41.5 63.5t62.5 43t77 16q42 0 78.5 -16t63.5 -43t43 -63.5t16 -78.5
v-1143q0 -35 13.5 -66t37.5 -53.5t58 -35.5t75 -13q39 0 72.5 13t58 35.5t39 53.5t14.5 66v1147q0 40 15 76t41.5 63t62.5 42.5t78 15.5q40 0 76 -15.5t63 -42.5t42.5 -63t15.5 -76v-1147q0 -115 -46 -214t-124.5 -171.5t-184 -113.5t-223.5 -41q-221 0 -381 135
q-159 -135 -381 -135q-120 0 -225.5 41t-184.5 113.5t-125 171.5t-46 214v1143z" />
    <glyph glyph-name="fofanthai" unicode="&#xe1f;" horiz-adv-x="2232" 
d="M156 1663q0 42 15 78.5t41.5 63.5t62.5 43t77 16q42 0 78.5 -16t63.5 -43t43 -63.5t16 -78.5v-1143q0 -35 13.5 -66t37.5 -53.5t58 -35.5t75 -13q39 0 72 13t57 35.5t38 53.5t14 66v1143q0 42 15 78.5t41.5 63.5t62.5 43t77 16q42 0 78.5 -16t63.5 -43t43 -63.5t16 -78.5
v-1143q0 -35 13.5 -66t37.5 -53.5t58 -35.5t75 -13q39 0 72.5 13t58 35.5t39 53.5t14.5 66v1970q0 40 15 76t41.5 63t62.5 42.5t78 15.5q40 0 76 -15.5t63 -42.5t42.5 -63t15.5 -76v-1970q0 -115 -46 -214t-124.5 -171.5t-184 -113.5t-223.5 -41q-221 0 -381 135
q-159 -135 -381 -135q-120 0 -225.5 41t-184.5 113.5t-125 171.5t-46 214v1143z" />
    <glyph glyph-name="phosamphaothai" unicode="&#xe20;" horiz-adv-x="2019" 
d="M1864 180q0 -40 -16 -76t-43 -63.5t-63.5 -44t-78.5 -16.5q-40 0 -75 16.5t-61.5 44t-41.5 63.5t-15 76v873q0 98 -37 180.5t-104.5 142.5t-162.5 93.5t-212 33.5q-102 0 -198.5 -42t-173.5 -113l98 -103v-1047q0 -41 -15.5 -77t-42.5 -63t-63 -42.5t-77 -15.5h-220
q-38 0 -71.5 14.5t-58.5 39.5t-39.5 58.5t-14.5 71.5q0 39 14.5 72.5t39.5 58.5t58.5 39.5t71.5 14.5h21v762l-102 111q-28 30 -35.5 63.5t-3 65t16.5 57.5t24 42q67 87 151.5 160.5t182 126t207 82t227.5 29.5q133 0 252.5 -27.5t221 -78t182.5 -123t138.5 -163t88 -196
t30.5 -223.5v-877z" />
    <glyph glyph-name="momathai" unicode="&#xe21;" horiz-adv-x="1925" 
d="M156 1663q0 42 16 78.5t43 63.5t63.5 43t77.5 16q42 0 78 -16t62.5 -43t41.5 -63.5t15 -78.5v-823q0 -59 19 -119.5t52 -116t78.5 -104t97.5 -84t109.5 -56t114.5 -20.5q72 0 135.5 20.5t111 61t74.5 100t27 137.5v1004q0 42 16 78.5t43 63.5t63.5 43t78.5 16
q41 0 77 -16t62.5 -43t41.5 -63.5t15 -78.5v-1004q0 -107 -28.5 -200.5t-78.5 -170t-118.5 -136.5t-149 -101t-170 -62.5t-180.5 -21.5q-66 0 -132.5 15.5t-130 45.5t-121.5 75.5t-107 105.5v-29q0 -41 -15 -77.5t-41.5 -63.5t-62.5 -43t-78 -16q-41 0 -77.5 16t-63.5 43
t-43 63.5t-16 77.5v1483z" />
    <glyph glyph-name="yoyakthai" unicode="&#xe22;" horiz-adv-x="1855" 
d="M971 1749q31 -23 49 -55t23 -68t-3.5 -72t-31.5 -67t-54.5 -48t-66 -20.5t-70 5.5t-67.5 30q-25 16 -49 28.5t-46 12.5q-29 0 -52.5 -9.5t-40 -25.5t-25.5 -37.5t-9 -46.5q0 -44 50 -94l323 -324l-364 -360q23 -55 60 -101.5t85 -80.5t106.5 -53t124.5 -19q85 0 158.5 31
t127.5 84t85 123.5t31 150.5v938q0 40 15 75t40.5 61.5t60 41.5t72.5 15q42 0 77 -15t61 -41.5t40.5 -61.5t14.5 -75v-938q0 -105 -28 -202.5t-79.5 -181.5t-123 -153t-158.5 -118t-187 -76t-207 -27q-101 0 -196 25t-179.5 71.5t-155 113.5t-124 150.5t-86.5 182.5t-41 211
l234 234q-48 44 -87 87t-67 91.5t-43.5 105.5t-15.5 129q0 103 40 193t108.5 156.5t160 104.5t194.5 38q54 0 98.5 -10t82.5 -26.5t71 -38t64 -44.5z" />
    <glyph glyph-name="roruathai" unicode="&#xe23;" horiz-adv-x="1757" 
d="M1614 528q0 -95 -29.5 -173t-81.5 -138.5t-122 -105t-151.5 -74t-170.5 -43.5t-178 -14q-53 0 -112.5 5t-121 16.5t-122.5 30.5t-117 46t-105 63.5t-86 83.5q-44 57 -51.5 110.5t11 95t58 68t89 31.5t104.5 -15.5t104 -72.5q22 -24 61.5 -43.5t86.5 -33.5t97.5 -21.5
t94.5 -7.5q82 0 144 18t104 45t63 59.5t21 61.5q0 55 -28 93t-70.5 63.5t-93 42.5l-94.5 31l-175.5 48t-170 55t-152.5 73t-123.5 102.5t-82.5 144.5t-30 199q0 99 31 175.5t84 133.5t123 96t148 62.5t159 34t156 10.5q83 0 169.5 -11.5t168.5 -39.5t154 -75.5t126 -119.5
q42 -57 48.5 -109.5t-13 -94.5t-58.5 -69t-88 -31.5t-102.5 16.5t-101.5 75q-23 26 -50.5 46.5t-63 34.5t-82 21.5t-107.5 7.5q-63 0 -117.5 -14t-95 -37t-63.5 -52t-23 -60q0 -54 29.5 -91t73.5 -62.5t95.5 -42.5t96.5 -29l173.5 -48.5t169 -54t153 -72t124 -102t83 -144
t30.5 -198.5z" />
    <glyph glyph-name="ruthai" unicode="&#xe24;" horiz-adv-x="1991" 
d="M1835 -521q0 -40 -16 -76t-43 -63.5t-63.5 -44t-78.5 -16.5q-41 0 -76.5 16.5t-61 44t-40 63.5t-14.5 76v1574q0 98 -37 180.5t-104.5 142.5t-162.5 93.5t-212 33.5q-51 0 -101.5 -11t-98.5 -31.5t-92 -49t-81 -63.5l98 -103v-876h99q38 0 71.5 -14.5t58.5 -39.5
t39.5 -58.5t14.5 -72.5q0 -38 -14.5 -71.5t-39.5 -58.5t-58.5 -39.5t-71.5 -14.5h-298q-41 0 -77 15.5t-63 42.5t-42.5 63t-15.5 77v916l-89 94q-36 37 -45.5 78t-4 78.5t20.5 68.5t30 49q73 92 159 164.5t182 122.5t201 76.5t218 26.5q131 0 249.5 -27.5t219.5 -79
t182 -125t138.5 -164.5t88.5 -197.5t31 -225.5v-1574z" />
    <glyph glyph-name="lolingthai" unicode="&#xe25;" horiz-adv-x="1835" 
d="M397 8q-59 55 -104.5 113t-77 121.5t-47.5 133.5t-16 148q0 105 28 198.5t79 172t121 140.5t153.5 105t178 66t193.5 23q51 0 106 -8t108 -23t100.5 -36.5t83.5 -47.5v70q1 75 -30.5 133t-87 97.5t-130 60t-158.5 20.5q-92 0 -155 -20t-105 -52t-67 -73t-42 -84
q-14 -36 -38.5 -64t-56 -46t-67.5 -23t-71 6q-37 10 -65.5 34.5t-45.5 57t-22 69.5t6 72q7 29 24 69t44.5 84.5t67 90.5t93.5 88q54 43 114 73.5t124 49.5t130 28t132 9q90 0 183 -19t180 -57.5t163 -96.5t133 -136.5t90 -177t33 -218.5v-987q0 -38 -15 -73t-41 -61.5
t-61 -42t-75 -15.5t-74.5 15.5t-60 42t-40 61.5t-14.5 73v344q0 81 -31 144.5t-84 107t-125 66t-153 22.5q-75 0 -143.5 -22.5t-120 -65t-82.5 -104.5t-31 -140q0 -35 9 -66.5t26 -61t41.5 -58.5t54.5 -59q28 -26 42.5 -60t15 -70.5t-12.5 -72t-40 -64.5q-26 -27 -60 -41.5
t-70 -15.5t-71.5 12.5t-65.5 40.5z" />
    <glyph glyph-name="luthai" unicode="&#xe26;" horiz-adv-x="2019" 
d="M1864 -521q0 -40 -16 -76t-43 -63.5t-63.5 -44t-78.5 -16.5q-40 0 -75 16.5t-61.5 44t-41.5 63.5t-15 76v1574q0 98 -37 180.5t-104.5 142.5t-162.5 93.5t-212 33.5q-102 0 -198.5 -42t-173.5 -113l98 -103v-1047q0 -41 -15.5 -77t-42.5 -63t-63 -42.5t-77 -15.5h-220
q-38 0 -71.5 14.5t-58.5 39.5t-39.5 58.5t-14.5 71.5q0 39 14.5 72.5t39.5 58.5t58.5 39.5t71.5 14.5h21v762l-102 111q-28 30 -35.5 63.5t-3 65t16.5 57.5t24 42q67 87 151.5 160.5t182 126t207 82t227.5 29.5q133 0 252.5 -27.5t221 -78t182.5 -123t138.5 -163t88 -196
t30.5 -223.5v-1578z" />
    <glyph glyph-name="wowaenthai" unicode="&#xe27;" horiz-adv-x="1688" 
d="M160 229q-28 25 -43 58t-17.5 68.5t8.5 70t35 61.5q26 28 60 44t69.5 19t69 -7.5t59.5 -34.5q37 -35 80.5 -65t91.5 -51.5t99.5 -33.5t105.5 -12q94 1 175.5 42.5t142 116.5t95 180.5t34.5 236.5q0 130 -35.5 235.5t-96.5 179.5t-143 114t-176 40q-54 0 -105 -13t-98 -35
t-90 -51t-80 -61q-27 -23 -61 -33t-69 -7t-68.5 18t-59.5 43q-24 27 -35 61.5t-8.5 69.5t18 68.5t42.5 58.5q62 56 131.5 103.5t145 82t157.5 53.5t168 19q115 0 222.5 -31.5t201.5 -90t172 -142.5t134 -189t87 -229.5t31 -263.5q0 -138 -30.5 -262.5t-85 -230t-131 -190.5
t-168.5 -144.5t-196.5 -91.5t-216.5 -32q-176 0 -332.5 67.5t-289.5 190.5z" />
    <glyph glyph-name="sosalathai" unicode="&#xe28;" horiz-adv-x="1925" 
d="M1602 1573q40 -46 71 -100t52.5 -113t32.5 -121.5t11 -124.5v-930q0 -40 -16 -76t-43 -63.5t-63.5 -44t-77.5 -16.5q-42 0 -78 16.5t-62.5 44t-41.5 63.5t-15 76v930q0 78 -32.5 147.5t-88 121.5t-130 82t-158.5 30q-88 0 -163 -30t-130 -82t-86 -121.5t-31 -147.5h258
q38 0 71.5 -14.5t58.5 -39.5t39.5 -58.5t14.5 -71.5q0 -39 -14.5 -72t-39.5 -57t-58.5 -37.5t-71.5 -13.5h-258v-570q0 -40 -16 -76t-43 -63.5t-63.5 -44t-78.5 -16.5q-41 0 -77 16.5t-62.5 44t-41.5 63.5t-15 76v934q0 103 29 199t82 179.5t126.5 152t163.5 117t192.5 75.5
t213.5 27q83 0 162.5 -14.5t156.5 -51.5l135 139q29 31 64 47t71.5 18t71.5 -10t64 -38q30 -28 46.5 -62.5t18.5 -71.5t-10.5 -72.5t-38.5 -64.5z" />
    <glyph glyph-name="sorusithai" unicode="&#xe29;" horiz-adv-x="1966" 
d="M1815 1249q38 0 71.5 -14.5t58.5 -39.5t39.5 -58.5t14.5 -71.5t-14.5 -71t-39.5 -57t-58.5 -38t-71.5 -14h-5v-103q0 -115 -29.5 -219t-83 -193.5t-129 -162.5t-167 -124.5t-197.5 -79.5t-221 -28t-221 28t-197.5 79.5t-167 124.5t-129 162.5t-83 194t-29.5 218.5v881
q0 42 15 78.5t41.5 63.5t62.5 43t77 16q42 0 78.5 -16t63.5 -43t43 -63.5t16 -78.5v-885q0 -94 31 -172t87.5 -134.5t135.5 -88t176 -31.5t176 33.5t135.5 91.5t87.5 136.5t31 168.5v103h-246q-72 0 -132.5 25t-105 68.5t-69 101.5t-24.5 124v53q0 39 13.5 72.5t38 58.5
t58.5 39.5t74 14.5q38 0 71.5 -14.5t58.5 -39.5t39.5 -58.5t14.5 -72.5v-8h209v414q0 42 15 78.5t41.5 63.5t62.5 43t78 16q41 0 77.5 -16t63.5 -43t43 -63.5t16 -78.5v-414h5z" />
    <glyph glyph-name="sosuathai" unicode="&#xe2a;" horiz-adv-x="1835" 
d="M1569 1532q33 -47 54 -94t33.5 -94.5t17.5 -93.5t5 -91v-987q0 -38 -15 -73t-41 -61.5t-61 -42t-75 -15.5t-74.5 15.5t-60 42t-40 61.5t-14.5 73v344q0 81 -31 144.5t-84 107t-125 66t-153 22.5q-75 0 -143.5 -22.5t-121 -65t-83.5 -104.5t-31 -140q0 -35 9.5 -66.5
t26.5 -61t42 -58.5t55 -59q28 -26 42.5 -60t15 -70.5t-12.5 -72t-40 -64.5q-26 -27 -60 -41.5t-70.5 -15.5t-72 12t-64.5 41q-119 108 -182 233.5t-63 282.5q0 105 28 198.5t79 172t121 140.5t153.5 105t178 66t193.5 23q51 0 106 -8t108 -23t100.5 -36.5t83.5 -47.5v70
q1 75 -30.5 133t-87 97.5t-130 60t-158.5 20.5q-92 0 -155 -20t-105 -52t-67 -73t-42 -84q-14 -36 -38.5 -64t-56 -46t-67.5 -23t-71 6q-37 10 -65.5 34.5t-45.5 57t-22 69.5t6 72q7 29 24 69t44.5 84.5t67 90.5t93.5 88q54 43 114 73.5t124 49.5t130 28t132 9q34 0 79 -4
t95 -13.5t101 -25t98 -39.5l147 155q29 31 64 47t71.5 18t71.5 -10t64 -38q30 -28 46.5 -62.5t18.5 -71.5t-10.5 -72.5t-38.5 -64.5z" />
    <glyph glyph-name="hohipthai" unicode="&#xe2b;" horiz-adv-x="1901" 
d="M1417 1819q31 21 66 30t69 5.5t65 -20.5t54 -48q23 -29 32.5 -64.5t5 -70.5t-22 -66.5t-48.5 -52.5l-188 -135q67 -39 122 -92t93 -117t59 -137.5t21 -153.5v-725q0 -40 -15 -75t-41.5 -61t-61.5 -41t-75 -15t-74 15t-59.5 41t-40 61t-14.5 75v737q0 43 -17.5 82.5
t-47.5 69.5t-71 47.5t-89 17.5q-46 0 -108.5 -27.5t-129.5 -68.5t-132.5 -88.5t-117 -89t-83 -69.5t-31.5 -29v-582q0 -40 -15 -75t-41.5 -61t-61.5 -41t-75 -15t-74 15t-59.5 41t-40 61t-14.5 75v1499q0 40 14.5 75t40 61.5t59.5 41.5t74 15t75 -15t61.5 -41.5t41.5 -61.5
t15 -75v-471z" />
    <glyph glyph-name="lochulathai" unicode="&#xe2c;" horiz-adv-x="2232" 
d="M1462 1462q-35 0 -66 13t-53.5 35.5t-35.5 53.5t-13 66t13 66.5t35.5 55t53.5 37t66 13.5h115q20 0 40.5 -0.5t37 2t27 10.5t10.5 25q0 40 14.5 75t40 61.5t61 41.5t76.5 15q40 0 75 -15.5t61.5 -41.5t41.5 -59t15 -69q0 -77 -21.5 -141.5t-64.5 -120.5q86 -124 86 -282
v-783q0 -115 -46 -214t-124.5 -171.5t-184 -113.5t-223.5 -41q-221 0 -381 135q-159 -135 -381 -135q-120 0 -225.5 41t-184.5 113.5t-125 171.5t-46 214v1143q0 42 15 78.5t41.5 63.5t62.5 43t77 16q42 0 78.5 -16t63.5 -43t43 -63.5t16 -78.5v-1143q0 -35 13.5 -66
t37.5 -53.5t58 -35.5t75 -13q39 0 72 13t57 35.5t38 53.5t14 66v524q0 42 15 78.5t41.5 63.5t62.5 43t77 16q42 0 78.5 -16t63.5 -43t43 -63.5t16 -78.5v-524q0 -35 13.5 -66t37.5 -53.5t58 -35.5t75 -13q39 0 72.5 13t58 35.5t39 53.5t14.5 66v787q0 48 -9 78t-25.5 47
t-40 23.5t-52.5 6.5h-94z" />
    <glyph glyph-name="oangthai" unicode="&#xe2d;" horiz-adv-x="2056" 
d="M118 852q0 37 14 70t38.5 57.5t57.5 38.5t70 14h644q37 0 69.5 -14.5t57 -39t39 -57t14.5 -69.5t-14.5 -69.5t-39 -57t-57 -39t-69.5 -14.5h-393q24 -77 70.5 -139t109.5 -105.5t140 -67.5t163 -24q112 0 208 44.5t166 123t110 186.5t40 236q0 130 -38.5 239.5t-108 188
t-166 122.5t-211.5 44q-78 0 -147 -20.5t-128 -59t-108 -92t-88 -119.5q-18 -34 -47.5 -56.5t-64.5 -32t-73 -5.5t-73 24q-34 18 -56.5 47.5t-32.5 64t-6.5 71.5t21.5 71q55 97 133 183t178 151t223 103t269 38q142 0 264.5 -36.5t223.5 -101t178.5 -154.5t130.5 -196.5
t80.5 -227t27.5 -246.5q0 -127 -29 -247.5t-83.5 -227t-134 -195.5t-180 -153t-221 -100t-257.5 -36q-129 0 -246.5 31.5t-219 88.5t-184.5 138t-141.5 179t-90.5 211.5t-32 236.5z" />
    <glyph glyph-name="honokhukthai" unicode="&#xe2e;" horiz-adv-x="2056" 
d="M1032 -33q-129 0 -246.5 31.5t-219 88.5t-184.5 138t-141.5 179t-90.5 211.5t-32 236.5q0 37 14 70t38.5 57.5t57.5 38.5t70 14h644q37 0 69.5 -14.5t57 -39t39 -57t14.5 -69.5t-14.5 -69.5t-39 -57t-57 -39t-69.5 -14.5h-393q25 -78 71.5 -140t109.5 -105.5t139.5 -67
t162.5 -23.5q112 0 208 44.5t166 123t110 186.5t40 236q0 130 -38.5 239.5t-108 188t-166 122.5t-211.5 44q-78 0 -147.5 -20.5t-129 -58.5t-108.5 -91.5t-86 -120.5q-19 -33 -48.5 -55.5t-64 -32.5t-72.5 -6t-73 24q-34 19 -56.5 48.5t-33 64t-7 71.5t22.5 70
q54 97 131.5 183.5t178 151.5t224 102.5t269.5 37.5q109 0 206.5 -22t199.5 -72l168 176q29 31 64.5 47t72 18t72.5 -10t65 -38q31 -28 47 -63.5t18 -72.5t-10.5 -73.5t-38.5 -65.5l-155 -172q101 -135 148.5 -293.5t47.5 -320.5q0 -127 -29 -247.5t-83.5 -227t-134 -195.5
t-180 -153t-221 -100t-257.5 -36z" />
    <glyph glyph-name="paiyannoithai" unicode="&#xe2f;" horiz-adv-x="1745" 
d="M516 1704q11 -66 38.5 -122t69.5 -97.5t98.5 -64.5t125.5 -23t123.5 22.5t95 59.5t66.5 84t38 96q11 41 26.5 79t39.5 67t58 46t81 17q43 0 81 -16.5t66.5 -45t45 -66.5t16.5 -81v-1479q0 -41 -16 -77.5t-43 -63.5t-63.5 -43t-78.5 -16q-40 0 -75 16t-61 43t-41 63.5
t-15 77.5v967q-68 -59 -153.5 -89t-190.5 -30q-133 0 -254.5 42.5t-217.5 121.5t-161 192t-84 254q-6 42 3.5 80t31 68.5t53.5 51t72 26.5q41 7 79 -2t68.5 -31t51 -54.5t26.5 -72.5z" />
    <glyph glyph-name="saraathai" unicode="&#xe30;" horiz-adv-x="1004" 
d="M475 1098q-74 0 -137.5 26.5t-110 72t-73.5 107t-27 130.5v45q0 40 14.5 75t40 61t59.5 41t74 15t75 -15t61.5 -41t41.5 -61t15 -75v-21h197q37 0 69.5 -14.5t57 -39t39 -57t14.5 -69.5t-14.5 -69.5t-39 -57t-57 -39t-69.5 -14.5h-230zM475 164q-74 0 -137.5 26.5
t-110 72t-73.5 107t-27 130.5v45q0 40 14.5 75t40 61t59.5 41t74 15t75 -15t61.5 -41t41.5 -61t15 -75v-21h197q37 0 69.5 -14.5t57 -39t39 -57t14.5 -69.5t-14.5 -69.5t-39 -57t-57 -39t-69.5 -14.5h-230z" />
    <glyph glyph-name="maihanakatthai" unicode="&#xe31;" 
d="M-152 2437q36 0 67 -13.5t54.5 -37.5t37 -56t13.5 -69t-13.5 -68.5t-37 -54.5t-54.5 -36t-67 -13h-828q-80 0 -142.5 25.5t-105 70.5t-65 107t-22.5 135v88q0 35 13.5 66.5t37 55t55 37t66.5 13.5t66.5 -13.5t55 -37t37 -55t13.5 -66.5q0 -42 10 -60t45 -18h764z" />
    <glyph glyph-name="saraaathai" unicode="&#xe32;" horiz-adv-x="1520" 
d="M82 1675q60 51 121 87.5t127 60t139 34.5t158 11q189 0 327.5 -56.5t229.5 -151t135.5 -219.5t44.5 -261v-1004q0 -41 -16 -77t-43 -62.5t-63.5 -41.5t-78.5 -15q-41 0 -77 15t-62.5 41.5t-41.5 62.5t-15 77v975q0 356 -344 356q-86 0 -154.5 -29t-132.5 -81
q-29 -26 -65 -38t-72.5 -10t-70.5 17t-58 43q-26 29 -38 65.5t-10.5 73t17 70t43.5 57.5z" />
    <glyph glyph-name="saraamthai" unicode="&#xe33;" horiz-adv-x="1520" 
d="M20 2445q0 -75 -28.5 -141.5t-78 -116t-116 -78t-141.5 -28.5t-141.5 28.5t-116 78t-78.5 116t-29 141.5t29 141.5t78.5 116t116 78.5t141.5 29t141.5 -29t116 -78.5t78 -116t28.5 -141.5zM-238 2441q0 23 -8 43.5t-22 35.5t-33.5 23.5t-42.5 8.5t-43.5 -8.5t-35.5 -23.5
t-23.5 -35.5t-8.5 -43.5t8.5 -42.5t23.5 -33.5t35.5 -22t43.5 -8q46 0 76 30t30 76zM82 1675q-28 -24 -43.5 -57.5t-17 -70t10.5 -73t38 -65.5q24 -28 58 -43t70.5 -17t72.5 10t65 38q64 52 132.5 81t154.5 29q344 0 344 -356v-975q0 -41 15 -77t41.5 -62.5t62.5 -41.5
t77 -15q42 0 78.5 15t63.5 41.5t43 62.5t16 77v1004q0 136 -44.5 261t-135.5 219.5t-229.5 151t-327.5 56.5q-85 0 -158 -11t-139 -34.5t-127 -60t-121 -87.5z" />
    <glyph glyph-name="saraithai" unicode="&#xe34;" 
d="M-307 2437q35 0 66.5 -13.5t55 -37.5t37 -56t13.5 -69q0 -35 -13.5 -66.5t-37 -55t-55 -37t-66.5 -13.5h-1286q-36 0 -67 13.5t-54.5 37t-37 55t-13.5 66.5q0 37 13.5 69t37 56t54.5 37.5t67 13.5h1286z" />
    <glyph glyph-name="saraiithai" unicode="&#xe35;" 
d="M-1593 2089q-36 0 -67 13.5t-54.5 37t-37 55t-13.5 66.5q0 37 13.5 69t37 56t54.5 37.5t67 13.5h1089v90q0 37 14.5 69t38.5 56t56 37.5t67 13.5q36 0 67 -13.5t54.5 -37.5t37 -56t13.5 -69v-266q0 -35 -13.5 -66.5t-37 -55t-55 -37t-66.5 -13.5h-1265z" />
    <glyph glyph-name="sarauethai" unicode="&#xe36;" 
d="M-717 2437q11 54 37.5 99t65 77.5t86.5 51t102 18.5q61 0 115.5 -23t95.5 -63t64.5 -94t23.5 -115q0 -62 -23.5 -116t-64 -95t-94 -64.5t-113.5 -23.5h-1171q-36 0 -67 13.5t-54.5 37t-37 55t-13.5 66.5q0 37 13.5 69t37 56t54.5 37.5t67 13.5h876zM-328 2384
q0 20 -8 37.5t-21.5 31t-31 21.5t-37.5 8t-37.5 -8t-31 -21.5t-21.5 -31t-8 -37.5t8 -37.5t21.5 -31t31 -21.5t37.5 -8t37.5 8t31 21.5t21.5 31t8 37.5z" />
    <glyph glyph-name="saraueethai" unicode="&#xe37;" 
d="M-1593 2089q-36 0 -67 13.5t-54.5 37t-37 55t-13.5 66.5q0 37 13.5 69t37 56t54.5 37.5t67 13.5h610v82q0 34 13.5 63.5t36 52t52.5 35.5t62 13q34 0 64.5 -13t53.5 -35.5t36.5 -52t13.5 -63.5v-82h164v78q0 35 13.5 66t36.5 53.5t53.5 35.5t64.5 13t63.5 -13t51.5 -35.5
t35 -53.5t13 -66v-254q0 -35 -13.5 -66.5t-37 -55t-55 -37t-66.5 -13.5h-1265z" />
    <glyph glyph-name="sarauthai" unicode="&#xe38;" 
d="M-156 -778q0 -39 -14.5 -73t-39.5 -60t-58.5 -41t-71.5 -15t-72.5 15t-60 41t-40.5 60t-15 73v221h-86q-39 0 -73 15t-60 40.5t-41 60t-15 72.5q0 39 15 73t41 60t60 41t73 15h269q39 0 73 -15t60 -41t41 -60t15 -73v-409z" />
    <glyph glyph-name="sarauuthai" unicode="&#xe39;" 
d="M-696 -614q0 -38 26 -58t60 -20t60 20t26 58v266q0 38 14.5 71.5t39.5 58.5t58.5 39.5t71.5 14.5t71.5 -14.5t58.5 -39.5t39.5 -58.5t14.5 -71.5v-258q0 -92 -36 -168.5t-98 -131t-144.5 -84.5t-174.5 -30q-91 0 -173 24t-144 68.5t-98.5 107t-36.5 140.5v123h-74
q-38 0 -72.5 15t-60 40.5t-40.5 60t-15 72.5q0 39 15 72.5t40.5 58.5t60 39.5t72.5 14.5h250q39 0 73 -15t60 -41t41 -60t15 -73v-241z" />
    <glyph glyph-name="phinthuthai" unicode="&#xe3a;" 
d="M-115 -332q0 -49 -18.5 -92t-50.5 -75.5t-74 -51t-90 -18.5q-49 0 -92.5 18.5t-75.5 51t-51 75.5t-19 92t18.5 92.5t50.5 75.5t74.5 51t90.5 19q49 0 92 -19t75.5 -51t51 -75.5t18.5 -92.5z" />
    <glyph glyph-name="PUCR2005" unicode="&#xe3e;" 
 />
    <glyph glyph-name="bahtthai" unicode="&#xe3f;" horiz-adv-x="1741" 
d="M1126 1552q0 49 -9 86.5t-26.5 65.5t-42.5 48t-57 34v-471q31 14 56 32.5t42.5 46t27 66t9.5 92.5zM675 1827h-179v-545h179v545zM1302 647q0 78 -24 130.5t-65.5 85.5t-98.5 50t-123 25v-590q72 11 129.5 32t98 56.5t62 87t21.5 123.5zM675 942h-179v-602h179v602z
M352 0q-43 0 -79.5 16t-63.5 43.5t-42 65t-15 80.5v1753q0 43 15 80.5t42 65t63.5 43.5t79.5 16h323v176q0 34 11.5 63t32.5 50.5t49.5 34t62.5 12.5t63 -12.5t50.5 -34t34 -50.5t12.5 -63v-193q109 -23 197.5 -70.5t151 -122.5t96.5 -178.5t34 -238.5q0 -213 -123 -360
q146 -84 222.5 -219t76.5 -306q0 -155 -53.5 -271.5t-143.5 -196.5t-209 -125.5t-249 -57.5v-193q0 -34 -12.5 -63t-34 -50.5t-50.5 -33.5t-63 -12t-62.5 12t-49.5 33.5t-32.5 50.5t-11.5 63v193h-323z" />
    <glyph glyph-name="saraethai" unicode="&#xe40;" horiz-adv-x="831" 
d="M614 180q0 -41 -16 -77.5t-43 -63.5t-63.5 -43t-77.5 -16q-42 0 -78 16t-62.5 43t-41.5 63.5t-15 77.5v1483q0 42 15 78.5t41.5 63.5t62.5 43t78 16q41 0 77.5 -16t63.5 -43t43 -63.5t16 -78.5v-1483z" />
    <glyph glyph-name="saraaethai" unicode="&#xe41;" horiz-adv-x="1540" 
d="M614 180q0 -41 -16 -77.5t-43 -63.5t-63.5 -43t-77.5 -16q-42 0 -78 16t-62.5 43t-41.5 63.5t-15 77.5v1483q0 42 15 78.5t41.5 63.5t62.5 43t78 16q41 0 77.5 -16t63.5 -43t43 -63.5t16 -78.5v-1483zM1323 180q0 -41 -16 -77.5t-43 -63.5t-63.5 -43t-78.5 -16
q-41 0 -77 16t-62.5 43t-41.5 63.5t-15 77.5v1483q0 42 15 78.5t41.5 63.5t62.5 43t77 16q42 0 78.5 -16t63.5 -43t43 -63.5t16 -78.5v-1483z" />
    <glyph glyph-name="saraothai" unicode="&#xe42;" horiz-adv-x="754" 
d="M172 1921q0 30 -22 52.5t-55.5 45.5l-72 49t-72 62t-55.5 85.5t-22 119.5q0 71 21 123.5t55.5 88.5t78.5 58.5t90.5 35t91.5 17t81 4.5h405q39 0 72.5 -14.5t58.5 -39.5t39.5 -58.5t14.5 -71.5t-14.5 -71t-39.5 -57t-58.5 -38t-72.5 -14h-381q51 -29 97.5 -65.5
t82.5 -82.5t57 -103.5t21 -129.5v-1737q0 -41 -16 -77.5t-43.5 -63.5t-64.5 -43t-80 -16q-42 0 -78 16t-62.5 43t-41.5 63.5t-15 77.5v1741z" />
    <glyph glyph-name="saraaimaimuanthai" unicode="&#xe43;" horiz-adv-x="754" 
d="M-180 2306q19 80 67 149.5t115 121t148 81t165 29.5q112 0 207.5 -39t165 -106t109 -157.5t39.5 -193.5q0 -78 -21 -140.5t-56.5 -116t-83.5 -102l-102 -99.5v-1557q0 -40 -16 -75.5t-43 -62.5t-63.5 -42.5t-77.5 -15.5q-42 0 -78 15.5t-62.5 42.5t-41.5 62.5t-15 75.5
v1671q17 17 44.5 42l58.5 54.5l62.5 61.5t56.5 64.5t41 63.5t16 58q0 65 -33.5 99.5t-102.5 34.5q-29 0 -51.5 -11t-39.5 -28.5t-27.5 -40t-15.5 -45.5q-8 -40 -31 -69.5t-55.5 -47t-71 -22t-76.5 6.5q-39 11 -67.5 35t-46 56t-22 70t4.5 77z" />
    <glyph glyph-name="saraaimaimalaithai" unicode="&#xe44;" horiz-adv-x="754" 
d="M455 2662q37 0 82 -6t90.5 -20.5t89 -38.5t77 -60.5t54 -86.5t20.5 -115q0 -61 -22 -107t-54.5 -83t-71 -66l-71 -55t-54.5 -50.5t-22 -52.5v-1745q0 -40 -16 -75.5t-43 -62.5t-63.5 -42.5t-77.5 -15.5q-42 0 -78 15.5t-62.5 42.5t-41.5 62.5t-15 75.5v1741
q0 72 20.5 129.5t55.5 103.5t81 82.5t97 65.5h-381q-38 0 -71.5 14t-58.5 38t-39.5 57t-14.5 71t14.5 71.5t39.5 58.5t58.5 39.5t71.5 14.5h406z" />
    <glyph glyph-name="lakkhangyaothai" unicode="&#xe45;" horiz-adv-x="1520" 
d="M82 1675q60 51 121 87.5t127 60t139 34.5t158 11q189 0 327.5 -56.5t229.5 -151t135.5 -219.5t44.5 -261v-1708q0 -42 -16 -78t-43 -62.5t-63.5 -41.5t-78.5 -15q-41 0 -77 15t-62.5 41.5t-41.5 62.5t-15 78v1679q0 356 -344 356q-86 0 -154.5 -29t-132.5 -81
q-29 -26 -65 -38t-72.5 -10t-70.5 17t-58 43q-26 29 -38 65.5t-10.5 73t17 70t43.5 57.5z" />
    <glyph glyph-name="maiyamokthai" unicode="&#xe46;" horiz-adv-x="1946" 
d="M324 635q-39 48 -72 100.5t-57 111t-38 124t-14 139.5q0 124 41 238t119.5 211.5t193 176t261.5 132.5l209 -201l209 201q147 -54 261.5 -132t193 -174.5t119 -210t40.5 -237.5v-1642q0 -42 -15.5 -78t-42.5 -62.5t-63 -41.5t-76 -15q-41 0 -77 15t-62.5 41.5t-41.5 62.5
t-15 78v1642q0 182 -148 299l-282 -266l-283 266q-71 -59 -110.5 -136t-39.5 -167q0 -71 28.5 -128t68.5 -110q24 -32 33.5 -69.5t4.5 -75t-24 -71t-51 -58.5q-31 -23 -68.5 -31.5t-74.5 -3.5t-70.5 23t-56.5 49z" />
    <glyph glyph-name="maitaikhuthai" unicode="&#xe47;" 
d="M-1135 2457q15 60 62 88.5t107 28.5q28 0 54.5 -6.5t48.5 -20t37.5 -35.5t21.5 -52q15 -72 89 -72q28 0 51.5 18.5t32.5 55.5q9 34 30.5 60t49.5 42t60.5 20.5t64.5 -4.5q34 -9 60 -30t42 -49t21 -60.5t-4 -64.5q-2 -11 -7 -31.5t-16.5 -47t-31 -57t-48.5 -61.5
q-62 -62 -138.5 -90.5t-160.5 -28.5q-77 0 -136 24t-118 70q-58 -46 -122 -70t-136 -24q-98 0 -180.5 35t-142.5 98.5t-93.5 153.5t-33.5 201q0 109 31 202.5t89.5 162.5t142 108t187.5 39h926q35 0 66 -13t53.5 -35.5t35.5 -53.5t13 -66t-13 -66t-35.5 -53.5t-53.5 -35.5
t-66 -13h-926q-26 0 -45 -16t-32 -41.5t-19 -56.5t-6 -62q0 -32 7 -60.5t20 -49.5t32 -33.5t44 -12.5q37 0 56.5 15t28.5 50z" />
    <glyph glyph-name="maiekthai" unicode="&#xe48;" 
d="M-504 3342q0 37 14.5 69t38.5 56t56 37.5t67 13.5q36 0 67 -13.5t54.5 -37.5t37 -56t13.5 -69v-286q0 -37 -13.5 -69.5t-37 -56.5t-54.5 -37.5t-67 -13.5q-35 0 -67 13.5t-56 37.5t-38.5 56.5t-14.5 69.5v286z" />
    <glyph glyph-name="maithothai" unicode="&#xe49;" 
d="M-1028 3248q-23 -15 -48.5 -19.5t-49.5 1.5t-45.5 21t-36.5 38t-19 48t2 48.5t21 45t37 38.5q21 16 67 32.5t117 16.5q66 0 126 -21.5t106 -61.5t73 -98t27 -130q0 -15 -0.5 -25.5t-3.5 -19.5l37 4h495q29 0 55 -11.5t45.5 -31t31 -45.5t11.5 -55t-11.5 -55.5t-31 -46
t-45.5 -31t-55 -11.5h-979l35.5 62.5l36.5 68l35.5 67.5l31.5 61q12 24 16.5 45.5t0 37.5t-18.5 25.5t-39 9.5q-6 0 -12 -2.5t-12 -5.5z" />
    <glyph glyph-name="maitrithai" unicode="&#xe4a;" 
d="M-889 3101q18 -18 28.5 -44t11.5 -53t-6.5 -52.5t-25.5 -43.5q-21 -22 -45 -32t-49 -11t-49 7.5t-45 23.5q-71 49 -109.5 116.5t-38.5 141.5t28 135.5t75.5 106t111 69.5t134.5 25q46 0 96.5 -19t99.5 -59q47 40 98.5 59t98.5 19q66 0 126 -23.5t106.5 -67.5t75.5 -106
t32 -139l33 4h151q29 0 54.5 -11t44 -29.5t29.5 -44t11 -54.5t-11 -54.5t-29.5 -44.5t-44 -30t-54.5 -11h-627q40 54 75.5 113.5t64.5 128.5q6 13 6.5 31.5t-5.5 35.5t-20 28.5t-39 11.5q-40 0 -57 -24.5t-20 -86.5h-197q-2 15 -6.5 34t-14 35t-24 27t-34.5 11
q-31 0 -48.5 -17t-17.5 -49q0 -15 8.5 -31.5t17.5 -25.5z" />
    <glyph glyph-name="maichattawathai" unicode="&#xe4b;" 
d="M-508 3412v66q0 37 13.5 69t37.5 56t56 37.5t69 13.5t69 -13.5t56 -37.5t37.5 -56t13.5 -69v-66h90q32 0 60.5 -11.5t49.5 -32.5t33.5 -49.5t12.5 -62.5t-12.5 -62.5t-33.5 -49t-49.5 -32t-60.5 -11.5h-90v-62q0 -37 -13.5 -69t-37.5 -56t-56 -37.5t-69 -13.5t-69 13.5
t-56 37.5t-37.5 56t-13.5 69v62h-90q-32 0 -60.5 11.5t-49.5 32t-33.5 49t-12.5 62.5t12.5 62.5t33.5 49.5t49.5 32.5t60.5 11.5h90z" />
    <glyph glyph-name="thanthakhatthai" unicode="&#xe4c;" 
d="M-627 2662q-74 75 -112.5 154.5t-38.5 169.5q0 75 25 135t70 102t107.5 64.5t137.5 22.5h258q34 0 63.5 -13t52 -35.5t35.5 -52t13 -63.5t-13 -63.5t-35.5 -52t-52 -35.5t-63.5 -13h-234q-14 0 -24 -4.5t-14 -11.5t-1 -17t15 -20l37 -33q24 -25 36.5 -55.5t13 -62
t-11 -61.5t-34.5 -55q-23 -23 -52.5 -34.5t-61 -11.5t-61.5 11.5t-55 34.5z" />
    <glyph glyph-name="nikhahitthai" unicode="&#xe4d;" 
d="M20 2445q0 -75 -28.5 -141.5t-78 -116t-116 -78t-141.5 -28.5t-141.5 28.5t-116 78t-78.5 116t-29 141.5t29 141.5t78.5 116t116 78.5t141.5 29t141.5 -29t116 -78.5t78 -116t28.5 -141.5zM-238 2441q0 23 -8 43.5t-22 35.5t-33.5 23.5t-42.5 8.5t-43.5 -8.5t-35.5 -23.5
t-23.5 -35.5t-8.5 -43.5t8.5 -42.5t23.5 -33.5t35.5 -22t43.5 -8q46 0 76 30t30 76z" />
    <glyph glyph-name="yamakkanthai" unicode="&#xe4e;" 
d="M-292 2772q-22 15 -40.5 24.5t-40.5 9.5q-46 0 -74 -29t-28 -70q0 -18 8.5 -39.5t29 -40t54 -30.5t84.5 -12v-222q-51 0 -84.5 -8.5t-54 -22.5t-29 -32.5t-8.5 -38.5q0 -37 30.5 -64t92.5 -30q26 -2 47 -14t35 -31t20.5 -43.5t3.5 -50.5t-15.5 -47.5t-31 -35.5
t-42.5 -20.5t-50 -3.5q-68 11 -128 38.5t-105.5 70t-72 101t-26.5 130.5q0 65 21 120t61 101q-40 47 -61 103.5t-21 121.5q0 72 26.5 134.5t73 108t109.5 71.5t135 26q75 0 131 -24.5t103 -65.5q20 -17 30.5 -39t12 -46t-6 -47.5t-24.5 -43.5t-38 -29.5t-43 -10t-44 7.5
t-40 23z" />
    <glyph glyph-name="fongmanthai" unicode="&#xe4f;" horiz-adv-x="2302" 
d="M2146 971q0 -136 -36 -263t-101.5 -238.5t-157.5 -203t-203 -157.5t-238 -102t-263 -36t-263 36t-238.5 102t-203 157.5t-157.5 203t-102 238.5t-36 263t36 263t102 238t157.5 203t203 157.5t238.5 101.5t263 36t263 -36t238 -101.5t203 -157.5t157.5 -203t101.5 -238
t36 -263zM1651 971q0 -105 -39.5 -196.5t-108 -160t-160.5 -108t-196 -39.5q-105 0 -196.5 39.5t-160 108t-108 160t-39.5 196.5q0 104 39.5 196t108 160.5t160 108t196.5 39.5q104 0 196 -39.5t160.5 -108t108 -160.5t39.5 -196zM1868 954q0 100 -26 194t-73.5 176
t-113.5 149.5t-146.5 116t-172 75.5t-189.5 27t-189.5 -26t-172 -73.5t-146.5 -113.5t-113.5 -146.5t-73.5 -172t-26 -189.5t26 -189.5t73.5 -172t113.5 -146.5t146.5 -113.5t172 -73.5t189.5 -26t189.5 26t171 73.5t145.5 113.5t112.5 146.5t72.5 172t26 189.5zM1380 971
q0 48 -18.5 90t-50.5 74t-74 50.5t-90 18.5t-90.5 -18.5t-74.5 -50.5t-50.5 -74t-18.5 -90t18.5 -90.5t50.5 -74.5t74.5 -50.5t90.5 -18.5t90 18.5t74 50.5t50.5 74.5t18.5 90.5z" />
    <glyph glyph-name="zerothai" unicode="&#xe50;" horiz-adv-x="1892" 
d="M1831 827q0 -119 -32 -229t-90 -205.5t-138.5 -174t-178.5 -134.5t-210 -86.5t-232 -30.5q-121 0 -233 30.5t-210 86.5t-178.5 134.5t-138 174t-89 205.5t-31.5 229t31.5 229t89 205.5t138 174.5t178.5 135t210 86.5t233 30.5q120 0 232 -30.5t210 -86.5t178.5 -135
t138.5 -174.5t90 -205.5t32 -229zM1470 827q0 105 -41.5 197.5t-112.5 161.5t-165.5 109t-200.5 40q-107 0 -202 -40t-165.5 -109t-111.5 -161.5t-41 -197.5q0 -70 18.5 -134.5t52.5 -121t81.5 -103t105.5 -79.5t124 -51.5t138 -18.5q106 0 200.5 40.5t165.5 109.5
t112.5 161.5t41.5 196.5z" />
    <glyph glyph-name="onethai" unicode="&#xe51;" horiz-adv-x="1892" 
d="M328 195q-27 27 -43.5 58.5t-21 64.5t4 65.5t31.5 61.5q25 29 57 46.5t66.5 21t67.5 -6.5t59 -37q77 -78 174.5 -116t206.5 -38q70 0 136 18.5t124 51.5t106 79.5t82 103t53 121t19 134.5t-19 135t-53 122t-82 104t-106 80.5t-124 52t-136 18.5q-81 0 -154 -21
t-133.5 -58t-107.5 -88t-76 -111q-13 -28 -10.5 -40.5t18.5 -12.5h188q37 0 69 -13.5t56 -37.5t37.5 -56.5t13.5 -69.5t-13.5 -69t-37.5 -56t-56 -37.5t-69 -13.5h-200q-95 0 -162 28.5t-110 75.5t-63.5 107t-23.5 123.5t9.5 125t37.5 110.5q51 104 131.5 190t182.5 147.5
t222 95.5t251 34q120 0 231.5 -30.5t208.5 -87t177.5 -135t138 -175t89 -207t31.5 -230.5q0 -119 -31.5 -229t-89 -205.5t-138 -174t-177.5 -134.5t-208.5 -86.5t-231.5 -30.5q-186 0 -338 59t-264 173z" />
    <glyph glyph-name="twothai" unicode="&#xe52;" horiz-adv-x="2168" 
d="M1484 1231q0 -35 -12.5 -66t-35 -54t-53 -36.5t-65.5 -13.5t-66 13.5t-53.5 36.5t-35.5 54t-13 66q0 51 -28 84t-87 33q-52 0 -85 -34.5t-33 -92.5q0 -22 16 -59.5t53 -71.5q26 -25 40 -54.5t15.5 -60.5t-9.5 -60.5t-34 -54.5q-24 -26 -53.5 -40t-60 -16.5t-60.5 7.5
t-55 33q-97 86 -147 177t-50 200q0 84 30.5 169t89 153t145 110.5t198.5 42.5q81 0 151 -25t132 -78q65 53 138 78t157 25q107 0 183.5 -39t128 -104t81.5 -148t45.5 -171t20 -173.5t4.5 -155.5q0 -212 -69 -383t-193.5 -291.5t-297.5 -185.5t-382 -65q-145 0 -273.5 32.5
t-238 91.5t-196.5 142t-148 184.5t-93.5 218.5t-32.5 244v967q0 37 13.5 69t37.5 56t56 37.5t69 13.5t69 -13.5t56 -37.5t37.5 -56t13.5 -69l1 -963q0 -123 44.5 -227.5t127 -180t198.5 -118.5t259 -43q135 0 243.5 39t184 113t116.5 181t41 244v81t-3 95.5t-10.5 97
t-21 85.5t-35 61t-53.5 23q-23 0 -43.5 -8t-35.5 -23.5t-24 -37t-9 -48.5z" />
    <glyph glyph-name="threethai" unicode="&#xe53;" horiz-adv-x="2167" 
d="M1028 4q-40 -15 -89 -25.5t-108 -7.5q-125 3 -229 39t-187 96t-145.5 140.5t-104 173.5t-62.5 195t-21 204q0 135 37 270.5t119 256t212 219t316 159.5l340 -335l332 327q155 -57 276 -144t204.5 -197.5t127 -241t43.5 -273.5q0 -152 -41 -285t-117 -244.5t-184.5 -199.5
t-243.5 -151q-32 -15 -66.5 -17t-66 8.5t-59 33t-45.5 56.5q-15 32 -17 67t8.5 67.5t33.5 59.5t57 44q90 45 162.5 101t122.5 125.5t77 153t27 181.5q0 67 -16.5 130.5t-46.5 119.5t-73.5 103.5t-97.5 84.5l-397 -397l-414 414q-66 -42 -114.5 -97.5t-80.5 -120.5
t-47.5 -136.5t-15.5 -145.5q0 -104 29 -195.5t81.5 -159t126.5 -106.5t165 -39q21 0 40.5 2.5t28.5 6.5q31 15 64 14t63.5 -15t55 -39.5t38.5 -58.5q13 -31 11 -65t-15.5 -64.5t-37.5 -55t-56 -36.5z" />
    <glyph glyph-name="fourthai" unicode="&#xe54;" horiz-adv-x="2007" 
d="M1855 242q28 -28 42 -60.5t14.5 -66t-12.5 -65.5t-39 -58q-26 -28 -58 -42t-65.5 -14t-66.5 13t-60 39l-135 131q-112 -71 -242.5 -111.5t-269.5 -40.5q-122 0 -234.5 30.5t-210.5 87t-178.5 135t-137.5 174.5t-88.5 206.5t-31.5 230.5q0 119 31.5 229t88.5 205.5
t137.5 174.5t178.5 135t210.5 86.5t234.5 30.5h630l217 282q23 29 54 46t65 20.5t68 -5.5t63 -32t46 -54t20.5 -64.5t-5.5 -68t-32 -63.5l-229 -295q-38 -49 -100.5 -84t-145.5 -35h-651q-109 0 -204.5 -40t-167 -109t-112.5 -161.5t-41 -197.5q0 -104 41 -197t112.5 -163
t167 -111t204.5 -41q65 0 126 15t123 43l-168 168q-47 48 -86 104t-53.5 117.5t3 126.5t83.5 131l111 111q28 26 61 39t67.5 12.5t67 -14.5t58.5 -42q26 -26 39 -58.5t12.5 -66.5t-14.5 -67.5t-41 -60.5l-70 -66z" />
    <glyph glyph-name="fivethai" unicode="&#xe55;" horiz-adv-x="2007" 
d="M1217 1704q0 29 -10.5 54t-28.5 43t-43 28t-54 10t-53.5 -10t-42.5 -28t-28.5 -43t-10.5 -54t10.5 -54t28.5 -43t42.5 -28t53.5 -10t54 10t43 28t28.5 43t10.5 54zM1855 242q28 -28 42 -60.5t14.5 -66t-12.5 -65.5t-39 -58q-26 -28 -58 -42t-65.5 -14t-66.5 13t-60 39
l-135 131q-112 -71 -242.5 -111.5t-269.5 -40.5q-122 0 -234.5 30.5t-210.5 87t-178.5 135t-137.5 174.5t-88.5 206.5t-31.5 230.5q0 145 46 275.5t127 237.5t193 186t244 121q-3 9 -3.5 21t-0.5 28q0 81 31 153t84 125t125 84t153 31t153 -31t125.5 -84t84.5 -125t31 -153
v-8h118l217 282q23 29 54 46t65 20.5t68 -5.5t63 -32t46 -54t20.5 -64.5t-5.5 -68t-32 -63.5l-229 -295q-38 -49 -100.5 -84t-145.5 -35h-651q-109 0 -204.5 -40t-167 -109t-112.5 -161.5t-41 -197.5q0 -104 41 -197t112.5 -163t167 -111t204.5 -41q65 0 126 15t123 43
l-168 168q-47 48 -86 104t-53.5 117.5t3 126.5t83.5 131l111 111q28 26 61 39t67.5 12.5t67 -14.5t58.5 -42q26 -26 39 -58.5t12.5 -66.5t-14.5 -67.5t-41 -60.5l-70 -66z" />
    <glyph glyph-name="sixthai" unicode="&#xe56;" horiz-adv-x="1864" 
d="M164 1569q-26 26 -39.5 58t-13.5 65t13.5 65t39.5 58t58.5 39.5t66 14t66.5 -11.5t59 -38l397 -398l279 279q163 -45 292.5 -128.5t220 -195t139 -246.5t48.5 -282q0 -119 -31.5 -229.5t-89 -207.5t-138 -177.5t-178 -138t-209 -89t-231.5 -31.5q-117 0 -221.5 28
t-193.5 77t-162 115t-127 141q-43 59 -67 112.5t-27 100.5q-5 48 2 89t33.5 87t76 103t129.5 135q26 24 58.5 36.5t65.5 13t64.5 -12t57.5 -37.5q25 -26 37.5 -57.5t12.5 -65t-12.5 -65.5t-37.5 -58q-43 -37 -69.5 -63.5t-39.5 -46t-12.5 -34t11.5 -28.5q32 -48 77 -87.5
t99.5 -68.5t116.5 -45t128 -16q106 0 200.5 41.5t166 112.5t113 165.5t41.5 200.5q0 69 -18 133.5t-51.5 121.5t-81 104.5t-107.5 82.5l-365 -364z" />
    <glyph glyph-name="seventhai" unicode="&#xe57;" horiz-adv-x="2191" 
d="M1737 1843q0 37 14 69.5t38 56.5t56.5 38t69.5 14t69.5 -14t56.5 -38t38 -56.5t14 -69.5v-983q0 -152 -41 -285t-117 -244.5t-184.5 -199.5t-243.5 -151q-32 -15 -66.5 -17t-66 8.5t-59 33t-45.5 56.5q-15 32 -17 67t9 67.5t33.5 59.5t56.5 44q90 45 162.5 101
t122.5 125.5t77 153t27 181.5q0 67 -16.5 130.5t-46.5 119.5t-73.5 103.5t-97.5 84.5l-397 -397l-414 414q-66 -42 -114.5 -97.5t-80.5 -120.5t-47.5 -136.5t-15.5 -145.5q0 -104 29 -195.5t81.5 -159t126.5 -106.5t165 -39q21 0 40.5 2.5t28.5 6.5q31 15 64 14t63.5 -15
t55 -39.5t38.5 -58.5q13 -31 11 -65t-15.5 -64.5t-37.5 -55t-56 -36.5q-40 -15 -89 -25.5t-107 -7.5q-125 3 -229 39t-187.5 96t-146 140.5t-104 173.5t-62.5 195t-21 204q0 135 37 270.5t119 256t212 219t316 159.5l340 -335l332 327q83 -31 156.5 -70.5t138.5 -89.5v287z
" />
    <glyph glyph-name="eightthai" unicode="&#xe58;" horiz-adv-x="2204" 
d="M1487 1237q78 -9 155 -32.5t147 -61.5t129.5 -90.5t103 -119.5t68 -148t24.5 -175q0 -134 -51.5 -249.5t-143.5 -201.5t-220 -135t-282 -49l-311 304l-340 -332q-160 54 -287.5 140.5t-216.5 198.5t-136.5 246t-47.5 283q0 123 32.5 236.5t91 211.5t141.5 179t183.5 138
t216 88.5t240.5 31.5h737q14 0 21 0.5t12 3t9 8.5t12 17l168 217q21 29 51 46.5t63.5 22t67.5 -4.5t63 -32q29 -21 46.5 -51.5t22 -63.5t-4 -67t-31.5 -63l-201 -267q-37 -49 -99.5 -83.5t-145.5 -34.5h-791q-115 0 -215 -42t-174.5 -114t-117 -169t-42.5 -208
q0 -72 18 -138.5t51 -125t81 -107t108 -84.5l414 406l434 -430q48 12 87.5 38t68.5 62t45 80.5t16 93.5q0 53 -22.5 100t-63.5 84.5t-100.5 62t-132.5 32.5q-37 4 -67 23t-50.5 46t-30 60t-4.5 67q6 37 24 67t44.5 50t60 29.5t72.5 5.5z" />
    <glyph glyph-name="ninethai" unicode="&#xe59;" horiz-adv-x="2261" 
d="M1032 1303q-9 15 -39.5 27.5t-70.5 12.5q-99 0 -186 -36.5t-152.5 -104t-103.5 -162t-38 -209.5q0 -104 40.5 -196.5t111 -161.5t165.5 -109t204 -40q52 0 101.5 10t111.5 35q34 14 68 15.5t65 -9t57 -32.5t43 -56q15 -32 17.5 -67.5t-8 -68t-33.5 -58.5t-58 -40
l-94 -33.5t-89.5 -26t-88.5 -16.5t-92 -6q-121 0 -233.5 30.5t-210 86.5t-178.5 134.5t-138.5 174t-89 205.5t-31.5 229q0 123 29 235t82 208t129 174t169 133t202 85t229 30q108 0 206.5 -44.5t169.5 -127.5q66 66 123.5 99t115.5 46.5t123 13.5h146q22 0 69.5 65
t123.5 189q18 30 44.5 50t57 28t62.5 4.5t61 -20.5q31 -17 50.5 -43.5t27.5 -57.5t3 -64.5t-24 -64.5q-83 -130 -138.5 -205t-78.5 -102q-51 -62 -105 -89.5t-124 -33.5q-45 -3 -79.5 0.5t-63.5 7t-53.5 4.5t-49.5 -7t-52 -28.5t-61 -59.5l670 -1027q20 -32 26.5 -67t0 -68
t-25.5 -61.5t-50 -48.5q-32 -20 -67 -26.5t-68 0t-62 25.5t-49 50z" />
    <glyph glyph-name="angkhankhuthai" unicode="&#xe5a;" horiz-adv-x="2449" 
d="M2294 180q0 -41 -16 -77.5t-43 -63.5t-63.5 -43t-78.5 -16t-78 16t-62.5 43t-41.5 63.5t-15 77.5v1483q0 42 15 78.5t41.5 63.5t62.5 43t78 16t78.5 -16t63.5 -43t43 -63.5t16 -78.5v-1483zM516 1704q11 -66 38.5 -122t69.5 -97.5t98.5 -64.5t125.5 -23t123.5 22.5
t95 59.5t66.5 84t38 96q11 41 28 79t43 67t62.5 46t85.5 17q43 0 79 -16.5t61.5 -45t40 -66.5t14.5 -81v-1479q0 -41 -16 -77.5t-43 -63.5t-63.5 -43t-78.5 -16q-40 0 -75 16t-61 43t-41 63.5t-15 77.5v967q-68 -59 -153.5 -89t-190.5 -30q-133 0 -253 43.5t-215 123.5
t-160 192.5t-89 250.5q-8 42 1.5 80t31 68.5t54.5 51t73 26.5q41 7 79 -2t68.5 -31t51 -54.5t26.5 -72.5z" />
    <glyph glyph-name="khomutthai" unicode="&#xe5b;" horiz-adv-x="4121" 
d="M1397 1139q0 -37 -13.5 -68.5t-37 -54.5t-55 -36t-66.5 -13q-37 0 -68 13t-53.5 36t-36 54.5t-14.5 68.5q-2 48 -17 89t-43.5 71t-70 47.5t-95.5 17.5q-55 0 -113 -23t-105.5 -73t-78 -130.5t-30.5 -195.5q0 -129 43 -221t118 -151.5t175.5 -87t216.5 -27.5
q100 0 190.5 38.5t164.5 105t127.5 154t79 186t20 201.5t-49.5 199l246 168q35 -29 76 -73t84.5 -96.5l87.5 -110l85.5 -114.5l77.5 -110.5l64 -97.5l36.5 82.5l38 90l33.5 83.5t23 64l234 143q21 -21 56.5 -65.5l74.5 -98l77 -109t66 -100.5l37 74l24 49h820q37 0 69 -13.5
t56 -37.5t37.5 -56t13.5 -69t-13.5 -69t-37.5 -56t-56 -37.5t-69 -13.5h-635l-111 -168l-45.5 -71l-44.5 -68.5l-41.5 -59t-36.5 -43.5q-17 49 -50 116t-71 137l-75 135.5l-62 111.5q-20 -39 -49.5 -91l-63.5 -109.5l-71 -117l-73 -113.5t-70 -98.5t-62 -72.5
q-24 54 -62 128.5l-81 153.5l-87 153t-81 126q-25 -93 -70.5 -181.5t-108.5 -167t-142 -143.5t-170.5 -112.5t-194 -73.5t-211.5 -26q-215 0 -385.5 60t-289 169.5t-181 262.5t-62.5 339q0 126 28 232t77 191.5t116 150.5t144.5 108.5t162 65.5t169.5 22q82 4 158 -15.5
t141 -58t118 -93t88 -119.5t50 -138t6 -149z" />
    <glyph glyph-name="saraulowthai" unicode="&#xf718;" 
d="M-156 -1417q0 -39 -14.5 -73t-39.5 -60t-58.5 -41t-71.5 -15t-72.5 15t-60 41t-40.5 60t-15 73v221h-86q-39 0 -73 15t-60 40.5t-41 60t-15 72.5q0 39 15 73t41 60t60 41t73 15h270q38 0 72.5 -14.5t60 -39.5t40.5 -58.5t15 -72.5v-413z" />
    <glyph glyph-name="sarauulowthai" unicode="&#xf719;" 
d="M-696 -1249q0 -37 26 -57.5t60 -20.5t60 20.5t26 57.5v266q0 38 14.5 71.5t39.5 58.5t58.5 39.5t71.5 14.5t71.5 -14.5t58.5 -39.5t39.5 -58.5t14.5 -71.5v-258q0 -92 -37.5 -168.5t-100.5 -131t-146.5 -84.5t-175.5 -30q-91 0 -172 24t-141.5 68.5t-96 107t-35.5 140.5
v123h-74q-38 0 -72.5 15t-60 40.5t-40.5 60t-15 72.5q0 39 15 72.5t40.5 58.5t60 39.5t72.5 14.5h251q38 0 72.5 -14.5t60 -39.5t40.5 -58.5t15 -72.5v-245z" />
    <glyph glyph-name="phinthulowthai" unicode="&#xf71a;" 
d="M-115 -1032q0 -49 -18.5 -92.5t-50.5 -75.5t-74 -51t-90 -19q-49 0 -92.5 18.5t-75.5 50.5t-51 74.5t-19 90.5q0 49 18.5 92t50.5 75.5t74.5 51t90.5 18.5q49 0 92 -18.5t75.5 -51t51 -75.5t18.5 -92v4z" />
    <glyph glyph-name="rulakkhangyao" unicode="&#xf881;" horiz-adv-x="3052" 
d="M254 1114l-89 94q-36 37 -45.5 78t-4 78.5t20.5 68.5t30 49q73 92 159 164.5t182 122.5t201 76.5t218 26.5q179 0 345.5 -56.5t297.5 -168.5q84 63 155 105.5t139.5 68t139.5 36.5t156 11q189 0 327.5 -56.5t229.5 -151t135.5 -219.5t44.5 -261v-1708q0 -42 -16 -78
t-43 -62.5t-63.5 -41.5t-78.5 -15q-41 0 -77 15t-62.5 41.5t-41.5 62.5t-15 78v1679q0 356 -345 356q-88 0 -179.5 -37t-188.5 -131q25 -65 37 -137t12 -149v-1573q0 -40 -16 -76.5t-43 -64t-63.5 -44t-78.5 -16.5q-41 0 -76.5 16.5t-61 44t-40 64t-14.5 76.5v1573
q0 98 -37 180.5t-104.5 142.5t-162.5 93.5t-212 33.5q-51 0 -101.5 -11t-98.5 -31.5t-92 -49t-81 -63.5l98 -103v-876h99q38 0 71.5 -14.5t58.5 -39.5t39.5 -58.5t14.5 -72.5q0 -38 -14.5 -71.5t-39.5 -58.5t-58.5 -39.5t-71.5 -14.5h-298q-41 0 -77 15.5t-63 42.5t-42.5 63
t-15.5 77v916z" />
    <glyph glyph-name="lulakkhangyao" unicode="&#xf882;" horiz-adv-x="3076" 
d="M283 1135l-102 111q-28 30 -35.5 63.5t-3 65t16.5 57.5t24 42q67 87 151.5 160.5t182 126t207 82t227.5 29.5q89 0 171.5 -12t161 -38t153.5 -66t148 -97q66 54 132.5 93t137 65t146 38.5t158.5 12.5q189 0 327.5 -56.5t229.5 -151t135.5 -219.5t44.5 -261v-1708
q0 -42 -16 -78t-43 -62.5t-63.5 -41.5t-78.5 -15q-41 0 -77 15t-62.5 41.5t-41.5 62.5t-15 78v1679q0 356 -345 356q-43 0 -83 -6t-81.5 -23t-86.5 -47.5t-97 -78.5q28 -72 43 -145.5t15 -153.5v-1573q0 -40 -16 -76.5t-43 -64t-63.5 -44t-78.5 -16.5q-40 0 -75 16.5
t-61.5 44t-41.5 64t-15 76.5v1573q0 98 -37 180.5t-104.5 142.5t-162.5 93.5t-212 33.5q-102 0 -198.5 -42t-173.5 -113l98 -103v-1047q0 -41 -15.5 -77t-42.5 -63t-63 -42.5t-77 -15.5h-220q-38 0 -71.5 14.5t-58.5 39.5t-39.5 58.5t-14.5 71.5q0 39 14.5 72.5t39.5 58.5
t58.5 39.5t71.5 14.5h21v766z" />
    <glyph glyph-name="lochula.short" unicode="&#xf71d;" horiz-adv-x="2232" 
d="M1462 1462q-35 0 -66 13t-53.5 35.5t-35.5 53.5t-13 66t13 66.5t35.5 55t53.5 37t66 13.5h115q20 0 40.5 -0.5t37 2t27 10.5t10.5 25q0 40 14.5 75t40 61.5t61 41.5t76.5 15q40 0 75 -15.5t61.5 -41.5t41.5 -59t15 -69q0 -77 -24.5 -145t-71.5 -117q48 -52 72 -127
t24 -155v-783q0 -115 -46 -214t-124.5 -171.5t-184 -113.5t-223.5 -41q-221 0 -381 135q-159 -135 -381 -135q-120 0 -225.5 41t-184.5 113.5t-125 171.5t-46 214v1143q0 42 15 78.5t41.5 63.5t62.5 43t77 16q42 0 78.5 -16t63.5 -43t43 -63.5t16 -78.5v-1143
q0 -35 13.5 -66t37.5 -53.5t58 -35.5t75 -13q39 0 72 13t57 35.5t38 53.5t14 66v524q0 42 15 78.5t41.5 63.5t62.5 43t77 16q42 0 78.5 -16t63.5 -43t43 -63.5t16 -78.5v-524q0 -35 13.5 -66t37.5 -53.5t58 -35.5t75 -13q39 0 72.5 13t58 35.5t39 53.5t14.5 66v787
q0 48 -9 78t-25.5 47t-40 23.5t-52.5 6.5h-94z" />
    <glyph glyph-name="uni25CC" unicode="&#x25cc;" horiz-adv-x="2744" 
d="M1061 733l-197 -61l70 192q28 -40 59 -71.5t68 -59.5zM1278 1692l94 184l90 -180q-21 3 -42.5 3.5t-43.5 0.5q-25 0 -49 -2.5t-49 -5.5zM1454 639l-82 -172l-86 172q22 -3 45.5 -5.5t44.5 -2.5q22 0 41 2.5t37 5.5zM1905 1257l172 -90l-172 -77q3 18 5.5 37t2.5 40
q0 22 -2.5 45.5t-5.5 44.5zM852 1081l-184 95l184 90q-3 -25 -5.5 -49.5t-2.5 -49.5q0 -21 2.5 -42.5t5.5 -43.5zM946 1487l-53 188l184 -65q-40 -25 -71.5 -55.5t-59.5 -67.5zM1802 840l49 -168l-168 53q35 25 64.5 53t54.5 62zM1679 1610l201 65l-70 -192q-27 37 -58.5 68
t-72.5 59z" />
    <glyph glyph-name="yamakkanleftthai" 
d="M-746 2772q-21 15 -38.5 24.5t-38.5 9.5q-47 0 -75 -29t-28 -70q0 -18 8.5 -39.5t29 -40t54 -30.5t84.5 -12v-202q-51 0 -84.5 -11.5t-54 -29.5t-29 -39.5t-8.5 -41.5q0 -37 30.5 -64t92.5 -30q26 -2 47 -14t35.5 -31t21 -43.5t3.5 -50.5t-15.5 -47.5t-31.5 -35.5
t-43 -20.5t-50 -3.5q-68 11 -128 38.5t-105 70t-71.5 101t-26.5 130.5q0 128 82 221q-82 94 -82 225q0 72 26.5 134.5t73 108t109.5 71.5t135 26q74 0 130.5 -24.5t102.5 -65.5q20 -17 31 -39t12.5 -46t-6.5 -47.5t-25 -43.5t-38.5 -29.5t-44 -10t-44.5 7.5t-41 23z" />
    <glyph glyph-name="copyright" unicode="&#xa9;" horiz-adv-x="2425" 
d="M2335 1085q0 -157 -40 -301.5t-113.5 -270t-176 -228.5t-227.5 -176.5t-268 -113.5t-298 -40q-157 0 -301.5 40t-270 113.5t-228.5 176.5t-176.5 228.5t-113.5 270.5t-40 301q0 155 40 298t113.5 268t176.5 227.5t228.5 176t270 113.5t301.5 40q155 0 298 -40t268 -113.5
t227.5 -176t176 -227.5t113.5 -268t40 -298zM2081 1085q0 121 -31 232.5t-87 208t-135 175.5t-175.5 135t-208 87t-232.5 31q-123 0 -235.5 -31t-210 -87.5t-177 -136t-135.5 -176t-87 -207.5t-31 -231q0 -123 31 -235.5t87 -210t135.5 -177t177 -135.5t210 -87t235.5 -31
q120 0 231 31t207.5 87t176 135.5t136 177t87.5 210t31 235.5zM1667 512q23 18 38 42.5t20 50.5t0 53t-21 51t-39 37.5t-49 16.5t-53 -4.5t-52 -25.5q-24 -18 -55 -34.5t-65 -29t-70.5 -19.5t-71.5 -7q-80 0 -151.5 35t-125 94t-85 137t-31.5 164q0 88 31 165.5t84.5 135.5
t126 91.5t155.5 33.5q72 0 132.5 -24.5t125.5 -73.5q25 -18 52.5 -25t54 -3.5t50 18t40.5 39.5q17 24 22.5 51.5t0.5 54.5t-20 51.5t-40 42.5q-96 71 -199 107.5t-215 36.5q-97 0 -185 -25t-163.5 -70.5t-136.5 -109t-104 -141.5t-66.5 -168t-23.5 -187q0 -146 50 -274
t140 -223.5t214 -151t271 -55.5q68 0 127.5 12.5t111 32.5t95 46t80.5 52z" />
    <glyph glyph-name="registered" unicode="&#xae;" horiz-adv-x="2540" 
d="M2462 1147q0 -163 -42.5 -314t-120 -282.5t-186 -239.5t-240.5 -185.5t-283.5 -120t-315.5 -42.5q-165 0 -318 42.5t-285.5 120t-242 185.5t-187 239.5t-120.5 282.5t-43 314t43 313t121.5 281t187.5 238t242 183t285.5 118t316.5 42t315.5 -42t283.5 -118.5t240.5 -184
t186 -238t120 -280.5t42.5 -312zM2200 1147q0 123 -33 238.5t-93.5 217.5t-144.5 186.5t-187 145.5t-221.5 95t-246.5 34q-132 0 -253 -32.5t-225.5 -91.5t-189 -142.5t-145 -185.5t-93 -219.5t-32.5 -245.5q0 -130 33 -249t93.5 -222t146 -187t189.5 -143.5t224.5 -92
t251.5 -32.5q129 0 248 32.5t221.5 92t187 143.5t144 187t92.5 222t33 249zM1569 1380q0 37 -17.5 59t-45.5 33.5t-63.5 15t-70.5 3.5h-287v-225h209q26 0 56.5 -1t61 0t59 6t50.5 18t35 35t13 56zM827 1622q0 27 9.5 50.5t26.5 40.5t40.5 26.5t50.5 9.5h418q233 0 342 -92
t109 -264q0 -75 -22.5 -133.5t-61.5 -101.5t-92.5 -72t-114.5 -46l205 -307q17 -23 22.5 -48t1 -50t-19 -47t-37.5 -39q-47 -31 -98.5 -21t-85.5 54l-283 450h-152v-377q0 -27 -10 -50.5t-27.5 -40.5t-41.5 -26.5t-52 -9.5q-27 0 -50.5 9.5t-40.5 26.5t-26.5 40.5t-9.5 50.5
v967z" />
    <glyph glyph-name="trademark" unicode="&#x2122;" horiz-adv-x="2459" 
d="M823 2163q18 0 37 -8.5t34.5 -23t25.5 -34t10 -41.5q0 -24 -10 -44.5t-25.5 -35t-34.5 -22.5t-37 -8h-196v-975q0 -22 -8.5 -42.5t-23.5 -36.5t-35.5 -26t-43.5 -10q-26 0 -47.5 10t-36.5 26t-23 36.5t-8 42.5v975h-196q-20 0 -39 8t-34 22.5t-24.5 35t-9.5 44.5
q0 22 9.5 41.5t24.5 34t34 23t39 8.5h618zM1951 2109q11 26 34.5 42.5t53.5 16.5q35 0 60 -21.5t32 -53.5l228 -1092q5 -24 0 -46.5t-17 -41t-30.5 -31.5t-41.5 -17q-24 -5 -46.5 0t-41 17.5t-31.5 30.5t-17 41l-28.5 138.5l-29.5 144l-30 144l-28 138.5l-20 122l-47 -119
l-268 -647h-140l-274 658l-41 115l-23 -119l-121 -575q-5 -23 -17.5 -41t-31 -30.5t-41 -17.5t-46.5 0q-23 4 -41 17.5t-30.5 32t-17.5 41t-1 45.5l234 1092q7 32 32.5 53.5t59.5 21.5q30 0 53.5 -16.5t34.5 -42.5l338 -814z" />
    <glyph glyph-name="multiply" unicode="&#xd7;" horiz-adv-x="1589" 
d="M799 561l-422 -422q-23 -23 -52 -34.5t-59 -11.5t-58.5 11.5t-51.5 34.5q-22 22 -32.5 50t-10.5 57.5t12 58t35 51.5l422 422l-422 422q-23 23 -35 52t-12 58.5t10.5 57.5t32.5 49q23 23 51.5 34.5t58.5 11.5t59 -11.5t52 -34.5l422 -422l422 422q23 23 51.5 34.5
t58.5 11.5t59 -11.5t52 -34.5q21 -21 32 -49t10.5 -57.5t-12 -58.5t-34.5 -52l-422 -422l422 -422q23 -23 34.5 -51.5t12 -58t-10.5 -57.5t-32 -50q-23 -23 -52 -34.5t-59 -11.5t-58.5 11.5t-51.5 34.5z" />
    <glyph glyph-name="divide" unicode="&#xf7;" horiz-adv-x="1610" 
d="M1008 1294q0 -48 -17.5 -88.5t-47 -70t-69 -46t-83.5 -16.5q-48 0 -88.5 17t-70 46.5t-46.5 69t-17 84.5q0 48 17.5 88.5t47 70t69 46t83.5 16.5q48 0 88.5 -17t70 -46.5t46.5 -69t17 -84.5zM1008 303q0 -48 -17.5 -88.5t-47 -70t-69 -46t-83.5 -16.5q-48 0 -88.5 17
t-70 46.5t-46.5 69t-17 84.5q0 48 17.5 88.5t47 70t69 46t83.5 16.5q48 0 88.5 -16.5t70 -46t46.5 -70t17 -88.5v4zM1401 963q34 0 63.5 -13.5t52 -36.5t35.5 -53.5t13 -64.5t-13 -63.5t-35.5 -52t-52 -35.5t-63.5 -13h-1184q-34 0 -63.5 13t-52 35.5t-35.5 52t-13 63.5
t13 64.5t35.5 53.5t52 36.5t63.5 13.5h1184z" />
    <glyph glyph-name="ZWSP" unicode="&#x200b;" 
 />
    <glyph glyph-name="yoyingthai" unicode="&#xe0d;" horiz-adv-x="3116" 
d="M1868 664q0 -66 26 -124.5t72.5 -102t110.5 -68.5t139 -25t138.5 24t109 66.5t71 101.5t25.5 128v999q0 42 15 78.5t42 63.5t64 43t80 16q41 0 77.5 -16t63.5 -43t43 -63.5t16 -78.5v-1667q0 -98 -27 -189t-77 -169.5t-119.5 -143t-154.5 -111t-183.5 -71.5t-204.5 -25
q-110 0 -205.5 26.5t-177.5 74.5t-150.5 115.5t-125.5 148.5q-23 34 -30 72.5t0 75t28 69t55 53.5q34 23 72.5 30.5t75 0t69 -28.5t54.5 -55q70 -101 149 -157t186 -56q75 0 142.5 25t117.5 69.5t79.5 106t29.5 135.5v86q-71 -59 -161.5 -83t-186.5 -24q-105 0 -201 25
t-179.5 70.5t-151.5 109.5t-116.5 141t-75 165t-26.5 182v393q0 98 -37 179.5t-105.5 140t-166.5 90.5t-219 32q-108 0 -206 -40t-175 -111l102 -99v-880h103q38 0 71.5 -14.5t58.5 -39.5t39.5 -58.5t14.5 -72.5q0 -38 -14.5 -71.5t-39.5 -58.5t-58.5 -39.5t-71.5 -14.5
h-310q-41 0 -77 15.5t-63 42.5t-42.5 63t-15.5 77v936l-102 111q-28 30 -35.5 63.5t-3 65t16.5 57.5t24 42q67 87 153.5 160.5t187 126t212.5 82t230 29.5q133 0 253.5 -27.5t224 -78t187.5 -123t143 -163t91 -196t32 -223.5v-396z" />
    <glyph glyph-name="sterling" unicode="&#xa3;" horiz-adv-x="1794" 
d="M1700 1544q7 -40 -2 -79.5t-31 -72t-55.5 -55.5t-75.5 -31q-38 -8 -76.5 1t-71 30.5t-55.5 54.5t-30 74q-10 57 -37 116.5t-69.5 108t-101 80t-132.5 31.5q-66 0 -122.5 -25t-98 -71.5t-64.5 -112.5t-23 -147v-221h234q38 0 72.5 -15t60 -41t40.5 -60t15 -73
q0 -38 -15 -72.5t-40.5 -60t-60 -40.5t-72.5 -15h-234v-471h820q38 0 72.5 -15t60 -41t40.5 -60t15 -73q0 -38 -15 -72.5t-40.5 -60t-60 -40.5t-72.5 -15h-1225q-39 0 -73 15t-60 40.5t-41 60t-15 72.5q0 39 15 73t41 60t60 41t73 15v471q-39 0 -73 15t-60 40.5t-41 60
t-15 72.5q0 39 15 73t41 60t60 41t73 15v221q0 98 22 192t64.5 177t104 153t140.5 120.5t175 78.5t207 28q149 0 271.5 -48.5t216.5 -135.5t157 -206.5t92 -260.5z" />
    <glyph glyph-name="yen" unicode="&#xa5;" horiz-adv-x="1737" 
d="M1454 1536h29q38 0 71.5 -14.5t58.5 -39.5t39.5 -58.5t14.5 -71.5q0 -39 -14.5 -72.5t-39.5 -58.5t-58.5 -39.5t-71.5 -14.5h-246l-90 -151h336q38 0 71.5 -14.5t58.5 -39.5t39.5 -58.5t14.5 -72.5q0 -38 -14.5 -71.5t-39.5 -58.5t-58.5 -39.5t-71.5 -14.5h-406v-459
q0 -43 -16.5 -80.5t-45 -66t-66.5 -45t-81 -16.5t-80 16.5t-64.5 45t-43.5 66t-16 80.5v459h-398q-38 0 -71.5 14.5t-58.5 39.5t-39.5 58.5t-14.5 71.5q0 39 14.5 72.5t39.5 58.5t58.5 39.5t71.5 14.5h328l-86 151h-242q-38 0 -71.5 14.5t-58.5 39.5t-39.5 58.5t-14.5 72.5
q0 38 14.5 71.5t39.5 58.5t58.5 39.5t71.5 14.5h25l-209 348q-21 35 -27.5 74.5t2 76.5t31 69.5t59.5 54.5q36 21 75 26.5t76.5 -3.5t70 -32.5t53.5 -60.5l446 -750l451 750q21 37 53.5 60.5t69.5 32.5t76.5 3.5t74.5 -26.5q37 -22 60 -54.5t31.5 -69.5t2 -76.5t-27.5 -74.5
z" />
    <glyph glyph-name="cent" unicode="&#xa2;" horiz-adv-x="1864" 
d="M639 1114q0 -127 55.5 -228.5t157.5 -160.5v770q-99 -59 -156 -158t-57 -223zM1552 496q-65 -53 -150.5 -96.5t-197.5 -71.5v-119q0 -37 -13.5 -69t-37.5 -56t-56 -37.5t-69 -13.5t-69 13.5t-56 37.5t-37.5 56t-13.5 69v123q-129 37 -234.5 110.5t-181 175.5
t-116.5 228.5t-41 267.5q0 138 42.5 263.5t118 227.5t181 174.5t231.5 104.5v107q0 37 13.5 69t37.5 56t56 37.5t69 13.5t69 -13.5t56 -37.5t37.5 -56t13.5 -69v-90q54 -11 107 -31t99 -42t82 -43.5t56 -35.5q31 -21 51 -52t28.5 -66t3.5 -71.5t-25 -68.5
q-22 -32 -52.5 -53.5t-65 -29t-70 -0.5t-65.5 31q-26 20 -64 41.5t-85 43.5v-824q47 22 84.5 48l71.5 51q29 21 64 27.5t69.5 -1t65.5 -28t51 -52.5t24 -66t-5 -67t-29 -63t-48 -53z" />
    <glyph glyph-name="Euro" unicode="&#x20ac;" horiz-adv-x="2277" 
d="M1237 1552q38 0 71.5 -14.5t58.5 -39.5t39.5 -58.5t14.5 -71.5t-14.5 -71.5t-39.5 -58.5t-58.5 -39.5t-71.5 -14.5h-561q-3 -28 -5.5 -58t-2.5 -61v-74h569q38 0 71.5 -14.5t58.5 -39.5t39.5 -58.5t14.5 -71.5t-14.5 -71.5t-39.5 -58.5t-58.5 -39.5t-71.5 -14.5h-401
q141 -142 279 -208.5t286 -66.5q54 0 106.5 7.5t108 25.5t114.5 47t125 72q36 23 74 30t73.5 0t66.5 -28.5t53 -55.5q23 -34 29.5 -71t-1.5 -72.5t-29 -67.5t-53 -55q-81 -55 -160 -95t-159.5 -66.5t-165 -39t-178.5 -12.5q-170 0 -327.5 49t-291.5 136t-241 207.5
t-176 263.5h-140q-38 0 -71.5 14.5t-58.5 39.5t-39.5 58.5t-14.5 71.5t14.5 71.5t39.5 58.5t58.5 39.5t71.5 14.5h37v86q0 28 0.5 53.5t3.5 53.5h-41q-38 0 -71.5 14.5t-58.5 39.5t-39.5 58.5t-14.5 71.5t14.5 71.5t39.5 58.5t58.5 39.5t71.5 14.5h144q43 90 100.5 167.5
t128.5 148.5q80 75 172.5 135.5t194.5 103t212.5 65.5t227.5 23q172 0 334 -51.5t325 -165.5q32 -23 53 -54.5t29 -67.5t1.5 -73t-29.5 -71q-22 -34 -53.5 -55.5t-67.5 -29.5t-74 -0.5t-72 32.5q-44 35 -102.5 63t-120.5 47.5t-122.5 30t-108.5 10.5q-149 0 -281.5 -59.5
t-234.5 -161.5l-33 -37h385z" />
    <glyph glyph-name="onequarter" unicode="&#xbc;" horiz-adv-x="2605" 
d="M1880 442h209v292zM684 1081q0 -27 -10.5 -51t-29 -42t-43 -28t-52.5 -10t-52 10t-41.5 28t-27.5 42t-10 51v819h-90q-29 0 -54 10t-43 28t-28 42t-10 52q0 27 10 51t27.5 42t41.5 28t52 10h229q28 0 52 -10t41.5 -28t27.5 -42t10 -51v-951zM774 37q-17 -23 -39 -37.5
t-47 -19.5t-50 0t-48 20q-23 17 -37.5 39t-19.5 47t0 50t20 48l1364 1938q17 23 39 37.5t47 19.5t50 0t48 -20q23 -17 37.5 -39t19.5 -47t0 -50.5t-20 -48.5zM1601 197q-38 0 -64.5 26.5t-26.5 64.5q0 31 17 54l633 907q14 20 35 31.5t47 11.5q21 0 39.5 -8t32 -21.5
t21.5 -32t8 -39.5v-749h49q26 0 48.5 -9.5t39 -26t26 -39t9.5 -48.5t-9.5 -48t-26 -38.5t-39 -26t-48.5 -9.5h-49v-91q0 -26 -10 -49t-27.5 -40t-40.5 -27t-49 -10t-49.5 10t-40.5 27t-27 40t-10 49v91h-488z" />
    <glyph glyph-name="onehalf" unicode="&#xbd;" horiz-adv-x="2585" 
d="M664 37q-35 -47 -86.5 -57.5t-98.5 20.5q-23 17 -37.5 39t-19.5 47t0 50t20 48l1364 1938q17 23 39 37.5t47 19.5t50.5 0t48.5 -20q23 -17 37 -39t19 -47t0.5 -50.5t-19.5 -48.5zM2365 0q28 0 52 9.5t41.5 26.5t27.5 40t10 51t-10 52t-27.5 41.5t-41.5 27.5t-52 10h-301
l86 94q19 18 43 43.5l49.5 52.5l50 54.5t42.5 50.5q27 34 51.5 69.5t43 75t29.5 84t11 95.5q0 86 -34 161t-92 131t-135.5 88.5t-164.5 32.5q-85 0 -159 -35.5t-130 -91t-91 -123t-42 -131.5q-3 -25 3 -50t20 -46.5t35 -37t49 -21.5q24 -5 50 0.5t47.5 20t37 36t20.5 49.5
q6 37 19 67.5t32.5 53t46.5 35t62 12.5q32 0 61 -11.5t51 -31.5t35 -46.5t13 -57.5q0 -25 -10.5 -52t-27 -54.5t-37 -53.5l-40.5 -49l-198 -220l-209 -223q-17 -18 -27 -42.5t-10 -51.5q0 -28 10.5 -52.5t29 -43t43 -29t52.5 -10.5h585zM684 1081q0 -27 -10.5 -51t-29 -42
t-43 -28t-52.5 -10t-52 10t-41.5 28t-27.5 42t-10 51v819h-90q-29 0 -54 10t-43 28t-28 42t-10 52q0 27 10 51t27.5 42t41.5 28t52 10h229q28 0 52 -10t41.5 -28t27.5 -42t10 -51v-951z" />
    <glyph glyph-name="threequarters" unicode="&#xbe;" horiz-adv-x="2626" 
d="M193 1200q3 -44 34.5 -97.5t84.5 -100t123.5 -78t150.5 -31.5q90 0 166 29t131 81.5t85.5 124.5t30.5 158q0 78 -31 148t-83 122q46 50 72 110.5t26 131.5q0 78 -29 145.5t-79.5 117t-119.5 78t-149 28.5q-92 0 -158.5 -27t-111.5 -73t-70.5 -106t-36.5 -126
q-3 -25 3 -48t19.5 -42t34 -32t46.5 -17q49 -6 86 24t49 82q6 26 19.5 48.5t31.5 39t39.5 26t44.5 9.5q59 0 93 -32t34 -91q0 -35 -4.5 -64.5t-19 -52t-41.5 -36t-72 -17.5q-19 -2 -31 -15.5t-18 -33.5t-5.5 -43t7 -42.5t18.5 -32.5t30 -13q45 -1 74 -11.5t46.5 -31.5
t24.5 -52.5t7 -74.5q0 -32 -11 -60.5t-31.5 -49.5t-49 -33.5t-63.5 -12.5t-61 10.5t-43.5 28.5t-28 41t-15.5 47q-5 26 -19.5 47t-35.5 34.5t-46 18.5t-50 -1q-32 -8 -52 -22.5t-31 -34.5t-14 -44t-1 -51zM872 37q-34 -47 -85.5 -57.5t-98.5 20.5q-23 17 -37.5 39t-19.5 47
t0 50t20 48l1364 1938q17 23 39 37.5t47 19.5t50.5 0t48.5 -20q23 -17 37 -39t19 -47t0 -50.5t-20 -48.5zM1880 442h209v292zM1601 197q-38 0 -64.5 26.5t-26.5 64.5q0 31 17 54l633 907q14 20 35 31.5t47 11.5q21 0 39.5 -8t32 -21.5t21.5 -32t8 -39.5v-749h49
q26 0 48.5 -9.5t39 -26t26 -39t9.5 -48.5t-9.5 -48t-26 -38.5t-39 -26t-48.5 -9.5h-49v-91q0 -26 -10 -49t-27.5 -40t-40.5 -27t-49 -10t-49.5 10t-40.5 27t-27 40t-10 49v91h-488z" />
    <glyph glyph-name="saraamleft" horiz-adv-x="1520" 
d="M-700 2425q0 -75 -29 -141.5t-78.5 -116t-116 -78.5t-141.5 -29t-141.5 29t-116 78.5t-78.5 116t-29 141.5t29 141.5t78.5 116t116 78t141.5 28.5t141.5 -28.5t116 -78t78.5 -116t29 -141.5zM-958 2421q0 23 -8 43t-22.5 35t-34 23.5t-42.5 8.5t-42.5 -8.5t-33.5 -23.5
t-22 -35t-8 -43q0 -47 30 -77t76 -30t76.5 30t30.5 77zM82 1675q-28 -24 -43.5 -57.5t-17 -70t10.5 -73t38 -65.5q24 -28 58 -43t70.5 -17t72.5 10t65 38q64 52 132.5 81t154.5 29q344 0 344 -356v-975q0 -41 15 -77t41.5 -62.5t62.5 -41.5t77 -15q42 0 78.5 15t63.5 41.5
t43 62.5t16 77v1004q0 136 -44.5 261t-135.5 219.5t-229.5 151t-327.5 56.5q-85 0 -158 -11t-139 -34.5t-127 -60t-121 -87.5z" />
    <glyph glyph-name="uni0E33.alt1" horiz-adv-x="1520" 
d="M-700 2425q0 -75 -29 -141.5t-78.5 -116t-116 -78.5t-141.5 -29t-141.5 29t-116 78.5t-78.5 116t-29 141.5t29 141.5t78.5 116t116 78t141.5 28.5t141.5 -28.5t116 -78t78.5 -116t29 -141.5zM-958 2421q0 23 -8 43t-22.5 35t-34 23.5t-42.5 8.5t-42.5 -8.5t-33.5 -23.5
t-22 -35t-8 -43q0 -47 30 -77t76 -30t76.5 30t30.5 77zM82 1675q-28 -24 -43.5 -57.5t-17 -70t10.5 -73t38 -65.5q24 -28 58 -43t70.5 -17t72.5 10t65 38q64 52 132.5 81t154.5 29q344 0 344 -356v-975q0 -41 15 -77t41.5 -62.5t62.5 -41.5t77 -15q42 0 78.5 15t63.5 41.5
t43 62.5t16 77v1004q0 136 -44.5 261t-135.5 219.5t-229.5 151t-327.5 56.5q-85 0 -158 -11t-139 -34.5t-127 -60t-121 -87.5z" />
    <glyph glyph-name="guillemotleft" unicode="&#xab;" horiz-adv-x="1417" 
d="M733 594q22 -26 32 -56.5t8.5 -61t-15 -58.5t-37.5 -49q-26 -22 -57 -31.5t-62 -6.5t-60 17.5t-50 40.5l-443 529l443 528q21 26 50 40.5t60 17.5t62 -6.5t57 -31.5q24 -21 37.5 -49t15 -58.5t-8.5 -61t-32 -56.5l-270 -323zM1323 594q21 -26 31 -56.5t8.5 -61
t-14.5 -58.5t-37 -49q-26 -22 -57 -31.5t-62.5 -6.5t-60 17.5t-50.5 40.5l-442 529l442 528q22 26 50.5 40.5t60 17.5t62.5 -6.5t57 -31.5q24 -21 37 -49t14.5 -58.5t-8.5 -61t-31 -56.5l-270 -323z" />
    <glyph glyph-name="guillemotright" unicode="&#xbb;" horiz-adv-x="1417" 
d="M967 918l-271 323q-21 26 -31 56.5t-8.5 61t14.5 58.5t38 49q26 22 57 31.5t62 6.5t60 -17.5t50 -40.5l442 -528l-442 -529q-21 -26 -50 -40.5t-60 -17.5t-62 6.5t-57 31.5q-25 21 -38 49t-14.5 58.5t8.5 61t31 56.5zM377 918l-271 323q-21 26 -31 56.5t-8.5 61
t14.5 58.5t38 49q26 22 57 31.5t62 6.5t60 -17.5t50 -40.5l443 -528l-443 -529q-21 -26 -50 -40.5t-60 -17.5t-62 6.5t-57 31.5q-25 21 -38 49t-14.5 58.5t8.5 61t31 56.5z" />
    <glyph glyph-name="thothannobasethai" unicode="&#xf700;" horiz-adv-x="1749" 
d="M1274 111q-22 -56 -73 -91.5t-116 -35.5t-111 35t-65 87l-299 803q-14 37 -11.5 75t18.5 71.5t43.5 59.5t64.5 40t75 12t72.5 -17t61.5 -43t41 -67l119 -323l114 295q25 66 25 127q0 72 -30.5 136.5t-83 113.5t-123.5 77.5t-152 28.5q-66 0 -117.5 -17t-90.5 -45t-67 -64
t-48 -73t-32.5 -73l-21.5 -64q-12 -38 -37 -68t-59 -48.5t-72.5 -24t-77.5 5.5q-38 11 -68 35.5t-48.5 57.5t-24 71.5t5.5 77.5q14 51 32 101t45 99.5t64 99t88 97.5q107 100 242 152.5t287 52.5q41 0 82.5 -3t84.5 -11.5t88.5 -23.5t96.5 -40l143 156q28 31 64.5 47.5
t74.5 18t74.5 -11t65.5 -38.5q31 -28 47 -64t18 -74.5t-10 -75t-39 -65.5l-135 -147q65 -82 98 -184.5t33 -212.5q0 -68 -13 -129t-36 -121z" />
    <glyph glyph-name="exclam" unicode="!" horiz-adv-x="881" 
d="M696 205q0 -54 -20 -99t-55 -78t-82 -51t-101 -18t-101 18t-82 51t-55 78t-20 99t20 99.5t55 79t82 52.5t101 19t101 -19t82 -52.5t55 -79t20 -99.5zM225 1270v696q0 45 16.5 84.5t45.5 69t67.5 46.5t83.5 17t84.5 -17t69 -46.5t46.5 -69t17 -84.5v-696l-41 -565
q-3 -37 -16.5 -68.5t-36 -55t-53.5 -36.5t-70 -13q-37 0 -67 13t-52.5 36.5t-36 55t-16.5 68.5z" />
    <glyph glyph-name="quotedbl" unicode="&#x22;" horiz-adv-x="987" 
d="M98 2056q-2 32 11.5 62t36.5 52.5t53.5 36t62.5 13.5t62.5 -13.5t53.5 -36t36 -52.5t12 -62l-29 -545q-2 -27 -13 -51t-29.5 -42t-44 -28t-56.5 -10q-28 0 -51.5 10t-40.5 28t-27.5 42t-11.5 51zM565 2056q-2 32 11.5 62t36.5 52.5t53.5 36t62.5 13.5t62.5 -13.5
t53.5 -36t36 -52.5t12 -62l-29 -545q-2 -27 -13 -51t-29.5 -42t-44 -28t-56.5 -10q-28 0 -51.5 10t-40.5 28t-27.5 42t-11.5 51z" />
    <glyph glyph-name="numbersign" unicode="#" horiz-adv-x="1839" 
d="M840 1192l-40 -266h224l41 266h-225zM1237 119q-6 -34 -23 -61.5t-41.5 -46.5t-55 -27.5t-64.5 -3.5q-34 6 -61.5 23t-46.5 41.5t-28 55t-4 64.5l66 426h-225l-66 -463q-6 -35 -23.5 -64.5t-43 -49.5t-56.5 -29t-65 -4q-35 6 -64.5 24t-49.5 43.5t-29.5 57t-4.5 63.5
l62 422h-156q-35 0 -66 13t-53.5 35.5t-35.5 53.5t-13 66t13 66t35.5 53.5t53.5 35.5t66 13h205l37 266h-164q-35 0 -66 13t-53.5 35.5t-35.5 53.5t-13 66t13 66t35.5 53.5t53.5 35.5t66 13h209l61 422q6 35 24 64t44 49t59 29t70 5q35 -6 64.5 -24t49.5 -44.5t29 -59.5
t4 -68l-61 -373h229l62 422q6 35 23.5 64t43 49t58 29t67.5 5q35 -6 64.5 -24t49.5 -44t29 -58t5 -66l-58 -377h123q35 0 66 -13t53.5 -35.5t35.5 -53.5t13 -66t-13 -66t-35.5 -53.5t-53.5 -35.5t-66 -13h-176l-41 -266h148q35 0 65.5 -13t53 -35.5t35.5 -53.5t13 -66
t-13 -66t-35.5 -53.5t-53 -35.5t-65.5 -13h-201z" />
    <glyph glyph-name="dollar" unicode="$" horiz-adv-x="1753" 
d="M782 1823q-37 -12 -68.5 -32t-54.5 -48t-36 -65t-13 -85q0 -35 16 -62.5t41 -49t55.5 -38t59.5 -30.5v410zM1286 647q0 39 -21 71t-52.5 59t-68 48.5l-67.5 38.5v-508q95 40 152 112t57 179zM1262 1614l-91 97t-94 79v-516l303 -135q78 -43 139 -93.5t103 -111t64 -132
t22 -155.5q0 -81 -22.5 -155.5t-63.5 -141.5t-99 -124.5t-128 -104t-150.5 -80.5t-167.5 -53v-205q0 -31 -11.5 -58t-31.5 -47t-46.5 -31.5t-57.5 -11.5t-58 11.5t-47 31.5t-31.5 47t-11.5 58v184q-213 16 -380.5 128.5t-290.5 326.5q-22 37 -26.5 76.5t7 76t37 68.5
t64.5 53q38 20 77.5 24t75.5 -7.5t66.5 -36.5t50.5 -62q61 -110 139.5 -186t179.5 -100v671l-186.5 81.5t-173.5 99.5q-51 35 -93 76t-72 90t-47 108t-17 131q0 118 42 221t119 182.5t185.5 132t242.5 70.5v172q0 31 11.5 58t31.5 47t47 31.5t58 11.5t57.5 -11.5t46.5 -31.5
t31.5 -47t11.5 -58v-180q78 -17 147 -47t129 -70t111.5 -88t96.5 -102q24 -29 35.5 -66t9 -75t-18.5 -74t-47 -64q-31 -26 -68.5 -37.5t-75.5 -9t-73 18.5t-61 45z" />
    <glyph glyph-name="percent" unicode="%" horiz-adv-x="2322" 
d="M1061 1683q0 -103 -39 -190.5t-106.5 -151.5t-158.5 -100.5t-196 -36.5q-104 0 -196 36.5t-160.5 100.5t-108 151.5t-39.5 190.5q0 105 39 194t107 154.5t160 102.5t198 37q105 0 196 -37t158.5 -102.5t106.5 -154.5t39 -194zM2257 475q0 -104 -40 -192t-109 -152
t-160.5 -99.5t-194.5 -35.5q-101 0 -192.5 35.5t-160.5 99.5t-110 152t-41 192q0 106 40 195t109 153t160.5 99.5t194.5 35.5t194.5 -35.5t160.5 -99.5t109 -153t40 -195zM737 1683q0 36 -14.5 66.5t-38.5 53t-56 35.5t-67 13q-37 0 -69 -13t-56 -35.5t-37.5 -53
t-13.5 -66.5q0 -35 13.5 -65t37.5 -52t56 -34t69 -12q35 0 67 13.5t56 36t38.5 52t14.5 61.5zM1933 475q0 35 -14.5 66.5t-39 55t-57 37t-69.5 13.5t-69 -13.5t-56 -37t-37.5 -55t-13.5 -66.5t13.5 -65t37.5 -52t56 -34.5t69 -12.5t69.5 12.5t57 34.5t39 52t14.5 65z
M1622 2220q18 31 46 52t61 30t68 5.5t67 -21.5q32 -19 53 -47.5t30 -62t4.5 -69t-22.5 -67.5l-1208 -2048q-17 -29 -44.5 -49.5t-60.5 -29.5t-67.5 -5t-65.5 22q-29 15 -48.5 42.5t-28 60.5t-5 67.5t20.5 63.5z" />
    <glyph glyph-name="ampersand" unicode="&#x26;" horiz-adv-x="2269" 
d="M1561 295q-72 -63 -150 -123t-162 -108.5t-175 -81t-189 -39.5q-135 -12 -256.5 28.5t-215 120.5t-153.5 191.5t-72 240.5q-8 89 7.5 168.5t48 150t79 134t101 120t114 108l117.5 98.5q-35 38 -66.5 80.5t-56 89t-41 98t-20.5 108.5q-8 103 25 197.5t96.5 168.5
t152 120.5t193.5 54.5q106 8 199.5 -24.5t165 -94t115.5 -146t52 -181.5q8 -89 -11.5 -165.5t-57 -142.5t-89 -121.5t-108.5 -103.5l352 -389l156 172q28 31 62 47.5t70 19.5t70.5 -9t63.5 -38q31 -27 47.5 -61t19.5 -70t-8.5 -71t-37.5 -64l-180 -213l282 -327
q25 -28 36 -62t8 -68.5t-19 -67t-45 -56.5q-28 -25 -62.5 -36t-69.5 -8.5t-67 17.5t-55 43zM1090 1741q-10 59 -45.5 88.5t-81.5 25.5q-19 -2 -39.5 -14.5t-37 -34t-26 -50t-4.5 -60.5q1 -23 11.5 -46.5t25.5 -46t31 -42.5l30 -37l49 43t47 50t32.5 58t7.5 66zM913 1012
l-71.5 -54.5t-77 -63.5t-74 -71.5t-61 -78.5t-39 -85t-8.5 -90q4 -61 28 -110.5t61 -84t83.5 -51.5t97.5 -12q54 5 108 27t109 58t112 83t117 103z" />
    <glyph glyph-name="quotesingle" unicode="'" horiz-adv-x="659" 
d="M164 2056q-2 32 11.5 62t36.5 52.5t53.5 36t62.5 13.5t62.5 -13.5t53.5 -36t36 -52.5t12 -62l-29 -545q-2 -27 -13 -51t-30 -42t-44.5 -28t-56.5 -10q-27 0 -50.5 10t-40.5 28t-27.5 42t-12.5 51z" />
    <glyph glyph-name="parenleft" unicode="(" horiz-adv-x="971" 
d="M455 -348q-88 146 -158 300.5t-118.5 314.5t-74.5 324.5t-26 330.5q0 167 27.5 325t77 309t118 296t150.5 286q18 32 46 54.5t60 33.5t66 9t65 -19q34 -17 56.5 -45t33 -61t8 -68.5t-19.5 -67.5q-60 -106 -114 -224.5t-95.5 -250t-65.5 -277t-24 -304.5q0 -88 5.5 -168
t17 -156t29.5 -150t42 -149q25 -74 52.5 -142.5t55 -130l52.5 -114.5l45 -96q15 -32 17.5 -67t-7.5 -67.5t-32 -59.5t-56 -44q-29 -17 -62.5 -19t-65 9t-59.5 33.5t-46 54.5z" />
    <glyph glyph-name="parenright" unicode=")" horiz-adv-x="971" 
d="M532 -348q-18 -32 -46 -54.5t-59.5 -33.5t-65 -9t-62.5 19q-34 17 -56 44t-32 59.5t-7.5 67.5t17.5 67l45 96l52.5 114.5t55 130t52.5 142.5q25 75 42.5 149t29 150t17 156t5.5 168q0 159 -24 304.5t-65.5 277t-95.5 250t-114 224.5q-17 32 -19.5 67.5t8 68.5t33 61
t56.5 45q31 17 65 19t66 -9t60 -33.5t47 -54.5q81 -141 149.5 -286t118 -296t77 -309t27.5 -325q0 -166 -26 -330.5t-75 -324.5t-118.5 -314.5t-157.5 -300.5z" />
    <glyph glyph-name="asterisk" unicode="*" horiz-adv-x="1442" 
d="M1147 1323q21 -29 29 -62t3.5 -64.5t-21 -60.5t-44.5 -51q-29 -21 -62 -29t-64.5 -3.5t-60.5 21t-50 44.5l-148 213l-160 -213q-21 -28 -50 -44.5t-60.5 -21t-64.5 3.5t-62 29q-28 22 -44.5 51t-21 60.5t3.5 64.5t29 62l164 225l-246 74q-32 11 -55.5 33t-36.5 50.5
t-15 61t9 64.5q12 32 34.5 57.5t50.5 41t60 19t64 -6.5l233 -82l-8 237q0 34 13.5 64.5t36.5 53.5t53.5 36.5t64.5 13.5t64.5 -13.5t53.5 -36.5t36.5 -53.5t13.5 -64.5l-4 -237l237 82q32 10 64 6.5t60 -19t50.5 -41t34.5 -57.5q11 -32 9 -64.5t-15 -61t-36.5 -50.5
t-55.5 -33l-250 -74z" />
    <glyph glyph-name="plus" unicode="+" horiz-adv-x="1618" 
d="M647 958v431q0 34 12.5 63.5t34 51.5t50.5 35t63 13t63.5 -13t52 -35t35.5 -51.5t13 -63.5v-431h430q34 0 63.5 -13t52 -35t35.5 -51.5t13 -63.5t-13 -63t-35.5 -50.5t-52 -34t-63.5 -12.5h-430v-430q0 -34 -13 -63.5t-35.5 -52t-52 -35.5t-63.5 -13t-63 13t-50.5 35.5
t-34 52t-12.5 63.5v430h-430q-34 0 -63.5 12.5t-52 34t-35.5 50.5t-13 63t13 63.5t35.5 51.5t52 35t63.5 13h430z" />
    <glyph glyph-name="comma" unicode="," horiz-adv-x="696" 
d="M254 -360q-18 -12 -39.5 -17t-43 -2t-40.5 14t-33 29q-14 20 -17.5 41.5t1 42t16.5 38.5t29 30l44 33t41 34.5t39.5 40.5t39.5 51q-87 22 -136 77t-49 132q0 45 17.5 86.5t49 73.5t74 51t93.5 19q66 0 114.5 -26.5t80.5 -67.5t47.5 -91t15.5 -98q0 -121 -87 -249
t-257 -242z" />
    <glyph glyph-name="hyphen" unicode="-" horiz-adv-x="1176" 
d="M926 963q34 0 63.5 -13t52 -35.5t35.5 -52t13 -63.5t-13 -63.5t-35.5 -52t-52 -35.5t-63.5 -13h-676q-34 0 -63.5 13t-52 35.5t-35.5 52t-13 63.5t13 63.5t35.5 52t52 35.5t63.5 13h676z" />
    <glyph glyph-name="period" unicode="." horiz-adv-x="696" 
d="M590 209q0 -51 -19 -95t-51.5 -76.5t-76.5 -51.5t-95 -19t-95 19t-76.5 51t-51.5 75.5t-19 92.5q0 51 19 95t51.5 76.5t76.5 51t95 18.5t95 -18.5t76.5 -51t51.5 -75.5t19 -92z" />
    <glyph glyph-name="slash" unicode="/" horiz-adv-x="1942" 
d="M1397 2355q17 31 44.5 52.5t60 32t67 8.5t65.5 -19t52.5 -44.5t32 -60.5t8.5 -67.5t-19 -65.5l-1155 -2117q-17 -31 -45 -52.5t-61 -31.5t-68.5 -7t-67.5 21q-34 18 -55 47t-30 62t-5 67.5t21 65.5z" />
    <glyph glyph-name="zero" unicode="0" horiz-adv-x="1761" 
d="M1675 1094q0 -134 -21.5 -270t-65.5 -261t-109.5 -234t-154.5 -189.5t-200.5 -126.5t-246.5 -46t-247 46t-200.5 126.5t-154.5 189.5t-110 234t-65.5 261t-21.5 270t22 267.5t66 256t110 228t155 183t200.5 122t245.5 44.5t245 -44.5t200 -122t155 -183t110 -228t66 -256
t22 -267.5zM1266 1094q0 102 -15 195t-41.5 172.5t-63 144t-79.5 110t-91.5 70t-98.5 24.5q-75 0 -146 -54.5t-126 -150.5t-88.5 -227t-33.5 -284q0 -172 33.5 -310t88.5 -235t126 -149t146 -52t145 52t124.5 149t87 235t32.5 310z" />
    <glyph glyph-name="one" unicode="1" horiz-adv-x="1761" 
d="M1139 180q0 -43 -16 -79.5t-43.5 -63.5t-65 -42t-80.5 -15t-80 15t-64 42t-42 63.5t-15 79.5v1598h-213q-40 0 -75 15t-61 41t-41 61t-15 75t15 75t41 61.5t61 41.5t75 15h427q40 0 75 -15t61 -41.5t41 -61.5t15 -75v-1790z" />
    <glyph glyph-name="two" unicode="2" horiz-adv-x="1761" 
d="M345 0q-39 0 -74 15t-61 41.5t-41 61.5t-15 74q0 40 14.5 74.5t40.5 60.5l684 677q61 61 119 126.5t102 131t71 128t27 117.5q0 66 -25 122.5t-69 97.5t-103 64.5t-126 23.5q-66 0 -118.5 -22t-90.5 -61.5t-63 -94.5t-35 -121q-6 -42 -26.5 -76.5t-51 -58.5t-68.5 -35.5
t-80 -6.5q-41 6 -76.5 26.5t-60 51t-36 68.5t-3.5 80q8 44 23 98t40 110.5t61 112.5t85 105q51 51 110 88.5t123 62t131.5 37t135.5 12.5q101 0 194.5 -24t174.5 -68t147.5 -106.5t113.5 -139.5t73 -166.5t26 -187.5q0 -77 -18.5 -149.5t-50 -139.5t-72.5 -129t-86.5 -118
t-92.5 -105.5l-90 -91.5l-393 -389h627q38 0 72.5 -15t60 -41t40.5 -60t15 -73q0 -40 -15 -74t-40.5 -59.5t-60 -40t-72.5 -14.5h-1097z" />
    <glyph glyph-name="three" unicode="3" horiz-adv-x="1761" 
d="M193 532q-8 43 1.5 81.5t32.5 68.5t57.5 50t75.5 26q43 4 81 -6t67.5 -32.5t49.5 -55.5t28 -74q10 -51 31.5 -95t55 -76.5t81 -51.5t110.5 -19q66 0 121.5 23t96 64.5t63 97.5t22.5 122q0 54 -12 105t-47 92t-100.5 69t-171.5 37q-37 3 -61.5 26.5t-36 57.5t-11.5 73
t12.5 73.5t36.5 59.5t60 30q98 14 157 43t90.5 68t41.5 86t10 98q0 55 -18.5 99t-51 74.5t-77.5 47t-99 16.5q-49 0 -89 -15.5t-69.5 -43.5t-48.5 -67t-27 -87q-8 -43 -28.5 -77t-50.5 -56.5t-68.5 -33t-81.5 -5.5q-43 6 -78.5 26.5t-58.5 51.5t-33 70t-2 82
q20 112 68.5 210.5t128 171.5t189.5 115.5t253 42.5q89 0 172 -21t155 -59.5t132 -94.5t102.5 -125.5t66 -151.5t23.5 -174q0 -130 -46 -239.5t-142 -199.5q108 -95 164.5 -214t56.5 -252q0 -143 -48.5 -269.5t-140 -221.5t-223 -150.5t-297.5 -55.5q-136 0 -260 46.5
t-223 142.5q-48 48 -81 98.5t-55 100t-35.5 95t-20.5 82.5z" />
    <glyph glyph-name="four" unicode="4" horiz-adv-x="1761" 
d="M1032 1368l-446 -623h446v623zM209 356q-39 0 -72.5 15t-59 41.5t-40 61.5t-14.5 75q0 64 34 112l1011 1425q29 40 72 63.5t95 23.5q43 0 80.5 -16.5t65.5 -44.5t44.5 -65.5t16.5 -80.5v-1221h82q40 0 75.5 -15.5t62.5 -42.5t42.5 -62.5t15.5 -75.5t-15.5 -75
t-42.5 -61.5t-62.5 -41.5t-75.5 -15h-82v-172q0 -43 -16 -80t-43.5 -64.5t-65 -43.5t-80.5 -16t-80.5 16t-65 43.5t-43.5 64.5t-16 80v172h-823z" />
    <glyph glyph-name="five" unicode="5" horiz-adv-x="1761" 
d="M274 1970q0 40 15 75t41 61.5t61 41.5t75 15h849q40 0 75 -15t61 -41.5t41 -61.5t15 -75t-15 -74t-41 -59.5t-61 -40t-75 -14.5h-631v-246q46 9 91.5 14.5t88.5 5.5q115 0 219.5 -28t194 -79t162 -122.5t124 -158.5t79.5 -187t28 -207q0 -118 -30.5 -223.5t-86 -195
t-133 -161.5t-171.5 -122.5t-201 -77.5t-222 -27q-106 0 -202.5 26t-182.5 74t-161 116.5t-138 152.5q-24 32 -33 70t-3 74.5t25.5 69.5t51.5 56q34 25 72.5 34.5t76 4t71.5 -24.5t59 -51q87 -114 180 -167.5t188 -53.5q92 0 171.5 31t138 87.5t92 135.5t33.5 176
q0 83 -34.5 155.5t-93 126.5t-135.5 85t-163 31q-49 0 -106.5 -5.5t-127 -23t-151.5 -50t-181 -86.5v959z" />
    <glyph glyph-name="six" unicode="6" horiz-adv-x="1761" 
d="M946 1573q103 -8 197 -42t175 -89t146 -128t111 -159.5t71 -184t25 -200.5q0 -107 -28 -207.5t-78.5 -190t-122 -164t-159 -128t-188.5 -83.5t-210 -30q-110 0 -211 29t-188.5 81t-159 125.5t-122 163t-78.5 192t-28 212.5q0 72 10.5 137.5t30.5 125.5t49 116.5t66 112.5
l614 905q25 37 58.5 59t70.5 29.5t76 -0.5t74 -31q37 -24 59 -57.5t29.5 -70.5t-0.5 -76t-31 -74zM1266 770q0 89 -32 165.5t-85 132.5t-122 88t-142 32q-74 0 -142 -30.5t-120.5 -86t-83.5 -132.5t-31 -169t31 -169t83.5 -132.5t120.5 -86t142 -30.5q73 0 142 32t122 88
t85 132.5t32 165.5z" />
    <glyph glyph-name="seven" unicode="7" horiz-adv-x="1761" 
d="M1411 2163q51 0 95.5 -19.5t78 -53t53 -78t19.5 -95.5q0 -32 -8.5 -63t-23.5 -57l-978 -1715q-21 -37 -53 -61t-69.5 -34.5t-77 -6.5t-74.5 24q-37 21 -61.5 53.5t-34.5 70t-6 76.5t24 75l864 1499h-856q-40 0 -75 15t-61 41t-41 61t-15 75t15 75t41 61.5t61 41.5t75 15
h1108z" />
    <glyph glyph-name="eight" unicode="8" horiz-adv-x="1761" 
d="M1589 627q0 -95 -26.5 -181t-73.5 -159.5t-113 -132.5t-144.5 -100.5t-167.5 -64t-183 -22.5t-183.5 22.5t-168 64t-144.5 100.5t-113 132.5t-73.5 159.5t-26.5 181q0 314 221 503q-90 93 -133 197.5t-43 224.5q0 137 50.5 254.5t140 204t211 135.5t262.5 49t262 -49
t210.5 -135.5t140 -204t50.5 -254.5q0 -120 -43 -224.5t-133 -197.5q221 -188 221 -503zM1184 639q0 60 -24.5 111.5t-66 90t-96.5 60t-116 21.5q-62 0 -117 -21.5t-96 -60t-65.5 -90t-24.5 -111.5t24.5 -113t65.5 -92.5t96 -62.5t117 -23q60 0 114.5 23.5t96.5 63.5
t67 92.5t25 111.5zM1142 1556q0 55 -21.5 102t-57.5 81.5t-83.5 54t-98.5 19.5q-55 0 -102.5 -19.5t-83 -54t-55.5 -81.5t-20 -102q0 -54 20 -99.5t55.5 -78.5t83 -51.5t102.5 -18.5q54 0 102 19.5t83 53t55.5 79t20.5 96.5z" />
    <glyph glyph-name="nine" unicode="9" horiz-adv-x="1761" 
d="M811 586q-104 8 -197.5 42t-174.5 88.5t-146 127.5t-111 159.5t-71 184.5t-25 201q0 106 28 207t78.5 190t122 163.5t159 128t188.5 83.5t210 30q110 0 211 -28.5t188.5 -81t159 -126t122 -162.5t78.5 -191.5t28 -212.5q0 -72 -10.5 -137.5t-30.5 -126t-49 -117
t-66 -111.5l-614 -905q-25 -37 -58 -59t-70.5 -29.5t-76 0t-74.5 30.5q-37 25 -59 58.5t-29 70.5t0.5 76t30.5 74zM492 1389q0 -89 32 -165.5t84.5 -132.5t121 -88t142.5 -32t142 30.5t120.5 86t83.5 132.5t31 169t-31 168.5t-83.5 132t-120.5 86t-142 30.5t-142.5 -32
t-121 -88t-84.5 -132t-32 -165z" />
    <glyph glyph-name="colon" unicode=":" horiz-adv-x="696" 
d="M590 1245q0 -51 -19 -95t-51 -76.5t-75.5 -51t-92.5 -18.5q-51 0 -95 18.5t-76.5 51t-51 75.5t-18.5 92q0 51 18.5 95t51 76.5t75.5 51.5t92 19q51 0 95 -19t76.5 -51t51.5 -75.5t19 -92.5zM590 213q0 -51 -19 -95t-51 -76.5t-75.5 -51.5t-92.5 -19q-51 0 -95 19
t-76.5 51t-51 75.5t-18.5 92.5q0 51 18.5 95t51 76.5t75.5 51.5t92 19q51 0 95 -19t76.5 -51.5t51.5 -76.5t19 -95v4z" />
    <glyph glyph-name="semicolon" unicode=";" horiz-adv-x="696" 
d="M586 1241q0 -51 -19 -95t-51.5 -76.5t-76.5 -51.5t-95 -19q-49 0 -92.5 19t-75.5 51.5t-51 76.5t-19 95t19 95t51 76.5t75.5 51.5t92.5 19q51 0 95 -19t76.5 -51.5t51.5 -76.5t19 -95zM254 -360q-18 -12 -39.5 -17t-43 -2t-40.5 14t-33 29q-14 20 -17.5 41.5t1 42
t16.5 38.5t29 30l44 33t41 34.5t39.5 40.5t39.5 51q-87 22 -136 77t-49 132q0 45 17.5 86.5t49 73.5t74 51t93.5 19q66 0 114.5 -26.5t80.5 -67.5t47.5 -91t15.5 -98q0 -121 -87 -249t-257 -242z" />
    <glyph glyph-name="less" unicode="&#x3c;" horiz-adv-x="1741" 
d="M207 634q-54 28 -86.5 81t-32.5 119t34 120t90 82l1189 594q31 15 63.5 17t63 -8t56 -31t42.5 -52q15 -30 17 -63t-8 -63t-31 -56t-52 -43l-974 -495l974 -529q31 -17 52 -42.5t31 -55.5t8 -62t-17 -61q-17 -31 -42 -52t-55 -31.5t-62 -8.5t-62 18z" />
    <glyph glyph-name="equal" unicode="=" horiz-adv-x="1630" 
d="M1397 1208q34 0 63.5 -13t52 -35t35.5 -52t13 -64t-13 -63.5t-35.5 -51.5t-52 -35t-63.5 -13h-1159q-34 0 -64 13t-52 35t-35 51.5t-13 63.5t13 64t35 52t52 35t64 13h1159zM1397 709q34 0 63.5 -13t52 -35.5t35.5 -52t13 -63.5t-13 -63.5t-35.5 -52t-52 -35.5t-63.5 -13
h-1159q-34 0 -64 13t-52 35.5t-35 52t-13 63.5t13 63.5t35 52t52 35.5t64 13h1159z" />
    <glyph glyph-name="greater" unicode="&#x3e;" horiz-adv-x="1741" 
d="M340 12q-30 -16 -62 -18t-62 8.5t-55 31.5t-42 52q-15 29 -17 61t8 62t31 55.5t52 42.5l974 529l-974 495q-31 17 -52 43t-31 56t-8 63t17 63q17 31 42.5 52t56 31t63 8t63.5 -17l1189 -594q56 -28 90 -82t34 -120t-32.5 -119t-86.5 -81z" />
    <glyph glyph-name="question" unicode="?" horiz-adv-x="1475" 
d="M999 184q0 -54 -19 -99.5t-52 -79t-78.5 -52.5t-99.5 -19t-100 19t-79 52.5t-52 79t-19 99.5t19 100t52 79t79 52t100 19q51 0 96 -19t79 -52t54 -79t20 -100zM74 1561q-7 63 8.5 137.5t52.5 149.5t94 143.5t132.5 120t167.5 79.5t200 21q149 0 270.5 -48.5t208 -131.5
t134 -195.5t47.5 -239.5q0 -86 -21.5 -156t-56 -128t-78 -105.5t-86.5 -89.5q-29 -29 -65.5 -62t-68.5 -69.5t-53.5 -76.5t-21.5 -83v-114q0 -39 -15 -73t-40.5 -60t-60 -41t-72.5 -15q-39 0 -73 15t-60 41t-41 60t-15 73v123q0 75 19 137t50 114.5t71 97.5t81.5 85.5
l81.5 79t71 78t50 82.5t19 92q0 41 -15.5 83.5t-48.5 76.5t-85 55.5t-126 21.5t-125.5 -23t-84 -61t-48 -88.5t-16.5 -105.5q-2 -40 -17 -74.5t-41 -60t-60.5 -40t-74.5 -14.5t-72.5 14.5t-56.5 40t-39 60t-20 74.5z" />
    <glyph glyph-name="at" unicode="@" horiz-adv-x="2359" 
d="M1430 1298q4 14 -5 43.5t-33 59t-64.5 52t-98.5 22.5q-53 0 -105.5 -23.5t-99.5 -64t-87.5 -95t-70 -115.5t-46.5 -125.5t-17 -125.5q0 -48 9.5 -87t33.5 -67t64 -43.5t102 -15.5q48 0 96 23t90 59.5t75 81.5t50 90zM2220 262l-36 -35.5t-62 -54t-91.5 -65.5t-125.5 -70
q-140 -65 -295.5 -98t-306.5 -33q-173 0 -333 37.5t-299 109t-253 175t-195 235t-125.5 289.5t-44.5 338q0 158 42 304t118 272t182 229t235 176t276 113t306 40q149 0 286.5 -32.5t257 -92.5t218 -146t169 -193.5t109 -234.5t38.5 -268q0 -119 -30.5 -230t-83.5 -208.5
t-125.5 -178t-155.5 -138t-174 -89.5t-181 -32q-60 0 -102.5 13t-71.5 34t-47 46.5t-29 49.5q-86 -46 -166 -66t-157 -20q-111 0 -195 37.5t-141 101.5t-86 149.5t-29 182.5q0 93 21.5 192t63.5 192.5t104 177t144 146.5t183 99.5t221 36.5q152 0 291 -102l8 20
q8 25 26 44.5t41 31.5t48.5 15t48.5 -5q26 -8 46.5 -25.5t32.5 -41t14 -50t-7 -51.5l-4 -12l-43 -115.5t-56 -165t-68.5 -229.5t-82.5 -309q-5 -14 -8.5 -32.5t-2 -35t11 -28t32.5 -11.5q43 0 91.5 26t96.5 70.5t91.5 104.5t77 128.5t53.5 141.5t20 144q0 103 -31 194
t-86.5 167.5t-130.5 137t-162.5 102.5t-184.5 64.5t-195 22.5q-123 0 -236.5 -33t-212.5 -92t-180 -141t-139 -180.5t-89.5 -209.5t-31.5 -229q0 -134 34.5 -253t98 -219t152 -179.5t197 -135t233.5 -85t260 -29.5q98 0 199 16.5t195.5 52.5t179.5 92t151 134
q18 23 43.5 32.5t53 8t53.5 -13t46 -31.5t29 -46t8 -53t-12.5 -52.5t-32.5 -45.5z" />
    <glyph glyph-name="A" unicode="A" horiz-adv-x="2060" 
d="M1032 1425l-196 -471h393zM874 2082q19 46 62.5 74.5t98.5 28.5q56 0 99.5 -28.5t62.5 -74.5l753 -1824q16 -40 16.5 -79.5t-13.5 -74.5t-42 -63t-68 -45q-37 -17 -75.5 -17.5t-73.5 14t-63.5 42t-45.5 67.5l-201 484h-704l-201 -484q-17 -40 -45.5 -67.5t-64 -42
t-75 -14t-77.5 17.5q-40 17 -67.5 45t-42 63t-14 74.5t17.5 79.5z" />
    <glyph glyph-name="B" unicode="B" horiz-adv-x="1655" 
d="M156 1958q0 43 15 80.5t42 65t63.5 43.5t79.5 16h353q153 0 283.5 -36.5t226 -114t149 -197.5t53.5 -287q0 -206 -110 -348q136 -87 211 -221.5t75 -299.5q0 -115 -30.5 -208t-84 -166.5t-127 -127t-160 -88.5t-182.5 -52t-194 -17h-463q-43 0 -79.5 16t-63.5 43.5
t-42 65t-15 80.5v1753zM1012 1544q0 67 -20 113t-63 73.5t-109.5 39.5t-160.5 12h-98v-479h98q86 0 152 8.5t110.5 34t67.5 73t23 125.5zM1188 655q0 78 -32 135.5t-91 81.5q-31 17 -69.5 27t-83.5 15t-95 6.5t-104 1.5h-152v-545h180q111 0 194.5 14t139.5 46.5t84.5 86
t28.5 131.5z" />
    <glyph glyph-name="C" unicode="C" horiz-adv-x="1978" 
d="M1839 180q-81 -55 -160 -95t-159.5 -66.5t-165.5 -39t-178 -12.5q-153 0 -296.5 40t-270 112.5t-232 174t-181 224.5t-117.5 264.5t-42 294.5q0 155 41.5 298t116.5 267t180 226t232 174.5t272 112.5t301 40q172 0 334 -51.5t325 -165.5q32 -23 53 -54.5t29 -67.5t1 -73
t-30 -71q-21 -34 -53 -55.5t-68 -29.5t-73.5 -0.5t-71.5 32.5q-45 35 -103.5 65t-121 50.5t-122.5 30.5t-108 5q-98 0 -190.5 -27t-174 -76t-149.5 -117.5t-116.5 -151.5t-75.5 -177.5t-27 -195.5q0 -93 27.5 -182.5t76.5 -169t117 -146.5t149.5 -116t173.5 -76t189 -27
q54 0 107 7.5t108.5 25.5t114.5 47t125 72q35 23 73 30t74 0t67 -28.5t52 -55.5q23 -34 30 -71t-1 -72.5t-29 -67.5t-53 -55z" />
    <glyph glyph-name="D" unicode="D" horiz-adv-x="1864" 
d="M647 2163q170 0 323.5 -33.5t284.5 -98t237 -158t180.5 -214.5t114.5 -267t40 -315q0 -166 -41 -310t-116.5 -264t-182 -213.5t-237.5 -158t-283.5 -98t-319.5 -33.5h-291q-43 0 -79.5 16t-63.5 43.5t-42 65t-15 80.5v1753q0 43 15 80.5t42 65t63.5 43.5t79.5 16h291z
M1417 1077q0 161 -56 291t-157.5 221t-244 140t-316.5 49h-82v-1397h82q172 0 314.5 49t244.5 139.5t158.5 219t56.5 288.5z" />
    <glyph glyph-name="E" unicode="E" horiz-adv-x="1470" 
d="M356 0q-43 0 -79.5 16t-63.5 43.5t-42 65t-15 80.5v1753q0 43 15 80.5t42 65t63.5 43.5t79.5 16h848q40 0 75 -15t61.5 -41.5t41.5 -61.5t15 -75t-15 -75t-41.5 -61t-61.5 -41t-75 -15h-643v-418h619q40 0 75 -15t61 -41.5t41 -61.5t15 -75q0 -38 -15 -72.5t-41 -60
t-61 -40.5t-75 -15h-619v-598h647q39 0 73 -15t60 -41.5t41 -61.5t15 -75q0 -38 -15 -72.5t-41 -60t-60 -40.5t-73 -15h-852z" />
    <glyph glyph-name="F" unicode="F" horiz-adv-x="1290" 
d="M156 1958q0 43 15 80.5t42 65t63.5 43.5t79.5 16h717q40 0 75 -15t61.5 -41.5t41.5 -61.5t15 -75q0 -38 -15 -72.5t-41.5 -60t-61.5 -40.5t-75 -15h-512v-422h496q40 0 75 -15t61 -41.5t41 -61.5t15 -75q0 -38 -15 -72.5t-41 -60t-61 -40.5t-75 -15h-496v-795
q0 -43 -16 -80t-43.5 -64.5t-65 -43.5t-80.5 -16t-79.5 16t-63.5 43.5t-42 64.5t-15 80v1774z" />
    <glyph glyph-name="G" unicode="G" horiz-adv-x="2363" 
d="M2318 1081q0 -153 -38 -294.5t-108 -265.5t-170 -226t-223.5 -175t-268.5 -113t-306 -40q-159 0 -306 40t-275 113t-233 175t-180 226t-116 265.5t-41 294.5t41 295t116 265.5t180 225.5t233 175t275 113t306 40q149 0 283 -33.5t253 -96.5t223.5 -153t195.5 -202
q24 -34 33.5 -73t4.5 -77.5t-24 -73t-51 -59.5q-34 -24 -72.5 -33t-76.5 -3t-73 25.5t-61 51.5q-66 81 -136.5 143.5t-148.5 105t-165 64t-185 21.5q-103 0 -199 -26t-179 -73.5t-151.5 -113.5t-117 -146t-75.5 -172t-27 -190t27 -189.5t75.5 -172t117 -146.5t151.5 -113.5
t179 -73.5t199 -26q124 0 235 39t201 108.5t155 166t97 211.5h-655q-40 0 -76 15.5t-63 42.5t-42.5 62.5t-15.5 75.5t15.5 76t42.5 63t63 42.5t76 15.5h884q40 0 76 -15.5t63 -42.5t42.5 -63t15.5 -76z" />
    <glyph glyph-name="H" unicode="H" horiz-adv-x="2032" 
d="M1880 164q0 -43 -16 -77t-43.5 -58t-65 -36.5t-80.5 -12.5q-45 0 -82.5 16t-64.5 43.5t-42.5 64.5t-15.5 80v791h-905v-791q0 -43 -16 -80t-43.5 -64.5t-65 -43.5t-80.5 -16t-79.5 16t-63.5 43.5t-42 64.5t-15 80v1794q0 43 15 80.5t42 65t63.5 43.5t79.5 16t80.5 -16
t65 -43.5t43.5 -65t16 -80.5v-618h905v618q0 43 15.5 80.5t42.5 65t64.5 43.5t82.5 16q43 0 80.5 -16t65 -43.5t43.5 -65t16 -80.5v-1814z" />
    <glyph glyph-name="I" unicode="I" horiz-adv-x="762" 
d="M176 1974q0 43 15 81t42 66.5t64 45t80 16.5q45 0 83 -16.5t66 -45t44 -66.5t16 -81v-1786q0 -43 -16 -80.5t-44 -66t-66 -45t-83 -16.5q-43 0 -80 16.5t-64 45t-42 66t-15 80.5v1786z" />
    <glyph glyph-name="J" unicode="J" horiz-adv-x="762" 
d="M-242 -455q-31 26 -48 61.5t-20 73.5t8 75.5t36 68.5q26 31 58.5 48t67 20.5t69 -7.5t64.5 -36q17 -14 38.5 -21.5t50.5 -7.5q20 0 37.5 7t31 20t21.5 30t8 37v2060q0 43 15 81t42 66.5t64 45t80 16.5q45 0 83 -16.5t66 -45t44 -66.5t16 -81v-2060q0 -100 -39.5 -188.5
t-108.5 -155t-161.5 -105t-198.5 -38.5q-54 0 -99.5 9.5t-85.5 25.5t-74 37.5t-65 45.5z" />
    <glyph glyph-name="K" unicode="K" horiz-adv-x="1659" 
d="M561 766v-582q0 -41 -16 -78t-43.5 -65t-65 -44.5t-80.5 -16.5t-79.5 16.5t-63.5 44.5t-42 65t-15 78v1794q0 42 15 79t42 65t63.5 44.5t79.5 16.5t80.5 -16.5t65 -44.5t43.5 -65t16 -79v-508l688 656q31 29 67 43.5t72.5 14t71.5 -16t64 -45.5q28 -30 41.5 -66t13 -73
t-16.5 -73t-46 -67l-754 -725l819 -794q31 -31 46.5 -67.5t16.5 -74.5t-13 -74.5t-42 -66.5q-29 -30 -64 -45.5t-72.5 -16t-74 14t-67.5 43.5z" />
    <glyph glyph-name="L" unicode="L" horiz-adv-x="1114" 
d="M344 0q-38 0 -72.5 15t-60 40.5t-40.5 60t-15 72.5v1790q0 42 15 79t42 65t63.5 44.5t79.5 16.5t80.5 -16.5t65 -44.5t43.5 -65t16 -79v-1601h332q38 0 72.5 -15t60 -41t40.5 -60t15 -73q0 -38 -15 -72.5t-40.5 -60t-60 -40.5t-72.5 -15h-549z" />
    <glyph glyph-name="M" unicode="M" horiz-adv-x="2617" 
d="M1867 2070q19 46 60.5 74.5t94.5 28.5q30 0 56.5 -10t48 -27.5t36.5 -41.5t21 -52l380 -1821q9 -41 0.5 -80.5t-30 -72t-54 -55t-72.5 -29.5q-41 -8 -80.5 0.5t-72 29.5t-55 53t-29.5 72l-193 942l-28 197l-66 -193l-450 -1085h-246l-459 1102l-61 184l-29 -188
l-201 -959q-8 -40 -30.5 -72t-54.5 -53t-71.5 -29.5t-80.5 -0.5q-40 7 -72.5 29.5t-53.5 55t-29.5 72t-0.5 80.5l389 1821q6 28 21 52t36.5 41.5t48 27.5t56.5 10q53 0 94.5 -28.5t60.5 -74.5l556 -1337z" />
    <glyph glyph-name="N" unicode="N" horiz-adv-x="2359" 
d="M561 1510v-1326q0 -41 -16 -78t-43.5 -65t-65 -44.5t-80.5 -16.5t-79.5 16.5t-63.5 44.5t-42 65t-15 78v1777q0 44 16.5 82.5t45.5 67.5t67.5 45.5t82.5 16.5q47 0 87 -18t69 -50l1274 -1448v1321q0 42 15 79t42 65t64 44.5t80 16.5t80.5 -16.5t65 -44.5t43.5 -65t16 -79
v-1776q0 -44 -16.5 -82.5t-45.5 -67.5t-67.5 -45.5t-82.5 -16.5q-47 0 -87 18t-69 50z" />
    <glyph glyph-name="O" unicode="O" horiz-adv-x="2363" 
d="M2318 1081q0 -153 -41 -294.5t-115.5 -265.5t-178.5 -226t-229.5 -175t-269 -113t-296.5 -40q-155 0 -299 40t-270 113t-230.5 175t-179 226t-115.5 265.5t-41 294.5q0 152 41 293.5t115 265t178 226t230 175.5t270.5 113.5t300.5 40.5q153 0 296.5 -40t269 -113
t229.5 -175t178.5 -225.5t115.5 -265.5t41 -295zM1917 1081q0 98 -26.5 190.5t-75 173.5t-115.5 148t-148 115.5t-173.5 75t-190.5 26.5q-102 0 -195.5 -26.5t-175 -74t-148.5 -114.5t-114.5 -148t-73.5 -174t-26 -192q0 -98 27 -190.5t75.5 -174t116.5 -149.5t149.5 -116.5
t174 -75.5t190.5 -27t190.5 27t173.5 75.5t148 116.5t115.5 149.5t75 174t26.5 190.5z" />
    <glyph glyph-name="P" unicode="P" horiz-adv-x="1413" 
d="M975 1532q0 72 -21 120t-62.5 77t-102 41t-138.5 12h-90v-500h102q151 0 231.5 59t80.5 191zM156 1958q0 43 15 80.5t42 65t63.5 43.5t79.5 16h283q154 0 289 -36.5t235.5 -114t158.5 -197.5t58 -287q0 -112 -27.5 -202t-76.5 -160t-117.5 -121t-151 -84t-176 -48.5
t-192.5 -15.5h-78v-713q0 -41 -16 -78t-43.5 -65t-65 -44.5t-80.5 -16.5t-79.5 16.5t-63.5 44.5t-42 65t-15 78v1774z" />
    <glyph glyph-name="Q" unicode="Q" horiz-adv-x="2363" 
d="M2175 299q28 -31 40.5 -69t10 -77.5t-19 -76t-47.5 -64.5q-31 -26 -68 -37.5t-75.5 -8.5t-74 19.5t-63.5 47.5l-96 114q-146 -86 -297.5 -133t-308.5 -47t-301.5 39.5t-270.5 112t-229 174t-176.5 225t-113.5 266.5t-40 297q0 153 41 295t115 265.5t178 225.5t230 175
t270.5 113t300.5 40q152 0 295.5 -39.5t269 -111.5t229.5 -173t178.5 -223.5t116 -264t41.5 -293.5q0 -377 -233 -684zM1266 688q-28 31 -40.5 68.5t-10 76t19 74.5t47.5 64q31 26 68 37.5t74.5 8.5t73 -19.5t63.5 -47.5l233 -245q59 86 87 173.5t28 186.5q0 102 -26 197.5
t-73 178t-113.5 150.5t-147.5 117t-174.5 75.5t-194.5 26.5q-99 0 -191.5 -26.5t-174 -75t-149.5 -115.5t-116.5 -148t-75.5 -173.5t-27 -190.5q0 -101 27 -195t75.5 -175t116 -148t149.5 -115t175.5 -74t194.5 -26q77 0 156.5 24t162.5 70z" />
    <glyph glyph-name="R" unicode="R" horiz-adv-x="1597" 
d="M999 1532q0 81 -26 130.5t-70 76t-103 35t-125 8.5h-118v-504h135q61 0 117 12t98 41t67 78t25 123zM156 1958q0 43 15 80.5t42 65t63.5 43.5t79.5 16h275q105 0 203.5 -13t184 -43t156 -78.5t121 -119t78 -165t27.5 -216.5q0 -119 -32.5 -216t-91 -172t-141 -128
t-182.5 -82l451 -643q21 -32 28 -70.5t0.5 -76t-27 -71.5t-54.5 -57q-32 -21 -70.5 -28t-76 -0.5t-71.5 27.5t-57 55l-524 757v-643q0 -40 -16 -76t-43 -63.5t-63.5 -44t-78.5 -16.5q-41 0 -77 16.5t-62.5 44t-41.5 63.5t-15 76v1778z" />
    <glyph glyph-name="S" unicode="S" horiz-adv-x="1556" 
d="M1491 631q0 -138 -49 -260t-142 -212.5t-227 -143t-303 -52.5q-114 0 -209 19.5t-172 50t-135 67.5t-98 72q-36 31 -55 66t-24 70.5t3 69t26 60.5q19 28 47.5 46.5t64.5 24t78.5 -6t88.5 -43.5q25 -23 61 -48t83.5 -45.5t106.5 -33.5t130 -13q89 0 151.5 28.5t101.5 72.5
t57 98t18 105q0 76 -31.5 131t-86 97t-127 75t-153.5 65l-135 56t-130.5 65.5t-116.5 82.5t-93.5 105.5t-62.5 136t-23 173.5q0 149 54 260.5t145 185.5t210.5 111t250.5 37q103 0 184 -16.5t144.5 -42.5t112.5 -59t87 -67q40 -37 59 -80t19 -84q0 -68 -29 -112.5t-74 -63
t-99 -10t-105 46.5l-69 52t-65.5 38.5t-73 24t-91.5 8.5q-71 0 -120 -16t-80 -45t-44.5 -68.5t-13.5 -87.5q0 -49 25.5 -88.5t69.5 -73t104.5 -63t131.5 -58.5l154.5 -67.5t145.5 -77t128.5 -94.5t102.5 -120t67.5 -154t24.5 -195z" />
    <glyph glyph-name="T" unicode="T" horiz-adv-x="1430" 
d="M1253 2163q39 0 74 -15t61.5 -41.5t42 -61.5t15.5 -75t-15.5 -74t-42 -59.5t-61.5 -40t-74 -14.5h-335v-1598q0 -41 -16 -78t-44 -65t-65 -44.5t-80 -16.5t-80 16.5t-64 44.5t-42 65t-15 78v1598h-336q-38 0 -73 14.5t-61.5 40t-42 59.5t-15.5 74t15.5 75t42 61.5
t61.5 41.5t73 15h1077z" />
    <glyph glyph-name="U" unicode="U" horiz-adv-x="1925" 
d="M1360 1974q0 43 15 81t42 66.5t64 45t80 16.5q44 0 82 -16.5t66 -45t44 -66.5t16 -81v-1130q0 -190 -50 -351t-150.5 -278t-252 -182.5t-353.5 -65.5q-141 0 -255.5 30.5t-204.5 86.5t-155 135t-108 176.5t-63.5 211t-20.5 237.5v1130q0 43 15 81t42 66.5t63.5 45
t79.5 16.5q45 0 83 -16.5t66 -45t44 -66.5t16 -81v-1093q0 -119 15 -217t58 -168t121 -109t204 -39q90 0 154.5 19.5t108.5 54t70.5 83.5t40.5 108.5t18.5 127t4.5 140.5v1093z" />
    <glyph glyph-name="V" unicode="V" horiz-adv-x="1815" 
d="M94 1913q-14 40 -12 80t17.5 75t44.5 62t69 41t80 11.5t75 -19t62 -45t41 -66.5l369 -1036l69 -234l66 230l373 1040q13 38 40 66.5t62 45t75.5 19t80.5 -11.5t68.5 -41t44.5 -62t17.5 -75t-12.5 -80l-654 -1807q-19 -51 -63.5 -83.5t-101.5 -32.5t-102 32t-63 83z" />
    <glyph glyph-name="W" unicode="W" horiz-adv-x="3191" 
d="M1439 2064q21 48 64.5 78.5t99.5 30.5q55 0 99 -29.5t64 -77.5l454 -1042l98 -266l70 258l340 1028q14 40 41 70t62 47t75 20.5t80 -10.5q38 -12 67 -39t45.5 -62t20 -75t-9.5 -78l-608 -1811q-17 -52 -62 -84t-101 -32q-57 0 -99.5 32.5t-63.5 82.5l-582 1353
l-573 -1352q-21 -51 -64.5 -83.5t-100.5 -32.5t-102.5 32t-62.5 83l-600 1816q-13 38 -9.5 77.5t19.5 73.5t44 60.5t65 38.5q40 14 80 11t74.5 -20t61 -46.5t38.5 -67.5l344 -1020l78 -274l98 262z" />
    <glyph glyph-name="X" unicode="X" horiz-adv-x="1692" 
d="M1536 274q20 -35 23.5 -75t-6.5 -77.5t-32.5 -69.5t-54.5 -52q-37 -18 -77.5 -21t-78 8t-69 34t-49.5 57l-348 622l-344 -622q-20 -34 -53 -57t-71.5 -33.5t-79 -7t-75.5 23.5q-34 20 -56.5 51.5t-32 69t-5 77.5t24.5 77l458 819l-438 782q-20 37 -24 77.5t5.5 78.5
t32 70.5t56.5 52.5q37 20 78 23.5t80 -7.5t71.5 -35t52.5 -59l320 -570l307 570q20 35 52.5 59t71.5 35t80.5 7.5t78.5 -23.5q34 -20 56.5 -52.5t32 -70.5t5 -78.5t-24.5 -77.5l-430 -778z" />
    <glyph glyph-name="Y" unicode="Y" horiz-adv-x="1921" 
d="M1413 2093q20 34 52.5 56t71 30t79 2.5t76.5 -27.5q34 -20 55 -52t28.5 -69.5t1 -77.5t-27.5 -75l-582 -975v-717q0 -43 -16 -80.5t-44 -66t-66 -45t-83 -16.5q-44 0 -81.5 16.5t-64.5 45t-42.5 66t-15.5 80.5v717l-582 975q-21 35 -27.5 75t1 77.5t28.5 69.5t55 52
q36 22 76.5 27.5t79 -2.5t71 -30t52.5 -56l455 -754z" />
    <glyph glyph-name="Z" unicode="Z" horiz-adv-x="1720" 
d="M283 0q-44 0 -83.5 17t-68.5 46t-46 68.5t-17 83.5q0 33 10 63t27 56l989 1448h-815q-40 0 -74.5 14.5t-60 40t-40 59.5t-14.5 74t14.5 75t40 61.5t60 41.5t74.5 15h1148q43 0 81 -16.5t66.5 -45t45 -66.5t16.5 -81q0 -32 -9.5 -61.5t-26.5 -54.5l-994 -1461h852
q40 0 74.5 -15t60 -41t40 -60t14.5 -73q0 -40 -14.5 -74t-40 -59.5t-60 -40t-74.5 -14.5h-1175z" />
    <glyph glyph-name="bracketleft" unicode="[" horiz-adv-x="901" 
d="M303 -483q-38 0 -71.5 15t-58.5 40.5t-39.5 58.5t-14.5 70v2425q0 37 14.5 70t39.5 58.5t58.5 40.5t71.5 15h340q38 0 71.5 -15t58.5 -40.5t39.5 -58.5t14.5 -70q0 -39 -14.5 -72.5t-39.5 -58t-58.5 -39t-71.5 -14.5h-156v-2057h156q38 0 71.5 -15t58.5 -40.5t39.5 -58.5
t14.5 -70q0 -38 -14.5 -71.5t-39.5 -58.5t-58.5 -39.5t-71.5 -14.5h-340z" />
    <glyph glyph-name="backslash" unicode="\" horiz-adv-x="1942" 
d="M233 2195q-17 31 -20 65.5t6 67.5t30.5 60.5t53.5 44.5q31 17 65.5 19.5t67.5 -7.5t60.5 -32t44.5 -54l1163 -2113q17 -32 20 -67.5t-6 -69t-30.5 -62.5t-53.5 -47q-32 -17 -68 -19.5t-70 8t-62 33t-45 56.5z" />
    <glyph glyph-name="bracketright" unicode="]" horiz-adv-x="901" 
d="M283 -483q-38 0 -71.5 14.5t-58.5 39.5t-39.5 58.5t-14.5 71.5q0 37 14.5 70t39.5 58.5t58.5 40.5t71.5 15h156v2057h-156q-38 0 -71.5 14.5t-58.5 39t-39.5 58t-14.5 72.5q0 37 14.5 70t39.5 58.5t58.5 40.5t71.5 15h340q38 0 71.5 -15t58.5 -40.5t39.5 -58.5t14.5 -70
v-2425q0 -37 -14.5 -70t-39.5 -58.5t-58.5 -40.5t-71.5 -15h-340z" />
    <glyph glyph-name="asciicircum" unicode="^" horiz-adv-x="1745" 
d="M1622 987q14 -29 15.5 -59.5t-9 -58t-31 -50.5t-49.5 -37q-31 -15 -63 -17t-60.5 7.5t-52 30t-37.5 49.5l-467 926l-458 -926q-14 -29 -37.5 -49.5t-52 -30t-60.5 -7.5t-63 17q-29 14 -49.5 36.5t-31 50.5t-9 58.5t15.5 59.5l560 1145q26 53 75 86t111 33q63 0 112 -32
t75 -84z" />
    <glyph glyph-name="underscore" unicode="_" horiz-adv-x="1634" 
d="M152 -426q-36 0 -66 13.5t-51.5 36.5t-34 53.5t-12.5 64.5t12.5 63.5t34 52t51.5 35.5t66 13h1331q35 0 65 -13t52 -35.5t34.5 -52t12.5 -63.5t-12.5 -64.5t-34.5 -53.5t-52 -36.5t-65 -13.5h-1331z" />
    <glyph glyph-name="grave" unicode="`" horiz-adv-x="889" 
d="M209 1884q-25 29 -33 64t-2.5 69t24.5 65t48 52q31 23 67 32t70.5 5t65.5 -21.5t51 -48.5l241 -364q17 -26 23 -56.5t1 -60t-21 -56t-44 -44.5q-27 -19 -57 -24.5t-58.5 -0.5t-55 21t-46.5 40z" />
    <glyph glyph-name="a" unicode="a" horiz-adv-x="1827" 
d="M1294 774q0 86 -29 159.5t-83.5 127.5t-132.5 84.5t-177 30.5q-87 0 -162 -35t-130 -93t-86 -133.5t-31 -156.5q0 -91 30 -169.5t85 -136.5t132 -91t171 -33q98 0 175 33t130 92t80.5 141t27.5 180zM1671 180q0 -41 -15 -77t-41.5 -62.5t-62.5 -41.5t-77 -15
q-69 0 -119.5 38.5t-69.5 100.5q-37 -29 -83.5 -56t-98.5 -47.5t-108 -32.5t-111 -12q-126 0 -235 28.5t-198.5 80.5t-159 124t-117 159t-72.5 186t-25 205q0 160 55.5 299t159.5 242t251.5 162t332.5 59q108 0 213.5 -35.5t195.5 -100.5q19 62 69.5 101t119.5 39
q41 0 77 -15t62.5 -41.5t41.5 -62.5t15 -78v-1147z" />
    <glyph glyph-name="b" unicode="b" horiz-adv-x="1835" 
d="M1368 766q0 86 -30.5 162t-85 133t-130 90t-164.5 33q-103 0 -181.5 -31t-132 -86.5t-80.5 -133t-27 -171.5q0 -92 28.5 -171t82 -136.5t131 -90t175.5 -32.5q94 0 170.5 33t130.5 91.5t83.5 138t29.5 171.5zM545 1430q96 58 198.5 84t210.5 26q122 0 229 -27.5
t196 -78.5t159.5 -121.5t119 -156.5t74 -185t25.5 -205q0 -118 -30 -222.5t-83 -192t-126.5 -157.5t-161 -118.5t-185.5 -74.5t-200 -26q-109 0 -213.5 36t-212.5 120q-8 -32 -26.5 -60t-44 -48t-57 -31.5t-65.5 -11.5q-41 0 -77 15.5t-62.5 42.5t-41.5 62.5t-15 75.5v2089
q0 40 15 76t41 63t61 42.5t75 15.5t76 -15.5t63 -42.5t42.5 -63t15.5 -76v-835z" />
    <glyph glyph-name="c" unicode="c" horiz-adv-x="1561" 
d="M1225 422q34 18 69.5 23t68.5 -3.5t61 -30t46 -55.5q19 -34 22.5 -70.5t-6 -71t-31 -64t-54.5 -48.5q-115 -68 -233.5 -99.5t-254.5 -31.5q-180 0 -332.5 60.5t-264.5 166.5t-175 248.5t-63 307.5q0 108 29 208t82 186.5t129 157t169 121t202 78t229 27.5q67 0 134.5 -10
t130 -28t118 -43t100.5 -54q32 -20 54 -49t31.5 -62.5t6 -69t-22.5 -69.5q-18 -34 -46 -56t-61 -31t-68.5 -5t-69.5 22q-42 23 -80 41.5t-76.5 31t-77.5 19.5t-82 7q-92 0 -172.5 -34.5t-140.5 -92.5t-94.5 -134.5t-34.5 -160.5q0 -86 34.5 -164t94.5 -137t140.5 -94
t172.5 -35q86 0 159.5 25.5t156.5 72.5z" />
    <glyph glyph-name="d" unicode="d" horiz-adv-x="1835" 
d="M1290 2265q0 40 15.5 76t42.5 63t63 42.5t76 15.5t75 -15.5t61 -42.5t41 -63t15 -76v-2089q0 -40 -15 -75.5t-41.5 -62.5t-62.5 -42.5t-77 -15.5q-34 0 -65.5 11.5t-57 31.5t-44 48t-26.5 60q-108 -84 -212.5 -120t-213.5 -36q-102 0 -200 26t-185.5 74.5t-161 118.5
t-126.5 157.5t-83 192t-30 222.5q0 106 25.5 205t74 185t119 156.5t159.5 121.5t196 78.5t229 27.5q108 0 213 -36t198 -111zM467 766q0 -92 29.5 -171.5t83.5 -138t130.5 -91.5t170.5 -33q98 0 175.5 32.5t131 90t82 136.5t28.5 171q0 94 -27.5 171.5t-80.5 133
t-131.5 86.5t-181.5 31q-89 0 -164.5 -33t-130 -90t-85 -133t-30.5 -162z" />
    <glyph glyph-name="e" unicode="e" horiz-adv-x="1720" 
d="M1218 975q-46 102 -133.5 151.5t-207.5 49.5q-60 0 -114.5 -14.5t-101.5 -41t-85 -63.5t-64 -82h706zM1647 810q4 -35 -8.5 -65.5t-36.5 -53t-56.5 -35.5t-66.5 -13h-1012q17 -72 55.5 -131.5t93 -102.5t122.5 -66.5t143 -23.5q66 0 116.5 15t88 36.5t63.5 46t43 42.5
q24 27 55.5 44.5t65 23t67 -2t62.5 -28.5q29 -23 47.5 -55t24.5 -66t-2.5 -68t-32.5 -61q-54 -60 -116 -111t-135.5 -88.5t-161.5 -58.5t-194 -21q-123 0 -229.5 30t-194.5 83t-157 126.5t-116.5 161t-72 185.5t-24.5 201q0 102 25.5 199.5t73 184t117 159t158 125t194 81.5
t226.5 29q167 0 300.5 -52t232 -147t159.5 -228t83 -295z" />
    <glyph glyph-name="f" unicode="f" horiz-adv-x="971" 
d="M758 2114q-10 3 -16.5 3.5t-12.5 0.5q-35 0 -56 -11.5t-32.5 -31t-16 -46t-6.5 -55.5v-475h189q37 0 69 -13.5t56 -37.5t37.5 -56t13.5 -69t-13.5 -69t-37.5 -56t-56 -37.5t-69 -13.5h-189v-971q0 -40 -15.5 -75.5t-42.5 -62.5t-62.5 -42.5t-75.5 -15.5t-75 15.5
t-61.5 42.5t-41.5 62.5t-15 75.5v971h-16q-37 0 -69 13.5t-56 37.5t-37.5 56t-13.5 69t13.5 69t37.5 56t56 37.5t69 13.5h16v385q0 37 1.5 83.5t9 96t22.5 98.5t41 91q35 55 81.5 95t100.5 66.5t113 39t119 12.5q49 0 99.5 -11t88.5 -37t56.5 -68.5t5.5 -104.5
q-8 -36 -27.5 -63.5t-47.5 -45.5t-62.5 -24t-71.5 2z" />
    <glyph glyph-name="g" unicode="g" horiz-adv-x="1835" 
d="M1298 762q0 87 -29.5 161.5t-85 128.5t-134 84.5t-177.5 30.5q-87 0 -161.5 -34.5t-128.5 -92.5t-84.5 -133.5t-30.5 -156.5q0 -91 30.5 -171t86 -139.5t132.5 -94t169 -34.5q98 0 175 33.5t130 93.5t80.5 143t27.5 181zM455 -193q18 -66 52 -121t83.5 -94.5t115 -61.5
t146.5 -22q121 0 205 31.5t135.5 93t74.5 153.5t23 214v91q-99 -71 -202.5 -101.5t-215.5 -30.5q-119 0 -224 30t-193 83t-158 126t-118.5 160t-74.5 184.5t-26 198.5q0 107 27 206t77.5 184.5t123 155.5t163 120t197.5 77t227 27q111 0 215.5 -34t181.5 -105q8 32 26 59.5
t43 47t55.5 30.5t64.5 11q41 0 77.5 -16t63.5 -43t43 -63.5t16 -78.5v-1217q0 -71 -3 -153t-19 -168t-48.5 -171.5t-92.5 -162.5q-60 -74 -133 -128.5t-156 -90.5t-174.5 -54t-188.5 -18q-139 0 -264.5 36.5t-228.5 108.5t-177.5 179.5t-111.5 249.5q-9 38 -2 75t27 68
t50.5 52.5t67.5 29.5q40 7 77 -0.5t67.5 -27.5t52.5 -50.5t33 -69.5z" />
    <glyph glyph-name="h" unicode="h" horiz-adv-x="1618" 
d="M156 2269q0 40 15 76t41 63t61 42.5t75 15.5t76 -15.5t63 -42.5t42.5 -63t15.5 -76v-839q65 46 143 74t168 28q119 0 210 -23t159 -65.5t114 -101.5t74.5 -131t40.5 -154.5t12 -171.5v-709q0 -40 -15.5 -75.5t-42.5 -62.5t-62.5 -42.5t-75.5 -15.5t-75 15.5t-61.5 42.5
t-41.5 62.5t-15 75.5v709q0 67 -9.5 122t-37 93t-76.5 59t-127 21q-86 0 -140.5 -31t-86 -88.5t-43.5 -138.5t-12 -181v-565q0 -40 -15.5 -75.5t-42.5 -62.5t-63 -42.5t-76 -15.5t-75 15.5t-61 42.5t-41 62.5t-15 75.5v2093z" />
    <glyph glyph-name="i" unicode="i" horiz-adv-x="741" 
d="M623 2011q0 -49 -20 -92t-54.5 -75.5t-79.5 -51t-96 -18.5q-54 0 -100 18.5t-79 51t-52 75.5t-19 92t19 92.5t52 75.5t79 51t100 19t99.5 -19t79 -51t52.5 -75.5t19 -92.5zM565 1323q0 40 -15.5 76t-42.5 63t-62.5 42.5t-75.5 15.5t-75 -15.5t-61.5 -42.5t-41.5 -63
t-15 -76v-1147q0 -40 15 -75.5t41.5 -62.5t61.5 -42.5t75 -15.5t75.5 15.5t62.5 42.5t42.5 62.5t15.5 75.5v1147z" />
    <glyph glyph-name="j" unicode="j" horiz-adv-x="745" 
d="M623 2011q0 -51 -20 -94t-54.5 -75t-79.5 -50t-96 -18q-54 0 -100 18t-79 50t-52 75t-19 94q0 48 19 91t52 75.5t79 52t100 19.5t99.5 -19.5t79 -52t52.5 -75.5t19 -91zM565 1323q0 40 -15.5 76t-42.5 63t-62.5 42.5t-75.5 15.5t-75 -15.5t-61.5 -42.5t-41.5 -63t-15 -76
v-2023q0 -40 15 -76t41.5 -63t61.5 -42.5t75 -15.5t75.5 15.5t62.5 42.5t42.5 63t15.5 76v2023z" />
    <glyph glyph-name="k" unicode="k" horiz-adv-x="1565" 
d="M545 561v-385q0 -40 -15.5 -75.5t-42.5 -62.5t-63 -42.5t-76 -15.5t-75 15.5t-61 42.5t-41 62.5t-15 75.5v2093q0 40 15 76t41 63t61 42.5t75 15.5t76 -15.5t63 -42.5t42.5 -63t15.5 -76v-1122l438 319q32 23 67.5 35.5t71 13t68 -12.5t59.5 -40q27 -28 41.5 -64.5
t14.5 -73.5t-14.5 -71t-45.5 -57l-471 -352l553 -541q28 -28 42 -62.5t14.5 -70.5t-12.5 -71t-40 -62q-27 -28 -62 -42.5t-71.5 -15t-71 13t-61.5 40.5z" />
    <glyph glyph-name="l" unicode="l" horiz-adv-x="745" 
d="M565 176q0 -40 -15.5 -75.5t-42.5 -62.5t-62.5 -42.5t-75.5 -15.5t-75 15.5t-61.5 42.5t-41.5 62.5t-15 75.5v2097q0 40 15 76t41.5 63t61.5 42.5t75 15.5t75.5 -15.5t62.5 -42.5t42.5 -63t15.5 -76v-2097z" />
    <glyph glyph-name="m" unicode="m" horiz-adv-x="2314" 
d="M2159 176q0 -40 -16 -75.5t-43 -62.5t-62.5 -42.5t-75.5 -15.5q-42 0 -78 15.5t-62.5 42.5t-41.5 62.5t-15 75.5v729q0 67 -8.5 118t-30.5 85t-60.5 51t-97.5 17q-45 0 -84 -18t-68.5 -55t-46.5 -93t-17 -131v-707q0 -38 -15.5 -73t-42.5 -61.5t-63 -42t-76 -15.5
t-75 15.5t-61 42t-41 61.5t-15 73v700q0 82 -8.5 139.5t-30.5 94t-58.5 53.5t-91.5 17q-49 0 -91.5 -32t-74 -86.5t-49.5 -126t-18 -149.5v-610q0 -38 -15.5 -73t-42 -61.5t-61.5 -42t-74 -15.5q-40 0 -75 15.5t-61 42t-41 61.5t-15 73v1155q0 42 16 78t43.5 62.5t64.5 41.5
t78 15q34 0 64.5 -9.5t55 -28t42 -45.5t25.5 -61v-4q66 75 145 107.5t166 32.5t171.5 -42.5t156.5 -121.5q78 84 184.5 126t220.5 42q122 0 211.5 -25.5t153 -70t103.5 -105t62.5 -130.5t31 -146.5t8.5 -153.5v-713z" />
    <glyph glyph-name="n" unicode="n" horiz-adv-x="1589" 
d="M541 1356q28 34 66 64t82.5 52.5t94.5 35t101 12.5q154 0 259.5 -47.5t170.5 -132.5t94 -201t29 -252v-715q0 -38 -15.5 -73t-42.5 -61.5t-63 -42t-76 -15.5t-75 15.5t-61 42t-41 61.5t-15 73v715q0 92 -16.5 148t-45.5 86t-69 40t-87 10q-66 0 -119.5 -38.5t-91.5 -100
t-58.5 -139.5t-20.5 -156v-565q0 -38 -15.5 -73t-42 -61.5t-61.5 -42t-74 -15.5q-40 0 -75 15.5t-61 42t-41 61.5t-15 73v1159q0 40 16.5 75t44 61.5t64 41.5t76.5 15q34 0 65.5 -10.5t57 -31t42 -49.5t19.5 -66v-11z" />
    <glyph glyph-name="o" unicode="o" horiz-adv-x="1810" 
d="M1737 758q0 -112 -29.5 -213.5t-83.5 -189t-130 -158.5t-169 -121t-200 -77.5t-224 -27.5q-116 0 -222 28t-197.5 79.5t-166 123t-127 158.5t-81.5 187t-29 207t29.5 207t83 187t128.5 158.5t166.5 122.5t196.5 79t219 28q117 0 224 -27t200 -76.5t169 -119.5t130 -156.5
t83.5 -187.5t29.5 -211zM1348 754q0 90 -34.5 167.5t-95 134t-144 88.5t-181.5 32q-88 0 -165 -33t-134 -90.5t-90 -134.5t-33 -164q0 -86 33.5 -163t91.5 -134.5t134.5 -91t162.5 -33.5q98 0 181.5 32t144 88.5t95 133.5t34.5 168z" />
    <glyph glyph-name="p" unicode="p" horiz-adv-x="1798" 
d="M1331 733q0 92 -29 173t-81.5 141t-124.5 94.5t-158 34.5q-92 0 -165.5 -34.5t-125 -95t-79 -144t-27.5 -181.5q0 -91 28 -164.5t80 -125t126.5 -79.5t166.5 -28q84 0 155.5 31.5t123.5 87t81 130t29 160.5zM545 -700q0 -40 -15.5 -76t-42.5 -63t-63 -42.5t-76 -15.5
t-75 15.5t-61 42.5t-41 63t-15 76v2023q0 42 15 78.5t41.5 63.5t62.5 43t77 16q68 0 121 -40t72 -108q48 43 97 71t98.5 44.5t100 23.5t101.5 9q101 3 198.5 -21t184.5 -72t160 -118t126.5 -158.5t83 -193.5t29.5 -224q0 -107 -24.5 -205.5t-71 -184.5t-114.5 -157
t-155.5 -121t-193 -78t-227.5 -28q-102 0 -201.5 24.5t-191.5 82.5v-770z" />
    <glyph glyph-name="q" unicode="q" horiz-adv-x="1802" 
d="M475 733q0 -86 29 -160.5t81 -130t123.5 -87t155.5 -31.5q92 0 166.5 28t127 79.5t80.5 125t28 164.5q0 98 -27.5 181.5t-79 144t-125.5 95t-166 34.5q-86 0 -158 -34.5t-124.5 -94.5t-81.5 -141t-29 -173zM1262 70q-95 -57 -193 -82t-201 -25q-122 0 -227.5 28t-193 78
t-155.5 121t-114.5 157t-71 184.5t-24.5 205.5q0 119 30 224t83 193.5t126 158.5t160 118t184.5 72t198.5 21q51 -2 100.5 -9.5t99 -24t99 -44.5t99.5 -70q8 35 26.5 62.5t44 46.5t56.5 29t65 10q42 0 78 -16t62.5 -43t41.5 -63.5t15 -78.5v-2023q0 -40 -15 -76t-41.5 -63
t-61.5 -42.5t-75 -15.5t-75.5 15.5t-62.5 42.5t-42.5 63t-15.5 76v770z" />
    <glyph glyph-name="r" unicode="r" horiz-adv-x="1044" 
d="M938 1499q35 -11 63 -35.5t45 -57t21.5 -70t-6.5 -74.5q-11 -36 -34 -65t-54 -46.5t-67.5 -20.5t-74.5 13q-56 24 -99 14.5t-75 -42.5t-53.5 -83.5t-34.5 -108.5t-18.5 -117.5t-5.5 -109.5v-520q0 -40 -15.5 -75.5t-42.5 -62.5t-63 -42.5t-76 -15.5t-75 15.5t-61 42.5
t-41 62.5t-15 75.5v1147q0 42 15 78.5t41.5 63.5t62.5 43t77 16q34 0 64.5 -10.5t56 -29t44.5 -44t28 -56.5v-4q58 74 128.5 105t141.5 31q34 0 64.5 -4t58.5 -13z" />
    <glyph glyph-name="s" unicode="s" horiz-adv-x="1249" 
d="M94 303q-17 35 -18 71.5t11 70t36.5 61t60.5 43.5q35 16 71.5 17t69.5 -11t60.5 -36.5t44.5 -59.5q14 -29 32.5 -55.5t42.5 -46t54.5 -31t67.5 -11.5t69 13.5t56 37.5t37.5 56.5t13.5 69.5q0 29 -13.5 49.5t-37.5 36.5t-58 28.5t-76 24.5q-49 16 -104 38.5t-109 52
t-104 66.5t-87.5 83.5t-60 101.5t-22.5 121q0 103 41 184t109.5 137.5t157.5 86.5t184 30q126 0 220 -49t165 -131q23 -29 32 -63.5t5 -68.5t-21.5 -66t-48.5 -56q-28 -23 -60 -32t-64.5 -4.5t-63 21.5t-55.5 44q-34 37 -63 47t-51 10q-24 0 -42.5 -7.5t-31 -19.5
t-18.5 -26.5t-6 -28.5q0 -28 28.5 -49t75.5 -40.5t107 -40.5t123 -48.5t123 -64.5t107 -89t75.5 -121.5t28.5 -161.5q0 -115 -45 -211.5t-122 -166t-178.5 -108t-215.5 -38.5q-98 0 -181 25.5t-149.5 71t-117.5 108t-85 135.5z" />
    <glyph glyph-name="t" unicode="t" horiz-adv-x="1020" 
d="M819 1499q37 0 69 -13.5t56 -37.5t37.5 -56t13.5 -69t-13.5 -69t-37.5 -56t-56 -37.5t-69 -13.5h-143v-971q0 -40 -15.5 -75.5t-42.5 -62.5t-63 -42.5t-76 -15.5t-75.5 15.5t-62.5 42.5t-42.5 62.5t-15.5 75.5v971h-54q-37 0 -69 13.5t-56 37.5t-37.5 56t-13.5 69
t13.5 69t37.5 56t56 37.5t69 13.5h54v361q0 40 15.5 75.5t42.5 62.5t62.5 42.5t75.5 15.5t76 -15.5t63 -42.5t42.5 -62.5t15.5 -75.5v-361h143z" />
    <glyph glyph-name="u" unicode="u" horiz-adv-x="1593" 
d="M1049 1323q0 40 15.5 76t42 63t61.5 42.5t73 15.5q40 0 76 -15.5t63 -42.5t42.5 -63t15.5 -76v-705q0 -140 -31 -259t-105 -206t-197.5 -136.5t-309.5 -49.5q-185 0 -307.5 49.5t-196.5 137t-104.5 208t-30.5 261.5v700q0 40 15.5 76t42 63t61.5 42.5t73 15.5
q40 0 76 -15.5t63 -42.5t42.5 -63t15.5 -76v-700q0 -83 14.5 -140t44.5 -92t77.5 -51t113.5 -16q67 0 115 15.5t79 50.5t45.5 92.5t14.5 140.5v700z" />
    <glyph glyph-name="v" unicode="v" horiz-adv-x="1556" 
d="M82 1245q-17 37 -18 75.5t11 73.5t37 63.5t60 45.5t73.5 18t74 -11.5t64.5 -38t46 -62.5l307 -664l49 -131l45 136l295 659q17 37 45.5 62.5t63.5 38t73.5 11.5t75.5 -18q36 -17 61 -45.5t37 -63.5t11 -73.5t-18 -75.5l-525 -1146q-22 -48 -67 -78.5t-102 -30.5
q-55 0 -99.5 29t-66.5 76z" />
    <glyph glyph-name="w" unicode="w" horiz-adv-x="2466" 
d="M1084 1407q20 45 61 73.5t93 28.5q54 0 96 -28.5t62 -74.5l263 -615l57 -168l62 163l274 623q15 35 43 60.5t62 38.5t72 12.5t73 -17.5q34 -14 58 -41.5t36 -62t11.5 -72.5t-15.5 -74l-513 -1154q-22 -48 -66 -78.5t-101 -30.5q-55 0 -100 29t-65 76l-314 720l-302 -716
q-20 -49 -65 -79t-102 -30q-55 0 -99 29t-65 76l-522 1154q-17 37 -17.5 75.5t12.5 73t38.5 62.5t60.5 43q35 17 73 17.5t72.5 -13t63 -39.5t45.5 -63l283 -631l57 -147l49 143z" />
    <glyph glyph-name="x" unicode="x" horiz-adv-x="1573" 
d="M1430 283q24 -31 34 -66.5t6.5 -71t-21 -68t-48.5 -57.5q-31 -24 -66.5 -33.5t-71 -5t-68 22.5t-56.5 49l-361 443l-360 -447q-25 -29 -58 -46.5t-69 -21.5t-72.5 5.5t-66.5 33.5q-29 23 -46 56t-20.5 69.5t6.5 72.5t35 65l405 503l-364 435q-25 29 -35 64t-6.5 70.5
t20.5 68t46 55.5q30 24 65.5 33.5t71 5.5t68 -21.5t57.5 -46.5l319 -389l316 385q24 31 57.5 49t69.5 22.5t72 -5t67 -33.5q31 -25 48.5 -58t21 -69.5t-6.5 -72.5t-35 -67l-356 -434z" />
    <glyph glyph-name="y" unicode="y" horiz-adv-x="1733" 
d="M696 25l-606 1228q-17 34 -18 71t11.5 71.5t37 63t59.5 44.5q34 16 71 17t71 -11t62.5 -36.5t45.5 -59.5l471 -938l418 938q15 35 43.5 59.5t63 36.5t72 11t71.5 -17q35 -16 59 -44.5t36 -63t11 -71.5t-16 -71l-905 -2035q-15 -36 -42.5 -61.5t-61 -39t-71.5 -13.5
t-75 15q-35 14 -60.5 41t-39 60.5t-13.5 71.5t15 73z" />
    <glyph glyph-name="z" unicode="z" horiz-adv-x="1491" 
d="M249 0q-41 0 -77 15.5t-63 42.5t-42.5 63t-15.5 77q0 39 14 73.5t38 60.5l753 819h-602q-37 0 -68.5 13t-54.5 36t-36 54.5t-13 68.5t13 69t36 56t54.5 37.5t68.5 13.5h994q40 0 75 -15t61 -41t41 -61t15 -75q0 -38 -13.5 -71t-36.5 -59l-759 -829h647q37 0 68.5 -13.5
t54.5 -37.5t36 -56t13 -69t-13 -68.5t-36 -54.5t-54.5 -36t-68.5 -13h-1029z" />
    <glyph glyph-name="braceleft" unicode="{" horiz-adv-x="934" 
d="M762 -123q36 -3 66 -20.5t50.5 -45t30 -61.5t4.5 -69q-6 -36 -25 -65t-46 -49.5t-60.5 -30.5t-68.5 -7q-39 4 -81 13.5t-84.5 26t-83 41.5t-75.5 62q-35 36 -58 79t-36.5 94t-19 110t-5.5 127v446q0 37 -9.5 73t-31.5 70t-59 66t-92 62v237q59 31 96.5 62t58.5 63t29 65
t8 68v455q0 134 36 237.5t97 174.5t140.5 108t165.5 37q35 1 69 -9t62 -30.5t47.5 -50t25.5 -66.5q5 -35 -4 -68.5t-30 -60t-51.5 -44t-69.5 -20.5q-14 -1 -35 -6t-40.5 -16t-33.5 -30.5t-14 -49.5v-487q0 -86 -8.5 -154t-26 -122.5t-43.5 -98t-61 -80.5q35 -38 61 -83.5
t43.5 -102t26 -126t8.5 -155.5v-466q0 -31 14.5 -50.5t34.5 -30.5t42 -16t36 -6z" />
    <glyph glyph-name="bar" unicode="|" horiz-adv-x="893" 
d="M627 131q0 -37 -14.5 -69.5t-39 -57t-57.5 -39t-70 -14.5t-69 14.5t-56 39t-37.5 57t-13.5 69.5v2122q0 37 13.5 69.5t37.5 57t56 39t69 14.5t70 -14.5t57.5 -39t39 -57t14.5 -69.5v-2122z" />
    <glyph glyph-name="braceright" unicode="}" horiz-adv-x="934" 
d="M168 -123q14 1 35.5 6t42 16t35 30.5t14.5 50.5v466q0 86 8.5 155.5t25.5 126t43.5 102t61.5 83.5q-35 37 -61.5 80.5t-43.5 98t-25.5 122.5t-8.5 154v487q0 30 -14 49.5t-33.5 30.5t-40.5 16t-35 6q-39 3 -69.5 20.5t-51.5 44t-30 60t-4 68.5q6 37 25.5 66.5t47.5 50
t62 30.5t69 9q86 0 165.5 -37t140 -108t97 -174.5t36.5 -237.5v-455q0 -35 8 -68t29 -65t58.5 -63t96.5 -62v-237q-55 -30 -92 -62t-59 -66t-31.5 -70t-9.5 -73v-446q0 -68 -5.5 -127t-19 -110t-36.5 -94t-58 -79q-36 -36 -76.5 -61.5t-82.5 -42t-84 -26t-81 -13.5
q-35 -3 -68.5 7t-61 30.5t-46 49.5t-24.5 65q-5 35 4 69t29.5 61.5t51 45t66.5 20.5z" />
    <glyph glyph-name="asciitilde" unicode="~" horiz-adv-x="1876" 
d="M163 728l92 113.5t104 103.5t127.5 75t160.5 29q56 0 116 -16t119 -40.5t115 -52.5l105 -52.5t88.5 -40.5t66.5 -16q21 0 46.5 20t49.5 47.5t44 55.5t30 44q42 66 106.5 81.5t129.5 -18.5q34 -18 57.5 -48.5t34.5 -66.5t7 -73.5t-25 -69.5q-41 -59 -87 -115t-102 -115
q-110 -110 -295 -110q-58 0 -112.5 16.5t-105.5 41t-100 53t-97 53t-95.5 41t-95.5 16.5q-18 0 -43.5 -16.5t-52 -40.5t-50 -50t-38.5 -45q-24 -31 -55.5 -52.5t-67 -30t-73 -2t-72.5 31.5q-25 18 -42 47.5t-23 64t1.5 70.5t31.5 67z" />
    <glyph glyph-name="sarainarrowthai" 
d="M-307 2437q35 0 66.5 -13.5t55 -37.5t37 -56t13.5 -69q0 -35 -13.5 -66.5t-37 -55t-55 -37t-66.5 -13.5h-1204q-36 0 -67 13.5t-54.5 37t-37 55t-13.5 66.5q0 37 13.5 69t37 56t54.5 37.5t67 13.5h1204z" />
    <glyph glyph-name="saraiinarrowthai" 
d="M-1511 2089q-36 0 -67 13.5t-54.5 37t-37 55t-13.5 66.5q0 37 13.5 69t37 56t54.5 37.5t67 13.5h1007v90q0 37 14.5 69t38.5 56t56 37.5t67 13.5q36 0 67 -13.5t54.5 -37.5t37 -56t13.5 -69v-266q0 -35 -13.5 -66.5t-37 -55t-55 -37t-66.5 -13.5h-1183z" />
    <glyph glyph-name="sarauenarrowthai" 
d="M-717 2437q11 54 37.5 99t65 77.5t86.5 51t102 18.5q61 0 115.5 -23t95.5 -63t64.5 -94t23.5 -115q0 -62 -23.5 -116t-64 -95t-94 -64.5t-113.5 -23.5h-1089q-36 0 -67 13.5t-54.5 37t-37 55t-13.5 66.5q0 37 13.5 69t37 56t54.5 37.5t67 13.5h794zM-328 2384
q0 20 -8 37.5t-21.5 31t-31 21.5t-37.5 8t-37.5 -8t-31 -21.5t-21.5 -31t-8 -37.5t8 -37.5t21.5 -31t31 -21.5t37.5 -8t37.5 8t31 21.5t21.5 31t8 37.5z" />
    <glyph glyph-name="saraueenarrowthai" 
d="M-1511 2089q-36 0 -67 13.5t-54.5 37t-37 55t-13.5 66.5q0 37 13.5 69t37 56t54.5 37.5t67 13.5h532v103q0 34 13.5 63.5t36 51.5t52.5 35t62 13q34 0 63.5 -13t52 -35t35.5 -51.5t13 -63.5v-103h164v98q0 36 13.5 66.5t36.5 53t53.5 35.5t64.5 13t63.5 -13t51.5 -35.5
t35 -53t13 -66.5v-274q0 -35 -13.5 -66.5t-37 -55t-55 -37t-66.5 -13.5h-1183z" />
    <glyph glyph-name="sarauchochanthai" 
d="M-516 -778q0 -39 -14.5 -73t-39.5 -60t-58.5 -41t-71.5 -15q-39 0 -73 15t-60 41t-41 60t-15 73v221h-86q-38 0 -72.5 15t-60 40.5t-40.5 60t-15 72.5q0 39 15 73t40.5 60t60 41t72.5 15h271q38 0 72.5 -15t60 -41t40.5 -60t15 -73v-409z" />
    <glyph glyph-name="sarauuchochanthai" 
d="M-819 -614q0 -38 26 -58t60 -20t60 20t26 58v266q0 38 14.5 71.5t39.5 58.5t58.5 39.5t71.5 14.5q39 0 72.5 -14.5t58 -39.5t39 -58.5t14.5 -71.5v-258q0 -92 -34 -168.5t-93 -131t-139 -84.5t-172 -30q-90 0 -171 24.5t-143.5 69t-103 107t-49.5 139.5v123h-73
q-39 0 -73 15t-60 40.5t-41 60t-15 72.5q0 39 15 72.5t41 58.5t60 39.5t73 14.5h250q38 0 72.5 -15t60 -41t40.5 -60t15 -73v-241z" />
    <glyph glyph-name="saraileftthai" 
d="M-856 2433q35 0 66.5 -13.5t55 -37.5t37 -56t13.5 -69q0 -35 -13.5 -66.5t-37 -55t-55 -37t-66.5 -13.5h-959q-35 0 -66.5 13.5t-55 37t-37 55t-13.5 66.5q0 37 13.5 69t37 56t55 37.5t66.5 13.5h959z" />
    <glyph glyph-name="saraileftthai" unicode="&#xf701;" 
d="M-856 2433q35 0 66.5 -13.5t55 -37.5t37 -56t13.5 -69q0 -35 -13.5 -66.5t-37 -55t-55 -37t-66.5 -13.5h-959q-35 0 -66.5 13.5t-55 37t-37 55t-13.5 66.5q0 37 13.5 69t37 56t55 37.5t66.5 13.5h959z" />
    <glyph glyph-name="saraiileftthai" 
d="M-1815 2085q-35 0 -66.5 13.5t-55 37t-37 55t-13.5 66.5q0 37 13.5 69t37 56t55 37.5t66.5 13.5h758v78q0 37 13.5 69t37.5 56t56 37.5t69 13.5t69 -13.5t56 -37.5t37.5 -56t13.5 -69v-254q0 -35 -13.5 -66.5t-37 -55t-55 -37t-66.5 -13.5h-938z" />
    <glyph glyph-name="saraiileftthai" unicode="&#xf702;" 
d="M-1815 2085q-35 0 -66.5 13.5t-55 37t-37 55t-13.5 66.5q0 37 13.5 69t37 56t55 37.5t66.5 13.5h758v78q0 37 13.5 69t37.5 56t56 37.5t69 13.5t69 -13.5t56 -37.5t37.5 -56t13.5 -69v-254q0 -35 -13.5 -66.5t-37 -55t-55 -37t-66.5 -13.5h-938z" />
    <glyph glyph-name="saraueleftthai" 
d="M-1081 2380q0 -20 8 -38t21.5 -31.5t31 -21.5t37.5 -8t37.5 8t31 21.5t21.5 31.5t8 38t-8 37.5t-21.5 31t-31 21.5t-37.5 8t-37.5 -8t-31 -21.5t-21.5 -31t-8 -37.5zM-1274 2433q11 54 37.5 99t65 77.5t86.5 51t102 18.5q61 0 115.5 -23t95.5 -63t64.5 -94t23.5 -115
q0 -62 -23.5 -116t-64 -95t-94 -64.5t-113.5 -23.5h-836q-35 0 -66.5 13.5t-55 37t-37 55t-13.5 66.5q0 37 13.5 69t37 56t55 37.5t66.5 13.5h541z" />
    <glyph glyph-name="saraueleftthai" unicode="&#xf703;" 
d="M-1081 2380q0 -20 8 -38t21.5 -31.5t31 -21.5t37.5 -8t37.5 8t31 21.5t21.5 31.5t8 38t-8 37.5t-21.5 31t-31 21.5t-37.5 8t-37.5 -8t-31 -21.5t-21.5 -31t-8 -37.5zM-1274 2433q11 54 37.5 99t65 77.5t86.5 51t102 18.5q61 0 115.5 -23t95.5 -63t64.5 -94t23.5 -115
q0 -62 -23.5 -116t-64 -95t-94 -64.5t-113.5 -23.5h-836q-35 0 -66.5 13.5t-55 37t-37 55t-13.5 66.5q0 37 13.5 69t37 56t55 37.5t66.5 13.5h541z" />
    <glyph glyph-name="saraueeleftthai" 
d="M-1815 2085q-35 0 -66.5 13.5t-55 37t-37 55t-13.5 66.5q0 37 13.5 69t37 56t55 37.5t66.5 13.5h283v82q0 34 13.5 63.5t36 52t52.5 35.5t62 13q34 0 64.5 -13t53.5 -35.5t36.5 -52t13.5 -63.5v-82h164v78q0 35 13.5 66t36.5 53.5t53.5 35.5t64.5 13t63.5 -13t51.5 -35.5
t35 -53.5t13 -66v-254q0 -35 -13.5 -66.5t-37 -55t-55 -37t-66.5 -13.5h-938z" />
    <glyph glyph-name="saraueeleftthai" unicode="&#xf704;" 
d="M-1815 2085q-35 0 -66.5 13.5t-55 37t-37 55t-13.5 66.5q0 37 13.5 69t37 56t55 37.5t66.5 13.5h283v82q0 34 13.5 63.5t36 52t52.5 35.5t62 13q34 0 64.5 -13t53.5 -35.5t36.5 -52t13.5 -63.5v-82h164v78q0 35 13.5 66t36.5 53.5t53.5 35.5t64.5 13t63.5 -13t51.5 -35.5
t35 -53.5t13 -66v-254q0 -35 -13.5 -66.5t-37 -55t-55 -37t-66.5 -13.5h-938z" />
    <glyph glyph-name="maieklowleftthai" 
d="M-1167 2658q0 37 17 69t44 56t61.5 37.5t69.5 13.5t69 -13.5t60.5 -37.5t43 -56t16.5 -69v-417q0 -37 -16.5 -69.5t-43 -56.5t-60.5 -37.5t-69 -13.5t-69.5 13.5t-61.5 37.5t-44 56.5t-17 69.5v417z" />
    <glyph glyph-name="maieklowleftthai" unicode="&#xf705;" 
d="M-1167 2658q0 37 17 69t44 56t61.5 37.5t69.5 13.5t69 -13.5t60.5 -37.5t43 -56t16.5 -69v-417q0 -37 -16.5 -69.5t-43 -56.5t-60.5 -37.5t-69 -13.5t-69.5 13.5t-61.5 37.5t-44 56.5t-17 69.5v417z" />
    <glyph glyph-name="maitholowleftthai" 
d="M-1569 2474q-23 -15 -48 -19.5t-49.5 1.5t-46 21t-36.5 38t-19 47.5t2 48.5t21 45.5t37 38.5t67.5 33t116.5 16q66 0 126 -21.5t106 -61.5t73 -98t27 -130q0 -15 -0.5 -25.5t-3.5 -19.5l37 4h360q29 0 55.5 -14t46 -36.5t31 -51.5t11.5 -58t-11.5 -56t-31 -47t-46 -32
t-55.5 -12h-843q34 77 72 149l67 129q12 24 16.5 45.5t0 38t-19 26t-38.5 9.5q-6 0 -12.5 -2.5t-12.5 -5.5z" />
    <glyph glyph-name="maitholowleftthai" unicode="&#xf706;" 
d="M-1569 2474q-23 -15 -48 -19.5t-49.5 1.5t-46 21t-36.5 38t-19 47.5t2 48.5t21 45.5t37 38.5t67.5 33t116.5 16q66 0 126 -21.5t106 -61.5t73 -98t27 -130q0 -15 -0.5 -25.5t-3.5 -19.5l37 4h360q29 0 55.5 -14t46 -36.5t31 -51.5t11.5 -58t-11.5 -56t-31 -47t-46 -32
t-55.5 -12h-843q34 77 72 149l67 129q12 24 16.5 45.5t0 38t-19 26t-38.5 9.5q-6 0 -12.5 -2.5t-12.5 -5.5z" />
    <glyph glyph-name="maitrilowleftthai" 
d="M-1765 2109q-29 20 -57 46t-50 58.5t-35.5 73t-13.5 89.5q0 78 29.5 143t79.5 111.5t117.5 72t142.5 25.5q46 0 96 -20t96 -57q47 37 97 57t100 20q72 0 135.5 -24t112 -68t78 -105t34.5 -135h17q32 0 60.5 -12t49.5 -33t33 -49.5t12 -60.5q0 -33 -12 -61.5t-33 -49.5
t-49.5 -33t-60.5 -12h-496l39.5 59l44.5 68.5t41.5 70.5t30.5 64q9 29 3 50.5t-21 33.5t-34.5 13.5t-36.5 -8.5t-27.5 -33t-6.5 -60h-217q8 45 -10.5 71.5t-44.5 33t-49 -9t-23 -54.5q0 -28 10.5 -43t13.5 -19q22 -21 33.5 -47.5t13 -53.5t-8 -54t-30.5 -49q-20 -21 -45 -32
t-52 -12t-55 8t-52 27z" />
    <glyph glyph-name="maitrilowleftthai" unicode="&#xf707;" 
d="M-1765 2109q-29 20 -57 46t-50 58.5t-35.5 73t-13.5 89.5q0 78 29.5 143t79.5 111.5t117.5 72t142.5 25.5q46 0 96 -20t96 -57q47 37 97 57t100 20q72 0 135.5 -24t112 -68t78 -105t34.5 -135h17q32 0 60.5 -12t49.5 -33t33 -49.5t12 -60.5q0 -33 -12 -61.5t-33 -49.5
t-49.5 -33t-60.5 -12h-496l39.5 59l44.5 68.5t41.5 70.5t30.5 64q9 29 3 50.5t-21 33.5t-34.5 13.5t-36.5 -8.5t-27.5 -33t-6.5 -60h-217q8 45 -10.5 71.5t-44.5 33t-49 -9t-23 -54.5q0 -28 10.5 -43t13.5 -19q22 -21 33.5 -47.5t13 -53.5t-8 -54t-30.5 -49q-20 -21 -45 -32
t-52 -12t-55 8t-52 27z" />
    <glyph glyph-name="maichattawalowleftthai" 
d="M-922 2335v-86q0 -39 -14.5 -72.5t-39.5 -58.5t-58.5 -39.5t-71.5 -14.5t-71.5 14.5t-58.5 39.5t-39.5 58.5t-14.5 72.5v86h-111q-35 0 -66.5 13t-55 35.5t-37 53t-13.5 66.5q0 35 13.5 66.5t37 55t55 37t66.5 13.5h111v90q0 38 14.5 71.5t39.5 58.5t58.5 39.5t71.5 14.5
t71.5 -14.5t58.5 -39.5t39.5 -58.5t14.5 -71.5v-90h115q35 0 66.5 -13.5t55 -37t37 -55t13.5 -66.5q0 -36 -13.5 -66.5t-37 -53t-55 -35.5t-66.5 -13h-115z" />
    <glyph glyph-name="maichattawalowleftthai" unicode="&#xf708;" 
d="M-922 2335v-86q0 -39 -14.5 -72.5t-39.5 -58.5t-58.5 -39.5t-71.5 -14.5t-71.5 14.5t-58.5 39.5t-39.5 58.5t-14.5 72.5v86h-111q-35 0 -66.5 13t-55 35.5t-37 53t-13.5 66.5q0 35 13.5 66.5t37 55t55 37t66.5 13.5h111v90q0 38 14.5 71.5t39.5 58.5t58.5 39.5t71.5 14.5
t71.5 -14.5t58.5 -39.5t39.5 -58.5t14.5 -71.5v-90h115q35 0 66.5 -13.5t55 -37t37 -55t13.5 -66.5q0 -36 -13.5 -66.5t-37 -53t-55 -35.5t-66.5 -13h-115z" />
    <glyph glyph-name="thanthakhatlowleftthai" 
d="M-1282 2019q-37 37 -67.5 76.5t-53 81t-35 83t-12.5 83.5q0 72 26 130t71.5 99.5t108 63.5t134.5 22h299q31 0 59 -11.5t49.5 -31.5t34.5 -46.5t13 -57.5t-13 -57t-34.5 -45.5t-49.5 -30.5t-59 -11h-262q-21 0 -35 -7t-18.5 -19.5t2 -30t26.5 -37.5l41 -41
q26 -24 37.5 -52t10.5 -56t-13.5 -55t-34.5 -50q-23 -23 -53.5 -33.5t-62 -9.5t-60.5 12t-49 31z" />
    <glyph glyph-name="thanthakhatlowleftthai" unicode="&#xf709;" 
d="M-1282 2019q-37 37 -67.5 76.5t-53 81t-35 83t-12.5 83.5q0 72 26 130t71.5 99.5t108 63.5t134.5 22h299q31 0 59 -11.5t49.5 -31.5t34.5 -46.5t13 -57.5t-13 -57t-34.5 -45.5t-49.5 -30.5t-59 -11h-262q-21 0 -35 -7t-18.5 -19.5t2 -30t26.5 -37.5l41 -41
q26 -24 37.5 -52t10.5 -56t-13.5 -55t-34.5 -50q-23 -23 -53.5 -33.5t-62 -9.5t-60.5 12t-49 31z" />
    <glyph glyph-name="maieklowrightthai" 
d="M-541 2658q0 37 17 69t44.5 56t62 37.5t69.5 13.5t69 -13.5t60.5 -37.5t42.5 -56t16 -69v-417q0 -37 -16 -69.5t-42.5 -56.5t-60.5 -37.5t-69 -13.5t-69.5 13.5t-62 37.5t-44.5 56.5t-17 69.5v417z" />
    <glyph glyph-name="maieklowrightthai" unicode="&#xf70a;" 
d="M-541 2658q0 37 17 69t44.5 56t62 37.5t69.5 13.5t69 -13.5t60.5 -37.5t42.5 -56t16 -69v-417q0 -37 -16 -69.5t-42.5 -56.5t-60.5 -37.5t-69 -13.5t-69.5 13.5t-62 37.5t-44.5 56.5t-17 69.5v417z" />
    <glyph glyph-name="maitholowrightthai" 
d="M-1049 2474q-23 -15 -48 -19.5t-49.5 1.5t-46 21t-36.5 38t-18.5 47.5t2.5 48.5t21 45.5t36 38.5q22 16 67.5 32.5t116.5 16.5q66 0 126.5 -21.5t106 -61.5t72.5 -98t27 -130q0 -15 -0.5 -25.5t-3.5 -19.5l37 4h360q29 0 55.5 -14t46 -36.5t31 -51.5t11.5 -58t-11.5 -56
t-31 -47t-46 -32t-55.5 -12h-851l79 149l68 129q12 24 16.5 45.5t0 38t-18.5 26t-39 9.5q-6 0 -12 -2.5z" />
    <glyph glyph-name="maitholowrightthai" unicode="&#xf70b;" 
d="M-1049 2474q-23 -15 -48 -19.5t-49.5 1.5t-46 21t-36.5 38t-18.5 47.5t2.5 48.5t21 45.5t36 38.5q22 16 67.5 32.5t116.5 16.5q66 0 126.5 -21.5t106 -61.5t72.5 -98t27 -130q0 -15 -0.5 -25.5t-3.5 -19.5l37 4h360q29 0 55.5 -14t46 -36.5t31 -51.5t11.5 -58t-11.5 -56
t-31 -47t-46 -32t-55.5 -12h-851l79 149l68 129q12 24 16.5 45.5t0 38t-18.5 26t-39 9.5q-6 0 -12 -2.5z" />
    <glyph glyph-name="maitrilowrightthai" 
d="M-1294 2109q-29 21 -57 47t-50 58.5t-35.5 72.5t-13.5 89q0 78 29.5 143t79.5 111.5t117.5 72t142.5 25.5q46 0 96 -16.5t96 -53.5q47 37 97 53.5t100 16.5q72 0 137 -24t114.5 -68t79 -105t29.5 -135v-20h197q32 0 60.5 -11t49.5 -30.5t33 -47t12 -59.5t-12 -58.5
t-33 -45.5t-49.5 -29t-60.5 -10h-676l39.5 59l44.5 68.5t41.5 70.5t30.5 64q6 18 4.5 36t-9 31.5t-20 22t-29.5 8.5q-12 0 -24.5 -5t-22 -17t-16 -31.5t-6.5 -48.5h-217q-6 106 -76 106q-25 0 -43 -15.5t-18 -49.5q0 -14 4 -25t9 -19t9.5 -13t6.5 -7q22 -21 34.5 -47
t14.5 -53t-6.5 -53.5t-29.5 -48.5q-20 -21 -45 -32t-52 -11.5t-54.5 8t-52.5 26.5z" />
    <glyph glyph-name="maitrilowrightthai" unicode="&#xf70c;" 
d="M-1294 2109q-29 21 -57 47t-50 58.5t-35.5 72.5t-13.5 89q0 78 29.5 143t79.5 111.5t117.5 72t142.5 25.5q46 0 96 -16.5t96 -53.5q47 37 97 53.5t100 16.5q72 0 137 -24t114.5 -68t79 -105t29.5 -135v-20h197q32 0 60.5 -11t49.5 -30.5t33 -47t12 -59.5t-12 -58.5
t-33 -45.5t-49.5 -29t-60.5 -10h-676l39.5 59l44.5 68.5t41.5 70.5t30.5 64q6 18 4.5 36t-9 31.5t-20 22t-29.5 8.5q-12 0 -24.5 -5t-22 -17t-16 -31.5t-6.5 -48.5h-217q-6 106 -76 106q-25 0 -43 -15.5t-18 -49.5q0 -14 4 -25t9 -19t9.5 -13t6.5 -7q22 -21 34.5 -47
t14.5 -53t-6.5 -53.5t-29.5 -48.5q-20 -21 -45 -32t-52 -11.5t-54.5 8t-52.5 26.5z" />
    <glyph glyph-name="maichattawalowrightthai" 
d="M-156 2335v-86q0 -39 -14.5 -72.5t-39.5 -58.5t-58.5 -39.5t-71.5 -14.5t-71.5 14.5t-58.5 39.5t-39.5 58.5t-14.5 72.5v86h-111q-35 0 -66.5 13t-55 35.5t-37 53t-13.5 66.5q0 35 13.5 66.5t37 55t55 37t66.5 13.5h111v90q0 38 14.5 71.5t39.5 58.5t58.5 39.5t71.5 14.5
t71.5 -14.5t58.5 -39.5t39.5 -58.5t14.5 -71.5v-90h115q35 0 66.5 -13.5t55 -37t37 -55t13.5 -66.5q0 -36 -13.5 -66.5t-37 -53t-55 -35.5t-66.5 -13h-115z" />
    <glyph glyph-name="maichattawalowrightthai" unicode="&#xf70d;" 
d="M-156 2335v-86q0 -39 -14.5 -72.5t-39.5 -58.5t-58.5 -39.5t-71.5 -14.5t-71.5 14.5t-58.5 39.5t-39.5 58.5t-14.5 72.5v86h-111q-35 0 -66.5 13t-55 35.5t-37 53t-13.5 66.5q0 35 13.5 66.5t37 55t55 37t66.5 13.5h111v90q0 38 14.5 71.5t39.5 58.5t58.5 39.5t71.5 14.5
t71.5 -14.5t58.5 -39.5t39.5 -58.5t14.5 -71.5v-90h115q35 0 66.5 -13.5t55 -37t37 -55t13.5 -66.5q0 -36 -13.5 -66.5t-37 -53t-55 -35.5t-66.5 -13h-115z" />
    <glyph glyph-name="thanthakhatlowrightthai" 
d="M-672 2052q-37 37 -67.5 76.5t-53 80.5t-35 83t-12.5 84q0 72 26 130t72 99.5t108 63.5t134 22h299q31 0 59 -11.5t49.5 -31.5t34.5 -46.5t13 -57.5t-13 -57t-34.5 -45.5t-49.5 -30.5t-59 -11h-262q-21 0 -35 -7t-18.5 -20t2.5 -30t27 -37l41 -41q21 -21 32 -48.5t11 -56
t-11 -57t-32 -51.5q-23 -23 -54 -33.5t-62.5 -9.5t-60.5 12t-49 31z" />
    <glyph glyph-name="thanthakhatlowrightthai" unicode="&#xf70e;" 
d="M-672 2052q-37 37 -67.5 76.5t-53 80.5t-35 83t-12.5 84q0 72 26 130t72 99.5t108 63.5t134 22h299q31 0 59 -11.5t49.5 -31.5t34.5 -46.5t13 -57.5t-13 -57t-34.5 -45.5t-49.5 -30.5t-59 -11h-262q-21 0 -35 -7t-18.5 -20t2.5 -30t27 -37l41 -41q21 -21 32 -48.5t11 -56
t-11 -57t-32 -51.5q-23 -23 -54 -33.5t-62.5 -9.5t-60.5 12t-49 31z" />
    <glyph glyph-name="maihanakatleftthai" 
d="M-90 2437q36 0 67 -13.5t54.5 -37.5t37 -56t13.5 -69t-13.5 -68.5t-37 -54.5t-54.5 -36t-67 -13h-828q-80 0 -142.5 25.5t-105 70.5t-65 107t-22.5 135v88q0 35 13.5 66.5t37 55t55 37t66.5 13.5t66.5 -13.5t55 -37t37 -55t13.5 -66.5q0 -42 10 -60t45 -18h764z" />
    <glyph glyph-name="maihanakatleftthai" unicode="&#xf710;" 
d="M-90 2437q36 0 67 -13.5t54.5 -37.5t37 -56t13.5 -69t-13.5 -68.5t-37 -54.5t-54.5 -36t-67 -13h-828q-80 0 -142.5 25.5t-105 70.5t-65 107t-22.5 135v88q0 35 13.5 66.5t37 55t55 37t66.5 13.5t66.5 -13.5t55 -37t37 -55t13.5 -66.5q0 -42 10 -60t45 -18h764z" />
    <glyph glyph-name="nikhahitleftthai" 
d="M-700 2425q0 -75 -29 -141.5t-78.5 -116t-116 -78.5t-141.5 -29t-141.5 29t-116 78.5t-78.5 116t-29 141.5t29 141.5t78.5 116t116 78t141.5 28.5t141.5 -28.5t116 -78t78.5 -116t29 -141.5zM-958 2421q0 23 -8 43t-22.5 35t-34 23.5t-42.5 8.5t-42.5 -8.5t-33.5 -23.5
t-22 -35t-8 -43q0 -47 30 -77t76 -30t76.5 30t30.5 77z" />
    <glyph glyph-name="nikhahitleftthai" unicode="&#xf711;" 
d="M-700 2425q0 -75 -29 -141.5t-78.5 -116t-116 -78.5t-141.5 -29t-141.5 29t-116 78.5t-78.5 116t-29 141.5t29 141.5t78.5 116t116 78t141.5 28.5t141.5 -28.5t116 -78t78.5 -116t29 -141.5zM-958 2421q0 23 -8 43t-22.5 35t-34 23.5t-42.5 8.5t-42.5 -8.5t-33.5 -23.5
t-22 -35t-8 -43q0 -47 30 -77t76 -30t76.5 30t30.5 77z" />
    <glyph glyph-name="maitaikhuleftthai" 
d="M-1496 2458q14 55 58.5 82.5t100.5 27.5q27 0 52 -6t45.5 -19t35 -33.5t20.5 -49.5q13 -67 84 -67q26 0 48 17t31 52q9 32 28.5 56.5t46 39.5t57.5 19.5t61 -4.5q31 -9 55 -28.5t39 -45.5t19.5 -56.5t-1.5 -61.5q-14 -65 -50 -119.5t-87 -94t-113.5 -61.5t-128.5 -22
q-72 0 -127.5 22.5t-111.5 65.5q-54 -43 -114.5 -65.5t-128.5 -22.5q-92 0 -170 33t-134 93t-87.5 144.5t-31.5 188.5q0 103 29.5 191t84 152.5t133 101.5t176.5 37h821q33 0 62 -12.5t50 -33.5t33.5 -50t12.5 -62t-12.5 -62t-33.5 -50.5t-50 -33.5t-62 -12h-821
q-24 0 -42 -15t-30 -39t-18 -53.5t-6 -58.5q0 -30 6.5 -57t19 -47t30.5 -31.5t41 -11.5q35 0 53.5 14.5t26.5 47.5z" />
    <glyph glyph-name="maitaikhuleftthai" unicode="&#xf712;" 
d="M-1496 2458q14 55 58.5 82.5t100.5 27.5q27 0 52 -6t45.5 -19t35 -33.5t20.5 -49.5q13 -67 84 -67q26 0 48 17t31 52q9 32 28.5 56.5t46 39.5t57.5 19.5t61 -4.5q31 -9 55 -28.5t39 -45.5t19.5 -56.5t-1.5 -61.5q-14 -65 -50 -119.5t-87 -94t-113.5 -61.5t-128.5 -22
q-72 0 -127.5 22.5t-111.5 65.5q-54 -43 -114.5 -65.5t-128.5 -22.5q-92 0 -170 33t-134 93t-87.5 144.5t-31.5 188.5q0 103 29.5 191t84 152.5t133 101.5t176.5 37h821q33 0 62 -12.5t50 -33.5t33.5 -50t12.5 -62t-12.5 -62t-33.5 -50.5t-50 -33.5t-62 -12h-821
q-24 0 -42 -15t-30 -39t-18 -53.5t-6 -58.5q0 -30 6.5 -57t19 -47t30.5 -31.5t41 -11.5q35 0 53.5 14.5t26.5 47.5z" />
    <glyph glyph-name="maiekupperleftthai" 
d="M-1057 3322q0 37 14.5 69t38.5 56t56 37.5t67 13.5q36 0 67 -13.5t54.5 -37.5t37 -56t13.5 -69v-287q0 -37 -13.5 -69t-37 -56t-54.5 -37.5t-67 -13.5q-35 0 -67 13.5t-56 37.5t-38.5 56t-14.5 69v287z" />
    <glyph glyph-name="maiekupperleftthai" unicode="&#xf713;" 
d="M-1057 3322q0 37 14.5 69t38.5 56t56 37.5t67 13.5q36 0 67 -13.5t54.5 -37.5t37 -56t13.5 -69v-287q0 -37 -13.5 -69t-37 -56t-54.5 -37.5t-67 -13.5q-35 0 -67 13.5t-56 37.5t-38.5 56t-14.5 69v287z" />
    <glyph glyph-name="maithoupperleftthai" 
d="M-1118 3248q-23 -15 -48.5 -19.5t-49.5 1.5t-45.5 21t-36.5 38t-19 48t2 48.5t21 45t37 38.5q21 16 67 32.5t117 16.5q66 0 126 -21.5t106 -61.5t73 -98t27 -130q0 -15 -0.5 -25.5t-3.5 -19.5l36 4h430q29 0 55.5 -11.5t46 -31t31 -45.5t11.5 -55t-11.5 -55.5t-31 -46
t-46 -31t-55.5 -11.5h-913l35.5 62.5l36.5 68l35.5 67.5l31.5 61q12 24 16.5 45.5t0.5 38t-17.5 26.5t-38.5 10q-6 0 -13 -3.5z" />
    <glyph glyph-name="maithoupperleftthai" unicode="&#xf714;" 
d="M-1118 3248q-23 -15 -48.5 -19.5t-49.5 1.5t-45.5 21t-36.5 38t-19 48t2 48.5t21 45t37 38.5q21 16 67 32.5t117 16.5q66 0 126 -21.5t106 -61.5t73 -98t27 -130q0 -15 -0.5 -25.5t-3.5 -19.5l36 4h430q29 0 55.5 -11.5t46 -31t31 -45.5t11.5 -55t-11.5 -55.5t-31 -46
t-46 -31t-55.5 -11.5h-913l35.5 62.5l36.5 68l35.5 67.5l31.5 61q12 24 16.5 45.5t0.5 38t-17.5 26.5t-38.5 10q-6 0 -13 -3.5z" />
    <glyph glyph-name="maitriupperleftthai" 
d="M-1061 3101q18 -18 28.5 -44.5t12 -53.5t-6.5 -52.5t-26 -42.5q-20 -23 -44 -33.5t-48.5 -11t-49.5 8.5t-46 24q-71 49 -109.5 116.5t-38.5 141.5t28 135.5t75.5 106t111 69.5t134.5 25q46 0 99 -21t97 -64q20 20 44.5 36t50.5 27t52.5 16.5t49.5 5.5q66 0 126 -23.5
t106.5 -67.5t75.5 -106t32 -139l33 4h151q29 0 54.5 -11t44 -29.5t29.5 -44t11 -54.5t-11 -54.5t-29.5 -44.5t-44 -30t-54.5 -11h-627q40 54 76.5 113.5t63.5 128.5q8 25 4.5 44.5t-14 33t-26 20.5t-31.5 7q-15 0 -30 -6.5t-26.5 -19.5t-17 -34t-1.5 -49h-191q4 28 -0.5 50
t-15 36.5t-25.5 22t-31 6.5q-24 -1 -46 -19t-26 -55q-2 -15 7.5 -31.5t18.5 -25.5z" />
    <glyph glyph-name="maitriupperleftthai" unicode="&#xf715;" 
d="M-1061 3101q18 -18 28.5 -44.5t12 -53.5t-6.5 -52.5t-26 -42.5q-20 -23 -44 -33.5t-48.5 -11t-49.5 8.5t-46 24q-71 49 -109.5 116.5t-38.5 141.5t28 135.5t75.5 106t111 69.5t134.5 25q46 0 99 -21t97 -64q20 20 44.5 36t50.5 27t52.5 16.5t49.5 5.5q66 0 126 -23.5
t106.5 -67.5t75.5 -106t32 -139l33 4h151q29 0 54.5 -11t44 -29.5t29.5 -44t11 -54.5t-11 -54.5t-29.5 -44.5t-44 -30t-54.5 -11h-627q40 54 76.5 113.5t63.5 128.5q8 25 4.5 44.5t-14 33t-26 20.5t-31.5 7q-15 0 -30 -6.5t-26.5 -19.5t-17 -34t-1.5 -49h-191q4 28 -0.5 50
t-15 36.5t-25.5 22t-31 6.5q-24 -1 -46 -19t-26 -55q-2 -15 7.5 -31.5t18.5 -25.5z" />
    <glyph glyph-name="maichattawaupperleftthai" 
d="M-1057 3412v66q0 37 13.5 69t37.5 56t56 37.5t69 13.5t69 -13.5t56 -37.5t37.5 -56t13.5 -69v-66h91q32 0 60.5 -11.5t49.5 -32.5t33 -49.5t12 -62.5t-12 -62.5t-33 -49t-49.5 -32t-60.5 -11.5h-91v-62q0 -37 -13.5 -69t-37.5 -56t-56 -37.5t-69 -13.5t-69 13.5t-56 37.5
t-37.5 56t-13.5 69v62h-90q-32 0 -60.5 11.5t-49.5 32t-33.5 49t-12.5 62.5t12.5 62.5t33.5 49.5t49.5 32.5t60.5 11.5h90z" />
    <glyph glyph-name="maichattawaupperleftthai" unicode="&#xf716;" 
d="M-1057 3412v66q0 37 13.5 69t37.5 56t56 37.5t69 13.5t69 -13.5t56 -37.5t37.5 -56t13.5 -69v-66h91q32 0 60.5 -11.5t49.5 -32.5t33 -49.5t12 -62.5t-12 -62.5t-33 -49t-49.5 -32t-60.5 -11.5h-91v-62q0 -37 -13.5 -69t-37.5 -56t-56 -37.5t-69 -13.5t-69 13.5t-56 37.5
t-37.5 56t-13.5 69v62h-90q-32 0 -60.5 11.5t-49.5 32t-33.5 49t-12.5 62.5t12.5 62.5t33.5 49.5t49.5 32.5t60.5 11.5h90z" />
    <glyph glyph-name="thanthakhatupperleftthai" 
d="M-1126 2662q-75 75 -113.5 154.5t-38.5 169.5q0 75 25 135t70 102t107.5 64.5t137.5 22.5h258q34 0 63.5 -13t52 -35.5t35.5 -52t13 -63.5t-13 -63.5t-35.5 -52t-52 -35.5t-63.5 -13h-233q-14 0 -24 -4.5t-14.5 -11.5t-1.5 -17t15 -20l37 -33q24 -25 36.5 -55.5t13 -62
t-11 -61.5t-34.5 -55q-23 -23 -52.5 -34.5t-60.5 -11.5t-61.5 11.5t-54.5 34.5z" />
    <glyph glyph-name="thanthakhatupperleftthai" unicode="&#xf717;" 
d="M-1126 2662q-75 75 -113.5 154.5t-38.5 169.5q0 75 25 135t70 102t107.5 64.5t137.5 22.5h258q34 0 63.5 -13t52 -35.5t35.5 -52t13 -63.5t-13 -63.5t-35.5 -52t-52 -35.5t-63.5 -13h-233q-14 0 -24 -4.5t-14.5 -11.5t-1.5 -17t15 -20l37 -33q24 -25 36.5 -55.5t13 -62
t-11 -61.5t-34.5 -55q-23 -23 -52.5 -34.5t-60.5 -11.5t-61.5 11.5t-54.5 34.5z" />
    <glyph glyph-name="maiekupperleftthai.alt1" 
d="M-1197 3322q0 37 14.5 69t38.5 56t56 37.5t67 13.5q36 0 67 -13.5t54.5 -37.5t37 -56t13.5 -69v-287q0 -37 -13.5 -69t-37 -56t-54.5 -37.5t-67 -13.5q-35 0 -67 13.5t-56 37.5t-38.5 56t-14.5 69v287z" />
    <glyph glyph-name="maichattawaupperleftthai.alt1" 
d="M-1197 3412v66q0 37 13.5 69t37.5 56t56 37.5t69 13.5t69 -13.5t56 -37.5t37.5 -56t13.5 -69v-66h91q32 0 60.5 -11.5t49.5 -32.5t33 -49.5t12 -62.5t-12 -62.5t-33 -49t-49.5 -32t-60.5 -11.5h-91v-62q0 -37 -13.5 -69t-37.5 -56t-56 -37.5t-69 -13.5t-69 13.5t-56 37.5
t-37.5 56t-13.5 69v62h-90q-32 0 -60.5 11.5t-49.5 32t-33.5 49t-12.5 62.5t12.5 62.5t33.5 49.5t49.5 32.5t60.5 11.5h90z" />
    <glyph glyph-name="maithothai.alt2" 
d="M-828 3248q-23 -15 -48.5 -19.5t-49.5 1.5t-45.5 21t-36.5 38t-19 48t2 48.5t21 45t37 38.5q21 16 67 32.5t117 16.5q66 0 126 -21.5t106 -61.5t73 -98t27 -130q0 -15 -0.5 -25.5t-3.5 -19.5l37 4h495q29 0 55 -11.5t45.5 -31t31 -45.5t11.5 -55t-11.5 -55.5t-31 -46
t-45.5 -31t-55 -11.5h-979l35.5 62.5l36.5 68l35.5 67.5l31.5 61q12 24 16.5 45.5t0 37.5t-18.5 25.5t-39 9.5q-6 0 -12 -2.5t-12 -5.5z" />
    <glyph glyph-name="maitrithai.alt2" 
d="M-599 3101q18 -18 28.5 -44t11.5 -53t-6.5 -52.5t-25.5 -43.5q-21 -22 -45 -32t-49 -11t-49 7.5t-45 23.5q-71 49 -109.5 116.5t-38.5 141.5t28 135.5t75.5 106t111 69.5t134.5 25q46 0 96.5 -19t99.5 -59q47 40 98.5 59t98.5 19q66 0 126 -23.5t106.5 -67.5t75.5 -106
t32 -139l33 4h151q29 0 54.5 -11t44 -29.5t29.5 -44t11 -54.5t-11 -54.5t-29.5 -44.5t-44 -30t-54.5 -11h-627q40 54 75.5 113.5t64.5 128.5q6 13 6.5 31.5t-5.5 35.5t-20 28.5t-39 11.5q-40 0 -57 -24.5t-20 -86.5h-197q-2 15 -6.5 34t-14 35t-24 27t-34.5 11
q-31 0 -48.5 -17t-17.5 -49q0 -15 8.5 -31.5t17.5 -25.5z" />
    </font>
</defs>
</svg>
