<?xml version="1.0" standalone="no"?>
<!DOCTYPE svg PUBLIC "-//W3C//DTD SVG 1.1//EN" "http://www.w3.org/Graphics/SVG/1.1/DTD/svg11.dtd" >
<svg xmlns="http://www.w3.org/2000/svg" xmlns:xlink="http://www.w3.org/1999/xlink" version="1.1">
<metadata>
Created by FontForge 20160405 at Fri Feb  3 02:27:09 2017
 By www-data
Copyright (c) 2013 by Aviation Partners. All rights reserved.
</metadata>
<defs>
<font id="Alleyn-Medium" horiz-adv-x="631" >
  <font-face 
    font-family="Alleyn Light"
    font-weight="500"
    font-stretch="normal"
    units-per-em="1000"
    panose-1="2 0 0 0 0 0 0 0 0 0"
    ascent="800"
    descent="-200"
    x-height="525"
    cap-height="715"
    bbox="-121.035 -210 1187 966"
    underline-thickness="50"
    underline-position="-100"
    stemh="80"
    stemv="86"
    unicode-range="U+0020-FB02"
  />
<missing-glyph horiz-adv-x="516" 
d="M71 715h373v-715h-373v715zM115 670v-626h285v626h-285z" />
    <glyph glyph-name=".notdef" horiz-adv-x="516" 
d="M71 715h373v-715h-373v715zM115 670v-626h285v626h-285z" />
    <glyph glyph-name="b" unicode="b" horiz-adv-x="639" 
d="M333 86c83 0 139 63 139 176c0 109 -55 177 -136 177c-71 0 -137 -71 -137 -196v-107c25 -21 62 -50 134 -50zM585 265c0 -169 -102 -277 -234 -277c-75 0 -127 29 -164 59v-19c0 -16 -12 -28 -28 -28h-42c-16 0 -29 12 -29 28v690c0 16 13 29 29 29h53
c16 0 29 -13 29 -30v-197c0 -14 -4 -56 -4 -62h12c30 51 89 79 150 79c118 0 228 -94 228 -272z" />
    <glyph glyph-name="c" unicode="c" horiz-adv-x="544" 
d="M477 140c13 -16 36 -38 36 -55c0 -8 -3 -15 -8 -20c-55 -49 -118 -77 -195 -77c-155 0 -257 98 -257 275s102 274 257 274c77 0 140 -28 194 -77c6 -6 9 -14 9 -22c0 -7 -2 -14 -7 -19l-29 -34c-6 -6 -13 -8 -21 -8c-7 0 -15 2 -20 5c-38 32 -80 56 -126 56
c-84 0 -145 -61 -145 -175s59 -176 145 -176c46 0 88 23 126 55c5 4 12 6 19 6c8 0 16 -3 22 -8z" />
    <glyph glyph-name="d" unicode="d" horiz-adv-x="639" 
d="M316 439c-83 0 -150 -64 -150 -177c0 -108 48 -175 131 -175c70 0 143 70 143 195v117c-26 19 -53 40 -124 40zM279 -12c-118 0 -225 88 -225 267c0 172 112 282 246 282c74 0 108 -16 140 -34v215c0 16 12 29 28 29h54c16 0 28 -13 28 -29v-690c0 -16 -12 -28 -28 -28
h-51c-16 0 -28 12 -28 28v38l-11 1c-30 -48 -95 -79 -153 -79z" />
    <glyph glyph-name="e" unicode="e" horiz-adv-x="606" 
d="M309 446c-69 0 -128 -48 -141 -136h268c0 89 -62 136 -127 136zM519 232h-354c1 -85 75 -151 153 -151c52 0 111 14 150 34c4 2 7 2 11 2c23 0 40 -36 40 -55c0 -45 -121 -74 -199 -74c-163 0 -267 98 -267 271s104 278 258 278c137 0 237 -85 237 -276
c0 -16 -14 -29 -29 -29z" />
    <glyph glyph-name="f" unicode="f" horiz-adv-x="377" 
d="M410 734c13 -6 21 -21 18 -35c-2 -5 -10 -30 -10 -35c-5 -14 -19 -24 -33 -20c-18 5 -53 11 -86 11c-50 0 -81 -22 -81 -80v-50h135c15 0 28 -12 28 -28v-30c0 -16 -13 -28 -28 -28h-135v-411c0 -15 -12 -28 -28 -28h-53c-16 0 -29 13 -29 28v411h-55
c-16 0 -28 12 -28 28v30c0 16 12 28 28 28h55v40c0 114 67 187 193 187c50 0 82 -10 109 -18z" />
    <glyph glyph-name="g" unicode="g" horiz-adv-x="634" 
d="M301 439c-83 0 -135 -59 -135 -164c0 -100 53 -160 133 -160c68 0 135 53 135 166v101c-28 28 -69 57 -133 57zM146 -94c32 -8 88 -18 145 -18c74 0 143 53 143 124v20c0 16 3 53 3 58l-10 3c-28 -47 -87 -78 -145 -78c-123 0 -229 95 -229 258c0 156 101 264 232 264
c70 0 121 -28 160 -61v21c0 15 13 28 29 28h42c16 0 29 -13 29 -28v-469c0 -140 -91 -238 -263 -238c-70 0 -119 13 -162 26c-12 4 -19 15 -19 27c0 4 0 9 2 13l9 32c3 12 15 19 27 19c2 0 5 -1 7 -1z" />
    <glyph glyph-name="h" unicode="h" horiz-adv-x="616" 
d="M345 537c120 0 184 -76 184 -208v-301c0 -16 -12 -28 -28 -28h-54c-16 0 -29 12 -29 28v287c0 77 -29 121 -96 121c-69 0 -123 -51 -123 -109v-299c0 -16 -12 -28 -28 -28h-54c-16 0 -29 12 -29 28v685c0 16 13 29 29 29h54c16 0 28 -13 28 -29v-193c0 -19 -2 -45 -3 -51
c3 -2 7 -3 9 -5c28 44 84 73 140 73z" />
    <glyph glyph-name="i" unicode="i" horiz-adv-x="288" 
d="M199 28c0 -16 -12 -28 -28 -28h-54c-17 0 -29 12 -29 28v469c0 15 12 28 29 28h54c16 0 28 -13 28 -28v-469zM210 688c0 -36 -31 -64 -67 -64c-34 0 -65 28 -65 64c0 35 31 64 65 64c36 0 67 -29 67 -64z" />
    <glyph glyph-name="j" unicode="j" horiz-adv-x="288" 
d="M144 752c36 0 66 -28 66 -63c0 -36 -30 -64 -66 -64c-35 0 -65 28 -65 64c0 35 30 63 65 63zM6 -210c-49 0 -82 10 -109 18c-13 5 -21 21 -17 35c1 5 8 30 9 35c4 14 20 23 33 20c18 -4 53 -10 86 -10c50 0 81 22 81 80v529c0 16 13 28 28 28h54c15 0 28 -12 28 -28v-520
c0 -114 -67 -187 -193 -187z" />
    <glyph glyph-name="k" unicode="k" horiz-adv-x="548" 
d="M523 40c4 -5 6 -11 6 -17c0 -12 -10 -23 -25 -23h-58c-24 0 -35 8 -50 29l-151 204l-46 -44v-161c0 -16 -13 -28 -28 -28h-54c-17 0 -29 12 -29 28v685c0 16 12 29 29 29h54c15 0 28 -13 28 -29v-344c0 -17 -2 -40 -3 -56l8 -6c8 12 14 22 25 33c68 70 129 138 155 166
c14 14 18 19 43 19h59c15 0 25 -12 25 -25c0 -6 -2 -12 -7 -17c-78 -80 -133 -134 -180 -182c65 -87 132 -172 199 -261z" />
    <glyph glyph-name="l" unicode="l" horiz-adv-x="288" 
d="M199 28c0 -16 -12 -28 -28 -28h-54c-17 0 -29 12 -29 28v685c0 16 12 29 29 29h54c16 0 28 -13 28 -29v-685z" />
    <glyph glyph-name="m" unicode="m" horiz-adv-x="918" 
d="M343 537c58 0 109 -23 141 -84c50 60 96 84 158 84c116 0 187 -71 187 -194v-315c0 -16 -13 -28 -29 -28h-54c-15 0 -28 12 -28 28v290c0 76 -23 119 -88 119c-68 0 -115 -53 -115 -109v-300c0 -16 -13 -28 -28 -28h-55c-15 0 -28 12 -28 28v291c0 76 -24 118 -88 118
c-67 0 -117 -53 -117 -110v-299c0 -16 -12 -28 -28 -28h-54c-16 0 -29 12 -29 28v469c0 15 13 28 29 28h51c16 0 28 -13 28 -28v-28c3 -2 7 -3 9 -5c28 44 81 73 138 73z" />
    <glyph glyph-name="n" unicode="n" horiz-adv-x="618" 
d="M346 537c120 0 183 -75 183 -207v-302c0 -16 -12 -28 -28 -28h-54c-16 0 -29 12 -29 28v288c0 77 -29 121 -96 121c-69 0 -123 -52 -123 -110v-299c0 -16 -12 -28 -28 -28h-54c-16 0 -29 12 -29 28v469c0 15 13 28 29 28h51c16 0 28 -13 28 -28v-28c3 -2 7 -3 9 -5
c28 44 85 73 141 73z" />
    <glyph glyph-name="o" unicode="o" horiz-adv-x="634" 
d="M316 83c87 0 151 71 151 180c0 107 -64 178 -151 178c-86 0 -150 -71 -150 -179s64 -179 150 -179zM316 537c150 0 264 -116 264 -273c0 -163 -114 -276 -264 -276c-151 0 -262 111 -262 274c0 159 111 275 262 275z" />
    <glyph glyph-name="p" unicode="p" horiz-adv-x="639" 
d="M333 86c83 0 139 63 139 176c0 109 -55 176 -136 176c-71 0 -137 -70 -137 -195v-106c25 -22 62 -51 134 -51zM585 265c0 -169 -102 -277 -235 -277c-74 0 -116 24 -151 47v-206c0 -16 -13 -29 -28 -29h-52c-15 0 -31 13 -31 29v668c0 16 13 28 29 28h49
c16 0 29 -13 29 -30v-39h12c30 48 87 81 145 81c119 0 233 -89 233 -272z" />
    <glyph glyph-name="q" unicode="q" horiz-adv-x="639" 
d="M305 439c-83 0 -139 -64 -139 -177c0 -108 55 -175 136 -175c71 0 137 70 137 195v106c-25 21 -62 51 -134 51zM53 259c0 170 102 278 234 278c75 0 127 -30 164 -59v19c0 15 13 28 28 28h42c16 0 29 -13 29 -28v-668c0 -17 -13 -29 -29 -29h-53c-16 0 -29 13 -29 29v176
c0 14 4 57 4 62h-11c-31 -48 -88 -79 -146 -79c-119 0 -233 89 -233 271z" />
    <glyph glyph-name="r" unicode="r" horiz-adv-x="437" 
d="M348 537c26 0 50 -7 62 -14c15 -7 24 -19 21 -35l-9 -46c-4 -16 -20 -28 -33 -22c-11 5 -31 14 -53 14c-70 0 -136 -71 -136 -195v-211c0 -15 -13 -28 -29 -28h-54c-15 0 -28 13 -28 28v469c0 16 13 28 28 28h49c16 0 29 -12 29 -28v-40h12c30 48 85 80 141 80z" />
    <glyph glyph-name="s" unicode="s" horiz-adv-x="507" 
d="M246 81c62 0 93 34 93 67c0 45 -40 56 -113 73c-78 18 -164 55 -164 155c0 89 78 161 196 161c83 0 179 -24 179 -58c0 -5 -1 -9 -3 -14l-14 -31c-5 -10 -15 -16 -25 -16c-4 0 -7 0 -11 2c-33 14 -85 24 -125 24c-49 0 -86 -28 -86 -60c0 -94 280 -43 280 -230
c0 -94 -85 -166 -209 -166c-86 0 -191 29 -191 64c0 4 1 8 3 13l16 34c4 9 15 14 25 14c4 0 7 -1 11 -2c37 -16 94 -30 138 -30z" />
    <glyph glyph-name="t" unicode="t" horiz-adv-x="417" 
d="M281 -12c-116 0 -176 66 -176 173v278h-53c-16 0 -29 13 -29 28v30c0 16 13 28 29 28h53v112c0 16 13 28 29 28h54c15 0 28 -12 28 -28v-112h138c15 0 28 -12 28 -28v-30c0 -15 -13 -28 -28 -28h-138v-275c0 -54 24 -76 66 -76c28 0 55 6 66 10c13 4 29 -4 34 -18l12 -35
c4 -14 -2 -29 -15 -35c-22 -11 -56 -22 -98 -22z" />
    <glyph glyph-name="u" unicode="u" horiz-adv-x="618" 
d="M271 -12c-120 0 -183 75 -183 207v302c0 15 12 28 29 28h54c15 0 28 -13 28 -28v-288c0 -78 29 -121 96 -121c69 0 123 51 123 109v300c0 15 12 28 29 28h54c15 0 28 -13 28 -28v-469c0 -16 -13 -28 -28 -28h-51c-17 0 -29 12 -29 28v27l-9 6c-28 -44 -85 -73 -141 -73z
" />
    <glyph glyph-name="v" unicode="v" horiz-adv-x="551" 
d="M305 0h-60c-13 0 -24 8 -29 20l-180 470c-2 4 -3 7 -3 11c0 13 11 24 26 24h54c13 0 24 -8 29 -21l104 -275c10 -27 18 -57 22 -72h13c9 29 14 49 23 72l104 275c5 13 16 21 29 21h54c15 0 25 -11 25 -24c0 -4 0 -7 -2 -11l-180 -470c-5 -12 -16 -20 -29 -20z" />
    <glyph glyph-name="w" unicode="w" horiz-adv-x="809" 
d="M737 525c17 0 27 -12 27 -27v-5l-115 -470c-3 -13 -17 -23 -29 -23h-67c-23 0 -27 12 -37 41l-43 125c-33 95 -66 201 -66 204h-7l-21 -67c-28 -89 -62 -188 -94 -281c-6 -13 -18 -22 -30 -22h-67c-14 0 -26 9 -29 23l-115 470c-1 2 -1 4 -1 7c0 14 11 25 28 25h51
c12 0 25 -10 29 -23c14 -53 63 -281 75 -359h11c5 31 41 147 66 226l39 113c4 15 16 24 30 24h64c13 0 25 -9 30 -23c16 -46 30 -92 46 -139c23 -70 49 -168 59 -201h10l16 90c55 265 55 292 89 292h51z" />
    <glyph glyph-name="x" unicode="x" horiz-adv-x="545" 
d="M278 186h-13c-7 -17 -26 -47 -41 -68l-51 -70c-19 -26 -34 -48 -65 -48h-50c-15 0 -25 10 -25 22c0 6 2 11 6 17c55 76 112 153 168 229l-160 218c-4 5 -6 11 -6 16c0 12 11 23 25 23h55c5 0 12 -1 18 -3l14 -7c13 -7 95 -128 115 -167h12c5 12 24 44 37 63l46 65
c17 24 32 49 64 49h51c15 0 25 -11 25 -23c0 -5 -1 -10 -5 -15c-54 -72 -108 -146 -161 -218c56 -77 113 -153 170 -230c2 -5 4 -10 4 -14c0 -14 -10 -25 -24 -25h-55c-25 0 -49 26 -73 61l-50 73c-13 18 -25 42 -31 52z" />
    <glyph glyph-name="y" unicode="y" horiz-adv-x="552" 
d="M516 490c-51 -131 -106 -270 -263 -669c-6 -14 -17 -22 -29 -22h-51c-17 0 -26 11 -26 25c0 4 1 7 2 11c18 46 29 75 72 180c-61 155 -120 313 -186 475c-2 3 -2 7 -2 10c0 14 10 25 26 25h57c22 0 24 -11 37 -44l84 -220c18 -47 31 -92 34 -104h12c13 41 21 73 33 105
l17 45c23 60 48 125 77 197c5 13 17 21 29 21h53c16 0 26 -11 26 -25c0 -3 -1 -7 -2 -10z" />
    <glyph glyph-name="z" unicode="z" horiz-adv-x="532" 
d="M460 93c16 0 28 -13 28 -28v-37c0 -16 -12 -28 -28 -28h-389c-16 0 -28 12 -28 28v38c0 20 11 28 24 44c62 76 151 184 267 322h-254c-16 0 -28 13 -28 28v37c0 15 12 28 28 28h371c16 0 29 -13 29 -28v-35c0 -13 -4 -19 -11 -28l-23 -28l-262 -313h276z" />
    <glyph glyph-name="A" unicode="A" horiz-adv-x="740" 
d="M724 31c7 -15 -5 -31 -23 -31h-65c-16 0 -29 11 -36 27l-62 149h-337l-62 -149c-8 -16 -20 -27 -36 -27h-65c-17 0 -29 16 -22 31l293 660c6 15 19 24 34 24h53c15 0 28 -9 34 -24zM243 274h254c-52 120 -106 266 -128 317c-21 -51 -75 -197 -126 -317z" />
    <glyph glyph-name="B" unicode="B" horiz-adv-x="725" 
d="M127 715h280c129 0 211 -84 211 -190c0 -66 -30 -109 -75 -136v-8c70 -28 109 -91 109 -169c0 -112 -70 -212 -259 -212h-266c-16 0 -28 13 -28 29v657c0 17 12 29 28 29zM212 321v-216h166c95 0 159 26 159 107c0 84 -58 109 -148 109h-177zM397 610h-185v-184h173
c76 0 119 31 119 94c0 55 -39 90 -107 90z" />
    <glyph glyph-name="C" unicode="C" horiz-adv-x="741" 
d="M647 164l34 -37c9 -10 8 -29 -4 -40c-66 -62 -154 -99 -252 -99c-218 0 -361 153 -361 370s143 369 361 369c98 0 186 -37 251 -99c13 -12 14 -29 5 -41l-34 -36c-10 -12 -29 -11 -40 -1c-48 43 -116 72 -182 72c-136 0 -247 -104 -247 -264c0 -159 111 -265 247 -265
c66 0 134 28 182 71c11 11 30 11 40 0z" />
    <glyph glyph-name="D" unicode="D" horiz-adv-x="809" 
d="M127 715h231c228 0 388 -123 388 -357c0 -233 -160 -358 -388 -358h-231c-16 0 -28 13 -28 28v659c0 16 12 28 28 28zM377 105c148 0 254 97 254 253c0 157 -106 252 -254 252h-165v-505h165z" />
    <glyph glyph-name="E" unicode="E" horiz-adv-x="687" 
d="M127 715h462c16 0 28 -12 28 -28v-48c0 -16 -12 -29 -28 -29h-377v-192h331c15 0 28 -13 28 -28v-48c0 -16 -13 -29 -28 -29h-331v-208h377c16 0 28 -13 28 -29v-48c0 -16 -12 -28 -28 -28h-462c-17 0 -29 12 -29 28v659c0 16 12 28 29 28z" />
    <glyph glyph-name="F" unicode="F" horiz-adv-x="646" 
d="M127 715h462c16 0 28 -12 28 -28v-48c0 -16 -12 -29 -28 -29h-377v-192h331c15 0 28 -13 28 -28v-48c0 -16 -13 -29 -28 -29h-331v-285c0 -16 -13 -28 -29 -28h-56c-17 0 -29 12 -29 28v659c0 16 12 28 29 28z" />
    <glyph glyph-name="G" unicode="G" horiz-adv-x="784" 
d="M687 375c16 0 28 -12 28 -28v-227c0 -16 -5 -27 -13 -34c-78 -66 -173 -98 -267 -98c-219 0 -371 159 -371 369c0 219 143 370 361 370c99 0 187 -35 253 -99c12 -11 13 -29 4 -40l-33 -36c-11 -11 -29 -10 -40 0c-48 42 -118 70 -184 70c-136 0 -247 -104 -247 -264
c0 -156 112 -265 256 -265c60 0 122 22 169 56v121h-173c-16 0 -29 12 -29 29v48c0 16 13 28 29 28h257z" />
    <glyph glyph-name="H" unicode="H" horiz-adv-x="805" 
d="M706 687v-659c0 -16 -12 -28 -29 -28h-56c-17 0 -29 12 -29 28v287h-380v-287c0 -16 -12 -28 -29 -28h-56c-17 0 -29 12 -29 28v659c0 16 12 28 29 28h56c17 0 29 -12 29 -28v-267h380v267c0 16 12 28 29 28h56c17 0 29 -12 29 -28z" />
    <glyph glyph-name="I" unicode="I" horiz-adv-x="311" 
d="M212 687v-659c0 -16 -12 -28 -29 -28h-56c-17 0 -29 12 -29 28v659c0 16 12 28 29 28h56c17 0 29 -12 29 -28z" />
    <glyph glyph-name="J" unicode="J" horiz-adv-x="510" 
d="M390 715c17 0 29 -12 29 -29v-464c0 -138 -94 -234 -231 -234c-69 0 -124 26 -166 69c-11 12 -11 29 0 41l34 34c12 12 29 12 41 1c24 -23 59 -40 89 -40c77 0 119 53 119 135v458c0 17 12 29 28 29h57z" />
    <glyph glyph-name="K" unicode="K" horiz-adv-x="702" 
d="M689 44c18 -20 5 -44 -13 -44h-76c-15 0 -37 11 -49 24l-274 285l-65 -58v-223c0 -15 -12 -28 -28 -28h-57c-16 0 -28 13 -28 28v658c0 17 12 29 28 29h57c16 0 28 -12 28 -29v-294l324 299c13 13 34 24 50 24h77c18 0 28 -25 11 -41l-317 -291z" />
    <glyph glyph-name="L" unicode="L" horiz-adv-x="618" 
d="M212 105h364c16 0 29 -13 29 -29v-48c0 -16 -13 -28 -29 -28h-449c-17 0 -29 12 -29 28v659c0 16 12 28 29 28h56c16 0 29 -12 29 -28v-582z" />
    <glyph glyph-name="M" unicode="M" horiz-adv-x="934" 
d="M824 686l23 -657c0 -16 -12 -29 -28 -29h-56c-16 0 -29 13 -30 28c0 0 -11 319 -12 347c-1 40 2 108 4 137h-7l-203 -355c-9 -15 -24 -25 -41 -25h-15c-16 0 -32 10 -41 25l-202 355h-8c2 -29 5 -97 4 -137c-1 -28 -13 -347 -13 -347c0 -15 -12 -28 -28 -28h-57
c-16 0 -28 13 -28 29l23 657c1 17 13 29 29 29h55c16 0 35 -12 44 -29l230 -397l229 397c9 17 29 29 45 29h54c16 0 28 -12 29 -29z" />
    <glyph glyph-name="N" unicode="N" horiz-adv-x="796" 
d="M669 715c16 0 28 -12 28 -29v-658c0 -15 -12 -28 -28 -28h-60c-13 0 -30 9 -38 22c-2 2 -267 373 -360 503h-6c2 -25 7 -94 7 -153v-344c0 -15 -12 -28 -28 -28h-57c-16 0 -28 13 -28 28v658c0 17 12 29 28 29h60c14 0 29 -10 38 -23l360 -503h6c-2 24 -7 88 -7 140v357
c0 17 12 29 28 29h57z" />
    <glyph glyph-name="O" unicode="O" horiz-adv-x="847" 
d="M783 355c0 -220 -166 -367 -359 -367c-194 0 -360 147 -360 367c0 202 144 372 360 372c215 0 359 -170 359 -372zM424 93c136 0 243 110 243 262c0 160 -107 267 -243 267c-137 0 -244 -107 -244 -267c0 -152 107 -262 244 -262z" />
    <glyph glyph-name="P" unicode="P" horiz-adv-x="706" 
d="M380 715c163 0 270 -92 271 -234c1 -140 -108 -230 -271 -230h-168v-224c0 -14 -12 -27 -28 -27h-57c-16 0 -28 13 -28 27v661c0 15 12 27 28 27h253zM396 356c86 0 140 48 140 125c0 79 -54 129 -140 129h-183v-254h183z" />
    <glyph glyph-name="Q" unicode="Q" horiz-adv-x="856" 
d="M806 40c16 -17 5 -40 -15 -40h-67c-19 0 -34 11 -47 26l-31 38c-61 -48 -139 -76 -222 -76c-194 0 -360 147 -360 367c0 202 144 372 360 372c215 0 359 -170 359 -372c0 -83 -24 -156 -65 -215zM180 355c0 -152 107 -262 244 -262c57 0 109 20 149 54l-121 144
c-15 17 -7 45 17 45h58c19 0 34 -10 47 -26l64 -80c20 35 30 78 30 125c0 160 -108 267 -244 267c-137 0 -244 -107 -244 -267z" />
    <glyph glyph-name="R" unicode="R" horiz-adv-x="746" 
d="M491 265l192 -230c4 -5 5 -10 5 -15c0 -11 -8 -20 -22 -20h-53c-49 0 -64 24 -91 56c-54 64 -108 132 -160 194h-150v-223c0 -15 -12 -27 -29 -27h-56c-17 0 -29 12 -29 27v661c0 15 12 27 29 27h252c163 0 272 -91 272 -233c0 -103 -62 -181 -160 -217zM212 356h184
c86 0 139 48 139 126c0 79 -53 128 -139 128h-184v-254z" />
    <glyph glyph-name="S" unicode="S" horiz-adv-x="670" 
d="M340 425c172 -30 266 -98 266 -217c0 -131 -115 -220 -277 -220c-104 0 -190 34 -255 93c-11 10 -13 28 -3 40l33 39c10 12 27 14 40 3c55 -46 112 -70 187 -70c97 0 160 42 160 110c0 66 -61 94 -199 118c-143 25 -218 96 -218 202c0 121 120 204 256 204
c95 0 181 -33 250 -91c12 -11 13 -27 3 -40l-33 -38c-10 -12 -27 -13 -39 -3c-51 43 -112 67 -182 67c-86 0 -139 -39 -139 -98c0 -49 46 -81 150 -99z" />
    <glyph glyph-name="T" unicode="T" 
d="M588 715c15 0 28 -12 28 -29v-48c0 -16 -13 -28 -28 -28h-215v-582c0 -15 -12 -28 -29 -28h-57c-16 0 -28 13 -28 28v582h-216c-16 0 -28 12 -28 28v48c0 17 12 29 28 29h545z" />
    <glyph glyph-name="U" unicode="U" horiz-adv-x="812" 
d="M691 715c16 0 28 -12 28 -28v-376c0 -194 -128 -323 -312 -323c-188 0 -314 130 -314 323v375c0 17 12 29 28 29h57c16 0 28 -12 28 -29v-365c0 -134 75 -228 201 -228c125 0 199 94 199 228v365c0 17 12 29 28 29h57z" />
    <glyph glyph-name="V" unicode="V" horiz-adv-x="731" 
d="M693 715c15 0 24 -9 24 -22c0 -4 -2 -10 -4 -15l-284 -652c-7 -16 -20 -26 -37 -26h-55c-17 0 -29 10 -36 26l-285 652c-2 5 -3 10 -3 15c0 13 8 22 24 22h62c26 0 31 -11 49 -53l134 -310c40 -93 73 -179 83 -209c30 107 206 494 229 547c7 16 21 25 37 25h62z" />
    <glyph glyph-name="W" unicode="W" horiz-adv-x="987" 
d="M900 715c16 0 24 -9 24 -23v-6l-108 -659c-3 -16 -17 -27 -34 -27h-58c-16 0 -30 10 -37 26l-194 434l-194 -434c-7 -16 -21 -26 -37 -26h-59c-16 0 -30 11 -33 27l-108 659c-1 2 -1 4 -1 6c0 14 9 23 26 23h57c17 0 30 -10 33 -27c12 -66 44 -266 57 -346
c10 -62 13 -137 14 -161h9l179 410c7 16 21 25 37 25h40c16 0 30 -9 37 -25c59 -137 119 -273 179 -410h8c1 24 5 99 15 161l5 30c17 107 47 284 52 316c3 17 16 27 32 27h59z" />
    <glyph glyph-name="X" unicode="X" horiz-adv-x="720" 
d="M704 36c13 -16 2 -36 -18 -36h-65c-16 0 -37 10 -49 25l-212 255l-211 -255c-13 -15 -34 -25 -50 -25h-65c-20 0 -31 20 -18 36l273 328l-261 314c-13 17 -3 37 18 37h65c16 0 36 -10 49 -26l200 -240l200 240c13 16 33 26 49 26h65c21 0 31 -20 18 -37l-261 -314z" />
    <glyph glyph-name="Y" unicode="Y" horiz-adv-x="664" 
d="M637 715c20 0 31 -23 20 -39l-268 -390v-258c0 -15 -12 -28 -28 -28h-57c-16 0 -29 13 -29 28v258l-268 390c-11 16 0 39 21 39h58c16 0 34 -10 46 -26l200 -292l200 292c11 16 31 26 47 26h58z" />
    <glyph glyph-name="Z" unicode="Z" horiz-adv-x="698" 
d="M611 105c15 0 28 -13 28 -29v-48c0 -16 -13 -28 -28 -28h-524c-16 0 -29 12 -29 28v43c0 12 4 22 10 28l404 511h-376c-16 0 -29 13 -29 29v48c0 16 13 28 29 28h505c15 0 28 -12 28 -28v-46c0 -11 -3 -19 -11 -27c-135 -170 -269 -340 -405 -509h398z" />
    <glyph glyph-name="space" unicode=" " horiz-adv-x="342" 
 />
    <glyph glyph-name="zero" unicode="0" 
d="M315 727c170 0 262 -113 262 -370c0 -259 -92 -369 -262 -369s-262 110 -262 369c0 257 92 370 262 370zM315 92c96 0 147 79 147 265c0 184 -51 265 -147 265s-147 -81 -147 -265c0 -186 51 -265 147 -265z" />
    <glyph glyph-name="one" unicode="1" 
d="M451 686v-658c0 -16 -12 -28 -28 -28h-57c-16 0 -29 12 -29 28v527c-46 -39 -91 -80 -137 -119c-6 -5 -13 -8 -19 -8c-8 0 -15 3 -20 10l-30 38c-5 5 -7 12 -7 18c0 7 3 15 9 20l183 162c22 20 39 39 69 39h38c16 0 28 -12 28 -29z" />
    <glyph glyph-name="two" unicode="2" 
d="M82 555c22 94 110 172 234 172c136 0 236 -95 236 -221c0 -58 -17 -112 -59 -158l-246 -243h277c16 0 28 -12 28 -29v-48c0 -16 -12 -28 -28 -28h-417c-31 0 -29 31 -29 59c0 32 9 43 26 60l303 302c24 24 30 54 31 84c0 67 -52 117 -122 117c-59 0 -112 -42 -130 -100
c-4 -13 -15 -20 -28 -20c-3 0 -5 0 -8 1l-49 16c-13 4 -20 14 -20 27c0 3 0 6 1 9z" />
    <glyph glyph-name="three" unicode="3" 
d="M186 166c25 -44 68 -73 119 -73c70 0 127 52 127 125c0 74 -55 119 -125 119h-44c-16 0 -29 12 -29 29v45c0 16 13 29 29 29h35c56 0 102 39 102 95c0 50 -42 87 -93 87c-53 0 -88 -46 -96 -61c-8 -14 -25 -19 -39 -12l-46 25c-14 8 -19 24 -11 39c24 46 81 114 192 114
c117 0 207 -83 207 -190c0 -66 -30 -111 -69 -140c68 -37 102 -102 102 -185c0 -126 -109 -224 -242 -224c-132 0 -194 80 -218 128c-6 14 -2 30 13 38l47 24c15 8 32 2 39 -12z" />
    <glyph glyph-name="four" unicode="4" 
d="M380 691c9 11 29 24 43 24h44c16 0 28 -12 28 -28v-414h76c16 0 29 -12 29 -29v-48c0 -16 -13 -28 -29 -28h-76v-140c0 -16 -12 -28 -28 -28h-57c-16 0 -28 12 -28 28v140h-323c-16 0 -29 12 -29 28v39c0 15 7 28 16 39zM168 272h214v269c-11 -13 -198 -249 -214 -269z
" />
    <glyph glyph-name="five" unicode="5" 
d="M98 382c11 101 21 201 31 302c2 18 14 31 34 31h342c16 0 29 -12 29 -29v-47c0 -16 -13 -29 -29 -29h-272l-14 -142c27 7 58 13 88 13c142 0 253 -98 253 -244c0 -142 -112 -249 -256 -249c-149 0 -234 98 -234 140c0 11 5 20 15 26l48 24c4 2 8 3 13 3
c10 0 19 -6 25 -15c27 -43 69 -74 133 -74c76 0 141 61 141 146c0 84 -65 139 -146 139c-51 0 -83 -12 -108 -34c-10 -9 -20 -15 -30 -15c-3 0 -6 0 -9 2l-39 18c-10 6 -16 17 -16 28c0 2 1 4 1 6z" />
    <glyph glyph-name="six" unicode="6" 
d="M322 482c141 0 241 -106 241 -247c0 -140 -112 -247 -246 -247c-158 0 -250 109 -250 290c0 237 130 444 394 444c16 0 30 -12 30 -29v-46c0 -17 -14 -29 -30 -29c-123 0 -222 -72 -262 -179l4 -5c33 30 77 48 119 48zM317 93c74 0 133 57 133 142s-59 142 -133 142
c-75 0 -137 -52 -137 -136c0 -85 53 -148 137 -148z" />
    <glyph glyph-name="seven" unicode="7" 
d="M239 29c-8 -17 -28 -29 -44 -29h-62c-15 0 -30 16 -19 35c118 230 234 441 314 576h-339c-16 0 -28 13 -28 28v48c0 16 12 28 28 28h453c15 0 28 -12 28 -28v-29c0 -14 -5 -29 -12 -40c-41 -71 -190 -339 -319 -589z" />
    <glyph glyph-name="eight" unicode="8" 
d="M442 391c66 -32 110 -101 110 -175c0 -127 -101 -228 -237 -228s-238 101 -238 228c0 74 45 143 111 175v8c-48 30 -78 81 -78 135c0 108 90 193 205 193c114 0 205 -85 205 -193c0 -54 -30 -105 -78 -135v-8zM315 625c-53 0 -96 -41 -96 -91s43 -96 96 -96
c52 0 95 46 95 96s-42 91 -95 91zM315 93c68 0 123 55 123 123c0 65 -55 122 -123 122s-123 -57 -123 -122c0 -68 55 -123 123 -123z" />
    <glyph glyph-name="nine" unicode="9" 
d="M308 233c-141 0 -241 106 -241 247c0 139 112 247 246 247c158 0 250 -109 250 -290c0 -238 -130 -445 -394 -445c-15 0 -29 13 -29 30v46c0 16 14 29 29 29c123 0 222 72 263 180l-4 4c-33 -31 -78 -48 -120 -48zM313 622c-74 0 -132 -57 -132 -142s58 -143 132 -143
c75 0 137 53 137 137c0 85 -52 148 -137 148z" />
    <glyph glyph-name="exclam" unicode="!" horiz-adv-x="332" 
d="M220 210c0 -16 -13 -28 -28 -28h-33c-29 0 -30 28 -30 51l-12 276v177c0 16 12 29 28 29h59c16 0 29 -13 29 -29v-177c0 -99 -8 -200 -13 -299zM108 55c0 36 31 66 67 66s68 -30 68 -66c0 -38 -32 -67 -68 -67s-67 29 -67 67z" />
    <glyph glyph-name="quotedbl" unicode="&#x22;" horiz-adv-x="421" 
d="M273 742h50c15 0 28 -14 29 -29l-19 -221c-2 -13 -14 -25 -28 -25h-13c-14 0 -28 14 -29 27l-19 218c-1 17 12 30 29 30zM99 742h49c15 0 27 -15 28 -29l-18 -219c-1 -13 -13 -27 -28 -27h-14c-13 0 -27 14 -28 27l-18 218c-2 17 12 30 29 30z" />
    <glyph glyph-name="numbersign" unicode="#" 
d="M607 491v-19c0 -20 -15 -34 -34 -34h-95c-10 -40 -27 -114 -37 -158h104c20 0 33 -14 33 -33v-18c0 -19 -13 -34 -33 -34h-124c-11 -56 -24 -115 -37 -176c-4 -14 -19 -25 -32 -25h-18c-22 0 -37 18 -32 41l36 160h-119l-41 -176c-2 -14 -18 -25 -32 -25h-18
c-22 0 -36 17 -32 39c12 57 24 106 37 162h-77c-18 0 -33 15 -33 34v18c0 19 15 33 33 33h96c6 31 24 107 35 158h-102c-19 0 -33 14 -33 34v19c0 19 14 32 33 32h123c3 17 19 86 39 176c4 13 17 26 32 26h18c22 0 37 -19 32 -41c-14 -60 -25 -98 -37 -161h121
c17 83 29 132 38 175c4 13 20 27 33 27h19c22 0 37 -19 32 -41l-37 -161h75c19 0 34 -13 34 -32zM358 280l36 158h-123c-3 -15 -31 -141 -34 -158h121z" />
    <glyph glyph-name="dollar" unicode="$" horiz-adv-x="659" 
d="M381 -53c0 -15 -12 -28 -29 -28h-54c-16 0 -28 13 -28 28v46c-79 8 -148 39 -201 88c-6 5 -10 13 -10 21c0 14 40 67 61 67c7 0 13 -2 19 -7c55 -46 113 -69 188 -69c97 0 159 41 159 110c0 64 -60 93 -199 118c-143 25 -217 97 -217 202c0 104 89 180 200 198v52
c0 16 12 28 28 28h54c17 0 29 -12 29 -28v-50c72 -10 139 -40 194 -87c7 -6 10 -14 10 -22c0 -6 -2 -12 -6 -17l-33 -39c-6 -7 -13 -10 -21 -10c-7 0 -13 2 -18 7c-51 43 -113 67 -182 67c-87 0 -139 -38 -139 -98c0 -49 46 -81 149 -99c167 -29 266 -98 266 -212
c0 -119 -84 -204 -220 -220v-46z" />
    <glyph glyph-name="percent" unicode="%" horiz-adv-x="790" 
d="M185 723c93 0 145 -59 145 -197c0 -139 -52 -198 -145 -198c-92 0 -144 59 -144 198c0 138 52 197 144 197zM185 402c43 0 67 37 67 124c0 85 -24 122 -67 122c-41 0 -65 -37 -65 -122c0 -87 24 -124 65 -124zM645 681l-387 -655c-9 -16 -25 -26 -42 -26h-21
c-12 0 -21 10 -21 22c0 4 1 8 3 12l386 656c9 16 25 25 42 25h20c13 0 23 -10 23 -22c0 -4 -1 -8 -3 -12zM631 388c93 0 145 -59 145 -197c0 -139 -52 -197 -145 -197c-92 0 -144 58 -144 197c0 138 52 197 144 197zM631 67c43 0 67 37 67 124c0 85 -24 122 -67 122
c-42 0 -66 -37 -66 -122c0 -87 24 -124 66 -124z" />
    <glyph glyph-name="ampersand" unicode="&#x26;" horiz-adv-x="749" 
d="M326 633c-47 0 -82 -31 -82 -71c0 -31 19 -63 62 -108c54 30 100 74 100 110c0 46 -31 69 -80 69zM322 93c43 0 95 29 132 69l-173 171c-50 -34 -88 -65 -88 -112c0 -65 45 -128 129 -128zM328 727c105 0 183 -69 183 -161c0 -67 -35 -122 -129 -180l134 -133
c24 44 43 93 52 129c4 16 18 24 32 20l42 -12c13 -3 22 -18 18 -34c-14 -54 -38 -114 -71 -176c12 -12 132 -131 144 -143c14 -17 4 -37 -12 -37h-82c-15 0 -34 11 -47 24l-64 64c-75 -73 -149 -100 -219 -100c-133 0 -230 95 -230 217c0 92 48 147 129 202
c-54 56 -72 98 -72 148c0 88 75 172 192 172z" />
    <glyph glyph-name="quotesingle" unicode="'" horiz-adv-x="246" 
d="M98 742h51c15 0 28 -15 28 -30l-18 -219c-1 -13 -14 -27 -29 -27h-15c-15 0 -27 13 -28 27l-17 218c-2 17 10 31 28 31z" />
    <glyph glyph-name="parenleft" unicode="(" horiz-adv-x="359" 
d="M191 714c10 16 26 28 42 28h51c16 0 27 -14 17 -29c-88 -137 -120 -307 -120 -442c0 -134 32 -306 120 -442c10 -15 -1 -29 -17 -29h-51c-16 0 -32 12 -42 28c-76 129 -122 291 -122 443c0 153 46 313 122 443z" />
    <glyph glyph-name="parenright" unicode=")" horiz-adv-x="359" 
d="M168 714c76 -130 122 -290 122 -443c0 -152 -46 -314 -122 -443c-10 -16 -26 -28 -42 -28h-51c-16 0 -27 14 -17 29c88 136 120 308 120 442c0 135 -32 305 -120 442c-10 15 1 29 17 29h51c16 0 32 -12 42 -28z" />
    <glyph glyph-name="asterisk" unicode="*" horiz-adv-x="530" 
d="M455 594c17 0 32 -13 32 -32v-23c0 -19 -15 -32 -33 -32c-44 3 -87 6 -131 10l73 -109c3 -6 5 -12 5 -19c0 -14 -22 -40 -53 -40c-11 0 -21 6 -26 16l-57 117c-19 -39 -39 -78 -58 -118c-5 -10 -16 -17 -27 -17c-5 0 -10 1 -15 5l-24 12l-6 6c-5 7 -8 13 -8 21
c0 5 1 11 5 17l73 108l-130 -9c-18 0 -33 14 -33 32v23c0 19 15 32 32 32c44 -3 88 -7 131 -9l-73 107c-3 5 -4 11 -4 17c0 26 18 26 39 41h5c3 1 6 1 9 1c11 0 21 -5 26 -15c29 -59 32 -63 56 -118l59 118c5 11 16 17 27 17c5 0 9 -1 13 -3l21 -10c13 -6 18 -18 18 -30
c0 -5 -1 -11 -4 -16c-24 -37 -49 -73 -73 -109c44 2 87 6 131 9z" />
    <glyph glyph-name="plus" unicode="+" 
d="M588 313c0 -15 -14 -28 -29 -28h-194v-194c0 -17 -13 -30 -29 -30h-43c-17 0 -29 13 -29 30v194h-194c-15 0 -28 13 -28 28v42c0 16 13 28 28 28h194v195c0 16 12 29 29 29h43c16 0 29 -13 29 -29v-195h194c15 0 29 -12 29 -28v-42z" />
    <glyph glyph-name="comma" unicode="," horiz-adv-x="291" 
d="M71 -132c13 21 45 95 47 126c0 2 -1 5 -2 6c-20 12 -43 36 -43 67c0 37 31 72 71 72c42 0 78 -32 78 -86s-50 -165 -101 -219c-3 -3 -8 -5 -12 -5c-19 0 -40 12 -41 26c0 5 1 9 3 13z" />
    <glyph glyph-name="hyphen" unicode="-" horiz-adv-x="380" 
d="M341 271c0 -16 -13 -28 -29 -28h-245c-16 0 -29 12 -29 28v35c0 17 13 29 29 29h245c16 0 29 -12 29 -29v-35z" />
    <glyph glyph-name="period" unicode="." horiz-adv-x="286" 
d="M142 -12c-39 0 -73 34 -73 74s34 73 73 73c42 0 76 -33 76 -73s-34 -74 -76 -74z" />
    <glyph glyph-name="slash" unicode="/" horiz-adv-x="384" 
d="M368 707l-261 -765c-5 -13 -17 -23 -30 -23h-40c-16 0 -29 13 -29 27c0 3 1 6 2 9l261 765c4 12 19 22 32 22h37c15 0 29 -13 29 -28c0 -2 0 -5 -1 -7z" />
    <glyph glyph-name="colon" unicode=":" horiz-adv-x="301" 
d="M151 -12c-39 0 -73 34 -73 74s34 73 73 73c42 0 76 -33 76 -73s-34 -74 -76 -74zM151 389c-39 0 -73 35 -73 74c0 40 34 74 73 74c42 0 76 -34 76 -74c0 -39 -34 -74 -76 -74z" />
    <glyph glyph-name="semicolon" unicode=";" horiz-adv-x="304" 
d="M78 -132c14 21 45 95 47 126c0 2 -1 5 -2 6c-20 12 -43 36 -43 67c0 37 31 72 71 72c42 0 78 -32 78 -86s-50 -165 -101 -219c-3 -3 -8 -5 -12 -5c-19 0 -40 12 -41 26c0 5 1 9 3 13zM80 463c0 41 34 74 73 74c43 0 76 -33 76 -74c0 -39 -33 -73 -76 -73
c-39 0 -73 34 -73 73z" />
    <glyph glyph-name="less" unicode="&#x3c;" 
d="M577 519c0 -28 -31 -39 -52 -45l-331 -140l331 -139c26 -11 52 -20 52 -58v-33c0 -14 -11 -26 -24 -26c-4 0 -7 1 -12 3l-466 202c-13 5 -23 19 -23 33v37c0 12 10 26 23 32l31 14c145 62 290 126 435 188c4 2 8 2 12 2c13 0 24 -11 24 -25v-45z" />
    <glyph glyph-name="equal" unicode="=" 
d="M582 422c0 -15 -13 -28 -29 -28h-477c-16 0 -28 13 -28 28v41c0 16 12 29 28 29h477c16 0 29 -13 29 -29v-41zM582 207c0 -16 -13 -28 -29 -28h-477c-16 0 -28 12 -28 28v41c0 16 12 28 28 28h477c16 0 29 -12 29 -28v-41z" />
    <glyph glyph-name="greater" unicode="&#x3e;" 
d="M51 519v45c0 14 11 25 25 25c4 0 7 0 12 -2c240 -103 356 -154 467 -202c12 -5 22 -20 22 -32v-37c0 -28 -32 -36 -53 -45c-144 -63 -292 -128 -436 -190c-5 0 -8 -2 -12 -2c-14 0 -25 11 -25 25v45c0 28 32 37 57 47l325 138l-358 152c-13 5 -24 20 -24 33z" />
    <glyph glyph-name="question" unicode="?" horiz-adv-x="561" 
d="M279 727c142 0 233 -83 233 -195c0 -86 -66 -160 -187 -242v-83c0 -16 -12 -28 -28 -28h-56c-17 0 -29 12 -29 28v117c0 9 8 23 18 28c72 48 166 101 166 173c0 58 -52 99 -119 99c-50 0 -103 -17 -151 -50c-12 -8 -29 -7 -38 5l-30 43c-7 12 -3 29 8 38
c57 41 127 67 213 67zM268 122c36 0 68 -31 68 -67c0 -38 -32 -67 -68 -67c-37 0 -67 29 -67 67c0 36 30 67 67 67z" />
    <glyph glyph-name="at" unicode="@" horiz-adv-x="1010" 
d="M701 20c-49 0 -88 36 -88 105h-9c-34 -61 -97 -105 -163 -105c-107 0 -180 90 -180 220c0 125 91 297 245 297c56 0 103 -22 131 -58c1 1 4 21 4 21c3 14 16 25 30 25h39c16 0 27 -16 27 -32c-7 -57 -32 -226 -40 -282c-2 -14 -4 -46 -4 -59c0 -33 9 -59 29 -59
c96 0 144 134 144 245c0 183 -133 314 -340 314c-226 0 -379 -178 -379 -390c0 -238 166 -368 385 -368c102 0 190 23 249 47c12 6 28 0 33 -11c0 0 3 -9 6 -17c4 -13 -1 -27 -11 -32c-69 -29 -154 -60 -277 -60c-285 0 -463 180 -463 437c0 277 202 468 459 468
c240 0 414 -155 414 -404c0 -159 -93 -301 -241 -302zM455 115c91 0 160 155 159 262c-1 3 -25 70 -101 70c-80 0 -142 -100 -142 -210c0 -81 33 -122 84 -122z" />
    <glyph glyph-name="bracketleft" unicode="[" horiz-adv-x="378" 
d="M329 -172c0 -16 -12 -28 -28 -28h-184c-16 0 -29 12 -29 28v886c0 16 13 28 29 28h184c16 0 28 -12 28 -28v-32c0 -16 -12 -29 -28 -29h-105v-764h105c16 0 28 -13 28 -29v-32z" />
    <glyph glyph-name="backslash" unicode="\" horiz-adv-x="384" 
d="M276 -58c-89 261 -172 504 -260 765c-1 3 -1 5 -1 8c0 15 13 27 28 27h37c13 0 28 -10 32 -22l262 -765c1 -3 1 -5 1 -8c0 -15 -13 -28 -29 -28h-40c-13 0 -26 10 -30 23z" />
    <glyph glyph-name="bracketright" unicode="]" horiz-adv-x="379" 
d="M49 -171v32c0 16 12 28 28 28h105v764h-105c-16 0 -28 12 -28 29v32c0 16 12 28 28 28h184c17 0 29 -12 29 -28v-885c0 -16 -12 -29 -29 -29h-184c-16 0 -28 13 -28 29z" />
    <glyph glyph-name="asciicircum" unicode="^" horiz-adv-x="638" 
d="M574 361c2 -5 3 -9 3 -14c0 -13 -10 -24 -26 -24h-38c-35 0 -46 16 -60 43c-43 77 -88 155 -131 233c-42 -79 -89 -155 -131 -232c-17 -31 -29 -44 -60 -44h-40c-15 0 -26 11 -26 24c0 4 1 9 4 13c61 107 126 212 188 320c10 18 20 43 45 43h40c25 0 33 -23 45 -43
c62 -107 124 -213 187 -319z" />
    <glyph glyph-name="underscore" unicode="_" horiz-adv-x="578" 
d="M590 -106v-61h-602v61h602z" />
    <glyph glyph-name="grave" unicode="`" horiz-adv-x="512" 
d="M219 639l-74 100c-11 15 0 37 19 37h64c11 0 24 -5 31 -21l52 -114c9 -18 1 -33 -17 -33h-31c-19 0 -32 14 -44 31z" />
    <glyph glyph-name="braceleft" unicode="{" horiz-adv-x="440" 
d="M151 264c65 -35 104 -102 104 -195v-83c0 -73 20 -98 88 -98h19c15 0 29 -13 29 -29v-31c0 -16 -14 -28 -29 -28h-25c-135 0 -189 60 -189 196v55c0 107 -37 166 -114 172c-14 0 -26 13 -26 27v42c0 14 12 27 26 27c77 11 114 61 114 171v56c0 139 55 196 189 196h25
c15 0 29 -11 29 -27v-30c0 -16 -14 -30 -29 -30h-19c-68 0 -88 -24 -88 -98v-85c0 -91 -39 -159 -104 -194v-14z" />
    <glyph glyph-name="bar" unicode="|" horiz-adv-x="305" 
d="M199 -171c0 -16 -13 -29 -28 -29h-38c-16 0 -29 13 -29 29v885c0 16 13 28 29 28h38c15 0 28 -12 28 -28v-885z" />
    <glyph glyph-name="braceright" unicode="}" horiz-adv-x="440" 
d="M286 264v14c-65 35 -104 103 -104 194v85c0 74 -20 98 -88 98h-19c-15 0 -29 14 -29 30v30c0 16 14 27 29 27h25c134 0 189 -57 189 -196v-56c0 -110 37 -160 114 -171c14 0 26 -13 26 -27v-42c0 -14 -12 -27 -26 -27c-77 -6 -114 -65 -114 -172v-55
c0 -136 -54 -196 -189 -196h-25c-15 0 -29 12 -29 28v31c0 16 14 29 29 29h19c68 0 88 25 88 98v83c0 93 39 160 104 195z" />
    <glyph glyph-name="asciitilde" unicode="~" horiz-adv-x="708" 
d="M255 327c-12 4 -23 6 -33 6c-31 0 -58 -33 -63 -82c-1 -13 -16 -26 -29 -26h-45c-16 0 -29 12 -29 30c7 109 87 187 175 187c90 0 198 -114 251 -114c34 0 68 36 74 88c1 14 12 27 28 27h45c15 0 28 -14 28 -30c-10 -112 -92 -188 -180 -188c-79 0 -164 91 -222 102z" />
    <glyph glyph-name="degree" unicode="&#xb0;" horiz-adv-x="473" 
d="M69 572c0 92 74 166 165 166s166 -74 166 -166c0 -91 -75 -165 -166 -165s-165 74 -165 165zM146 572c0 -48 40 -87 88 -87c49 0 88 39 88 87c0 49 -39 88 -88 88c-48 0 -88 -39 -88 -88z" />
    <glyph glyph-name="cent" unicode="&#xa2;" horiz-adv-x="541" 
d="M358 27c0 -15 -12 -27 -28 -27h-50c-16 0 -28 12 -28 27v60c-124 21 -202 115 -202 270s78 248 202 269v61c0 16 12 28 28 28h50c16 0 28 -12 28 -28v-60c46 -9 152 -51 152 -95c0 -6 -2 -13 -7 -18l-29 -35c-5 -6 -13 -9 -21 -9c-7 0 -14 3 -20 7c-38 32 -80 55 -126 55
c-87 0 -145 -60 -145 -175c0 -113 59 -176 145 -176c46 0 88 24 126 55c5 4 12 6 19 6c18 0 58 -39 58 -62c0 -43 -107 -86 -152 -93v-60z" />
    <glyph glyph-name="sterling" unicode="&#xa3;" horiz-adv-x="605" 
d="M542 4c-14 -4 -79 -10 -114 -10c-62 0 -122 21 -191 21c-44 0 -99 -7 -142 -17c-16 -3 -32 6 -35 23c-1 9 -9 42 -11 58c-2 12 7 26 18 30c53 22 85 79 85 160c0 9 0 24 -1 35h-62c-15 0 -28 13 -28 28v33c0 16 13 29 29 29h50c-12 69 -12 82 -12 115
c0 123 95 218 226 218c78 0 128 -23 171 -54c14 -10 16 -29 6 -41l-26 -34c-8 -11 -27 -11 -39 -4c-33 24 -69 37 -110 37c-68 0 -111 -51 -111 -120c0 -31 3 -65 12 -117h146c17 0 29 -13 29 -29v-33c0 -15 -12 -28 -29 -28h-137c0 -9 1 -21 1 -37c0 -49 -14 -95 -68 -157
c16 0 39 1 74 0c54 -1 108 -16 165 -16c29 0 59 6 89 12c13 3 27 -9 30 -24c1 -7 8 -38 8 -45c3 -18 -8 -29 -23 -33z" />
    <glyph glyph-name="section" unicode="&#xa7;" horiz-adv-x="585" 
d="M258 381c-28 -16 -83 -46 -83 -87c0 -58 65 -87 152 -132c44 25 83 53 83 87c0 58 -65 88 -152 132zM88 -136c-13 10 -12 29 -1 41l32 38c11 12 30 13 42 1c33 -31 82 -49 121 -49c61 0 106 20 108 62c-1 47 -46 77 -151 128c-113 55 -175 113 -175 190
c0 59 29 107 108 154c-56 36 -93 76 -93 144c0 100 72 179 217 179c78 0 151 -26 202 -73c12 -11 12 -29 1 -42l-33 -35c-11 -13 -29 -12 -42 -2c-34 31 -80 48 -122 48c-61 0 -106 -18 -106 -62c0 -47 43 -76 151 -129c115 -56 175 -112 175 -189c0 -57 -30 -107 -108 -154
c55 -36 93 -76 93 -143c0 -102 -74 -181 -221 -181c-75 0 -143 28 -198 74z" />
    <glyph glyph-name="bullet" unicode="&#x2022;" horiz-adv-x="427" 
d="M57 336c0 87 72 158 158 158c87 0 160 -72 160 -158s-71 -158 -160 -158c-86 0 -158 71 -158 158z" />
    <glyph glyph-name="paragraph" unicode="&#xb6;" horiz-adv-x="594" 
d="M549 685v-16c0 -8 -6 -22 -15 -22c0 -7 -14 -12 -20 -13v-805c0 -17 -13 -29 -29 -29h-28c-15 0 -28 12 -28 29v805h-97v-805c0 -17 -15 -29 -30 -29h-25c-18 0 -30 12 -30 29v461c-127 3 -210 96 -210 212c0 132 86 213 241 213h242c17 0 29 -13 29 -30z" />
    <glyph glyph-name="germandbls" unicode="&#xdf;" horiz-adv-x="655" 
d="M404 415c123 -42 187 -118 187 -207c0 -116 -89 -220 -212 -220c-55 0 -130 20 -130 61c0 4 0 7 2 11l12 31c5 13 16 20 27 20c4 0 8 -1 12 -3c23 -12 51 -22 76 -22c60 0 99 63 99 121c0 54 -61 124 -174 129c-15 1 -28 14 -28 31v53c0 12 10 28 22 33
c52 20 103 59 103 117c0 37 -34 82 -87 82c-58 0 -114 -23 -114 -148v-474c0 -16 -13 -30 -29 -30h-54c-15 0 -28 14 -28 30v474c0 167 86 248 226 248c121 0 197 -78 197 -171c0 -55 -31 -113 -107 -161v-5z" />
    <glyph glyph-name="registered" unicode="&#xae;" horiz-adv-x="867" 
d="M621 180c14 -18 4 -53 -24 -53h-27c-12 0 -29 9 -38 20c-45 55 -88 115 -104 134h-80v-123c0 -15 -12 -31 -31 -31h-23c-19 0 -33 16 -33 31v395c0 15 14 31 33 31h148c104 0 173 -61 173 -153c0 -62 -34 -111 -89 -136zM348 364h104c46 0 75 26 75 67
c0 43 -29 68 -75 68h-104v-135zM434 749c218 0 395 -176 395 -395c0 -218 -177 -395 -395 -395c-219 0 -396 177 -396 395c0 219 177 395 396 395zM434 37c174 0 317 142 317 317s-143 317 -317 317c-175 0 -318 -142 -318 -317s143 -317 318 -317z" />
    <glyph glyph-name="copyright" unicode="&#xa9;" horiz-adv-x="867" 
d="M582 241l17 -19c8 -12 8 -30 -5 -43c-41 -37 -98 -58 -156 -58c-138 0 -229 96 -229 234s91 234 229 234c58 0 115 -21 156 -59c14 -11 13 -31 4 -43l-17 -20c-11 -10 -32 -10 -43 1c-24 22 -65 37 -100 37c-78 0 -142 -59 -142 -150s64 -150 142 -150c35 0 76 15 100 35
c11 11 33 12 44 1zM434 749c218 0 395 -176 395 -395c0 -218 -177 -395 -395 -395c-219 0 -396 177 -396 395c0 219 177 395 396 395zM434 37c174 0 317 142 317 317s-143 317 -317 317c-175 0 -318 -142 -318 -317s143 -317 318 -317z" />
    <glyph glyph-name="trademark" unicode="&#x2122;" horiz-adv-x="846" 
d="M632 397c-5 -12 -18 -16 -27 -18h-12c-10 0 -24 3 -29 18l-96 228h-8v-272c0 -15 -12 -28 -29 -28h-10c-16 0 -29 13 -29 28v332c0 17 13 30 29 30h65c10 0 22 -9 26 -18l86 -211l86 211c4 9 17 18 27 18h61c15 0 29 -13 29 -30v-332c0 -15 -14 -28 -29 -28h-12
c-15 0 -29 13 -29 28v268h-8zM333 685v-7c0 -17 -12 -29 -28 -29h-91v-296c0 -15 -13 -28 -28 -28h-15c-15 0 -28 13 -28 28v296h-90c-16 0 -29 12 -29 29v7c0 17 13 30 29 30h252c16 0 28 -13 28 -30z" />
    <glyph glyph-name="acute" unicode="&#xb4;" horiz-adv-x="512" 
d="M371 739l-74 -100c-12 -17 -25 -31 -44 -31h-31c-18 0 -26 15 -17 33l52 114c7 16 20 21 31 21h64c19 0 30 -22 19 -37z" />
    <glyph glyph-name="dieresis" unicode="&#xa8;" horiz-adv-x="517" 
d="M161 630c-35 0 -62 28 -62 62c0 35 27 62 62 62c32 0 62 -27 62 -62c0 -34 -30 -62 -62 -62zM359 630c-33 0 -62 28 -62 62c0 35 29 62 62 62c34 0 63 -27 63 -62c0 -34 -29 -62 -63 -62z" />
    <glyph glyph-name="plusminus" unicode="&#xb1;" horiz-adv-x="620" 
d="M581 28c0 -16 -12 -28 -28 -28h-487c-16 0 -29 12 -29 28v41c0 15 13 28 29 28h487c16 0 28 -13 28 -28v-41zM581 386c0 -15 -12 -28 -28 -28h-193v-188c0 -15 -13 -29 -29 -29h-42c-16 0 -29 14 -29 29v188h-195c-15 0 -28 13 -28 28v41c0 16 13 29 28 29h195v185
c0 15 13 28 29 28h42c16 0 29 -13 29 -28v-185h193c16 0 28 -13 28 -29v-41z" />
    <glyph glyph-name="yen" unicode="&#xa5;" horiz-adv-x="657" 
d="M633 715c21 0 32 -23 20 -39l-154 -225h67c16 0 29 -12 29 -28v-32c0 -15 -13 -28 -29 -28h-128l-50 -74h178c15 0 28 -12 28 -28v-32c0 -16 -13 -28 -28 -28h-181v-173c0 -15 -12 -28 -28 -28h-57c-16 0 -28 13 -28 28v173h-183c-16 0 -29 12 -29 28v32
c0 16 13 28 29 29h180l-51 73h-129c-16 0 -29 13 -29 28v32c0 16 13 28 29 28h68l-154 225c-11 16 1 39 21 39h58c17 0 35 -10 46 -26l200 -292l201 292c11 16 30 26 46 26h58z" />
    <glyph glyph-name="mu" unicode="&#xb5;" horiz-adv-x="611" 
d="M195 -171c0 -16 -13 -29 -28 -29h-54c-16 0 -29 13 -29 29v351v316c0 16 13 29 29 29h54c15 0 28 -13 28 -29v-295c0 -77 28 -116 96 -116c70 0 127 54 127 113v298c0 16 13 29 29 29h54c15 0 28 -13 28 -29v-468c0 -16 -13 -28 -28 -28h-53c-16 0 -29 12 -29 28v31
c-37 -52 -105 -71 -157 -71c-20 0 -42 7 -67 14v-173z" />
    <glyph glyph-name="ordfeminine" unicode="&#xaa;" horiz-adv-x="579" 
d="M347 519h-12c-89 0 -150 -17 -150 -65c0 -31 23 -51 66 -51c40 0 96 38 96 89v27zM347 590v12c0 37 -27 70 -81 70s-90 -22 -102 -22c-17 0 -22 5 -36 45c-1 1 -1 3 -1 4c0 30 71 53 151 53c78 0 157 -46 157 -166v-224c0 -15 -12 -29 -30 -29h-29c-15 0 -24 9 -24 25v24
c-21 -29 -62 -58 -111 -58c-84 0 -146 52 -146 127c0 119 116 139 232 139h20z" />
    <glyph glyph-name="ordmasculine" unicode="&#xba;" 
d="M315 406c65 0 113 52 113 132s-48 132 -113 132s-112 -52 -112 -133c0 -79 47 -131 112 -131zM315 752c116 0 204 -91 204 -213c0 -127 -88 -214 -204 -214c-117 0 -203 86 -203 212c0 124 86 215 203 215z" />
    <glyph glyph-name="ae" unicode="&#xe6;" horiz-adv-x="933" 
d="M875 258c0 -15 -13 -28 -28 -28h-353c1 -85 74 -147 152 -147c52 0 109 14 149 34c3 2 7 2 11 2c10 0 21 -5 26 -15l13 -32c1 -3 2 -7 2 -10c0 -45 -121 -74 -199 -74c-101 0 -178 37 -222 107c-46 -71 -118 -107 -192 -107c-100 0 -181 64 -181 160
c0 152 148 178 299 178h30v16c0 57 -29 99 -108 99c-67 0 -125 -26 -140 -26c-10 0 -18 5 -22 13l-16 38c-1 3 -2 5 -2 8c0 36 101 63 197 63c62 0 125 -23 162 -77c44 50 108 77 186 77c136 0 236 -83 236 -279zM383 202v41h-20c-112 0 -198 -19 -198 -87
c0 -45 33 -72 91 -72c52 0 127 48 127 118zM497 312h265c0 85 -61 131 -125 131c-69 0 -126 -46 -140 -131z" />
    <glyph glyph-name="oslash" unicode="&#xf8;" horiz-adv-x="632" 
d="M315 537c38 0 73 -7 105 -21c11 12 32 29 49 29h18c13 0 23 -11 23 -23c0 -4 -1 -7 -3 -11l-21 -36c57 -49 93 -124 93 -212c0 -162 -114 -275 -264 -275c-39 0 -74 8 -106 20c-9 -9 -32 -27 -48 -27h-19c-13 0 -22 11 -22 22c0 4 1 7 3 11l20 34c-57 48 -91 123 -91 213
c0 160 112 276 263 276zM161 261c0 -49 14 -90 38 -120c56 97 113 193 170 289c-17 7 -33 10 -50 10c-90 0 -158 -67 -158 -179zM315 83c89 0 153 71 153 179c0 49 -14 91 -37 121c-56 -96 -113 -192 -170 -288c16 -8 34 -12 54 -12z" />
    <glyph glyph-name="questiondown" unicode="&#xbf;" horiz-adv-x="561" 
d="M281 -210c-141 0 -232 83 -232 194c0 87 66 161 187 242v83c0 16 12 29 28 29h56c16 0 29 -13 29 -29v-116c0 -10 -9 -24 -18 -29c-72 -47 -166 -101 -166 -173c0 -58 52 -98 119 -98c50 0 103 17 151 49c12 9 29 7 38 -4l30 -43c7 -13 3 -30 -8 -38
c-57 -41 -127 -67 -214 -67zM293 403c-36 0 -68 31 -68 66c0 39 32 68 68 68c37 0 67 -29 67 -68c0 -35 -30 -66 -67 -66z" />
    <glyph glyph-name="exclamdown" unicode="&#xa1;" horiz-adv-x="332" 
d="M111 309c0 15 12 27 28 27h33c16 0 28 -12 29 -27l13 -299v-181c0 -16 -13 -29 -28 -29h-59c-16 0 -29 13 -29 29v181c4 99 8 199 13 299zM223 470c0 -36 -31 -67 -67 -67s-68 31 -68 67c0 38 32 67 68 67s67 -29 67 -67z" />
    <glyph glyph-name="logicalnot" unicode="&#xac;" 
d="M483 345h-413c-16 0 -28 9 -28 25v45c0 15 12 28 28 28h489c16 0 29 -13 29 -28v-273c0 -17 -13 -30 -29 -30h-47c-17 0 -29 13 -29 30v203z" />
    <glyph glyph-name="guillemotleft" unicode="&#xab;" horiz-adv-x="598" 
d="M312 126c11 -11 12 -29 0 -41l-26 -25c-11 -12 -29 -11 -40 0l-209 210c-12 12 -12 28 0 39l209 209c11 12 29 12 41 0l25 -25c12 -11 11 -29 0 -40l-163 -164zM568 126c11 -11 12 -29 0 -41l-26 -25c-11 -12 -29 -11 -40 0l-209 210c-12 12 -12 28 0 39l209 209
c11 12 29 12 41 0l25 -25c12 -11 11 -29 0 -40l-163 -164z" />
    <glyph glyph-name="guillemotright" unicode="&#xbb;" horiz-adv-x="599" 
d="M293 126l163 163l-163 164c-11 11 -12 29 0 40l25 25c12 12 30 12 41 0l209 -209c12 -11 12 -27 0 -39l-209 -210c-11 -11 -29 -12 -40 0l-26 25c-12 12 -11 30 0 41zM37 126l163 163l-163 164c-11 11 -12 29 0 40l25 25c12 12 30 12 41 0l209 -209c12 -11 12 -27 0 -39
l-209 -210c-11 -11 -29 -12 -40 0l-26 25c-12 12 -11 30 0 41z" />
    <glyph glyph-name="ellipsis" unicode="&#x2026;" horiz-adv-x="875" 
d="M436 -12c-39 0 -73 34 -73 74s34 73 73 73c42 0 76 -33 76 -73s-34 -74 -76 -74zM731 -12c-40 0 -74 34 -74 74s34 73 74 73c42 0 75 -33 75 -73s-33 -74 -75 -74zM142 -12c-40 0 -73 34 -73 74s33 73 73 73c42 0 75 -33 75 -73s-33 -74 -75 -74z" />
    <glyph glyph-name="endash" unicode="&#x2013;" horiz-adv-x="605" 
d="M566 271c0 -16 -13 -29 -29 -29h-470c-17 0 -29 13 -29 29v35c0 16 12 29 29 29h470c16 0 29 -13 29 -29v-35z" />
    <glyph glyph-name="emdash" unicode="&#x2014;" horiz-adv-x="995" 
d="M956 271c0 -16 -12 -29 -29 -29h-860c-16 0 -29 13 -29 29v35c0 16 13 29 29 29h860c17 0 29 -13 29 -29v-35z" />
    <glyph glyph-name="quotedblleft" unicode="&#x201c;" horiz-adv-x="488" 
d="M416 732c-13 -21 -45 -96 -47 -126l2 -6c20 -14 44 -37 44 -69c0 -35 -32 -71 -72 -71c-41 0 -78 33 -78 86c0 55 50 166 102 220c3 3 7 5 12 5c19 0 37 -12 40 -26c0 -5 -1 -10 -3 -13zM219 732c-12 -21 -45 -96 -46 -126c0 -2 1 -4 2 -6c20 -14 43 -37 43 -69
c0 -35 -31 -71 -71 -71c-42 0 -79 33 -79 86c0 55 51 166 102 220c3 3 7 5 12 5c13 0 40 -9 40 -29c0 -4 -1 -8 -3 -10z" />
    <glyph glyph-name="quotedblright" unicode="&#x201d;" horiz-adv-x="489" 
d="M71 502c13 20 45 95 47 125c0 2 -1 5 -2 7c-20 13 -43 36 -43 68c0 36 31 72 72 72s77 -33 77 -87c0 -55 -50 -165 -101 -220c-4 -2 -8 -4 -13 -4c-15 0 -39 8 -40 26c0 5 1 9 3 13zM269 502c13 20 45 95 47 125c0 2 -1 5 -2 7c-20 13 -43 37 -43 71c0 33 31 69 71 69
c42 0 78 -33 78 -87c0 -55 -50 -165 -102 -220c-3 -2 -8 -4 -12 -4c-19 0 -39 10 -40 26c0 5 1 9 3 13z" />
    <glyph glyph-name="quoteleft" unicode="&#x2018;" horiz-adv-x="292" 
d="M219 732c-13 -21 -44 -95 -46 -126c0 -2 1 -4 2 -6c20 -14 43 -37 43 -69c0 -35 -31 -71 -71 -71c-42 0 -79 33 -79 86c0 55 51 166 102 220c3 3 8 5 12 5c18 0 40 -11 40 -29c0 -4 -1 -8 -3 -10z" />
    <glyph glyph-name="quoteright" unicode="&#x2019;" horiz-adv-x="291" 
d="M71 502c13 20 45 95 47 125c0 2 -1 5 -2 7c-20 13 -43 36 -43 68c0 36 31 72 72 72s77 -33 77 -87c0 -55 -50 -165 -101 -220c-4 -2 -8 -4 -13 -4c-15 0 -39 8 -40 26c0 5 1 9 3 13z" />
    <glyph glyph-name="divide" unicode="&#xf7;" 
d="M582 309c0 -16 -13 -28 -29 -28h-477c-16 0 -28 12 -28 28v42c0 15 12 28 28 28h477c16 0 29 -13 29 -28v-42zM234 143c0 41 32 74 74 74s74 -33 74 -74c0 -40 -32 -74 -74 -74s-74 34 -74 74zM234 513c0 40 32 74 74 74s74 -34 74 -74c0 -41 -32 -74 -74 -74
s-74 33 -74 74z" />
    <glyph glyph-name="Euro" unicode="&#x20ac;" horiz-adv-x="728" 
d="M632 125l29 -42c3 -4 4 -9 4 -14c0 -50 -148 -81 -211 -81c-173 0 -299 96 -344 243h-65c-16 0 -28 13 -28 29v32c0 16 12 28 28 28h49c-1 13 -1 25 -1 37c0 13 0 25 1 37h-49c-16 0 -28 12 -28 28v32c0 16 12 28 28 28h65c45 149 171 245 344 245c63 0 211 -31 211 -81
c0 -5 -1 -10 -4 -14l-29 -42c-5 -8 -14 -13 -23 -13c-5 0 -11 2 -16 5c-42 25 -91 40 -139 40c-96 0 -179 -52 -219 -140h287c16 0 29 -12 29 -28v-32c0 -16 -13 -28 -29 -28h-313c-1 -12 -2 -24 -2 -37c0 -12 1 -25 2 -37h313c16 0 29 -12 29 -28v-32
c0 -16 -13 -29 -29 -29h-287c40 -86 123 -138 219 -138c48 0 97 15 139 40c5 3 11 4 16 4c9 0 18 -4 23 -12z" />
    <glyph glyph-name="guilsinglleft" unicode="&#x2039;" horiz-adv-x="369" 
d="M312 126c11 -11 12 -29 0 -41l-26 -25c-11 -12 -29 -11 -40 0l-209 210c-12 12 -12 28 0 39l209 209c11 12 29 12 41 0l25 -25c12 -11 11 -29 0 -40l-163 -164z" />
    <glyph glyph-name="guilsinglright" unicode="&#x203a;" horiz-adv-x="369" 
d="M37 126l163 163l-163 164c-11 11 -12 29 0 40l25 25c12 12 30 12 41 0l209 -209c12 -11 12 -27 0 -39l-209 -210c-11 -11 -29 -12 -40 0l-26 25c-12 12 -11 30 0 41z" />
    <glyph glyph-name="periodcentered" unicode="&#xb7;" horiz-adv-x="344" 
d="M189 263c-39 0 -73 35 -73 74c0 40 34 74 73 74c42 0 76 -34 76 -74c0 -39 -34 -74 -76 -74z" />
    <glyph glyph-name="quotesinglbase" unicode="&#x201a;" horiz-adv-x="291" 
d="M71 -132c13 21 45 95 47 126c0 2 -1 5 -2 6c-20 12 -43 36 -43 67c0 37 31 72 72 72s77 -32 77 -86s-50 -165 -101 -219c-5 0 -10 -7 -17 -7c-16 0 -34 15 -36 28c0 5 1 9 3 13z" />
    <glyph glyph-name="quotedblbase" unicode="&#x201e;" horiz-adv-x="488" 
d="M71 -132c13 21 45 95 47 126c0 2 -1 5 -2 6c-20 12 -43 36 -43 67c0 37 31 72 72 72s77 -32 77 -86s-50 -165 -101 -219c-5 0 -10 -7 -17 -7c-16 0 -34 15 -36 28c0 5 1 9 3 13zM268 -132c13 21 45 95 47 126c-12 23 -45 33 -45 73c0 37 30 72 70 72c42 0 79 -32 79 -86
s-50 -165 -102 -219c-3 -3 -7 -5 -12 -5c-13 0 -38 9 -40 26c0 5 1 9 3 13z" />
    <glyph glyph-name="circumflex" unicode="&#x2c6;" horiz-adv-x="519" 
d="M316 624l-56 83l-39 -61c-14 -22 -30 -38 -53 -38h-34c-14 0 -23 10 -23 22c0 5 1 11 5 16l66 99l13 17c6 8 20 14 28 14h77c9 0 22 -6 29 -14c0 0 83 -104 83 -132c0 -12 -8 -22 -23 -22h-41c-11 0 -25 6 -32 16z" />
    <glyph glyph-name="tilde" unicode="&#x2dc;" horiz-adv-x="505" 
d="M236 648c-23 17 -41 28 -56 28c-41 0 -31 -64 -64 -64h-25c-14 0 -25 14 -25 28c9 77 60 119 117 119c48 0 117 -62 145 -62c40 0 32 63 64 63h25c14 0 25 -15 25 -29c-8 -78 -58 -120 -116 -120c-30 0 -61 15 -90 37z" />
    <glyph glyph-name="macron" unicode="&#xaf;" horiz-adv-x="504" 
d="M432 692c0 -17 -13 -29 -29 -29h-298c-17 0 -29 12 -29 29v31c0 15 12 28 29 28h298c16 0 29 -13 29 -28v-31z" />
    <glyph glyph-name="cedilla" unicode="&#xb8;" horiz-adv-x="499" 
d="M336 -6l-2 -34c25 -17 36 -40 36 -61c0 -63 -67 -109 -150 -109c-43 0 -87 0 -87 33v17c0 15 14 28 30 28c14 0 27 -4 42 -4c51 0 74 18 74 43c0 19 -26 24 -26 48l7 47c0 7 16 23 28 23h13c17 0 35 -8 35 -27v-4z" />
    <glyph glyph-name="ring" unicode="&#x2da;" horiz-adv-x="498" 
d="M120 720c0 72 60 129 131 129s132 -58 132 -130c0 -73 -61 -130 -132 -130s-131 57 -131 131zM183 720c0 -40 31 -70 69 -70c37 0 68 31 68 70c0 38 -31 69 -68 69c-38 0 -69 -31 -69 -69z" />
    <glyph glyph-name="breve" unicode="&#x2d8;" horiz-adv-x="498" 
d="M387 775c15 0 26 -11 26 -25c0 -2 -1 -4 -1 -6c-16 -85 -77 -135 -163 -135c-85 0 -146 50 -162 135v4c0 15 10 27 25 27h34c10 0 23 -11 29 -25c7 -37 41 -63 73 -63c41 0 68 18 76 63c3 15 15 25 29 25h34z" />
    <glyph glyph-name="dotaccent" unicode="&#x2d9;" horiz-adv-x="510" 
d="M256 630c-33 0 -61 27 -61 62s28 61 61 61c35 0 64 -26 64 -61s-29 -62 -64 -62z" />
    <glyph glyph-name="hungarumlaut" unicode="&#x2dd;" horiz-adv-x="516" 
d="M279 737l-65 -92c-13 -17 -28 -37 -46 -37h-26c-15 0 -25 10 -25 23c0 4 1 8 3 12c15 34 29 68 43 102l9 17c6 8 18 14 27 14h60c15 0 24 -12 24 -25c0 -5 -1 -10 -4 -14zM469 737c-34 -46 -80 -129 -112 -129h-25c-15 0 -25 10 -25 23c0 4 1 8 3 12l44 102
c5 15 17 31 35 31h61c14 0 24 -11 24 -24c0 -5 -2 -10 -5 -15z" />
    <glyph glyph-name="ogonek" unicode="&#x2db;" horiz-adv-x="500" 
d="M366 -149v-13c0 -11 -10 -24 -20 -29c-20 -9 -32 -14 -68 -13c-87 1 -141 44 -141 132c0 25 3 48 8 69c2 12 15 25 28 25h17c20 0 32 -16 28 -33c-2 -12 -4 -29 -4 -42c0 -47 26 -76 72 -76c14 0 31 4 48 8c19 7 32 -9 32 -28z" />
    <glyph glyph-name="caron" unicode="&#x2c7;" horiz-adv-x="519" 
d="M262 677c26 38 52 99 97 99h30c11 0 23 -11 23 -23c0 -5 -1 -11 -5 -16l-6 -10c-30 -42 -69 -119 -101 -119h-77c-11 0 -28 9 -35 21l-6 10c-21 30 -71 91 -71 114c0 12 8 23 22 23h42c20 0 31 -16 39 -27z" />
    <glyph glyph-name="dagger" unicode="&#x2020;" horiz-adv-x="573" 
d="M238 700c0 17 12 29 29 29h40c16 0 29 -12 29 -29v-168h159c16 0 29 -13 29 -28v-32c0 -16 -13 -28 -29 -28h-159v-467c0 -16 -13 -28 -29 -28h-40c-17 0 -29 12 -29 28v467h-161c-16 0 -29 12 -29 28v31c0 16 13 29 29 29h161v168z" />
    <glyph glyph-name="daggerdbl" unicode="&#x2021;" horiz-adv-x="573" 
d="M238 700c0 17 12 29 29 29h40c15 0 29 -12 29 -29v-168h159c16 0 29 -13 29 -29v-31c0 -16 -13 -28 -29 -28h-159v-223h159c16 0 29 -13 29 -29v-31c0 -15 -13 -28 -29 -28h-159v-158c0 -16 -14 -29 -29 -29h-40c-17 0 -29 13 -29 29v158h-162c-15 0 -28 13 -28 28v31
c0 16 13 29 28 29h162v223h-162c-15 0 -28 12 -28 28v31c0 16 13 29 28 29h162v168z" />
    <glyph glyph-name="notequal" unicode="&#x2260;" 
d="M582 207c0 -16 -13 -28 -28 -28h-251l-61 -158c-5 -12 -18 -21 -31 -21h-30c-16 0 -28 12 -28 26c0 3 1 7 2 10l52 143h-131c-16 0 -28 12 -28 28v40c0 16 12 29 28 29h170c14 39 29 78 43 118h-213c-16 0 -28 13 -28 28v41c0 16 12 29 28 29h250c20 52 41 104 61 157
c5 12 18 21 30 21h33c14 0 27 -13 27 -28c0 -3 0 -5 -1 -8l-56 -142h134c15 0 28 -13 28 -29v-41c0 -15 -13 -28 -28 -28h-171c-14 -40 -29 -79 -44 -118h215c15 0 28 -13 28 -29v-40z" />
    <glyph glyph-name="approxequal" unicode="&#x2248;" 
d="M579 279c5 -5 8 -13 8 -21c0 -5 -1 -9 -3 -13c-31 -67 -82 -113 -160 -113c-87 0 -171 86 -228 86c-34 0 -58 -21 -80 -58c-6 -10 -15 -14 -25 -14c-7 0 -15 3 -20 9l-21 17c-5 3 -7 11 -7 19c0 5 1 10 3 13c19 68 90 116 159 116c90 0 167 -83 229 -83c31 0 62 19 87 51
c6 8 15 12 24 12c7 0 14 -2 20 -8zM50 380c-4 5 -7 13 -7 20c0 5 1 9 3 13c27 67 83 115 157 115c89 0 169 -84 231 -84c32 0 60 24 81 56c5 9 14 13 23 13c10 0 49 -21 49 -46c0 -5 -1 -9 -3 -13c-32 -68 -83 -113 -161 -113c-86 0 -170 83 -227 83c-32 0 -62 -19 -86 -52
c-7 -9 -17 -13 -26 -13c-13 0 -24 14 -34 21z" />
    <glyph glyph-name="lessequal" unicode="&#x2264;" 
d="M576 602c0 -13 -11 -28 -23 -33l-30 -12c-109 -44 -218 -89 -328 -133l358 -148c12 -5 23 -18 23 -33v-45c0 -16 -11 -27 -25 -27c-4 0 -8 1 -12 3l-467 198c-12 5 -22 21 -22 34v35c0 12 10 28 22 33l467 199c4 2 8 2 11 2c15 0 26 -11 26 -26v-47zM580 46
c0 -16 -13 -29 -29 -29h-472c-17 0 -29 13 -29 29v41c0 15 12 28 29 28h472c16 0 29 -13 29 -28v-41z" />
    <glyph glyph-name="greaterequal" unicode="&#x2265;" 
d="M54 602v47c0 15 11 26 25 26c4 0 8 0 12 -2l465 -198c13 -6 24 -22 24 -34v-35c0 -30 -33 -37 -54 -46c-145 -62 -290 -125 -435 -186c-4 -2 -8 -3 -12 -3c-14 0 -25 11 -25 27v45c0 30 36 39 56 47l324 134l-357 145c-12 5 -23 20 -23 33zM50 46v41c0 15 13 28 30 28
h471c16 0 29 -13 29 -28v-41c0 -16 -13 -29 -29 -29h-471c-17 0 -30 13 -30 29z" />
    <glyph glyph-name="dotlessi" unicode="&#x131;" horiz-adv-x="288" 
d="M199 28c0 -16 -12 -28 -28 -28h-54c-17 0 -29 12 -29 28v469c0 15 12 28 29 28h54c16 0 28 -13 28 -28v-469z" />
    <glyph glyph-name="a" unicode="a" horiz-adv-x="583" 
d="M384 200v46h-20c-113 0 -200 -19 -200 -90c0 -48 33 -75 92 -75c54 0 128 49 128 119zM382 324v17c0 55 -25 103 -108 103c-67 0 -126 -27 -141 -27c-10 0 -18 5 -22 13l-15 36c-1 3 -2 5 -2 8c0 36 101 63 197 63c101 0 203 -59 203 -212v-297c0 -16 -12 -28 -29 -28
h-47c-17 0 -29 12 -29 30v36h-9c-25 -43 -88 -78 -146 -78c-100 0 -181 64 -181 160c0 151 148 176 299 176h30z" />
    <glyph glyph-name="fraction" unicode="&#x2044;" horiz-adv-x="801" 
d="M645 681l-386 -655c-9 -16 -25 -26 -42 -26h-21c-13 0 -22 10 -22 22c0 4 1 8 3 12l387 656c9 16 25 25 42 25h20c13 0 22 -10 22 -22c0 -4 -1 -8 -3 -12z" />
    <glyph glyph-name="perthousand" unicode="&#x2030;" horiz-adv-x="1148" 
d="M185 723c93 0 145 -59 145 -197c0 -139 -52 -198 -145 -198c-92 0 -144 59 -144 198c0 138 52 197 144 197zM185 402c43 0 67 37 67 124c0 85 -24 122 -67 122c-41 0 -65 -37 -65 -122c0 -87 24 -124 65 -124zM645 681l-387 -655c-9 -16 -25 -26 -42 -26h-21
c-12 0 -21 10 -21 22c0 4 1 8 3 12l386 656c9 16 25 25 42 25h20c13 0 23 -10 23 -22c0 -4 -1 -8 -3 -12zM631 388c93 0 145 -59 145 -197c0 -139 -52 -197 -145 -197c-92 0 -144 58 -144 197c0 138 52 197 144 197zM631 67c43 0 67 37 67 124c0 85 -24 122 -67 122
c-42 0 -66 -37 -66 -122c0 -87 24 -124 66 -124zM967 388c93 0 146 -59 146 -197c0 -139 -53 -197 -146 -197c-91 0 -144 58 -144 197c0 138 53 197 144 197zM967 67c43 0 67 37 67 124c0 85 -24 122 -67 122c-41 0 -65 -37 -65 -122c0 -87 24 -124 65 -124z" />
    <glyph glyph-name="OE" unicode="&#x152;" horiz-adv-x="1256" 
d="M696 715h462c16 0 29 -12 29 -28v-48c0 -16 -13 -29 -29 -29h-377v-192h331c15 0 28 -13 28 -28v-48c0 -16 -13 -29 -28 -29h-331v-208h377c16 0 29 -13 29 -29v-48c0 -16 -13 -28 -29 -28h-462c-17 0 -29 11 -29 27v60c-63 -63 -149 -99 -244 -99
c-193 0 -360 147 -360 367c0 202 144 372 360 372c101 0 185 -38 244 -100v61c0 16 12 27 29 27zM423 93c136 0 244 109 244 262c0 159 -108 267 -244 267s-244 -108 -244 -267c0 -153 108 -262 244 -262z" />
    <glyph glyph-name="oe" unicode="&#x153;" horiz-adv-x="987" 
d="M932 230h-352c0 -85 74 -148 152 -148c51 0 109 15 148 35c4 2 7 2 11 2c21 0 42 -35 42 -56c0 -46 -121 -75 -200 -75c-96 0 -170 33 -214 97c-47 -61 -120 -97 -204 -97c-151 0 -263 111 -263 273c0 160 112 276 263 276c84 0 158 -38 205 -100c46 65 120 99 211 99
c133 0 230 -89 230 -278c0 -15 -13 -28 -29 -28zM315 83c87 0 151 71 151 179s-64 179 -151 179c-86 0 -150 -71 -150 -180c0 -107 64 -178 150 -178zM722 443c-69 0 -125 -46 -139 -131h265c0 85 -62 131 -126 131z" />
    <glyph glyph-name="Adieresis" unicode="&#xc4;" horiz-adv-x="740" 
d="M724 31c7 -15 -5 -31 -23 -31h-65c-16 0 -29 11 -36 27l-62 149h-337l-62 -149c-8 -16 -20 -27 -36 -27h-65c-17 0 -29 16 -22 31l293 660c6 15 19 24 34 24h53c15 0 28 -9 34 -24zM243 274h254c-52 120 -106 266 -128 317c-21 -51 -75 -197 -126 -317zM270 820
c-35 0 -62 28 -62 62c0 35 27 62 62 62c32 0 62 -27 62 -62c0 -34 -30 -62 -62 -62zM468 820c-33 0 -62 28 -62 62c0 35 29 62 62 62c34 0 63 -27 63 -62c0 -34 -29 -62 -63 -62z" />
    <glyph glyph-name="Aring" unicode="&#xc5;" horiz-adv-x="740" 
d="M239 793c0 72 60 129 131 129s131 -58 131 -130c0 -48 -28 -90 -66 -111l285 -641c2 -8 5 -12 5 -19c0 -12 -8 -21 -24 -21h-64c-15 0 -30 10 -37 26c-21 49 -41 100 -62 150h-336c-22 -50 -42 -100 -63 -150c-7 -16 -20 -26 -36 -26h-65c-15 0 -25 9 -25 22
c0 6 4 10 6 18l286 640c-39 22 -66 64 -66 113zM494 277c-49 114 -102 256 -124 310c-23 -52 -75 -195 -125 -310h249zM301 793c0 -39 32 -70 70 -70c37 0 68 31 68 70s-31 69 -68 69c-38 0 -70 -30 -70 -69z" />
    <glyph glyph-name="Ccedilla" unicode="&#xc7;" horiz-adv-x="741" 
d="M460 -9c0 -10 -1 -20 -1 -30c25 -17 36 -40 36 -61c0 -63 -67 -109 -150 -109c-42 0 -86 -2 -86 33v17c0 15 14 28 29 28c14 0 28 -4 42 -4c50 0 74 20 74 43c0 19 -26 24 -26 48l4 34c-194 18 -319 164 -319 368c0 217 143 369 361 369c98 0 186 -36 252 -99
c7 -6 10 -15 10 -23c0 -6 -2 -12 -6 -17l-34 -37c-5 -6 -12 -9 -20 -9c-7 0 -14 3 -20 8c-47 43 -116 72 -182 72c-136 0 -247 -105 -247 -264s111 -265 247 -265c66 0 135 28 182 71c6 5 13 7 21 7c16 0 59 -41 59 -61c0 -9 -3 -17 -10 -24c-58 -54 -133 -87 -216 -95z" />
    <glyph glyph-name="Eacute" unicode="&#xc9;" horiz-adv-x="687" 
d="M127 715h462c16 0 28 -12 28 -28v-48c0 -16 -12 -29 -28 -29h-377v-192h331c15 0 28 -13 28 -28v-48c0 -16 -13 -29 -28 -29h-331v-208h377c16 0 28 -13 28 -29v-48c0 -16 -12 -28 -28 -28h-462c-17 0 -29 12 -29 28v659c0 16 12 28 29 28zM440 929l-74 -100
c-12 -17 -25 -31 -44 -31h-31c-18 0 -26 15 -17 33l52 114c7 16 20 21 31 21h64c19 0 30 -22 19 -37z" />
    <glyph glyph-name="Ntilde" unicode="&#xd1;" horiz-adv-x="796" 
d="M669 715c16 0 28 -12 28 -29v-658c0 -15 -12 -28 -28 -28h-60c-13 0 -30 9 -38 22c-2 2 -267 373 -360 503h-6c2 -25 7 -94 7 -153v-344c0 -15 -12 -28 -28 -28h-57c-16 0 -28 13 -28 28v658c0 17 12 29 28 29h60c14 0 29 -10 38 -23l360 -503h6c-2 24 -7 88 -7 140v357
c0 17 12 29 28 29h57zM378 838c-23 17 -41 28 -56 28c-41 0 -31 -64 -64 -64h-25c-14 0 -25 14 -25 28c9 77 60 119 117 119c48 0 117 -62 145 -62c40 0 32 63 64 63h25c14 0 25 -15 25 -29c-8 -78 -58 -120 -116 -120c-30 0 -61 15 -90 37z" />
    <glyph glyph-name="Odieresis" unicode="&#xd6;" horiz-adv-x="847" 
d="M783 355c0 -220 -166 -367 -359 -367c-194 0 -360 147 -360 367c0 202 144 372 360 372c215 0 359 -170 359 -372zM424 93c136 0 243 110 243 262c0 160 -107 267 -243 267c-137 0 -244 -107 -244 -267c0 -152 107 -262 244 -262zM324 820c-35 0 -62 28 -62 62
c0 35 27 62 62 62c32 0 62 -27 62 -62c0 -34 -30 -62 -62 -62zM522 820c-33 0 -62 28 -62 62c0 35 29 62 62 62c34 0 63 -27 63 -62c0 -34 -29 -62 -63 -62z" />
    <glyph glyph-name="Udieresis" unicode="&#xdc;" horiz-adv-x="812" 
d="M691 715c16 0 28 -12 28 -28v-376c0 -194 -128 -323 -312 -323c-188 0 -314 130 -314 323v375c0 17 12 29 28 29h57c16 0 28 -12 28 -29v-365c0 -134 75 -228 201 -228c125 0 199 94 199 228v365c0 17 12 29 28 29h57zM307 820c-35 0 -62 28 -62 62c0 35 27 62 62 62
c32 0 62 -27 62 -62c0 -34 -30 -62 -62 -62zM505 820c-33 0 -62 28 -62 62c0 35 29 62 62 62c34 0 63 -27 63 -62c0 -34 -29 -62 -63 -62z" />
    <glyph glyph-name="aacute" unicode="&#xe1;" horiz-adv-x="583" 
d="M384 200v46h-20c-113 0 -200 -19 -200 -90c0 -48 33 -75 92 -75c54 0 128 49 128 119zM382 324v17c0 55 -25 103 -108 103c-67 0 -126 -27 -141 -27c-10 0 -18 5 -22 13l-15 36c-1 3 -2 5 -2 8c0 36 101 63 197 63c101 0 203 -59 203 -212v-297c0 -16 -12 -28 -29 -28
h-47c-17 0 -29 12 -29 30v36h-9c-25 -43 -88 -78 -146 -78c-100 0 -181 64 -181 160c0 151 148 176 299 176h30zM380 739l-74 -100c-12 -17 -25 -31 -44 -31h-31c-18 0 -26 15 -17 33l52 114c7 16 20 21 31 21h64c19 0 30 -22 19 -37z" />
    <glyph glyph-name="agrave" unicode="&#xe0;" horiz-adv-x="583" 
d="M384 200v46h-20c-113 0 -200 -19 -200 -90c0 -48 33 -75 92 -75c54 0 128 49 128 119zM382 324v17c0 55 -25 103 -108 103c-67 0 -126 -27 -141 -27c-10 0 -18 5 -22 13l-15 36c-1 3 -2 5 -2 8c0 36 101 63 197 63c101 0 203 -59 203 -212v-297c0 -16 -12 -28 -29 -28
h-47c-17 0 -29 12 -29 30v36h-9c-25 -43 -88 -78 -146 -78c-100 0 -181 64 -181 160c0 151 148 176 299 176h30zM268 639l-74 100c-11 15 0 37 19 37h64c11 0 24 -5 31 -21l52 -114c9 -18 1 -33 -17 -33h-31c-19 0 -32 14 -44 31z" />
    <glyph glyph-name="acircumflex" unicode="&#xe2;" horiz-adv-x="583" 
d="M384 200v46h-20c-113 0 -200 -19 -200 -90c0 -48 33 -75 92 -75c54 0 128 49 128 119zM382 324v17c0 55 -25 103 -108 103c-67 0 -126 -27 -141 -27c-10 0 -18 5 -22 13l-15 36c-1 3 -2 5 -2 8c0 36 101 63 197 63c101 0 203 -59 203 -212v-297c0 -16 -12 -28 -29 -28
h-47c-17 0 -29 12 -29 30v36h-9c-25 -43 -88 -78 -146 -78c-100 0 -181 64 -181 160c0 151 148 176 299 176h30zM343 624l-56 83l-39 -61c-14 -22 -30 -38 -53 -38h-34c-14 0 -23 10 -23 22c0 5 1 11 5 16l66 99l13 17c6 8 20 14 28 14h77c9 0 22 -6 29 -14
c0 0 83 -104 83 -132c0 -12 -8 -22 -23 -22h-41c-11 0 -25 6 -32 16z" />
    <glyph glyph-name="adieresis" unicode="&#xe4;" horiz-adv-x="583" 
d="M384 200v46h-20c-113 0 -200 -19 -200 -90c0 -48 33 -75 92 -75c54 0 128 49 128 119zM382 324v17c0 55 -25 103 -108 103c-67 0 -126 -27 -141 -27c-10 0 -18 5 -22 13l-15 36c-1 3 -2 5 -2 8c0 36 101 63 197 63c101 0 203 -59 203 -212v-297c0 -16 -12 -28 -29 -28
h-47c-17 0 -29 12 -29 30v36h-9c-25 -43 -88 -78 -146 -78c-100 0 -181 64 -181 160c0 151 148 176 299 176h30zM189 630c-35 0 -62 28 -62 62c0 35 27 62 62 62c32 0 62 -27 62 -62c0 -34 -30 -62 -62 -62zM387 630c-33 0 -62 28 -62 62c0 35 29 62 62 62
c34 0 63 -27 63 -62c0 -34 -29 -62 -63 -62z" />
    <glyph glyph-name="atilde" unicode="&#xe3;" horiz-adv-x="583" 
d="M384 200v46h-20c-113 0 -200 -19 -200 -90c0 -48 33 -75 92 -75c54 0 128 49 128 119zM382 324v17c0 55 -25 103 -108 103c-67 0 -126 -27 -141 -27c-10 0 -18 5 -22 13l-15 36c-1 3 -2 5 -2 8c0 36 101 63 197 63c101 0 203 -59 203 -212v-297c0 -16 -12 -28 -29 -28
h-47c-17 0 -29 12 -29 30v36h-9c-25 -43 -88 -78 -146 -78c-100 0 -181 64 -181 160c0 151 148 176 299 176h30zM270 648c-23 17 -41 28 -56 28c-41 0 -31 -64 -64 -64h-25c-14 0 -25 14 -25 28c9 77 60 119 117 119c48 0 117 -62 145 -62c40 0 32 63 64 63h25
c14 0 25 -15 25 -29c-8 -78 -58 -120 -116 -120c-30 0 -61 15 -90 37z" />
    <glyph glyph-name="aring" unicode="&#xe5;" horiz-adv-x="583" 
d="M384 200v46h-20c-113 0 -200 -19 -200 -90c0 -48 33 -75 92 -75c54 0 128 49 128 119zM382 324v17c0 55 -25 103 -108 103c-67 0 -126 -27 -141 -27c-10 0 -18 5 -22 13l-15 36c-1 3 -2 5 -2 8c0 36 101 63 197 63c101 0 203 -59 203 -212v-297c0 -16 -12 -28 -29 -28
h-47c-17 0 -29 12 -29 30v36h-9c-25 -43 -88 -78 -146 -78c-100 0 -181 64 -181 160c0 151 148 176 299 176h30zM156 720c0 72 60 129 131 129s132 -58 132 -130c0 -73 -61 -130 -132 -130s-131 57 -131 131zM219 720c0 -40 31 -70 69 -70c37 0 68 31 68 70
c0 38 -31 69 -68 69c-38 0 -69 -31 -69 -69z" />
    <glyph glyph-name="ccedilla" unicode="&#xe7;" horiz-adv-x="542" 
d="M477 140c13 -16 36 -38 36 -55c0 -8 -3 -15 -8 -20c-45 -41 -96 -66 -155 -74l-2 -30c24 -17 35 -40 35 -61c0 -63 -66 -109 -150 -109c-41 0 -86 -2 -86 33v17c0 15 14 28 29 28c12 0 27 -4 43 -4c51 0 73 21 73 43c0 19 -25 24 -25 48l5 35c-134 13 -219 110 -219 272
c0 177 102 274 257 274c77 0 140 -28 194 -77c6 -6 9 -14 9 -22c0 -7 -2 -14 -7 -19l-29 -34c-6 -6 -13 -8 -21 -8c-7 0 -15 2 -20 5c-38 32 -80 56 -126 56c-86 0 -145 -61 -145 -175c0 -113 59 -176 145 -176c46 0 88 23 126 55c5 4 12 6 19 6c8 0 16 -3 22 -8z" />
    <glyph glyph-name="eacute" unicode="&#xe9;" horiz-adv-x="606" 
d="M309 446c-69 0 -128 -48 -141 -136h268c0 89 -62 136 -127 136zM519 232h-354c1 -85 75 -151 153 -151c52 0 111 14 150 34c4 2 7 2 11 2c23 0 40 -36 40 -55c0 -45 -121 -74 -199 -74c-163 0 -267 98 -267 271s104 278 258 278c137 0 237 -85 237 -276
c0 -16 -14 -29 -29 -29zM418 739l-74 -100c-12 -17 -25 -31 -44 -31h-31c-18 0 -26 15 -17 33l52 114c7 16 20 21 31 21h64c19 0 30 -22 19 -37z" />
    <glyph glyph-name="egrave" unicode="&#xe8;" horiz-adv-x="606" 
d="M309 446c-69 0 -128 -48 -141 -136h268c0 89 -62 136 -127 136zM519 232h-354c1 -85 75 -151 153 -151c52 0 111 14 150 34c4 2 7 2 11 2c23 0 40 -36 40 -55c0 -45 -121 -74 -199 -74c-163 0 -267 98 -267 271s104 278 258 278c137 0 237 -85 237 -276
c0 -16 -14 -29 -29 -29zM277 639l-74 100c-11 15 0 37 19 37h64c11 0 24 -5 31 -21l52 -114c9 -18 1 -33 -17 -33h-31c-19 0 -32 14 -44 31z" />
    <glyph glyph-name="ecircumflex" unicode="&#xea;" horiz-adv-x="606" 
d="M309 446c-69 0 -128 -48 -141 -136h268c0 89 -62 136 -127 136zM519 232h-354c1 -85 75 -151 153 -151c52 0 111 14 150 34c4 2 7 2 11 2c23 0 40 -36 40 -55c0 -45 -121 -74 -199 -74c-163 0 -267 98 -267 271s104 278 258 278c137 0 237 -85 237 -276
c0 -16 -14 -29 -29 -29zM360 624l-56 83l-39 -61c-14 -22 -30 -38 -53 -38h-34c-14 0 -23 10 -23 22c0 5 1 11 5 16l66 99l13 17c6 8 20 14 28 14h77c9 0 22 -6 29 -14c0 0 83 -104 83 -132c0 -12 -8 -22 -23 -22h-41c-11 0 -25 6 -32 16z" />
    <glyph glyph-name="edieresis" unicode="&#xeb;" horiz-adv-x="606" 
d="M309 446c-69 0 -128 -48 -141 -136h268c0 89 -62 136 -127 136zM519 232h-354c1 -85 75 -151 153 -151c52 0 111 14 150 34c4 2 7 2 11 2c23 0 40 -36 40 -55c0 -45 -121 -74 -199 -74c-163 0 -267 98 -267 271s104 278 258 278c137 0 237 -85 237 -276
c0 -16 -14 -29 -29 -29zM206 630c-35 0 -62 28 -62 62c0 35 27 62 62 62c32 0 62 -27 62 -62c0 -34 -30 -62 -62 -62zM404 630c-33 0 -62 28 -62 62c0 35 29 62 62 62c34 0 63 -27 63 -62c0 -34 -29 -62 -63 -62z" />
    <glyph glyph-name="iacute" unicode="&#xed;" horiz-adv-x="288" 
d="M251 739l-74 -100c-12 -17 -25 -31 -44 -31h-31c-18 0 -26 15 -17 33l52 114c7 16 20 21 31 21h64c19 0 30 -22 19 -37zM199 28c0 -16 -12 -28 -28 -28h-54c-17 0 -29 12 -29 28v469c0 15 12 28 29 28h54c16 0 28 -13 28 -28v-469z" />
    <glyph glyph-name="igrave" unicode="&#xec;" horiz-adv-x="288" 
d="M113 639l-74 100c-11 15 0 37 19 37h64c11 0 24 -5 31 -21l52 -114c9 -18 1 -33 -17 -33h-31c-19 0 -32 14 -44 31zM199 28c0 -16 -12 -28 -28 -28h-54c-17 0 -29 12 -29 28v469c0 15 12 28 29 28h54c16 0 28 -13 28 -28v-469z" />
    <glyph glyph-name="icircumflex" unicode="&#xee;" horiz-adv-x="288" 
d="M199 28c0 -16 -12 -28 -28 -28h-54c-17 0 -29 12 -29 28v469c0 15 12 28 29 28h54c16 0 28 -13 28 -28v-469zM200 624l-56 83l-39 -61c-14 -22 -30 -38 -53 -38h-34c-14 0 -23 10 -23 22c0 5 1 11 5 16l66 99l13 17c6 8 20 14 28 14h77c9 0 22 -6 29 -14
c0 0 83 -104 83 -132c0 -12 -8 -22 -23 -22h-41c-11 0 -25 6 -32 16z" />
    <glyph glyph-name="idieresis" unicode="&#xef;" horiz-adv-x="288" 
d="M45 630c-35 0 -62 28 -62 62c0 35 27 62 62 62c32 0 62 -27 62 -62c0 -34 -30 -62 -62 -62zM243 630c-33 0 -62 28 -62 62c0 35 29 62 62 62c34 0 63 -27 63 -62c0 -34 -29 -62 -63 -62zM199 28c0 -16 -12 -28 -28 -28h-54c-17 0 -29 12 -29 28v469c0 15 12 28 29 28h54
c16 0 28 -13 28 -28v-469z" />
    <glyph glyph-name="ntilde" unicode="&#xf1;" horiz-adv-x="620" 
d="M348 537c120 0 183 -75 183 -207v-302c0 -16 -12 -28 -28 -28h-54c-16 0 -29 12 -29 28v288c0 77 -29 121 -96 121c-69 0 -123 -52 -123 -110v-299c0 -16 -12 -28 -28 -28h-54c-16 0 -29 12 -29 28v469c0 15 13 28 29 28h51c16 0 28 -13 28 -28v-28c3 -2 7 -3 9 -5
c28 44 85 73 141 73zM289 648c-23 17 -41 28 -56 28c-41 0 -31 -64 -64 -64h-25c-14 0 -25 14 -25 28c9 77 60 119 117 119c48 0 117 -62 145 -62c40 0 32 63 64 63h25c14 0 25 -15 25 -29c-8 -78 -58 -120 -116 -120c-30 0 -61 15 -90 37z" />
    <glyph glyph-name="oacute" unicode="&#xf3;" horiz-adv-x="634" 
d="M316 83c87 0 151 71 151 180c0 107 -64 178 -151 178c-86 0 -150 -71 -150 -179s64 -179 150 -179zM316 537c150 0 264 -116 264 -273c0 -163 -114 -276 -264 -276c-151 0 -262 111 -262 274c0 159 111 275 262 275zM423 739l-74 -100c-12 -17 -25 -31 -44 -31h-31
c-18 0 -26 15 -17 33l52 114c7 16 20 21 31 21h64c19 0 30 -22 19 -37z" />
    <glyph glyph-name="ograve" unicode="&#xf2;" horiz-adv-x="634" 
d="M316 83c87 0 151 71 151 180c0 107 -64 178 -151 178c-86 0 -150 -71 -150 -179s64 -179 150 -179zM316 537c150 0 264 -116 264 -273c0 -163 -114 -276 -264 -276c-151 0 -262 111 -262 274c0 159 111 275 262 275zM283 639l-74 100c-11 15 0 37 19 37h64
c11 0 24 -5 31 -21l52 -114c9 -18 1 -33 -17 -33h-31c-19 0 -32 14 -44 31z" />
    <glyph glyph-name="ocircumflex" unicode="&#xf4;" horiz-adv-x="634" 
d="M316 83c87 0 151 71 151 180c0 107 -64 178 -151 178c-86 0 -150 -71 -150 -179s64 -179 150 -179zM316 537c150 0 264 -116 264 -273c0 -163 -114 -276 -264 -276c-151 0 -262 111 -262 274c0 159 111 275 262 275zM373 624l-56 83l-39 -61c-14 -22 -30 -38 -53 -38h-34
c-14 0 -23 10 -23 22c0 5 1 11 5 16l66 99l13 17c6 8 20 14 28 14h77c9 0 22 -6 29 -14c0 0 83 -104 83 -132c0 -12 -8 -22 -23 -22h-41c-11 0 -25 6 -32 16z" />
    <glyph glyph-name="odieresis" unicode="&#xf6;" horiz-adv-x="634" 
d="M316 83c87 0 151 71 151 180c0 107 -64 178 -151 178c-86 0 -150 -71 -150 -179s64 -179 150 -179zM316 537c150 0 264 -116 264 -273c0 -163 -114 -276 -264 -276c-151 0 -262 111 -262 274c0 159 111 275 262 275zM218 630c-35 0 -62 28 -62 62c0 35 27 62 62 62
c32 0 62 -27 62 -62c0 -34 -30 -62 -62 -62zM416 630c-33 0 -62 28 -62 62c0 35 29 62 62 62c34 0 63 -27 63 -62c0 -34 -29 -62 -63 -62z" />
    <glyph glyph-name="otilde" unicode="&#xf5;" horiz-adv-x="634" 
d="M316 83c87 0 151 71 151 180c0 107 -64 178 -151 178c-86 0 -150 -71 -150 -179s64 -179 150 -179zM316 537c150 0 264 -116 264 -273c0 -163 -114 -276 -264 -276c-151 0 -262 111 -262 274c0 159 111 275 262 275zM297 648c-23 17 -41 28 -56 28c-41 0 -31 -64 -64 -64
h-25c-14 0 -25 14 -25 28c9 77 60 119 117 119c48 0 117 -62 145 -62c40 0 32 63 64 63h25c14 0 25 -15 25 -29c-8 -78 -58 -120 -116 -120c-30 0 -61 15 -90 37z" />
    <glyph glyph-name="uacute" unicode="&#xfa;" horiz-adv-x="618" 
d="M271 -12c-120 0 -183 75 -183 207v302c0 15 12 28 29 28h54c15 0 28 -13 28 -28v-288c0 -78 29 -121 96 -121c69 0 123 51 123 109v300c0 15 12 28 29 28h54c15 0 28 -13 28 -28v-469c0 -16 -13 -28 -28 -28h-51c-17 0 -29 12 -29 28v27l-9 6c-28 -44 -85 -73 -141 -73z
M422 739l-74 -100c-12 -17 -25 -31 -44 -31h-31c-18 0 -26 15 -17 33l52 114c7 16 20 21 31 21h64c19 0 30 -22 19 -37z" />
    <glyph glyph-name="ugrave" unicode="&#xf9;" horiz-adv-x="618" 
d="M271 -12c-120 0 -183 75 -183 207v302c0 15 12 28 29 28h54c15 0 28 -13 28 -28v-288c0 -78 29 -121 96 -121c69 0 123 51 123 109v300c0 15 12 28 29 28h54c15 0 28 -13 28 -28v-469c0 -16 -13 -28 -28 -28h-51c-17 0 -29 12 -29 28v27l-9 6c-28 -44 -85 -73 -141 -73z
M276 639l-74 100c-11 15 0 37 19 37h64c11 0 24 -5 31 -21l52 -114c9 -18 1 -33 -17 -33h-31c-19 0 -32 14 -44 31z" />
    <glyph glyph-name="ucircumflex" unicode="&#xfb;" horiz-adv-x="618" 
d="M271 -12c-120 0 -183 75 -183 207v302c0 15 12 28 29 28h54c15 0 28 -13 28 -28v-288c0 -78 29 -121 96 -121c69 0 123 51 123 109v300c0 15 12 28 29 28h54c15 0 28 -13 28 -28v-469c0 -16 -13 -28 -28 -28h-51c-17 0 -29 12 -29 28v27l-9 6c-28 -44 -85 -73 -141 -73z
M365 624l-56 83l-39 -61c-14 -22 -30 -38 -53 -38h-34c-14 0 -23 10 -23 22c0 5 1 11 5 16l66 99l13 17c6 8 20 14 28 14h77c9 0 22 -6 29 -14c0 0 83 -104 83 -132c0 -12 -8 -22 -23 -22h-41c-11 0 -25 6 -32 16z" />
    <glyph glyph-name="udieresis" unicode="&#xfc;" horiz-adv-x="618" 
d="M271 -12c-120 0 -183 75 -183 207v302c0 15 12 28 29 28h54c15 0 28 -13 28 -28v-288c0 -78 29 -121 96 -121c69 0 123 51 123 109v300c0 15 12 28 29 28h54c15 0 28 -13 28 -28v-469c0 -16 -13 -28 -28 -28h-51c-17 0 -29 12 -29 28v27l-9 6c-28 -44 -85 -73 -141 -73z
M211 630c-35 0 -62 28 -62 62c0 35 27 62 62 62c32 0 62 -27 62 -62c0 -34 -30 -62 -62 -62zM409 630c-33 0 -62 28 -62 62c0 35 29 62 62 62c34 0 63 -27 63 -62c0 -34 -29 -62 -63 -62z" />
    <glyph glyph-name="Agrave" unicode="&#xc0;" horiz-adv-x="740" 
d="M724 31c7 -15 -5 -31 -23 -31h-65c-16 0 -29 11 -36 27l-62 149h-337l-62 -149c-8 -16 -20 -27 -36 -27h-65c-17 0 -29 16 -22 31l293 660c6 15 19 24 34 24h53c15 0 28 -9 34 -24zM243 274h254c-52 120 -106 266 -128 317c-21 -51 -75 -197 -126 -317zM330 829l-74 100
c-11 15 0 37 19 37h64c11 0 24 -5 31 -21l52 -114c9 -18 1 -33 -17 -33h-31c-19 0 -32 14 -44 31z" />
    <glyph glyph-name="Atilde" unicode="&#xc3;" horiz-adv-x="740" 
d="M724 31c7 -15 -5 -31 -23 -31h-65c-16 0 -29 11 -36 27l-62 149h-337l-62 -149c-8 -16 -20 -27 -36 -27h-65c-17 0 -29 16 -22 31l293 660c6 15 19 24 34 24h53c15 0 28 -9 34 -24zM243 274h254c-52 120 -106 266 -128 317c-21 -51 -75 -197 -126 -317zM350 838
c-23 17 -41 28 -56 28c-41 0 -31 -64 -64 -64h-25c-14 0 -25 14 -25 28c9 77 60 119 117 119c48 0 117 -62 145 -62c40 0 32 63 64 63h25c14 0 25 -15 25 -29c-8 -78 -58 -120 -116 -120c-30 0 -61 15 -90 37z" />
    <glyph glyph-name="Otilde" unicode="&#xd5;" horiz-adv-x="847" 
d="M783 355c0 -220 -166 -367 -359 -367c-194 0 -360 147 -360 367c0 202 144 372 360 372c215 0 359 -170 359 -372zM424 93c136 0 243 110 243 262c0 160 -107 267 -243 267c-137 0 -244 -107 -244 -267c0 -152 107 -262 244 -262zM405 838c-23 17 -41 28 -56 28
c-41 0 -31 -64 -64 -64h-25c-14 0 -25 14 -25 28c9 77 60 119 117 119c48 0 117 -62 145 -62c40 0 32 63 64 63h25c14 0 25 -15 25 -29c-8 -78 -58 -120 -116 -120c-30 0 -61 15 -90 37z" />
    <glyph glyph-name="ydieresis" unicode="&#xff;" horiz-adv-x="552" 
d="M516 490c-51 -131 -106 -270 -263 -669c-6 -14 -17 -22 -29 -22h-51c-17 0 -26 11 -26 25c0 4 1 7 2 11c18 46 29 75 72 180c-61 155 -120 313 -186 475c-2 3 -2 7 -2 10c0 14 10 25 26 25h57c22 0 24 -11 37 -44l84 -220c18 -47 31 -92 34 -104h12c13 41 21 73 33 105
l17 45c23 60 48 125 77 197c5 13 17 21 29 21h53c16 0 26 -11 26 -25c0 -3 -1 -7 -2 -10zM176 630c-35 0 -62 28 -62 62c0 35 27 62 62 62c32 0 62 -27 62 -62c0 -34 -30 -62 -62 -62zM374 630c-33 0 -62 28 -62 62c0 35 29 62 62 62c34 0 63 -27 63 -62
c0 -34 -29 -62 -63 -62z" />
    <glyph glyph-name="Ydieresis" unicode="&#x178;" horiz-adv-x="657" 
d="M634 715c20 0 31 -23 20 -39l-268 -390v-258c0 -15 -12 -28 -28 -28h-57c-16 0 -29 13 -29 28v258l-268 390c-11 16 0 39 21 39h58c16 0 34 -10 46 -26l200 -292l200 292c11 16 31 26 47 26h58zM229 820c-35 0 -62 28 -62 62c0 35 27 62 62 62c32 0 62 -27 62 -62
c0 -34 -30 -62 -62 -62zM427 820c-33 0 -62 28 -62 62c0 35 29 62 62 62c34 0 63 -27 63 -62c0 -34 -29 -62 -63 -62z" />
    <glyph glyph-name="Acircumflex" unicode="&#xc2;" horiz-adv-x="740" 
d="M724 31c7 -15 -5 -31 -23 -31h-65c-16 0 -29 11 -36 27l-62 149h-337l-62 -149c-8 -16 -20 -27 -36 -27h-65c-17 0 -29 16 -22 31l293 660c6 15 19 24 34 24h53c15 0 28 -9 34 -24zM243 274h254c-52 120 -106 266 -128 317c-21 -51 -75 -197 -126 -317zM424 814l-56 83
l-39 -61c-14 -22 -30 -38 -53 -38h-34c-14 0 -23 10 -23 22c0 5 1 11 5 16l66 99l13 17c6 8 20 14 28 14h77c9 0 22 -6 29 -14c0 0 83 -104 83 -132c0 -12 -8 -22 -23 -22h-41c-11 0 -25 6 -32 16z" />
    <glyph glyph-name="Ecircumflex" unicode="&#xca;" horiz-adv-x="687" 
d="M127 715h462c16 0 28 -12 28 -28v-48c0 -16 -12 -29 -28 -29h-377v-192h331c15 0 28 -13 28 -28v-48c0 -16 -13 -29 -28 -29h-331v-208h377c16 0 28 -13 28 -29v-48c0 -16 -12 -28 -28 -28h-462c-17 0 -29 12 -29 28v659c0 16 12 28 29 28zM405 814l-56 83l-39 -61
c-14 -22 -30 -38 -53 -38h-34c-14 0 -23 10 -23 22c0 5 1 11 5 16l66 99l13 17c6 8 20 14 28 14h77c9 0 22 -6 29 -14c0 0 83 -104 83 -132c0 -12 -8 -22 -23 -22h-41c-11 0 -25 6 -32 16z" />
    <glyph glyph-name="Aacute" unicode="&#xc1;" horiz-adv-x="740" 
d="M724 31c7 -15 -5 -31 -23 -31h-65c-16 0 -29 11 -36 27l-62 149h-337l-62 -149c-8 -16 -20 -27 -36 -27h-65c-17 0 -29 16 -22 31l293 660c6 15 19 24 34 24h53c15 0 28 -9 34 -24zM243 274h254c-52 120 -106 266 -128 317c-21 -51 -75 -197 -126 -317zM492 929l-74 -100
c-12 -17 -25 -31 -44 -31h-31c-18 0 -26 15 -17 33l52 114c7 16 20 21 31 21h64c19 0 30 -22 19 -37z" />
    <glyph glyph-name="Edieresis" unicode="&#xcb;" horiz-adv-x="687" 
d="M127 715h462c16 0 28 -12 28 -28v-48c0 -16 -12 -29 -28 -29h-377v-192h331c15 0 28 -13 28 -28v-48c0 -16 -13 -29 -28 -29h-331v-208h377c16 0 28 -13 28 -29v-48c0 -16 -12 -28 -28 -28h-462c-17 0 -29 12 -29 28v659c0 16 12 28 29 28zM251 820c-35 0 -62 28 -62 62
c0 35 27 62 62 62c32 0 62 -27 62 -62c0 -34 -30 -62 -62 -62zM449 820c-33 0 -62 28 -62 62c0 35 29 62 62 62c34 0 63 -27 63 -62c0 -34 -29 -62 -63 -62z" />
    <glyph glyph-name="Egrave" unicode="&#xc8;" horiz-adv-x="687" 
d="M127 715h462c16 0 28 -12 28 -28v-48c0 -16 -12 -29 -28 -29h-377v-192h331c15 0 28 -13 28 -28v-48c0 -16 -13 -29 -28 -29h-331v-208h377c16 0 28 -13 28 -29v-48c0 -16 -12 -28 -28 -28h-462c-17 0 -29 12 -29 28v659c0 16 12 28 29 28zM321 829l-74 100
c-11 15 0 37 19 37h64c11 0 24 -5 31 -21l52 -114c9 -18 1 -33 -17 -33h-31c-19 0 -32 14 -44 31z" />
    <glyph glyph-name="Iacute" unicode="&#xcd;" horiz-adv-x="303" 
d="M209 687v-659c0 -16 -12 -28 -29 -28h-56c-17 0 -29 12 -29 28v659c0 16 12 28 29 28h56c17 0 29 -12 29 -28zM258 929l-74 -100c-12 -17 -25 -31 -44 -31h-31c-18 0 -26 15 -17 33l52 114c7 16 20 21 31 21h64c19 0 30 -22 19 -37z" />
    <glyph glyph-name="Icircumflex" unicode="&#xce;" horiz-adv-x="303" 
d="M209 687v-659c0 -16 -12 -28 -29 -28h-56c-17 0 -29 12 -29 28v659c0 16 12 28 29 28h56c17 0 29 -12 29 -28zM208 814l-56 83l-39 -61c-14 -22 -30 -38 -53 -38h-34c-14 0 -23 10 -23 22c0 5 1 11 5 16l66 99l13 17c6 8 20 14 28 14h77c9 0 22 -6 29 -14
c0 0 83 -104 83 -132c0 -12 -8 -22 -23 -22h-41c-11 0 -25 6 -32 16z" />
    <glyph glyph-name="Idieresis" unicode="&#xcf;" horiz-adv-x="303" 
d="M209 687v-659c0 -16 -12 -28 -29 -28h-56c-17 0 -29 12 -29 28v659c0 16 12 28 29 28h56c17 0 29 -12 29 -28zM53 820c-35 0 -62 28 -62 62c0 35 27 62 62 62c32 0 62 -27 62 -62c0 -34 -30 -62 -62 -62zM251 820c-33 0 -62 28 -62 62c0 35 29 62 62 62
c34 0 63 -27 63 -62c0 -34 -29 -62 -63 -62z" />
    <glyph glyph-name="Igrave" unicode="&#xcc;" horiz-adv-x="303" 
d="M209 687v-659c0 -16 -12 -28 -29 -28h-56c-17 0 -29 12 -29 28v659c0 16 12 28 29 28h56c17 0 29 -12 29 -28zM119 829l-74 100c-11 15 0 37 19 37h64c11 0 24 -5 31 -21l52 -114c9 -18 1 -33 -17 -33h-31c-19 0 -32 14 -44 31z" />
    <glyph glyph-name="Oacute" unicode="&#xd3;" horiz-adv-x="847" 
d="M783 355c0 -220 -166 -367 -359 -367c-194 0 -360 147 -360 367c0 202 144 372 360 372c215 0 359 -170 359 -372zM424 93c136 0 243 110 243 262c0 160 -107 267 -243 267c-137 0 -244 -107 -244 -267c0 -152 107 -262 244 -262zM538 929l-74 -100
c-12 -17 -25 -31 -44 -31h-31c-18 0 -26 15 -17 33l52 114c7 16 20 21 31 21h64c19 0 30 -22 19 -37z" />
    <glyph glyph-name="Ocircumflex" unicode="&#xd4;" horiz-adv-x="847" 
d="M783 355c0 -220 -166 -367 -359 -367c-194 0 -360 147 -360 367c0 202 144 372 360 372c215 0 359 -170 359 -372zM424 93c136 0 243 110 243 262c0 160 -107 267 -243 267c-137 0 -244 -107 -244 -267c0 -152 107 -262 244 -262zM478 814l-56 83l-39 -61
c-14 -22 -30 -38 -53 -38h-34c-14 0 -23 10 -23 22c0 5 1 11 5 16l66 99l13 17c6 8 20 14 28 14h77c9 0 22 -6 29 -14c0 0 83 -104 83 -132c0 -12 -8 -22 -23 -22h-41c-11 0 -25 6 -32 16z" />
    <glyph glyph-name="Ograve" unicode="&#xd2;" horiz-adv-x="847" 
d="M783 355c0 -220 -166 -367 -359 -367c-194 0 -360 147 -360 367c0 202 144 372 360 372c215 0 359 -170 359 -372zM424 93c136 0 243 110 243 262c0 160 -107 267 -243 267c-137 0 -244 -107 -244 -267c0 -152 107 -262 244 -262zM392 829l-74 100c-11 15 0 37 19 37h64
c11 0 24 -5 31 -21l52 -114c9 -18 1 -33 -17 -33h-31c-19 0 -32 14 -44 31z" />
    <glyph glyph-name="Uacute" unicode="&#xda;" horiz-adv-x="812" 
d="M691 715c16 0 28 -12 28 -28v-376c0 -194 -128 -323 -312 -323c-188 0 -314 130 -314 323v375c0 17 12 29 28 29h57c16 0 28 -12 28 -29v-365c0 -134 75 -228 201 -228c125 0 199 94 199 228v365c0 17 12 29 28 29h57zM512 929l-74 -100c-12 -17 -25 -31 -44 -31h-31
c-18 0 -26 15 -17 33l52 114c7 16 20 21 31 21h64c19 0 30 -22 19 -37z" />
    <glyph glyph-name="Ucircumflex" unicode="&#xdb;" horiz-adv-x="812" 
d="M691 715c16 0 28 -12 28 -28v-376c0 -194 -128 -323 -312 -323c-188 0 -314 130 -314 323v375c0 17 12 29 28 29h57c16 0 28 -12 28 -29v-365c0 -134 75 -228 201 -228c125 0 199 94 199 228v365c0 17 12 29 28 29h57zM461 814l-56 83l-39 -61c-14 -22 -30 -38 -53 -38
h-34c-14 0 -23 10 -23 22c0 5 1 11 5 16l66 99l13 17c6 8 20 14 28 14h77c9 0 22 -6 29 -14c0 0 83 -104 83 -132c0 -12 -8 -22 -23 -22h-41c-11 0 -25 6 -32 16z" />
    <glyph glyph-name="Ugrave" unicode="&#xd9;" horiz-adv-x="812" 
d="M691 715c16 0 28 -12 28 -28v-376c0 -194 -128 -323 -312 -323c-188 0 -314 130 -314 323v375c0 17 12 29 28 29h57c16 0 28 -12 28 -29v-365c0 -134 75 -228 201 -228c125 0 199 94 199 228v365c0 17 12 29 28 29h57zM368 829l-74 100c-11 15 0 37 19 37h64
c11 0 24 -5 31 -21l52 -114c9 -18 1 -33 -17 -33h-31c-19 0 -32 14 -44 31z" />
    <glyph glyph-name="multiply" unicode="&#xd7;" 
d="M85 532l27 26c11 11 29 11 40 0l157 -157l157 157c13 12 30 11 42 0l28 -27c11 -12 12 -29 -1 -42l-157 -157l157 -156c12 -12 12 -30 0 -41l-27 -26c-10 -12 -28 -12 -40 0l-157 156l-157 -156c-11 -11 -29 -11 -40 0l-28 28c-11 11 -11 29 0 40l157 157l-158 158
c-11 10 -11 28 0 40z" />
    <glyph glyph-name="brokenbar" unicode="&#xa6;" horiz-adv-x="305" 
d="M199 343c0 -16 -13 -29 -28 -29h-38c-16 0 -29 13 -29 29v371c0 16 13 28 29 28h38c15 0 28 -12 28 -28v-371zM199 -171c0 -16 -13 -29 -28 -29h-38c-16 0 -29 13 -29 29v370c0 15 13 28 29 28h38c15 0 28 -13 28 -28v-370z" />
    <glyph glyph-name="currency" unicode="&#xa4;" 
d="M502 211l38 -36c11 -11 11 -30 0 -40l-27 -27c-11 -11 -29 -11 -40 0l-38 36c-34 -22 -75 -36 -120 -36s-86 13 -121 36l-35 -35c-11 -12 -30 -12 -41 0l-28 27c-11 11 -11 30 0 41l36 36c-22 34 -35 75 -35 119c0 45 13 87 36 122l-37 37c-11 10 -11 29 0 40l26 27
c12 10 30 10 41 0l36 -38c35 23 77 37 122 37c44 0 86 -13 120 -35l36 35c12 12 29 12 41 0l28 -27c11 -11 12 -30 0 -42l-37 -35c23 -35 36 -77 36 -121s-13 -86 -37 -121zM183 332c0 -73 59 -131 132 -131c72 0 132 58 132 131s-60 133 -132 133c-73 0 -132 -60 -132 -133
z" />
    <glyph glyph-name="uni00AD" unicode="&#xad;" horiz-adv-x="392" 
d="M349 271c0 -16 -13 -28 -29 -28h-245c-16 0 -29 12 -29 28v35c0 17 13 29 29 29h245c16 0 29 -12 29 -29v-35z" />
    <glyph glyph-name="Eth" unicode="&#xd0;" horiz-adv-x="799" 
d="M116 715h231c227 0 388 -123 388 -357s-161 -358 -388 -358h-231c-16 0 -28 12 -28 27v279h-32c-16 0 -29 12 -29 28v48c0 16 13 29 29 29h32v276c0 16 12 28 28 28zM366 105c148 0 254 96 254 253s-106 252 -254 252h-164v-199h122c17 0 29 -13 29 -29v-48
c0 -16 -12 -28 -29 -28h-122v-201h164z" />
    <glyph glyph-name="Oslash" unicode="&#xd8;" horiz-adv-x="847" 
d="M670 696l-26 -43c87 -69 139 -178 139 -298c0 -220 -167 -367 -360 -367c-53 0 -105 11 -152 32c-11 -15 -38 -35 -47 -35h-27c-12 0 -21 10 -21 21c0 4 1 8 3 12l25 42c-85 64 -141 167 -141 295c0 202 144 372 360 372c57 0 108 -12 154 -33l15 19c8 10 21 17 33 17h26
c12 0 22 -11 22 -23c0 -3 -1 -7 -3 -11zM179 355c0 -83 32 -152 81 -198c88 148 174 296 262 444c-30 13 -63 21 -99 21c-136 0 -244 -108 -244 -267zM423 93c136 0 244 109 244 262c0 84 -31 154 -80 201l-261 -443c29 -13 63 -20 97 -20z" />
    <glyph glyph-name="AE" unicode="&#xc6;" horiz-adv-x="1160" 
d="M1063 610h-378v-192h331c15 0 29 -13 29 -28v-48c0 -16 -14 -29 -29 -29h-331v-208h378c15 0 28 -13 28 -29v-48c0 -16 -13 -28 -28 -28h-463c-16 0 -28 12 -28 28v143h-294c-42 -50 -81 -103 -122 -153c-13 -16 -32 -26 -46 -26h-81c-12 0 -18 9 -18 19c0 5 2 12 6 17
l549 667c5 8 21 20 39 20h458c15 0 28 -12 28 -28v-48c0 -16 -13 -29 -28 -29zM361 275h211v271c-47 -60 -131 -171 -211 -271z" />
    <glyph glyph-name="Yacute" unicode="&#xdd;" horiz-adv-x="657" 
d="M634 715c20 0 31 -23 20 -39l-268 -390v-258c0 -15 -12 -28 -28 -28h-57c-16 0 -29 13 -29 28v258l-268 390c-11 16 0 39 21 39h58c16 0 34 -10 46 -26l200 -292l200 292c11 16 31 26 47 26h58zM445 929l-74 -100c-12 -17 -25 -31 -44 -31h-31c-18 0 -26 15 -17 33
l52 114c7 16 20 21 31 21h64c19 0 30 -22 19 -37z" />
    <glyph glyph-name="yacute" unicode="&#xfd;" horiz-adv-x="552" 
d="M516 490c-51 -131 -106 -270 -263 -669c-6 -14 -17 -22 -29 -22h-51c-17 0 -26 11 -26 25c0 4 1 7 2 11c18 46 29 75 72 180c-61 155 -120 313 -186 475c-2 3 -2 7 -2 10c0 14 10 25 26 25h57c22 0 24 -11 37 -44l84 -220c18 -47 31 -92 34 -104h12c13 41 21 73 33 105
l17 45c23 60 48 125 77 197c5 13 17 21 29 21h53c16 0 26 -11 26 -25c0 -3 -1 -7 -2 -10zM390 739l-74 -100c-12 -17 -25 -31 -44 -31h-31c-18 0 -26 15 -17 33l52 114c7 16 20 21 31 21h64c19 0 30 -22 19 -37z" />
    <glyph glyph-name="eth" unicode="&#xf0;" horiz-adv-x="602" 
d="M400 653c90 -100 159 -232 159 -367c0 -190 -103 -298 -255 -298c-145 0 -254 88 -254 261c0 162 107 255 239 255c53 0 89 -12 127 -39c-18 46 -52 94 -93 139c-30 -18 -86 -61 -107 -61c-9 0 -18 5 -23 13l-8 13c-3 5 -4 10 -4 15c0 9 4 18 13 23l76 47
c-23 21 -62 44 -62 64c0 6 2 12 9 16l33 20c-1 0 -1 -1 -1 -1c7 5 14 6 20 6c9 0 17 -4 24 -9l14 -12c13 -11 29 -21 42 -35l77 49c4 3 10 4 15 4c9 0 19 -5 24 -13l8 -13c3 -5 4 -10 4 -15c0 -9 -5 -18 -13 -24zM304 84c73 0 139 41 139 176c0 115 -79 151 -140 151
c-75 0 -136 -56 -136 -163c0 -113 60 -164 137 -164z" />
    <glyph glyph-name="Thorn" unicode="&#xde;" horiz-adv-x="681" 
d="M206 687v-92h167c163 0 271 -91 271 -233c0 -140 -107 -232 -271 -232h-167v-103c0 -15 -12 -27 -29 -27h-56c-17 0 -29 12 -29 27v660c0 16 12 28 29 28h56c17 0 29 -12 29 -28zM390 235c86 0 139 49 139 127c0 79 -53 128 -139 128h-184v-255h184z" />
    <glyph glyph-name="thorn" unicode="&#xfe;" horiz-adv-x="632" 
d="M333 85c82 0 132 61 132 177c0 111 -51 176 -130 176c-70 0 -136 -62 -136 -166v-122c32 -37 82 -65 134 -65zM578 265c0 -172 -97 -277 -235 -277c-60 0 -104 18 -144 54v-214c0 -16 -13 -29 -28 -29h-54c-16 0 -29 13 -29 29v879c0 16 12 28 29 28h53
c17 0 29 -12 29 -28v-213c1 -13 1 -28 2 -28h8c30 47 85 71 143 71c113 0 226 -84 226 -272z" />
    <glyph glyph-name="onesuperior" unicode="&#xb9;" horiz-adv-x="252" 
d="M145 715h21c18 0 27 -11 27 -29v-326c0 -15 -10 -29 -28 -29h-21c-18 0 -27 14 -27 29v242c-13 -12 -37 -33 -50 -44c-11 -12 -28 -12 -40 2c-1 1 -11 14 -12 15c-10 13 -10 25 2 37l106 92c4 5 12 11 22 11z" />
    <glyph glyph-name="twosuperior" unicode="&#xb2;" horiz-adv-x="290" 
d="M17 640c14 45 59 87 127 87c74 0 129 -53 129 -122c0 -33 -11 -66 -35 -93c-35 -33 -69 -66 -103 -100h93c22 0 45 -3 45 -28v-12c0 -23 -10 -34 -28 -34h-203c-15 0 -28 11 -28 28v17c0 19 12 30 21 37c48 49 98 98 146 146c12 12 15 25 15 38c0 28 -21 49 -52 49
c-47 0 -52 -60 -84 -60c-24 0 -45 23 -45 37c0 4 0 7 2 10z" />
    <glyph glyph-name="threesuperior" unicode="&#xb3;" horiz-adv-x="278" 
d="M82 434c8 -16 28 -27 49 -27c30 0 54 21 54 53c0 30 -23 50 -54 50h-17c-18 0 -29 10 -29 28v18c0 15 11 26 27 26h15c24 0 44 16 44 38c0 21 -18 35 -40 35c-21 0 -36 -18 -39 -22c-9 -16 -21 -21 -37 -13l-17 10c-13 7 -17 23 -11 37c12 23 43 60 104 60
c65 0 115 -46 115 -106c0 -29 -11 -53 -28 -68c29 -20 45 -57 45 -96c0 -71 -59 -125 -132 -125s-107 45 -117 68c-6 14 -3 29 10 37l19 10c15 8 31 2 39 -13z" />
    <glyph glyph-name="onequarter" unicode="&#xbc;" horiz-adv-x="706" 
d="M534 369c3 4 19 16 29 16h18c25 0 28 -20 28 -41v-185h26c14 0 28 -12 28 -28v-18c0 -15 -13 -29 -28 -29h-26v-45c0 -24 -4 -39 -28 -39h-20c-23 0 -28 14 -28 39v45h-138c-23 0 -42 7 -42 29v12c0 13 4 24 14 37zM437 148h101v128c-32 -40 -67 -84 -101 -128zM155 715
h20c27 0 28 -23 28 -47v-308c0 -19 -16 -29 -35 -29h-15c-27 0 -27 27 -27 46v226l-39 -35c-8 -9 -20 -18 -30 -18c-7 0 -14 3 -20 10l-13 15c-5 6 -7 12 -7 18s3 13 9 19l106 93c4 4 13 10 23 10zM574 681l-386 -655c-9 -16 -26 -26 -42 -26h-21c-13 0 -22 10 -22 22
c0 4 1 8 3 12l386 656c9 16 26 25 43 25h20c12 0 22 -10 22 -22c0 -4 -1 -8 -3 -12z" />
    <glyph glyph-name="onehalf" unicode="&#xbd;" horiz-adv-x="749" 
d="M458 302c14 44 59 87 128 87c73 0 129 -53 129 -123c0 -78 -82 -136 -139 -192h93c21 0 46 -3 46 -28v-18c0 -18 -13 -28 -29 -28h-202c-15 0 -29 10 -29 28v17c0 18 12 29 21 37c48 49 98 97 147 146c11 11 14 24 14 37c0 29 -21 49 -51 49c-48 0 -52 -59 -85 -59
c-24 0 -45 22 -45 37c0 3 1 7 2 10zM155 715h20c27 0 28 -23 28 -47v-308c0 -19 -16 -29 -35 -29h-15c-27 0 -27 27 -27 46v226l-39 -35c-8 -9 -20 -18 -30 -18c-7 0 -14 3 -20 10l-13 15c-5 6 -7 12 -7 18s3 13 9 19l106 93c4 4 13 10 23 10zM574 681l-386 -655
c-9 -16 -26 -26 -42 -26h-21c-13 0 -22 10 -22 22c0 4 1 8 3 12l386 656c9 16 26 25 43 25h20c12 0 22 -10 22 -22c0 -4 -1 -8 -3 -12z" />
    <glyph glyph-name="threequarters" unicode="&#xbe;" horiz-adv-x="728" 
d="M565 369c4 4 20 16 30 16h18c24 0 28 -21 28 -41v-185h25c15 0 28 -11 28 -28v-18c0 -15 -13 -29 -28 -29h-25v-45c0 -23 -5 -39 -28 -39h-20c-23 0 -29 16 -29 39v45h-138c-25 0 -41 9 -41 29v5v17c1 3 2 8 4 12l9 15zM468 148h101v128c-31 -40 -67 -84 -101 -128z
M606 681l-386 -655c-9 -16 -26 -26 -42 -26h-21c-12 0 -22 10 -22 22c0 4 1 8 3 12l386 656c9 16 26 25 42 25h21c12 0 22 -10 22 -22c0 -4 -1 -8 -3 -12zM132 413c5 -2 11 -3 17 -3c24 0 49 17 49 50c0 29 -24 50 -54 50h-18c-18 0 -28 10 -28 28v18c0 12 10 26 26 26h16
c24 0 44 16 44 38c0 21 -20 33 -41 33c-16 0 -28 -8 -34 -15l-9 -11c-5 -7 -12 -11 -20 -11c-4 0 -8 1 -13 3l-17 10c-9 5 -14 14 -14 23c0 18 31 75 108 75c65 0 115 -46 115 -106c0 -29 -12 -53 -28 -68c28 -20 44 -57 44 -96c0 -71 -58 -125 -131 -125
c-92 0 -121 67 -121 81c0 9 5 18 14 24l19 10c4 2 8 3 12 3c21 0 32 -33 64 -37z" />
    <glyph glyph-name="florin" unicode="&#x192;" horiz-adv-x="599" 
d="M37 -147c-16 3 -26 16 -23 32l8 42c2 16 17 29 32 24c14 -4 34 -11 51 -11c49 0 73 41 91 137l58 316h-75c-16 0 -26 12 -24 29l6 30c3 16 17 28 33 28h75l15 80c29 112 88 181 190 181c27 0 52 -6 78 -9c16 -2 26 -16 22 -32l-6 -40c-4 -16 -18 -27 -34 -24
c-17 1 -38 8 -52 8c-42 0 -74 -27 -88 -103c-3 -17 -7 -40 -11 -61h98c16 0 25 -12 23 -28l-5 -30c-4 -17 -18 -29 -34 -29h-98l-57 -313c-33 -163 -82 -237 -196 -237c-24 0 -51 5 -77 10z" />
    <glyph glyph-name="fi" unicode="&#xfb01;" horiz-adv-x="670" 
d="M409 734c13 -6 21 -21 18 -35c-2 -5 -10 -30 -10 -35c-5 -14 -19 -24 -33 -20c-18 5 -53 11 -86 11c-50 0 -81 -22 -81 -80v-50h135c15 0 28 -12 28 -28v-30c0 -16 -13 -28 -28 -28h-135v-411c0 -15 -12 -28 -28 -28h-53c-16 0 -29 13 -29 28v411h-55
c-16 0 -28 12 -28 28v30c0 16 12 28 28 28h55v40c0 114 67 187 193 187c50 0 82 -10 109 -18zM580 28c0 -16 -12 -28 -28 -28h-54c-17 0 -29 12 -29 28v469c0 15 12 28 29 28h54c16 0 28 -13 28 -28v-469zM591 688c0 -36 -31 -64 -67 -64c-34 0 -65 28 -65 64
c0 35 31 64 65 64c36 0 67 -29 67 -64z" />
    <glyph glyph-name="fl" unicode="&#xfb02;" horiz-adv-x="670" 
d="M409 734c13 -6 21 -21 18 -35c-2 -5 -10 -30 -10 -35c-5 -14 -19 -24 -33 -20c-18 5 -53 11 -86 11c-50 0 -81 -22 -81 -80v-50h135c15 0 28 -12 28 -28v-30c0 -16 -13 -28 -28 -28h-135v-411c0 -15 -12 -28 -28 -28h-53c-16 0 -29 13 -29 28v411h-55
c-16 0 -28 12 -28 28v30c0 16 12 28 28 28h55v40c0 114 67 187 193 187c50 0 82 -10 109 -18zM580 28c0 -16 -12 -28 -28 -28h-54c-17 0 -29 12 -29 28v685c0 16 12 29 29 29h54c16 0 28 -13 28 -29v-685z" />
    <glyph glyph-name="Lslash" unicode="&#x141;" horiz-adv-x="618" 
d="M577 105c15 0 28 -13 28 -28v-49c0 -15 -13 -28 -28 -28h-450c-16 0 -28 13 -28 28v165l-68 -40c-16 -10 -34 2 -34 18v50c0 16 6 27 22 37l80 45v383c0 16 12 29 28 29h57c16 0 28 -13 28 -29v-317l72 42c15 9 33 -3 33 -19v-50c0 -17 -7 -27 -22 -36l-83 -48v-153h365z
" />
    <glyph glyph-name="lslash" unicode="&#x142;" horiz-adv-x="288" 
d="M304 342c0 -17 -7 -27 -22 -36l-82 -48v-230c0 -15 -13 -28 -29 -28h-54c-16 0 -28 13 -28 28v167l-71 -42c-17 -10 -33 2 -33 18v50c0 16 5 27 22 37l82 47v409c0 16 12 28 28 28h54c16 0 29 -12 29 -28v-345l71 42c16 9 33 -3 33 -19v-50z" />
    <glyph glyph-name="Zcaron" unicode="&#x17d;" horiz-adv-x="698" 
d="M611 105c15 0 28 -13 28 -29v-48c0 -16 -13 -28 -28 -28h-524c-16 0 -29 12 -29 28v43c0 12 4 22 10 28l404 511h-376c-16 0 -29 13 -29 29v48c0 16 13 28 29 28h505c15 0 28 -12 28 -28v-46c0 -11 -3 -19 -11 -27c-135 -170 -269 -340 -405 -509h398zM352 867
c26 38 52 99 97 99h30c11 0 23 -11 23 -23c0 -5 -1 -11 -5 -16l-6 -10c-30 -42 -69 -119 -101 -119h-77c-11 0 -28 9 -35 21l-6 10c-21 30 -71 91 -71 114c0 12 8 23 22 23h42c20 0 31 -16 39 -27z" />
    <glyph glyph-name="zcaron" unicode="&#x17e;" horiz-adv-x="532" 
d="M460 93c16 0 28 -13 28 -28v-37c0 -16 -12 -28 -28 -28h-389c-16 0 -28 12 -28 28v38c0 20 11 28 24 44c62 76 151 184 267 322h-254c-16 0 -28 13 -28 28v37c0 15 12 28 28 28h371c16 0 29 -13 29 -28v-35c0 -13 -4 -19 -11 -28l-23 -28l-262 -313h276zM269 677
c26 38 52 99 97 99h30c11 0 23 -11 23 -23c0 -5 -1 -11 -5 -16l-6 -10c-30 -42 -69 -119 -101 -119h-77c-11 0 -28 9 -35 21l-6 10c-21 30 -71 91 -71 114c0 12 8 23 22 23h42c20 0 31 -16 39 -27z" />
    <glyph glyph-name="Scaron" unicode="&#x160;" horiz-adv-x="670" 
d="M340 425c172 -30 266 -98 266 -217c0 -131 -115 -220 -277 -220c-104 0 -190 34 -255 93c-11 10 -13 28 -3 40l33 39c10 12 27 14 40 3c55 -46 112 -70 187 -70c97 0 160 42 160 110c0 66 -61 94 -199 118c-143 25 -218 96 -218 202c0 121 120 204 256 204
c95 0 181 -33 250 -91c12 -11 13 -27 3 -40l-33 -38c-10 -12 -27 -13 -39 -3c-51 43 -112 67 -182 67c-86 0 -139 -39 -139 -98c0 -49 46 -81 150 -99zM335 867c26 38 52 99 97 99h30c11 0 23 -11 23 -23c0 -5 -1 -11 -5 -16l-6 -10c-30 -42 -69 -119 -101 -119h-77
c-11 0 -28 9 -35 21l-6 10c-21 30 -71 91 -71 114c0 12 8 23 22 23h42c20 0 31 -16 39 -27z" />
    <glyph glyph-name="scaron" unicode="&#x161;" horiz-adv-x="507" 
d="M246 81c62 0 93 34 93 67c0 45 -40 56 -113 73c-78 18 -164 55 -164 155c0 89 78 161 196 161c83 0 179 -24 179 -58c0 -5 -1 -9 -3 -14l-14 -31c-5 -10 -15 -16 -25 -16c-4 0 -7 0 -11 2c-33 14 -85 24 -125 24c-49 0 -86 -28 -86 -60c0 -94 280 -43 280 -230
c0 -94 -85 -166 -209 -166c-86 0 -191 29 -191 64c0 4 1 8 3 13l16 34c4 9 15 14 25 14c4 0 7 -1 11 -2c37 -16 94 -30 138 -30zM262 677c26 38 52 99 97 99h30c11 0 23 -11 23 -23c0 -5 -1 -11 -5 -16l-6 -10c-30 -42 -69 -119 -101 -119h-77c-11 0 -28 9 -35 21l-6 10
c-21 30 -71 91 -71 114c0 12 8 23 22 23h42c20 0 31 -16 39 -27z" />
    <glyph glyph-name="minus" unicode="&#x2212;" 
d="M588 313c0 -15 -14 -28 -29 -28h-489c-15 0 -28 13 -28 28v42c0 16 13 28 28 28h489c15 0 29 -12 29 -28v-42z" />
    </font>
</defs>
</svg>
