<?xml version="1.0" standalone="no"?>
<!DOCTYPE svg PUBLIC "-//W3C//DTD SVG 1.1//EN" "http://www.w3.org/Graphics/SVG/1.1/DTD/svg11.dtd" >
<svg xmlns="http://www.w3.org/2000/svg" xmlns:xlink="http://www.w3.org/1999/xlink" version="1.1">
<metadata>
Created by FontForge 20160405 at Fri Feb  3 02:27:43 2017
 By www-data
Copyright (c) 2013 by Aviation Partners. All rights reserved.
</metadata>
<defs>
<font id="Alleyn-Semibold-Italic" horiz-adv-x="631" >
  <font-face 
    font-family="Alleyn Book"
    font-weight="600"
    font-style="italic"
    font-stretch="normal"
    units-per-em="1000"
    panose-1="2 0 0 0 0 0 0 0 0 0"
    ascent="800"
    descent="-200"
    x-height="528"
    cap-height="720"
    bbox="-159 -210 1288 973"
    underline-thickness="50"
    underline-position="-100"
    stemh="80"
    stemv="86"
    unicode-range="U+0020-FB02"
  />
<missing-glyph horiz-adv-x="506" 
d="M179 720h378l-126 -720h-378zM105 43h288l112 635h-288z" />
    <glyph glyph-name=".notdef" horiz-adv-x="506" 
d="M179 720h378l-126 -720h-378zM105 43h288l112 635h-288z" />
    <glyph glyph-name="b" unicode="b" horiz-adv-x="635" 
d="M339 105c78 0 150 78 150 204c0 70 -34 113 -90 113c-62 0 -128 -65 -148 -176l-18 -100c19 -19 48 -41 106 -41zM626 267c-31 -171 -153 -279 -286 -279c-69 0 -117 29 -143 59l-3 -14c-4 -18 -20 -33 -40 -33h-48c-17 0 -31 12 -31 28c0 2 1 3 1 5l120 676
c3 18 21 33 40 33h67c17 0 30 -13 30 -29v-4l-30 -168c-4 -20 -13 -58 -16 -68l9 -1c42 46 102 68 161 68c100 0 175 -74 175 -205c0 -21 -2 -44 -6 -68z" />
    <glyph glyph-name="c" unicode="c" horiz-adv-x="545" 
d="M490 157l28 -41c4 -6 6 -14 6 -20c0 -9 -5 -20 -15 -28c-66 -52 -134 -80 -215 -80c-136 0 -218 74 -218 208c0 220 146 344 316 344c81 0 138 -30 186 -81c4 -5 7 -12 7 -18c0 -7 -3 -16 -10 -24l-49 -49c-8 -7 -18 -8 -25 -8c-8 0 -16 2 -20 7c-30 32 -65 54 -110 54
c-80 0 -156 -73 -156 -202c0 -72 38 -113 100 -113c45 0 86 22 128 54c7 5 15 8 23 8c10 0 19 -3 24 -11z" />
    <glyph glyph-name="d" unicode="d" horiz-adv-x="635" 
d="M372 423c-79 0 -157 -77 -157 -207c0 -68 32 -109 90 -109c62 0 130 64 150 175l19 104c-19 18 -44 37 -102 37zM258 -12c-103 0 -183 69 -183 202c0 210 151 350 299 350c68 0 98 -15 122 -29l35 198c3 17 21 33 39 33h68c17 0 31 -14 31 -29v-4l-120 -675
c-3 -19 -22 -34 -41 -34h-64c-18 0 -31 12 -31 29c0 1 1 3 1 5l5 23c-2 0 -6 1 -8 1c-40 -44 -100 -70 -153 -70z" />
    <glyph glyph-name="e" unicode="e" horiz-adv-x="601" 
d="M371 431c-57 0 -116 -41 -140 -115h228c1 8 2 17 2 24c0 59 -44 91 -90 91zM545 227h-332l-1 -1c-1 -6 -1 -12 -1 -17c0 -63 53 -112 112 -112c48 0 110 15 152 34c4 3 9 5 14 5c24 0 37 -33 37 -58c0 -54 -127 -90 -222 -90c-144 0 -229 74 -229 207
c0 213 149 345 318 345c120 0 200 -64 200 -202c0 -35 2 -111 -48 -111z" />
    <glyph glyph-name="f" unicode="f" horiz-adv-x="384" 
d="M532 731c11 -5 18 -16 18 -28c0 -4 -1 -9 -3 -14l-21 -43c-7 -14 -23 -23 -36 -23s-52 13 -90 13c-40 0 -67 -18 -75 -65l-7 -43h121c17 0 29 -13 29 -28v-5l-7 -40c-3 -19 -23 -34 -41 -34h-121l-69 -387c-4 -19 -21 -34 -40 -34h-67c-17 0 -30 12 -30 28c0 2 1 4 1 6
l69 387h-45c-17 0 -30 12 -30 27c0 2 0 5 1 7l7 40c3 17 22 33 41 33h45l5 33c20 116 102 191 235 191c52 0 88 -11 110 -21z" />
    <glyph glyph-name="g" unicode="g" horiz-adv-x="632" 
d="M365 422c-77 0 -147 -66 -147 -186c0 -65 35 -101 93 -101s126 49 144 155l15 88c-20 22 -51 44 -105 44zM126 -74c31 -9 76 -19 139 -19c60 0 130 45 140 102c6 31 13 60 16 71l-5 1c-2 0 -3 1 -4 1c-38 -42 -95 -67 -148 -67c-106 0 -186 69 -186 195
c0 194 140 330 286 330c66 0 115 -29 141 -60l3 15c3 18 21 33 41 33h49c16 0 29 -13 29 -28v-5l-82 -465c-25 -141 -136 -240 -311 -240c-83 0 -178 15 -178 55c0 5 2 12 5 17l21 42c5 14 22 23 37 23c2 0 5 0 7 -1z" />
    <glyph glyph-name="h" unicode="h" horiz-adv-x="616" 
d="M437 540c101 0 151 -54 151 -151c0 -18 -1 -38 -5 -60l-53 -296c-3 -18 -21 -33 -40 -33h-68c-16 0 -30 12 -30 28c0 2 1 3 1 5l50 282c2 13 4 26 4 37c0 44 -20 69 -61 69c-59 0 -112 -44 -121 -93l-52 -295c-3 -18 -21 -33 -40 -33h-67c-17 0 -31 12 -31 28
c0 2 1 3 1 5l120 676c3 17 21 33 40 33h67c17 0 30 -13 30 -29v-4l-30 -168c-4 -24 -14 -53 -14 -64c1 0 5 -2 7 -3c37 41 94 66 141 66z" />
    <glyph glyph-name="i" unicode="i" horiz-adv-x="302" 
d="M214 33c-4 -18 -22 -33 -41 -33h-67c-17 0 -31 12 -31 28c0 2 1 3 1 5l82 462c3 18 22 33 41 33h67c17 0 30 -13 30 -28v-5zM336 681c-7 -40 -48 -72 -90 -72c-37 0 -64 26 -64 60c0 44 43 83 89 83c38 0 66 -27 66 -61c0 -3 -1 -7 -1 -10z" />
    <glyph glyph-name="j" unicode="j" horiz-adv-x="301" 
d="M272 752c39 0 66 -27 66 -61c0 -45 -44 -83 -91 -83c-36 0 -65 26 -65 61c0 43 46 83 90 83zM-25 -210c-81 0 -134 20 -134 49c0 4 1 9 3 13c26 40 23 67 59 67c10 0 51 -11 90 -11s64 18 75 64l90 523c3 17 22 33 41 33h68c17 0 29 -13 29 -28v-5l-91 -514
c-21 -116 -100 -191 -230 -191z" />
    <glyph glyph-name="k" unicode="k" horiz-adv-x="556" 
d="M534 43c2 -5 3 -10 3 -14c0 -15 -12 -29 -31 -29h-78c-22 0 -35 8 -47 31l-102 192l-37 -29l-29 -161c-3 -18 -21 -33 -40 -33h-67c-17 0 -31 12 -31 28c0 2 1 3 1 5l120 676c3 18 21 33 40 33h67c17 0 30 -13 30 -28v-5l-55 -307c-4 -19 -11 -49 -16 -65l6 -4
c13 15 43 44 61 59l117 112c18 17 37 24 59 24h78c14 0 22 -11 22 -22c0 -6 -2 -14 -10 -22c-82 -71 -148 -129 -212 -185z" />
    <glyph glyph-name="l" unicode="l" horiz-adv-x="302" 
d="M214 33c-3 -18 -22 -33 -41 -33h-67c-17 0 -31 12 -31 28c0 2 1 3 1 5l120 676c3 18 21 33 40 33h67c17 0 31 -13 31 -29v-4z" />
    <glyph glyph-name="m" unicode="m" horiz-adv-x="909" 
d="M433 540c55 0 100 -23 122 -74c50 47 98 71 151 74c110 0 174 -49 174 -148c0 -15 -1 -32 -4 -49l-55 -310c-3 -18 -20 -33 -39 -33h-67c-18 0 -31 12 -31 28c0 2 1 3 1 5l51 285c2 14 4 27 4 39c0 41 -17 64 -58 64c-56 0 -105 -49 -113 -95l-52 -293
c-3 -18 -19 -33 -38 -33h-68c-17 0 -31 12 -31 28c0 2 1 3 1 5l51 285c2 14 3 27 4 38c0 41 -17 64 -57 64c-58 0 -106 -46 -114 -94l-52 -293c-3 -18 -21 -33 -39 -33h-68c-17 0 -32 12 -32 28c0 2 1 3 1 5l82 462c3 18 23 33 42 33h65c16 0 28 -12 28 -28v-5l-4 -19
c1 0 6 -2 8 -3c37 41 90 67 137 67z" />
    <glyph glyph-name="n" unicode="n" horiz-adv-x="618" 
d="M439 540c100 0 149 -54 149 -149c0 -19 -2 -40 -6 -63l-52 -295c-3 -18 -21 -33 -40 -33h-68c-16 0 -30 12 -30 28c0 2 1 3 1 5l50 282c2 13 4 26 4 37c0 43 -20 68 -61 68c-59 0 -112 -44 -121 -93l-52 -294c-3 -18 -21 -33 -40 -33h-67c-17 0 -31 12 -31 28
c0 2 1 3 1 5l82 462c3 18 22 33 41 33h64c17 0 29 -12 29 -28v-5l-4 -19c1 0 6 -2 8 -3c37 41 96 67 143 67z" />
    <glyph glyph-name="o" unicode="o" horiz-adv-x="628" 
d="M322 104c82 0 162 82 162 200c0 74 -42 120 -106 120c-82 0 -162 -81 -162 -200c0 -73 42 -120 106 -120zM399 540c134 0 224 -90 224 -221c0 -191 -157 -331 -322 -331c-135 0 -224 86 -224 218c0 189 152 334 322 334z" />
    <glyph glyph-name="p" unicode="p" horiz-adv-x="635" 
d="M339 105c78 0 150 78 150 204c0 70 -34 112 -90 112c-61 0 -129 -64 -148 -175l-17 -98c18 -19 47 -43 105 -43zM626 267c-31 -171 -155 -279 -288 -279c-69 0 -101 18 -126 36l-34 -191c-3 -18 -22 -33 -41 -33h-66c-17 0 -31 12 -31 28c0 2 1 3 1 5l117 662
c3 18 22 33 41 33h63c17 0 29 -12 29 -28v-5l-5 -25h9c39 43 97 70 149 70c104 0 188 -70 188 -207c0 -20 -2 -42 -6 -66z" />
    <glyph glyph-name="q" unicode="q" horiz-adv-x="635" 
d="M367 422c-77 0 -151 -75 -151 -203c0 -70 34 -113 92 -113c61 0 127 65 147 176l18 98c-20 20 -48 42 -106 42zM82 261c30 171 151 279 283 279c70 0 118 -29 144 -58l3 13c4 18 20 33 40 33h49c17 0 29 -12 29 -28v-5l-117 -662c-3 -18 -22 -33 -41 -33h-68
c-17 0 -29 12 -29 28c0 2 1 4 1 6l27 154c3 19 13 57 17 69h-10c-39 -43 -96 -69 -149 -69c-104 0 -186 70 -186 204c0 21 2 44 7 69z" />
    <glyph glyph-name="r" unicode="r" horiz-adv-x="447" 
d="M434 540c59 0 83 -24 83 -48c0 -3 -1 -6 -2 -9l-22 -56c-6 -15 -23 -26 -35 -26s-27 16 -60 16c-61 0 -128 -64 -148 -175l-37 -208c-3 -19 -21 -34 -39 -34h-68c-17 0 -31 12 -31 29c0 2 1 3 1 5l82 461c3 18 22 33 41 33h64c17 0 29 -13 29 -29v-5l-5 -24h9
c39 43 91 70 138 70z" />
    <glyph glyph-name="s" unicode="s" horiz-adv-x="509" 
d="M252 99c51 0 85 26 85 60c0 68 -229 37 -229 185c0 105 101 196 234 196c89 0 177 -28 177 -64c0 -26 -36 -71 -62 -73c-4 0 -9 1 -13 3c-29 13 -78 23 -118 23s-78 -29 -78 -55c0 -66 234 -41 234 -185c0 -111 -111 -201 -252 -201c-90 0 -183 31 -183 66c0 6 1 13 5 19
l27 41c7 10 22 17 34 17c4 0 8 -1 12 -2c30 -14 79 -30 127 -30z" />
    <glyph glyph-name="t" unicode="t" horiz-adv-x="420" 
d="M265 -12c-105 0 -155 50 -155 133c0 14 1 29 4 45l45 255h-45c-17 0 -29 11 -29 27c0 2 0 5 1 7l7 40c3 18 21 33 40 33h45l17 101c3 18 23 35 40 35h68c17 0 29 -13 29 -29c0 -2 -1 -4 -1 -6l-17 -101h124c17 0 29 -12 29 -28v-5l-7 -40c-3 -19 -23 -34 -41 -34h-124
l-45 -251c-1 -7 -2 -14 -2 -20c0 -31 15 -43 40 -43c44 0 71 13 77 13c14 0 27 -10 30 -23l6 -44c0 -36 -52 -65 -136 -65z" />
    <glyph glyph-name="u" unicode="u" horiz-adv-x="618" 
d="M249 -12c-101 0 -150 53 -150 148c0 19 2 40 6 62l53 297c3 18 22 33 41 33h67c17 0 29 -12 29 -28v-5l-50 -283c-3 -14 -4 -27 -4 -38c0 -44 19 -67 62 -67c58 0 111 45 120 94l52 294c3 18 22 33 40 33h68c17 0 29 -12 29 -28v-5l-82 -462c-3 -18 -21 -33 -40 -33h-65
c-16 0 -30 12 -30 28c0 2 1 3 1 5l4 19c-2 0 -6 2 -8 2c-37 -41 -95 -66 -143 -66z" />
    <glyph glyph-name="v" unicode="v" horiz-adv-x="554" 
d="M301 0h-70c-18 0 -30 9 -33 26l-94 463c-1 2 -1 4 -1 6c0 16 13 33 36 33h63c17 0 27 -10 32 -25l50 -247c3 -16 4 -34 5 -44l2 -15l11 1c11 16 14 35 28 58l136 247c9 13 27 25 42 25h71c17 0 24 -10 24 -22c0 -6 -2 -12 -4 -17c-60 -109 -128 -229 -257 -463
c-10 -17 -23 -26 -41 -26z" />
    <glyph glyph-name="w" unicode="w" horiz-adv-x="830" 
d="M843 528c19 0 27 -11 27 -24c0 -5 -1 -4 -3 -11l-196 -465c-7 -17 -25 -28 -41 -28h-84c-16 0 -29 11 -33 26c-16 99 -46 301 -46 316l-7 -1c-1 -1 -11 -22 -46 -96c-34 -71 -74 -148 -112 -219c-9 -13 -26 -26 -42 -26h-82c-17 0 -29 12 -32 28l-33 465
c0 19 13 35 37 35h64c22 0 30 -18 31 -38l8 -247l-1 -73h8l20 44c20 43 48 111 128 269c9 18 25 27 42 27h77c16 0 31 -11 34 -27c17 -97 36 -259 35 -313l11 1l55 155l68 167c10 23 27 35 43 35h70z" />
    <glyph glyph-name="x" unicode="x" horiz-adv-x="562" 
d="M310 174l-10 -1c-7 -11 -23 -30 -40 -53l-71 -80c-27 -31 -47 -40 -82 -40h-64c-13 0 -24 9 -24 20c0 6 2 12 10 20c69 76 139 153 207 231c-39 72 -80 145 -119 217c-3 4 -4 9 -4 13c0 13 16 27 32 27h57c27 0 46 0 64 -34l35 -67c11 -22 24 -56 26 -62l10 1
c4 6 30 43 46 61l82 84c15 16 33 17 55 17h62c13 0 22 -10 22 -21c0 -6 -2 -12 -8 -19l-198 -217l128 -231c1 -5 2 -8 2 -12c0 -15 -14 -28 -31 -28h-64c-22 0 -34 6 -49 28l-59 111z" />
    <glyph glyph-name="y" unicode="y" horiz-adv-x="555" 
d="M600 489l-371 -663c-11 -15 -27 -26 -43 -26h-67c-16 0 -26 9 -26 21c0 5 2 11 6 18c29 54 54 98 102 180c-13 60 -27 127 -97 470c-1 2 -1 4 -1 6c0 16 14 33 35 33h65c16 0 27 -12 32 -25c19 -89 54 -280 57 -305l11 -1l7 15c10 21 23 51 40 82l108 198
c8 19 18 36 51 36h71c17 0 24 -10 24 -22c0 -6 -2 -12 -4 -17z" />
    <glyph glyph-name="z" unicode="z" horiz-adv-x="530" 
d="M467 113c17 0 30 -13 30 -29v-4l-9 -47c-4 -18 -21 -33 -40 -33h-388c-17 0 -30 12 -30 28c0 1 1 3 1 5l7 36c3 18 8 29 21 42c99 100 205 202 306 304h-223c-18 0 -30 12 -30 27c0 2 0 5 1 7l8 46c3 18 21 33 41 33h371c17 0 28 -12 28 -28v-5l-9 -50
c-2 -10 -8 -15 -17 -25l-311 -307h243z" />
    <glyph glyph-name="A" unicode="A" horiz-adv-x="746" 
d="M733 36c0 -2 1 -5 1 -7c0 -15 -16 -29 -34 -29h-82c-19 0 -33 12 -39 31l-33 140h-305l-83 -140c-12 -19 -31 -31 -49 -31h-84c-15 0 -25 9 -25 21c0 5 1 10 5 16l406 654c11 14 29 29 47 29h61c16 0 33 -14 37 -29zM518 288l-42 206c-6 30 -10 55 -13 72
c-12 -22 -41 -73 -41 -73l-114 -205h210z" />
    <glyph glyph-name="B" unicode="B" horiz-adv-x="727" 
d="M242 720h280c121 0 189 -69 189 -162c0 -77 -40 -131 -93 -163l-2 -11c48 -27 74 -74 74 -130c0 -128 -98 -254 -306 -254h-268c-17 0 -30 12 -30 28c0 2 1 4 1 6l116 653c3 18 20 33 39 33zM245 127h146c89 0 157 25 157 114c0 55 -44 73 -113 73h-157zM491 593h-164
l-27 -153h152c68 0 116 30 116 93c0 38 -27 60 -77 60z" />
    <glyph glyph-name="C" unicode="C" horiz-adv-x="741" 
d="M666 186l33 -46c2 -4 3 -9 3 -14c0 -11 -5 -25 -15 -33c-78 -62 -177 -105 -278 -105c-193 0 -307 118 -307 294c0 259 197 450 439 450c104 0 184 -38 240 -105c4 -5 6 -12 6 -19c0 -6 -2 -15 -10 -24l-48 -48c-10 -9 -20 -11 -28 -11s-16 2 -22 8
c-40 45 -97 72 -161 72c-135 0 -273 -121 -273 -296c0 -118 78 -194 187 -194c64 0 130 28 185 72c9 6 18 9 27 9s17 -3 22 -10z" />
    <glyph glyph-name="D" unicode="D" horiz-adv-x="808" 
d="M242 720h233c203 0 336 -97 336 -280c0 -287 -215 -440 -462 -440h-233c-17 0 -30 12 -30 28c0 1 1 3 1 5l116 654c3 18 20 33 39 33zM388 127c149 0 279 111 279 286c0 113 -77 180 -197 180h-143l-82 -466h143z" />
    <glyph glyph-name="E" unicode="E" horiz-adv-x="689" 
d="M242 720h466c16 0 29 -13 29 -28c0 -2 -1 -4 -1 -6l-10 -60c-3 -17 -22 -33 -40 -33h-360l-28 -161h314c17 0 29 -13 29 -29v-5l-11 -60c-3 -18 -22 -33 -41 -33h-314l-31 -179h360c16 0 28 -12 28 -28v-5l-11 -60c-3 -18 -21 -33 -39 -33h-466c-17 0 -30 12 -30 28
c0 1 1 3 1 5l115 653c3 18 22 34 40 34z" />
    <glyph glyph-name="F" unicode="F" horiz-adv-x="649" 
d="M242 720h466c16 0 29 -13 29 -28c0 -2 -1 -4 -1 -6l-10 -60c-3 -17 -22 -33 -40 -33h-360l-28 -161h314c17 0 29 -13 29 -29v-5l-11 -60c-3 -18 -22 -33 -41 -33h-314l-48 -272c-3 -18 -20 -33 -39 -33h-72c-17 0 -30 12 -30 28c0 1 1 3 1 5l115 653c3 18 22 34 40 34z
" />
    <glyph glyph-name="G" unicode="G" horiz-adv-x="782" 
d="M743 390c17 0 30 -12 30 -27c0 -3 -1 -5 -1 -7l-40 -230c-3 -16 -14 -31 -24 -40c-89 -63 -198 -98 -288 -98c-196 0 -318 125 -318 300c0 256 202 444 440 444c105 0 186 -37 240 -106c5 -6 7 -13 7 -20c0 -10 -4 -19 -11 -26l-47 -44c-8 -7 -18 -11 -27 -11
c-8 0 -16 3 -21 9c-41 42 -102 71 -164 71c-134 0 -273 -120 -273 -294c0 -117 79 -197 195 -197c52 0 110 18 157 47l18 102h-161c-16 0 -29 12 -29 28c0 1 1 3 1 5l10 60c3 19 23 34 40 34h266z" />
    <glyph glyph-name="H" unicode="H" horiz-adv-x="805" 
d="M821 686l-115 -653c-3 -18 -20 -33 -39 -33h-72c-17 0 -30 12 -30 28c0 1 1 3 1 5l48 273h-339l-48 -273c-3 -18 -20 -33 -39 -33h-72c-17 0 -30 12 -30 28c0 1 1 3 1 5l115 653c3 19 21 34 40 34h72c17 0 29 -12 29 -27c0 -3 -1 -5 -1 -7l-44 -253h339l44 253
c3 19 21 34 40 34h72c17 0 29 -12 29 -27c0 -3 -1 -5 -1 -7z" />
    <glyph glyph-name="I" unicode="I" horiz-adv-x="327" 
d="M342 686l-115 -653c-3 -18 -20 -33 -39 -33h-72c-17 0 -30 12 -30 28c0 1 1 3 1 5l115 653c3 19 21 34 40 34h72c17 0 29 -12 29 -27c0 -3 -1 -5 -1 -7z" />
    <glyph glyph-name="J" unicode="J" horiz-adv-x="517" 
d="M513 720c16 0 29 -13 29 -28v-5l-81 -459c-25 -142 -136 -240 -277 -240c-82 0 -130 32 -163 75c-4 5 -6 11 -6 18c0 10 5 21 14 29l47 43c8 6 17 10 25 10c9 0 17 -4 23 -10c20 -22 46 -39 76 -39c64 0 108 47 121 119l80 454c3 18 21 33 40 33h72z" />
    <glyph glyph-name="K" unicode="K" horiz-adv-x="710" 
d="M701 51c5 -6 7 -13 7 -19c0 -17 -15 -32 -32 -32h-88c-19 0 -43 14 -57 32l-204 263l-60 -43l-39 -218c-4 -19 -20 -34 -40 -34h-72c-17 0 -30 12 -30 28c0 2 1 4 1 6l116 653c3 18 20 33 39 33h72c18 0 30 -12 30 -28v-5l-47 -262l329 263c20 18 49 32 67 32h94
c14 0 22 -10 22 -22c0 -9 -4 -19 -13 -28l-361 -287z" />
    <glyph glyph-name="L" unicode="L" horiz-adv-x="622" 
d="M244 126h348c17 0 28 -12 28 -28v-5l-11 -60c-3 -18 -20 -33 -39 -33h-454c-17 0 -30 12 -30 28c0 1 1 3 1 5l115 653c3 18 22 34 40 34h72c17 0 29 -12 29 -28c0 -2 -1 -4 -1 -6z" />
    <glyph glyph-name="M" unicode="M" horiz-adv-x="929" 
d="M937 687l-92 -653c-3 -19 -20 -34 -39 -34h-73c-17 0 -31 12 -31 29c0 2 1 3 1 5c18 161 59 383 69 430l-6 1l-222 -305c-14 -19 -39 -33 -58 -33h-19c-21 0 -40 15 -47 33c-38 102 -78 203 -117 305l-6 -1c-1 -6 -1 -14 -3 -23c-3 -38 -45 -264 -79 -407
c-5 -19 -22 -34 -41 -34h-72c-17 0 -28 14 -28 30v4l139 653c4 17 22 33 41 33h62c20 0 42 -16 49 -33c46 -118 98 -246 145 -364c88 118 185 245 273 363c14 19 41 34 60 34h64c17 0 30 -13 30 -33z" />
    <glyph glyph-name="N" unicode="N" horiz-adv-x="797" 
d="M785 720c18 0 30 -12 30 -28v-5l-116 -653c-3 -19 -20 -34 -40 -34h-73c-15 0 -30 9 -35 21c-9 13 -114 213 -245 454l-6 -1c-2 -21 -9 -82 -19 -140l-53 -300c-3 -19 -20 -34 -40 -34h-72c-17 0 -30 12 -30 28c0 2 1 4 1 6l116 653c3 18 20 33 39 33h73
c15 0 30 -11 35 -23l247 -452l5 1c4 23 8 80 17 129l55 312c3 18 20 33 39 33h72z" />
    <glyph glyph-name="O" unicode="O" horiz-adv-x="842" 
d="M839 358c-39 -221 -236 -370 -431 -370c-174 0 -306 117 -306 298c0 233 194 446 438 446c193 0 305 -133 305 -303c0 -23 -2 -47 -6 -71zM431 115c137 0 269 128 269 296c0 117 -76 194 -183 194c-134 0 -270 -124 -270 -297c0 -115 75 -193 184 -193z" />
    <glyph glyph-name="P" unicode="P" horiz-adv-x="707" 
d="M496 720c151 0 241 -75 241 -194c0 -168 -141 -282 -324 -282h-147l-38 -211c-3 -18 -20 -33 -40 -33h-72c-17 0 -30 12 -30 28c0 1 1 3 1 5l116 654c3 18 20 33 39 33h254zM452 371c81 0 140 51 140 136c0 54 -37 86 -101 86h-164l-39 -222h164z" />
    <glyph glyph-name="Q" unicode="Q" horiz-adv-x="861" 
d="M813 45c4 -5 6 -11 6 -16c0 -16 -14 -29 -31 -29h-83c-19 0 -37 14 -48 31l-19 28c-68 -44 -151 -71 -230 -71c-174 0 -306 117 -306 298c0 233 194 446 438 446c193 0 305 -133 305 -303c0 -107 -42 -206 -105 -282zM252 358c-3 -18 -5 -34 -5 -50
c0 -115 75 -193 184 -193c47 0 92 14 133 40l-98 149c-3 5 -4 10 -4 15c0 16 12 32 32 32h76c20 0 35 -11 49 -30l40 -64c26 44 44 98 44 153c0 118 -78 195 -186 195c-124 0 -239 -100 -265 -247z" />
    <glyph glyph-name="R" unicode="R" horiz-adv-x="750" 
d="M548 264l145 -222c3 -5 4 -10 4 -14c0 -15 -10 -28 -31 -28h-54c-53 0 -62 2 -83 39l-134 205h-130l-38 -212c-3 -17 -20 -32 -39 -32h-72c-17 0 -30 12 -30 27c0 2 1 3 1 5l116 655c3 18 20 33 39 33h254c149 0 240 -75 240 -194c0 -118 -77 -214 -188 -262zM287 371
h164c79 0 141 51 141 133c0 56 -38 89 -102 89h-164z" />
    <glyph glyph-name="S" unicode="S" horiz-adv-x="672" 
d="M410 438c153 -29 235 -88 235 -186c0 -154 -147 -264 -327 -264c-111 0 -188 35 -244 98c-5 6 -8 13 -8 21s3 17 11 25l49 49c8 8 18 12 28 12c8 0 15 -3 21 -8c48 -48 94 -70 168 -70c86 0 157 39 157 107c0 47 -57 70 -164 91c-122 24 -190 88 -190 176
c0 142 153 243 305 243c95 0 176 -34 239 -96c4 -5 6 -12 6 -19c0 -9 -3 -19 -9 -26l-49 -49c-8 -8 -19 -12 -29 -12c-8 0 -15 2 -20 7c-42 39 -99 68 -162 68c-78 0 -135 -35 -135 -94c0 -35 37 -59 118 -73z" />
    <glyph glyph-name="T" unicode="T" horiz-adv-x="633" 
d="M705 720c17 0 29 -12 29 -28v-5l-11 -60c-3 -18 -21 -34 -40 -34h-202l-99 -559c-3 -19 -20 -34 -39 -34h-73c-17 0 -30 12 -30 28c0 2 1 4 1 6l99 559h-202c-18 0 -30 13 -30 28c0 2 1 4 1 6l11 60c3 18 20 33 40 33h545z" />
    <glyph glyph-name="U" unicode="U" horiz-adv-x="812" 
d="M807 720c17 0 29 -12 29 -28v-5l-66 -374c-35 -196 -189 -325 -377 -325c-167 0 -269 99 -269 254c0 22 2 46 7 71l66 374c3 18 20 33 39 33h72c18 0 30 -12 30 -28v-5l-64 -363c-3 -19 -5 -37 -5 -54c0 -94 51 -156 147 -156c113 0 193 87 215 210l64 363
c3 18 20 33 40 33h72z" />
    <glyph glyph-name="V" unicode="V" horiz-adv-x="733" 
d="M813 720c17 0 26 -10 26 -22c0 -7 -2 -13 -6 -19l-397 -650c-11 -14 -29 -29 -46 -29h-68c-17 0 -31 15 -36 29l-168 650c-1 2 -1 5 -1 7c0 17 11 34 34 34h76c17 0 32 -14 36 -29l110 -455l11 -52l25 46c19 35 45 86 274 461c11 18 25 29 46 29h84z" />
    <glyph glyph-name="W" unicode="W" horiz-adv-x="984" 
d="M1014 720c18 0 26 -10 26 -22c0 -4 -2 -7 -2 -8l-222 -660c-6 -18 -25 -30 -45 -30h-75c-21 0 -31 10 -36 28l-103 400l-246 -400c-11 -18 -26 -28 -45 -28h-74c-20 0 -34 12 -35 30l8 656c0 17 11 34 37 34h69c23 0 31 -16 33 -37l-4 -310c-1 -65 -11 -140 -11 -141
l9 -1l218 364c11 15 29 29 47 29h49c21 0 31 -11 35 -29c20 -84 43 -166 63 -249l27 -115l9 1c3 12 17 79 38 141c12 48 36 108 55 162l54 154c8 18 24 31 44 31h77z" />
    <glyph glyph-name="X" unicode="X" horiz-adv-x="742" 
d="M727 39c2 -4 3 -8 3 -12c0 -14 -14 -27 -33 -27h-81c-18 0 -41 10 -53 29l-153 234c-71 -70 -165 -165 -235 -234c-20 -19 -44 -29 -62 -29h-89c-16 0 -26 9 -26 20c0 6 3 13 9 19l329 327l-203 315c-2 3 -3 7 -3 11c0 14 13 28 31 28h81c19 0 40 -9 54 -28l143 -221
l222 221c18 18 44 28 62 28h89c14 0 24 -10 24 -21c0 -6 -3 -12 -8 -18c-104 -103 -212 -210 -316 -313z" />
    <glyph glyph-name="Y" unicode="Y" horiz-adv-x="680" 
d="M764 720c16 0 29 -11 29 -23c0 -7 -3 -14 -8 -21l-335 -387l-45 -255c-3 -19 -20 -34 -39 -34h-73c-17 0 -30 12 -30 28c0 2 1 4 1 6l45 255l-197 387c-2 4 -3 8 -3 12c0 16 15 32 35 32h71c20 0 40 -9 50 -28l134 -268l232 268c15 18 38 28 57 28h76z" />
    <glyph glyph-name="Z" unicode="Z" horiz-adv-x="698" 
d="M623 126c16 0 28 -12 28 -28v-5l-11 -60c-3 -18 -21 -33 -39 -33h-525c-18 0 -31 12 -31 28c0 2 1 3 1 5l10 53c2 12 8 23 15 31l464 476h-347c-17 0 -29 13 -29 28c0 1 1 3 1 5l10 60c3 18 22 34 40 34h507c17 0 30 -13 30 -28c0 -2 -1 -4 -1 -6l-9 -54
c-2 -14 -8 -22 -19 -32l-463 -474h368z" />
    <glyph glyph-name="space" unicode=" " horiz-adv-x="345" 
 />
    <glyph glyph-name="zero" unicode="0" 
d="M434 732c142 0 218 -75 218 -240c0 -40 -4 -84 -13 -133c-46 -259 -161 -371 -337 -371c-141 0 -217 73 -217 237c0 39 4 84 13 134c45 258 161 373 336 373zM325 114c83 0 140 74 170 245c7 43 11 80 11 111c0 93 -33 135 -95 135c-83 0 -141 -75 -171 -246
c-8 -42 -11 -79 -11 -110c0 -93 33 -135 96 -135z" />
    <glyph glyph-name="one" unicode="1" 
d="M571 687l-116 -654c-3 -18 -20 -33 -40 -33h-71c-18 0 -30 12 -30 27c0 2 1 4 1 6l86 488c-39 -30 -79 -58 -118 -87l-16 -12c-7 -5 -16 -8 -23 -8c-10 0 -18 4 -23 12l-30 47c-3 5 -5 12 -5 17c0 7 4 18 12 26l223 171c37 27 50 33 86 33h34c18 0 30 -12 30 -28v-5z" />
    <glyph glyph-name="two" unicode="2" 
d="M158 550c41 99 149 182 278 182c125 0 208 -80 208 -188c0 -83 -44 -161 -126 -229l-223 -189h243c17 0 30 -13 30 -28v-5l-11 -60c-4 -19 -22 -33 -41 -33h-420c-17 0 -31 12 -31 28c0 2 1 3 1 5l11 59c1 15 14 27 26 37l351 298c34 28 46 61 46 95c0 48 -35 82 -87 82
c-51 0 -106 -39 -134 -96c-7 -13 -22 -23 -38 -23c-25 0 -86 20 -86 51c0 4 1 8 3 14z" />
    <glyph glyph-name="three" unicode="3" 
d="M222 187c17 -44 48 -73 95 -73c64 0 129 56 129 131c0 51 -39 82 -91 82h-51c-17 0 -29 12 -29 27c0 2 1 4 1 6l10 56c3 19 21 33 40 33h42c51 0 99 45 99 96c0 35 -26 59 -63 59c-75 0 -94 -76 -128 -76c-15 0 -81 35 -81 61c0 7 2 15 7 22c36 52 108 121 225 121
c109 0 183 -71 183 -165c0 -75 -41 -130 -85 -164v-5c41 -31 63 -78 63 -134c0 -151 -140 -276 -294 -276c-139 0 -186 81 -205 135c-1 3 -1 5 -1 8c0 15 10 32 25 39l66 31c5 2 10 3 15 3c13 0 24 -6 28 -17z" />
    <glyph glyph-name="four" unicode="4" 
d="M478 691c16 16 39 29 57 29h51c17 0 30 -12 30 -28c0 -2 -1 -4 -1 -6l-69 -396h68c17 0 28 -12 28 -28v-5l-11 -60c-4 -19 -21 -34 -40 -34h-68l-23 -129c-4 -19 -20 -34 -40 -34h-71c-18 0 -31 12 -31 29c0 1 1 3 1 5l23 129h-306c-17 0 -30 12 -30 28c0 2 1 4 1 6l9 48
c3 17 16 33 32 49c121 125 268 272 390 397zM230 288h176l39 222c-18 -20 -108 -108 -167 -171z" />
    <glyph glyph-name="five" unicode="5" 
d="M147 384c28 101 54 200 84 301c5 19 24 35 44 35h350c16 0 29 -13 29 -28v-5l-11 -62c-3 -17 -22 -33 -40 -33h-259c-10 -35 -21 -72 -30 -108c23 5 46 9 71 9c130 0 220 -82 220 -204c0 -168 -150 -301 -313 -301c-147 0 -199 81 -216 136c-1 3 -2 6 -2 9
c0 11 8 28 24 36l66 30c5 3 10 4 16 4c10 0 22 -7 28 -18c20 -42 51 -71 107 -71c71 0 146 65 146 152c0 61 -46 99 -106 99c-49 0 -74 -8 -100 -29c-13 -10 -26 -19 -39 -19c-22 0 -72 20 -72 53c0 2 0 4 1 6l1 4c0 1 1 2 1 4z" />
    <glyph glyph-name="six" unicode="6" 
d="M404 493c126 0 204 -85 204 -203c0 -165 -148 -302 -304 -302c-138 0 -213 79 -213 216c0 25 2 51 7 79c42 239 206 445 486 445c17 0 28 -13 28 -29v-5l-11 -59c-3 -18 -21 -34 -40 -34c-113 0 -213 -57 -267 -138c0 -1 2 -4 3 -5c30 22 70 35 107 35zM327 114
c70 0 138 65 138 153c0 60 -38 99 -94 99c-75 0 -143 -60 -143 -151c0 -60 35 -101 99 -101z" />
    <glyph glyph-name="seven" unicode="7" 
d="M249 34c-13 -19 -38 -34 -58 -34h-80c-13 0 -22 9 -22 21c0 5 1 11 5 17c149 217 302 426 399 554h-312c-17 0 -30 13 -30 29c0 1 1 3 1 5l10 60c3 18 23 34 41 34h456c17 0 30 -12 30 -28c0 -2 -1 -4 -1 -6l-6 -35c-3 -15 -10 -32 -22 -46c-52 -68 -243 -328 -411 -571z
" />
    <glyph glyph-name="eight" unicode="8" 
d="M516 393c44 -26 77 -82 77 -142c0 -144 -147 -263 -291 -263c-127 0 -208 82 -208 194c0 87 60 173 138 211l2 11c-30 23 -52 62 -52 106c0 123 129 222 252 222c108 0 181 -70 181 -164c0 -70 -42 -130 -97 -164zM412 612c-50 0 -96 -42 -96 -92c0 -38 26 -72 67 -72
c51 0 97 51 97 99c0 37 -28 65 -68 65zM325 114c62 0 125 60 125 128c0 47 -35 87 -87 87c-67 0 -125 -63 -125 -126c0 -50 35 -89 87 -89z" />
    <glyph glyph-name="nine" unicode="9" 
d="M334 227c-128 0 -206 84 -206 202c0 166 147 303 305 303c138 0 213 -80 213 -217c0 -24 -2 -50 -7 -77c-42 -239 -207 -445 -487 -445c-17 0 -30 12 -30 28c0 2 1 4 1 6l10 57c3 19 22 34 41 34c112 0 215 59 267 138l-3 6c-30 -21 -68 -35 -104 -35zM410 605
c-71 0 -140 -62 -140 -152c0 -60 39 -99 96 -99c74 0 142 59 142 151c0 60 -36 100 -98 100z" />
    <glyph glyph-name="exclam" unicode="!" horiz-adv-x="344" 
d="M267 229c-4 -18 -22 -33 -42 -33h-43c-17 0 -28 13 -28 29v4l37 291l29 166c3 18 23 34 41 34h69c18 0 31 -12 31 -28c0 -2 -1 -4 -1 -6l-31 -177c-21 -93 -42 -187 -62 -280zM103 65c7 42 49 79 92 79c40 0 67 -30 67 -66c0 -49 -46 -90 -95 -90c-38 0 -65 27 -65 63
c0 4 0 9 1 14z" />
    <glyph glyph-name="quotedbl" unicode="&#x22;" horiz-adv-x="418" 
d="M390 742h50c20 0 30 -18 30 -35l-57 -220c-6 -14 -21 -28 -40 -28h-13c-18 0 -30 15 -30 31l19 216c5 17 22 36 41 36zM218 742h49c20 0 29 -19 29 -35l-56 -217c-4 -16 -23 -31 -41 -31h-14c-15 0 -28 13 -28 31l19 216c2 19 21 36 42 36z" />
    <glyph glyph-name="numbersign" unicode="#" 
d="M657 488v-19c0 -22 -17 -39 -39 -39h-89c-4 -20 -27 -119 -32 -142h94c22 0 38 -16 38 -39v-18c0 -22 -16 -39 -38 -39h-117c-10 -52 -23 -105 -36 -168c-5 -17 -22 -30 -38 -30h-16c-27 0 -44 22 -38 48l33 150h-103l-40 -167c-3 -17 -20 -31 -38 -31h-17
c-27 0 -42 20 -37 46c10 56 20 97 34 152h-67c-22 0 -40 17 -40 39v18c0 23 18 39 40 39h87c4 16 27 116 33 142h-92c-22 0 -40 17 -40 39v19c0 23 18 39 40 39h115c2 8 27 121 38 168c3 15 19 29 38 29h16c26 0 44 -21 39 -47c-12 -53 -25 -95 -36 -150h107
c21 104 29 135 36 165c4 16 22 32 38 32h19c25 0 43 -21 37 -48l-33 -149h65c22 0 39 -16 39 -39zM401 288l33 142h-106c-8 -29 -26 -109 -33 -142h106z" />
    <glyph glyph-name="dollar" unicode="$" horiz-adv-x="661" 
d="M372 -54c-3 -17 -21 -33 -40 -33h-68c-18 0 -30 13 -30 28c0 1 1 3 1 5l8 48c-75 11 -131 43 -174 91c-5 6 -8 15 -8 23c0 9 53 85 89 85c8 0 15 -3 21 -8c48 -47 93 -71 167 -71c88 0 158 42 158 108c0 48 -51 70 -164 90c-126 22 -191 84 -191 172
c0 120 103 214 231 240l9 51c3 18 21 33 41 33h68c17 0 28 -12 28 -28v-5l-8 -48c68 -11 126 -43 177 -91c5 -6 7 -13 7 -20c0 -9 -3 -17 -11 -26l-50 -48c-8 -8 -18 -12 -28 -12c-8 0 -15 3 -21 8c-43 42 -95 67 -162 67c-77 0 -135 -37 -135 -93c0 -36 38 -59 120 -74
c155 -28 234 -90 234 -191c0 -132 -117 -233 -261 -253z" />
    <glyph glyph-name="percent" unicode="%" horiz-adv-x="780" 
d="M302 727c78 0 123 -40 123 -131c0 -189 -92 -268 -194 -268c-78 0 -122 40 -122 132c0 189 94 267 193 267zM246 412c38 0 84 52 84 168c0 44 -15 63 -43 63c-37 0 -85 -49 -85 -166c0 -45 16 -65 44 -65zM757 681c-104 -134 -205 -266 -307 -400l-193 -252
c-14 -19 -36 -29 -54 -29h-23c-14 0 -23 10 -23 22c0 4 2 11 6 16l500 652c14 18 35 30 55 30h23c13 0 22 -11 22 -23c0 -5 -2 -10 -6 -16zM682 392c79 0 122 -40 122 -131c0 -20 -2 -43 -6 -68c-25 -141 -91 -199 -187 -199c-78 0 -122 39 -122 130c0 189 92 268 193 268z
M626 77c38 0 86 49 86 167c0 45 -16 65 -45 65c-38 0 -85 -52 -85 -169c0 -44 16 -63 44 -63z" />
    <glyph glyph-name="ampersand" unicode="&#x26;" horiz-adv-x="762" 
d="M429 625c-48 0 -84 -34 -84 -76c0 -24 11 -51 35 -85c63 34 108 80 108 114c0 30 -23 47 -59 47zM332 115c36 0 80 23 118 57l-122 147c-54 -33 -87 -65 -87 -113c0 -49 29 -91 91 -91zM448 732c99 0 164 -60 164 -141c0 -76 -44 -140 -151 -206l89 -105
c46 62 65 133 101 133c3 0 6 0 9 -1l46 -14c12 -4 18 -15 18 -27c0 -5 -1 -10 -3 -15c-22 -52 -56 -106 -98 -166c17 -17 66 -80 99 -120l25 -31c4 -6 6 -12 6 -17c0 -12 -10 -22 -22 -22h-109c-18 0 -40 12 -55 30l-42 49c-82 -64 -159 -91 -228 -91
c-123 0 -204 78 -204 186c0 109 65 175 161 238c-30 41 -43 74 -43 110c0 102 99 210 237 210z" />
    <glyph glyph-name="quotesingle" unicode="'" horiz-adv-x="246" 
d="M217 742h50c17 0 29 -15 29 -30v-4l-56 -217c-4 -16 -23 -31 -39 -31h-16c-18 0 -29 15 -29 31l20 215c3 17 21 36 41 36z" />
    <glyph glyph-name="parenleft" unicode="(" horiz-adv-x="368" 
d="M297 711c13 15 36 31 57 31h61c13 0 23 -9 23 -19c0 -5 -2 -10 -6 -14c-150 -186 -208 -415 -208 -572c0 -103 17 -216 53 -304c0 -2 1 -3 1 -5c0 -14 -14 -28 -29 -28h-61c-22 0 -40 15 -46 31c-36 92 -56 198 -56 304c0 197 83 400 211 576z" />
    <glyph glyph-name="parenright" unicode=")" horiz-adv-x="368" 
d="M299 710c35 -92 56 -197 56 -303c0 -196 -82 -402 -211 -576c-12 -16 -37 -31 -57 -31h-61c-12 0 -20 9 -20 20c0 4 1 9 4 13c152 200 208 436 208 592c0 97 -15 199 -53 284c-2 3 -3 6 -3 9c0 12 14 24 30 24h61c20 0 39 -16 46 -32z" />
    <glyph glyph-name="asterisk" unicode="*" horiz-adv-x="527" 
d="M504 597c19 0 36 -16 36 -36v-36c0 -21 -17 -36 -37 -36c-39 4 -77 8 -116 11l67 -95c3 -6 5 -13 5 -19c1 -13 -7 -24 -19 -31l-35 -19c-4 -2 -9 -3 -14 -3c-12 0 -25 6 -31 18l-48 106l-48 -106c-7 -12 -19 -19 -32 -19c-5 0 -67 16 -67 54c0 6 1 13 4 19l68 95
c-39 -3 -77 -8 -116 -11c-16 0 -36 15 -36 36v36c0 19 15 36 34 36c39 0 79 -7 119 -11c-23 31 -73 88 -73 113c0 13 7 26 18 32l36 19c5 2 10 3 14 3c12 0 25 -6 31 -18c22 -45 28 -62 48 -106l48 107c5 11 20 17 32 17c5 0 11 0 16 -3l32 -18c12 -7 20 -17 19 -31
c0 -25 -50 -82 -72 -115c39 4 77 8 117 11z" />
    <glyph glyph-name="plus" unicode="+" 
d="M638 307c0 -20 -15 -35 -34 -35h-179v-179c0 -19 -16 -34 -35 -34h-52c-19 0 -35 15 -35 34v179h-178c-20 0 -35 15 -35 35v51c0 19 15 35 35 35h178v179c0 19 16 35 35 35h52c19 0 35 -16 35 -35v-179h179c19 0 34 -16 34 -35v-51z" />
    <glyph glyph-name="comma" unicode="," horiz-adv-x="299" 
d="M33 -127c12 16 69 102 69 126c0 1 0 3 -1 6c-16 10 -30 31 -30 58c0 44 42 95 94 95c40 0 73 -28 73 -75c0 -49 -74 -182 -152 -251c-5 -4 -11 -7 -18 -7c-21 0 -41 16 -41 32c0 4 1 11 6 16z" />
    <glyph glyph-name="hyphen" unicode="-" horiz-adv-x="384" 
d="M388 267c-4 -18 -21 -34 -41 -34h-251c-17 0 -30 12 -30 28c0 2 0 4 1 6l8 45c3 18 21 33 40 33h251c18 0 30 -12 30 -28v-5z" />
    <glyph glyph-name="period" unicode="." horiz-adv-x="291" 
d="M130 -12c-39 0 -68 29 -68 67c0 50 48 96 97 96c42 0 72 -31 72 -70c0 -49 -50 -93 -101 -93z" />
    <glyph glyph-name="slash" unicode="/" horiz-adv-x="397" 
d="M497 702c-85 -168 -168 -324 -391 -755c-9 -16 -29 -28 -45 -28h-50c-16 0 -29 14 -29 29c0 3 1 8 3 11l392 754c11 14 30 29 45 29h49c15 0 29 -13 29 -28c0 -4 -1 -9 -3 -12z" />
    <glyph glyph-name="colon" unicode=":" horiz-adv-x="306" 
d="M139 -12c-39 0 -68 29 -68 67c0 50 48 96 97 96c42 0 72 -31 72 -70c0 -49 -50 -93 -101 -93zM208 377c-40 0 -69 31 -69 69c0 50 51 94 98 94c42 0 71 -30 71 -68c0 -49 -47 -95 -100 -95z" />
    <glyph glyph-name="semicolon" unicode=";" horiz-adv-x="312" 
d="M40 -127c12 16 69 102 69 126c0 1 0 3 -1 5v1c-16 10 -30 31 -30 58c0 44 42 95 94 95c40 0 73 -28 73 -75c0 -49 -74 -182 -152 -251c-5 -4 -11 -7 -17 -7c-22 0 -42 16 -42 32c0 4 1 11 6 16zM146 458c8 45 52 82 97 82c41 0 70 -30 70 -68c0 -48 -47 -96 -99 -96
c-41 0 -69 32 -69 69c0 4 0 9 1 13z" />
    <glyph glyph-name="less" unicode="&#x3c;" 
d="M630 509c0 -17 -14 -37 -31 -44c-106 -43 -212 -89 -318 -133l303 -126c44 -19 46 -47 46 -73v-34c0 -16 -13 -29 -28 -29c-4 0 -11 2 -12 3l-461 199c-17 7 -31 27 -31 44v34c0 17 14 37 31 44l464 199c3 1 6 1 9 1c15 0 28 -11 28 -28v-57z" />
    <glyph glyph-name="equal" unicode="=" 
d="M635 417c0 -19 -16 -35 -34 -35h-473c-19 0 -35 16 -35 35v51c0 19 16 34 35 34h473c18 0 34 -15 34 -34v-51zM635 200c0 -20 -16 -35 -34 -35h-473c-19 0 -35 15 -35 35v51c0 19 16 35 35 35h473c18 0 34 -16 34 -35v-51z" />
    <glyph glyph-name="greater" unicode="&#x3e;" 
d="M98 509v57c0 17 12 28 27 28c3 0 6 0 13 -1c197 -85 331 -143 461 -200c17 -8 31 -26 31 -43v-34c0 -30 -24 -37 -47 -51l-445 -192c-1 -1 -10 -3 -13 -3c-15 0 -27 12 -27 29v57c0 18 14 37 31 43l317 133l-317 133c-18 7 -31 26 -31 44z" />
    <glyph glyph-name="question" unicode="?" horiz-adv-x="560" 
d="M399 732c129 0 205 -68 205 -163c0 -101 -77 -184 -223 -273l-13 -74c-3 -19 -23 -34 -41 -34h-69c-18 0 -29 11 -29 27c0 2 0 4 1 7l19 111c2 11 17 30 30 38l18 10c80 48 162 97 162 160c0 41 -34 68 -85 68c-47 0 -101 -18 -152 -48c-7 -4 -15 -6 -22 -6
c-11 0 -20 4 -25 12l-25 49c-2 3 -3 7 -3 11c0 60 171 105 252 105zM283 144c39 0 68 -29 68 -65c0 -49 -47 -91 -96 -91c-39 0 -65 28 -65 65c0 47 46 91 93 91z" />
    <glyph glyph-name="at" unicode="@" horiz-adv-x="1001" 
d="M687 14c-46 0 -76 32 -76 79c0 5 0 10 1 15l-8 1c-42 -53 -108 -95 -173 -95c-96 0 -154 68 -154 170c0 124 119 357 311 357c51 0 89 -26 111 -55c10 20 22 42 48 42h48c16 0 26 -12 26 -26c0 -3 0 -5 -1 -8l-24 -74c-67 -207 -84 -250 -84 -292c0 -17 5 -29 18 -29
c104 0 176 189 176 299c0 147 -103 243 -282 243c-246 0 -444 -218 -444 -459c0 -182 130 -280 319 -280c100 0 191 22 253 45c5 2 10 3 15 3c20 0 27 -12 27 -38c0 -15 -8 -29 -23 -35c-74 -30 -163 -61 -287 -61c-253 0 -397 141 -397 350c0 326 273 559 553 559
c213 0 354 -121 354 -322c0 -189 -127 -389 -307 -389zM466 126c80 0 167 146 185 245c-1 6 -13 61 -76 61c-76 0 -164 -117 -164 -234c0 -48 21 -72 55 -72z" />
    <glyph glyph-name="bracketleft" unicode="[" horiz-adv-x="386" 
d="M304 -166c-3 -18 -21 -34 -41 -34h-193c-17 0 -30 13 -30 29c0 1 1 3 1 5l155 875c3 18 21 33 40 33h193c18 0 30 -12 30 -28v-5l-8 -42c-4 -20 -21 -35 -41 -35h-95l-128 -722h95c18 0 30 -12 30 -28v-5z" />
    <glyph glyph-name="backslash" unicode="\" horiz-adv-x="397" 
d="M124 702c0 18 18 40 40 40h49c15 0 30 -15 35 -29l127 -754c0 -1 1 -2 1 -3c0 -18 -24 -37 -42 -37h-50c-17 0 -33 12 -36 28c-39 242 -84 490 -124 755z" />
    <glyph glyph-name="bracketright" unicode="]" horiz-adv-x="387" 
d="M1 -167l7 43c3 18 23 34 40 34h95l128 722h-95c-16 0 -29 13 -29 29c0 2 1 4 1 6l8 42c3 18 21 33 39 33h194c17 0 30 -13 30 -28v-5l-155 -876c-3 -18 -22 -33 -41 -33h-194c-16 0 -29 12 -29 28c0 1 1 3 1 5z" />
    <glyph glyph-name="asciicircum" unicode="^" horiz-adv-x="645" 
d="M636 350c3 -5 4 -10 4 -15c0 -15 -12 -27 -29 -27h-40c-53 0 -62 12 -80 40c-38 70 -78 141 -117 210l-117 -210c-26 -40 -44 -40 -79 -40h-41c-17 0 -29 12 -29 27c0 5 1 10 4 15c64 109 128 219 191 329c11 20 26 39 49 39h44c17 0 34 -11 43 -28
c70 -121 134 -230 197 -340z" />
    <glyph glyph-name="underscore" unicode="_" horiz-adv-x="569" 
d="M636 -89v-71h-606v71h606z" />
    <glyph glyph-name="grave" unicode="`" horiz-adv-x="521" 
d="M322 627c-16 30 -33 64 -61 113c-2 4 -3 10 -3 14c0 14 14 28 30 28h73c21 0 34 -14 40 -33l27 -108v-4c0 -17 -11 -33 -32 -33h-33c-16 0 -31 7 -41 23z" />
    <glyph glyph-name="braceleft" unicode="{" horiz-adv-x="440" 
d="M205 263c43 -27 70 -78 70 -142c0 -14 -1 -29 -4 -44l-16 -89c-2 -13 -4 -24 -4 -33c0 -36 17 -48 58 -48h26c18 0 29 -13 29 -28v-5l-7 -43c-3 -16 -21 -31 -41 -31h-23c-119 0 -176 38 -176 132c0 18 2 36 6 58l10 59c4 21 5 40 5 58c0 64 -24 103 -77 105
c-17 1 -30 11 -30 26c0 1 1 3 1 5l10 56c3 18 21 31 40 31c67 0 111 65 129 162l11 59c26 139 95 191 237 191h23c18 0 30 -12 30 -27v-4l-8 -42c-4 -19 -21 -34 -41 -34h-26c-53 0 -71 -21 -82 -82l-16 -88c-16 -86 -66 -153 -131 -186z" />
    <glyph glyph-name="bar" unicode="|" horiz-adv-x="322" 
d="M183 -166c-3 -19 -23 -34 -42 -34h-55c-17 0 -29 12 -29 28c0 2 1 4 1 6l155 875c3 18 20 33 39 33h55c17 0 31 -13 31 -29v-4z" />
    <glyph glyph-name="braceright" unicode="}" horiz-adv-x="440" 
d="M308 279c-44 27 -71 77 -71 141c0 14 1 29 4 45l16 88c2 13 4 25 4 35c0 34 -17 47 -58 47h-26c-18 0 -30 12 -30 28c0 2 1 4 1 6l8 42c3 16 20 31 40 31h23c118 0 176 -38 176 -134c0 -17 -1 -36 -5 -57l-11 -59c-4 -20 -5 -39 -5 -56c0 -65 26 -106 78 -106
c17 0 28 -10 28 -26v-5l-10 -56c-3 -18 -20 -30 -39 -31c-69 -3 -114 -65 -130 -163l-10 -59c-24 -138 -99 -190 -238 -190h-23c-18 0 -30 12 -30 26c0 2 1 3 1 5l7 43c3 17 21 33 41 33h26c52 0 71 19 82 81l16 89c15 85 66 153 132 186z" />
    <glyph glyph-name="asciitilde" unicode="~" horiz-adv-x="700" 
d="M328 300c-22 10 -42 20 -57 20c-19 0 -43 -29 -45 -71c-1 -19 -16 -34 -34 -34h-58c-20 0 -35 15 -35 35c0 124 95 199 187 199c93 0 190 -110 237 -110c25 0 52 31 55 77c1 18 16 33 35 33h58c19 0 34 -16 35 -35c-6 -118 -93 -199 -182 -199c-72 0 -139 63 -196 85z
" />
    <glyph glyph-name="degree" unicode="&#xb0;" horiz-adv-x="466" 
d="M111 570c0 92 76 167 168 167c93 0 168 -75 168 -167c0 -93 -75 -167 -168 -167c-92 0 -168 74 -168 167zM206 570c0 -41 33 -73 73 -73c41 0 74 32 74 73s-33 73 -74 73c-40 0 -73 -32 -73 -73z" />
    <glyph glyph-name="cent" unicode="&#xa2;" horiz-adv-x="541" 
d="M361 33c-3 -19 -20 -33 -39 -33h-60c-18 0 -32 11 -32 28c0 2 1 3 1 5l10 56c-96 20 -152 90 -152 200c0 190 112 312 247 339l10 58c3 19 22 34 42 34h60c17 0 29 -12 29 -27c0 -3 -1 -5 -1 -7l-10 -58c39 -10 132 -51 132 -93v-5c-2 -11 -48 -75 -83 -75
c-8 0 -17 3 -22 8c-30 32 -63 54 -108 54c-73 0 -134 -56 -152 -158l-3 -14c-1 -10 -2 -20 -2 -29c0 -75 39 -115 101 -115c45 0 86 22 127 53c7 6 17 9 25 9c20 0 56 -44 56 -71c0 -45 -119 -95 -166 -104z" />
    <glyph glyph-name="sterling" unicode="&#xa3;" horiz-adv-x="608" 
d="M538 4c-15 -4 -89 -10 -124 -10c-61 0 -116 21 -181 21c-41 0 -104 -9 -148 -18c-2 0 -4 -1 -6 -1c-15 0 -30 12 -32 28v62c-1 17 15 33 31 38c49 16 105 91 106 171h-53c-17 0 -31 13 -31 28c0 2 1 3 1 5l8 44c3 19 22 34 41 36h40c0 55 3 71 8 100
c22 125 139 224 276 224c75 0 177 -34 177 -79c0 -9 -4 -19 -11 -27l-39 -43c-8 -8 -19 -12 -30 -12c-8 0 -15 2 -20 6c-26 23 -61 37 -96 37c-96 0 -118 -85 -122 -206h139c17 0 29 -13 29 -28c0 -3 -1 -5 -1 -7l-8 -45c-3 -18 -20 -33 -39 -33h-127l-2 -10
c-13 -51 -21 -90 -78 -152c54 0 134 -17 200 -17c28 0 70 13 98 13c35 0 29 -44 29 -85c0 -18 -14 -34 -35 -40z" />
    <glyph glyph-name="section" unicode="&#xa7;" horiz-adv-x="594" 
d="M315 369c-34 -19 -82 -44 -82 -80c0 -45 54 -78 119 -114c49 24 83 47 83 79c0 44 -52 77 -120 115zM50 -133c-5 5 -7 11 -7 18c0 20 53 88 89 88c10 0 18 -4 25 -10c23 -28 72 -46 107 -46c52 0 96 19 96 57c0 36 -41 61 -120 103c-92 49 -149 103 -149 171
c0 62 38 125 125 180c-35 29 -58 61 -58 108c0 119 102 216 265 216c78 0 152 -28 195 -76c4 -5 6 -12 6 -20c0 -11 -4 -22 -13 -30l-47 -41c-9 -8 -19 -11 -28 -11c-10 0 -19 3 -25 10c-26 26 -70 43 -107 43c-55 0 -96 -17 -96 -56c0 -36 41 -64 120 -106
c95 -50 146 -109 146 -177c0 -64 -36 -119 -123 -171c36 -31 59 -64 59 -111c0 -117 -104 -216 -268 -216c-77 0 -141 29 -192 77z" />
    <glyph glyph-name="bullet" unicode="&#x2022;" horiz-adv-x="426" 
d="M99 334c0 91 74 165 165 165s165 -74 165 -165c0 -90 -74 -164 -165 -164s-165 73 -165 164z" />
    <glyph glyph-name="paragraph" unicode="&#xb6;" horiz-adv-x="586" 
d="M658 686l-4 -25c-4 -24 -20 -33 -42 -33l-140 -793c-4 -20 -22 -35 -41 -35h-27c-17 0 -30 12 -30 29c0 2 1 4 1 6l140 793h-82l-140 -793c-4 -20 -23 -35 -41 -35h-27c-19 0 -30 12 -30 29c0 2 1 4 1 6l81 455c-109 5 -172 78 -172 173c0 156 116 257 283 257h240
c17 0 31 -12 31 -28c0 -2 -1 -4 -1 -6z" />
    <glyph glyph-name="germandbls" unicode="&#xdf;" horiz-adv-x="660" 
d="M493 418c94 -36 140 -100 140 -173c0 -131 -129 -257 -262 -257c-62 0 -119 23 -119 56c0 20 31 84 65 84c17 0 45 -20 75 -20c51 0 100 66 100 117c0 43 -42 103 -136 103c-17 0 -30 13 -30 29c0 1 1 3 1 5l11 60c3 15 21 35 39 41c49 24 101 50 101 106
c0 29 -24 60 -63 60c-47 0 -101 -21 -120 -127l-83 -468c-3 -19 -21 -34 -39 -34h-68c-16 0 -30 12 -30 29c0 2 1 3 1 5l83 468c30 170 134 250 280 250c114 0 181 -64 181 -148c0 -59 -35 -128 -126 -182z" />
    <glyph glyph-name="registered" unicode="&#xae;" horiz-adv-x="853" 
d="M660 193c17 -21 4 -68 -30 -68h-24c-14 0 -32 10 -42 21c-23 29 -89 120 -97 129h-68v-114c0 -18 -15 -36 -38 -36h-23c-22 0 -37 18 -37 36v389c0 17 15 36 37 36h145c106 0 178 -62 178 -156c0 -60 -34 -109 -85 -136zM399 371h94c42 0 68 22 68 59s-26 60 -68 60h-94
v-119zM475 749c219 0 395 -177 395 -395c0 -217 -176 -395 -395 -395c-217 0 -394 178 -394 395c0 218 177 395 394 395zM475 49c169 0 305 138 305 305s-136 305 -305 305c-167 0 -304 -138 -304 -305s137 -305 304 -305z" />
    <glyph glyph-name="copyright" unicode="&#xa9;" horiz-adv-x="853" 
d="M625 247l18 -18c10 -15 10 -36 -5 -52c-42 -37 -100 -59 -159 -59c-138 0 -230 97 -230 237s92 237 230 237c58 0 116 -22 158 -61c16 -13 15 -37 5 -50l-19 -22c-11 -11 -36 -10 -49 1c-23 22 -60 37 -95 37c-72 0 -131 -56 -131 -142s59 -142 131 -142
c33 0 72 16 95 35c13 12 38 12 51 -1zM475 749c219 0 395 -177 395 -395c0 -217 -176 -395 -395 -395c-217 0 -394 178 -394 395c0 218 177 395 394 395zM475 49c169 0 305 138 305 305s-136 305 -305 305c-167 0 -304 -138 -304 -305s137 -305 304 -305z" />
    <glyph glyph-name="trademark" unicode="&#x2122;" horiz-adv-x="833" 
d="M675 399c-6 -14 -20 -20 -30 -21h-14c-11 0 -27 3 -33 21l-85 198h-5v-239c0 -18 -15 -34 -35 -34h-11c-18 0 -34 16 -34 34v327c0 20 16 35 34 35h65c11 0 26 -11 31 -21l78 -192l80 192c4 10 19 21 31 21h60c18 0 35 -15 35 -35v-327c0 -18 -17 -34 -35 -34h-12
c-18 0 -35 16 -35 34v237h-6zM383 685v-8c0 -19 -14 -34 -35 -34h-82v-285c0 -18 -15 -34 -34 -34h-15c-18 0 -34 16 -34 34v285h-82c-18 0 -34 15 -34 34v8c0 20 16 35 34 35h247c21 0 35 -15 35 -35z" />
    <glyph glyph-name="acute" unicode="&#xb4;" horiz-adv-x="521" 
d="M504 740l-93 -103c-19 -21 -41 -33 -58 -33h-33c-15 0 -23 9 -23 20c0 6 2 11 6 17l65 108c10 16 30 33 49 33h73c14 0 22 -10 22 -22c0 -6 -2 -13 -8 -20z" />
    <glyph glyph-name="dieresis" unicode="&#xa8;" horiz-adv-x="530" 
d="M263 629c-36 0 -59 26 -59 59c0 45 40 83 84 83c35 0 62 -25 62 -59c0 -43 -44 -83 -87 -83zM468 629c-34 0 -59 26 -59 60c0 44 42 82 84 82c36 0 62 -25 62 -58c0 -44 -43 -84 -87 -84z" />
    <glyph glyph-name="plusminus" unicode="&#xb1;" horiz-adv-x="611" 
d="M627 34c0 -19 -15 -34 -35 -34h-478c-18 0 -34 15 -34 34v51c0 19 16 35 34 35h478c20 0 35 -16 35 -35v-51zM627 402c0 -19 -15 -35 -35 -35h-178v-175c0 -19 -15 -35 -34 -35h-52c-19 0 -35 16 -35 35v175h-179c-19 0 -35 16 -35 35v51c0 19 16 34 35 34h179v174
c0 20 16 35 35 35h52c19 0 34 -15 34 -35v-174h178c20 0 35 -15 35 -34v-51z" />
    <glyph glyph-name="yen" unicode="&#xa5;" horiz-adv-x="666" 
d="M763 720c15 0 24 -11 24 -24c0 -6 -3 -14 -8 -20l-188 -218h49c17 0 28 -13 28 -29v-5l-6 -34c-3 -19 -21 -34 -40 -34h-120c-16 -20 -35 -40 -52 -62h160c17 0 30 -12 30 -27c0 -3 -1 -5 -1 -7l-6 -34c-3 -18 -20 -33 -40 -33h-165l-29 -159c-4 -19 -20 -34 -40 -34h-72
c-18 0 -31 12 -31 29c0 1 1 3 1 5l29 159h-168c-16 0 -30 12 -30 28c0 2 1 3 1 5l6 34c3 19 22 34 40 34h164l-32 62h-121c-16 0 -29 12 -29 28c0 2 1 4 1 6l6 34c3 18 22 34 40 34h52l-111 218c-2 4 -3 8 -3 12c0 16 14 32 34 32h77c19 0 39 -9 49 -28l136 -268
c72 85 157 182 230 268c16 19 39 28 59 28h76z" />
    <glyph glyph-name="mu" unicode="&#xb5;" horiz-adv-x="609" 
d="M174 -166c-3 -19 -22 -34 -41 -34h-67c-16 0 -29 12 -29 28c0 2 1 4 1 6l61 343c0 10 3 23 5 33l50 285c3 17 22 33 41 33h67c17 0 29 -13 29 -28v-5l-52 -291c-2 -12 -3 -23 -3 -33c0 -43 19 -65 63 -65c58 0 113 45 122 95l52 294c3 17 22 33 41 33h67
c17 0 29 -13 29 -28v-5l-82 -462c-3 -18 -21 -33 -40 -33h-66c-16 0 -30 12 -30 28c0 2 1 3 1 5l4 21c-51 -48 -101 -66 -150 -66c-16 0 -30 4 -44 8z" />
    <glyph glyph-name="ordfeminine" unicode="&#xaa;" horiz-adv-x="574" 
d="M417 511h-23c-83 -1 -137 -21 -137 -67c0 -23 17 -36 52 -36c38 0 94 35 104 83zM432 601c0 3 1 6 1 9c0 25 -19 52 -64 52c-52 0 -90 -21 -103 -21c-12 0 -23 6 -26 16c0 1 -10 13 -10 28c0 39 66 67 168 67c69 0 133 -36 133 -128c0 -13 -1 -27 -4 -42l-39 -220
c-3 -17 -20 -34 -41 -34h-33c-13 0 -20 7 -20 18c0 2 0 4 1 7l3 18c-23 -25 -63 -52 -113 -52c-78 0 -129 43 -129 107c0 143 142 165 262 165h13z" />
    <glyph glyph-name="ordmasculine" unicode="&#xba;" horiz-adv-x="624" 
d="M374 414c66 0 127 63 127 152c0 56 -33 91 -84 91c-65 0 -126 -61 -126 -152c0 -55 32 -91 83 -91zM434 753c103 0 172 -73 172 -174c0 -149 -121 -260 -248 -260c-104 0 -173 68 -173 170c0 146 117 264 249 264z" />
    <glyph glyph-name="ae" unicode="&#xe6;" horiz-adv-x="917" 
d="M901 257c-3 -18 -22 -34 -41 -35h-329c-1 -7 -2 -13 -2 -19c0 -60 52 -102 110 -102c48 0 109 15 149 35c5 2 10 4 15 4c28 -3 38 -39 38 -62c0 -55 -127 -90 -221 -90c-95 0 -164 35 -200 95c-60 -63 -140 -95 -206 -95c-85 0 -155 52 -155 137c0 181 182 209 333 209
h20l4 18c1 5 1 10 1 14c0 34 -22 60 -79 60c-59 0 -123 -27 -147 -27c-13 0 -23 7 -25 18l-11 41c-1 1 -1 3 -1 4c0 44 115 78 221 78c57 0 114 -22 145 -65c51 40 118 65 189 65c119 0 200 -59 200 -201c0 -25 -3 -52 -8 -82zM390 204l6 31h-15c-100 0 -181 -16 -181 -83
c0 -31 23 -51 63 -51c45 0 116 44 127 103zM553 321h220c1 7 2 14 2 21c0 53 -41 86 -89 86c-56 0 -110 -38 -133 -107z" />
    <glyph glyph-name="oslash" unicode="&#xf8;" horiz-adv-x="626" 
d="M397 541c36 0 69 -7 97 -20c15 12 19 24 35 24h43c13 0 21 -11 21 -22c0 -5 -1 -11 -6 -18c-7 -10 -16 -20 -23 -31c36 -39 57 -93 57 -156c0 -192 -158 -330 -322 -330c-38 0 -69 8 -98 18c-17 -11 -22 -21 -36 -21h-40c-13 0 -22 9 -22 21c0 4 1 10 7 18l21 29
c-36 37 -55 90 -55 152c0 188 150 336 321 336zM212 263c-2 -12 -3 -25 -3 -36c0 -23 4 -43 11 -59c62 81 129 166 191 251c-9 3 -20 5 -31 5c-81 0 -151 -62 -168 -161zM320 103c87 0 167 82 167 197c0 22 -4 43 -11 59c-62 -84 -127 -164 -191 -250c11 -4 22 -6 35 -6z
" />
    <glyph glyph-name="questiondown" unicode="&#xbf;" horiz-adv-x="560" 
d="M232 -210c-131 0 -206 69 -206 165c0 101 77 182 224 272l13 75c3 17 21 32 40 32h69c18 0 29 -12 29 -27v-5l-20 -112c-2 -12 -16 -29 -30 -37l-21 -12c-81 -46 -159 -98 -160 -160c0 -40 35 -67 86 -67c48 0 100 16 152 49c7 4 14 6 21 6c11 0 21 -5 26 -14l25 -49
c1 -4 2 -7 2 -11c0 -12 -6 -27 -19 -35c-69 -45 -145 -70 -231 -70zM348 383c-40 0 -68 30 -68 67c0 48 49 90 96 90c38 0 65 -28 65 -64c0 -48 -45 -93 -93 -93z" />
    <glyph glyph-name="exclamdown" unicode="&#xa1;" horiz-adv-x="344" 
d="M147 302c4 18 21 33 40 33h43c17 0 30 -13 30 -33l-38 -292l-31 -176c-3 -19 -21 -34 -42 -34h-70c-17 0 -29 12 -29 28c0 2 1 4 1 6l31 175c22 98 43 196 65 293zM311 462c-7 -42 -50 -79 -93 -79c-40 0 -67 30 -67 66c0 49 47 91 95 91c38 0 66 -28 66 -64
c0 -5 0 -9 -1 -14z" />
    <glyph glyph-name="logicalnot" unicode="&#xac;" 
d="M511 329h-388c-20 0 -35 9 -35 28v58c0 20 15 35 35 35h483c18 0 34 -15 34 -35v-273c0 -19 -16 -34 -34 -34h-61c-19 0 -34 15 -34 34v187z" />
    <glyph glyph-name="guillemotleft" unicode="&#xab;" horiz-adv-x="628" 
d="M66 266c-4 4 -5 10 -5 17c0 10 4 21 14 29l246 211c7 6 16 10 25 10s18 -4 24 -11l29 -34c3 -5 5 -10 5 -17c0 -10 -5 -21 -14 -29l-178 -154l125 -150c3 -6 5 -12 5 -18c0 -11 -5 -22 -14 -30l-41 -34c-8 -7 -17 -10 -26 -10s-17 3 -23 10zM343 266c-3 4 -4 10 -4 16
c0 10 4 22 13 30l246 211c7 6 16 10 25 10s19 -4 25 -11l28 -34c3 -5 5 -10 5 -17c0 -10 -5 -21 -14 -29l-178 -154l125 -150c3 -6 5 -12 5 -18c0 -11 -5 -22 -14 -30l-40 -34c-8 -7 -18 -10 -27 -10s-17 3 -23 10z" />
    <glyph glyph-name="guillemotright" unicode="&#xbb;" horiz-adv-x="629" 
d="M637 266l-247 -210c-8 -7 -17 -10 -26 -10s-18 3 -23 10l-28 34c-4 4 -6 10 -6 17c0 10 5 22 15 31l177 152l-124 152c-4 5 -5 11 -5 17c0 10 4 21 14 29l40 34c8 7 18 11 27 11c8 0 16 -4 22 -10l173 -211c3 -4 4 -10 4 -16c0 -11 -4 -22 -13 -30zM360 266l-247 -210
c-8 -7 -17 -10 -26 -10s-18 3 -23 10l-28 34c-5 5 -7 11 -7 17c0 11 6 22 16 31l177 152l-124 152c-4 5 -6 11 -6 17c0 11 5 21 15 29l40 34c8 7 18 11 27 11c8 0 16 -4 22 -10l173 -211c3 -4 4 -10 4 -16c0 -11 -4 -22 -13 -30z" />
    <glyph glyph-name="ellipsis" unicode="&#x2026;" horiz-adv-x="853" 
d="M413 -12c-40 0 -70 30 -70 67c0 50 49 96 99 96c41 0 70 -31 70 -69c0 -50 -49 -94 -99 -94zM695 -12c-39 0 -67 29 -67 67c0 50 47 96 96 96c42 0 71 -31 71 -70c0 -49 -50 -93 -100 -93zM130 -12c-40 0 -69 30 -69 67c0 50 49 96 98 96c42 0 71 -31 71 -70
c0 -49 -49 -93 -100 -93z" />
    <glyph glyph-name="endash" unicode="&#x2013;" horiz-adv-x="599" 
d="M603 266c-3 -17 -20 -33 -40 -33h-467c-17 0 -31 13 -31 28c0 2 1 3 1 5l9 46c3 18 20 33 40 33h467c18 0 30 -12 30 -28v-5z" />
    <glyph glyph-name="emdash" unicode="&#x2014;" horiz-adv-x="972" 
d="M977 266c-3 -17 -20 -33 -40 -33h-842c-17 0 -31 13 -31 28c0 2 1 3 1 5l9 46c3 18 20 33 40 33h842c18 0 30 -12 30 -28v-5z" />
    <glyph glyph-name="quotedblleft" unicode="&#x201c;" horiz-adv-x="503" 
d="M553 728c-13 -15 -70 -103 -70 -127c0 -2 1 -4 1 -6c16 -10 31 -31 31 -58c0 -45 -44 -94 -95 -94c-41 0 -73 27 -73 75s76 184 153 252c5 4 11 6 17 6c16 0 42 -12 42 -30c0 -7 -2 -13 -6 -18zM349 729c-15 -18 -59 -92 -70 -123v-11c17 -10 32 -31 32 -58
c0 -45 -45 -94 -95 -94c-41 0 -73 27 -73 75s77 184 152 252c5 4 11 6 17 6c17 0 44 -13 44 -31c-1 -5 -3 -11 -7 -16z" />
    <glyph glyph-name="quotedblright" unicode="&#x201d;" horiz-adv-x="503" 
d="M143 494c12 16 68 101 68 126v7c-16 10 -30 31 -30 59c0 43 42 93 94 93c40 0 72 -26 72 -73c0 -49 -75 -185 -152 -253c-4 -4 -11 -7 -18 -7c-21 0 -41 19 -41 34c0 4 2 9 7 14zM348 494c11 14 68 99 68 124c0 14 -30 37 -30 70c0 44 45 91 94 91c41 0 72 -26 72 -72
c0 -50 -75 -185 -151 -254c-4 -4 -12 -7 -18 -7c-22 0 -42 18 -42 34c0 4 2 9 7 14z" />
    <glyph glyph-name="quoteleft" unicode="&#x2018;" horiz-adv-x="299" 
d="M350 729c-15 -19 -60 -92 -71 -123v-11c17 -11 33 -31 33 -58c0 -45 -46 -94 -96 -94c-41 0 -73 27 -73 75s77 184 152 252c5 4 11 6 17 6c17 0 45 -13 45 -31c-1 -5 -3 -11 -7 -16z" />
    <glyph glyph-name="quoteright" unicode="&#x2019;" horiz-adv-x="299" 
d="M143 494c12 16 68 101 68 126v7c-16 10 -30 31 -30 59c0 43 42 93 94 93c40 0 73 -26 73 -73c0 -49 -76 -185 -153 -253c-4 -4 -11 -7 -18 -7c-21 0 -41 19 -41 34c0 4 2 9 7 14z" />
    <glyph glyph-name="divide" unicode="&#xf7;" 
d="M635 303c0 -19 -16 -35 -34 -35h-473c-19 0 -35 16 -35 35v51c0 19 16 35 35 35h473c18 0 34 -16 34 -35v-51zM275 134c0 46 37 83 82 83c46 0 83 -37 83 -83c0 -45 -37 -81 -83 -81c-45 0 -82 36 -82 81zM275 519c0 45 37 83 82 83c46 0 83 -38 83 -83s-37 -82 -83 -82
c-45 0 -82 37 -82 82z" />
    <glyph glyph-name="Euro" unicode="&#x20ac;" horiz-adv-x="728" 
d="M648 146l10 -22c8 -17 17 -33 17 -46c0 -56 -166 -90 -235 -90c-173 0 -282 94 -303 240h-63c-18 0 -31 11 -31 27c0 2 0 4 1 6l6 34c3 18 22 32 42 34h45v5c0 15 3 38 10 56h-45c-18 0 -31 13 -31 29c0 1 1 3 1 5l6 34c3 18 22 33 42 34h63c73 144 216 240 389 240
c68 0 203 -31 203 -84c0 -2 -41 -89 -82 -89c-6 0 -14 3 -19 6c-35 23 -79 39 -125 39c-79 0 -157 -41 -209 -112h254c17 0 28 -13 28 -29v-5l-6 -34c-3 -17 -21 -34 -40 -35h-289c-2 -11 -2 -7 -10 -60h289c17 0 28 -13 28 -29v-5l-6 -34c-3 -18 -22 -33 -40 -34h-254
c27 -70 91 -113 169 -113c47 0 94 15 139 42c7 4 14 5 20 5c12 0 22 -5 26 -15z" />
    <glyph glyph-name="guilsinglleft" unicode="&#x2039;" horiz-adv-x="379" 
d="M66 266c-3 4 -4 10 -4 16c0 10 4 22 13 30l247 211c7 6 16 10 25 10s18 -4 24 -11l28 -34c3 -5 5 -10 5 -17c0 -10 -5 -21 -14 -29l-178 -154l125 -150c3 -6 5 -12 5 -18c0 -11 -5 -22 -14 -30l-40 -34c-8 -7 -17 -10 -26 -10s-17 3 -23 10z" />
    <glyph glyph-name="guilsinglright" unicode="&#x203a;" horiz-adv-x="379" 
d="M379 266l-247 -210c-8 -7 -17 -10 -26 -10s-18 3 -23 10l-28 34c-4 4 -6 10 -6 17c0 10 5 22 15 31l177 153l-124 151c-4 5 -5 11 -5 17c0 10 4 21 14 29l40 34c8 7 18 11 27 11c8 0 16 -4 22 -10l173 -211c3 -4 4 -10 4 -16c0 -11 -4 -22 -13 -30z" />
    <glyph glyph-name="periodcentered" unicode="&#xb7;" horiz-adv-x="349" 
d="M225 255c-40 0 -68 29 -68 67c0 50 47 96 97 96c43 0 71 -30 71 -68c0 -50 -47 -95 -100 -95z" />
    <glyph glyph-name="quotesinglbase" unicode="&#x201a;" horiz-adv-x="299" 
d="M33 -127c12 16 69 102 69 126c0 1 0 3 -1 6c-16 10 -30 31 -30 58c0 44 42 95 94 95c40 0 73 -28 73 -75c0 -49 -74 -182 -152 -252c-1 -4 -14 -7 -19 -7c-22 0 -40 16 -40 32c0 4 1 12 6 17z" />
    <glyph glyph-name="quotedblbase" unicode="&#x201e;" horiz-adv-x="502" 
d="M33 -127c12 16 69 102 69 126c0 1 0 3 -1 6c-16 10 -30 31 -30 58c0 44 42 95 94 95c40 0 72 -28 72 -75c0 -48 -73 -182 -151 -252c-1 -4 -14 -7 -19 -7c-22 0 -40 16 -40 32c0 4 1 12 6 17zM237 -127c14 17 64 95 69 124c0 13 -31 32 -31 66c0 44 43 95 95 95
c40 0 71 -27 71 -74c0 -49 -73 -182 -150 -252c-5 -4 -12 -7 -18 -7c-4 0 -8 1 -11 3l-14 8c-11 5 -18 8 -18 18c0 4 1 13 7 19z" />
    <glyph glyph-name="circumflex" unicode="&#x2c6;" horiz-adv-x="535" 
d="M419 627l-33 69l-59 -71c-14 -16 -32 -22 -56 -22h-47c-13 0 -20 8 -20 19c0 6 2 13 9 22l96 112c16 18 28 26 49 26h77c11 0 28 -7 33 -16l58 -113c4 -9 9 -18 9 -24c0 -14 -14 -26 -29 -26h-47c-16 0 -33 9 -40 24z" />
    <glyph glyph-name="tilde" unicode="&#x2dc;" horiz-adv-x="509" 
d="M332 640c-18 17 -30 28 -43 28c-38 0 -32 -66 -71 -66h-34c-14 0 -25 12 -25 25c0 2 1 3 1 5c21 90 89 139 150 139c50 0 105 -67 133 -67c34 0 35 64 71 64h35c14 0 23 -13 23 -26v-4c-21 -90 -89 -140 -151 -140c-34 0 -61 19 -89 42z" />
    <glyph glyph-name="macron" unicode="&#xaf;" horiz-adv-x="505" 
d="M548 677c-3 -19 -22 -35 -41 -35h-300c-17 0 -30 13 -30 29c0 2 1 4 1 6l7 38c3 18 22 34 41 34h300c17 0 29 -13 29 -29v-5z" />
    <glyph glyph-name="cedilla" unicode="&#xb8;" horiz-adv-x="497" 
d="M328 -7l-7 -31c16 -14 24 -33 24 -51c0 -71 -86 -121 -175 -121c-41 0 -85 0 -85 30c0 2 0 4 1 7l3 18c3 21 26 33 44 33c10 0 22 -4 38 -4c47 0 72 16 72 39c0 12 -17 21 -17 39v4l15 46l5 8c10 10 23 18 35 18h15c22 0 33 -14 33 -28c0 -3 -1 -5 -1 -7z" />
    <glyph glyph-name="ring" unicode="&#x2da;" horiz-adv-x="493" 
d="M228 713c13 72 84 132 158 132c67 0 115 -48 115 -111c0 -83 -80 -156 -162 -156c-66 0 -113 47 -113 111c0 8 0 16 2 24zM305 713c-1 -4 -1 -8 -1 -12c0 -28 20 -49 49 -49c35 0 71 33 71 72c0 28 -21 49 -49 49c-33 0 -64 -27 -70 -60z" />
    <glyph glyph-name="breve" unicode="&#x2d8;" horiz-adv-x="493" 
d="M515 783c14 0 21 -10 21 -23v-6v-4c-32 -93 -104 -146 -193 -146c-91 0 -141 53 -141 146v4c3 15 17 29 34 29h39c42 0 24 -83 78 -83c29 0 57 16 68 53c8 18 24 30 41 30h53z" />
    <glyph glyph-name="dotaccent" unicode="&#x2d9;" horiz-adv-x="518" 
d="M359 628c-34 0 -59 27 -59 60c0 44 42 83 84 83c37 0 64 -26 64 -60c0 -42 -44 -83 -89 -83z" />
    <glyph glyph-name="hungarumlaut" unicode="&#x2dd;" horiz-adv-x="530" 
d="M415 740l-93 -103c-19 -21 -41 -33 -58 -33h-33c-15 0 -23 9 -23 20c0 6 2 11 6 17l65 108c10 16 30 33 49 33h73c14 0 22 -10 22 -22c0 -6 -2 -13 -8 -20zM611 740l-93 -103c-19 -21 -41 -33 -58 -33h-33c-15 0 -23 9 -23 20c0 6 2 11 6 17l65 108c10 16 30 33 49 33h73
c14 0 22 -10 22 -22c0 -6 -2 -13 -8 -20z" />
    <glyph glyph-name="ogonek" unicode="&#x2db;" horiz-adv-x="497" 
d="M333 -151l-2 -12c-5 -29 -48 -47 -95 -47c-83 0 -132 32 -132 104c0 17 10 132 62 132h17c19 0 30 -12 30 -27c0 -20 -16 -54 -16 -73c0 -33 25 -50 55 -50l32 4l14 3c3 1 7 1 10 1c15 0 25 -11 25 -28v-7z" />
    <glyph glyph-name="caron" unicode="&#x2c7;" horiz-adv-x="535" 
d="M343 758l33 -69l59 71c14 16 32 22 56 22h47c13 0 20 -8 20 -19c0 -6 -2 -13 -9 -22l-96 -112c-16 -18 -28 -26 -49 -26h-77c-11 0 -28 7 -33 16l-58 113c-4 9 -9 18 -9 24c0 14 14 26 29 26h47c16 0 33 -9 40 -24z" />
    <glyph glyph-name="dagger" unicode="&#x2020;" horiz-adv-x="569" 
d="M336 701c3 17 20 33 40 33h56c17 0 29 -13 29 -28v-5l-30 -169h145c16 0 28 -12 28 -27c0 -2 -1 -4 -1 -6l-7 -42c-3 -18 -21 -34 -39 -34h-145l-78 -441c-3 -19 -22 -34 -41 -34h-55c-18 0 -30 12 -30 28c0 2 1 4 1 6l78 441h-148c-16 0 -29 13 -29 29c0 1 1 3 1 5l7 42
c3 17 22 33 40 33h148z" />
    <glyph glyph-name="daggerdbl" unicode="&#x2021;" horiz-adv-x="569" 
d="M336 701c3 17 20 33 40 33h55c18 0 29 -13 29 -28v-5l-30 -169h146c16 0 27 -13 27 -28v-5l-7 -42c-3 -18 -21 -34 -39 -34h-146l-32 -181h146c16 0 28 -12 28 -27c0 -3 -1 -5 -1 -7l-7 -41c-3 -18 -21 -33 -39 -33h-146l-27 -154c-3 -18 -21 -33 -41 -33h-54
c-18 0 -30 12 -30 27c0 2 1 4 1 6l27 154h-148c-17 0 -29 12 -29 27c0 2 1 4 1 6l7 41c3 19 21 34 40 34h148l32 181h-148c-17 0 -29 13 -29 28c0 2 1 4 1 6l7 42c3 17 21 33 40 33h148z" />
    <glyph glyph-name="notequal" unicode="&#x2260;" 
d="M636 200c0 -20 -16 -35 -35 -35h-240l-53 -136c-7 -18 -22 -29 -40 -29h-44c-17 0 -34 15 -34 32c0 3 1 7 2 10c16 41 31 82 46 123h-110c-19 0 -35 15 -35 35v51c0 19 16 34 35 34h156l36 97h-192c-19 0 -35 16 -35 35v51c0 19 16 34 35 34h237l53 136c7 18 23 30 41 30
h44c17 0 34 -16 34 -34c0 -3 0 -6 -1 -9c-16 -40 -32 -82 -49 -123h114c19 0 35 -15 35 -34v-51c0 -19 -16 -35 -35 -35h-158c-13 -32 -25 -64 -37 -97h195c19 0 35 -15 35 -34v-51z" />
    <glyph glyph-name="approxequal" unicode="&#x2248;" 
d="M628 270c9 -6 13 -17 13 -27c0 -6 -1 -12 -4 -17c-34 -67 -87 -119 -169 -119c-83 0 -170 82 -217 82c-30 0 -50 -24 -69 -57c-6 -10 -17 -15 -27 -15c-8 0 -17 2 -23 8l-33 24c-9 6 -12 17 -12 26c0 6 1 13 4 18l5 10c33 61 87 110 164 110c84 0 164 -77 217 -77
c27 0 56 15 80 44c8 10 20 15 30 15c8 0 15 -2 21 -7zM99 373c-8 6 -12 16 -12 26c0 6 1 12 4 17c32 69 89 120 169 120c87 0 170 -81 217 -81c29 0 51 26 69 56c6 10 16 15 27 15c17 0 68 -32 68 -59c0 -6 -2 -12 -4 -17c-36 -73 -90 -119 -179 -119c-78 5 -159 78 -207 78
c-27 0 -56 -17 -80 -46c-8 -10 -19 -15 -30 -15c-7 0 -14 2 -20 8z" />
    <glyph glyph-name="lessequal" unicode="&#x2264;" 
d="M626 605c0 -16 -13 -37 -31 -44l-316 -129l316 -130c17 -7 31 -27 31 -44v-58c0 -16 -12 -29 -28 -29c-4 0 -8 1 -12 3l-460 197c-18 7 -32 26 -32 45v32c0 17 14 37 32 45l460 197c4 1 8 2 12 2c16 0 28 -12 28 -29v-58zM634 43c0 -19 -16 -34 -34 -34h-471
c-19 0 -35 15 -35 34v51c0 19 16 35 35 35h471c18 0 34 -16 34 -35v-51z" />
    <glyph glyph-name="greaterequal" unicode="&#x2265;" 
d="M102 605v58c0 17 12 29 28 29c4 0 8 -1 12 -2l461 -197c16 -7 31 -27 31 -45v-32c0 -31 -26 -40 -47 -52l-445 -190c-4 -2 -8 -2 -12 -2c-16 0 -28 12 -28 28v58c0 17 14 37 32 44l315 130l-315 129c-19 8 -32 28 -32 44zM95 43v51c0 19 15 35 34 35h471
c18 0 34 -16 34 -35v-51c0 -19 -16 -34 -34 -34h-471c-19 0 -34 15 -34 34z" />
    <glyph glyph-name="dotlessi" unicode="&#x131;" horiz-adv-x="302" 
d="M214 33c-3 -18 -22 -33 -41 -33h-67c-17 0 -31 12 -31 28c0 2 1 3 1 5l82 462c3 18 22 33 41 33h67c17 0 30 -13 30 -28v-5z" />
    <glyph glyph-name="a" unicode="a" horiz-adv-x="584" 
d="M393 201l7 41h-14c-106 0 -189 -20 -189 -93c0 -34 23 -54 64 -54c48 0 121 45 132 106zM415 351c1 6 2 13 2 19c0 33 -20 59 -78 59c-61 0 -131 -26 -148 -26c-14 0 -24 7 -26 18l-9 37c-1 1 -1 3 -1 4c0 44 114 78 221 78c91 0 176 -47 176 -165c0 -16 -2 -33 -5 -52
l-51 -290c-3 -18 -20 -33 -39 -33h-61c-18 0 -30 11 -30 28c0 2 1 4 1 6l5 23h-8c-34 -39 -100 -69 -150 -69c-85 0 -154 52 -154 137c0 178 180 205 333 205h19z" />
    <glyph glyph-name="fraction" unicode="&#x2044;" horiz-adv-x="801" 
d="M761 680l-500 -651c-14 -19 -36 -29 -54 -29h-23c-13 0 -22 10 -22 22c0 4 1 8 6 16l499 652c14 18 36 30 56 30h22c13 0 23 -11 23 -24c0 -5 -3 -11 -7 -16z" />
    <glyph glyph-name="perthousand" unicode="&#x2030;" horiz-adv-x="1142" 
d="M302 727c78 0 122 -39 122 -130c0 -21 -3 -44 -7 -70c-24 -140 -90 -199 -186 -199c-78 0 -122 40 -122 132c0 189 93 267 193 267zM246 412c38 0 84 52 84 168c0 44 -15 63 -43 63c-38 0 -86 -49 -86 -166c0 -45 16 -65 45 -65zM756 681c-103 -134 -205 -266 -307 -400
l-192 -252c-14 -19 -36 -29 -54 -29h-23c-14 0 -23 10 -23 22c0 4 2 11 6 16l500 652c14 18 35 30 54 30h23c13 0 22 -11 22 -23c0 -5 -2 -10 -6 -16zM681 392c79 0 123 -40 123 -131c0 -20 -2 -43 -6 -68c-25 -141 -91 -199 -188 -199c-77 0 -121 38 -121 129
c0 21 2 44 7 70c24 140 91 199 185 199zM625 77c38 0 87 48 87 165c0 46 -17 67 -46 67c-37 0 -84 -52 -84 -169c0 -44 16 -63 43 -63zM1023 392c79 0 122 -40 122 -131c0 -20 -2 -43 -6 -68c-25 -141 -91 -199 -187 -199c-78 0 -122 38 -122 129c0 20 2 44 7 70
c24 140 90 199 186 199zM967 77c37 0 85 49 85 167c0 45 -16 65 -44 65c-39 0 -86 -52 -86 -169c0 -44 16 -63 45 -63z" />
    <glyph glyph-name="OE" unicode="&#x152;" horiz-adv-x="1239" 
d="M793 720h466c16 0 29 -13 29 -28c0 -2 -1 -4 -1 -6l-10 -60c-3 -17 -22 -33 -40 -33h-360l-28 -161h314c18 0 29 -13 29 -29v-5l-11 -60c-3 -18 -21 -33 -41 -33h-314l-31 -179h360c16 0 28 -12 28 -28v-5l-11 -60c-3 -18 -21 -33 -39 -33h-466c-17 0 -30 10 -30 25
c0 1 1 3 1 5l6 36c-70 -50 -153 -78 -237 -78c-174 0 -307 117 -307 298c0 232 197 446 439 446c89 0 159 -30 209 -79l6 36c3 18 20 31 39 31zM430 114c140 0 268 131 268 299c0 116 -74 192 -182 192c-132 0 -269 -123 -269 -297c0 -115 74 -194 183 -194z" />
    <glyph glyph-name="oe" unicode="&#x153;" horiz-adv-x="965" 
d="M941 223l-331 -1c-1 -6 -1 -12 -1 -17c0 -61 52 -104 110 -104c48 0 109 15 149 35c5 2 10 4 15 4c24 0 40 -38 40 -63c0 -52 -127 -89 -222 -89c-90 0 -156 29 -192 83c-56 -51 -133 -83 -211 -83c-134 0 -223 85 -223 217c0 189 152 335 321 335c78 0 144 -35 181 -87
c55 53 130 87 213 87c117 0 199 -60 199 -202c0 -35 3 -115 -48 -115zM319 103c83 0 163 82 163 200c0 74 -42 121 -107 121c-81 0 -161 -82 -161 -201c0 -73 42 -120 105 -120zM767 429c-55 0 -111 -40 -134 -108h220c1 7 2 14 2 21c0 53 -41 87 -88 87z" />
    <glyph glyph-name="Adieresis" unicode="&#xc4;" horiz-adv-x="746" 
d="M722 36c0 -2 1 -5 1 -7c0 -15 -16 -29 -34 -29h-82c-19 0 -33 12 -39 31l-33 140h-305l-83 -140c-12 -19 -31 -31 -49 -31h-84c-15 0 -25 9 -25 21c0 5 1 10 5 16l406 654c11 14 29 29 47 29h61c16 0 33 -14 37 -29zM507 288l-42 206c-6 30 -10 55 -13 72
c-12 -22 -41 -73 -41 -73l-114 -205h210zM390 820c-36 0 -59 26 -59 59c0 45 40 83 84 83c35 0 62 -25 62 -59c0 -43 -44 -83 -87 -83zM595 820c-34 0 -59 26 -59 60c0 44 42 82 84 82c36 0 62 -25 62 -58c0 -44 -43 -84 -87 -84z" />
    <glyph glyph-name="Aring" unicode="&#xc5;" horiz-adv-x="746" 
d="M365 784c13 73 84 134 158 134c67 0 115 -49 115 -112c0 -54 -34 -101 -78 -129v-1l172 -636l-1 -1c2 -3 2 -11 2 -15c-3 -14 -16 -24 -33 -24h-84c-18 0 -33 16 -38 31l-34 139l-306 -1c-35 -59 -83 -169 -130 -169h-83c-15 0 -26 8 -26 19c0 4 2 14 8 20l1 1l394 637
c-25 20 -39 49 -39 83c0 8 0 16 2 24zM514 294l1 1c-17 67 -31 138 -41 190l-14 73c-8 -8 -19 -33 -29 -53c-29 -53 -72 -134 -117 -210l-1 -1h201zM442 784c-1 -4 -1 -8 -1 -11c0 -29 20 -49 49 -49c36 0 70 33 70 71c0 28 -20 49 -49 49c-33 0 -63 -26 -69 -60z" />
    <glyph glyph-name="Ccedilla" unicode="&#xc7;" horiz-adv-x="741" 
d="M458 -10l-7 -28c18 -14 25 -34 25 -53c0 -69 -87 -119 -175 -119c-41 0 -85 0 -85 31c0 2 0 4 1 7l3 18c3 17 22 33 41 33c14 0 23 -5 41 -5c49 0 72 21 72 38c0 13 -18 20 -18 38c0 2 0 4 1 6l11 34c-169 15 -266 128 -266 290c0 259 196 452 439 452
c104 0 184 -39 239 -105c5 -6 8 -13 8 -20s-3 -19 -11 -27l-49 -45c-8 -6 -19 -12 -28 -12c-8 0 -17 4 -22 9c-40 42 -98 73 -160 73c-135 0 -273 -121 -273 -297c0 -118 78 -194 187 -194c62 0 130 31 185 73c7 5 17 9 25 9c10 0 18 -4 24 -11l33 -46c3 -4 4 -9 4 -14
c0 -10 -5 -23 -16 -32c-68 -55 -145 -92 -229 -103z" />
    <glyph glyph-name="Eacute" unicode="&#xc9;" horiz-adv-x="689" 
d="M231 720h466c16 0 29 -13 29 -28c0 -2 -1 -4 -1 -6l-10 -60c-3 -17 -22 -33 -40 -33h-360l-28 -161h314c17 0 29 -13 29 -29v-5l-11 -60c-3 -18 -22 -33 -41 -33h-314l-31 -179h360c16 0 28 -12 28 -28v-5l-11 -60c-3 -18 -21 -33 -39 -33h-466c-17 0 -30 12 -30 28
c0 1 1 3 1 5l115 653c3 18 22 34 40 34zM606 931l-93 -103c-19 -21 -41 -33 -58 -33h-33c-15 0 -23 9 -23 20c0 6 2 11 6 17l65 108c10 16 30 33 49 33h73c14 0 22 -10 22 -22c0 -6 -2 -13 -8 -20z" />
    <glyph glyph-name="Ntilde" unicode="&#xd1;" horiz-adv-x="797" 
d="M774 720c18 0 30 -12 30 -28v-5l-116 -653c-3 -19 -20 -34 -40 -34h-73c-15 0 -30 9 -35 21c-9 13 -114 213 -245 454l-6 -1c-2 -21 -9 -82 -19 -140l-53 -300c-3 -19 -20 -34 -40 -34h-72c-17 0 -30 12 -30 28c0 2 1 4 1 6l116 653c3 18 20 33 39 33h73
c15 0 30 -11 35 -23l247 -452l5 1c4 23 8 80 17 129l55 312c3 18 20 33 39 33h72zM494 831c-18 17 -30 28 -43 28c-38 0 -32 -66 -71 -66h-34c-14 0 -25 12 -25 25c0 2 1 3 1 5c21 90 89 139 150 139c50 0 105 -67 133 -67c34 0 35 64 71 64h35c14 0 23 -13 23 -26v-4
c-21 -90 -89 -140 -151 -140c-34 0 -61 19 -89 42z" />
    <glyph glyph-name="Odieresis" unicode="&#xd6;" horiz-adv-x="842" 
d="M828 358c-39 -221 -236 -370 -431 -370c-174 0 -306 117 -306 298c0 233 194 446 438 446c193 0 305 -133 305 -303c0 -23 -2 -47 -6 -71zM420 115c137 0 269 128 269 296c0 117 -76 194 -183 194c-134 0 -270 -124 -270 -297c0 -115 75 -193 184 -193zM440 820
c-36 0 -59 26 -59 59c0 45 40 83 84 83c35 0 62 -25 62 -59c0 -43 -44 -83 -87 -83zM645 820c-34 0 -59 26 -59 60c0 44 42 82 84 82c36 0 62 -25 62 -58c0 -44 -43 -84 -87 -84z" />
    <glyph glyph-name="Udieresis" unicode="&#xdc;" horiz-adv-x="812" 
d="M796 720c17 0 29 -12 29 -28v-5l-66 -374c-35 -196 -189 -325 -377 -325c-167 0 -269 99 -269 254c0 22 2 46 7 71l66 374c3 18 20 33 39 33h72c18 0 30 -12 30 -28v-5l-64 -363c-3 -19 -5 -37 -5 -54c0 -94 51 -156 147 -156c113 0 193 87 215 210l64 363
c3 18 20 33 40 33h72zM424 820c-36 0 -59 26 -59 59c0 45 40 83 84 83c35 0 62 -25 62 -59c0 -43 -44 -83 -87 -83zM629 820c-34 0 -59 26 -59 60c0 44 42 82 84 82c36 0 62 -25 62 -58c0 -44 -43 -84 -87 -84z" />
    <glyph glyph-name="aacute" unicode="&#xe1;" horiz-adv-x="584" 
d="M382 201l7 41h-14c-106 0 -189 -20 -189 -93c0 -34 23 -54 64 -54c48 0 121 45 132 106zM404 351c1 6 2 13 2 19c0 33 -20 59 -78 59c-61 0 -131 -26 -148 -26c-14 0 -24 7 -26 18l-9 37c-1 1 -1 3 -1 4c0 44 114 78 221 78c91 0 176 -47 176 -165c0 -16 -2 -33 -5 -52
l-51 -290c-3 -18 -20 -33 -39 -33h-61c-18 0 -30 11 -30 28c0 2 1 4 1 6l5 23h-8c-34 -39 -100 -69 -150 -69c-85 0 -154 52 -154 137c0 178 180 205 333 205h19zM507 740l-93 -103c-19 -21 -41 -33 -58 -33h-33c-15 0 -23 9 -23 20c0 6 2 11 6 17l65 108c10 16 30 33 49 33
h73c14 0 22 -10 22 -22c0 -6 -2 -13 -8 -20z" />
    <glyph glyph-name="agrave" unicode="&#xe0;" horiz-adv-x="584" 
d="M382 201l7 41h-14c-106 0 -189 -20 -189 -93c0 -34 23 -54 64 -54c48 0 121 45 132 106zM404 351c1 6 2 13 2 19c0 33 -20 59 -78 59c-61 0 -131 -26 -148 -26c-14 0 -24 7 -26 18l-9 37c-1 1 -1 3 -1 4c0 44 114 78 221 78c91 0 176 -47 176 -165c0 -16 -2 -33 -5 -52
l-51 -290c-3 -18 -20 -33 -39 -33h-61c-18 0 -30 11 -30 28c0 2 1 4 1 6l5 23h-8c-34 -39 -100 -69 -150 -69c-85 0 -154 52 -154 137c0 178 180 205 333 205h19zM345 627c-16 30 -33 64 -61 113c-2 4 -3 10 -3 14c0 14 14 28 30 28h73c21 0 34 -14 40 -33l27 -108v-4
c0 -17 -11 -33 -32 -33h-33c-16 0 -31 7 -41 23z" />
    <glyph glyph-name="acircumflex" unicode="&#xe2;" horiz-adv-x="584" 
d="M382 201l7 41h-14c-106 0 -189 -20 -189 -93c0 -34 23 -54 64 -54c48 0 121 45 132 106zM404 351c1 6 2 13 2 19c0 33 -20 59 -78 59c-61 0 -131 -26 -148 -26c-14 0 -24 7 -26 18l-9 37c-1 1 -1 3 -1 4c0 44 114 78 221 78c91 0 176 -47 176 -165c0 -16 -2 -33 -5 -52
l-51 -290c-3 -18 -20 -33 -39 -33h-61c-18 0 -30 11 -30 28c0 2 1 4 1 6l5 23h-8c-34 -39 -100 -69 -150 -69c-85 0 -154 52 -154 137c0 178 180 205 333 205h19zM427 627l-33 69l-59 -71c-14 -16 -32 -22 -56 -22h-47c-13 0 -20 8 -20 19c0 6 2 13 9 22l96 112
c16 18 28 26 49 26h77c11 0 28 -7 33 -16l58 -113c4 -9 9 -18 9 -24c0 -14 -14 -26 -29 -26h-47c-16 0 -33 9 -40 24z" />
    <glyph glyph-name="adieresis" unicode="&#xe4;" horiz-adv-x="584" 
d="M382 201l7 41h-14c-106 0 -189 -20 -189 -93c0 -34 23 -54 64 -54c48 0 121 45 132 106zM404 351c1 6 2 13 2 19c0 33 -20 59 -78 59c-61 0 -131 -26 -148 -26c-14 0 -24 7 -26 18l-9 37c-1 1 -1 3 -1 4c0 44 114 78 221 78c91 0 176 -47 176 -165c0 -16 -2 -33 -5 -52
l-51 -290c-3 -18 -20 -33 -39 -33h-61c-18 0 -30 11 -30 28c0 2 1 4 1 6l5 23h-8c-34 -39 -100 -69 -150 -69c-85 0 -154 52 -154 137c0 178 180 205 333 205h19zM273 629c-36 0 -59 26 -59 59c0 45 40 83 84 83c35 0 62 -25 62 -59c0 -43 -44 -83 -87 -83zM478 629
c-34 0 -59 26 -59 60c0 44 42 82 84 82c36 0 62 -25 62 -58c0 -44 -43 -84 -87 -84z" />
    <glyph glyph-name="atilde" unicode="&#xe3;" horiz-adv-x="584" 
d="M382 201l7 41h-14c-106 0 -189 -20 -189 -93c0 -34 23 -54 64 -54c48 0 121 45 132 106zM404 351c1 6 2 13 2 19c0 33 -20 59 -78 59c-61 0 -131 -26 -148 -26c-14 0 -24 7 -26 18l-9 37c-1 1 -1 3 -1 4c0 44 114 78 221 78c91 0 176 -47 176 -165c0 -16 -2 -33 -5 -52
l-51 -290c-3 -18 -20 -33 -39 -33h-61c-18 0 -30 11 -30 28c0 2 1 4 1 6l5 23h-8c-34 -39 -100 -69 -150 -69c-85 0 -154 52 -154 137c0 178 180 205 333 205h19zM355 640c-18 17 -30 28 -43 28c-38 0 -32 -66 -71 -66h-34c-14 0 -25 12 -25 25c0 2 1 3 1 5
c21 90 89 139 150 139c50 0 105 -67 133 -67c34 0 35 64 71 64h35c14 0 23 -13 23 -26v-4c-21 -90 -89 -140 -151 -140c-34 0 -61 19 -89 42z" />
    <glyph glyph-name="aring" unicode="&#xe5;" horiz-adv-x="584" 
d="M382 201l7 41h-14c-106 0 -189 -20 -189 -93c0 -34 23 -54 64 -54c48 0 121 45 132 106zM404 351c1 6 2 13 2 19c0 33 -20 59 -78 59c-61 0 -131 -26 -148 -26c-14 0 -24 7 -26 18l-9 37c-1 1 -1 3 -1 4c0 44 114 78 221 78c91 0 176 -47 176 -165c0 -16 -2 -33 -5 -52
l-51 -290c-3 -18 -20 -33 -39 -33h-61c-18 0 -30 11 -30 28c0 2 1 4 1 6l5 23h-8c-34 -39 -100 -69 -150 -69c-85 0 -154 52 -154 137c0 178 180 205 333 205h19zM255 713c13 72 84 132 158 132c67 0 115 -48 115 -111c0 -83 -80 -156 -162 -156c-66 0 -113 47 -113 111
c0 8 0 16 2 24zM332 713c-1 -4 -1 -8 -1 -12c0 -28 20 -49 49 -49c35 0 71 33 71 72c0 28 -21 49 -49 49c-33 0 -64 -27 -70 -60z" />
    <glyph glyph-name="ccedilla" unicode="&#xe7;" horiz-adv-x="542" 
d="M490 157c14 -17 34 -43 34 -61c0 -9 -5 -20 -15 -28c-55 -42 -110 -69 -172 -78c-2 -9 -5 -18 -7 -28c18 -14 25 -34 25 -53c0 -70 -88 -119 -175 -119c-41 0 -86 0 -86 30c0 2 0 4 1 7l3 18c3 17 24 34 42 34c12 0 27 -5 40 -5c47 0 73 18 73 38c0 12 -19 19 -19 38
c0 2 0 4 1 6l11 36c-108 14 -171 85 -171 203c0 221 146 345 317 345c81 0 138 -30 186 -81c4 -5 7 -12 7 -18c0 -2 -1 -4 -1 -6c-2 -13 -48 -75 -85 -75c-8 0 -16 2 -20 7c-30 32 -63 54 -108 54c-80 0 -156 -73 -156 -201c0 -73 38 -114 100 -114c45 0 86 22 128 54
c7 5 15 8 23 8c10 0 18 -4 24 -11z" />
    <glyph glyph-name="eacute" unicode="&#xe9;" horiz-adv-x="601" 
d="M360 431c-57 0 -116 -41 -140 -115h228c1 8 2 17 2 24c0 59 -44 91 -90 91zM534 227h-332l-1 -1c-1 -6 -1 -12 -1 -17c0 -63 53 -112 112 -112c48 0 110 15 152 34c4 3 9 5 14 5c24 0 37 -33 37 -58c0 -54 -127 -90 -222 -90c-144 0 -229 74 -229 207
c0 213 149 345 318 345c120 0 200 -64 200 -202c0 -35 2 -111 -48 -111zM533 740l-93 -103c-19 -21 -41 -33 -58 -33h-33c-15 0 -23 9 -23 20c0 6 2 11 6 17l65 108c10 16 30 33 49 33h73c14 0 22 -10 22 -22c0 -6 -2 -13 -8 -20z" />
    <glyph glyph-name="egrave" unicode="&#xe8;" horiz-adv-x="601" 
d="M360 431c-57 0 -116 -41 -140 -115h228c1 8 2 17 2 24c0 59 -44 91 -90 91zM534 227h-332l-1 -1c-1 -6 -1 -12 -1 -17c0 -63 53 -112 112 -112c48 0 110 15 152 34c4 3 9 5 14 5c24 0 37 -33 37 -58c0 -54 -127 -90 -222 -90c-144 0 -229 74 -229 207
c0 213 149 345 318 345c120 0 200 -64 200 -202c0 -35 2 -111 -48 -111zM355 627c-16 30 -33 64 -61 113c-2 4 -3 10 -3 14c0 14 14 28 30 28h73c21 0 34 -14 40 -33l27 -108v-4c0 -17 -11 -33 -32 -33h-33c-16 0 -31 7 -41 23z" />
    <glyph glyph-name="ecircumflex" unicode="&#xea;" horiz-adv-x="601" 
d="M360 431c-57 0 -116 -41 -140 -115h228c1 8 2 17 2 24c0 59 -44 91 -90 91zM534 227h-332l-1 -1c-1 -6 -1 -12 -1 -17c0 -63 53 -112 112 -112c48 0 110 15 152 34c4 3 9 5 14 5c24 0 37 -33 37 -58c0 -54 -127 -90 -222 -90c-144 0 -229 74 -229 207
c0 213 149 345 318 345c120 0 200 -64 200 -202c0 -35 2 -111 -48 -111zM445 627l-33 69l-59 -71c-14 -16 -32 -22 -56 -22h-47c-13 0 -20 8 -20 19c0 6 2 13 9 22l96 112c16 18 28 26 49 26h77c11 0 28 -7 33 -16l58 -113c4 -9 9 -18 9 -24c0 -14 -14 -26 -29 -26h-47
c-16 0 -33 9 -40 24z" />
    <glyph glyph-name="edieresis" unicode="&#xeb;" horiz-adv-x="601" 
d="M360 431c-57 0 -116 -41 -140 -115h228c1 8 2 17 2 24c0 59 -44 91 -90 91zM534 227h-332l-1 -1c-1 -6 -1 -12 -1 -17c0 -63 53 -112 112 -112c48 0 110 15 152 34c4 3 9 5 14 5c24 0 37 -33 37 -58c0 -54 -127 -90 -222 -90c-144 0 -229 74 -229 207
c0 213 149 345 318 345c120 0 200 -64 200 -202c0 -35 2 -111 -48 -111zM291 629c-36 0 -59 26 -59 59c0 45 40 83 84 83c35 0 62 -25 62 -59c0 -43 -44 -83 -87 -83zM496 629c-34 0 -59 26 -59 60c0 44 42 82 84 82c36 0 62 -25 62 -58c0 -44 -43 -84 -87 -84z" />
    <glyph glyph-name="iacute" unicode="&#xed;" horiz-adv-x="302" 
d="M375 740l-93 -103c-19 -21 -41 -33 -58 -33h-33c-15 0 -23 9 -23 20c0 6 2 11 6 17l65 108c10 16 30 33 49 33h73c14 0 22 -10 22 -22c0 -6 -2 -13 -8 -20zM203 33c-3 -18 -22 -33 -41 -33h-67c-17 0 -31 12 -31 28c0 2 1 3 1 5l82 462c3 18 22 33 41 33h67
c17 0 30 -13 30 -28v-5z" />
    <glyph glyph-name="igrave" unicode="&#xec;" horiz-adv-x="302" 
d="M207 627c-16 30 -33 64 -61 113c-2 4 -3 10 -3 14c0 14 14 28 30 28h73c21 0 34 -14 40 -33l27 -108v-4c0 -17 -11 -33 -32 -33h-33c-16 0 -31 7 -41 23zM203 33c-3 -18 -22 -33 -41 -33h-67c-17 0 -31 12 -31 28c0 2 1 3 1 5l82 462c3 18 22 33 41 33h67
c17 0 30 -13 30 -28v-5z" />
    <glyph glyph-name="icircumflex" unicode="&#xee;" horiz-adv-x="302" 
d="M203 33c-3 -18 -22 -33 -41 -33h-67c-17 0 -31 12 -31 28c0 2 1 3 1 5l82 462c3 18 22 33 41 33h67c17 0 30 -13 30 -28v-5zM291 627l-33 69l-59 -71c-14 -16 -32 -22 -56 -22h-47c-13 0 -20 8 -20 19c0 6 2 13 9 22l96 112c16 18 28 26 49 26h77c11 0 28 -7 33 -16
l58 -113c4 -9 9 -18 9 -24c0 -14 -14 -26 -29 -26h-47c-16 0 -33 9 -40 24z" />
    <glyph glyph-name="idieresis" unicode="&#xef;" horiz-adv-x="302" 
d="M137 629c-36 0 -59 26 -59 59c0 45 40 83 84 83c35 0 62 -25 62 -59c0 -43 -44 -83 -87 -83zM342 629c-34 0 -59 26 -59 60c0 44 42 82 84 82c36 0 62 -25 62 -58c0 -44 -43 -84 -87 -84zM203 33c-3 -18 -22 -33 -41 -33h-67c-17 0 -31 12 -31 28c0 2 1 3 1 5l82 462
c3 18 22 33 41 33h67c17 0 30 -13 30 -28v-5z" />
    <glyph glyph-name="ntilde" unicode="&#xf1;" horiz-adv-x="622" 
d="M431 540c100 0 149 -54 149 -149c0 -19 -2 -40 -6 -63l-52 -295c-3 -18 -21 -33 -40 -33h-68c-16 0 -30 12 -30 28c0 2 1 3 1 5l50 282c2 13 4 26 4 37c0 43 -20 68 -61 68c-59 0 -112 -44 -121 -93l-52 -294c-3 -18 -21 -33 -40 -33h-67c-17 0 -31 12 -31 28
c0 2 1 3 1 5l82 462c3 18 22 33 41 33h64c17 0 29 -12 29 -28v-5l-4 -19c1 0 6 -2 8 -3c37 41 96 67 143 67zM373 640c-18 17 -30 28 -43 28c-38 0 -32 -66 -71 -66h-34c-14 0 -25 12 -25 25c0 2 1 3 1 5c21 90 89 139 150 139c50 0 105 -67 133 -67c34 0 35 64 71 64h35
c14 0 23 -13 23 -26v-4c-21 -90 -89 -140 -151 -140c-34 0 -61 19 -89 42z" />
    <glyph glyph-name="oacute" unicode="&#xf3;" horiz-adv-x="628" 
d="M311 104c82 0 162 82 162 200c0 74 -42 120 -106 120c-82 0 -162 -81 -162 -200c0 -73 42 -120 106 -120zM388 540c134 0 224 -90 224 -221c0 -191 -157 -331 -322 -331c-135 0 -224 86 -224 218c0 189 152 334 322 334zM542 740l-93 -103c-19 -21 -41 -33 -58 -33h-33
c-15 0 -23 9 -23 20c0 6 2 11 6 17l65 108c10 16 30 33 49 33h73c14 0 22 -10 22 -22c0 -6 -2 -13 -8 -20z" />
    <glyph glyph-name="ograve" unicode="&#xf2;" horiz-adv-x="628" 
d="M311 104c82 0 162 82 162 200c0 74 -42 120 -106 120c-82 0 -162 -81 -162 -200c0 -73 42 -120 106 -120zM388 540c134 0 224 -90 224 -221c0 -191 -157 -331 -322 -331c-135 0 -224 86 -224 218c0 189 152 334 322 334zM365 627c-16 30 -33 64 -61 113c-2 4 -3 10 -3 14
c0 14 14 28 30 28h73c21 0 34 -14 40 -33l27 -108v-4c0 -17 -11 -33 -32 -33h-33c-16 0 -31 7 -41 23z" />
    <glyph glyph-name="ocircumflex" unicode="&#xf4;" horiz-adv-x="628" 
d="M311 104c82 0 162 82 162 200c0 74 -42 120 -106 120c-82 0 -162 -81 -162 -200c0 -73 42 -120 106 -120zM388 540c134 0 224 -90 224 -221c0 -191 -157 -331 -322 -331c-135 0 -224 86 -224 218c0 189 152 334 322 334zM456 627l-33 69l-59 -71c-14 -16 -32 -22 -56 -22
h-47c-13 0 -20 8 -20 19c0 6 2 13 9 22l96 112c16 18 28 26 49 26h77c11 0 28 -7 33 -16l58 -113c4 -9 9 -18 9 -24c0 -14 -14 -26 -29 -26h-47c-16 0 -33 9 -40 24z" />
    <glyph glyph-name="odieresis" unicode="&#xf6;" horiz-adv-x="628" 
d="M311 104c82 0 162 82 162 200c0 74 -42 120 -106 120c-82 0 -162 -81 -162 -200c0 -73 42 -120 106 -120zM388 540c134 0 224 -90 224 -221c0 -191 -157 -331 -322 -331c-135 0 -224 86 -224 218c0 189 152 334 322 334zM302 629c-36 0 -59 26 -59 59c0 45 40 83 84 83
c35 0 62 -25 62 -59c0 -43 -44 -83 -87 -83zM507 629c-34 0 -59 26 -59 60c0 44 42 82 84 82c36 0 62 -25 62 -58c0 -44 -43 -84 -87 -84z" />
    <glyph glyph-name="otilde" unicode="&#xf5;" horiz-adv-x="628" 
d="M311 104c82 0 162 82 162 200c0 74 -42 120 -106 120c-82 0 -162 -81 -162 -200c0 -73 42 -120 106 -120zM388 540c134 0 224 -90 224 -221c0 -191 -157 -331 -322 -331c-135 0 -224 86 -224 218c0 189 152 334 322 334zM379 640c-18 17 -30 28 -43 28
c-38 0 -32 -66 -71 -66h-34c-14 0 -25 12 -25 25c0 2 1 3 1 5c21 90 89 139 150 139c50 0 105 -67 133 -67c34 0 35 64 71 64h35c14 0 23 -13 23 -26v-4c-21 -90 -89 -140 -151 -140c-34 0 -61 19 -89 42z" />
    <glyph glyph-name="uacute" unicode="&#xfa;" horiz-adv-x="618" 
d="M238 -12c-101 0 -150 53 -150 148c0 19 2 40 6 62l53 297c3 18 22 33 41 33h67c17 0 29 -12 29 -28v-5l-50 -283c-3 -14 -4 -27 -4 -38c0 -44 19 -67 62 -67c58 0 111 45 120 94l52 294c3 18 22 33 40 33h68c17 0 29 -12 29 -28v-5l-82 -462c-3 -18 -21 -33 -40 -33h-65
c-16 0 -30 12 -30 28c0 2 1 3 1 5l4 19c-2 0 -6 2 -8 2c-37 -41 -95 -66 -143 -66zM538 740l-93 -103c-19 -21 -41 -33 -58 -33h-33c-15 0 -23 9 -23 20c0 6 2 11 6 17l65 108c10 16 30 33 49 33h73c14 0 22 -10 22 -22c0 -6 -2 -13 -8 -20z" />
    <glyph glyph-name="ugrave" unicode="&#xf9;" horiz-adv-x="618" 
d="M238 -12c-101 0 -150 53 -150 148c0 19 2 40 6 62l53 297c3 18 22 33 41 33h67c17 0 29 -12 29 -28v-5l-50 -283c-3 -14 -4 -27 -4 -38c0 -44 19 -67 62 -67c58 0 111 45 120 94l52 294c3 18 22 33 40 33h68c17 0 29 -12 29 -28v-5l-82 -462c-3 -18 -21 -33 -40 -33h-65
c-16 0 -30 12 -30 28c0 2 1 3 1 5l4 19c-2 0 -6 2 -8 2c-37 -41 -95 -66 -143 -66zM358 627c-16 30 -33 64 -61 113c-2 4 -3 10 -3 14c0 14 14 28 30 28h73c21 0 34 -14 40 -33l27 -108v-4c0 -17 -11 -33 -32 -33h-33c-16 0 -31 7 -41 23z" />
    <glyph glyph-name="ucircumflex" unicode="&#xfb;" horiz-adv-x="618" 
d="M238 -12c-101 0 -150 53 -150 148c0 19 2 40 6 62l53 297c3 18 22 33 41 33h67c17 0 29 -12 29 -28v-5l-50 -283c-3 -14 -4 -27 -4 -38c0 -44 19 -67 62 -67c58 0 111 45 120 94l52 294c3 18 22 33 40 33h68c17 0 29 -12 29 -28v-5l-82 -462c-3 -18 -21 -33 -40 -33h-65
c-16 0 -30 12 -30 28c0 2 1 3 1 5l4 19c-2 0 -6 2 -8 2c-37 -41 -95 -66 -143 -66zM450 627l-33 69l-59 -71c-14 -16 -32 -22 -56 -22h-47c-13 0 -20 8 -20 19c0 6 2 13 9 22l96 112c16 18 28 26 49 26h77c11 0 28 -7 33 -16l58 -113c4 -9 9 -18 9 -24
c0 -14 -14 -26 -29 -26h-47c-16 0 -33 9 -40 24z" />
    <glyph glyph-name="udieresis" unicode="&#xfc;" horiz-adv-x="618" 
d="M238 -12c-101 0 -150 53 -150 148c0 19 2 40 6 62l53 297c3 18 22 33 41 33h67c17 0 29 -12 29 -28v-5l-50 -283c-3 -14 -4 -27 -4 -38c0 -44 19 -67 62 -67c58 0 111 45 120 94l52 294c3 18 22 33 40 33h68c17 0 29 -12 29 -28v-5l-82 -462c-3 -18 -21 -33 -40 -33h-65
c-16 0 -30 12 -30 28c0 2 1 3 1 5l4 19c-2 0 -6 2 -8 2c-37 -41 -95 -66 -143 -66zM295 629c-36 0 -59 26 -59 59c0 45 40 83 84 83c35 0 62 -25 62 -59c0 -43 -44 -83 -87 -83zM500 629c-34 0 -59 26 -59 60c0 44 42 82 84 82c36 0 62 -25 62 -58c0 -44 -43 -84 -87 -84z
" />
    <glyph glyph-name="Agrave" unicode="&#xc0;" horiz-adv-x="746" 
d="M722 36c0 -2 1 -5 1 -7c0 -15 -16 -29 -34 -29h-82c-19 0 -33 12 -39 31l-33 140h-305l-83 -140c-12 -19 -31 -31 -49 -31h-84c-15 0 -25 9 -25 21c0 5 1 10 5 16l406 654c11 14 29 29 47 29h61c16 0 33 -14 37 -29zM507 288l-42 206c-6 30 -10 55 -13 72
c-12 -22 -41 -73 -41 -73l-114 -205h210zM450 818c-16 30 -33 64 -61 113c-2 4 -3 10 -3 14c0 14 14 28 30 28h73c21 0 34 -14 40 -33l27 -108v-4c0 -17 -11 -33 -32 -33h-33c-16 0 -31 7 -41 23z" />
    <glyph glyph-name="Atilde" unicode="&#xc3;" horiz-adv-x="746" 
d="M722 36c0 -2 1 -5 1 -7c0 -15 -16 -29 -34 -29h-82c-19 0 -33 12 -39 31l-33 140h-305l-83 -140c-12 -19 -31 -31 -49 -31h-84c-15 0 -25 9 -25 21c0 5 1 10 5 16l406 654c11 14 29 29 47 29h61c16 0 33 -14 37 -29zM507 288l-42 206c-6 30 -10 55 -13 72
c-12 -22 -41 -73 -41 -73l-114 -205h210zM469 831c-18 17 -30 28 -43 28c-38 0 -32 -66 -71 -66h-34c-14 0 -25 12 -25 25c0 2 1 3 1 5c21 90 89 139 150 139c50 0 105 -67 133 -67c34 0 35 64 71 64h35c14 0 23 -13 23 -26v-4c-21 -90 -89 -140 -151 -140
c-34 0 -61 19 -89 42z" />
    <glyph glyph-name="Otilde" unicode="&#xd5;" horiz-adv-x="842" 
d="M828 358c-39 -221 -236 -370 -431 -370c-174 0 -306 117 -306 298c0 233 194 446 438 446c193 0 305 -133 305 -303c0 -23 -2 -47 -6 -71zM420 115c137 0 269 128 269 296c0 117 -76 194 -183 194c-134 0 -270 -124 -270 -297c0 -115 75 -193 184 -193zM521 831
c-18 17 -30 28 -43 28c-38 0 -32 -66 -71 -66h-34c-14 0 -25 12 -25 25c0 2 1 3 1 5c21 90 89 139 150 139c50 0 105 -67 133 -67c34 0 35 64 71 64h35c14 0 23 -13 23 -26v-4c-21 -90 -89 -140 -151 -140c-34 0 -61 19 -89 42z" />
    <glyph glyph-name="ydieresis" unicode="&#xff;" horiz-adv-x="555" 
d="M589 489l-371 -663c-11 -15 -27 -26 -43 -26h-67c-16 0 -26 9 -26 21c0 5 2 11 6 18c29 54 54 98 102 180c-13 60 -27 127 -97 470c-1 2 -1 4 -1 6c0 16 14 33 35 33h65c16 0 27 -12 32 -25c19 -89 54 -280 57 -305l11 -1l7 15c10 21 23 51 40 82l108 198
c8 19 18 36 51 36h71c17 0 24 -10 24 -22c0 -6 -2 -12 -4 -17zM262 629c-36 0 -59 26 -59 59c0 45 40 83 84 83c35 0 62 -25 62 -59c0 -43 -44 -83 -87 -83zM467 629c-34 0 -59 26 -59 60c0 44 42 82 84 82c36 0 62 -25 62 -58c0 -44 -43 -84 -87 -84z" />
    <glyph glyph-name="Ydieresis" unicode="&#x178;" horiz-adv-x="666" 
d="M747 720c16 0 29 -11 29 -23c0 -7 -3 -14 -8 -21l-335 -387l-45 -255c-3 -19 -20 -34 -39 -34h-73c-17 0 -30 12 -30 28c0 2 1 4 1 6l45 255l-197 387c-2 4 -3 8 -3 12c0 16 15 32 35 32h71c20 0 40 -9 50 -28l134 -268l232 268c15 18 38 28 57 28h76zM352 820
c-36 0 -59 26 -59 59c0 45 40 83 84 83c35 0 62 -25 62 -59c0 -43 -44 -83 -87 -83zM557 820c-34 0 -59 26 -59 60c0 44 42 82 84 82c36 0 62 -25 62 -58c0 -44 -43 -84 -87 -84z" />
    <glyph glyph-name="Acircumflex" unicode="&#xc2;" horiz-adv-x="746" 
d="M722 36c0 -2 1 -5 1 -7c0 -15 -16 -29 -34 -29h-82c-19 0 -33 12 -39 31l-33 140h-305l-83 -140c-12 -19 -31 -31 -49 -31h-84c-15 0 -25 9 -25 21c0 5 1 10 5 16l406 654c11 14 29 29 47 29h61c16 0 33 -14 37 -29zM507 288l-42 206c-6 30 -10 55 -13 72
c-12 -22 -41 -73 -41 -73l-114 -205h210zM543 818l-33 69l-59 -71c-14 -16 -32 -22 -56 -22h-47c-13 0 -20 8 -20 19c0 6 2 13 9 22l96 112c16 18 28 26 49 26h77c11 0 28 -7 33 -16l58 -113c4 -9 9 -18 9 -24c0 -14 -14 -26 -29 -26h-47c-16 0 -33 9 -40 24z" />
    <glyph glyph-name="Ecircumflex" unicode="&#xca;" horiz-adv-x="689" 
d="M231 720h466c16 0 29 -13 29 -28c0 -2 -1 -4 -1 -6l-10 -60c-3 -17 -22 -33 -40 -33h-360l-28 -161h314c17 0 29 -13 29 -29v-5l-11 -60c-3 -18 -22 -33 -41 -33h-314l-31 -179h360c16 0 28 -12 28 -28v-5l-11 -60c-3 -18 -21 -33 -39 -33h-466c-17 0 -30 12 -30 28
c0 1 1 3 1 5l115 653c3 18 22 34 40 34zM528 818l-33 69l-59 -71c-14 -16 -32 -22 -56 -22h-47c-13 0 -20 8 -20 19c0 6 2 13 9 22l96 112c16 18 28 26 49 26h77c11 0 28 -7 33 -16l58 -113c4 -9 9 -18 9 -24c0 -14 -14 -26 -29 -26h-47c-16 0 -33 9 -40 24z" />
    <glyph glyph-name="Aacute" unicode="&#xc1;" horiz-adv-x="746" 
d="M722 36c0 -2 1 -5 1 -7c0 -15 -16 -29 -34 -29h-82c-19 0 -33 12 -39 31l-33 140h-305l-83 -140c-12 -19 -31 -31 -49 -31h-84c-15 0 -25 9 -25 21c0 5 1 10 5 16l406 654c11 14 29 29 47 29h61c16 0 33 -14 37 -29zM507 288l-42 206c-6 30 -10 55 -13 72
c-12 -22 -41 -73 -41 -73l-114 -205h210zM645 931l-93 -103c-19 -21 -41 -33 -58 -33h-33c-15 0 -23 9 -23 20c0 6 2 11 6 17l65 108c10 16 30 33 49 33h73c14 0 22 -10 22 -22c0 -6 -2 -13 -8 -20z" />
    <glyph glyph-name="Edieresis" unicode="&#xcb;" horiz-adv-x="689" 
d="M231 720h466c16 0 29 -13 29 -28c0 -2 -1 -4 -1 -6l-10 -60c-3 -17 -22 -33 -40 -33h-360l-28 -161h314c17 0 29 -13 29 -29v-5l-11 -60c-3 -18 -22 -33 -41 -33h-314l-31 -179h360c16 0 28 -12 28 -28v-5l-11 -60c-3 -18 -21 -33 -39 -33h-466c-17 0 -30 12 -30 28
c0 1 1 3 1 5l115 653c3 18 22 34 40 34zM375 820c-36 0 -59 26 -59 59c0 45 40 83 84 83c35 0 62 -25 62 -59c0 -43 -44 -83 -87 -83zM580 820c-34 0 -59 26 -59 60c0 44 42 82 84 82c36 0 62 -25 62 -58c0 -44 -43 -84 -87 -84z" />
    <glyph glyph-name="Egrave" unicode="&#xc8;" horiz-adv-x="689" 
d="M231 720h466c16 0 29 -13 29 -28c0 -2 -1 -4 -1 -6l-10 -60c-3 -17 -22 -33 -40 -33h-360l-28 -161h314c17 0 29 -13 29 -29v-5l-11 -60c-3 -18 -22 -33 -41 -33h-314l-31 -179h360c16 0 28 -12 28 -28v-5l-11 -60c-3 -18 -21 -33 -39 -33h-466c-17 0 -30 12 -30 28
c0 1 1 3 1 5l115 653c3 18 22 34 40 34zM428 818c-16 30 -33 64 -61 113c-2 4 -3 10 -3 14c0 14 14 28 30 28h73c21 0 34 -14 40 -33l27 -108v-4c0 -17 -11 -33 -32 -33h-33c-16 0 -31 7 -41 23z" />
    <glyph glyph-name="Iacute" unicode="&#xcd;" horiz-adv-x="323" 
d="M329 686l-115 -653c-3 -18 -20 -33 -39 -33h-72c-17 0 -30 12 -30 28c0 1 1 3 1 5l115 653c3 19 21 34 40 34h72c17 0 29 -12 29 -27c0 -3 -1 -5 -1 -7zM417 931l-93 -103c-19 -21 -41 -33 -58 -33h-33c-15 0 -23 9 -23 20c0 6 2 11 6 17l65 108c10 16 30 33 49 33h73
c14 0 22 -10 22 -22c0 -6 -2 -13 -8 -20z" />
    <glyph glyph-name="Icircumflex" unicode="&#xce;" horiz-adv-x="323" 
d="M329 686l-115 -653c-3 -18 -20 -33 -39 -33h-72c-17 0 -30 12 -30 28c0 1 1 3 1 5l115 653c3 19 21 34 40 34h72c17 0 29 -12 29 -27c0 -3 -1 -5 -1 -7zM336 818l-33 69l-59 -71c-14 -16 -32 -22 -56 -22h-47c-13 0 -20 8 -20 19c0 6 2 13 9 22l96 112c16 18 28 26 49 26
h77c11 0 28 -7 33 -16l58 -113c4 -9 9 -18 9 -24c0 -14 -14 -26 -29 -26h-47c-16 0 -33 9 -40 24z" />
    <glyph glyph-name="Idieresis" unicode="&#xcf;" horiz-adv-x="323" 
d="M329 686l-115 -653c-3 -18 -20 -33 -39 -33h-72c-17 0 -30 12 -30 28c0 1 1 3 1 5l115 653c3 19 21 34 40 34h72c17 0 29 -12 29 -27c0 -3 -1 -5 -1 -7zM181 820c-36 0 -59 26 -59 59c0 45 40 83 84 83c35 0 62 -25 62 -59c0 -43 -44 -83 -87 -83zM386 820
c-34 0 -59 26 -59 60c0 44 42 82 84 82c36 0 62 -25 62 -58c0 -44 -43 -84 -87 -84z" />
    <glyph glyph-name="Igrave" unicode="&#xcc;" horiz-adv-x="323" 
d="M329 686l-115 -653c-3 -18 -20 -33 -39 -33h-72c-17 0 -30 12 -30 28c0 1 1 3 1 5l115 653c3 19 21 34 40 34h72c17 0 29 -12 29 -27c0 -3 -1 -5 -1 -7zM250 818c-16 30 -33 64 -61 113c-2 4 -3 10 -3 14c0 14 14 28 30 28h73c21 0 34 -14 40 -33l27 -108v-4
c0 -17 -11 -33 -32 -33h-33c-16 0 -31 7 -41 23z" />
    <glyph glyph-name="Oacute" unicode="&#xd3;" horiz-adv-x="842" 
d="M828 358c-39 -221 -236 -370 -431 -370c-174 0 -306 117 -306 298c0 233 194 446 438 446c193 0 305 -133 305 -303c0 -23 -2 -47 -6 -71zM420 115c137 0 269 128 269 296c0 117 -76 194 -183 194c-134 0 -270 -124 -270 -297c0 -115 75 -193 184 -193zM688 931l-93 -103
c-19 -21 -41 -33 -58 -33h-33c-15 0 -23 9 -23 20c0 6 2 11 6 17l65 108c10 16 30 33 49 33h73c14 0 22 -10 22 -22c0 -6 -2 -13 -8 -20z" />
    <glyph glyph-name="Ocircumflex" unicode="&#xd4;" horiz-adv-x="842" 
d="M828 358c-39 -221 -236 -370 -431 -370c-174 0 -306 117 -306 298c0 233 194 446 438 446c193 0 305 -133 305 -303c0 -23 -2 -47 -6 -71zM420 115c137 0 269 128 269 296c0 117 -76 194 -183 194c-134 0 -270 -124 -270 -297c0 -115 75 -193 184 -193zM592 818l-33 69
l-59 -71c-14 -16 -32 -22 -56 -22h-47c-13 0 -20 8 -20 19c0 6 2 13 9 22l96 112c16 18 28 26 49 26h77c11 0 28 -7 33 -16l58 -113c4 -9 9 -18 9 -24c0 -14 -14 -26 -29 -26h-47c-16 0 -33 9 -40 24z" />
    <glyph glyph-name="Ograve" unicode="&#xd2;" horiz-adv-x="842" 
d="M828 358c-39 -221 -236 -370 -431 -370c-174 0 -306 117 -306 298c0 233 194 446 438 446c193 0 305 -133 305 -303c0 -23 -2 -47 -6 -71zM420 115c137 0 269 128 269 296c0 117 -76 194 -183 194c-134 0 -270 -124 -270 -297c0 -115 75 -193 184 -193zM506 818
c-16 30 -33 64 -61 113c-2 4 -3 10 -3 14c0 14 14 28 30 28h73c21 0 34 -14 40 -33l27 -108v-4c0 -17 -11 -33 -32 -33h-33c-16 0 -31 7 -41 23z" />
    <glyph glyph-name="Uacute" unicode="&#xda;" horiz-adv-x="812" 
d="M796 720c17 0 29 -12 29 -28v-5l-66 -374c-35 -196 -189 -325 -377 -325c-167 0 -269 99 -269 254c0 22 2 46 7 71l66 374c3 18 20 33 39 33h72c18 0 30 -12 30 -28v-5l-64 -363c-3 -19 -5 -37 -5 -54c0 -94 51 -156 147 -156c113 0 193 87 215 210l64 363
c3 18 20 33 40 33h72zM666 931l-93 -103c-19 -21 -41 -33 -58 -33h-33c-15 0 -23 9 -23 20c0 6 2 11 6 17l65 108c10 16 30 33 49 33h73c14 0 22 -10 22 -22c0 -6 -2 -13 -8 -20z" />
    <glyph glyph-name="Ucircumflex" unicode="&#xdb;" horiz-adv-x="812" 
d="M796 720c17 0 29 -12 29 -28v-5l-66 -374c-35 -196 -189 -325 -377 -325c-167 0 -269 99 -269 254c0 22 2 46 7 71l66 374c3 18 20 33 39 33h72c18 0 30 -12 30 -28v-5l-64 -363c-3 -19 -5 -37 -5 -54c0 -94 51 -156 147 -156c113 0 193 87 215 210l64 363
c3 18 20 33 40 33h72zM578 818l-33 69l-59 -71c-14 -16 -32 -22 -56 -22h-47c-13 0 -20 8 -20 19c0 6 2 13 9 22l96 112c16 18 28 26 49 26h77c11 0 28 -7 33 -16l58 -113c4 -9 9 -18 9 -24c0 -14 -14 -26 -29 -26h-47c-16 0 -33 9 -40 24z" />
    <glyph glyph-name="Ugrave" unicode="&#xd9;" horiz-adv-x="812" 
d="M796 720c17 0 29 -12 29 -28v-5l-66 -374c-35 -196 -189 -325 -377 -325c-167 0 -269 99 -269 254c0 22 2 46 7 71l66 374c3 18 20 33 39 33h72c18 0 30 -12 30 -28v-5l-64 -363c-3 -19 -5 -37 -5 -54c0 -94 51 -156 147 -156c113 0 193 87 215 210l64 363
c3 18 20 33 40 33h72zM481 818c-16 30 -33 64 -61 113c-2 4 -3 10 -3 14c0 14 14 28 30 28h73c21 0 34 -14 40 -33l27 -108v-4c0 -17 -11 -33 -32 -33h-33c-16 0 -31 7 -41 23z" />
    <glyph glyph-name="multiply" unicode="&#xd7;" 
d="M133 526l34 35c14 13 36 13 49 0l145 -146l146 146c14 14 36 14 49 0l36 -36c14 -13 14 -35 0 -49l-146 -145l146 -146c13 -13 13 -35 0 -48l-35 -36c-13 -12 -36 -12 -49 0l-146 146l-144 -144c-14 -14 -36 -14 -50 0l-35 35c-14 13 -13 36 0 49l145 145l-145 145
c-14 13 -14 35 0 49z" />
    <glyph glyph-name="brokenbar" unicode="&#xa6;" horiz-adv-x="322" 
d="M273 343c-3 -17 -23 -33 -42 -33h-55c-17 0 -29 13 -29 28c0 1 1 3 1 5l65 366c3 18 20 33 39 33h55c17 0 31 -13 31 -29v-4zM183 -166c-3 -19 -23 -34 -42 -34h-55c-17 0 -29 12 -29 28c0 2 1 4 1 6l64 364c3 18 22 33 40 33h55c17 0 31 -12 31 -27c0 -2 -1 -4 -1 -6z
" />
    <glyph glyph-name="currency" unicode="&#xa4;" 
d="M565 214l29 -28c14 -14 14 -35 0 -49l-35 -35c-13 -13 -35 -13 -49 0l-29 28c-34 -20 -74 -31 -117 -31c-42 0 -82 11 -117 31l-27 -27c-14 -13 -35 -13 -50 0l-35 36c-13 13 -13 35 0 48l28 28c-20 35 -32 75 -32 116c0 43 13 83 32 118l-28 29c-14 13 -14 35 0 48
l35 35c13 14 35 14 48 0l29 -28c34 20 74 32 117 32s83 -12 117 -32l28 29c14 14 36 13 49 0l36 -36c14 -14 14 -35 0 -49l-28 -29c20 -34 32 -74 32 -117c0 -42 -12 -83 -33 -117zM248 331c0 -64 52 -116 116 -116s117 52 117 116c0 66 -53 117 -117 117
s-116 -51 -116 -117z" />
    <glyph glyph-name="uni00AD" unicode="&#xad;" horiz-adv-x="396" 
d="M396 267c-4 -18 -21 -34 -41 -34h-251c-17 0 -29 12 -29 27c0 2 0 5 1 7l8 45c3 18 20 33 39 33h251c18 0 30 -12 30 -28v-5z" />
    <glyph glyph-name="Eth" unicode="&#xd0;" horiz-adv-x="792" 
d="M227 720h233c203 0 336 -98 336 -282c0 -285 -215 -438 -462 -438h-233c-17 0 -31 12 -31 28c0 2 1 3 1 5l47 264h-22c-17 0 -30 12 -30 28c0 1 1 3 1 5l10 61c3 18 23 33 41 33h22l47 263c3 18 21 33 40 33zM373 126c148 0 279 112 279 285c0 114 -78 182 -197 182h-144
l-30 -169h100c17 0 30 -12 30 -27c0 -2 -1 -4 -1 -6l-10 -61c-3 -18 -22 -33 -41 -33h-100l-30 -171h144z" />
    <glyph glyph-name="Oslash" unicode="&#xd8;" horiz-adv-x="842" 
d="M786 695l-32 -43c57 -55 89 -136 89 -225c0 -259 -224 -439 -435 -439c-51 0 -100 12 -142 28c-16 -13 -37 -29 -43 -29h-42c-13 0 -23 8 -23 20c0 13 20 33 37 56c-59 53 -94 130 -94 223c0 232 196 446 439 446c53 0 103 -12 143 -30c12 15 25 31 45 31h43
c12 0 21 -9 21 -20c0 -6 -1 -10 -6 -18zM251 357c-3 -16 -4 -31 -4 -46c0 -51 15 -96 39 -128l309 405c-23 11 -49 17 -78 17c-125 0 -239 -100 -266 -248zM431 114c137 0 267 129 267 295c0 49 -14 92 -36 123c-96 -127 -210 -275 -308 -404c22 -9 49 -14 77 -14z" />
    <glyph glyph-name="AE" unicode="&#xc6;" horiz-adv-x="1155" 
d="M1152 593h-359l-28 -161h314c17 0 28 -13 28 -29v-5l-11 -60c-3 -18 -21 -33 -40 -33h-314l-31 -179h359c17 0 28 -12 28 -28v-5l-11 -60c-3 -18 -20 -33 -39 -33h-466c-17 0 -30 12 -30 28c0 1 1 3 1 5l24 135h-271l-136 -136c-20 -21 -41 -32 -60 -32h-96
c-11 0 -17 9 -17 19c0 7 6 18 13 27l648 648c9 9 31 26 53 26h463c17 0 29 -12 29 -28c0 -2 -1 -4 -1 -6l-10 -60c-3 -17 -21 -33 -40 -33zM427 293h172l40 227c-46 -50 -127 -139 -212 -227z" />
    <glyph glyph-name="Yacute" unicode="&#xdd;" horiz-adv-x="666" 
d="M747 720c16 0 29 -11 29 -23c0 -7 -3 -14 -8 -21l-335 -387l-45 -255c-3 -19 -20 -34 -39 -34h-73c-17 0 -30 12 -30 28c0 2 1 4 1 6l45 255l-197 387c-2 4 -3 8 -3 12c0 16 15 32 35 32h71c20 0 40 -9 50 -28l134 -268l232 268c15 18 38 28 57 28h76zM602 931l-93 -103
c-19 -21 -41 -33 -58 -33h-33c-15 0 -23 9 -23 20c0 6 2 11 6 17l65 108c10 16 30 33 49 33h73c14 0 22 -10 22 -22c0 -6 -2 -13 -8 -20z" />
    <glyph glyph-name="yacute" unicode="&#xfd;" horiz-adv-x="555" 
d="M589 489l-371 -663c-11 -15 -27 -26 -43 -26h-67c-16 0 -26 9 -26 21c0 5 2 11 6 18c29 54 54 98 102 180c-13 60 -27 127 -97 470c-1 2 -1 4 -1 6c0 16 14 33 35 33h65c16 0 27 -12 32 -25c19 -89 54 -280 57 -305l11 -1l7 15c10 21 23 51 40 82l108 198
c8 19 18 36 51 36h71c17 0 24 -10 24 -22c0 -6 -2 -12 -4 -17zM511 740l-93 -103c-19 -21 -41 -33 -58 -33h-33c-15 0 -23 9 -23 20c0 6 2 11 6 17l65 108c10 16 30 33 49 33h73c14 0 22 -10 22 -22c0 -6 -2 -13 -8 -20z" />
    <glyph glyph-name="eth" unicode="&#xf0;" horiz-adv-x="604" 
d="M517 656c58 -82 98 -181 98 -290c0 -238 -154 -378 -324 -378c-130 0 -220 68 -220 203c0 205 151 320 294 320c42 0 81 -13 109 -32c-9 36 -36 82 -63 117l-28 -16c-31 -18 -67 -39 -81 -39c-23 0 -35 29 -35 40c0 31 54 50 90 74l-34 33c-6 5 -9 13 -9 21
c0 9 8 20 19 27l32 19c11 6 20 8 28 8c13 0 24 -5 32 -12l19 -17c6 -5 15 -14 20 -20l78 44c6 3 13 5 19 5c11 0 21 -6 25 -16l6 -13c2 -5 3 -9 3 -13c0 -12 -9 -26 -20 -32zM312 107c63 0 128 36 149 157c2 12 3 24 3 34c0 76 -54 102 -101 102c-70 0 -147 -66 -147 -189
c0 -72 41 -104 96 -104z" />
    <glyph glyph-name="Thorn" unicode="&#xde;" horiz-adv-x="682" 
d="M336 686l-14 -82h147c149 0 241 -77 241 -197c0 -166 -143 -281 -325 -281h-147l-17 -94c-3 -17 -20 -32 -39 -32h-72c-17 0 -30 12 -30 27c0 2 1 3 1 5l115 654c3 19 21 34 40 34h72c17 0 29 -12 29 -27c0 -3 -1 -5 -1 -7zM424 254c80 0 141 52 141 133
c0 56 -38 89 -102 89h-164l-39 -222h164z" />
    <glyph glyph-name="thorn" unicode="&#xfe;" 
d="M340 105c75 0 146 76 146 206c0 69 -32 110 -87 110c-63 0 -127 -60 -145 -160l-19 -107c20 -27 55 -49 105 -49zM622 267c-31 -172 -152 -279 -287 -279c-62 0 -96 15 -123 39l-34 -194c-3 -18 -22 -33 -41 -33h-67c-17 0 -30 12 -30 28c0 1 1 3 1 5l155 875
c3 19 22 34 41 34h67c17 0 29 -12 29 -29v-5l-32 -179c-5 -25 -11 -51 -11 -54c0 -1 1 -1 3 -1c1 0 3 1 4 1c39 42 95 65 147 65c101 0 184 -67 184 -204c0 -21 -2 -44 -6 -69z" />
    <glyph glyph-name="onesuperior" unicode="&#xb9;" horiz-adv-x="249" 
d="M259 720h20c20 0 29 -9 29 -26v-7l-57 -323c-3 -17 -19 -33 -42 -33h-21c-19 0 -27 12 -27 26c0 2 0 4 1 7l40 226l-44 -33c-8 -7 -17 -11 -26 -11c-20 0 -38 31 -38 44c1 9 5 18 15 26l122 93c5 5 16 11 28 11z" />
    <glyph glyph-name="twosuperior" unicode="&#xb2;" horiz-adv-x="287" 
d="M114 649c25 40 77 83 147 83c68 0 113 -43 113 -103c0 -77 -71 -130 -136 -185l-26 -22h86c20 0 36 -9 36 -27v-6l-3 -15c-4 -19 -19 -37 -39 -37h-201c-14 0 -30 11 -30 28c0 2 0 4 1 6l3 17c3 18 15 29 27 39l168 141c16 14 23 32 23 46c0 20 -14 33 -37 33
c-41 0 -60 -58 -95 -58c-26 0 -44 24 -44 41c0 7 3 13 7 19z" />
    <glyph glyph-name="threesuperior" unicode="&#xb3;" horiz-adv-x="273" 
d="M152 441c5 -15 20 -25 39 -25c27 0 56 23 56 55c0 22 -17 36 -40 36h-18c-18 0 -29 9 -29 26c0 2 0 5 1 8l3 16c3 18 18 30 35 30h18c21 0 45 16 45 39c0 15 -13 26 -30 26s-31 -13 -38 -20c-11 -14 -20 -21 -31 -21c-5 0 -10 1 -16 4l-14 10c-8 5 -13 14 -13 23
c0 19 40 84 127 84c60 0 102 -39 102 -91c0 -32 -15 -68 -41 -87c20 -15 29 -41 29 -69c0 -85 -76 -154 -161 -154s-111 58 -111 79c0 13 8 29 23 36l21 10c6 2 12 3 17 3c12 0 22 -6 26 -18z" />
    <glyph glyph-name="onequarter" unicode="&#xbc;" horiz-adv-x="711" 
d="M590 374c6 5 26 19 40 19h18c20 0 28 -17 28 -32c0 -3 -1 -5 -1 -8l-33 -183h18c15 0 29 -10 29 -27c0 -2 -1 -5 -1 -7l-3 -19c-3 -18 -22 -33 -40 -33h-18l-8 -45c-4 -23 -17 -39 -40 -39h-20c-21 0 -31 10 -31 28c0 4 0 7 1 11l8 45h-136c-23 0 -37 9 -37 27
c0 3 0 5 1 8l3 17l6 14l10 14c70 70 138 140 206 210zM471 159h85l19 109zM268 720h21c20 0 27 -9 27 -26c0 -5 -1 -11 -2 -17l-55 -313c-3 -19 -22 -33 -44 -33h-17c-21 0 -26 12 -26 28c0 4 0 9 1 14l38 216l-37 -28c-9 -8 -23 -15 -33 -15c-15 0 -38 26 -38 45
c0 8 4 15 15 25l122 92c6 5 18 12 28 12zM691 680l-500 -651c-14 -19 -36 -29 -54 -29h-23c-13 0 -22 10 -22 22c0 4 1 8 6 16l499 652c14 18 35 30 54 30h23c14 0 24 -11 24 -24c0 -5 -3 -11 -7 -16z" />
    <glyph glyph-name="onehalf" unicode="&#xbd;" horiz-adv-x="747" 
d="M268 720h21c20 0 27 -9 27 -26c0 -5 -1 -11 -2 -17l-55 -313c-3 -19 -22 -33 -44 -33h-17c-21 0 -26 12 -26 28c0 4 0 9 1 14l38 216l-37 -28c-9 -9 -25 -15 -33 -15c-16 0 -38 26 -38 45c0 8 4 15 15 25l122 92c6 5 18 12 28 12zM694 681c-105 -134 -204 -267 -500 -652
c-14 -18 -37 -29 -55 -29h-22c-14 0 -23 10 -23 22c0 4 2 11 6 16l499 652c14 18 37 30 55 30h22c14 0 24 -11 24 -23c0 -5 -2 -11 -6 -16zM499 309c24 41 76 84 147 84c68 0 113 -43 113 -103c0 -37 -17 -84 -56 -117l-105 -90h84c21 0 36 -8 36 -27v-6l-3 -17
c-4 -21 -20 -33 -38 -33h-201c-16 0 -30 10 -30 28c0 1 1 3 1 5l3 16c4 20 19 33 29 41l166 140c17 14 25 31 25 45c0 20 -15 35 -39 35c-41 0 -59 -59 -94 -59c-16 0 -45 19 -45 38c0 5 1 12 7 20z" />
    <glyph glyph-name="threequarters" unicode="&#xbe;" horiz-adv-x="733" 
d="M621 374c5 5 27 19 40 19h17c22 0 29 -15 29 -31c0 -3 -1 -6 -1 -9l-33 -183h18c13 0 29 -12 29 -29v-5l-3 -19c-3 -18 -22 -33 -41 -33h-18l-8 -45c-5 -25 -17 -39 -41 -39h-19c-22 0 -31 11 -31 28c0 3 0 7 1 11l8 45h-136c-22 0 -37 8 -37 26c0 2 0 5 1 7l2 10
c2 12 7 25 18 37zM502 159h85l19 109zM726 681c-105 -134 -204 -267 -500 -652c-14 -18 -36 -29 -54 -29h-24c-13 0 -21 10 -21 21c0 5 1 9 6 17l499 652c14 18 35 30 54 30h24c13 0 22 -11 22 -23c0 -5 -2 -10 -6 -16zM182 429c5 -6 15 -10 27 -10c24 0 50 23 50 52
c0 21 -17 36 -39 36h-18c-18 0 -28 9 -28 25c0 3 0 6 1 9l3 17c3 17 16 29 34 29h18c20 0 44 16 44 38c0 16 -15 25 -29 25c-15 0 -24 -7 -32 -12l-3 -2c-14 -16 -22 -24 -35 -24c-4 0 -9 1 -15 4l-15 10c-8 6 -13 12 -13 21c0 12 34 85 128 85c60 0 100 -39 100 -91
c0 -32 -14 -66 -40 -87c20 -15 29 -41 29 -69c0 -85 -77 -154 -160 -154c-94 0 -111 66 -111 83c0 10 8 25 22 32l21 10c5 3 12 4 17 4c18 0 27 -22 44 -31z" />
    <glyph glyph-name="florin" unicode="&#x192;" horiz-adv-x="584" 
d="M84 -148c-18 3 -31 20 -27 39l8 48c4 19 23 35 41 30c12 -4 33 -9 47 -9c38 0 58 37 73 121l54 296h-64c-19 0 -32 15 -28 34l8 40c3 19 21 35 39 35h66l13 75c29 114 92 185 197 185c28 0 50 -6 77 -9c19 -4 31 -20 27 -39l-8 -47c-3 -20 -21 -33 -40 -31
c-14 2 -39 6 -47 6c-31 0 -61 -29 -73 -94c-2 -13 -4 -30 -8 -46h86c20 0 32 -16 28 -35l-7 -40c-3 -19 -21 -34 -40 -34h-87l-54 -298c-35 -164 -83 -237 -203 -237c-23 0 -50 5 -78 10z" />
    <glyph glyph-name="fi" unicode="&#xfb01;" horiz-adv-x="686" 
d="M518 731c11 -5 18 -16 18 -28c0 -4 -1 -9 -3 -14l-21 -43c-7 -14 -23 -23 -36 -23s-52 13 -90 13c-40 0 -67 -18 -75 -65l-7 -43h121c17 0 29 -13 29 -28v-5l-7 -40c-3 -19 -23 -34 -41 -34h-121l-69 -387c-4 -19 -21 -34 -40 -34h-67c-17 0 -30 12 -30 28c0 2 1 4 1 6
l69 387h-45c-17 0 -30 12 -30 27c0 2 0 5 1 7l7 40c3 17 22 33 41 33h45l5 33c20 116 102 191 235 191c52 0 88 -11 110 -21zM587 33c-4 -18 -22 -33 -41 -33h-67c-17 0 -31 12 -31 28c0 2 1 3 1 5l82 462c3 18 22 33 41 33h67c17 0 30 -13 30 -28v-5zM709 681
c-7 -40 -48 -72 -90 -72c-37 0 -64 26 -64 60c0 44 43 83 89 83c38 0 66 -27 66 -61c0 -3 -1 -7 -1 -10z" />
    <glyph glyph-name="fl" unicode="&#xfb02;" horiz-adv-x="686" 
d="M518 731c11 -5 18 -16 18 -28c0 -4 -1 -9 -3 -14l-21 -43c-7 -14 -23 -23 -36 -23s-52 13 -90 13c-40 0 -67 -18 -75 -65l-7 -43h121c17 0 29 -13 29 -28v-5l-7 -40c-3 -19 -23 -34 -41 -34h-121l-69 -387c-4 -19 -21 -34 -40 -34h-67c-17 0 -30 12 -30 28c0 2 1 4 1 6
l69 387h-45c-17 0 -30 12 -30 27c0 2 0 5 1 7l7 40c3 17 22 33 41 33h45l5 33c20 116 102 191 235 191c52 0 88 -11 110 -21zM587 33c-3 -18 -22 -33 -41 -33h-67c-17 0 -31 12 -31 28c0 2 1 3 1 5l120 676c3 18 21 33 40 33h67c17 0 31 -13 31 -29v-4z" />
    <glyph glyph-name="Lslash" unicode="&#x141;" horiz-adv-x="622" 
d="M592 127c18 0 29 -12 29 -28v-6l-11 -59c-4 -19 -20 -34 -40 -34h-454c-17 0 -30 12 -30 28c0 2 1 4 1 6l25 139l-55 -28c-5 -2 -9 -3 -13 -3c-12 0 -22 7 -22 18c0 2 1 3 1 5l11 65c3 18 14 32 35 43l67 36l67 378c3 18 20 33 39 33h72c17 0 30 -13 30 -28v-5l-53 -297
l60 31c5 3 10 4 15 4c11 0 19 -9 19 -21v-4l-11 -64c-3 -17 -14 -32 -35 -43l-71 -37l-23 -129h347z" />
    <glyph glyph-name="lslash" unicode="&#x142;" horiz-adv-x="302" 
d="M361 336c-4 -17 -14 -32 -35 -43l-72 -37l-40 -222c-4 -19 -21 -34 -40 -34h-68c-17 0 -31 12 -31 29c0 2 1 3 1 5l26 143l-59 -31c-6 -3 -11 -4 -16 -4c-12 0 -20 7 -20 18c0 2 0 4 1 6l11 64c3 18 15 32 35 43l72 39l69 396c3 18 23 34 41 34h68c17 0 30 -13 30 -28
c0 -2 -1 -4 -1 -6l-56 -318l60 32c5 3 10 4 15 4c12 0 20 -8 20 -20v-5z" />
    <glyph glyph-name="Zcaron" unicode="&#x17d;" horiz-adv-x="698" 
d="M612 126c16 0 28 -12 28 -28v-5l-11 -60c-3 -18 -21 -33 -39 -33h-525c-18 0 -31 12 -31 28c0 2 1 3 1 5l10 53c2 12 8 23 15 31l464 476h-347c-17 0 -29 13 -29 28c0 1 1 3 1 5l10 60c3 18 22 34 40 34h507c17 0 30 -13 30 -28c0 -2 -1 -4 -1 -6l-9 -54
c-2 -14 -8 -22 -19 -32l-463 -474h368zM451 949l33 -69l59 71c14 16 32 22 56 22h47c13 0 20 -8 20 -19c0 -6 -2 -13 -9 -22l-96 -112c-16 -18 -28 -26 -49 -26h-77c-11 0 -28 7 -33 16l-58 113c-4 9 -9 18 -9 24c0 14 14 26 29 26h47c16 0 33 -9 40 -24z" />
    <glyph glyph-name="zcaron" unicode="&#x17e;" horiz-adv-x="530" 
d="M456 113c17 0 30 -13 30 -29v-4l-9 -47c-4 -18 -21 -33 -40 -33h-388c-17 0 -30 12 -30 28c0 1 1 3 1 5l7 36c3 18 8 29 21 42c99 100 205 202 306 304h-223c-18 0 -30 12 -30 27c0 2 0 5 1 7l8 46c3 18 21 33 41 33h371c17 0 28 -12 28 -28v-5l-9 -50
c-2 -10 -8 -15 -17 -25l-311 -307h243zM334 758l33 -69l59 71c14 16 32 22 56 22h47c13 0 20 -8 20 -19c0 -6 -2 -13 -9 -22l-96 -112c-16 -18 -28 -26 -49 -26h-77c-11 0 -28 7 -33 16l-58 113c-4 9 -9 18 -9 24c0 14 14 26 29 26h47c16 0 33 -9 40 -24z" />
    <glyph glyph-name="Scaron" unicode="&#x160;" horiz-adv-x="672" 
d="M399 438c153 -29 235 -88 235 -186c0 -154 -147 -264 -327 -264c-111 0 -188 35 -244 98c-5 6 -8 13 -8 21s3 17 11 25l49 49c8 8 18 12 28 12c8 0 15 -3 21 -8c48 -48 94 -70 168 -70c86 0 157 39 157 107c0 47 -57 70 -164 91c-122 24 -190 88 -190 176
c0 142 153 243 305 243c95 0 176 -34 239 -96c4 -5 6 -12 6 -19c0 -9 -3 -19 -9 -26l-49 -49c-8 -8 -19 -12 -29 -12c-8 0 -15 2 -20 7c-42 39 -99 68 -162 68c-78 0 -135 -35 -135 -94c0 -35 37 -59 118 -73zM433 949l33 -69l59 71c14 16 32 22 56 22h47c13 0 20 -8 20 -19
c0 -6 -2 -13 -9 -22l-96 -112c-16 -18 -28 -26 -49 -26h-77c-11 0 -28 7 -33 16l-58 113c-4 9 -9 18 -9 24c0 14 14 26 29 26h47c16 0 33 -9 40 -24z" />
    <glyph glyph-name="scaron" unicode="&#x161;" horiz-adv-x="509" 
d="M241 99c51 0 85 26 85 60c0 68 -229 37 -229 185c0 105 101 196 234 196c89 0 177 -28 177 -64c0 -26 -36 -71 -62 -73c-4 0 -9 1 -13 3c-29 13 -78 23 -118 23s-78 -29 -78 -55c0 -66 234 -41 234 -185c0 -111 -111 -201 -252 -201c-90 0 -183 31 -183 66c0 6 1 13 5 19
l27 41c7 10 22 17 34 17c4 0 8 -1 12 -2c30 -14 79 -30 127 -30zM327 758l33 -69l59 71c14 16 32 22 56 22h47c13 0 20 -8 20 -19c0 -6 -2 -13 -9 -22l-96 -112c-16 -18 -28 -26 -49 -26h-77c-11 0 -28 7 -33 16l-58 113c-4 9 -9 18 -9 24c0 14 14 26 29 26h47
c16 0 33 -9 40 -24z" />
    <glyph glyph-name="minus" unicode="&#x2212;" 
d="M638 307c0 -20 -15 -35 -34 -35h-479c-20 0 -35 15 -35 35v51c0 19 15 35 35 35h479c19 0 34 -16 34 -35v-51z" />
    </font>
</defs>
</svg>
