<svg xmlns="http://www.w3.org/2000/svg">
<defs>
<font id="DBAdmanRoundedX-Italic" horiz-adv-x="0" >
  <font-face 
    font-family="DB AdmanRounded X Italic"
    font-weight="400"
    font-style="italic"
    font-stretch="normal"
    units-per-em="4096"
    panose-1="2 0 5 6 9 0 0 2 0 4"
    ascent="3276"
    descent="-820"
    x-height="1495"
    cap-height="2183"
    bbox="-1438.08 -1503 4082.52 3391"
    underline-thickness="82"
    underline-position="-463"
    unicode-range="U+0020-U+F882"
  />
<missing-glyph horiz-adv-x="1696" 
d="M1728 1638v-57h24q29 0 29 37q0 3 -6.5 11.5t-22.5 8.5h-24zM1740 1577h-12v-57h-21v139h45q49 0 49 -41q0 -28 -12.5 -34.5t-28.5 -6.5l41 -57h-20zM1752 1499q26 0 43.5 8t28 20.5t14.5 27t4 26.5q0 46 -21.5 72t-68.5 26q-46 0 -70 -26t-24 -72q0 -34 22.5 -58
t71.5 -24zM1752 1692q53 0 77.5 -32.5t24.5 -78.5q0 -17 -6 -33.5t-18.5 -30t-32 -22t-45.5 -8.5q-24 0 -44 8.5t-33.5 22t-21 30t-7.5 33.5q0 46 28.5 78.5t77.5 32.5zM822 1294q43 -3 98 -9t114 -15t118.5 -20.5t112 -25.5t94 -30t65.5 -35q-41 81 -107 144.5t-146.5 107
t-171 66t-181.5 22.5q-69 0 -136 -13t-128.5 -40t-115 -68t-95.5 -96q74 9 147.5 12.5t147.5 3.5q46 0 92 -0.5t92 -3.5zM1535 1618v-582q-98 31 -211.5 58t-238.5 47t-259 31.5t-274 11.5q-99 0 -194 -6t-191 -19q24 92 78 175.5t135.5 146.5t189.5 100t240 37
q127 0 229.5 -28.5t179 -70.5t128 -89.5t77.5 -86.5q0 -3 -0.5 11t-0.5 38t-1 55t-1 62.5t-0.5 60t-0.5 48.5h115zM626 520q0 34 -22.5 50t-47.5 16q-28 0 -49 -16t-21 -50t21 -47.5t49 -13.5q12 0 24.5 3t22.5 10.5t16.5 19t6.5 28.5zM130 569q0 95 37.5 168t98.5 122
t139 74t159 25t157.5 -22t135 -67.5t94 -115.5t35.5 -167v-475h434v827h115v-934h-774v107h119v487q0 61 -24 107.5t-66 77t-99 46t-123 15.5q-61 0 -118.5 -17.5t-102 -50.5t-71.5 -81t-27 -109v-439l237 238q-11 4 -25.5 14.5t-28 27t-23 39.5t-9.5 54q0 74 45 117t119 43
q35 0 64 -13t49.5 -35t31.5 -51t11 -61q0 -29 -6.5 -51t-16.5 -38t-20.5 -27l-18.5 -19l-204 -197l-92 -85.5l-101 -98.5h-131v565z" />
    <glyph glyph-name="ellipsis" unicode="&#x2e;&#x2e;&#x2e;" horiz-adv-x="1921" 
d="M1827 184q-7 -43 -28.5 -79.5t-53 -63.5t-70.5 -42t-81 -15q-41 0 -75 15t-57 41.5t-33 62.5t-4 77q7 43 28.5 80t53 64t70.5 42t80 15q42 0 76 -15t57 -41.5t33 -62.5t4 -78zM549 184q-7 -43 -28.5 -79.5t-53 -63.5t-70.5 -42t-81 -15q-41 0 -75 15t-57 41.5t-33 62.5
t-4 77q7 43 28.5 80t53 64t70.5 42t80 15q42 0 76 -15t57 -41.5t33 -62.5t4 -78zM1188 184q-7 -43 -28.5 -79.5t-53 -63.5t-70.5 -42t-81 -15q-41 0 -75 15t-57 41.5t-33 62.5t-4 77q7 43 28.5 80t53 64t70.5 42t80 15q42 0 76 -15t57 -41.5t33 -62.5t4 -78z" />
    <glyph glyph-name="dochadaphinthuthai" unicode="&#xe0e;&#xe3a;" horiz-adv-x="1921" 
d="M1623 -975q-6 -37 -25.5 -69.5t-48 -57t-64.5 -39t-75 -14.5q-38 0 -69.5 14.5t-52.5 39t-30.5 57t-3.5 69.5t25.5 69.5t48.5 57t65 39t74 14.5q39 0 70.5 -14.5t52.5 -39t30 -57t3 -69.5zM1705 -324l-505 -426q-64 54 -125.5 93t-123.5 63.5t-126.5 36.5t-133.5 12
q-68 0 -137.5 -13.5t-135.5 -36t-125.5 -52.5t-106.5 -62q-24 -17 -50 -20t-50 5t-43 25t-29 40q-10 24 -8 49t13 48.5t30 44.5t43 38q49 35 120.5 70t156.5 63t178.5 45.5t185.5 17.5q140 0 260 -31t228 -96l227 193l203 1278q19 121 -9 220.5t-95.5 171t-169.5 110.5
t-231 39q-68 0 -136.5 -17t-133.5 -47.5t-125.5 -72.5t-111.5 -93l106 -131l-176 -1110q-4 -28 -18.5 -52t-35.5 -41.5t-47.5 -27.5t-53.5 -10h-201q-28 0 -51 10t-38.5 27.5t-22.5 41.5t-3 52t19 52.5t36.5 43t47.5 29t54 10.5h61l139 881l-84 114q-23 31 -25 64.5t7 64.5
t25.5 57t30.5 42q81 87 173.5 157.5t192 119.5t204 75.5t209.5 26.5q189 0 338 -60t246.5 -167t138 -255t13.5 -325z" />
    <glyph glyph-name="topatakphintuthai" unicode="&#xe0f;&#xe3a;" horiz-adv-x="1921" 
d="M1705 -324l-515 -434l-249 287l-337 -287l-357 406q-34 40 -27.5 92.5t53.5 95.5q23 20 48.5 31.5t50.5 13t48.5 -7.5t41.5 -29l202 -225l340 283l250 -287l193 164l204 1282q19 120 -9.5 219.5t-95.5 171t-169 111t-231 39.5q-68 0 -136 -17t-133.5 -47.5t-125 -72.5
t-108.5 -93l102 -131l-176 -1110q-4 -28 -18.5 -52t-35.5 -41.5t-47.5 -27.5t-53.5 -10h-201q-28 0 -51 10t-38.5 27.5t-22.5 41.5t-3 52t19 52.5t36.5 43t47.5 29t54 10.5h61l139 882l-84 113q-23 30 -25 63.5t7 65t25.5 57.5t30.5 42q81 87 173.5 157.5t192 119.5
t204 75.5t209.5 26.5q189 0 338 -60t247 -167t139 -255t13 -325zM1623 -975q-6 -37 -25.5 -69.5t-48 -57t-64.5 -39t-75 -14.5q-38 0 -69.5 14.5t-52.5 39t-30.5 57t-3.5 69.5t25.5 69.5t48.5 57t65 39t74 14.5q39 0 70.5 -14.5t52.5 -39t30 -57t3 -69.5z" />
    <glyph glyph-name="dochadasarauthai" unicode="&#xe0e;&#xe38;" horiz-adv-x="1921" 
d="M1705 -324l-505 -426q-64 54 -125.5 93t-123.5 63.5t-126.5 36.5t-133.5 12q-68 0 -137.5 -13.5t-135.5 -36t-125.5 -52.5t-106.5 -62q-24 -17 -50 -20t-50 5t-43 25t-29 40q-10 24 -8 49t13 48.5t30 44.5t43 38q49 35 120.5 70t156.5 63t178.5 45.5t185.5 17.5
q140 0 260 -31t228 -96l227 193l203 1278q19 121 -9 220.5t-95.5 171t-169.5 110.5t-231 39q-68 0 -136.5 -17t-133.5 -47.5t-125.5 -72.5t-111.5 -93l106 -131l-176 -1110q-4 -28 -18.5 -52t-35.5 -41.5t-47.5 -27.5t-53.5 -10h-201q-28 0 -51 10t-38.5 27.5t-22.5 41.5
t-3 52t19 52.5t36.5 43t47.5 29t54 10.5h61l139 881l-84 114q-23 31 -25 64.5t7 64.5t25.5 57t30.5 42q81 87 173.5 157.5t192 119.5t204 75.5t209.5 26.5q189 0 338 -60t247 -167t139 -255t13 -325zM1556 -1294q-5 -26 -18.5 -50t-33.5 -42t-45 -28.5t-51 -10.5t-48 10.5
t-37.5 28.5t-22.5 42t-2 50l37 237h-94q-56 0 -88 33.5t-23 89.5q4 28 17.5 50t33.5 37.5t45 23.5t53 8h221q56 0 88.5 -31.5t24.5 -87.5z" />
    <glyph glyph-name="topataksarauthai" unicode="&#xe0f;&#xe38;" horiz-adv-x="1921" 
d="M1556 -1294q-5 -26 -18.5 -50t-33.5 -42t-45 -28.5t-51 -10.5t-48 10.5t-37.5 28.5t-22.5 42t-2 50l37 237h-94q-56 0 -88 33.5t-23 89.5q4 28 17.5 50t33.5 37.5t45 23.5t53 8h221q56 0 88.5 -31.5t24.5 -87.5zM1705 -324l-515 -434l-249 287l-337 -287l-357 406
q-34 40 -27.5 92.5t53.5 95.5q23 20 48.5 31.5t50.5 13t48.5 -7.5t41.5 -29l202 -225l340 283l250 -287l193 164l204 1282q19 120 -9.5 219.5t-95.5 171t-169 111t-231 39.5q-68 0 -136 -17t-133.5 -47.5t-125 -72.5t-108.5 -93l102 -131l-176 -1110q-4 -28 -18.5 -52
t-35.5 -41.5t-47.5 -27.5t-53.5 -10h-201q-28 0 -51 10t-38.5 27.5t-22.5 41.5t-3 52t19 52.5t36.5 43t47.5 29t54 10.5h61l139 882l-84 113q-23 30 -25 63.5t7 65t25.5 57.5t30.5 42q81 87 173.5 157.5t192 119.5t204 75.5t209.5 26.5q189 0 338 -60t247 -167t139 -255
t13 -325z" />
    <glyph glyph-name="fongmanfunnuthai" unicode="&#xe4f;&#x22;" horiz-adv-x="2171" 
d="M2124 868q-20 -123 -70.5 -237.5t-125.5 -214.5t-171 -182.5t-205.5 -142t-229.5 -92t-243 -32.5t-232 32.5t-200 92t-160.5 142t-113 182.5t-58 214.5t5.5 237.5q19 123 70 237.5t126 214.5t171 183t205.5 142t229 91.5t242.5 32.5t232.5 -32.5t200.5 -91.5t160.5 -142
t113 -183t57.5 -214.5t-5 -237.5zM1706 868q-16 -98 -68.5 -186t-129 -154t-170.5 -104.5t-193 -38.5q-98 0 -180 38.5t-137.5 104.5t-80 154t-8.5 186q15 98 68 186t129.5 154t170.5 105t192 39q99 0 180.5 -39t137 -105t80 -154t9.5 -186zM1480 868q9 54 -4 101t-42 82
t-73 55t-98 20t-104 -20t-90.5 -55t-68 -82t-36.5 -101t4 -101t42.5 -82t73 -55t97.5 -20t104 20t90.5 55t68 82t36.5 101zM1889 864q22 138 -11 260.5t-109 214t-189.5 144.5t-251.5 53q-92 0 -181 -24t-170 -67.5t-151.5 -104.5t-126 -135t-93 -159.5t-51.5 -177.5
q-22 -138 11.5 -259.5t109.5 -212t189 -143t251 -52.5q93 0 182.5 24t170 67.5t150.5 104t124.5 135t91.5 159.5t51 177zM1149 2396q3 28 14 52t28.5 41.5t40.5 27.5t49 10q27 0 48 -10t34 -27.5t17 -41.5t-2 -52l-99 -426q-10 -40 -32.5 -67t-68.5 -27q-41 0 -58 27t-13 67
zM1550 2396q3 28 14 52t28.5 41.5t40.5 27.5t49 10q56 0 83 -37.5t15 -93.5l-100 -426q-10 -40 -32.5 -67t-68.5 -27q-40 0 -57.5 27t-13.5 67z" />
    <glyph glyph-name="lessequal" unicode="&#x3c;&#x3d;" horiz-adv-x="1602" 
d="M201 676l48 303l1257 -746q21 -12 34 -30.5t17.5 -40t0 -45.5t-18.5 -47q-15 -22 -35 -37.5t-43 -23t-47.5 -6.5t-47.5 13zM1596 766q19 -12 31 -32t15.5 -42.5t-1.5 -46t-18 -43.5q-16 -21 -38 -36t-45.5 -22.5t-46 -6.5t-39.5 12l-1169 659l38 238l1365 627
q21 10 45.5 11t46.5 -6.5t40 -23.5t27 -39q7 -20 4 -44t-14.5 -47.5t-30.5 -44t-44 -32.5l-1114 -520z" />
    <glyph glyph-name="greaterequal" unicode="&#x3e;&#x3d;" horiz-adv-x="1602" 
d="M244 16q-54 -24 -97.5 -7t-57.5 61q-8 23 -5 47t14 45.5t29.5 40t43.5 30.5l1495 746l-48 -303zM1377 1327l-950 520q-21 12 -33.5 32.5t-16.5 44t1 47.5t19 44q16 23 38.5 39t47.5 23.5t49 6.5t42 -11l1166 -627l-38 -238l-1378 -659q-20 -11 -43 -12t-44 6.5t-38 22.5
t-26 36q-8 20 -5.5 43.5t13.5 46t29.5 42.5t41.5 32z" />
    <glyph glyph-name="plusminus" unicode="&#x2b;&#x2d;" horiz-adv-x="1597" 
d="M334 950q-27 0 -49.5 9.5t-37.5 26.5t-21.5 40.5t-2.5 50.5q4 28 18.5 52t35 41.5t46 27.5t52.5 10h484l77 488q4 27 17.5 51t33 42t44.5 28t53 10q27 0 49.5 -10t37.5 -28t21 -42t2 -51l-77 -488h487q28 0 50 -10t37 -27.5t21 -41.5t2 -52q-4 -27 -18 -50.5t-34 -40.5
t-45.5 -26.5t-53.5 -9.5h-487l-77 -487q-5 -28 -19 -52t-34.5 -41.5t-46 -27.5t-52.5 -10q-28 0 -49.5 10t-35.5 27.5t-20 41.5t-1 52l77 487h-484zM184 0q-27 0 -49.5 9.5t-37.5 26.5t-22 40t-2 51q4 28 18 52t34.5 41.5t46 27.5t52.5 10h1229q28 0 50 -10t37 -27.5
t21.5 -41.5t2.5 -52q-5 -28 -18.5 -51t-34 -40t-45.5 -26.5t-53 -9.5h-1229z" />
    <glyph glyph-name="dochadasarauuthai" unicode="&#xe0e;&#xe39;" horiz-adv-x="1921" 
d="M1046 -819q27 0 49.5 -10t37.5 -28t21 -42t2 -51l-31 -197q-7 -40 15.5 -69t62.5 -29q46 0 76.5 29t37.5 69l34 217q4 26 18.5 50t35.5 42t46.5 28.5t51.5 10.5t47.5 -10.5t36 -28.5t20.5 -42t2 -50l-34 -217q-12 -74 -50 -138.5t-94 -113t-124.5 -76.5t-140.5 -28
q-74 0 -135 25t-101.5 71.5t-58 112.5t-4.5 147l10 66h-54q-27 0 -49.5 10t-37.5 27.5t-21.5 41.5t-1.5 52q4 27 18.5 51t35 42t46 28t52.5 10h181zM1705 -324l-505 -426q-64 54 -125.5 93t-123.5 63.5t-126.5 36.5t-133.5 12q-68 0 -137.5 -13.5t-135.5 -36t-125.5 -52.5
t-106.5 -62q-24 -17 -50 -20t-50 5t-43 25t-29 40q-10 24 -8 49t13 48.5t30 44.5t43 38q49 35 120.5 70t156.5 63t178.5 45.5t185.5 17.5q140 0 260 -31t228 -96l227 193l203 1278q19 121 -9 220.5t-95.5 171t-169.5 110.5t-231 39q-68 0 -136.5 -17t-133.5 -47.5
t-125.5 -72.5t-111.5 -93l106 -131l-176 -1110q-4 -28 -18.5 -52t-35.5 -41.5t-47.5 -27.5t-53.5 -10h-201q-28 0 -51 10t-38.5 27.5t-22.5 41.5t-3 52t19 52.5t36.5 43t47.5 29t54 10.5h61l139 881l-84 114q-23 31 -25 64.5t7 64.5t25.5 57t30.5 42q81 87 173.5 157.5
t192 119.5t204 75.5t209.5 26.5q189 0 338 -60t247 -167t139 -255t13 -325z" />
    <glyph glyph-name="topataksarauuthai" unicode="&#xe0f;&#xe39;" horiz-adv-x="1921" 
d="M1046 -819q27 0 49.5 -10t37.5 -28t21 -42t2 -51l-31 -197q-7 -40 15.5 -69t62.5 -29q46 0 76.5 29t37.5 69l34 217q4 26 18.5 50t35.5 42t46.5 28.5t51.5 10.5t47.5 -10.5t36 -28.5t20.5 -42t2 -50l-34 -217q-12 -74 -50 -138.5t-94 -113t-124.5 -76.5t-140.5 -28
q-74 0 -135 25t-101.5 71.5t-58 112.5t-4.5 147l10 66h-54q-27 0 -49.5 10t-37.5 27.5t-21.5 41.5t-1.5 52q4 27 18.5 51t35 42t46 28t52.5 10h181zM1705 -324l-515 -434l-249 287l-337 -287l-357 406q-34 40 -27.5 92.5t53.5 95.5q23 20 48.5 31.5t50.5 13t48.5 -7.5
t41.5 -29l202 -225l340 283l250 -287l193 164l204 1282q19 120 -9.5 219.5t-95.5 171t-169 111t-231 39.5q-68 0 -136 -17t-133.5 -47.5t-125 -72.5t-108.5 -93l102 -131l-176 -1110q-4 -28 -18.5 -52t-35.5 -41.5t-47.5 -27.5t-53.5 -10h-201q-28 0 -51 10t-38.5 27.5
t-22.5 41.5t-3 52t19 52.5t36.5 43t47.5 29t54 10.5h61l139 882l-84 113q-23 30 -25 63.5t7 65t25.5 57.5t30.5 42q81 87 173.5 157.5t192 119.5t204 75.5t209.5 26.5q189 0 338 -60t247 -167t139 -255t13 -325z" />
    <glyph glyph-name=".notdef" horiz-adv-x="1696" 
d="M1728 1638v-57h24q29 0 29 37q0 3 -6.5 11.5t-22.5 8.5h-24zM1740 1577h-12v-57h-21v139h45q49 0 49 -41q0 -28 -12.5 -34.5t-28.5 -6.5l41 -57h-20zM1752 1499q26 0 43.5 8t28 20.5t14.5 27t4 26.5q0 46 -21.5 72t-68.5 26q-46 0 -70 -26t-24 -72q0 -34 22.5 -58
t71.5 -24zM1752 1692q53 0 77.5 -32.5t24.5 -78.5q0 -17 -6 -33.5t-18.5 -30t-32 -22t-45.5 -8.5q-24 0 -44 8.5t-33.5 22t-21 30t-7.5 33.5q0 46 28.5 78.5t77.5 32.5zM822 1294q43 -3 98 -9t114 -15t118.5 -20.5t112 -25.5t94 -30t65.5 -35q-41 81 -107 144.5t-146.5 107
t-171 66t-181.5 22.5q-69 0 -136 -13t-128.5 -40t-115 -68t-95.5 -96q74 9 147.5 12.5t147.5 3.5q46 0 92 -0.5t92 -3.5zM1535 1618v-582q-98 31 -211.5 58t-238.5 47t-259 31.5t-274 11.5q-99 0 -194 -6t-191 -19q24 92 78 175.5t135.5 146.5t189.5 100t240 37
q127 0 229.5 -28.5t179 -70.5t128 -89.5t77.5 -86.5q0 -3 -0.5 11t-0.5 38t-1 55t-1 62.5t-0.5 60t-0.5 48.5h115zM626 520q0 34 -22.5 50t-47.5 16q-28 0 -49 -16t-21 -50t21 -47.5t49 -13.5q12 0 24.5 3t22.5 10.5t16.5 19t6.5 28.5zM130 569q0 95 37.5 168t98.5 122
t139 74t159 25t157.5 -22t135 -67.5t94 -115.5t35.5 -167v-475h434v827h115v-934h-774v107h119v487q0 61 -24 107.5t-66 77t-99 46t-123 15.5q-61 0 -118.5 -17.5t-102 -50.5t-71.5 -81t-27 -109v-439l237 238q-11 4 -25.5 14.5t-28 27t-23 39.5t-9.5 54q0 74 45 117t119 43
q35 0 64 -13t49.5 -35t31.5 -51t11 -61q0 -29 -6.5 -51t-16.5 -38t-20.5 -27l-18.5 -19l-204 -197l-92 -85.5l-101 -98.5h-131v565z" />
    <glyph glyph-name=".null" 
 />
    <glyph glyph-name="nonmarkingreturn" horiz-adv-x="1159" 
 />
    <glyph glyph-name="space" unicode=" " horiz-adv-x="1024" 
 />
    <glyph glyph-name="yoyingnobasethai" unicode="&#xf70f;" horiz-adv-x="3052" 
d="M1848 643q-13 -81 9.5 -154.5t72.5 -129t123.5 -88.5t162.5 -33q91 0 174 29t149.5 82.5t111.5 128t59 165.5l173 1090l-1 -4q5 29 20 54.5t36.5 44t48.5 29.5t56 11t53 -11t40 -29.5t23 -44t2 -54.5l-172 -1086q-15 -93 -53.5 -179t-96.5 -161t-132.5 -136t-160 -104.5
t-180 -67.5t-192.5 -24t-185 24t-159 67.5t-127 104.5t-89 136t-46 161t3 179l67 418q19 123 -9 223t-96.5 170.5t-173 109t-238.5 38.5q-69 0 -139 -17t-136.5 -47t-127.5 -71.5t-112 -90.5l102 -135l-154 -975h160q27 0 50 -10.5t38.5 -29t22 -43t2.5 -52.5t-18.5 -52
t-35.5 -41.5t-47.5 -27.5t-53.5 -10h-299q-27 0 -50 10t-39 27.5t-23 41.5t-3 52l162 1023l-84 111q-23 30 -25.5 63.5t7 65t25.5 57.5t31 42q81 87 175 157.5t195.5 119.5t208 75.5t211.5 26.5q195 0 347.5 -60.5t251.5 -168.5t139.5 -256.5t12.5 -325.5z" />
    <glyph glyph-name="quoteleft" unicode="&#x2018;" horiz-adv-x="770" 
d="M895 2298l-55.5 -39.5t-52.5 -43.5t-54 -54t-59 -72q53 -5 90.5 -20t60.5 -39t31.5 -55t2.5 -66q-6 -37 -26 -71t-50 -60.5t-67.5 -42t-78.5 -15.5q-56 0 -93.5 21.5t-59 56t-28 78t0.5 86.5q9 54 38 110.5t77 114.5t114.5 115t150.5 111q26 18 53 13t42 -30
q11 -25 2.5 -52.5t-39.5 -45.5z" />
    <glyph glyph-name="quoteright" unicode="&#x2019;" horiz-adv-x="770" 
d="M467 1843q30 20 56.5 39.5t53 43.5t54 54.5t59.5 71.5q-54 4 -91.5 19.5t-60 39.5t-31 55t-2.5 66q6 37 26 71t49.5 60.5t67 42t79.5 15.5q55 0 92.5 -21.5t59 -56t28 -78t-0.5 -86.5q-17 -108 -113.5 -225t-265.5 -225q-28 -19 -54.5 -14t-40.5 30q-12 25 -3.5 52.5
t38.5 45.5z" />
    <glyph glyph-name="quotedblleft" unicode="&#x201c;" horiz-adv-x="1262" 
d="M895 2298l-55.5 -39.5t-52.5 -43.5t-54 -54t-59 -72q53 -5 90.5 -20t60.5 -39t31.5 -55t2.5 -66q-6 -37 -26 -71t-50 -60.5t-67.5 -42t-78.5 -15.5q-56 0 -93.5 21.5t-59 56t-28 78t0.5 86.5q9 54 38 110.5t77 114.5t114.5 115t150.5 111q26 18 53 13t42 -30
q11 -25 2.5 -52.5t-39.5 -45.5zM1448 2298l-55.5 -39.5t-52.5 -43.5t-54 -54t-59 -72q53 -5 90.5 -20t60.5 -39t31.5 -55t2.5 -66q-6 -37 -26 -71t-50 -60.5t-67.5 -42t-78.5 -15.5q-56 0 -93.5 21.5t-59 56t-28 78t0.5 86.5q9 54 38 110.5t77 114.5t114.5 115t150.5 111
q26 18 53 13t42 -30q11 -25 2.5 -52.5t-39.5 -45.5z" />
    <glyph glyph-name="quotedblright" unicode="&#x201d;" horiz-adv-x="1290" 
d="M1016 1843q30 20 56.5 39.5t53 43.5t54 54.5t58.5 71.5q-53 4 -91 19.5t-60.5 39.5t-31 55t-2.5 66q6 37 26 71t50 60.5t67.5 42t79.5 15.5q55 0 92.5 -21.5t59 -56t28 -78t-0.5 -86.5q-17 -108 -113.5 -225t-265.5 -225q-28 -19 -54.5 -14t-40.5 30q-12 25 -3.5 52.5
t38.5 45.5zM463 1843q30 20 56.5 39.5t53 43.5t54 54.5t58.5 71.5q-53 4 -91 19.5t-60.5 39.5t-31 55t-2.5 66q6 37 26 71t50 60.5t67.5 42t79.5 15.5q55 0 92.5 -21.5t59 -56t28 -78t-0.5 -86.5q-17 -108 -113.5 -225t-265.5 -225q-28 -19 -54.5 -14t-40.5 30
q-12 25 -3.5 52.5t38.5 45.5z" />
    <glyph glyph-name="bullet" unicode="&#x2022;" horiz-adv-x="1561" 
d="M1636 819q-16 -101 -56.5 -194.5t-100.5 -174.5t-137 -147.5t-165 -113.5t-186 -73t-199 -26t-190.5 26t-163 73t-129.5 113.5t-90.5 147.5t-45.5 174.5t5 194.5t57 194.5t101 174.5t137 147.5t165.5 113.5t186 73t198.5 26q152 0 276 -57t207 -155.5t118.5 -231.5
t11.5 -285z" />
    <glyph glyph-name="endash" unicode="&#x2013;" horiz-adv-x="1556" 
d="M258 594q-53 0 -82.5 35t-21.5 88q4 26 17 48.5t32.5 39t43.5 26t50 9.5h1229q26 0 47 -9.5t34.5 -26t19.5 -39t2 -48.5t-17 -48.5t-32 -39t-43 -26t-50 -9.5h-1229z" />
    <glyph glyph-name="emdash" unicode="&#x2014;" horiz-adv-x="3113" 
d="M258 594q-53 0 -82.5 35t-21.5 88q4 26 17 48.5t32.5 39t43.5 26t50 9.5h2785q53 0 82 -35.5t21 -87.5q-4 -26 -17 -48.5t-32 -39t-43 -26t-50 -9.5h-2785z" />
    <glyph glyph-name="uni00A0" unicode="&#xa0;" horiz-adv-x="1024" 
 />
    <glyph glyph-name="kokaithai" unicode="&#xe01;" horiz-adv-x="1884" 
d="M1738 115q-5 -29 -19.5 -54t-36.5 -43t-49 -28t-56 -10t-52.5 10t-38.5 28t-21 43t-1 54l150 946q19 123 -9 223.5t-95 172t-169 110.5t-231 39q-68 0 -136.5 -17.5t-133.5 -48.5t-125 -73t-109 -91l102 -135l-178 -1126q-5 -29 -19.5 -54t-36.5 -43t-49 -28t-56 -10
t-52.5 10t-38.5 28t-21 43t-1 54l164 1036l-85 111q-23 30 -25 63.5t7 65t25.5 57.5t30.5 42q81 87 173 157t191.5 119t204 75.5t209.5 26.5q190 0 339.5 -60t247 -167t138 -255t12.5 -325z" />
    <glyph glyph-name="khokhaithai" unicode="&#xe02;" horiz-adv-x="1638" 
d="M541 1483q-19 -23 -43 -37.5t-50 -19.5t-51 0t-45 20q-21 15 -30.5 37t-9.5 46.5t8.5 50.5t23.5 50q37 57 89 102t115 76t133 47.5t143 16.5q111 0 201 -41t150.5 -111t86.5 -163t10 -197q-13 -81 -37 -141.5t-58.5 -107.5t-77.5 -83t-93 -68t-106.5 -62.5l-117.5 -66.5
q-39 -24 -69 -50.5t-52.5 -57.5t-37 -68.5t-21.5 -85.5q-11 -68 6 -128t57 -105t99 -71.5t133 -26.5q72 0 139 26t120.5 70.5t90 105t47.5 129.5l183 1160q4 27 19 51.5t36.5 43t48 29.5t53.5 11q28 0 51 -11t38.5 -29.5t22 -43t2.5 -51.5l-183 -1160q-13 -83 -47.5 -159.5
t-85 -143t-115 -121t-139 -93t-156.5 -60t-167 -21.5q-129 0 -234.5 47t-176 128t-101.5 190t-11 233q20 126 63.5 210t108 146t147.5 111.5l181 106.5q35 20 64 40.5t51.5 46t37 57t21.5 73.5q9 54 -4.5 100t-44 80.5t-75.5 54t-99 19.5q-38 0 -71.5 -11t-63.5 -29
t-56.5 -41.5t-50.5 -49.5z" />
    <glyph glyph-name="khokhuatthai" unicode="&#xe03;" horiz-adv-x="1618" 
d="M407 1614q-35 34 -33.5 81t39.5 87q40 40 88.5 47t86.5 -27l125 -114l241 180q171 -71 248 -198.5t51 -297.5q-16 -98 -50 -166.5t-80.5 -118.5t-101 -86t-110.5 -67l-109.5 -62t-98.5 -71t-77 -95t-44 -133q-11 -69 6 -130t56.5 -106.5t99 -72t133.5 -26.5
q72 0 139 25.5t120.5 70t90 106t47.5 133.5l183 1156q4 27 19 51.5t36.5 43t47.5 29.5t54 11t50.5 -11t38 -29.5t22 -43t2.5 -51.5l-183 -1156q-13 -83 -47 -159.5t-84.5 -143.5t-115 -122t-139 -94.5t-156.5 -61t-167 -21.5q-129 0 -234.5 47t-176.5 128.5t-102 191
t-11 235.5q17 107 53 185t84 135.5t103.5 99t112.5 75l111 63t98 64t74 77.5t40 104q9 56 -4.5 101.5t-47.5 83.5l-264 -197z" />
    <glyph glyph-name="khokhwaithai" unicode="&#xe04;" horiz-adv-x="1843" 
d="M979 1061q28 0 50 -10t37 -27.5t21 -41.5t2 -52q-5 -28 -18.5 -52t-34 -41.5t-46 -27.5t-53.5 -10h-373l-108 -684q-5 -29 -19.5 -54t-36.5 -43t-49 -28t-56 -10t-52.5 10t-38.5 28t-21 43t-1 54l160 1015q16 101 58 195t104.5 175.5t142.5 148.5t172 115t193 74t205 26
t196.5 -26t169 -74t135 -115t95 -148.5t48.5 -175.5t-4 -195l-160 -1015q-5 -29 -19.5 -54t-36.5 -43t-49 -28t-56 -10t-52.5 10t-38.5 28t-21 43t-1 54l160 1015q15 97 -10 182t-81 148.5t-138 100t-180 36.5q-103 0 -197.5 -36.5t-169.5 -100t-125.5 -148.5t-65.5 -182
l-10 -69h373z" />
    <glyph glyph-name="khokhonthai" unicode="&#xe05;" horiz-adv-x="1933" 
d="M1020 1061q28 0 50 -10t37 -27.5t21 -41.5t2 -52q-5 -28 -18.5 -52t-34 -41.5t-46 -27.5t-53.5 -10h-414l-108 -684q-5 -29 -19.5 -54t-36.5 -43t-49 -28t-56 -10t-52.5 10t-38.5 28t-21 43t-1 54l168 1061q18 117 69.5 223t130.5 198.5t183.5 168t230.5 130.5l260 -270
l346 270q109 -55 190 -130.5t130.5 -168t66 -198.5t-1.5 -223l-168 -1061q-5 -29 -19.5 -54t-36.5 -43t-49 -28t-56 -10t-52.5 10t-38.5 28t-21 43t-1 54l168 1061q19 120 -16.5 221t-113.5 172l-384 -303l-284 303q-107 -71 -174 -174t-86 -224l-17 -110h414z" />
    <glyph glyph-name="khorakhangthai" unicode="&#xe06;" horiz-adv-x="1860" 
d="M348 1630q-35 34 -33 81t39 87q20 20 43 32t46 15t45.5 -3t41.5 -23l107 -99l209 156q148 -62 212.5 -170t36.5 -244q-20 -92 -62 -155t-95.5 -110.5t-112 -87.5t-110 -85.5t-90 -104.5t-52.5 -145l-10 -61q-15 -97 12.5 -184t87.5 -153t147 -104.5t190 -38.5
q101 0 191 36.5t160.5 100t117.5 148.5t62 182l163 1029q4 27 19 51.5t36.5 43t48 29.5t53.5 11q28 0 51 -11t38.5 -29.5t22 -43t2.5 -51.5l-163 -1033q-16 -101 -55.5 -194.5t-98.5 -174.5t-135 -147.5t-164.5 -113.5t-187.5 -73t-203 -26q-72 0 -140 16t-128.5 45
t-113.5 70t-95 92l-12 -75q-5 -29 -20 -54t-36.5 -43t-49 -28t-56.5 -10t-52.5 10t-38.5 28t-21 43t-1 54l101 639q15 92 44 163t67.5 125.5t83 96t89.5 75l87 62t76.5 57t57.5 59.5t29 70q5 28 -2 52.5t-19 46.5l-215 -168z" />
    <glyph glyph-name="ngonguthai" unicode="&#xe07;" horiz-adv-x="1524" 
d="M1419 377q-13 -84 -55.5 -157.5t-105.5 -128t-142.5 -85.5t-165.5 -31q-61 0 -115 17t-97 48.5t-73.5 75t-45.5 97.5l-319 1012q-7 26 -2 52.5t19 50.5t36.5 43t51.5 30q28 11 55.5 10.5t51 -10.5t40 -29t23.5 -45l310 -1012q10 -34 35.5 -51.5t71.5 -17.5q29 0 55 10
t46 27t33 40.5t18 49.5l190 1204h-143q-28 0 -50 10t-37 27.5t-21.5 41.5t-1.5 52q4 28 18 52.5t34.5 43t46 29t53.5 10.5h287q28 0 50 -10.5t37 -29t21 -43t2 -52.5z" />
    <glyph glyph-name="chochanthai" unicode="&#xe08;" horiz-adv-x="1683" 
d="M757 1008q-5 27 0.5 54.5t20 51.5t36 42.5t49.5 27.5q29 10 57 8.5t50.5 -13t38.5 -31.5t21 -46l104 -561l235 454q23 41 37 78.5t21 77.5q15 92 -9.5 173.5t-78.5 142t-132.5 95.5t-172.5 35q-86 0 -160.5 -26.5t-137.5 -74t-113.5 -113.5t-87.5 -146q-14 -29 -35 -50
t-45.5 -32.5t-51.5 -13.5t-54 6q-28 9 -46.5 26t-27 39.5t-7 48.5t13.5 54q50 124 136 225.5t192.5 173.5t226.5 111t240 39q102 0 193 -25t165.5 -71.5t131.5 -111t92 -144t47 -171t-4 -190.5q-11 -65 -32 -124t-52 -118l-443 -831q-17 -34 -51 -58t-81 -24q-43 0 -70 24
t-35 62z" />
    <glyph glyph-name="chochingthai" unicode="&#xe09;" horiz-adv-x="1757" 
d="M542 659q-14 -90 8 -168t72.5 -135.5t125 -90t165.5 -32.5q92 0 178 35t155.5 96t117 142.5t62.5 173.5l75 475q15 92 -9.5 173.5t-78 142t-132 96t-172.5 35.5q-74 0 -145.5 -22t-133.5 -59.5t-112.5 -86.5t-81.5 -103q-15 -26 -37.5 -44t-48 -27t-52 -9t-49.5 11
q-24 10 -39 30t-20.5 44t-1 50.5t18.5 51.5q56 101 142.5 181t187.5 135.5t208.5 84.5t205.5 29q101 0 191 -25.5t164 -72t130.5 -111.5t92 -144.5t47 -170.5t-4.5 -189l-164 -1040q-5 -28 -19.5 -52.5t-36 -43t-47.5 -29t-54 -10.5t-50.5 10.5t-38 29t-22.5 43t-2 52.5
l7 49q-111 -96 -225 -144.5t-247 -48.5q-99 0 -186 24t-159 68.5t-127.5 107t-89.5 139t-45.5 165t3.5 184.5l29 185h-21q-27 0 -49.5 10t-37.5 27.5t-21.5 41.5t-1.5 52q4 28 18.5 52.5t35 43t46 29t52.5 10.5h164q27 0 49.5 -10.5t37.5 -29t21 -43t2 -52.5z" />
    <glyph glyph-name="chochangthai" unicode="&#xe0a;" horiz-adv-x="1651" 
d="M1766 1946q21 20 47 29.5t52 9.5t49.5 -10t40.5 -29q16 -20 21.5 -44.5t1 -50t-18 -50t-34.5 -44.5l-332 -307q21 -23 37.5 -56t26.5 -73t12 -85t-5 -93l-91 -570q-13 -83 -47 -159.5t-84.5 -143.5t-115.5 -122t-139.5 -94.5t-156.5 -61t-167 -21.5q-86 0 -162 21.5
t-138 61t-110 94.5t-77 122t-39 143.5t3 159.5q13 84 37 148.5t58 115.5t77 92t94 76.5t110 69.5l124 72q36 20 65 40.5t51.5 46t37 57t21.5 73.5q8 54 -5 101t-43 82t-74.5 55t-99.5 20q-39 0 -74.5 -13t-68 -33.5t-60 -45t-49.5 -47.5q-20 -22 -44.5 -36t-50 -19.5t-50 -1
t-44.5 19.5q-21 15 -31 37.5t-10 47t8.5 50.5t24.5 49q30 43 82 87.5t117.5 80.5t140.5 59t150 23q92 0 169.5 -29t136 -80t95 -121t46.5 -151zM1281 1364q-15 -96 -49.5 -165t-81 -120t-101.5 -87.5t-111 -68.5l-110 -63.5t-98.5 -70.5t-76 -91t-43.5 -125q-11 -69 6 -131
t56.5 -108.5t98.5 -73.5t133 -27q72 0 139.5 27t121 73.5t90 108.5t47.5 131l91 570q11 73 -12.5 143t-93.5 144q-2 -16 -3 -33.5t-3 -32.5z" />
    <glyph glyph-name="sosothai" unicode="&#xe0b;" horiz-adv-x="1610" 
d="M693 1692l251 188q140 -59 215.5 -156t86.5 -221l479 447q22 20 48 29.5t52 9.5t49 -10t40 -29q16 -19 21.5 -43.5t1.5 -50t-17.5 -50.5t-35.5 -45l-331 -307q21 -23 37.5 -56t26 -73t11.5 -85t-5 -93l-91 -574q-13 -83 -47 -159.5t-84.5 -143.5t-115.5 -122
t-139.5 -94.5t-156.5 -61t-167 -21.5q-86 0 -162 21.5t-138 61t-110 94.5t-77 122t-39 143.5t3 159.5q20 126 64 211t108.5 148t148 115l181.5 112q36 23 65.5 45.5t52 49t37 58t21.5 72.5q16 110 -53 185l-275 -209l-272 270q-35 34 -33.5 81t38.5 87q41 40 89.5 47.5
t86.5 -26.5zM1243 1384q-15 -97 -50 -167t-81.5 -122.5t-101.5 -91t-111.5 -72l-110.5 -66.5t-99 -73.5t-76.5 -93t-43.5 -125.5q-11 -69 6 -131t56.5 -108.5t98.5 -73.5t133 -27q72 0 139.5 27t121 73.5t90 108.5t47.5 131l91 570q11 73 -12.5 140.5t-94.5 141.5
q2 -12 1 -21.5t-3 -19.5z" />
    <glyph glyph-name="chochoethai" unicode="&#xe0c;" horiz-adv-x="3056" 
d="M1164 1872q192 0 344 -60.5t252 -168.5t142.5 -256.5t14.5 -325.5l-43 -270q-13 -82 -3 -155t37.5 -135t68 -112t89 -84.5t100.5 -53t102 -18.5q86 0 159.5 25.5t131 76.5t96.5 128t55 180l172 1086q5 29 20 54.5t36.5 44t48.5 29.5t56 11t53 -11t40 -29.5t23 -44
t2 -54.5l-172 -1086q-26 -164 -96 -289.5t-171 -210.5t-228 -128.5t-267 -43.5q-63 0 -125 17.5t-119.5 48t-108 71.5t-90.5 89l-12 -74q-5 -29 -20.5 -55t-38 -45.5t-50.5 -31t-57 -11.5t-53 11.5t-39.5 31t-22.5 45.5t-2 55l149 938q19 123 -9 223.5t-96 172t-172.5 110.5
t-238.5 39q-69 0 -139 -17.5t-137 -48.5t-128 -73t-112 -91l106 -135l-155 -975h157q27 0 50 -10.5t38.5 -29t22 -43t2.5 -52.5t-18.5 -52t-35.5 -41.5t-47.5 -27.5t-53.5 -10h-299q-27 0 -50 10t-39 27.5t-23 41.5t-3 52l162 1023l-84 111q-23 30 -25.5 63.5t7 65
t25.5 57.5t31 42q81 87 175 157.5t195.5 119.5t208 75.5t211.5 26.5z" />
    <glyph glyph-name="dochadathai" unicode="&#xe0e;" horiz-adv-x="1921" 
d="M455 1148l-84 113q-23 30 -25 63.5t7 65t25.5 57.5t30.5 42q81 87 173.5 157.5t192 119.5t204 75.5t209.5 26.5q189 0 337.5 -60t245.5 -167t137.5 -255t12.5 -325l-207 -1331l-506 -426q-64 54 -125 92.5t-123 63t-126.5 36.5t-133.5 12q-68 0 -137.5 -13.5t-136 -36
t-126 -52t-105.5 -61.5q-24 -17 -50 -20t-50 4.5t-43 24.5t-29 40q-10 24 -8 49t13 48.5t29.5 44.5t42.5 38q49 35 120.5 70.5t156.5 63.5t178.5 45.5t185.5 17.5q140 0 260.5 -31t227.5 -96l228 192l194 1225q19 121 -9 220.5t-95.5 171t-169.5 110.5t-231 39
q-68 0 -136.5 -17t-133.5 -47.5t-125.5 -72.5t-111.5 -93l106 -131l-176 -1110q-4 -28 -18.5 -52t-35.5 -41.5t-47.5 -27.5t-53.5 -10h-201q-28 0 -51 10t-38.5 27.5t-22.5 41.5t-3 52t19 52.5t36.5 43t47.5 29t54 10.5h61z" />
    <glyph glyph-name="topatakthai" unicode="&#xe0f;" horiz-adv-x="1921" 
d="M1188 1868q190 0 339.5 -60.5t247 -168.5t137.5 -256.5t12 -325.5l-209 -1319l-549 -443l-282 291l-369 -291l-367 398q-16 18 -21.5 41t-2 47t16.5 47t35 41q21 18 45.5 27.5t49 9.5t46.5 -9.5t39 -27.5l217 -229l365 286l274 -286l243 188l196 1233q19 120 -9.5 219.5
t-95.5 171t-169 111t-231 39.5q-68 0 -136.5 -17t-133.5 -47.5t-125.5 -72.5t-111.5 -93l106 -131l-176 -1110q-4 -28 -18.5 -52t-35.5 -41.5t-47.5 -27.5t-53.5 -10h-201q-28 0 -51 10t-38.5 27.5t-22.5 41.5t-3 52t19 52.5t36.5 43t47.5 29t54 10.5h61l139 882l-84 113
q-23 30 -25 63.5t7 65t25.5 57.5t30.5 42q81 87 173.5 157.5t192 119.5t204 75.5t209.5 26.5z" />
    <glyph glyph-name="thothanthai" unicode="&#xe10;" horiz-adv-x="1683" 
d="M605 -422l352 287l255 -279l60 45l22 136q4 26 18 49t34 40.5t44.5 27.5t50.5 10t47.5 -10t36 -27.5t21 -40.5t2.5 -49l-36 -226l-352 -282l-258 286l-352 -286l-354 401q-26 34 -20.5 78t44.5 78q19 17 41.5 25.5t44 9t41 -7.5t34.5 -23zM1175 78q-17 -34 -51 -58
t-81 -24q-43 0 -69 24.5t-36 61.5l-181 926q-5 27 0.5 54.5t20 51.5t36 42.5t49.5 27.5q29 10 57 8.5t50.5 -13t38.5 -31.5t21 -46l104 -561l239 450q21 39 34 79.5t20 80.5q15 92 -8.5 173.5t-76.5 142t-132 95.5t-176 35q-86 0 -163.5 -28t-142 -76.5t-114 -114.5
t-79.5 -141q-13 -31 -33.5 -51.5t-45.5 -32t-52.5 -13t-54.5 6.5q-28 9 -46 26t-26 39.5t-7 48.5t12 54q32 81 81.5 153t111 133t133.5 109.5t149.5 83t158.5 52.5t161 18q108 0 194.5 -26.5t162.5 -72.5l174 164q22 22 47.5 35t52 16.5t51.5 -3t45 -23.5q20 -18 30 -43.5
t9.5 -52.5t-12 -53.5t-33.5 -47.5l-179 -172q55 -96 78.5 -204.5t4.5 -229.5q-10 -62 -31.5 -123t-52.5 -123z" />
    <glyph glyph-name="thonangmonthothai" unicode="&#xe11;" horiz-adv-x="1839" 
d="M312 729q17 107 54 189t84 146.5t97 115.5l94 96.5t75 90t39 95.5q5 31 1.5 54t-17.5 45l-204 -168l-243 245q-35 34 -33.5 81t39.5 87q40 41 88.5 48t86.5 -27l107 -103l196 152q145 -62 207.5 -163.5t40.5 -237.5q-12 -78 -46.5 -141t-79.5 -118.5t-96 -107t-96 -106.5
t-79.5 -117.5t-46.5 -139.5l-20 -127l918 1242q118 -12 201.5 -58t134 -116.5t67 -162t0.5 -196.5l-192 -1212q-5 -28 -19.5 -52.5t-36 -43t-47.5 -29t-54 -10.5t-50.5 10.5t-38 29t-22.5 43t-2 52.5l194 1228q11 72 -6 128t-49 90l-1119 -1509q-21 -28 -52 -45t-66 -17
q-26 0 -47.5 10t-35.5 27t-20.5 40t-2.5 49z" />
    <glyph glyph-name="thophuthaothai" unicode="&#xe12;" horiz-adv-x="3117" 
d="M1150 74l-62.5 -34.5t-69.5 -32t-80.5 -23.5t-97.5 -9q-123 0 -221 33.5t-171 93.5t-122.5 145t-75 187t-28 219.5t17.5 243.5q31 196 102.5 356t174.5 283.5t232.5 210t277.5 137.5l247 -229l317 225q110 -43 196 -106.5t141 -147.5t76 -187.5t2 -226.5l-70 -442
q-12 -77 -0.5 -146.5t40 -129t70 -108t89 -82.5t98 -52.5t96.5 -18.5q86 0 160 25.5t131.5 76.5t96.5 128t55 180l172 1086q5 29 19.5 54.5t36.5 44t49 29.5t56 11t53 -11t39.5 -29.5t22.5 -44t2 -54.5l-172 -1086q-26 -164 -95.5 -289t-171 -209t-228 -127t-266.5 -43
q-62 0 -124.5 19t-120.5 52t-108.5 76.5t-86.5 92.5l-15 -92q-5 -29 -20.5 -55t-38.5 -45.5t-51 -31t-57 -11.5t-52.5 11.5t-39 31t-22.5 45.5t-2 55l171 1081q10 60 4.5 113t-24.5 98.5t-49.5 83t-70.5 66.5l-363 -258l-282 266q-73 -42 -139.5 -102.5t-121.5 -143.5
t-95.5 -190t-61.5 -240q-23 -141 -8.5 -261t61.5 -207.5t125.5 -137t184.5 -49.5q26 0 51 6t48 16t42 21t33 22q24 18 50.5 21.5t50 -4.5t42.5 -25.5t29 -40.5q10 -24 9.5 -50t-11 -51t-30 -46.5t-46.5 -36.5z" />
    <glyph glyph-name="nonenthai" unicode="&#xe13;" horiz-adv-x="3035" 
d="M1854 643q-17 -104 0.5 -181t61.5 -128t110.5 -76t147.5 -25q54 0 111.5 17.5t113 50t106 78t91.5 100.5t69 118.5t39 131.5l158 1000q5 29 19.5 54.5t36.5 44t49 29.5t56 11t53 -11t39.5 -29.5t22.5 -44t2 -54.5l-255 -1610q-5 -29 -19.5 -54.5t-36.5 -44.5t-49 -29.5
t-56 -10.5t-53 10.5t-39.5 29.5t-22.5 44.5t-2 54.5l9 53q-112 -102 -231 -151.5t-252 -49.5q-141 0 -255.5 43.5t-190 128.5t-106.5 210.5t-5 289.5l67 418q19 123 -10 223t-98 170.5t-174.5 109t-239.5 38.5q-69 0 -139 -17t-136.5 -47t-127.5 -71.5t-112 -90.5l106 -135
l-154 -975h156q27 0 50 -10.5t38.5 -29t22 -43t2.5 -52.5t-18.5 -52t-35.5 -41.5t-47.5 -27.5t-53.5 -10h-299q-27 0 -50 10t-39 27.5t-23 41.5t-3 52l162 1020l-85 111q-23 30 -25 63.5t7 65t25.5 57.5t30.5 42q81 87 175 157.5t196 119.5t208.5 75.5t211.5 26.5
q195 0 348.5 -60t253.5 -167.5t141.5 -255.5t13.5 -325z" />
    <glyph glyph-name="dodekthai" unicode="&#xe14;" horiz-adv-x="1933" 
d="M1155 82q-26 -19 -58.5 -37t-71.5 -32.5t-85 -23.5t-100 -9q-185 0 -313.5 70t-202.5 191.5t-95.5 286t8.5 353.5q27 173 85 313.5t138.5 250t178 189.5t205 132t220.5 77t222 25q97 0 189 -22t172 -63.5t144 -103t105.5 -140t57 -174t-1.5 -206.5l-165 -1040
q-5 -29 -19.5 -54.5t-36.5 -44.5t-49 -29.5t-56 -10.5t-53 10.5t-39.5 29.5t-22.5 44.5t-2 54.5l164 1032q17 106 -13.5 190.5t-93.5 143t-151 90t-186 31.5q-73 0 -148.5 -18t-148 -56t-139 -96.5t-121.5 -139t-95.5 -184t-60.5 -231.5q-22 -137 -7 -253.5t62.5 -201
t126 -132.5t184.5 -48q26 0 51 6.5t48 16t42.5 22t33.5 24.5q24 19 50.5 22.5t50 -5t42.5 -26t30 -40.5q20 -49 -2 -98.5t-73 -85.5z" />
    <glyph glyph-name="totaothai" unicode="&#xe15;" horiz-adv-x="1946" 
d="M1139 86q-85 -54 -160.5 -78t-150.5 -24q-180 0 -305.5 70t-199 192t-94.5 287t9 356q31 198 102 358.5t172.5 284t229 209.5t272.5 135l241 -229l316 229q108 -43 191 -107.5t135 -149t71 -188.5t0 -227l-172 -1089q-5 -28 -19.5 -52.5t-36 -43t-48 -29t-54.5 -10.5
q-27 0 -50 10.5t-38.5 29t-22.5 43t-2 52.5l171 1081q19 121 -19.5 213.5t-118.5 151.5l-357 -258l-278 262q-69 -42 -134 -104.5t-119.5 -146.5t-95 -190t-61.5 -235q-22 -138 -8 -256t60 -204t123 -134.5t181 -48.5q23 0 47.5 6.5t47.5 16.5t44 23t37 27q25 19 51 22.5
t50 -5t43 -26t29 -40.5q10 -24 8.5 -49.5t-12 -50t-30 -46t-45.5 -38.5z" />
    <glyph glyph-name="thothungthai" unicode="&#xe16;" horiz-adv-x="1884" 
d="M1738 115q-5 -29 -19.5 -54t-36.5 -43t-49 -28t-56 -10t-52.5 10t-38.5 28t-21 43t-1 54l150 946q19 123 -9 223.5t-95 172t-169 110.5t-231 39q-68 0 -136.5 -17.5t-134 -48.5t-126 -73t-111.5 -91l102 -135l-154 -975h164q27 0 50 -10.5t38.5 -29t22 -43t2.5 -52.5
t-18.5 -52t-35.5 -41.5t-47.5 -27.5t-53.5 -10h-299q-27 0 -50 10t-39 27.5t-23 41.5t-3 52l162 1020l-85 111q-23 30 -25 63.5t7 65t25.5 57.5t30.5 42q81 87 173 157t191.5 119t204 75.5t209.5 26.5q190 0 339.5 -60t247 -167t138 -255t12.5 -325z" />
    <glyph glyph-name="thothahanthai" unicode="&#xe17;" horiz-adv-x="1843" 
d="M437 1729q5 29 19 53.5t35 42.5t47.5 28.5t55.5 10.5t53 -10.5t39.5 -28.5t22.5 -42.5t2 -53.5l-19 -123q67 63 140.5 113t150 85t153 53.5t148.5 18.5q87 0 169 -19t153 -57t127.5 -94t92.5 -131t48.5 -167.5t-5.5 -203.5l-172 -1089q-5 -29 -19.5 -54t-36.5 -43
t-49 -28t-56 -10t-52.5 10t-38.5 28t-21 43t-1 54l172 1089q16 98 -7.5 174t-74.5 127.5t-123 78t-153 26.5q-66 0 -134.5 -19.5t-134.5 -55t-126.5 -85.5t-108.5 -110t-81 -128.5t-45 -142.5l-151 -954q-5 -29 -19.5 -54t-36.5 -43t-49 -28t-56 -10t-52.5 10t-38.5 28
t-21 43t-1 54z" />
    <glyph glyph-name="thothongthai" unicode="&#xe18;" horiz-adv-x="1745" 
d="M906 987l-148 33.5t-143.5 37.5t-126.5 50.5t-97.5 74.5t-55.5 108t-1 151q15 77 57.5 140t104 112.5t138.5 86t162 60.5t173.5 35.5t173.5 11.5q49 0 105 -5t113 -16t113.5 -29t106.5 -45t90.5 -63t67.5 -83q17 -29 23.5 -60t2 -59.5t-20.5 -54t-43 -43.5
q-58 -35 -107.5 -16.5t-91.5 77.5q-31 40 -77.5 66.5t-100 42.5t-111 23t-111.5 7q-86 0 -166.5 -13.5t-143.5 -39t-103.5 -61t-47.5 -78.5q-7 -42 7 -71t42.5 -49t70 -33.5t90 -24t102 -20.5t107.5 -24l150 -39.5t154.5 -51.5t142.5 -72t113.5 -101.5t67.5 -139.5t4 -185
q-16 -102 -56.5 -189.5t-100.5 -160t-136 -129t-163 -95t-182.5 -58.5t-193.5 -20q-147 0 -272 45t-210.5 129t-124.5 205t-15 273l39 250q4 27 19 51.5t36.5 43t48 29.5t53.5 11q28 0 51 -11t38.5 -29.5t22 -43t2.5 -51.5l-39 -250q-14 -88 9 -159t75.5 -121.5t131.5 -77.5
t177 -27q100 0 188 27t156 77.5t113 121.5t59 159q10 67 -7.5 115.5t-55 83.5t-90.5 59.5t-113.5 42t-124 31.5z" />
    <glyph glyph-name="nonuthai" unicode="&#xe19;" horiz-adv-x="1843" 
d="M1678 1729q5 29 19 53.5t35 42.5t47.5 28.5t55.5 10.5t53 -10.5t39.5 -28.5t22.5 -42.5t2 -53.5l-255 -1614q-5 -29 -19.5 -54t-36.5 -43t-49 -28t-56 -10t-52.5 10t-38.5 28t-21 43t-1 54l18 118q-73 -70 -148 -120t-150 -81.5t-149.5 -46t-146.5 -14.5q-86 0 -167.5 19
t-152 57t-127 94.5t-92.5 131t-48.5 167.5t5.5 203l172 1086q5 29 19 53.5t35 42.5t47.5 28.5t55.5 10.5t53 -10.5t39.5 -28.5t22.5 -42.5t2 -53.5l-172 -1086q-16 -100 7 -176.5t73 -128.5t122 -78.5t155 -26.5q66 0 135.5 19t135.5 53.5t126 83t108 108.5t81 130t45 147z
" />
    <glyph glyph-name="bobaimaithai" unicode="&#xe1a;" horiz-adv-x="1843" 
d="M1678 1729q5 29 19 53.5t35 42.5t47.5 28.5t55.5 10.5t53 -10.5t39.5 -28.5t22.5 -42.5t2 -53.5l-161 -1016q-16 -103 -58 -197.5t-104.5 -176.5t-142 -149t-171 -115t-192.5 -74t-205 -26q-105 0 -197.5 26t-169 74t-135.5 115t-95.5 149t-48.5 177t4 197l161 1016
q5 29 19 53.5t35 42.5t47.5 28.5t55.5 10.5t53 -10.5t39.5 -28.5t22.5 -42.5t2 -53.5l-161 -1016q-15 -97 8.5 -182.5t78.5 -149.5t137.5 -101.5t185.5 -37.5q98 0 192 37.5t170 101.5t128 149.5t67 182.5z" />
    <glyph glyph-name="poplathai" unicode="&#xe1b;" horiz-adv-x="1843" 
d="M1796 2474q5 29 19 54t35 43t47.5 28t55.5 10t53 -10t39.5 -28t22.5 -43t2 -54l-278 -1757q-16 -103 -58 -197t-104.5 -176t-142.5 -149t-171.5 -115t-192.5 -74t-205 -26q-105 0 -197.5 26t-169 74t-135 115t-95 149t-48.5 176.5t4 196.5l160 1012q5 29 19 53.5t35 42.5
t47.5 28.5t55.5 10.5t53 -10.5t39.5 -28.5t22.5 -42.5t2 -53.5l-160 -1012q-15 -97 8 -182.5t78 -149.5t137.5 -101.5t185.5 -37.5q98 0 192 37.5t170 101.5t128.5 149.5t67.5 182.5z" />
    <glyph glyph-name="phophungthai" unicode="&#xe1c;" horiz-adv-x="2081" 
d="M1160 1585q-84 -5 -173 -37t-166 -90t-132.5 -140.5t-72.5 -187.5l-104 -659q-8 -48 4 -89t38.5 -71t66.5 -47.5t89 -17.5q48 0 93 17.5t81.5 47.5t61.5 71t33 89l97 614q4 28 19 52.5t36.5 43t48 29.5t53.5 11q28 0 51 -11t38.5 -29.5t22 -43t2.5 -52.5l-97 -614
q-8 -48 4 -89t39 -71t66.5 -47.5t87.5 -17.5q49 0 94.5 17.5t81.5 47.5t60.5 71t32.5 89l199 1258q5 29 19.5 53.5t35.5 42.5t47.5 28.5t55.5 10.5t52.5 -10.5t39.5 -28.5t23 -42.5t2 -53.5l-199 -1258q-16 -101 -70.5 -190t-134 -155t-177.5 -104t-203 -38q-219 0 -344 155
q-87 -77 -184.5 -116t-208.5 -39q-105 0 -191.5 38t-145 104t-84.5 155t-10 190l104 659q17 110 65 206.5t115 177.5t149 144t167.5 107t169.5 67t157 23q30 0 56 -8t45.5 -23.5t30.5 -37.5t10 -49q0 -29 -10 -56t-28.5 -48t-45.5 -34t-63 -14z" />
    <glyph glyph-name="fofathai" unicode="&#xe1d;" horiz-adv-x="2081" 
d="M1160 1585q-84 -5 -173 -37t-166 -90t-132.5 -140.5t-72.5 -187.5l-104 -659q-8 -48 4 -89t38.5 -71t66.5 -47.5t89 -17.5q48 0 93 17.5t81.5 47.5t61.5 71t33 89l97 614q4 28 19 52.5t36.5 43t48 29.5t53.5 11q28 0 51 -11t38.5 -29.5t22 -43t2.5 -52.5l-97 -614
q-8 -48 4 -89t39 -71t66.5 -47.5t87.5 -17.5q49 0 94.5 17.5t81.5 47.5t60.5 71t32.5 89l317 2003q5 29 19.5 54t35.5 43t47.5 28t55.5 10t52.5 -10t39.5 -28t23 -43t2 -54l-317 -2003q-16 -101 -70.5 -190t-134 -155t-177.5 -104t-203 -38q-219 0 -344 155
q-87 -77 -184.5 -116t-208.5 -39q-105 0 -191.5 38t-145 104t-84.5 155t-10 190l104 659q18 112 65 208t114 174.5t148 140t166.5 104.5t170.5 68t159 30q30 2 56 -6t45.5 -23.5t30.5 -38.5t10 -50q0 -29 -10 -56t-28.5 -48t-45.5 -34t-63 -14z" />
    <glyph glyph-name="phophanthai" unicode="&#xe1e;" horiz-adv-x="2154" 
d="M1993 1729q4 27 19 51.5t36.5 43t48 29.5t53.5 11q28 0 51 -11t38.5 -29.5t22 -43t2.5 -51.5l-196 -1237q-17 -105 -72.5 -198t-138 -162.5t-184.5 -110.5t-211 -41q-120 0 -211.5 45t-150.5 122q-83 -77 -189 -122t-227 -45q-109 0 -198 41t-149 110.5t-86.5 162.5
t-9.5 198l196 1237q4 27 19 51.5t36.5 43t47.5 29.5t54 11t50.5 -11t38 -29.5t22 -43t2.5 -51.5l-196 -1237q-8 -51 4.5 -96t41.5 -78t72 -52.5t97 -19.5t103.5 19.5t89 52.5t66 78t34.5 96l196 1237q4 27 19 51.5t36.5 43t48 29.5t53.5 11q28 0 50.5 -11t38 -29.5t22 -43
t2.5 -51.5l-196 -1237q-8 -51 4.5 -96t41.5 -78t72 -52.5t97 -19.5t103.5 19.5t89 52.5t66 78t34.5 96z" />
    <glyph glyph-name="fofanthai" unicode="&#xe1f;" horiz-adv-x="2159" 
d="M437 1729q4 27 19 51.5t36.5 43t47.5 29.5t54 11t50.5 -11t38 -29.5t22 -43t2.5 -51.5l-196 -1237q-8 -51 4.5 -96t41.5 -78t72 -52.5t97 -19.5t103.5 19.5t89 52.5t66 78t34.5 96l196 1237q4 27 19 51.5t36.5 43t48 29.5t53.5 11q28 0 50.5 -11t38 -29.5t22 -43
t2.5 -51.5l-196 -1237q-8 -51 4.5 -96t41.5 -78t72 -52.5t97 -19.5t103.5 19.5t89 52.5t66 78t34.5 96l314 1982q4 28 19 52.5t36.5 43t48 29t53.5 10.5q28 0 51 -10.5t38.5 -29t22 -43t2.5 -52.5l-314 -1982q-17 -105 -72.5 -198t-138 -162.5t-184.5 -110.5t-211 -41
q-114 0 -206.5 45t-155.5 122q-83 -77 -189 -122t-227 -45q-108 0 -196.5 41t-149 110.5t-87.5 162.5t-10 198z" />
    <glyph glyph-name="phosamphaothai" unicode="&#xe20;" horiz-adv-x="1921" 
d="M455 1148l-84 113q-23 30 -25 63.5t7 65t25.5 57.5t30.5 42q81 87 173.5 157.5t192 119.5t204 75.5t209.5 26.5q190 0 339.5 -60t247 -167t138 -255t12.5 -325l-150 -946q-5 -29 -19.5 -54t-36.5 -43t-49 -28t-56 -10t-52.5 10t-38.5 28t-21 43t-1 54l150 946
q19 123 -9 223.5t-95 172t-169 110.5t-231 39q-68 0 -136.5 -17.5t-134 -48.5t-126 -73t-111.5 -91l106 -135l-176 -1110q-4 -28 -18.5 -52t-35.5 -41.5t-47.5 -27.5t-53.5 -10h-201q-28 0 -51 10t-38.5 27.5t-22.5 41.5t-3 52t19 52.5t36.5 43t47.5 29t54 10.5h61z" />
    <glyph glyph-name="momathai" unicode="&#xe21;" horiz-adv-x="1843" 
d="M456 115q-5 -29 -19.5 -54t-36.5 -43t-49 -28t-56 -10t-52.5 10t-38.5 28t-21 43t-1 54l255 1614q5 29 19 53.5t35 42.5t47.5 28.5t55.5 10.5t53 -10.5t39.5 -28.5t22.5 -42.5t2 -53.5l-151 -955q-12 -77 -1 -147t40 -130t74 -108.5t100 -83t117.5 -53.5t128.5 -19
q81 0 161.5 26.5t147.5 78.5t114.5 128.5t63.5 176.5l172 1086q5 29 19 53.5t35 42.5t47.5 28.5t55.5 10.5t53 -10.5t39.5 -28.5t22.5 -42.5t2 -53.5l-172 -1086q-18 -111 -59.5 -203.5t-101 -167t-134 -131t-157.5 -94.5t-171 -57t-175 -19q-145 0 -275.5 69.5
t-232.5 192.5z" />
    <glyph glyph-name="yoyakthai" unicode="&#xe22;" horiz-adv-x="1823" 
d="M986 1552q-18 16 -48 33t-71 17t-79 -14.5t-68.5 -40.5t-51.5 -61t-27 -77q-7 -40 5 -76.5t40 -70.5l252 -299l-426 -369q7 -78 41 -143.5t89 -113t128.5 -73.5t159.5 -26q103 0 198.5 38t172.5 103t129 152.5t67 185.5l160 1012q5 29 19.5 53.5t35.5 42.5t47.5 28.5
t55.5 10.5t52.5 -10.5t39.5 -28.5t23 -42.5t2 -53.5l-160 -1012q-16 -103 -58.5 -197.5t-105 -177t-142.5 -150t-173 -116t-195.5 -75t-208.5 -26.5q-100 0 -190 24t-165 69t-134 109t-98.5 143.5t-56.5 173t-9 198.5l338 275l-93.5 101.5t-71.5 96t-40 108t1 136.5
q15 94 64.5 177.5t123 146t165.5 99t190 36.5q48 0 87.5 -8.5t73 -23t60.5 -33t50 -38.5q19 -17 28.5 -40.5t8.5 -49t-11.5 -51.5t-30.5 -47t-45.5 -34t-52 -16.5t-51.5 2.5t-44 23z" />
    <glyph glyph-name="roruathai" unicode="&#xe23;" horiz-adv-x="1671" 
d="M1590 504q-14 -88 -52 -161t-94 -131.5t-127.5 -101.5t-153 -72t-169 -43.5t-175.5 -14.5q-80 0 -168.5 12.5t-171 40t-150.5 73t-107 111.5q-39 62 -27 119t74 94q60 34 107.5 18t88.5 -75q24 -37 68.5 -63t98 -42t110.5 -23t106 -7q89 0 167 20.5t137.5 55.5t96.5 81
t45 97q12 73 -9.5 124t-66.5 87t-108.5 60.5t-136.5 45.5l-150 42t-148.5 49t-133 67.5t-103.5 96.5t-59 136.5t0 188.5q14 91 54 163t97 127t128.5 94t149.5 63.5t159 36t158 11.5q81 0 162.5 -11.5t155 -39.5t134 -73.5t100.5 -112.5q34 -62 20.5 -119t-73.5 -94
q-56 -34 -106.5 -19.5t-89.5 76.5q-25 40 -60 66.5t-79 42.5t-95.5 23t-108.5 7q-71 0 -140.5 -13t-127 -41.5t-97.5 -74.5t-50 -112q-11 -68 11.5 -115.5t68 -81t109.5 -57.5t137 -44.5l150.5 -41.5t149 -49.5t133 -68.5t103.5 -98.5t58.5 -139t-0.5 -189.5z" />
    <glyph glyph-name="ruthai" unicode="&#xe24;" horiz-adv-x="1884" 
d="M1627 -585q-5 -29 -19.5 -54t-36.5 -43t-49 -28t-56 -10t-52.5 10t-38.5 28t-21 43t-1 54l261 1646q19 123 -9 223.5t-95 172t-169 110.5t-231 39q-68 0 -136.5 -17.5t-134 -48.5t-126 -73t-111.5 -91l102 -135l-154 -975h164q27 0 50 -10.5t38.5 -29t22 -43t2.5 -52.5
t-18.5 -52t-35.5 -41.5t-47.5 -27.5t-53.5 -10h-299q-27 0 -50 10t-39 27.5t-23 41.5t-3 52l162 1020l-85 111q-23 30 -25 63.5t7 65t25.5 57.5t30.5 42q81 87 173 157t191.5 119t204 75.5t209.5 26.5q190 0 339.5 -60t247 -167t138 -255t12.5 -325z" />
    <glyph glyph-name="lolingthai" unicode="&#xe25;" horiz-adv-x="1806" 
d="M615 1270q-11 -29 -30 -51t-43 -35.5t-52 -18t-56 1.5q-54 13 -75 58t-2 102q22 67 66.5 133t105.5 125.5t135.5 110.5t157.5 88.5t172 58.5t178 21q90 0 178.5 -19t167.5 -57.5t144 -96t108 -134t59.5 -172t-1.5 -209.5l-168 -1061q-5 -28 -19.5 -52.5t-36 -43
t-47.5 -29t-54 -10.5q-27 0 -50 10.5t-38.5 29t-22.5 43t-2 52.5l62 393q17 106 -11.5 186.5t-87.5 134.5t-142.5 81.5t-177.5 27.5q-92 0 -181.5 -27.5t-163.5 -81.5t-125.5 -134.5t-68.5 -186.5q-8 -49 -4 -91t16.5 -78.5t31 -68.5t40.5 -61q16 -20 22 -45t2.5 -51
t-16.5 -51.5t-35 -45.5q-21 -20 -47 -30t-51.5 -10t-49.5 10t-41 30q-41 45 -73 98t-51.5 114.5t-25 131.5t6.5 148q17 109 61 203t108 171.5t144 138t169.5 102.5t185 63.5t189.5 21.5q127 0 245.5 -38t216.5 -121l20 127q11 69 0.5 127.5t-37.5 105t-69 82t-93 59
t-110 35.5t-120 12q-86 0 -165 -21.5t-146 -63.5t-119 -103t-84 -139z" />
    <glyph glyph-name="luthai" unicode="&#xe26;" horiz-adv-x="1921" 
d="M455 1148l-84 113q-23 30 -25 63.5t7 65t25.5 57.5t30.5 42q81 87 173.5 157.5t192 119.5t204 75.5t209.5 26.5q190 0 339.5 -60t247 -167t138 -255t12.5 -325l-261 -1647q-5 -29 -19.5 -54t-36.5 -43t-49 -28t-56 -10t-52.5 10t-38.5 28t-21 43t-1 54l261 1647
q19 123 -9 223.5t-95 172t-169 110.5t-231 39q-68 0 -136.5 -17.5t-134 -48.5t-126 -73t-111.5 -91l106 -135l-176 -1110q-4 -28 -18.5 -52t-35.5 -41.5t-47.5 -27.5t-53.5 -10h-201q-28 0 -51 10t-38.5 27.5t-22.5 41.5t-3 52t19 52.5t36.5 43t47.5 29t54 10.5h61z" />
    <glyph glyph-name="wowaenthai" unicode="&#xe27;" horiz-adv-x="1655" 
d="M530 1434q-24 -19 -50 -27t-50 -6t-45.5 13.5t-36.5 31.5t-19 42.5t1.5 46t19.5 47t34 44.5q63 61 136.5 106.5t152.5 75.5t160.5 45t161.5 15q129 0 235 -38.5t188 -105t139.5 -157.5t90.5 -196t40.5 -220t-10.5 -229q-20 -125 -66.5 -244t-115.5 -224.5t-156.5 -194.5
t-190.5 -153t-217.5 -99.5t-236.5 -35.5q-80 0 -159.5 17.5t-150.5 49.5t-130 78.5t-97 104.5q-14 20 -20 42.5t-3 46t14 46t32 41.5t46 29.5t49.5 12t46.5 -6.5t36 -26q32 -40 74.5 -71.5t91.5 -53t101 -32.5t103 -11q91 0 172.5 28.5t152 78.5t128.5 116.5t102 142.5
t73 157.5t42 160.5q13 85 9 168.5t-25 159t-58.5 140t-92 111.5t-125.5 74t-158 27q-105 0 -213.5 -45t-205.5 -123z" />
    <glyph glyph-name="sosalathai" unicode="&#xe28;" horiz-adv-x="1843" 
d="M1772 1593q59 -96 83.5 -208.5t3.5 -245.5l-162 -1024q-5 -29 -19.5 -54t-36.5 -43t-49 -28t-56 -10t-52.5 10t-38.5 28t-21 43t-1 54l162 1024q15 97 -8.5 182t-78 148.5t-137 100t-185.5 36.5q-99 0 -192.5 -36.5t-169.5 -100t-128.5 -148.5t-67.5 -182l-11 -70h373
q28 0 50 -10t37 -27.5t21 -41.5t2 -52q-5 -28 -18.5 -52t-34 -41.5t-46 -27.5t-53.5 -10h-373l-109 -692q-5 -29 -19.5 -54t-36.5 -43t-49 -28t-56 -10t-52.5 10t-38.5 28t-21 43t-1 54l162 1024q16 101 58 195t104 175t142 148t172 115t192.5 74t205.5 26q108 0 199 -26
t170 -72l168 155q23 22 50 33.5t54 12.5t51.5 -8.5t42.5 -29.5t25.5 -45t4.5 -51.5t-16.5 -52.5t-36.5 -47z" />
    <glyph glyph-name="sorusithai" unicode="&#xe29;" horiz-adv-x="1847" 
d="M1932 1208q28 0 50 -10t37 -27.5t21 -41.5t2 -52q-4 -27 -18 -51t-34.5 -42t-46 -28t-53.5 -10h-62l-37 -233q-16 -103 -58 -197.5t-104.5 -176.5t-142 -149t-171 -115t-192.5 -74t-205 -26q-105 0 -197.5 26t-169 74t-135.5 115t-95.5 149t-48.5 177t4 197l161 1016
q5 29 19 53.5t35 42.5t47.5 28.5t55.5 10.5t53 -10.5t39.5 -28.5t22.5 -42.5t2 -53.5l-161 -1016q-15 -98 8.5 -184t78 -150t137.5 -100.5t186 -36.5q98 0 191.5 36.5t169.5 100.5t128.5 150t67.5 184l37 233h-229q-62 0 -111 22t-81 60.5t-45.5 89t-4.5 107.5l9 57
q4 28 18 52t34 41.5t45.5 27.5t53.5 10t50 -10t37 -27.5t21.5 -41.5t2.5 -52l-8 -49q-5 -25 21 -25h229l82 521q5 29 19 53.5t35 42.5t47.5 28.5t55.5 10.5t53 -10.5t39.5 -28.5t22.5 -42.5t2 -53.5l-82 -521h62z" />
    <glyph glyph-name="sosuathai" unicode="&#xe2a;" horiz-adv-x="1806" 
d="M1752 1933q23 22 50 33.5t53.5 12.5t51 -8t42.5 -29q19 -20 26.5 -45.5t4.5 -52t-16.5 -52.5t-36.5 -47l-169 -160q54 -83 71.5 -186t-1.5 -223l-168 -1061q-5 -28 -19.5 -52.5t-36 -43t-47.5 -29t-54 -10.5q-27 0 -50 10.5t-38.5 29t-22.5 43t-2 52.5l63 397
q16 106 -12 186t-87.5 133t-143 80t-177.5 27t-184 -27.5t-164.5 -81.5t-126 -134.5t-68.5 -186.5q-16 -98 11 -172.5t77 -126.5q16 -20 22 -45t2.5 -51t-16.5 -51.5t-35 -45.5q-21 -20 -47 -30t-51.5 -10t-49.5 10t-41 30q-41 45 -73 98t-51.5 115t-25 132.5t7.5 150.5
q17 106 60.5 199t107.5 170.5t144 138t169.5 102.5t185 64t189.5 22q126 0 245.5 -36.5t216.5 -118.5l20 123q16 103 -14.5 182.5t-91.5 133.5t-145.5 82t-176.5 28q-86 0 -165.5 -22.5t-146 -65t-119 -104.5t-84.5 -140q-26 -59 -75 -87t-106 -16q-27 6 -46 21.5t-29 37
t-11 47.5t9 54q25 71 70 139t105.5 128t134.5 110.5t156.5 86.5t171 56.5t177.5 20.5q108 0 207 -25t190 -78z" />
    <glyph glyph-name="hohipthai" unicode="&#xe2b;" horiz-adv-x="1888" 
d="M1746 1823q52 34 101 27t75 -52q13 -22 16 -47t-4 -49.5t-23 -46.5t-41 -37l-296 -188q81 -33 142 -85t99.5 -119.5t52 -148.5t-0.5 -172l-125 -790q-5 -29 -19.5 -54t-36.5 -43t-49 -28t-56 -10t-52.5 10t-38.5 28t-21 43t-1 54l127 803q10 61 -3.5 115.5t-46.5 95.5
t-84.5 65t-117.5 24q-53 0 -101.5 -15.5t-86.5 -39.5l-593 -377l-106 -671q-5 -29 -19.5 -54t-36.5 -43t-49 -28t-56 -10t-52.5 10t-38.5 28t-21 43t-1 54l255 1614q5 29 19 53.5t35 42.5t47.5 28.5t55.5 10.5t53 -10.5t39.5 -28.5t22.5 -42.5t2 -53.5l-99 -627z" />
    <glyph glyph-name="lochulathai" unicode="&#xe2c;" horiz-adv-x="2159" 
d="M1827 1843q60 0 96 4t56.5 14t30.5 25.5t18 38.5q9 28 24.5 52.5t36 43t45 29t52.5 10.5q27 0 50 -10.5t38.5 -29t22 -43t2.5 -52.5q-5 -29 -14.5 -62t-25.5 -65t-40 -62t-57 -53q48 -65 56.5 -140t-6.5 -171l-140 -880q-17 -106 -72.5 -198.5t-138 -161.5t-185 -108.5
t-213.5 -39.5q-114 0 -207 45t-155 123q-84 -78 -189.5 -123t-226.5 -45q-108 0 -197 39.5t-149.5 108.5t-87.5 161.5t-10 198.5l196 1237q4 27 19 51.5t36.5 43t47.5 29.5t54 11t50.5 -11t38 -29.5t22 -43t2.5 -51.5l-192 -1237q-8 -50 4.5 -94t40.5 -77t70.5 -52t96.5 -19
t103.5 19.5t89 52.5t66 78t34.5 96l107 675q4 28 19.5 52.5t37.5 43t49 29.5t54 11q28 0 51 -11t38.5 -29.5t22.5 -43t3 -52.5l-108 -679q-8 -51 4 -95t40 -77t70.5 -51.5t96.5 -18.5t103.5 19t89 52t65.5 77t34 94l139 876q10 63 2.5 106.5t-29.5 71t-56 39.5t-77 12h-148
q-26 0 -47 9.5t-34.5 26t-19.5 39t-2 48.5t17 48.5t32 39t43 26t50 9.5h160z" />
    <glyph glyph-name="oangthai" unicode="&#xe2d;" horiz-adv-x="2048" 
d="M264 889q4 27 18.5 51t35 41.5t46 28t52.5 10.5h675q28 0 50 -10t37 -27.5t21 -41.5t2 -52t-18 -52t-34 -41.5t-45.5 -27.5t-53.5 -10h-512q5 -112 43 -208.5t106 -168t164 -112t217 -40.5q90 0 175 24.5t161.5 69t142 107.5t117 140.5t87 167.5t50.5 188q24 149 -1 277
t-91.5 222t-173 147.5t-246.5 53.5q-89 0 -180 -26t-173.5 -73.5t-152 -113t-115.5 -143.5q-17 -26 -39 -45.5t-47.5 -30.5t-52 -12t-50.5 10q-26 11 -42.5 30t-23.5 42.5t-3 50.5t19 53q72 124 176 221t224.5 163.5t249.5 101t252 34.5q139 0 254 -35.5t204.5 -100
t153 -153.5t99.5 -196t44.5 -228t-11.5 -249t-68 -249t-119.5 -227.5t-164.5 -195t-202.5 -152.5t-234.5 -99.5t-260 -35.5q-131 0 -244 32.5t-204 92.5t-159.5 144t-109.5 186.5t-53 220.5t8 246z" />
    <glyph glyph-name="honokhukthai" unicode="&#xe2e;" horiz-adv-x="2048" 
d="M1091 1020q28 0 50 -10t37 -27.5t21 -41.5t2 -52t-18 -52t-34 -41.5t-45.5 -27.5t-53.5 -10h-512q4 -115 42 -212t106 -167.5t164.5 -110t217.5 -39.5q135 0 258 53t220.5 146.5t164 221t90.5 276.5t-1 276.5t-92 220.5t-173.5 146t-246.5 53q-100 0 -194 -29.5t-175 -79
t-145.5 -113t-105.5 -130.5q-17 -26 -39 -45.5t-47.5 -30.5t-52 -12t-50.5 10q-26 11 -42.5 30t-23.5 42.5t-3 50.5t19 53q67 121 170.5 217.5t226 164t253.5 103t252 35.5q133 0 239 -30t193 -89l212 201q23 22 50 33.5t53.5 12.5t51 -8.5t43.5 -29.5q18 -20 25.5 -45
t4.5 -51.5t-16.5 -52.5t-36.5 -47l-199 -193q90 -133 122 -302.5t2 -364.5q-21 -128 -69 -249t-119.5 -227.5t-164 -195t-202.5 -152.5t-234.5 -99.5t-259.5 -35.5q-131 0 -244 33t-204 93.5t-159.5 144.5t-109.5 187t-53 221.5t8 246.5q4 27 18.5 51t35 41.5t46 28
t52.5 10.5h675z" />
    <glyph glyph-name="paiyannoithai" unicode="&#xe2f;" horiz-adv-x="1679" 
d="M1436 1237q-200 -135 -435 -135q-98 -5 -181.5 20.5t-150.5 71.5t-117.5 109t-83 132t-45.5 139.5t-6 133.5q3 26 14.5 52t30 47.5t42.5 36.5t53 20q27 4 51 -3t42 -22.5t29 -38.5t12 -51q-1 -80 22 -150t67.5 -122.5t110.5 -82.5t152 -30t159.5 29.5t132 79t101 114
t65.5 133.5q9 29 25 55.5t37.5 46t48 31t55.5 11.5t53.5 -11.5t41 -31t23.5 -46t3 -55.5l-254 -1605q-5 -29 -20 -54t-36.5 -43t-49 -28t-56.5 -10t-52.5 10t-38.5 28t-21 43t-1 54z" />
    <glyph glyph-name="saraathai" unicode="&#xe30;" horiz-adv-x="877" 
d="M866 1434q28 0 50 -10t37 -28t21 -42t2 -51q-5 -28 -18.5 -51t-34 -40t-45.5 -26.5t-53 -9.5h-221q-62 0 -112 23.5t-83.5 64t-48 93.5t-5.5 113l6 37q4 28 17.5 52t33 41.5t44.5 27.5t53 10t50 -10t37 -27.5t21 -41.5t2 -52l-6 -37q-2 -15 8 -25.5t20 -10.5h225z
M707 434q28 0 50 -10t37 -27.5t21 -41.5t2 -52t-18 -51t-34 -40t-45.5 -26.5t-53.5 -9.5h-221q-62 0 -111.5 23.5t-83 64t-48 94t-5.5 113.5l6 37q4 28 17.5 52t33 41.5t44.5 27.5t53 10t50 -10t37 -27.5t21 -41.5t2 -52l-6 -37q-2 -15 7.5 -26t19.5 -11h225z" />
    <glyph glyph-name="maihanakatthai" unicode="&#xe31;" 
d="M267 2388q28 0 50 -10.5t36.5 -29t20.5 -43t2 -52.5t-17.5 -51t-34 -39.5t-45.5 -25.5t-53 -9h-811q-68 0 -117 20.5t-78 56.5t-39 86t-1 108l13 79q4 28 17.5 52t33 41.5t44.5 27.5t53 10t50 -10t37 -27.5t21 -41.5t2 -52l-8 -50q-2 -16 7.5 -28t25.5 -12h791z" />
    <glyph glyph-name="saraaathai" unicode="&#xe32;" horiz-adv-x="1393" 
d="M353 1716q42 32 93 59.5t111.5 48t131 32.5t151.5 12q118 0 210.5 -24.5t161.5 -68.5t115.5 -105.5t71.5 -136t29.5 -159t-9.5 -174.5l-172 -1085q-5 -28 -19.5 -52.5t-36 -43t-48 -29t-53.5 -10.5q-28 0 -51 10.5t-38.5 29t-22.5 43t-2 52.5l166 1052
q34 212 -52.5 327.5t-294.5 115.5q-109 0 -181.5 -27t-116.5 -68q-21 -20 -48 -28.5t-53.5 -6t-49.5 14.5t-38 33t-18.5 46t3 51t22 49.5t38.5 41.5z" />
    <glyph glyph-name="saraamthai" unicode="&#xe33;" horiz-adv-x="1393" 
d="M364 2355q-9 -60 -40.5 -113t-78 -92.5t-104 -62.5t-118.5 -23t-111 23t-83.5 62.5t-48 92.5t-5.5 113q10 61 41.5 115t77.5 94t103.5 63t118.5 23t111.5 -23t84 -63t48 -94t4.5 -115zM163 2355q7 40 -16 67t-63 27q-20 0 -38.5 -7t-34 -20t-26 -30t-13.5 -37t2 -37.5
t16 -31t27.5 -21.5t36.5 -8t38.5 8t33 21.5t24.5 31t13 37.5zM353 1716q42 32 93 59.5t111.5 48t131 32.5t151.5 12q118 0 210.5 -24.5t161.5 -68.5t115.5 -105.5t71.5 -136t29.5 -159t-9.5 -174.5l-172 -1085q-5 -28 -19.5 -52.5t-36 -43t-48 -29t-53.5 -10.5
q-28 0 -51 10.5t-38.5 29t-22.5 43t-2 52.5l166 1052q34 212 -52.5 327.5t-294.5 115.5q-109 0 -181.5 -27t-116.5 -68q-21 -20 -48 -28.5t-53.5 -6t-49.5 14.5t-38 33t-18.5 46t3 51t22 49.5t38.5 41.5z" />
    <glyph glyph-name="saraithai" unicode="&#xe34;" 
d="M104 2388q26 0 48 -10t37.5 -27.5t22 -41.5t2.5 -52q-5 -28 -19 -51t-35 -40t-46 -26.5t-51 -9.5h-1277q-26 0 -48.5 9.5t-38 26.5t-22.5 40t-2 51q4 28 18.5 52t35.5 41.5t46.5 27.5t51.5 10h1277z" />
    <glyph glyph-name="saraiithai" unicode="&#xe35;" 
d="M-1214 2130q-26 0 -48.5 9.5t-38 26.5t-22.5 40t-2 51q4 28 18.5 52t35.5 41.5t46.5 27.5t51.5 10h1130l21 135q4 28 18.5 52.5t35.5 43t46 29t51 10.5t47.5 -10.5t36 -29t20.5 -43t2 -52.5l-42 -266q-5 -28 -19 -51t-34.5 -40t-46 -26.5t-51.5 -9.5h-1256z" />
    <glyph glyph-name="sarauethai" unicode="&#xe36;" 
d="M-264 2388q10 54 37 99t66 77.5t87 51t98 18.5q54 0 97 -19t72 -52.5t41.5 -79t3.5 -99.5t-36 -100t-66.5 -80.5t-88 -54t-98.5 -19.5h-1163q-26 0 -48.5 9.5t-38 26.5t-22.5 40t-2 51q4 28 18.5 52t35.5 41.5t46.5 27.5t51.5 10h909zM69 2380q3 17 -1.5 32.5t-14.5 27.5
t-24.5 19t-30.5 7q-17 0 -33.5 -7t-30.5 -19t-23.5 -27.5t-12.5 -32.5t2 -32.5t15 -27.5t24.5 -19t31.5 -7q16 0 32.5 7t30 19t23 27.5t12.5 32.5z" />
    <glyph glyph-name="saraueethai" unicode="&#xe37;" 
d="M-1214 2130q-26 0 -48.5 9.5t-38 26.5t-22.5 40t-2 51q4 28 18.5 52t35.5 41.5t46.5 27.5t51.5 10h696l21 135q4 28 18.5 52.5t35.5 43t46.5 29t51.5 10.5t47.5 -10.5t36 -29t20.5 -43t2 -52.5l-21 -135h176l21 135q4 28 18.5 52.5t35.5 43t46 29t51 10.5t47.5 -10.5
t36 -29t20.5 -43t2 -52.5l-42 -266q-5 -28 -19 -51t-34.5 -40t-46 -26.5t-51.5 -9.5h-1256z" />
    <glyph glyph-name="sarauthai" unicode="&#xe38;" 
d="M-268 -659q-4 -26 -18 -50t-34 -42t-45 -29t-51 -11t-48 11t-37 29t-22 42t-3 50l38 237h-94q-56 0 -88.5 33.5t-23.5 89.5q4 28 18 50t34 37.5t45 23.5t53 8h221q28 0 50 -10t37 -28t21 -42t2 -51z" />
    <glyph glyph-name="sarauuthai" unicode="&#xe39;" 
d="M-694 -508q-6 -40 16.5 -69t62.5 -29q46 0 76.5 29t36.5 69l34 217q4 26 18.5 50t35.5 42t46.5 28.5t51.5 10.5t47.5 -10.5t36 -28.5t20.5 -42t2 -50l-34 -217q-12 -74 -50 -139t-93.5 -113t-124 -76t-140.5 -28q-74 0 -135 25t-102 71.5t-58.5 112.5t-4.5 147l10 66h-54
q-27 0 -49.5 10t-37 27.5t-21 41.5t-2.5 52q4 27 18.5 51t35 42t46 28t52.5 10h181q27 0 49.5 -10t37.5 -28t21 -42t2 -51z" />
    <glyph glyph-name="phinthuthai" unicode="&#xe3a;" 
d="M-171 -332q-6 -37 -25.5 -69.5t-48 -57t-63.5 -39t-72 -14.5t-67.5 14.5t-51 39t-29.5 57t-3 69.5t25.5 70t48 57.5t63 38.5t71.5 14t67.5 -14t51.5 -38.5t30 -57.5t3 -70z" />
    <glyph glyph-name="PUCR2005" unicode="&#xe3e;" 
 />
    <glyph glyph-name="bahtthai" unicode="&#xe3f;" horiz-adv-x="1597" 
d="M1340 1581q19 121 -24 201t-152 114l-102 -643q63 17 110.5 48t81.5 73t55.5 94.5t30.5 112.5zM921 1917h-212l-108 -680h212zM1369 631q11 66 4 117t-28 89t-54 64.5t-75.5 43.5t-92.5 27t-103 15l-118 -745q85 6 163.5 33t141 75.5t105 118.5t57.5 162zM774 991h-212
l-118 -749h212zM296 0q-29 0 -53 10.5t-39.5 29.5t-22.5 44.5t-2 54.5l298 1884q4 29 19 54.5t36.5 44.5t49 30t56.5 11h322l33 209q4 26 17 48t32.5 38.5t43.5 26t50 9.5q53 0 82 -35t21 -87l-34 -218q116 -17 197.5 -67.5t129.5 -127.5t62.5 -177t-4.5 -217
q-10 -62 -27.5 -116t-44.5 -103t-65 -93t-89 -86q75 -38 130.5 -92t89 -121.5t44 -147.5t-3.5 -171q-23 -146 -91.5 -261.5t-170 -197t-229 -127t-269.5 -49.5l-37 -229q-4 -26 -17 -48.5t-32 -39t-43 -26t-50 -9.5t-47 9.5t-35 26t-20 39t-2 48.5l37 229h-322z" />
    <glyph glyph-name="saraethai" unicode="&#xe40;" horiz-adv-x="725" 
d="M498 1724q4 29 18.5 54.5t35.5 44.5t47.5 30t55.5 11t53 -11t40 -30t22.5 -44.5t2.5 -54.5l-255 -1605q-5 -29 -19.5 -54.5t-36.5 -44.5t-49.5 -29.5t-56.5 -10.5t-52 10.5t-38 29.5t-21.5 44.5t-1.5 54.5z" />
    <glyph glyph-name="saraaethai" unicode="&#xe41;" horiz-adv-x="1327" 
d="M498 1724q4 29 18.5 54.5t35.5 44.5t47.5 30t55.5 11t53 -11t40 -30t22.5 -44.5t2.5 -54.5l-255 -1605q-5 -29 -19.5 -54.5t-36.5 -44.5t-49.5 -29.5t-56.5 -10.5t-52 10.5t-38 29.5t-21.5 44.5t-1.5 54.5zM1100 1724q4 29 18.5 54.5t35.5 44.5t48 30t56 11t52.5 -11
t39.5 -30t22.5 -44.5t2.5 -54.5l-255 -1605q-5 -29 -19.5 -54.5t-36.5 -44.5t-49 -29.5t-56 -10.5t-52.5 10.5t-38.5 29.5t-21.5 44.5t-1.5 54.5z" />
    <glyph glyph-name="saraothai" unicode="&#xe42;" horiz-adv-x="754" 
d="M539 1937q6 36 -4.5 63t-29 48.5t-42.5 39t-45 34.5q-27 18 -51 43t-41 57t-24.5 71t0.5 87q10 60 33.5 104.5t56 76t72.5 51t81.5 31t83.5 15.5t79 4h426q27 0 49.5 -10t37.5 -27.5t21 -41.5t2 -52q-4 -27 -18 -50.5t-34.5 -40.5t-46 -26.5t-52.5 -9.5h-451
q-22 0 -42 -5.5t-24 -26.5q-4 -23 37 -50q51 -35 93 -72t70 -82.5t39 -102.5t-1 -132l-288 -1814q-5 -29 -19.5 -54.5t-36.5 -44.5t-49 -29.5t-56 -10.5t-52.5 10.5t-38.5 29.5t-21.5 44.5t-1.5 54.5z" />
    <glyph glyph-name="saraaimaimuanthai" unicode="&#xe43;" horiz-adv-x="754" 
d="M213 2273q9 39 31 85t56.5 91.5t80 87.5t100.5 74.5t119 52t135 19.5q98 0 178.5 -36t134.5 -98.5t77 -147t8 -181.5q-16 -99 -67.5 -184.5t-123.5 -147.5l-152 -131l-260 -1638q-5 -29 -19.5 -54.5t-36.5 -44.5t-49 -29.5t-56 -10.5t-52 10.5t-38 29.5t-21.5 44.5
t-1.5 54.5l277 1749l49 39.5l64.5 51.5t70 60t65.5 66t51 68t26 67q6 38 -3 73t-30.5 61.5t-54 42.5t-74.5 16q-41 0 -75.5 -15t-61.5 -39t-46.5 -55t-32.5 -63q-25 -59 -71 -92t-103 -27q-57 9 -82.5 49t-11.5 102z" />
    <glyph glyph-name="saraaimaimalaithai" unicode="&#xe44;" horiz-adv-x="754" 
d="M888 2662q39 0 80.5 -4t80 -15.5t72 -31t56 -51t31.5 -76t-1 -104.5q-8 -48 -27 -87t-46 -71t-58.5 -57t-63.5 -43l-57.5 -34.5t-55.5 -39t-44.5 -48.5t-24.5 -63l-288 -1818q-5 -29 -19.5 -54.5t-36.5 -44.5t-49 -29.5t-56 -10.5t-52 10.5t-38 29.5t-21.5 44.5
t-1.5 54.5l288 1814q12 75 39 132t68.5 102.5t95.5 82.5t120 72q49 26 53 50q2 10 -2.5 16.5t-13 10t-19.5 4.5t-21 1h-459q-56 0 -85.5 36t-21.5 91q4 28 17.5 52t33 41.5t44.5 27.5t53 10h430z" />
    <glyph glyph-name="lakkhangyaothai" unicode="&#xe45;" horiz-adv-x="1413" 
d="M339 1704q50 37 104 67t115 51.5t131 33.5t151 12q118 0 210.5 -24.5t161.5 -68.5t115.5 -105.5t71.5 -136t29.5 -159t-9.5 -174.5l-283 -1786q-5 -27 -19.5 -51.5t-36 -43t-48 -29.5t-53.5 -11q-28 0 -51 11t-38.5 29.5t-22.5 43t-2 51.5l277 1753q34 212 -52.5 327.5
t-294.5 115.5q-54 0 -97.5 -7t-80 -19.5t-67.5 -31t-61 -41.5q-24 -17 -50 -24.5t-50 -5t-45 14t-36 32.5t-18.5 45.5t2 49t18 46t29.5 35.5z" />
    <glyph glyph-name="maiyamokthai" unicode="&#xe46;" horiz-adv-x="1937" 
d="M455 627q-28 36 -55.5 90.5t-47 121.5t-26.5 142.5t5 153.5q19 123 73.5 235t139.5 206.5t197.5 169t249.5 122.5l194 -230l269 230q120 -48 209 -121.5t143.5 -168t73.5 -205.5t0 -234l-273 -1725q-5 -27 -19.5 -51.5t-36 -43t-48 -29.5t-53.5 -11q-28 0 -50.5 11
t-38 29.5t-22.5 43t-2 51.5l273 1725q20 127 -23 232.5t-134 176.5l-327 -282l-238 282q-56 -35 -104 -80.5t-85.5 -98.5t-62.5 -112t-35 -122q-8 -51 -2 -102.5t19.5 -96t30.5 -78.5t31 -51q17 -20 22 -45t0 -50.5t-20.5 -50t-39.5 -43.5q-23 -18 -48.5 -27t-51 -8
t-48.5 12t-39 32z" />
    <glyph glyph-name="maitaikhuthai" unicode="&#xe47;" 
d="M-420 2466q3 -30 14.5 -51.5t27.5 -34.5t35.5 -19t39.5 -6q59 0 93.5 32t51.5 79q9 26 26 46.5t39 34t47.5 18.5t50.5 -1q25 -5 43 -18.5t27.5 -33.5t9.5 -44.5t-10 -50.5q-22 -60 -59.5 -115.5t-90 -98.5t-118.5 -68.5t-144 -25.5q-77 0 -138.5 28t-103.5 75
q-57 -47 -126 -75t-144 -28q-86 0 -151.5 30t-107 83.5t-57.5 127t-2 161.5q14 87 53 161.5t97.5 128.5t133.5 84.5t161 30.5h917q26 0 47 -9.5t35 -26t20 -39t2 -48.5t-17 -48t-32 -38.5t-43 -26t-50 -9.5h-917q-32 0 -59.5 -13t-48 -35t-34.5 -51t-19 -61q-5 -31 -0.5 -59
t18 -49.5t35.5 -34.5t53 -13q45 0 86 24.5t67 84.5q17 42 55 68t82 26t72 -25.5t33 -66.5z" />
    <glyph glyph-name="maiekthai" unicode="&#xe48;" 
d="M84 3174q4 26 18 49t34 40.5t44.5 27.5t50.5 10t47.5 -10t36 -27.5t21 -40.5t2.5 -49l-46 -290q-4 -26 -17.5 -49.5t-33.5 -40.5t-45 -27t-51 -10t-47.5 10t-36 27t-21 40.5t-2.5 49.5z" />
    <glyph glyph-name="maithothai" unicode="&#xe49;" 
d="M-326 3133q-22 -11 -45 -15.5t-44 -1.5t-38.5 13.5t-28.5 28.5t-12 40.5t6.5 44t23 41.5t36.5 34q41 25 85 37t91 12q66 0 118.5 -22.5t87 -61.5t49.5 -92.5t5 -114.5q-3 -16 -9.5 -30.5t-13.5 -24.5q5 0 24 1t35 1h328q26 0 47.5 -10t35.5 -27.5t20.5 -40.5t2.5 -49
t-17.5 -48.5t-33 -39t-44 -26t-50.5 -9.5h-806l36.5 43.5l48 56.5l52 61.5t48 59.5t35.5 50t16 33q5 30 -7 48.5t-40 18.5q-10 0 -21.5 -3t-20.5 -8z" />
    <glyph glyph-name="maitrithai" unicode="&#xe4a;" 
d="M-562 2814q-38 49 -50.5 98t-4.5 99q10 60 41 112.5t77 92t102.5 62.5t116.5 23q23 0 47 -6t45 -16.5t38 -23.5t27 -27q15 14 35.5 27t44 23.5t49 16.5t49.5 6q60 0 109 -22.5t82 -60.5t48 -89.5t8 -109.5h168q26 0 47 -9.5t34.5 -26t19.5 -39t2 -48.5t-17 -48t-32 -38
t-43 -24.5t-50 -8.5h-519l142 205q8 9 10 19.5t3 13.5q3 21 -9.5 39t-34.5 18q-8 0 -19 -2.5t-22.5 -12t-22 -28.5t-15.5 -51h-213q9 55 -5 74.5t-42 19.5q-25 0 -44 -20t-23 -41q-1 -7 -2 -19.5t10 -30.5t14.5 -38.5t-0.5 -41.5t-15.5 -40.5t-30.5 -34.5q-20 -15 -41.5 -22
t-42.5 -6t-39.5 10t-31.5 26z" />
    <glyph glyph-name="maichattawathai" unicode="&#xe4b;" 
d="M81 3178l10 66q4 28 19 52t36 41.5t46 27.5t51 10t47.5 -10t36 -27.5t20.5 -41.5t2 -52l-10 -66h82q23 0 42 -8.5t31.5 -23.5t18 -35t1.5 -43q-3 -23 -15 -43.5t-29 -35.5t-39 -23.5t-45 -8.5h-82l-11 -69q-5 -28 -18.5 -52t-33.5 -41.5t-45 -27.5t-51 -10t-48 10
t-37.5 27.5t-22.5 41.5t-2 52l11 69h-81q-23 0 -41.5 8.5t-31 23.5t-18 35.5t-2.5 43.5q4 23 16 43t29 35t38.5 23.5t44.5 8.5h81z" />
    <glyph glyph-name="thanthakhatthai" unicode="&#xe4c;" 
d="M65 2793q9 -23 9 -47t-8.5 -45.5t-25 -40t-41.5 -30.5q-53 -25 -92.5 -10t-63.5 59q-5 7 -11 21t-10.5 33t-6.5 43.5t3 53.5q9 60 39 112.5t74 91t99 61t115 22.5h184q53 0 82.5 -35t21.5 -88q-4 -26 -17 -48.5t-32.5 -39t-43.5 -26t-50 -9.5h-184q-15 0 -30 -9.5
t-18 -31.5q-2 -6 -1 -13t3 -12q2 -6 5 -12z" />
    <glyph glyph-name="nikhahitthai" unicode="&#xe4d;" 
d="M364 2355q-9 -60 -40.5 -113t-78 -92.5t-104 -62.5t-118.5 -23t-111 23t-83.5 62.5t-48 92.5t-5.5 113q10 61 41.5 115t77.5 94t103.5 63t118.5 23t111.5 -23t84 -63t48 -94t4.5 -115zM163 2355q7 40 -16 67t-63 27q-20 0 -38.5 -7t-34 -20t-26 -30t-13.5 -37t2 -37.5
t16 -31t27.5 -21.5t36.5 -8t38.5 8t33 21.5t24.5 31t13 37.5z" />
    <glyph glyph-name="yamakkanthai" unicode="&#xe4e;" 
d="M324 2953q26 -28 20.5 -68t-38.5 -71q-32 -28 -67.5 -31.5t-62.5 26.5q-13 14 -39.5 28t-54.5 14q-29 0 -55.5 -10.5t-48 -28.5t-36.5 -42.5t-19 -53.5q-5 -29 1.5 -57t25.5 -50t51.5 -35.5t79.5 -13.5l-24 -152q-47 0 -83.5 -13.5t-62.5 -35t-41.5 -49.5t-20.5 -57
t1.5 -51.5t21.5 -38.5t36.5 -26.5t47.5 -14.5q19 -3 32.5 -14t21.5 -26.5t9 -35t-5 -39.5q-5 -18 -17.5 -34t-29 -26.5t-36 -15.5t-39.5 -2q-53 11 -101 37.5t-82.5 68t-51 96t-5.5 122.5q11 71 45 127t91 102q-84 99 -62 234q10 67 45 127t87 104t117 70t137 26
q65 -3 118.5 -26.5t93.5 -63.5z" />
    <glyph glyph-name="fongmanthai" unicode="&#xe4f;" horiz-adv-x="2171" 
d="M2124 868q-20 -123 -70.5 -237.5t-125.5 -214.5t-171 -182.5t-205.5 -142t-229.5 -92t-243 -32.5t-232 32.5t-200 92t-160.5 142t-113 182.5t-58 214.5t5.5 237.5q19 123 70 237.5t126 214.5t171 183t205.5 142t229 91.5t242.5 32.5t232.5 -32.5t200.5 -91.5t160.5 -142
t113 -183t57.5 -214.5t-5 -237.5zM1706 868q-16 -98 -68.5 -186t-129 -154t-170.5 -104.5t-193 -38.5q-98 0 -180 38.5t-137.5 104.5t-80 154t-8.5 186q15 98 68 186t129.5 154t170.5 105t192 39q99 0 180.5 -39t137 -105t80 -154t9.5 -186zM1480 868q9 54 -4 101t-42 82
t-73 55t-98 20t-104 -20t-90.5 -55t-68 -82t-36.5 -101t4 -101t42.5 -82t73 -55t97.5 -20t104 20t90.5 55t68 82t36.5 101zM1889 864q22 138 -11 260.5t-109 214t-189.5 144.5t-251.5 53q-92 0 -181 -24t-170 -67.5t-151.5 -104.5t-126 -135t-93 -159.5t-51.5 -177.5
q-22 -138 11.5 -259.5t109.5 -212t189 -143t251 -52.5q93 0 182.5 24t171 67t151.5 104t125 134.5t92 158t51 175.5z" />
    <glyph glyph-name="zerothai" unicode="&#xe50;" horiz-adv-x="1810" 
d="M1854 770q-18 -112 -63.5 -215t-113 -192.5t-154.5 -163t-187 -126t-209.5 -81.5t-223.5 -29t-214.5 29t-183.5 81.5t-146.5 126t-103 163t-52.5 193t4 214.5q18 112 63.5 215t113.5 193t155 163.5t186.5 126t209 81t223.5 28.5t214.5 -28.5t184 -81t147 -126t103 -163.5
t52.5 -193t-5 -215zM1579 770q18 111 -9 209t-89.5 172t-156 117t-208.5 43t-222 -43t-193 -117t-144 -172t-76 -209q-17 -111 10 -209t89.5 -172t156 -117t208.5 -43t222.5 43t193 117t143.5 172t75 209z" />
    <glyph glyph-name="onethai" unicode="&#xe51;" horiz-adv-x="1810" 
d="M364 156q-19 17 -27.5 40t-7.5 47.5t12 50t31 46.5q21 22 47.5 35.5t53 17t51 -3t41.5 -24.5q61 -62 153 -99t207 -37t222 43t193 117t144 172t75 209q18 111 -9 209t-89.5 172t-156 117t-208.5 43q-86 0 -167 -23t-151.5 -63t-128 -94t-96.5 -115q-18 -29 -23 -50
t0 -34.5t17.5 -20t29.5 -6.5h160q28 0 50.5 -10.5t38 -29t22 -43t2.5 -52.5t-18.5 -52t-35.5 -41.5t-47 -27.5t-54 -10h-168q-82 0 -137 24t-87 64.5t-42.5 92.5t-4.5 108t27.5 112t53.5 103q62 94 149 173.5t191 137.5t221 90.5t240 32.5q113 0 214 -28.5t184 -81
t146.5 -126t103 -163.5t52.5 -193t-5 -215t-63.5 -215t-113 -192.5t-154.5 -163t-186.5 -126t-209.5 -81.5t-223 -29q-72 0 -140.5 10t-133.5 33t-126 59.5t-119 90.5z" />
    <glyph glyph-name="twothai" unicode="&#xe52;" horiz-adv-x="2089" 
d="M1534 1165q-5 -28 -19 -52.5t-35 -43t-47.5 -29t-54.5 -10.5t-51 10.5t-38.5 29t-22.5 43t-2 52.5l4 23q4 28 -1.5 52t-20.5 41.5t-40 27.5t-60 10t-65.5 -12.5t-54.5 -34t-39.5 -50.5t-20.5 -63q-4 -25 4 -56.5t43 -62.5q16 -15 22 -39t2 -50.5t-18 -52.5t-37 -46
t-48 -31t-49.5 -11.5t-47 8.5t-39.5 30q-68 79 -88.5 155t-7.5 156q12 78 52 155t103 138t147 99t185 38q84 0 152.5 -32t116.5 -81q63 49 142 81t162 32q75 0 130.5 -21.5t94 -58t62.5 -86.5t36.5 -107.5t15.5 -119.5t0 -123.5t-10 -119t-15 -105.5q-32 -200 -122 -360.5
t-225 -273.5t-308.5 -173.5t-371.5 -60.5q-136 0 -250 30t-204 85.5t-155 133t-103.5 173t-48.5 206.5t9 232l149 942q4 29 18.5 54.5t35.5 44t47.5 29.5t55.5 11t52.5 -11t39.5 -29.5t22.5 -44t2.5 -54.5l-149 -942q-20 -128 3 -236.5t89 -188t173 -124.5t255 -45
q141 0 261.5 41t212.5 118.5t152.5 189.5t83.5 253l13.5 88.5t10.5 102t-0.5 102.5t-19.5 89t-46.5 63t-81.5 24q-26 0 -49.5 -10t-42 -27t-31 -40.5t-16.5 -51.5z" />
    <glyph glyph-name="threethai" unicode="&#xe53;" horiz-adv-x="2085" 
d="M910 237q53 21 89.5 0.5t50.5 -69.5q11 -35 4 -63.5t-26.5 -51.5t-48.5 -40t-61 -28t-65 -16.5t-60 -5.5q-114 3 -205.5 36.5t-160.5 89.5t-116 131.5t-72.5 163t-30.5 183t10 191.5q13 85 41.5 170.5t73.5 166.5t106.5 157t141 141t177.5 118.5t216 90.5l290 -340
l389 331q128 -52 224.5 -133t156.5 -184t82 -224t1 -253q-19 -120 -65.5 -232t-119.5 -211t-170.5 -183t-218.5 -148q-20 -13 -42 -22.5l-42 -18.5q-27 -14 -53.5 -16t-50 6t-41 25t-26.5 42q-10 24 -8 50.5t14 51.5t32.5 45.5t47.5 32.5q104 48 185.5 110t140.5 136
t95.5 157.5t50.5 174.5q12 75 4 145.5t-33.5 132.5t-67.5 113t-97 88l-446 -385l-338 401q-82 -43 -147.5 -102.5t-114 -130t-79 -149t-43.5 -158.5q-15 -106 0 -201t59.5 -167t116.5 -116.5t170 -48.5q9 0 33 3t47 13z" />
    <glyph glyph-name="fourthai" unicode="&#xe54;" horiz-adv-x="1884" 
d="M1776 201q17 -20 23 -45.5t2 -51.5t-17 -51t-34 -45q-23 -20 -49 -30t-51.5 -10t-48.5 10t-39 30l-108 119q-124 -74 -261 -115t-276 -41q-114 0 -214.5 29t-184 81t-147 125.5t-103 163t-53 192t4.5 212.5q18 112 63.5 215t113.5 193t155 163.5t187 126t209.5 81
t223.5 28.5h630q10 0 18 8l203 221q19 23 44 37.5t51.5 19.5t52.5 0t46 -20q21 -15 31 -38.5t10 -50t-9.5 -53.5t-28.5 -50l-222 -238q-42 -46 -98 -74t-127 -28h-643q-116 0 -223.5 -43t-194 -117t-145 -172t-76.5 -209t10 -208.5t91 -170t157 -115t210 -42.5q83 0 165 21
t160 65l-190 221q-41 49 -68.5 100.5t-30.5 104t22 106t89 107.5l66 53q23 18 49 27.5t51.5 10t48.5 -9t39 -28.5t22 -44t2 -51t-17.5 -50.5t-36.5 -43.5l-56 -45z" />
    <glyph glyph-name="fivethai" unicode="&#xe55;" horiz-adv-x="1884" 
d="M1999 1421q-42 -46 -98 -72t-127 -26h-647q-77 0 -150.5 -19.5t-140.5 -55t-124.5 -85.5t-102.5 -110t-75 -128.5t-42 -142.5q-17 -111 10.5 -209t90.5 -171.5t157 -116.5t210 -43q83 0 165 22.5t159 63.5l-190 221q-41 49 -68 100.5t-30.5 104t22 106t89.5 107.5l67 57
q22 18 48.5 28t52.5 10.5t49 -9t38 -29.5q17 -18 23 -43t2 -51t-18 -51t-37 -43l-57 -50l501 -589q16 -20 22 -45.5t2.5 -51.5t-16.5 -51t-35 -45q-23 -20 -49 -30t-51 -10t-48 10t-40 30l-106 131q-255 -160 -537 -160q-114 0 -214.5 29t-184 81.5t-147 126t-103 163
t-53 193t4.5 214.5q22 140 85 265t158.5 226.5t219.5 175.5t270 112q-4 18 -5.5 37t2.5 40q12 72 50 133t93 105.5t122 69t136 24.5q68 0 126 -24t98.5 -68t59.5 -105t7 -135q-2 -15 -4.5 -27t-7.5 -22h171q12 0 19 8l204 222q20 22 45 36t51 19.5t51.5 0.5t45.5 -20
q21 -15 31.5 -38.5t11 -50.5t-9.5 -54t-30 -49zM1435 1638q4 29 -2 54t-21.5 43t-39 28.5t-52.5 10.5t-56 -10.5t-48.5 -28.5t-36.5 -43t-19 -54q-5 -29 2.5 -53t23.5 -41.5t39.5 -27t52.5 -9.5t55.5 9.5t47.5 27t35 41.5t19 53z" />
    <glyph glyph-name="sixthai" unicode="&#xe56;" horiz-adv-x="1782" 
d="M623 676l-57.5 -47t-48 -49.5t-26 -52.5t8.5 -56q26 -49 67.5 -90.5t94 -71.5t114.5 -46.5t130 -16.5q76 0 149.5 19.5t140.5 55t125.5 85.5t104.5 110.5t77 130t43 144.5q12 78 1.5 150.5t-40 135.5t-76.5 114.5t-107 86.5l-408 -356l-491 577q-16 19 -22 43.5t-2 50.5
t17.5 50.5t36.5 44.5q22 19 49 29t53 10t49 -9.5t38 -29.5l331 -390l333 287q138 -41 242.5 -119t171 -182.5t91.5 -230.5t4 -262q-18 -111 -63.5 -214.5t-113 -194t-154 -165.5t-187 -129t-210.5 -83.5t-225 -29.5q-107 0 -199.5 26.5t-169 72.5t-135 107t-98.5 130
q-52 91 -52 166t34 141t94.5 125t129.5 117q21 18 46.5 27.5t51 9.5t48 -9.5t38.5 -27.5q15 -18 20.5 -42.5t2 -50t-16.5 -49.5t-35 -42z" />
    <glyph glyph-name="seventhai" unicode="&#xe57;" horiz-adv-x="2109" 
d="M2006 1806q4 28 18.5 52.5t36 43t48 29.5t53.5 11q28 0 51 -11t38.5 -29.5t22.5 -43t3 -52.5l-159 -999q-20 -126 -71 -246t-133 -226t-195.5 -194t-258.5 -149q-27 -14 -53.5 -16t-50 6t-41 25.5t-26.5 41.5q-10 25 -7.5 51.5t14.5 51t32.5 45t46.5 32.5
q104 48 185.5 110t140.5 136t95.5 157.5t50.5 174.5q12 72 5 141.5t-31.5 132t-66.5 116t-100 93.5l-447 -389l-337 402q-82 -42 -147.5 -101t-114 -129.5t-79 -148.5t-43.5 -158q-17 -106 -2.5 -201.5t58.5 -168t117 -116.5t172 -47q6 0 25.5 3.5t42.5 12.5q27 11 51.5 11
t44.5 -9.5t35 -27.5t22 -43q11 -36 3.5 -65.5t-28.5 -52t-51 -39t-63 -27.5t-65 -16t-57 -5q-115 0 -206.5 32t-160.5 88.5t-116 132.5t-73 163.5t-30.5 183.5t10.5 191q20 127 75.5 255t149 241t227 204.5t309.5 147.5l290 -344l389 336q81 -31 156.5 -85.5t127.5 -131.5z
" />
    <glyph glyph-name="eightthai" unicode="&#xe58;" horiz-adv-x="2122" 
d="M1644 1130q52 0 110 -18.5t113.5 -53.5t104.5 -86t82.5 -115t47.5 -140.5t0 -163.5q-19 -120 -83 -226t-160 -185t-218 -125t-257 -46l-274 316l-397 -336q-135 48 -238.5 127t-169 182.5t-90 228.5t-2.5 265q18 114 65 220.5t117.5 198.5t160 168t193 130.5t217 84
t231.5 29.5h762q5 0 9 3.5t8 8.5l203 218q21 24 46 39t51.5 20.5t51.5 0.5t46 -20q20 -17 31 -41t12 -50.5t-9 -53.5t-32 -51l-218 -238q-42 -46 -100 -74t-130 -28h-774q-80 0 -156.5 -20t-146.5 -56.5t-131 -88t-108 -114t-79.5 -135t-44.5 -151.5q-13 -80 -3.5 -153.5
t38 -137.5t75 -116t106.5 -89l464 393l353 -409q57 10 109 39t94 70t70.5 93t37.5 109q9 59 -7.5 112t-52.5 94.5t-88 69.5t-113 39q-27 5 -47.5 19.5t-32.5 34.5t-15.5 44.5t3.5 49.5q9 28 26.5 49t40 35.5t48 22t50.5 7.5z" />
    <glyph glyph-name="ninethai" unicode="&#xe59;" horiz-adv-x="2154" 
d="M1227 1262q-14 29 -54.5 43t-89.5 14q-98 0 -194.5 -43t-177 -117t-137.5 -172t-74 -209q-18 -112 9 -210t89.5 -170.5t156 -114t209.5 -41.5q29 0 60.5 4t60 9.5t51.5 12t34 11.5q28 10 54.5 9.5t49 -10.5t38.5 -28.5t23 -44.5q5 -25 -0.5 -52t-20 -51.5t-36.5 -44.5
t-49 -30q-14 -6 -47 -15.5t-76.5 -18.5t-92 -15.5t-92.5 -6.5q-114 0 -214.5 29t-184 81.5t-147 126t-103 163t-52.5 193t5 214.5q17 111 62.5 213.5t111.5 192.5t149 163.5t177.5 126.5t196.5 82t204 29q55 0 108.5 -11.5t99.5 -35t82.5 -58.5t57.5 -83q52 47 94.5 78.5
t81 51t76 29t78.5 13.5t89 4h107q43 0 99 58t137 175q14 22 35.5 36.5t46 20.5t49 3t44.5 -15q19 -12 30.5 -31.5t13.5 -42.5t-4.5 -47.5t-21.5 -46.5q-70 -92 -125 -158t-105 -109.5t-99.5 -67t-109.5 -30.5q-55 -6 -93.5 -6t-68 -0.5t-54 -4t-51.5 -18t-60.5 -42.5
t-80.5 -76l488 -1003q12 -23 12 -48.5t-9.5 -49.5t-28 -45.5t-43.5 -36.5q-26 -15 -51 -19.5t-47.5 1.5t-41 21t-30.5 38z" />
    <glyph glyph-name="angkhankhuthai" unicode="&#xe5a;" horiz-adv-x="2281" 
d="M2116 1724q4 29 18.5 54.5t35.5 44.5t47.5 30t55.5 11t53 -11t40 -30t22.5 -44.5t2.5 -54.5l-255 -1605q-5 -29 -19.5 -54.5t-36.5 -44.5t-49.5 -29.5t-56.5 -10.5t-52 10.5t-38 29.5t-21.5 44.5t-1.5 54.5zM1436 1237q-200 -135 -435 -135q-103 0 -188 28.5t-152 76
t-115.5 109.5t-79 129t-43 135t-6.5 128q2 26 13.5 52t30 47.5t43 36.5t53.5 20q27 4 51 -3t42 -22.5t29 -38.5t12 -51q-1 -80 25 -150t72.5 -122.5t111.5 -82.5t143 -30q86 0 159.5 29.5t132 79t101 114t65.5 133.5q9 29 25 55.5t37.5 46t48 31t55.5 11.5t53.5 -11.5
t41 -31t23.5 -46t3 -55.5l-254 -1605q-5 -29 -20 -54t-36.5 -43t-49 -28t-56.5 -10t-52.5 10t-38.5 28t-21 43t-1 54z" />
    <glyph glyph-name="khomutthai" unicode="&#xe5b;" horiz-adv-x="4121" 
d="M3974 1069q26 0 47.5 -10t36 -27.5t21 -40.5t2.5 -49t-17.5 -49.5t-33.5 -40.5t-45 -27t-51 -10h-643l-125.5 -164l-85.5 -110.5l-52 -66t-25 -28.5q-6 21 -21.5 62l-36 91.5l-44 105l-45 103.5l-38.5 87t-26 55q-12 -22 -41.5 -64.5l-69 -98l-87 -118l-94 -123
l-90 -114.5l-76.5 -92q-9 31 -28 81t-43.5 109l-51.5 121.5l-52.5 118.5l-47 101t-34.5 67q-29 -99 -82 -195.5t-125.5 -183t-161.5 -159.5t-190 -126.5t-211 -83.5t-225 -30q-209 0 -362 56t-247.5 158.5t-129 246.5t-6.5 321q19 119 61 218.5t100.5 179.5t130.5 140.5
t150.5 101t160 61t159.5 20.5q114 0 202.5 -39.5t146.5 -106t81.5 -155t8.5 -186.5q-4 -23 -15.5 -45t-29 -39t-40.5 -28.5t-50 -14.5q-22 -2 -42 6t-35 23.5t-23 37t-5 47.5q3 48 -12 93t-46.5 80t-79 56t-110.5 21q-66 0 -137.5 -28t-134.5 -86t-111 -147t-67 -210
q-23 -143 9 -244.5t104 -166.5t176.5 -95t227.5 -30q110 0 216 41.5t198 111.5t165 162.5t118 194.5t58 207t-16 200l200 123q28 -30 64 -79.5t74.5 -110l77.5 -126t72 -127t57.5 -114t35.5 -86.5q9 10 28 39.5l43 69l50.5 84.5l50.5 86l42 74t25 48l193 103q9 -11 28 -42
l42.5 -72l49 -87l47.5 -88.5t37.5 -76t20.5 -48.5l114 176h766z" />
    <glyph glyph-name="saraulowthai" unicode="&#xf718;" 
d="M-369 -1298q-4 -26 -18 -50t-34 -42t-45 -29t-51 -11t-48 11t-37 29t-22 42t-3 50l37 237h-94q-56 0 -88 33.5t-23 89.5q4 28 18 50t34 37.5t45 23.5t53 8h225q26 0 47.5 -11t36 -29t20.5 -42t2 -50z" />
    <glyph glyph-name="sarauulowthai" unicode="&#xf719;" 
d="M-795 -1147q-7 -40 15.5 -69t62.5 -29q46 0 76.5 29t37.5 69l34 217q4 26 18.5 50t35.5 42t46.5 28.5t51.5 10.5t47.5 -10.5t36 -28.5t20.5 -42t2 -50l-34 -217q-12 -74 -50 -138.5t-94 -113t-124.5 -76.5t-140.5 -28q-74 0 -135 25t-101.5 71.5t-58 112.5t-4.5 147
l10 66h-54q-27 0 -49.5 10t-37.5 27.5t-21.5 41.5t-1.5 52q4 27 18.5 51t35 42t46 28t52.5 10h185q26 0 47.5 -11t36 -29t20.5 -42t2 -50z" />
    <glyph glyph-name="phinthulowthai" unicode="&#xf71a;" 
d="M-274 -979q-6 -37 -25 -69t-47.5 -56t-63 -37.5t-71.5 -13.5t-67.5 13.5t-51.5 37.5t-30.5 56t-3.5 69q6 38 26 71t48.5 57t63 38t71.5 14t67.5 -14t51 -38t29.5 -57t3 -71z" />
    <glyph glyph-name="rulakkhangyao" unicode="&#xf881;" horiz-adv-x="2740" 
d="M1167 1868q155 0 293.5 -44t240.5 -136q52 44 108 77.5t119 56.5t135 34.5t157 11.5q118 0 210.5 -24.5t161.5 -68.5t115.5 -105.5t71.5 -136t29.5 -159t-9.5 -174.5l-283 -1786q-5 -27 -19.5 -51.5t-36 -43t-47.5 -29.5t-54 -11t-50.5 11t-38 29.5t-22.5 43t-2 51.5
l277 1753q34 212 -52.5 327.5t-295.5 115.5q-54 0 -99 -6.5t-85 -20.5t-76.5 -35t-71.5 -49q49 -102 64.5 -212.5t-2.5 -225.5l-261 -1647q-5 -29 -20 -54t-36.5 -43t-49 -28t-56.5 -10t-52 10t-38 28t-21.5 43t-1.5 54l261 1647q19 120 -9 219.5t-95 171t-169.5 111
t-231.5 39.5q-68 0 -136.5 -17.5t-133.5 -48.5t-125.5 -73t-111.5 -91l101 -135l-153 -971h164q28 0 50.5 -10.5t38 -29t22 -43t2.5 -52.5t-18.5 -52t-35.5 -41.5t-47 -27.5t-54 -10h-299q-27 0 -50 10t-39 27.5t-23 41.5t-3 52l162 1020l-85 111q-23 30 -25 63.5t7 65
t25.5 57.5t30.5 42q81 87 173 157t191.5 119t204 75.5t209.5 26.5z" />
    <glyph glyph-name="lulakkhangyao" unicode="&#xf882;" horiz-adv-x="2736" 
d="M435 1148l-83 113q-23 31 -25 64.5t7 64.5t25.5 57t30.5 42q81 87 173 157.5t191 119.5t203.5 75.5t209.5 26.5q155 0 291 -44t239 -136q52 41 108 74.5t119 57t135 36t157 12.5q118 0 210.5 -24.5t161.5 -68.5t115.5 -105.5t71.5 -136t29.5 -159t-9.5 -174.5l-283 -1786
q-5 -27 -19.5 -51.5t-36 -43t-47.5 -29.5t-54 -11t-50.5 11t-38 29.5t-22.5 43t-2 51.5l277 1753q34 212 -53 327.5t-295 115.5q-54 0 -97.5 -7t-81.5 -21t-73 -34.5t-72 -48.5q49 -102 62.5 -212.5t-4.5 -225.5l-261 -1647q-5 -29 -20 -54t-36.5 -43t-49 -28t-56.5 -10
t-52 10t-38 28t-21.5 43t-1.5 54l261 1647q19 121 -9 220.5t-95 171t-169.5 110.5t-231.5 39q-68 0 -136.5 -17t-133.5 -47t-125.5 -71.5t-111.5 -90.5l106 -135l-176 -1110q-4 -28 -18.5 -52t-35.5 -41.5t-47.5 -27.5t-53.5 -10h-200q-28 0 -51 10t-39 27.5t-23 41.5t-3 52
t19 52.5t36.5 43t48 29t54.5 10.5h61z" />
    <glyph glyph-name="lochula.short" unicode="&#xf71d;" horiz-adv-x="2159" 
d="M1827 1843q60 0 96 4t56.5 14t30.5 25.5t18 38.5q9 28 24.5 52.5t36 43t45 29t52.5 10.5q27 0 50 -10.5t38.5 -29t22 -43t2.5 -52.5q-5 -32 -16.5 -67t-29.5 -67.5t-43 -60.5t-58 -47q27 -25 42.5 -58.5t22 -74t4.5 -85.5t-9 -93l-140 -880q-17 -106 -72.5 -198.5
t-138 -161.5t-185 -108.5t-213.5 -39.5q-114 0 -207 45t-155 123q-84 -78 -189.5 -123t-226.5 -45q-108 0 -197 39.5t-149.5 108.5t-87.5 161.5t-10 198.5l196 1237q4 27 19 51.5t36.5 43t47.5 29.5t54 11t50.5 -11t38 -29.5t22 -43t2.5 -51.5l-192 -1237q-8 -50 4.5 -94
t40.5 -77t70.5 -52t96.5 -19t103.5 19.5t89 52.5t66 78t34.5 96l107 675q4 28 19 52.5t36.5 43t48 29.5t53.5 11q28 0 50.5 -11t38 -29.5t22 -43t2.5 -52.5l-103 -679q-8 -51 4 -95t40 -77t70.5 -51.5t96.5 -18.5t103.5 19t89 52t65.5 77t34 94l139 876q10 63 2.5 106.5
t-29.5 71t-56 39.5t-77 12h-127q-53 0 -82 35.5t-21 87.5q4 26 17 48.5t32 39t43 26t50 9.5h139z" />
    <glyph glyph-name="uni25CC" unicode="&#x25cc;" horiz-adv-x="2744" 
d="M1177 733l-207 -61l100 192q22 -40 48 -71.5t59 -59.5zM1545 1692l124 184l61 -180q-20 3 -41.5 3.5t-43.5 0.5q-25 0 -49.5 -2.5t-50.5 -5.5zM1555 639l-110 -172l-58 172q21 -3 44 -5.5t44 -2.5q22 0 41.5 2.5t38.5 5.5zM2104 1257l157 -90l-184 -77q6 18 11.5 37
t8.5 40q4 22 5 45.5t2 44.5zM1023 1081l-169 95l198 90q-7 -25 -13 -49.5t-11 -49.5q-3 -21 -4 -42.5t-1 -43.5zM1181 1487l-23 188l173 -65q-44 -25 -80 -55.5t-70 -67.5zM1935 840l22 -168l-160 53q39 25 73 53t65 62zM1933 1610l212 65l-101 -192q-21 37 -47.5 68
t-63.5 59z" />
    <glyph glyph-name="yamakkanleftthai" 
d="M-44 2953q26 -28 20.5 -68t-38.5 -71q-16 -14 -34.5 -22t-36.5 -9t-34.5 5.5t-29.5 21.5q-11 12 -35.5 26.5t-52.5 14.5q-29 0 -56.5 -10.5t-49 -28.5t-36.5 -42.5t-19 -53.5q-5 -29 2 -55.5t26.5 -46.5t52.5 -32t81 -12l-28 -172q-48 0 -84.5 -11.5t-62.5 -31.5
t-41 -46.5t-20 -55.5t2 -51.5t21.5 -38.5t36 -26.5t47.5 -14.5q19 -3 33.5 -14t22 -26.5t8.5 -35t-5 -39.5q-6 -18 -18.5 -34t-29 -26.5t-36 -15.5t-38.5 -2q-54 11 -102 37.5t-82 68t-50.5 96t-5.5 122.5q11 71 44.5 127t90.5 102q-83 100 -61 234q10 67 45 127t86.5 104
t117.5 70t138 26q65 0 118.5 -25t92.5 -65z" />
    <glyph glyph-name="copyright" unicode="&#xa9;" horiz-adv-x="2294" 
d="M2444 1085q-25 -157 -88 -301.5t-156 -270t-212 -228.5t-255 -176.5t-286 -113.5t-304 -40q-157 0 -295 40t-252.5 113.5t-201 176.5t-140 228.5t-71 270.5t7.5 301q24 155 87 298t156.5 268t212.5 227.5t256.5 176t288.5 113.5t308 40q154 0 291 -40t250 -113.5
t199.5 -176t140 -227.5t71 -268t-7.5 -298zM2211 1085q19 123 5.5 236.5t-55.5 212.5t-110.5 180t-158 139t-198 89.5t-231.5 31.5q-126 0 -246.5 -31.5t-229.5 -89.5t-203 -139t-167.5 -180t-123 -212.5t-68.5 -236.5q-20 -126 -6.5 -241t55.5 -215t110 -181t158.5 -139
t201 -89.5t236.5 -31.5q123 0 241.5 31.5t226.5 89.5t202 139t167.5 181t123.5 215t70 241zM1667 524q-41 -26 -87.5 -50.5t-98.5 -43t-109.5 -30t-118.5 -11.5q-143 0 -254.5 54t-184 147t-101.5 217.5t-7 265.5q15 94 51.5 181t90.5 162.5t123 137.5t149 106.5t169.5 68.5
t183.5 24q105 0 197.5 -31t171.5 -96q19 -15 28 -36t8.5 -44t-10 -47t-28.5 -45q-38 -40 -83.5 -43.5t-87.5 27.5q-53 37 -108 59.5t-129 22.5q-59 0 -115 -16t-107 -45t-95.5 -70t-79.5 -90.5t-58.5 -107t-33.5 -118.5q-14 -91 6 -172.5t67 -143t116.5 -98t153.5 -36.5
q71 0 135.5 24.5t132.5 65.5q51 31 96 27.5t70 -44.5q12 -21 14 -45t-4.5 -47t-22.5 -44t-40 -36z" />
    <glyph glyph-name="registered" unicode="&#xae;" horiz-adv-x="2339" 
d="M2502 1085q-25 -159 -90 -306t-161 -275.5t-218.5 -234t-263.5 -181t-295.5 -117t-314.5 -41.5q-161 0 -303.5 41t-260 116.5t-207.5 180.5t-145.5 233.5t-74 276t6.5 307.5q25 159 90 305.5t161.5 274t219.5 232t264.5 179t297 115.5t316.5 41q160 0 301.5 -41
t258.5 -115.5t206.5 -179t145 -232t73.5 -274t-7 -305.5zM2267 1077q20 128 6 246t-58 220.5t-115.5 186.5t-165 144t-206.5 92.5t-241 32.5q-130 0 -255 -32.5t-238 -91.5t-211 -142.5t-174.5 -185t-128 -218.5t-71.5 -244q-20 -128 -6 -246t58.5 -220.5t116 -186
t165.5 -143.5t208.5 -92.5t244.5 -32.5q128 0 251.5 32.5t235 92.5t209 143.5t173.5 186t127.5 220.5t71.5 246zM1740 1343q8 49 -14 76t-61.5 39.5t-89 14.5t-97.5 2h-311l-44 -279h284q30 0 64.5 -0.5t69.5 2.5t68 10.5t60 24t46 43t25 67.5zM951 1590q4 24 17 45.5
t31.5 37.5t42 25.5t47.5 9.5h434q129 0 220 -25t146 -72t74.5 -115.5t5.5 -156.5q-14 -87 -51 -151.5t-91 -109t-121.5 -71t-143.5 -36.5l197 -385q10 -18 9 -40.5t-11 -44.5t-27.5 -43t-41.5 -36q-20 -11 -42.5 -13.5t-43 2.5t-38 17.5t-26.5 30.5l-238 508h-209l-70 -439
q-4 -24 -16.5 -45.5t-31.5 -37.5t-42 -25.5t-48 -9.5q-24 0 -44.5 9.5t-34 25.5t-19.5 37.5t-2 45.5z" />
    <glyph glyph-name="trademark" unicode="&#x2122;" horiz-adv-x="2376" 
d="M746 938q-6 -37 -34 -59.5t-65 -22.5t-56 22.5t-13 59.5l168 1061h-233q-38 0 -56.5 22.5t-12.5 59.5t32 61.5t64 24.5h634q38 0 56 -24.5t12 -61.5t-31.5 -59.5t-63.5 -22.5h-233zM1460 1702l-11 84l-22 -81l-280 -776q-6 -17 -17.5 -30t-26.5 -21.5t-31.5 -11.5
t-32.5 0t-27.5 12.5t-18 23t-7.5 29.5t5 32l419 1160q8 22 27.5 36t42.5 14q20 0 33.5 -11.5t18.5 -28.5l227 -937l523 937q11 17 29 28.5t38 11.5q23 0 37 -14t16 -36l49 -1160q1 -16 -5 -32t-16.5 -29.5t-25.5 -23t-31 -12.5q-18 -3 -34 0t-28.5 11.5t-20.5 21.5t-8 30
l-28 778l4 76l-37 -78l-441 -793q-11 -19 -30 -30.5t-41 -11.5q-21 0 -36 12t-20 31z" />
    <glyph glyph-name="multiply" unicode="&#xd7;" horiz-adv-x="1556" 
d="M871 590l-508 -443q-21 -18 -47 -28t-51.5 -10t-49 9t-40.5 29q-17 19 -23 44t-2 51.5t18 52t37 45.5l508 438l-370 434q-17 20 -23 46t-1.5 52t18.5 51t37 44t49.5 28.5t52 9.5t48.5 -10t38 -28l369 -438l508 438q21 18 47 28t51.5 10t49 -9.5t40.5 -28.5q16 -19 22 -43
t1.5 -50.5t-18.5 -52t-36 -47.5l-506 -434l368 -438q17 -20 23 -45.5t1.5 -52t-18.5 -51.5t-36 -44q-23 -20 -49.5 -29t-52 -9t-48.5 10t-38 28z" />
    <glyph glyph-name="divide" unicode="&#xf7;" horiz-adv-x="1556" 
d="M1177 1253q-6 -41 -28 -77.5t-53.5 -63.5t-70.5 -43t-81 -16q-41 0 -75 16t-56.5 43t-32.5 63.5t-4 77.5q7 42 28.5 78.5t53 63.5t70.5 43t80 16q42 0 76 -16t57 -43t33 -63.5t3 -78.5zM1026 303q-6 -41 -27.5 -77.5t-53 -64t-70.5 -43.5t-81 -16q-41 0 -75 16t-57 43.5
t-33 64t-4 77.5q7 42 28.5 78.5t53 63.5t70.5 43t80 16q42 0 76 -16t57 -43t33 -63.5t3 -78.5zM1515 647q28 0 53 9.5t45.5 26.5t34 40t18.5 51q4 28 -2 52.5t-21 43t-37 29t-50 10.5h-1229q-27 0 -52.5 -10.5t-46 -29t-35 -43t-18.5 -52.5q-5 -28 2 -51t22 -40t37.5 -26.5
t49.5 -9.5h1229z" />
    <glyph glyph-name="ZWSP" unicode="&#x200b;" 
 />
    <glyph glyph-name="yoyingthai" unicode="&#xe0d;" horiz-adv-x="3031" 
d="M1164 1872q195 0 347.5 -60.5t252 -168.5t140.5 -256.5t13 -325.5l-67 -418q-13 -84 4 -158t61 -129t113 -86.5t160 -31.5t175.5 30t152.5 84t114.5 129.5t60.5 165.5l171 1082q5 29 19.5 54.5t36.5 44t49 29.5t56 11t53 -11t39.5 -29.5t22.5 -44t2 -54.5l-270 -1704
q-15 -94 -53.5 -182t-96.5 -165t-133 -141t-161.5 -109.5t-183.5 -70.5t-198 -25q-199 10 -338.5 89t-217.5 231q-13 24 -12.5 51.5t11 53.5t30.5 49t47 38t54.5 19.5t52.5 -1.5t45.5 -22t33.5 -41q55 -99 138.5 -149.5t197.5 -50.5q92 0 177.5 33.5t154 91.5t114.5 135.5
t60 165.5l18 112q-102 -77 -222.5 -121.5t-241.5 -44.5q-147 0 -263.5 53t-193 145t-108 215t-9.5 263l66 418q19 121 -9 221t-96 171t-172.5 110t-238.5 39q-69 0 -139 -17.5t-137 -48.5t-128 -73t-112 -91l107 -131l-155 -979h156q27 0 50 -10.5t38.5 -29t22 -43
t2.5 -52.5t-18.5 -52t-35.5 -41.5t-47.5 -27.5t-53.5 -10h-299q-27 0 -50 10t-39 27.5t-23 41.5t-3 52l162 1023l-84 111q-23 30 -25.5 63.5t7 65t25.5 57.5t31 42q81 87 175 157.5t195.5 119.5t208 75.5t211.5 26.5z" />
    <glyph glyph-name="sterling" unicode="&#xa3;" horiz-adv-x="1647" 
d="M1801 1547q-3 -29 -15 -55t-31.5 -47t-45 -35t-55.5 -18q-30 -3 -55.5 4.5t-44 24t-29 41t-8.5 53.5q3 93 -20 166.5t-68.5 124t-113 77t-153.5 26.5q-84 0 -159 -33t-133.5 -92t-99 -140t-55.5 -178l-48 -299h299q28 0 50 -10t37 -28t21 -43t2 -54q-5 -28 -18.5 -52
t-34 -41.5t-46 -27.5t-53.5 -10h-303l-101 -639h897q28 0 50 -10t37 -27.5t21 -41.5t2 -52t-18 -52t-34 -41.5t-45.5 -27.5t-53.5 -10h-1196q-28 0 -50 10t-37 27.5t-21.5 41.5t-2.5 52t18 52t34.5 41.5t46 27.5t53.5 10h21l101 639h-21q-28 0 -50 10t-37 27.5t-21.5 41.5
t-1.5 52q4 29 18 54t34.5 43t46 28t53.5 10h21l48 299q16 98 51.5 190.5t88 173.5t120.5 148t149 115.5t173 75t192 26.5q100 4 184.5 -22t152.5 -73.5t118.5 -112t83.5 -138t47 -151.5t8 -151z" />
    <glyph glyph-name="yen" unicode="&#xa5;" horiz-adv-x="1737" 
d="M1744 2146q20 28 45.5 45.5t53 25t54 4.5t49.5 -17q24 -15 37 -37.5t16 -48t-4.5 -53.5t-25.5 -54l-429 -586h180q28 0 49.5 -10t35.5 -27.5t19.5 -41.5t1.5 -52q-4 -27 -17 -50.5t-32.5 -40.5t-44.5 -26.5t-53 -9.5h-328l-128 -168h434q28 0 49.5 -10t35.5 -27.5
t19.5 -41.5t1.5 -52q-5 -27 -18 -50.5t-32.5 -40.5t-44 -26.5t-52.5 -9.5h-483l-98 -618q-5 -31 -20.5 -57t-39 -45t-52 -30t-59.5 -11t-55.5 11t-40.5 30t-22.5 45t-1.5 57l98 618h-467q-56 0 -86 36t-21 91q4 28 17.5 52t33 41.5t44.5 27.5t53 10h418l-72 168h-316
q-56 0 -85.5 36t-21.5 91q4 28 17.5 52t33 41.5t44.5 27.5t53 10h168l-247 586q-10 26 -8.5 54t12.5 53.5t31 48t49 37.5q28 14 56 17t52.5 -4.5t44 -25t30.5 -45.5l386 -925z" />
    <glyph glyph-name="cent" unicode="&#xa2;" horiz-adv-x="1864" 
d="M1106 1528q-67 -23 -125.5 -66t-105 -100t-77.5 -124.5t-43 -139.5q-11 -72 -1 -140t38.5 -125t73.5 -101t103 -68zM1722 1462q-19 -23 -44.5 -36t-51.5 -16t-50.5 4t-41.5 24q-41 37 -82 64t-98 42l-142 -897q55 16 109 40.5t109 66.5q24 18 48.5 25t47.5 4.5t42 -14.5
t31 -32q27 -46 13.5 -96t-62.5 -84q-26 -18 -67.5 -43t-92.5 -49.5t-107 -44t-111 -27.5l-17 -106q-4 -26 -17 -48.5t-32.5 -39t-43.5 -26t-50 -9.5t-47 9.5t-34.5 26t-19.5 39t-2 48.5l18 114q-117 25 -206 88t-145 155t-76 207.5t1 246.5q21 129 78.5 244t143 206.5
t194 154t230.5 87.5l18 115q4 26 17 48.5t32.5 39t43.5 26t50 9.5q53 0 82 -35.5t21 -87.5l-16 -103q103 -15 182 -53.5t138 -97.5q18 -18 29.5 -41.5t13 -48.5t-6.5 -50.5t-29 -48.5z" />
    <glyph glyph-name="Euro" unicode="&#x20ac;" horiz-adv-x="2277" 
d="M378 1171q-56 0 -85.5 36t-21.5 91q4 28 17.5 52t33 42t44.5 28t53 10h163q57 110 133.5 209.5t167.5 184t195 152.5t216.5 116t232 73.5t241.5 25.5q86 0 171 -14.5t160.5 -38.5t138 -56t104.5 -67q19 -17 30.5 -39.5t13.5 -47t-6 -51t-27 -50.5q-19 -23 -44.5 -39.5
t-52 -23t-52.5 -1.5t-46 23q-31 26 -81.5 49.5t-110.5 41.5t-125 29t-125 11q-123 0 -242.5 -37.5t-226 -103t-197 -154.5t-156.5 -192h643q27 0 49 -10t36 -28t19.5 -42t1.5 -52q-4 -27 -17.5 -50.5t-33 -40.5t-44.5 -26.5t-52 -9.5h-721q-8 -27 -12 -52.5t-9 -53.5
t-8 -53.5t-5 -53.5h721q27 0 49 -10t36 -27.5t19.5 -41.5t1.5 -52q-4 -27 -17.5 -50.5t-33 -40.5t-44.5 -26.5t-52 -9.5h-631q39 -100 104.5 -184t152 -145t189 -95t215.5 -34q60 0 128.5 11t134.5 30t124 43.5t97 50.5q26 18 53 22.5t52 -2t45 -22.5t32 -39
q11 -25 11 -51.5t-10 -52t-28.5 -48t-43.5 -37.5q-55 -35 -125.5 -67t-152.5 -56t-172 -38.5t-184 -14.5q-169 0 -318 51t-270.5 146t-210.5 230t-138 302h-172q-56 0 -85.5 36t-21.5 91q4 28 17.5 52t33 41.5t44.5 27.5t53 10h110q2 28 6 58t9 61q4 25 8.5 49t10.5 45h-110
z" />
    <glyph glyph-name="onequarter" unicode="&#xbc;" horiz-adv-x="2220" 
d="M1567 406h258l59 376zM751 995q-3 -21 -14.5 -40t-28.5 -32.5t-37.5 -21.5t-42.5 -8q-43 0 -68 29.5t-18 72.5l153 963h-131q-43 0 -68 29.5t-18 72.5q3 22 14 40.5t27 32.5t36 22t41 8h233q22 0 40 -8t30.5 -21.5t18 -32.5t2.5 -40zM2037 1248q13 14 29.5 23t35.5 9
q30 0 48.5 -22t14.5 -52l-127 -800h58q21 0 38.5 -8t29 -22t16.5 -33t1 -40q-3 -21 -14 -40t-27 -32.5t-36 -21.5t-41 -8h-58l-18 -115q-3 -21 -15 -40.5t-28.5 -34t-37.5 -23t-42 -8.5q-22 0 -40 8.5t-30 23t-17.5 34t-2.5 40.5l18 115h-532q-26 0 -41.5 18.5t-11.5 44.5
q3 21 17 36zM540 20q-15 -17 -35 -27.5t-40.5 -14t-40 1t-32.5 16.5q-17 12 -24.5 30.5t-7.5 38.5t8 40.5t23 37.5l1730 1999q15 17 35 27.5t40 14t39 -0.5t33 -16q16 -12 23.5 -30.5t7.5 -39t-7.5 -41t-22.5 -37.5z" />
    <glyph glyph-name="onehalf" unicode="&#xbd;" horiz-adv-x="2220" 
d="M418 20q-15 -17 -35 -27.5t-40.5 -14t-40 1t-32.5 16.5q-17 12 -24.5 30.5t-7.5 38.5t8 40.5t23 37.5l1730 1999q15 17 35 27.5t40 14t39 -0.5t33 -16q16 -12 24 -30.5t8 -39t-8 -41t-23 -37.5zM751 995q-3 -21 -14.5 -40t-28.5 -32.5t-37.5 -21.5t-42.5 -8
q-43 0 -68 29.5t-18 72.5l153 963h-131q-43 0 -68 29.5t-18 72.5q3 22 14 40.5t27 32.5t36 22t41 8h233q22 0 40 -8t30.5 -21.5t18 -32.5t2.5 -40zM1418 186q-17 -15 -28 -34.5t-15 -41.5q-4 -23 1.5 -43t18.5 -35t31.5 -23.5t41.5 -8.5h588q44 0 77.5 27.5t40.5 70.5
q7 44 -18 73.5t-69 29.5h-373l270 250l96.5 90t89 96.5t69.5 107.5t40 123q13 86 -7 159t-66.5 126t-116.5 83t-156 30q-79 0 -155.5 -33t-139.5 -85.5t-107 -118.5t-58 -132q-5 -20 -1.5 -39t13.5 -35t26 -27t37 -14q20 -3 40.5 3.5t38 19.5t31.5 31.5t20 40.5
q26 83 82.5 133.5t140.5 50.5q41 0 74.5 -14t56 -39t32 -59.5t3.5 -76.5q-5 -29 -20.5 -59t-37 -59.5t-48.5 -57.5t-54 -53l-238.5 -228.5z" />
    <glyph glyph-name="threequarters" unicode="&#xbe;" horiz-adv-x="2220" 
d="M621 20q-15 -17 -34.5 -27.5t-40 -14t-40 1t-32.5 16.5q-17 12 -24.5 30.5t-7.5 38.5t8 40.5t23 37.5l1730 1999q15 17 34.5 27.5t40 14t39.5 -0.5t33 -16q16 -12 23.5 -30.5t7.5 -39t-7.5 -41t-22.5 -37.5zM775 1470q48 -8 80 -24.5t50 -39.5t23.5 -51.5t0.5 -60.5
q-6 -38 -26.5 -73t-50.5 -61.5t-66.5 -42t-74.5 -15.5q-72 0 -105.5 42.5t-37.5 117.5q0 20 -8 37.5t-22 30t-33 19t-41 3.5q-20 -2 -39.5 -13t-35 -27t-25 -35.5t-9.5 -39.5q-1 -75 21.5 -136.5t64.5 -105t103 -67t136 -23.5q86 0 164 30t140 82.5t103.5 124.5t55.5 156
t-9.5 154.5t-86.5 120.5q72 50 112 113t52 141q12 75 -6.5 140t-60.5 113t-104.5 75.5t-137.5 27.5q-72 0 -135.5 -21t-116 -61.5t-92 -100t-62.5 -136.5q-6 -21 -3 -40t13 -35t26 -26.5t36 -13.5q21 -2 42 4.5t39 19t31.5 29.5t20.5 37q23 71 63 107t102 36q32 0 59 -11.5
t45 -32t26 -48t3 -59.5q-10 -61 -55.5 -105.5t-141.5 -63.5q-35 -7 -61.5 -33.5t-31.5 -62.5q-6 -36 13 -63.5t53 -32.5zM1567 406h258l59 376zM2037 1248q13 14 29.5 23t35.5 9q30 0 48.5 -22t14.5 -52l-127 -800h58q21 0 38.5 -8t29 -22t16.5 -33t1 -40q-3 -21 -14 -40
t-27 -32.5t-36 -21.5t-41 -8h-58l-18 -115q-3 -21 -15 -40.5t-28.5 -34t-37.5 -23t-42 -8.5q-22 0 -40 8.5t-30 23t-17.5 34t-2.5 40.5l18 115h-532q-26 0 -41.5 18.5t-11.5 44.5q3 21 17 36z" />
    <glyph glyph-name="saraamleft" horiz-adv-x="1393" 
d="M-262 2355q-9 -60 -40.5 -113t-78 -92.5t-104 -62.5t-118.5 -23q-60 0 -110 23t-84 62.5t-49 92.5t-6 113q10 61 42 115t78.5 94t104 63t117.5 23q61 0 111.5 -23t84 -63t48 -94t4.5 -115zM-458 2355q3 20 -2 37t-16.5 30t-28.5 20t-37 7q-40 0 -71 -27t-38 -67
q-6 -40 16.5 -69t62.5 -29q20 0 39 8t35 21.5t26.5 31t13.5 37.5zM353 1716q47 32 98.5 60t110.5 48.5t128 32t150 11.5q118 0 210.5 -24.5t161.5 -68.5t115.5 -105.5t71.5 -136t29.5 -159t-9.5 -174.5l-172 -1085q-5 -28 -19.5 -52.5t-36 -43t-48 -29t-53.5 -10.5
q-28 0 -51 10.5t-38.5 29t-22.5 43t-2 52.5l166 1052q34 212 -54.5 327.5t-296.5 115.5q-102 0 -173.5 -26.5t-124.5 -72.5q-23 -20 -50 -28t-52.5 -5t-47.5 15.5t-35 34.5q-15 21 -19 47t2 51.5t22 49t40 40.5z" />
    <glyph glyph-name="uni0E33.alt1" horiz-adv-x="1393" 
d="M-262 2355q-9 -60 -40.5 -113t-78 -92.5t-104 -62.5t-118.5 -23q-60 0 -110 23t-84 62.5t-49 92.5t-6 113q10 61 42 115t78.5 94t104 63t117.5 23q61 0 111.5 -23t84 -63t48 -94t4.5 -115zM-458 2355q3 20 -2 37t-16.5 30t-28.5 20t-37 7q-40 0 -71 -27t-38 -67
q-6 -40 16.5 -69t62.5 -29q20 0 39 8t35 21.5t26.5 31t13.5 37.5zM353 1716q47 32 98.5 60t110.5 48.5t128 32t150 11.5q118 0 210.5 -24.5t161.5 -68.5t115.5 -105.5t71.5 -136t29.5 -159t-9.5 -174.5l-172 -1085q-5 -28 -19.5 -52.5t-36 -43t-48 -29t-53.5 -10.5
q-28 0 -51 10.5t-38.5 29t-22.5 43t-2 52.5l166 1052q34 212 -54.5 327.5t-296.5 115.5q-102 0 -173.5 -26.5t-124.5 -72.5q-23 -20 -50 -28t-52.5 -5t-47.5 15.5t-35 34.5q-15 21 -19 47t2 51.5t22 49t40 40.5z" />
    <glyph glyph-name="guillemotleft" unicode="&#xab;" horiz-adv-x="1274" 
d="M771 553q14 -20 17.5 -43t-2.5 -46t-21 -44.5t-37 -38.5q-46 -34 -94 -29t-76 45l-360 521l525 520q20 20 43.5 31t46.5 13.5t45 -4.5t40 -24q17 -17 25 -38.5t6.5 -44.5t-12 -46t-30.5 -43l-361 -364zM1275 553q14 -20 17.5 -43t-2.5 -46t-21 -44.5t-38 -38.5
q-45 -34 -89 -29t-72 45l-360 521l525 520q41 40 86 45t80 -29q18 -17 26 -38.5t6.5 -44.5t-12 -46t-30.5 -43l-361 -364z" />
    <glyph glyph-name="guillemotright" unicode="&#xbb;" horiz-adv-x="1274" 
d="M1050 918l-245 364q-14 20 -17.5 43t2.5 46t20.5 44.5t37.5 38.5q46 34 94 29t76 -45l360 -520l-525 -521q-20 -20 -43.5 -31.5t-46.5 -13.5t-45 5t-40 24q-17 17 -25 38.5t-6.5 44.5t12 46t30.5 43zM546 918l-245 364q-14 20 -17.5 43t2.5 46t21 44.5t38 38.5
q45 34 89 29t72 -45l360 -520l-525 -521q-41 -40 -86 -45t-80 29q-18 17 -26 38.5t-6.5 44.5t12 46t30.5 43z" />
    <glyph glyph-name="thothannobasethai" unicode="&#xf700;" horiz-adv-x="1683" 
d="M1175 78q-17 -34 -51 -58t-81 -24q-43 0 -70 24t-35 62l-181 926q-5 27 0.5 54.5t20 51.5t36 42.5t49.5 27.5q29 10 57 8.5t50.5 -13t38.5 -31.5t21 -46l104 -561l239 450q21 39 34 79.5t20 80.5q15 92 -8.5 173.5t-76.5 142t-132 95.5t-176 35q-86 0 -163.5 -28
t-142 -76.5t-114 -114.5t-79.5 -141q-13 -31 -33.5 -51.5t-45.5 -32t-52.5 -13t-54.5 6.5q-28 9 -46 26t-26 39.5t-7 48.5t12 54q32 81 81.5 153t111 133t133.5 109.5t149.5 83t158.5 52.5t161 18q108 0 194.5 -26.5t162.5 -72.5l174 164q22 22 47.5 35t52 16.5t51.5 -3
t45 -23.5q20 -18 29 -42.5t8.5 -51t-11.5 -53.5t-32 -50l-179 -172q55 -96 78.5 -204.5t4.5 -229.5q-10 -62 -31.5 -123t-52.5 -123z" />
    <glyph glyph-name="exclam" unicode="!" horiz-adv-x="840" 
d="M645 176q-6 -41 -27.5 -77t-53 -62.5t-70.5 -41.5t-80 -15q-42 0 -76 15t-57 41.5t-33 62.5t-4 77q7 43 28.5 80.5t52.5 65t70.5 43.5t82.5 16t77 -16t56.5 -43.5t31.5 -65t2 -80.5zM620 582q-11 -47 -47 -77t-88 -30q-47 0 -71 30t-19 77l74 725l113 716q5 34 21.5 63.5
t40.5 51t54.5 33.5t64.5 12t61 -12t45.5 -33.5t26 -51t2.5 -63.5l-113 -716z" />
    <glyph glyph-name="quotedbl" unicode="&#x22;" horiz-adv-x="823" 
d="M421 2068q3 28 16 52t32.5 42t44.5 28t51 10q28 0 51 -10t38 -28t21 -42t0 -52l-120 -552q-10 -41 -38 -68t-75 -27q-40 0 -63.5 27t-19.5 68zM802 2068q3 28 16 52t32.5 42t44.5 28t51 10q28 0 51 -10t38 -28t21 -42t0 -52l-120 -552q-10 -41 -38.5 -68t-74.5 -27
q-40 0 -63.5 27t-19.5 68z" />
    <glyph glyph-name="numbersign" unicode="#" horiz-adv-x="1733" 
d="M955 1196l-104 -348h274l100 348h-270zM1136 90q-9 -26 -26 -47t-38.5 -35.5t-46.5 -20.5t-49 -3q-26 4 -44.5 18t-29.5 33.5t-12.5 43t7.5 48.5l147 467h-266l-158 -504q-9 -26 -26 -47t-38.5 -35.5t-46.5 -20.5t-49 -3q-26 4 -44 18t-28.5 33.5t-12.5 43t5 48.5
l140 467h-201q-26 0 -47.5 10t-36 27t-21 40.5t-2.5 49.5t18 49t34 40.5t44.5 27.5t50.5 10h238l104 348h-213q-26 0 -47.5 10t-36 27t-21 40.5t-2.5 49.5t17.5 49t33.5 40.5t45 27.5t51 10h246l146 463q9 24 26 45t38.5 35.5t47.5 21.5t53 4q24 -5 43 -18t31 -32.5t15 -44
t-6 -52.5l-132 -422h270l143 463q7 24 23.5 45t39 35.5t48.5 21.5t53 4q24 -5 43.5 -18t31.5 -32.5t15 -44t-6 -52.5l-129 -422h168q26 0 47.5 -10t36 -27.5t21 -40.5t2.5 -49t-17.5 -49.5t-33.5 -40.5t-45 -27t-51 -10h-209l-108 -348h197q26 0 47.5 -10t36 -27.5t21 -40.5
t2.5 -49t-18 -49.5t-34 -40.5t-44.5 -27t-50.5 -10h-238z" />
    <glyph glyph-name="dollar" unicode="$" horiz-adv-x="1692" 
d="M1044 1888q-44 -17 -82.5 -45.5t-68.5 -65t-50.5 -80t-27.5 -91.5q-7 -43 2 -77t29.5 -62t50 -52t64.5 -47zM1343 647q7 43 -3 79t-33 68t-58.5 61t-80.5 58l-98 -618q54 29 100 67t81.5 83t59 96t32.5 106zM254 422q-8 26 -4.5 53.5t16 52.5t34 45.5t49.5 32.5
t56.5 13.5t53 -7.5t42.5 -27t26 -44q13 -39 35.5 -83t55 -84t74.5 -70.5t94 -41.5l125 791q-84 41 -160 89.5t-131 112.5t-80.5 148.5t-7.5 198.5q18 112 67 207.5t122 170t167 125.5t202 74l31 197q4 29 19 54.5t37 44t49.5 29.5t56.5 11t52.5 -11t39.5 -29.5t22.5 -44
t2.5 -54.5l-33 -209q57 -17 108.5 -47.5t94.5 -66.5t75 -74t50 -70q12 -23 15 -50.5t-3 -55.5t-21.5 -55t-40.5 -48q-16 -14 -41.5 -22.5t-52 -6.5t-50.5 18t-38 52q-12 30 -31.5 55.5t-40.5 44t-40 28.5t-30 10l-103 -650l117.5 -65.5t107 -70t89.5 -81.5t65 -99t33 -123.5
t-6 -154.5q-18 -115 -73.5 -217.5t-136 -185.5t-181.5 -144.5t-211 -95.5l-35 -221q-5 -29 -19.5 -54.5t-36.5 -44.5t-49 -30t-56 -11t-53 11t-40 30t-23 44.5t-2 54.5l33 209q-102 13 -182 55.5t-139.5 103.5t-100.5 134.5t-65 148.5z" />
    <glyph glyph-name="percent" unicode="%" horiz-adv-x="2023" 
d="M1274 1708q-16 -100 -67.5 -185.5t-127 -148t-168.5 -98t-191 -35.5t-179.5 35.5t-137 98t-80 148t-8.5 185.5q16 105 67.5 192t126.5 150t167.5 98t192.5 35t182 -35t137 -98t78.5 -150t7.5 -192zM2045 451q-17 -103 -68.5 -189t-126.5 -147.5t-167.5 -96t-190.5 -34.5
t-180.5 34.5t-139 96t-81.5 147.5t-8 189q16 103 68.5 189.5t128.5 149t169.5 97.5t191.5 35t179.5 -35t137 -97.5t79.5 -149t8 -189.5zM1007 1708q7 43 -3.5 81t-35 66.5t-60.5 45t-81 16.5q-43 0 -83.5 -16t-73.5 -44t-55.5 -66t-29.5 -83q-7 -42 4 -79t35 -65t59.5 -44.5
t78.5 -16.5t84 16.5t74.5 44.5t56.5 65t30 79zM1779 451q7 44 -4 82t-36 66t-61 44t-79 16q-45 0 -86 -16t-74.5 -44t-56 -66t-29.5 -82q-7 -43 3.5 -80.5t35 -65t60.5 -43.5t81 -16q43 0 84.5 16t75 43.5t56.5 65t30 80.5zM1829 2163q18 23 39.5 38t44.5 21.5t47 4
t45 -14.5q45 -28 51 -75.5t-29 -96.5l-1495 -2040q-16 -21 -38.5 -35.5t-48 -20.5t-51 -3.5t-46.5 14.5q-19 14 -29.5 34.5t-12 44t6 48t22.5 45.5z" />
    <glyph glyph-name="ampersand" unicode="&#x26;" horiz-adv-x="2134" 
d="M1587 348q-86 -74 -178.5 -141.5t-189 -121.5t-195 -89.5t-196.5 -44.5q-126 -11 -232.5 28t-181.5 114.5t-114.5 181.5t-32.5 229q6 90 35.5 170.5t76 153t106.5 137.5t128.5 124.5t141.5 113.5l144 104q-35 43 -65 88.5t-51.5 95t-32 103.5t-5.5 114q5 63 27 124
t57 115t81.5 100.5t101 81t115.5 56.5t124 27q99 7 178.5 -23t134 -87t81 -136t19.5 -168q-7 -92 -41 -168.5t-86 -142t-118 -123t-136 -111.5l364 -499l178 172q22 21 48.5 33.5t53 15t51 -4.5t43.5 -24q20 -18 29.5 -42.5t8 -51t-14 -53t-34.5 -49.5l-208 -205l248 -348
q15 -22 19.5 -47t-1 -50.5t-21 -49.5t-39.5 -42q-23 -17 -49 -24.5t-51 -6t-47 12t-35 30.5zM1378 1774q1 37 -9.5 68t-30.5 53.5t-49 33.5t-65 8q-33 -3 -66 -21.5t-60 -48t-44.5 -67.5t-19.5 -80q-1 -35 8 -69t24 -65.5t33.5 -60.5t37.5 -55l81.5 63t76 68.5t57.5 79
t26 93.5zM1048 1085l-99.5 -69t-106.5 -76.5t-103 -85t-89.5 -94t-64.5 -104.5t-29 -115q-4 -72 15.5 -133t58 -104.5t94 -65.5t122.5 -17q62 5 134.5 31.5t148.5 71t152 105t146 132.5z" />
    <glyph glyph-name="quotesingle" unicode="'" horiz-adv-x="582" 
d="M487 2068q3 28 16 52t32.5 42t44.5 28t51 10q27 0 50 -10t38.5 -28t21.5 -42t0 -52l-120 -552q-10 -41 -38.5 -68t-74.5 -27q-41 0 -64.5 27t-19.5 68z" />
    <glyph glyph-name="parenleft" unicode="(" horiz-adv-x="840" 
d="M635 -254q9 -23 7 -48t-12.5 -48t-28.5 -42t-41 -30q-26 -12 -50.5 -13.5t-46 6t-38.5 22t-26 34.5q-63 134 -108.5 289t-69.5 322t-24 341.5t27 346.5q27 170 83 337t133 325t170.5 305t195.5 278q16 20 37.5 33.5t45.5 19t47.5 2t43.5 -17.5q19 -12 29.5 -32t12 -43
t-6.5 -47t-24 -46q-82 -107 -157 -231t-138 -264t-111 -297t-75 -330q-27 -174 -26 -338.5t21.5 -313.5t55 -280.5t74.5 -239.5z" />
    <glyph glyph-name="parenright" unicode=")" horiz-adv-x="840" 
d="M121 -246q73 108 149.5 239.5t144.5 280.5t121.5 313.5t80.5 338.5t29 330.5t-16 297t-54 264t-84 230.5q-10 22 -10 46t8 47t24.5 43t40.5 32q24 14 48.5 17.5t47 -2t40.5 -19t27 -33.5q61 -131 108 -277.5t73.5 -305t29.5 -325t-24 -337.5q-27 -172 -82.5 -346.5
t-132 -341.5t-171.5 -322t-200 -289q-16 -20 -37.5 -34.5t-45.5 -22t-48 -6t-45 13.5q-20 11 -31.5 30t-15 42t2.5 48t22 48z" />
    <glyph glyph-name="asterisk" unicode="*" horiz-adv-x="1442" 
d="M940 1389l-199 -226q-21 -23 -46.5 -36.5t-52 -17t-52 4t-45.5 25.5q-21 17 -31 40.5t-9 49.5t12 52.5t33 49.5l217 234l-264 86q-26 9 -43 26.5t-24 40.5t-4.5 50t16.5 55q13 27 34 47t45.5 30.5t52 12t53.5 -7.5l252 -90l33 282q3 28 17 52.5t36 43t48.5 29t54.5 10.5
t51.5 -10.5t39 -29t22.5 -43t1 -52.5l-53 -282l280 90q29 9 56 7.5t48.5 -12t35.5 -30.5t19 -47q5 -28 -0.5 -55t-19.5 -50t-37 -40.5t-52 -26.5l-292 -86l143 -234q15 -23 18 -49.5t-4.5 -52.5t-25 -49.5t-43.5 -40.5q-26 -18 -53.5 -25.5t-53 -4t-47 17t-34.5 36.5z" />
    <glyph glyph-name="plus" unicode="+" horiz-adv-x="1597" 
d="M286 647q-27 0 -49.5 9.5t-37.5 26.5t-22 40t-2 51q4 28 18.5 52t35 41.5t46 27.5t52.5 10h484l77 488q4 27 17.5 51t33 42t44.5 28t53 10q27 0 49.5 -10t37.5 -28t21 -42t2 -51l-77 -488h487q28 0 50 -10t37 -27.5t21 -41.5t2 -52q-5 -28 -18.5 -51t-34 -40t-45.5 -26.5
t-53 -9.5h-487l-77 -487q-5 -28 -19 -52t-34.5 -41.5t-46 -27.5t-52.5 -10q-28 0 -49.5 10t-35.5 27.5t-20 41.5t-1 52l77 487h-484z" />
    <glyph glyph-name="comma" unicode="," horiz-adv-x="606" 
d="M110 -156l24 17.5t38.5 30t45 39t44.5 44.5q-35 5 -63.5 22t-48 42.5t-28 58.5t-2.5 70q7 42 29 79t54.5 65t73 44.5t85.5 16.5q60 0 100.5 -23t63.5 -59.5t29.5 -81.5t-0.5 -90q-9 -57 -41 -118t-81 -119.5t-111 -110.5t-131 -90q-38 -22 -76.5 -14t-55.5 42
q-8 17 -8 36t7 37.5t20 34.5t32 27z" />
    <glyph glyph-name="hyphen" unicode="-" horiz-adv-x="1090" 
d="M320 651q-28 0 -50.5 9.5t-37.5 26.5t-21.5 40.5t-1.5 50.5q4 28 18 52t34 41.5t45.5 27.5t53.5 10h660q27 0 49.5 -10t37.5 -27.5t21.5 -41.5t2.5 -52q-5 -27 -18.5 -50.5t-34 -40.5t-46 -26.5t-52.5 -9.5h-660z" />
    <glyph glyph-name="period" unicode="." horiz-adv-x="606" 
d="M530 168q-7 -43 -28.5 -80t-53 -64t-70.5 -42t-81 -15q-41 0 -75 15t-57.5 41.5t-33.5 62.5t-4 78q7 43 29 80t53.5 64t70.5 42t80 15q42 0 76 -15t57.5 -41.5t33.5 -62.5t3 -78z" />
    <glyph glyph-name="slash" unicode="/" horiz-adv-x="1876" 
d="M1825 2396q18 23 39.5 38.5t44.5 22t47 3.5t45 -15q45 -28 51 -75t-29 -97l-1613 -2273q-16 -21 -39 -36t-48.5 -21.5t-51 -4t-46.5 16.5q-20 13 -30 33.5t-11.5 44t6 48.5t23.5 46z" />
    <glyph glyph-name="zero" unicode="0" horiz-adv-x="1679" 
d="M1783 1094q-22 -139 -65 -276.5t-106 -262t-143.5 -231.5t-178.5 -185.5t-211 -123t-240 -44.5q-126 0 -224.5 44.5t-171.5 123t-120 185.5t-70.5 231.5t-23.5 262t22 276.5q22 140 65.5 276t106 258t143 225t177.5 178t209.5 117.5t238.5 42.5q124 0 222 -42.5
t171 -117.5t122 -178t73.5 -225t25 -258t-21.5 -276zM1488 1094q17 107 17.5 210t-14.5 194.5t-45 168.5t-73.5 132.5t-100.5 86.5t-125 31q-70 0 -137 -31t-128.5 -86.5t-116 -132.5t-98.5 -168.5t-76 -194.5t-49 -210q-29 -180 -18.5 -335.5t55.5 -270.5t121.5 -180.5
t181.5 -65.5q103 0 199.5 65.5t177.5 180.5t140.5 270.5t88.5 335.5z" />
    <glyph glyph-name="one" unicode="1" horiz-adv-x="1679" 
d="M1235 2163q29 0 53.5 -11.5t41 -31t23.5 -46t2 -55.5l-301 -1900q-5 -29 -20 -54.5t-37.5 -44.5t-50.5 -29.5t-57 -10.5t-53 10.5t-39.5 29.5t-22.5 44.5t-2 54.5l280 1765h-267q-29 0 -52.5 11t-39.5 29.5t-23 44t-2 54.5q4 29 19 54.5t37 44.5t49 30t56 11h406z" />
    <glyph glyph-name="two" unicode="2" horiz-adv-x="1679" 
d="M1048 954q70 63 142.5 135.5t134 147.5t104.5 150.5t54 144.5q13 81 -7 152t-65.5 123.5t-112 83t-146.5 30.5q-84 0 -156 -27.5t-129 -77t-98.5 -119t-65.5 -153.5q-9 -29 -28.5 -53t-44 -40.5t-51.5 -24.5t-51 -5q-29 5 -50.5 20.5t-34.5 37.5t-17 47.5t3 50.5
q23 82 64 159.5t97.5 145.5t125 125t146 98t162 63.5t171.5 22.5q140 0 255 -50.5t192.5 -140t111 -211.5t11.5 -265q-17 -109 -71 -211.5t-127 -195t-156.5 -174t-159.5 -148.5l-595 -529h787q28 0 50.5 -10.5t38 -29t22 -43t2.5 -52.5t-18.5 -52t-35.5 -41.5t-47 -27.5
t-54 -10h-1114q-28 0 -51 10.5t-38.5 29t-22.5 43t-2 52.5t19 52t32 42z" />
    <glyph glyph-name="three" unicode="3" horiz-adv-x="1679" 
d="M1089 1241q77 18 136 54.5t101.5 84.5t68 105t34.5 117q12 72 -3.5 130t-52 99.5t-90.5 63.5t-120 22q-132 0 -222.5 -75.5t-133.5 -207.5q-9 -29 -28 -53t-43.5 -40.5t-52.5 -24.5t-55 -5q-29 5 -50.5 20t-34.5 37t-17 48.5t4 54.5q32 112 92.5 207.5t146.5 165
t197 108.5t245 39q123 0 225 -43t170.5 -121.5t98.5 -188t9 -241.5q-22 -142 -98 -258t-205 -209q56 -44 96.5 -99.5t63.5 -118.5t29.5 -132t-4.5 -141q-23 -141 -87.5 -263t-164 -212t-230 -141.5t-283.5 -51.5q-86 -5 -161.5 15.5t-138 59.5t-111.5 92.5t-81 115t-46 127
t-8 127.5q6 60 42.5 105t96.5 55q28 4 53.5 -3t45 -23.5t31 -41t11.5 -55.5q1 -63 18.5 -118.5t54.5 -96.5t94 -64.5t137 -23.5q85 0 158.5 30.5t130.5 83t94.5 123.5t50.5 152q10 64 0.5 123t-40.5 107t-84 84t-128 54q-38 10 -60 43t-15 76q7 44 39 79t74 44z" />
    <glyph glyph-name="four" unicode="4" horiz-adv-x="1679" 
d="M1321 1593l-795 -934h647zM1428 2114q23 27 57.5 46t71.5 19q29 0 53.5 -11.5t41 -31t23.5 -45.5t3 -55l-218 -1377h123q29 0 52.5 -11t39.5 -29.5t22.5 -44t2.5 -54.5q-5 -29 -19.5 -54.5t-36.5 -44.5t-49 -29.5t-56 -10.5h-123l-41 -258q-5 -29 -20.5 -55t-38.5 -45.5
t-51 -31t-57 -11.5t-53 11.5t-40.5 31t-24 45.5t-2.5 55l41 258h-868q-32 0 -58 11.5t-43.5 31.5t-24.5 48t-2 60q7 49 38 86z" />
    <glyph glyph-name="five" unicode="5" horiz-adv-x="1679" 
d="M602 2017q5 31 20 58t37 47t50 31.5t59 11.5h848q29 0 53 -11t39.5 -29.5t22.5 -44t2 -54.5t-19.5 -54.5t-36.5 -44.5t-49 -30t-56 -11h-701l-64 -407q62 18 125 27.5t131 9.5q107 0 201 -27t170.5 -76t133.5 -118t92.5 -153t46 -181.5t-5.5 -202.5q-18 -115 -63 -218
t-111 -191t-150 -158.5t-180.5 -120.5t-203 -76.5t-217.5 -26.5q-98 0 -185.5 25t-160.5 69.5t-130.5 106t-96.5 135.5q-13 25 -16 52t4 53.5t24 50t44 41.5t55 24t54.5 2t48 -18t34.5 -37q29 -51 68.5 -93t87.5 -72t102.5 -47t114.5 -17q108 0 206.5 38.5t178 107.5
t133.5 164.5t72 209.5q16 103 -9.5 191t-83.5 153t-143 102t-186 37q-57 0 -116.5 -12t-125.5 -35.5t-140 -57.5t-159 -79z" />
    <glyph glyph-name="six" unicode="6" horiz-adv-x="1679" 
d="M1025 1536q16 0 32 2t38 2q103 0 194 -29t165 -81t130 -125t89.5 -161t44 -188t-6.5 -206q-12 -75 -39 -148t-65.5 -140.5t-87.5 -129t-105 -115.5q-128 -124 -274.5 -185t-304.5 -61q-104 0 -195.5 27.5t-167.5 78t-133.5 121t-93.5 157t-47 186.5t6 209
q12 72 32.5 136.5t49.5 124t66 115.5t81 111l766 930q19 24 46 40t56 22t57 2t49 -19q22 -15 33.5 -40t13 -53.5t-8 -57.5t-30.5 -54zM1422 754q17 106 -6.5 197.5t-76.5 159.5t-130.5 107t-169.5 39t-181.5 -39t-163.5 -107t-125.5 -159.5t-68.5 -197.5q-17 -108 5 -200.5
t74.5 -161t129.5 -107.5t169 -39t182 39t164.5 107.5t127.5 161t70 200.5z" />
    <glyph glyph-name="seven" unicode="7" horiz-adv-x="1679" 
d="M1763 2163q39 0 70 -14t51 -38t28.5 -57t2.5 -72q-4 -27 -16.5 -51.5t-27.5 -46.5l-1359 -1884q-18 -25 -43.5 -41.5t-53.5 -23.5t-56.5 -4.5t-52.5 16.5q-21 14 -33 36.5t-15 49t3 54.5t23 52l1263 1745h-999q-29 0 -53 11t-39.5 29.5t-22.5 44t-2 54.5q4 29 19 54.5
t36.5 44.5t49 30t56.5 11h1171z" />
    <glyph glyph-name="eight" unicode="8" horiz-adv-x="1679" 
d="M1598 602q-15 -92 -52 -174.5t-92 -153t-124.5 -126.5t-149 -95.5t-166 -60.5t-175.5 -21q-131 0 -242 46.5t-188.5 130.5t-112.5 200t-13 254q26 164 109.5 296t231.5 228q-93 96 -127 212t-14 243q20 129 85 240.5t160.5 193.5t214.5 129t248 47q130 0 235 -47
t174.5 -129t98.5 -193.5t9 -240.5q-20 -127 -90.5 -243t-194.5 -212q118 -96 159.5 -228t15.5 -296zM1422 1585q10 67 -6.5 127.5t-54.5 106t-93 72t-121 26.5t-129 -26.5t-114.5 -72t-87 -106t-45.5 -127.5q-11 -69 4.5 -129t52.5 -104t92 -69.5t123 -25.5q67 0 131 26
t115.5 70.5t86.5 104t46 127.5zM1318 614q12 75 -7.5 141.5t-63 116t-107.5 78.5t-141 29q-75 0 -147.5 -29t-131.5 -78.5t-99.5 -116t-52.5 -141.5q-12 -78 7.5 -146t63 -118t106.5 -79t137 -29q75 0 148 29t133 79t101.5 118t53.5 146z" />
    <glyph glyph-name="nine" unicode="9" horiz-adv-x="1679" 
d="M1521 1413q16 105 -5.5 196t-72.5 158.5t-126.5 106.5t-166.5 39q-92 0 -182 -39t-164.5 -106.5t-127 -158.5t-68.5 -196q-17 -106 6 -198t76 -160t131 -107t170 -39q91 0 178.5 39t160 107t123.5 160t68 198zM840 0q-18 -25 -43.5 -41.5t-53.5 -23.5t-56.5 -4.5
t-52.5 16.5q-21 14 -33 36.5t-15 49t3 54.5t23 52l401 496q-22 -3 -41.5 -3.5t-41.5 -0.5q-101 0 -191 28.5t-164 80.5t-130.5 124t-91.5 159t-46 185.5t6 204.5q17 110 61 211t107.5 187.5t144.5 156.5t173.5 119.5t192.5 76.5t203 27q105 0 197.5 -28t167.5 -79
t131 -122.5t90 -159.5t44 -189.5t-7 -211.5q-22 -138 -82 -253t-148 -222z" />
    <glyph glyph-name="colon" unicode=":" horiz-adv-x="606" 
d="M704 1266q-7 -43 -28.5 -80t-53 -64t-70.5 -42t-81 -15q-41 0 -75 15t-57.5 41.5t-33.5 62.5t-4 78q7 43 28.5 79.5t53.5 63.5t71 42t80 15q42 0 76 -15t57 -41.5t33 -62.5t4 -77zM531 172q-7 -43 -28.5 -80t-53 -64t-70.5 -42t-81 -15q-41 0 -75 15t-57.5 41.5
t-33.5 62.5t-4 78q7 43 28.5 80t53.5 64t71 42t80 15q42 0 76 -15t57 -41.5t33 -62.5t4 -78z" />
    <glyph glyph-name="semicolon" unicode=";" horiz-adv-x="606" 
d="M703 1262q-6 -42 -27.5 -78.5t-53 -63.5t-70.5 -43t-81 -16q-41 0 -74.5 16t-56 43t-32 63.5t-3.5 78.5q7 41 28 77.5t52 63.5t69.5 43t79.5 16q42 0 76 -16t57 -43t33 -63.5t3 -77.5zM110 -156l24 17.5t38.5 30t45 39t44.5 44.5q-35 5 -63.5 22t-48 42.5t-28 58.5
t-2.5 70q7 42 29 79t54.5 65t73 44.5t85.5 16.5q60 0 100.5 -23t63.5 -59.5t29.5 -81.5t-0.5 -90q-9 -57 -41 -118t-81 -119.5t-111 -110.5t-131 -90q-38 -22 -76.5 -14t-55.5 42q-8 17 -8 36t7 37.5t20 34.5t32 27z" />
    <glyph glyph-name="less" unicode="&#x3c;" horiz-adv-x="1602" 
d="M1603 1540q22 11 46 12t46.5 -6.5t40 -23.5t26.5 -39q7 -20 4.5 -44t-14 -47.5t-30.5 -44t-44 -32.5l-1115 -520l948 -562q19 -12 31 -31.5t16 -42t-1 -46t-18 -43.5q-16 -22 -38 -36.5t-45.5 -21.5t-46 -6t-39.5 10l-1113 627q-35 19 -50.5 58.5t-7.5 89.5q8 55 40 96.5
t75 62.5z" />
    <glyph glyph-name="equal" unicode="=" horiz-adv-x="1630" 
d="M340 881q-56 0 -88 35.5t-23 91.5q4 27 18 51t34.5 42t46 28t53.5 10h1229q27 0 49.5 -10t37.5 -28t21 -42t2 -51q-5 -28 -18.5 -51t-34 -40t-46 -26.5t-52.5 -9.5h-1229zM267 418q-56 0 -88 35.5t-23 91.5q4 27 18 51t34.5 42t46 28t53.5 10h1229q27 0 49.5 -10t37 -28
t21 -42t2.5 -51q-5 -28 -18.5 -51t-34 -40t-46 -26.5t-52.5 -9.5h-1229z" />
    <glyph glyph-name="greater" unicode="&#x3e;" horiz-adv-x="1602" 
d="M1588 950q37 -21 55 -62.5t10 -96.5q-8 -50 -37 -89.5t-69 -58.5l-1312 -627q-20 -9 -43 -10t-44 6t-38 21.5t-25 36.5q-8 20 -5.5 43.5t13.5 46t29 42t41 31.5l1125 562l-949 520q-21 12 -33.5 32.5t-16.5 44t0.5 47.5t18.5 44q16 23 38.5 39t47.5 23.5t49 6.5t42 -12z
" />
    <glyph glyph-name="question" unicode="?" horiz-adv-x="1401" 
d="M936 172q-7 -43 -28 -80.5t-52.5 -65t-70.5 -43.5t-82 -16t-77 16t-56.5 43.5t-32 65t-2.5 80.5t28 80t52 64t70.5 42t82.5 15q41 0 75 -15t57 -42t33 -64t3 -80zM309 1593q5 69 33 143.5t75.5 145t112.5 133t144.5 108.5t171 71.5t192.5 21.5q144 0 253 -47t178 -127
t96 -185.5t8 -222.5q-13 -81 -43.5 -147t-72 -121.5t-91 -102t-99.5 -89l-98.5 -82t-88 -80.5t-66.5 -85t-35 -96l-32 -204q-5 -29 -20 -54.5t-36.5 -44.5t-48.5 -30t-56 -11t-53 11t-40 30t-23 44.5t-2 54.5l34 213q15 98 61.5 173.5t107.5 138t130 117t129 110t104 118
t57 141.5q9 55 -3.5 109.5t-48 98t-96 70t-148.5 26.5q-94 0 -162 -25.5t-115.5 -71.5t-77.5 -109.5t-48 -138.5q-6 -27 -20.5 -52.5t-36 -45t-48.5 -32t-56 -13.5q-57 -3 -92 35t-30 104z" />
    <glyph glyph-name="at" unicode="@" horiz-adv-x="2261" 
d="M1629 1290q15 30 9.5 68.5t-31 72.5t-71 57t-109.5 23q-61 0 -123.5 -25.5t-121 -69t-110.5 -101.5t-93.5 -123t-69.5 -133.5t-38 -132.5q-8 -53 -3.5 -98.5t28 -79t67.5 -53t115 -19.5q55 0 113.5 25.5t112 66t96 89.5t66.5 97zM2216 365q-104 -100 -220.5 -173.5
t-240 -121.5t-251 -71.5t-251.5 -23.5q-158 0 -304 34t-270 100t-221 162t-159 220t-84 274.5t6 324.5q24 151 87 291.5t156 262.5t212 222t255 171.5t284.5 110.5t301.5 39q144 0 272.5 -31.5t235 -89.5t188 -141t133 -186.5t69 -225t-3.5 -256.5q-18 -114 -64.5 -221
t-112.5 -200t-147.5 -170t-169 -132t-178 -85.5t-174.5 -30.5q-66 0 -105 17t-60 42t-28.5 53.5t-9.5 51.5q-103 -59 -192 -83t-169 -24q-100 0 -172 34t-115.5 92.5t-58 138t-0.5 169.5q14 91 50 186.5t90.5 185t126.5 169t159 138.5t188 93.5t214 34.5q81 0 152.5 -29.5
t135.5 -97.5l13 29q11 21 28 38t37 27t41 13t40 -4q24 -8 38 -23.5t19 -34.5t2.5 -40.5t-11.5 -41.5l-368 -749q-3 -6 -10.5 -22.5t-15 -37.5t-11.5 -44t0 -41.5t18.5 -31t45.5 -12.5q50 0 108.5 28t118 76.5t116.5 112.5t103.5 136.5t79 149t44.5 149.5q17 108 0 204
t-61.5 176.5t-112.5 144.5t-153 108.5t-183 68t-202 23.5q-127 0 -250.5 -34t-236 -95.5t-211 -147t-175 -188t-128.5 -218.5t-71 -239q-22 -139 -2.5 -260t72 -221t134.5 -178t185.5 -132t224.5 -82t251 -28q103 0 207.5 19t205.5 58.5t196 100.5t179 146q37 37 77 42.5
t70 -22.5q32 -28 30.5 -70.5t-37.5 -76.5z" />
    <glyph glyph-name="A" unicode="A" horiz-adv-x="1905" 
d="M1210 1622l-385 -680h549zM1862 172q7 -26 1 -54t-22 -53.5t-39 -46t-51 -30.5q-28 -11 -55 -9.5t-49.5 13.5t-39 33t-23.5 49l-144 590h-766l-331 -590q-15 -28 -38 -49t-49.5 -33t-54 -13.5t-51.5 9.5q-25 10 -42 30.5t-24.5 46t-4.5 53.5t18 54l1089 1942
q17 30 48 49.5t65 19.5q38 0 63 -19.5t33 -49.5z" />
    <glyph glyph-name="B" unicode="B" horiz-adv-x="1556" 
d="M1281 1573q15 92 -4.5 153t-69 97t-126 50.5t-176.5 14.5h-164l-101 -635h164q91 0 170.5 10t142 43.5t105 97t59.5 169.5zM1311 631q16 96 -14.5 172.5t-98.5 114.5q-36 20 -80.5 31.5t-94.5 17t-102 7t-103 1.5h-222l-112 -705h250q112 0 210 17t174 58.5t126 111
t67 174.5zM299 0q-29 0 -53 10.5t-39.5 29.5t-22.5 44.5t-2 54.5l298 1884q4 29 19 54.5t36.5 44.5t49 30t56.5 11h356q148 0 264.5 -35t192 -109.5t105.5 -190t5 -276.5q-9 -60 -25 -112.5t-41 -99t-59.5 -88.5t-82.5 -81q145 -83 208 -221.5t35 -314.5q-26 -166 -105 -286
t-191.5 -197.5t-250.5 -114.5t-282 -37h-471z" />
    <glyph glyph-name="C" unicode="C" horiz-adv-x="1913" 
d="M2088 2015q19 -17 30.5 -39.5t13.5 -47t-6 -51t-27 -50.5q-19 -23 -44.5 -39.5t-52 -23t-52.5 -1.5t-46 23q-31 26 -81.5 49.5t-110.5 41.5t-125 29t-125 11q-113 0 -223 -31.5t-210.5 -88.5t-189 -135.5t-158 -173.5t-116.5 -202t-65 -221q-17 -107 -2 -209t56 -193.5
t105.5 -168.5t147.5 -133t181.5 -87.5t208.5 -31.5q60 0 128.5 11t134.5 30t124 43.5t97 50.5q26 18 53 22.5t52 -2t45 -22.5t32 -39q11 -25 11 -51.5t-10 -52t-28.5 -48t-43.5 -37.5q-55 -35 -125.5 -67t-152.5 -56t-172 -38.5t-184 -14.5q-151 0 -286 40t-247.5 112
t-199.5 173.5t-142 224.5t-73.5 264t5.5 292q24 153 87.5 295t157.5 265.5t213.5 225.5t256 175t285 113t299.5 40q86 0 171 -14.5t160.5 -38.5t138 -56t104.5 -67z" />
    <glyph glyph-name="D" unicode="D" horiz-adv-x="1778" 
d="M944 2163q165 0 308 -34t259 -98.5t202.5 -158.5t138.5 -214.5t67 -266.5t-12 -314q-26 -166 -88 -310t-153 -264t-208 -213.5t-253.5 -158t-288.5 -98t-314 -33.5h-299q-29 0 -53 10.5t-39.5 29.5t-22.5 44.5t-2 54.5l298 1884q4 29 19 54.5t36.5 44.5t49 30t56.5 11
h299zM1620 1077q30 186 -9 336t-135 255.5t-244 162.5t-335 57h-152l-257 -1618h152q186 0 351.5 57t295.5 162.5t217 254.5t116 333z" />
    <glyph glyph-name="E" unicode="E" horiz-adv-x="1380" 
d="M299 0q-29 0 -53 10.5t-39.5 29.5t-22.5 44.5t-2 54.5l298 1884q4 29 19 54.5t36.5 44.5t49 30t56.5 11h856q29 0 52.5 -11t39.5 -30t22.5 -44.5t2.5 -54.5q-5 -29 -19.5 -53.5t-36 -42.5t-48.5 -28.5t-56 -10.5h-713l-92 -577h713q29 0 52.5 -11t39.5 -30t22.5 -44.5
t2.5 -54.5q-5 -29 -19.5 -53.5t-36 -42.5t-48.5 -28.5t-56 -10.5h-713l-121 -762h713q29 0 52.5 -11t39.5 -29.5t22.5 -44t2.5 -54.5q-5 -29 -19.5 -54t-36 -43t-48.5 -28t-56 -10h-856z" />
    <glyph glyph-name="F" unicode="F" horiz-adv-x="1204" 
d="M480 2023q4 29 19 54.5t36.5 44.5t49 30t56.5 11h725q29 0 52.5 -11t39.5 -30t22.5 -44.5t2.5 -54.5q-5 -29 -19.5 -53.5t-36 -42.5t-48.5 -28.5t-56 -10.5h-578l-92 -577h578q29 0 52.5 -11t39.5 -30t22.5 -44.5t2.5 -54.5q-5 -29 -19.5 -53.5t-36 -42.5t-48.5 -28.5
t-56 -10.5h-578l-144 -909q-5 -31 -20.5 -57.5t-39 -46.5t-52 -31.5t-59.5 -11.5q-29 0 -52.5 11.5t-39 31.5t-22 46.5t-1.5 57.5z" />
    <glyph glyph-name="G" unicode="G" horiz-adv-x="2347" 
d="M2340 1225q29 0 53.5 -11.5t41 -31t23.5 -46t3 -55.5q-24 -152 -83.5 -294t-147.5 -265t-202 -224.5t-247 -174t-282 -112.5t-308 -40q-156 0 -294.5 39.5t-253 111.5t-202.5 173.5t-142.5 225t-73 265t6.5 295.5q24 153 87 294.5t157 265t214 225t257.5 173.5t288.5 112
t307 40q147 0 278.5 -37.5t241.5 -103t196.5 -154.5t143.5 -192q13 -25 14 -53.5t-8 -56.5t-28.5 -53t-46.5 -42t-56 -22t-55 1t-48.5 22t-35.5 40q-212 369 -641 369q-117 0 -230 -29.5t-215.5 -83t-192 -129t-159.5 -167.5t-117 -198t-65 -221q-18 -114 -4.5 -220t54 -198
t106.5 -167.5t151.5 -129t189 -83t220.5 -29.5q154 0 296 51.5t261 143t208.5 217t137.5 272.5h-754q-32 0 -57.5 10t-42 28.5t-23.5 44t-2 56.5q5 32 20.5 59.5t38 47t51.5 30.5t61 11h909z" />
    <glyph glyph-name="H" unicode="H" horiz-adv-x="1942" 
d="M1662 1032h-1057l-144 -909q-5 -29 -20.5 -55t-38 -45.5t-50.5 -31t-57 -11.5t-52.5 11.5t-39 31t-22.5 45.5t-2 55l304 1917q4 29 19 55t36.5 45.5t49 31t56.5 11.5t53.5 -11.5t41 -31t23.5 -45.5t3 -55l-116 -729h1057l116 729q4 29 19 55t37 45.5t49 31t56 11.5
t53.5 -11.5t41 -31t24 -45.5t3.5 -55l-304 -1917q-5 -29 -20.5 -55t-38.5 -45.5t-51 -31t-57 -11.5t-52.5 11.5t-39 31t-22.5 45.5t-2 55z" />
    <glyph glyph-name="I" unicode="I" horiz-adv-x="643" 
d="M486 123q-5 -29 -20.5 -55t-38 -45.5t-50.5 -31t-57 -11.5t-54 11.5t-42.5 31t-25.5 45.5t-3 55l304 1917q4 29 20.5 55t40 45.5t52 31t57.5 11.5t53 -11.5t40.5 -31t24 -45.5t3.5 -55z" />
    <glyph glyph-name="J" unicode="J" horiz-adv-x="627" 
d="M-268 -479q-24 13 -38 35t-18.5 48t2 54.5t23.5 54.5t42 43.5t52.5 25t55.5 5t52 -16.5q17 -10 35 -15.5t39 -5.5q35 0 67 14t57.5 37.5t42.5 55t23 66.5l336 2118q4 29 20.5 55t39.5 45.5t50.5 31t55.5 11.5q29 0 53 -11.5t40.5 -31t24 -45.5t3.5 -55l-336 -2118
q-15 -92 -63 -174.5t-119 -144.5t-159 -98.5t-181 -36.5q-49 0 -99 12t-101 41z" />
    <glyph glyph-name="K" unicode="K" horiz-adv-x="1692" 
d="M1555 221q16 -21 22 -48t2 -55t-18.5 -54.5t-38.5 -47.5t-52.5 -30.5t-55.5 -8.5t-51.5 12t-40.5 31l-737 889l-124 -786q-5 -29 -20.5 -55t-38 -45.5t-50.5 -31t-57 -11.5t-52.5 11.5t-39 31t-22.5 45.5t-2 55l304 1917q4 29 19 55t36.5 45.5t49 31t56.5 11.5
t53.5 -11.5t41 -31t23.5 -45.5t3 -55l-112 -705l943 807q23 20 50.5 31t54 12t51 -8.5t41.5 -30.5q18 -21 24 -46.5t1.5 -52.5t-19 -53.5t-37.5 -47.5l-962 -824z" />
    <glyph glyph-name="L" unicode="L" horiz-adv-x="963" 
d="M299 0q-59 0 -91 38t-23 97l302 1909q4 28 20 53t39 44t50.5 30.5t55.5 11.5t51.5 -11.5t39.5 -30.5t23 -44t3 -53l-281 -1774h390q29 0 52 -10.5t38.5 -29t21.5 -43t2 -52.5q-5 -29 -19 -54t-35 -43t-47 -28t-55 -10h-537z" />
    <glyph glyph-name="M" unicode="M" horiz-adv-x="2511" 
d="M842 1384l-19 140l-39 -135l-467 -1299q-9 -28 -28.5 -50.5t-44.5 -37t-53 -19.5t-55 1q-27 4 -46.5 20t-31 38.5t-12.5 50t10 54.5l701 1942q14 36 46.5 60t70.5 24q34 0 57 -19t31 -48l380 -1569l877 1569q17 29 46.5 48t63.5 19q38 0 62.5 -24t26.5 -60l83 -1942
q1 -27 -9 -54.5t-28 -50t-42.5 -38.5t-52.5 -20q-29 -6 -56 -1t-48 19.5t-34 37t-13 50.5l-48 1303l7 127l-62 -131l-739 -1328q-17 -32 -49 -51.5t-69 -19.5q-35 0 -60.5 20.5t-33.5 52.5z" />
    <glyph glyph-name="N" unicode="N" horiz-adv-x="2277" 
d="M2134 106q-4 -24 -16.5 -45t-30.5 -37t-40.5 -25t-46.5 -9q-25 0 -45 10t-33 27l-1220 1620l-241 -1524q-5 -29 -20.5 -55t-38 -45.5t-50.5 -31t-57 -11.5q-26 0 -49 11.5t-39.5 31t-24.5 45.5t-3 55l306 1934q4 24 16.5 45t31 37t41 25t46.5 9q25 0 44.5 -10t33.5 -27
l1220 -1608l240 1512q4 29 20.5 55t39 45.5t49 31t52.5 11.5q29 0 53.5 -11.5t41 -31t24 -45.5t3.5 -55z" />
    <glyph glyph-name="O" unicode="O" horiz-adv-x="2343" 
d="M2457 1081q-24 -153 -87 -294.5t-156 -264.5t-211.5 -224.5t-253.5 -174t-283 -112.5t-300 -40q-153 0 -288.5 40t-247.5 112.5t-198 174t-139.5 224.5t-71 265t6.5 294t86.5 293t155 264.5t210.5 225t253.5 174.5t283.5 113t301 40q152 0 287 -40t247.5 -113
t198.5 -174.5t140 -225t72 -264.5t-6 -293zM2170 1081q18 114 4.5 220t-53.5 199t-104.5 169.5t-147.5 131.5t-183 85.5t-212 30.5q-113 0 -222.5 -30.5t-210 -85.5t-188.5 -131.5t-157 -169.5t-116 -199t-65 -220t-5 -220t53 -199.5t103.5 -170.5t146.5 -132.5t183 -86
t213 -30.5q112 0 221.5 30.5t210.5 86t189.5 132.5t158 170.5t116.5 200t65 219.5z" />
    <glyph glyph-name="P" unicode="P" horiz-adv-x="1294" 
d="M1242 1561q15 96 -8.5 159t-74.5 100.5t-124.5 52.5t-157.5 15h-136l-105 -663h152q82 0 158 19t137 59.5t103 104.5t56 153zM480 2023q4 29 19 54.5t36.5 44.5t49 30t56.5 11h291q137 0 256 -37.5t201.5 -113.5t120 -191t13.5 -269q-24 -151 -99 -264t-182 -188
t-237 -112.5t-265 -37.5h-148l-131 -827q-5 -29 -20.5 -55t-38 -45.5t-50.5 -31t-57 -11.5q-26 0 -49 11.5t-39.5 31t-24.5 45.5t-3 55z" />
    <glyph glyph-name="Q" unicode="Q" horiz-adv-x="2339" 
d="M1914 578q104 114 168 232.5t85 254.5q18 117 6.5 225.5t-49.5 203t-100 172.5t-144.5 134t-184 86.5t-216.5 30.5q-112 0 -221.5 -30.5t-210 -85.5t-189 -131.5t-158 -169.5t-116.5 -199t-65 -220q-19 -116 -6 -223t53 -200.5t104 -170t148 -131t185 -84.5t215 -30
q111 0 227 40t235 111l-250 312q-17 20 -22.5 46.5t-1.5 54.5t18 55t38 48t52 31t55.5 9.5t52 -11.5t41.5 -33zM2210 201q17 -20 23 -46t1.5 -53t-18.5 -52.5t-37 -45.5t-49.5 -30t-52.5 -9.5t-49.5 11.5t-39.5 32l-145 172q-161 -102 -332 -155.5t-345 -53.5
q-153 0 -288.5 39.5t-247.5 111t-198.5 172.5t-139.5 224.5t-71 266t7 296.5q24 153 87 294.5t156 265t211.5 225t254.5 173.5t284.5 112t301.5 40q150 0 285 -39.5t247.5 -111.5t199 -172.5t140.5 -223t72.5 -263t-5.5 -291.5q-33 -209 -126.5 -387t-250.5 -338z" />
    <glyph glyph-name="R" unicode="R" horiz-adv-x="1479" 
d="M1282 1556q15 98 -9 162.5t-76.5 102t-126 52.5t-157.5 15h-170l-105 -663h187q79 0 155.5 19t138.5 59t105.5 102.5t57.5 150.5zM480 2023q4 29 19 54.5t36.5 44.5t49 30t56.5 11h287q96 0 186 -14.5t167 -45.5t138 -79t100 -116t53 -156.5t-4 -199.5q-20 -128 -73 -228
t-131 -173.5t-177.5 -119.5t-214.5 -64l390 -746q13 -24 18 -51t1.5 -54t-16.5 -52.5t-36 -47.5q-24 -20 -54 -30.5t-58.5 -10.5t-52 11t-35.5 34l-478 914h-62l-129 -815q-4 -28 -19.5 -53t-37.5 -44t-49 -30.5t-55 -11.5t-52 11.5t-40.5 30.5t-24.5 44t-4 53z" />
    <glyph glyph-name="S" unicode="S" horiz-adv-x="1507" 
d="M1536 623q-21 -134 -83.5 -251t-162 -204t-234 -137.5t-298.5 -50.5q-105 0 -192 22t-155 57.5t-116 81t-75 92.5q-22 39 -27 75.5t2 67.5t24 55.5t39 39.5q21 14 43.5 20.5t45 4t43 -14.5t36.5 -35q24 -35 58.5 -72t80.5 -67t103.5 -49.5t126.5 -19.5q103 0 183.5 33
t138.5 85.5t92.5 119t45.5 134.5q15 97 -10.5 165t-79 118.5t-127.5 87.5t-155 72l-120.5 52.5t-115.5 61.5t-100.5 76.5t-75.5 98t-41 126.5t4 162q22 140 86 245.5t158 176.5t210.5 107t244.5 36q105 0 181.5 -15.5t132.5 -41t94.5 -59t66.5 -68.5q46 -62 40.5 -119.5
t-57.5 -97.5q-19 -14 -42.5 -21t-49.5 -4.5t-53.5 16t-54.5 42.5q-22 24 -48 44t-60.5 34.5t-81 23t-109.5 8.5q-78 0 -142 -21.5t-112 -60t-78 -91t-40 -113.5q-12 -74 11 -128t70 -96.5t113 -76.5t141 -68l129 -61.5t124 -70.5t108 -87.5t81 -111.5t43.5 -144t-4.5 -184z
" />
    <glyph glyph-name="T" unicode="T" horiz-adv-x="1331" 
d="M1550 2163q31 0 55 -11t39.5 -30t21.5 -44.5t2 -54.5q-5 -29 -19 -53.5t-35.5 -42.5t-48.5 -28.5t-58 -10.5h-401l-281 -1769q-4 -28 -19.5 -53t-38 -44t-49.5 -30.5t-54 -11.5q-28 0 -52 11.5t-41 30.5t-25 44t-4 53l281 1769h-401q-62 0 -94.5 38.5t-23.5 96.5
q4 29 18.5 54.5t36 44.5t48.5 30t58 11h1085z" />
    <glyph glyph-name="U" unicode="U" horiz-adv-x="1835" 
d="M1712 2040q4 29 19 55.5t37 47t49.5 32.5t56.5 12q31 0 56 -12t41.5 -32.5t23.5 -47t3 -55.5l-192 -1209q-6 -40 -12.5 -77t-15.5 -74q-11 -60 -27.5 -116.5t-42.5 -111t-63 -107.5t-88 -107q-66 -66 -144.5 -117t-162.5 -85t-170.5 -51.5t-167.5 -17.5
q-131 0 -247.5 39.5t-205 112.5t-142 177.5t-57.5 235.5q-1 72 9 147t22 152l192 1209q4 29 19 55.5t37 47t49.5 32.5t56.5 12q31 0 56 -12t41.5 -32.5t23.5 -47t3 -55.5l-185 -1168q-12 -72 -20 -137t-8.5 -122.5t10 -107.5t36.5 -91q25 -42 64.5 -74t87 -53.5t99.5 -33
t103 -11.5t107.5 11.5t111.5 33t105 53.5t88 74q39 41 64 91t42.5 107.5t29 122.5l23.5 137z" />
    <glyph glyph-name="V" unicode="V" horiz-adv-x="1671" 
d="M376 1995q-5 26 1.5 54t22 52.5t39 44.5t52.5 29q28 9 55.5 7.5t51 -13t39.5 -32t21 -48.5l253 -1376l14 -148l59 148l689 1376q14 28 37 48.5t50 32t55 13t53 -7.5q26 -9 43 -29t24.5 -44.5t5 -52.5t-15.5 -54l-980 -1931q-17 -32 -48.5 -53t-68.5 -21q-35 0 -59.5 20.5
t-31.5 52.5z" />
    <glyph glyph-name="W" unicode="W" horiz-adv-x="3076" 
d="M1771 2098q19 32 50 53.5t67 21.5q38 0 63.5 -21.5t33.5 -54.5l359 -1384l24 -160l67 164l652 1372q13 28 36 48.5t50 32t55 13t53 -7.5q26 -9 43 -28.5t24.5 -44.5t5 -53t-15.5 -54l-927 -1930q-16 -33 -49 -54t-71 -21q-35 0 -59 21t-32 53l-377 1492l-20 136l-58 -136
l-848 -1491q-19 -32 -50.5 -53.5t-69.5 -21.5q-35 0 -60.5 21t-30.5 53l-310 1931q-5 26 1.5 54t22 52.5t39 44.5t52.5 29q28 9 55.5 7.5t51 -13t39.5 -32t21 -48.5l223 -1384l12 -156l69 151z" />
    <glyph glyph-name="X" unicode="X" horiz-adv-x="1511" 
d="M1434 188q10 -26 9.5 -54t-11 -54t-30 -48t-47.5 -36q-29 -14 -57.5 -17t-53.5 4t-44.5 23.5t-29.5 42.5l-291 770l-528 -770q-18 -26 -42.5 -42.5t-51.5 -23.5t-54.5 -4t-51.5 17t-36.5 36t-15 48t5.5 54t26 54l633 914l-329 872q-10 26 -9.5 54.5t11 54.5t30 48
t48.5 36q28 14 57 17t54 -4t44 -23.5t29 -42.5l276 -717l494 717q18 26 42.5 42.5t51.5 23.5t55 4t52 -17t36.5 -36t14.5 -48t-6.5 -54.5t-26.5 -54.5l-601 -872z" />
    <glyph glyph-name="Y" unicode="Y" horiz-adv-x="1737" 
d="M1160 913l-125 -790q-5 -28 -21 -53.5t-39.5 -45.5t-51 -32t-55.5 -12q-29 0 -54 12t-43 32t-27 45.5t-4 53.5l125 790l-442 1061q-10 26 -9.5 55t11 56t30 49.5t48.5 36.5q30 14 59 17t54.5 -4.5t45 -25t28.5 -44.5l371 -893l653 893q18 27 43 44.5t53 25t56 4.5t54 -17
q24 -14 36.5 -36.5t14.5 -49.5t-6.5 -56t-26.5 -55z" />
    <glyph glyph-name="Z" unicode="Z" horiz-adv-x="1634" 
d="M254 0q-37 0 -67 13.5t-50 37.5t-29 56t-3 69q5 26 16 51t28 45l1321 1616h-942q-62 0 -94.5 38.5t-23.5 96.5q4 29 18.5 54.5t36 44.5t48.5 30t58 11h1147q34 0 61.5 -12.5t46 -34.5t26.5 -51.5t2 -63.5q-4 -24 -14.5 -46.5t-25.5 -41.5l-1342 -1643h983
q29 0 52.5 -10.5t38.5 -29t21 -43t2 -52.5q-5 -29 -18.5 -54t-34.5 -43t-47.5 -28t-55.5 -10h-1159z" />
    <glyph glyph-name="bracketleft" unicode="[" horiz-adv-x="819" 
d="M172 -487q-29 0 -52 10.5t-38 29t-21.5 43t-1.5 52.5l401 2531q4 28 18 52.5t35 43t47.5 29t55.5 10.5h360q29 0 52 -10.5t38 -29t21.5 -43t2.5 -52.5q-5 -29 -19 -54t-35 -43t-47.5 -28t-55.5 -10h-225l-358 -2261h225q29 0 52 -11t38 -29.5t21.5 -43t2.5 -51.5
q-5 -29 -19 -54t-35 -43t-47.5 -28t-55.5 -10h-360z" />
    <glyph glyph-name="backslash" unicode="\" horiz-adv-x="1876" 
d="M1708 127q9 -21 8 -45.5t-10 -48t-26 -44t-41 -34.5q-25 -12 -51.5 -14.5t-49.5 3.5t-41 20.5t-27 35.5l-893 2273q-20 50 1 97t75 75q25 12 49.5 15t45.5 -3.5t38 -22t27 -38.5z" />
    <glyph glyph-name="bracketright" unicode="]" horiz-adv-x="819" 
d="M132 -487q-29 0 -52.5 10t-38.5 28t-21 43t-1 54q4 27 18 51.5t35 43t47.5 29.5t55.5 11h225l358 2261h-225q-29 0 -52.5 10t-38.5 28t-21 43t-1 54q4 28 18 52.5t35 43t47.5 29t55.5 10.5h360q29 0 52 -10.5t38 -29t21.5 -43t2.5 -52.5l-401 -2531q-5 -28 -19 -52.5
t-35 -43t-47.5 -29t-55.5 -10.5h-360z" />
    <glyph glyph-name="asciicircum" unicode="^" horiz-adv-x="1688" 
d="M1740 954q7 -23 4.5 -48t-14.5 -48t-32 -42t-46 -30q-25 -12 -50 -13t-46 7t-37.5 24.5t-25.5 39.5l-352 1036l-676 -1036q-16 -23 -38 -39.5t-46 -24.5t-48 -7t-45 13q-23 11 -37 30t-18.5 42.5t0.5 48t20 47.5l775 1189q29 45 74.5 72t96.5 27q52 0 89 -26.5t51 -69.5z
" />
    <glyph glyph-name="underscore" unicode="_" horiz-adv-x="1552" 
d="M58 -385q-55 0 -87.5 33.5t-23.5 89.5q4 28 18 51t34 40t45 26.5t53 9.5h1315q27 0 49.5 -9.5t37.5 -26.5t21.5 -40t2.5 -51q-5 -28 -18.5 -50.5t-33.5 -38.5t-45.5 -25t-52.5 -9h-1315z" />
    <glyph glyph-name="grave" unicode="`" horiz-adv-x="836" 
d="M481 1901q-18 24 -20 53t8.5 57t32.5 54t53 44q29 19 59.5 25.5t58 1.5t50 -21t35.5 -42l189 -385q21 -44 0 -90.5t-72 -77.5q-44 -25 -85 -14.5t-69 50.5z" />
    <glyph glyph-name="a" unicode="a" horiz-adv-x="1753" 
d="M1461 774q17 109 -3.5 201.5t-76 159.5t-143.5 105t-205 38q-106 0 -202.5 -42.5t-173.5 -114t-129 -165t-68 -194.5q-17 -109 2 -206.5t72.5 -171t139 -116.5t201.5 -43q118 0 217.5 42.5t175 117t125.5 174.5t68 215zM1613 106q-4 -27 -18.5 -51.5t-36 -43t-47.5 -29.5
t-54 -11q-27 0 -50 11t-38.5 29.5t-22.5 43t-3 51.5l7 41q-224 -176 -511 -176q-120 0 -219 28.5t-177 81t-133.5 125t-88 160.5t-40.5 188.5t9 207.5t56.5 206t99 184.5t137.5 155.5t171 120t199.5 77t224.5 27q289 0 464 -172l6 37q4 27 18.5 51.5t36 43t48 29.5t53.5 11
q28 0 50.5 -11t38 -29.5t22.5 -43t3 -51.5z" />
    <glyph glyph-name="b" unicode="b" horiz-adv-x="1757" 
d="M1538 766q16 103 -6 197t-77 166t-139 114.5t-191 42.5q-122 0 -222.5 -39t-176.5 -108.5t-124.5 -165t-66.5 -207.5t0.5 -210t71.5 -170.5t139 -114.5t203 -42t217 43t177 116.5t127.5 171t67.5 206.5zM520 2327q4 27 19 51.5t36 43t47 29.5t54 11q29 0 53 -11t40 -29.5
t22.5 -43t2.5 -51.5l-151 -951q58 43 121 74t129 51t134 29.5t134 9.5q178 0 311.5 -59.5t216.5 -163.5t114.5 -245.5t5.5 -305.5q-17 -108 -57 -208t-100.5 -188t-139.5 -160.5t-173.5 -125t-202.5 -81t-227 -28.5q-133 0 -253.5 43.5t-205.5 133.5l-7 -41
q-5 -28 -19.5 -52.5t-36 -43t-48.5 -29.5t-56 -11q-28 0 -51 11t-38.5 29.5t-22.5 43t-2 52.5z" />
    <glyph glyph-name="c" unicode="c" horiz-adv-x="1446" 
d="M1364 102q-47 -29 -105 -53.5t-122 -42.5t-132 -28.5t-134 -10.5q-116 0 -216.5 28t-182 78.5t-142.5 122t-98 159t-48.5 188.5t5.5 211q17 108 61 208t109 186.5t149 157t181.5 121t206 78t223.5 27.5q66 0 131 -9.5t123.5 -27t108.5 -42.5t87 -56q41 -34 48.5 -82.5
t-28.5 -97.5q-18 -25 -41.5 -41t-49 -22.5t-50.5 -2.5t-46 20q-24 18 -58.5 37.5t-77.5 36t-91.5 27t-99.5 10.5q-112 0 -215.5 -43t-186 -115.5t-138 -168t-72.5 -201.5t8.5 -202.5t84.5 -170t149 -117t202 -43.5q51 0 103.5 9t100.5 24t88.5 34.5t68.5 39.5
q24 18 50.5 22.5t50.5 -2.5t43 -24t29 -41q20 -50 -3 -98.5t-74 -82.5z" />
    <glyph glyph-name="d" unicode="d" horiz-adv-x="1757" 
d="M461 766q-17 -109 2.5 -206.5t73 -171t140 -116.5t203.5 -43t216 42t174.5 114.5t125.5 170.5t68 210t-1 207.5t-73 165t-142 108.5t-209 39q-108 0 -205.5 -42.5t-175 -114.5t-129.5 -166t-68 -197zM1623 111q-5 -28 -19.5 -52.5t-36 -43t-47.5 -29.5t-54 -11
q-29 0 -52.5 11t-39.5 29.5t-23.5 43t-2.5 52.5l7 41q-56 -45 -119 -78t-129 -55t-133.5 -33t-133.5 -11q-119 0 -218 28.5t-176.5 81t-133.5 125t-88.5 160.5t-41 188t8.5 208q26 164 101.5 305.5t192 245.5t268.5 163.5t330 59.5q66 0 130.5 -9.5t124.5 -29.5t113 -51
t97 -74l151 951q4 27 19 51.5t36.5 43t48.5 29.5t56 11q28 0 51 -11t38.5 -29.5t22.5 -43t3 -51.5z" />
    <glyph glyph-name="e" unicode="e" horiz-adv-x="1659" 
d="M451 676q-6 -106 22 -190.5t85 -143t140.5 -90t188.5 -31.5q311 12 463 238q18 24 41 41.5t48.5 25.5t51.5 6t48 -16t35 -34.5t15.5 -45t-4.5 -50.5t-25 -50q-48 -74 -125 -141t-173 -117.5t-206.5 -80.5t-225.5 -30q-177 0 -308.5 63.5t-214 171.5t-113 251t-5.5 301
q16 103 55.5 201t99 184.5t137.5 158.5t171.5 124t200.5 81t225 29q150 0 276.5 -54.5t213.5 -151.5t125.5 -231.5t13.5 -293.5q-4 -26 -17.5 -48.5t-33 -39.5t-43.5 -27t-50 -10h-1112zM1449 926q-11 75 -44.5 139.5t-86.5 111.5t-123.5 74t-156.5 27t-167.5 -27
t-151.5 -74t-126 -111.5t-91 -139.5h947z" />
    <glyph glyph-name="f" unicode="f" horiz-adv-x="774" 
d="M1069 2200q-15 5 -38 6.5t-51 1.5q-74 0 -115.5 -30.5t-63.5 -77.5t-30.5 -104.5t-17.5 -111.5l-62 -389h254q26 0 47.5 -10t36 -27.5t21 -40.5t2.5 -49t-18 -49.5t-34 -40.5t-44.5 -27t-50.5 -10h-254l-179 -1130q-5 -28 -19.5 -52.5t-36.5 -43t-49 -29.5t-56 -11
q-27 0 -50 11t-39 29.5t-23 43t-2 52.5l179 1130h-53q-26 0 -47.5 10t-36 27t-21 40.5t-2.5 49.5t17.5 49t33.5 40.5t45 27.5t51 10h53l63 397q6 37 14.5 83.5t22.5 96t35 98.5t53 91q37 51 84.5 88.5t101 62.5t110 37.5t112.5 12.5q37 0 83 -5.5t92 -27.5q21 -9 36 -26.5
t22 -39t5.5 -45t-13.5 -45.5q-12 -23 -31.5 -39.5t-42.5 -26t-47.5 -11.5t-46.5 4z" />
    <glyph glyph-name="g" unicode="g" horiz-adv-x="1757" 
d="M1464 766q17 106 -4.5 198t-77.5 160t-144.5 107t-205.5 39q-106 0 -202 -42.5t-172.5 -114.5t-128 -166t-67.5 -197q-17 -111 2.5 -209t72.5 -172t139 -117t201 -43q120 0 219.5 43.5t175 118.5t125 176.5t67.5 218.5zM30 -225q-1 26 9 51.5t27.5 46.5t41.5 36t52 21
q28 5 53 -0.5t44 -19.5t30.5 -36t12.5 -50q0 -72 29.5 -140t84 -120.5t133 -84.5t176.5 -32q113 0 199.5 26t152 72.5t112.5 110t79.5 139.5t53.5 161.5t35 174.5q-121 -87 -256.5 -131.5t-275.5 -44.5q-115 0 -211 30t-172 83t-131 126.5t-87.5 161t-41.5 185.5t7 200
q17 107 59 207t104.5 187t143 158.5t175.5 123t202 79.5t222 28q282 0 455 -176l8 49q4 27 18.5 51.5t36 43t48 29.5t53.5 11q28 0 51 -11t38.5 -29.5t22.5 -43t3 -51.5l-204 -1285q-19 -122 -54.5 -237t-90 -216.5t-129 -186.5t-171 -146t-217 -95t-266.5 -34
q-148 0 -275 43.5t-221 132.5q-47 43 -79.5 93t-52.5 102t-28.5 105t-8.5 102z" />
    <glyph glyph-name="h" unicode="h" horiz-adv-x="1536" 
d="M521 2331q4 27 18.5 51.5t36 43t47.5 29.5t54 11q27 0 50 -11t38.5 -29.5t22.5 -43t3 -51.5l-149 -938q94 71 198 107t218 36q112 0 194 -21.5t139 -61.5t90.5 -97t48.5 -128.5t12.5 -156t-17.5 -178.5l-124 -782q-5 -28 -19.5 -52.5t-36 -43t-48.5 -29.5t-56 -11
q-28 0 -51 11t-38.5 29.5t-22.5 43t-2 52.5l124 782q15 92 15 164.5t-25 122.5t-81 76t-154 26q-117 0 -198 -44.5t-135 -119.5t-85.5 -173t-48.5 -204l-100 -630q-5 -28 -19.5 -52.5t-35.5 -43t-47.5 -29.5t-53.5 -11q-28 0 -51 11t-38.5 29.5t-22.5 43t-2 52.5z" />
    <glyph glyph-name="i" unicode="i" horiz-adv-x="614" 
d="M821 2007q-6 -42 -27 -77t-51.5 -60.5t-68.5 -40t-80 -14.5q-41 0 -74 14.5t-54.5 40t-30.5 60.5t-3 77q6 38 26.5 73t50.5 61.5t67.5 42.5t78.5 16q42 0 75.5 -16t55.5 -42.5t31.5 -61.5t3.5 -73zM385 1376q5 29 20 54.5t36.5 44.5t49 30t56.5 11t52.5 -11t39.5 -30
t22.5 -44.5t1.5 -54.5l-199 -1257q-5 -29 -19.5 -54.5t-36.5 -44.5t-49 -29.5t-56 -10.5t-53 10.5t-39.5 29.5t-22.5 44.5t-2 54.5z" />
    <glyph glyph-name="j" unicode="j" horiz-adv-x="614" 
d="M821 2007q-6 -42 -27 -77t-51.5 -60.5t-68.5 -40t-80 -14.5q-41 0 -74 14.5t-54.5 40t-30.5 60.5t-3 77q6 38 26.5 73t50.5 61.5t67.5 42.5t78.5 16q42 0 75.5 -16t55.5 -42.5t31.5 -61.5t3.5 -73zM385 1376q5 29 20 54.5t36.5 44.5t49 30t56.5 11t52.5 -11t39.5 -30
t22.5 -44.5t1.5 -54.5l-338 -2134q-5 -29 -19.5 -54.5t-36.5 -44.5t-49 -29.5t-56 -10.5t-53 10.5t-39.5 29.5t-22.5 44.5t-2 54.5z" />
    <glyph glyph-name="k" unicode="k" horiz-adv-x="1413" 
d="M1306 205q17 -20 21 -46t-2.5 -52.5t-22.5 -51.5t-39 -43q-23 -17 -48.5 -24t-50 -4.5t-46.5 14t-37 31.5l-530 639l-14 -13l-85 -536q-5 -29 -19.5 -54.5t-36.5 -44.5t-49 -29.5t-56 -10.5t-52 10.5t-38 29.5t-21.5 44.5t-1.5 54.5l350 2208q4 29 18.5 54.5t35.5 44
t47.5 29.5t55.5 11t52.5 -11t39.5 -29.5t22.5 -44t2.5 -54.5l-205 -1295l655 438q24 16 51 26.5t53 13t49.5 -5t40.5 -26.5q16 -19 24 -43.5t5.5 -50t-16 -49.5t-38.5 -41l-656 -446z" />
    <glyph glyph-name="l" unicode="l" horiz-adv-x="614" 
d="M537 2331q4 29 19 54.5t36.5 44t49 29.5t56.5 11t52.5 -11t39.5 -29.5t22.5 -44t2.5 -54.5l-351 -2212q-5 -29 -19.5 -54.5t-36.5 -44.5t-49 -29.5t-56 -10.5t-53 10.5t-39.5 29.5t-22.5 44.5t-2 54.5z" />
    <glyph glyph-name="m" unicode="m" horiz-adv-x="2277" 
d="M378 1380q4 26 18 50.5t35 43.5t48 30.5t56 11.5q28 0 50.5 -11.5t38 -30.5t22 -43.5t2.5 -50.5l-4 -24q86 93 180.5 134.5t187.5 41.5q130 0 220.5 -52t141.5 -145q103 105 218.5 151t238.5 46q112 0 190.5 -24t130.5 -67.5t80.5 -102.5t39 -129.5t6 -148.5t-17.5 -159
l-123 -778q-5 -29 -20 -55t-37.5 -45.5t-50.5 -31t-59 -11.5q-29 0 -52 11.5t-38 31t-21 45.5t-1 55l126 795q13 86 13.5 153t-20 113t-65.5 70t-121 24q-106 0 -174 -35.5t-110.5 -96.5t-65 -143t-37.5 -176l-114 -721q-4 -26 -18.5 -50.5t-36 -43t-48 -30t-53.5 -11.5
q-29 0 -52 11.5t-38 30t-21.5 43t-2.5 50.5l123 775q14 89 15 162t-20 125.5t-68.5 81t-130.5 28.5q-58 0 -106.5 -21.5t-88 -58t-70 -85t-53.5 -103t-38.5 -112.5t-24.5 -112l-106 -667q-4 -28 -19 -53t-36.5 -44t-49 -30.5t-56.5 -11.5t-52 11.5t-38 30.5t-21 44t-2 53z
" />
    <glyph glyph-name="n" unicode="n" horiz-adv-x="1524" 
d="M1230 885q16 104 9.5 177.5t-35.5 119.5t-80.5 67t-123.5 21q-63 0 -117.5 -20.5t-101.5 -56t-85 -83t-66.5 -102t-48 -113t-28.5 -114.5l-105 -662q-4 -28 -18 -53t-35 -44t-48 -30.5t-56 -11.5t-52 11.5t-38 30.5t-21 44t-2 53l200 1261q4 26 18 50.5t35 43.5t48 30.5
t56 11.5q28 0 50.5 -11.5t38 -30.5t22 -43.5t2.5 -50.5l-6 -37q42 46 92 80.5t103.5 58t108.5 35t107 11.5q153 0 251.5 -47t150 -131.5t61.5 -203t-12 -261.5l-124 -779q-4 -26 -18.5 -50.5t-36.5 -43t-49 -30t-56 -11.5t-52 11.5t-38 30t-21.5 43t-2.5 50.5z" />
    <glyph glyph-name="o" unicode="o" horiz-adv-x="1733" 
d="M1783 758q-27 -168 -111 -311.5t-209 -249.5t-281 -166t-327 -60q-110 0 -206.5 28t-176 79.5t-140 123t-98 158.5t-50 187t4.5 207t61 207.5t109 187.5t148.5 159t179 123.5t201 80t215.5 28.5q114 0 213.5 -27t180.5 -77.5t142.5 -121t99.5 -157.5t49.5 -188t-5.5 -211
zM1512 754q18 115 -8 211.5t-87.5 166t-154.5 108t-208 38.5q-106 0 -204.5 -41.5t-178 -113t-133.5 -167t-71 -202.5q-17 -105 7.5 -200t81.5 -167t142 -115t190 -43q115 0 220.5 40.5t189 111.5t140 166.5t74.5 206.5z" />
    <glyph glyph-name="p" unicode="p" horiz-adv-x="1729" 
d="M1500 733q17 109 -1.5 208t-69.5 174t-131.5 119t-186.5 44q-117 0 -213 -43.5t-168.5 -118.5t-120 -176.5t-65.5 -218.5q-18 -111 1.5 -203t72 -158t136 -102.5t194.5 -36.5q103 0 196 41t166.5 111t123 163t66.5 197zM377 1376q4 28 18.5 53t35.5 44.5t48 31t56 11.5
t52.5 -11.5t39 -31t22 -44.5t2.5 -53l-3 -20q123 95 249.5 133.5t249.5 38.5q178 0 308.5 -63t211 -171t109 -252t3.5 -305q-26 -164 -100 -305.5t-187.5 -245.5t-262.5 -163.5t-326 -59.5q-126 0 -240.5 40.5t-206.5 135.5l-140 -884q-5 -26 -19.5 -50.5t-36.5 -43.5
t-49 -30.5t-56 -11.5t-52 11.5t-38 30.5t-21.5 43.5t-1.5 50.5z" />
    <glyph glyph-name="q" unicode="q" horiz-adv-x="1729" 
d="M460 733q-17 -104 3.5 -197t72 -163t131.5 -111t183 -41q111 0 206 36.5t168 102.5t121.5 158t66.5 203q18 117 3 218.5t-63.5 176.5t-131 118.5t-199.5 43.5q-106 0 -200.5 -44t-168.5 -119t-124.5 -174t-67.5 -208zM1448 -762q-4 -26 -18.5 -50.5t-35.5 -43t-47.5 -30
t-55.5 -11.5t-53 11.5t-39.5 30t-22.5 43t-3 50.5l143 901q-123 -95 -250 -135.5t-253 -40.5q-177 0 -307 59.5t-211 163.5t-110 245.5t-3 305.5q17 107 56 207.5t97.5 188.5t135.5 160.5t169.5 125t199 81t225.5 28.5q61 0 121 -9t116 -29.5t108 -53t98 -80.5l3 20
q4 28 19.5 53t37.5 44.5t49.5 31t56.5 11.5t51.5 -11.5t37.5 -31t21 -44.5t2 -53z" />
    <glyph glyph-name="r" unicode="r" horiz-adv-x="950" 
d="M1010 1215q-68 39 -126 36.5t-105.5 -34t-85.5 -85.5t-65.5 -118t-46 -131t-27.5 -124l-102 -640q-4 -28 -19 -53t-36.5 -44t-49 -30.5t-56.5 -11.5t-52 11.5t-38 30.5t-21 44t-2 53l199 1257q4 28 18.5 53t35.5 44.5t48 31t56 11.5t52.5 -11.5t39 -31t22 -44.5t2.5 -53
l-3 -20q82 84 169.5 126.5t178.5 42.5q89 0 176 -42q26 -12 42 -34t22 -49.5t0.5 -58t-21.5 -59.5q-17 -26 -41.5 -45.5t-52.5 -29t-57 -8.5t-54 16z" />
    <glyph glyph-name="s" unicode="s" horiz-adv-x="1167" 
d="M108 377q-6 56 18 103t83 69q30 11 58 11t50.5 -10t37.5 -30t18 -49q8 -57 28 -103t52 -79t75 -50.5t97 -17.5q49 0 95.5 19t84.5 51.5t64.5 76.5t34.5 95q7 45 -2.5 76t-33.5 54.5t-62.5 42t-89.5 36.5q-52 19 -103.5 41.5t-98 50.5t-84.5 61.5t-63 76.5t-35 95t0 117
q15 95 63.5 172.5t118.5 132t155.5 84t174.5 29.5q60 0 118.5 -19t108.5 -51.5t87 -76.5t54 -95q16 -52 -0.5 -104.5t-70.5 -83.5q-26 -14 -52 -18t-49 2t-42 21t-31 40q-12 29 -30.5 52.5t-41 40t-47 25.5t-49.5 9q-32 0 -63.5 -12t-57.5 -32.5t-44 -47.5t-22 -56
q-5 -30 7 -55t35 -46.5t54 -39.5t64.5 -33l66.5 -28.5l60 -24.5q69 -30 127 -68t96.5 -90t54.5 -121t1 -161q-18 -111 -73 -202t-135.5 -156.5t-180 -101.5t-205.5 -36q-98 0 -180.5 32.5t-144.5 88.5t-101 131.5t-50 161.5z" />
    <glyph glyph-name="t" unicode="t" horiz-adv-x="881" 
d="M583 1921q4 28 18.5 52.5t36 43t47.5 29t54 10.5q29 0 53 -10.5t39.5 -29t22.5 -43t3 -52.5l-68 -426h201q27 0 49.5 -10t37.5 -27.5t21.5 -41.5t2.5 -52q-5 -26 -19 -49.5t-34.5 -40.5t-46 -27t-52.5 -10h-201l-178 -1126q-5 -28 -19.5 -52.5t-36 -43t-48.5 -29.5
t-56 -11q-28 0 -51 11t-38.5 29.5t-22.5 43t-2 52.5l178 1126h-111q-28 0 -50 10t-37 27t-21.5 40.5t-1.5 49.5q4 28 18 52t34 41.5t45.5 27.5t53.5 10h111z" />
    <glyph glyph-name="u" unicode="u" horiz-adv-x="1524" 
d="M1452 561q-13 -83 -46.5 -160t-83.5 -144t-113.5 -121.5t-136.5 -94t-153.5 -61t-163.5 -21.5t-156.5 21.5t-134 61t-107 94t-75 121.5t-38 144t3.5 160l131 823q4 28 18.5 52.5t36 43t47.5 29.5t54 11t50.5 -11t38 -29.5t22.5 -43t3 -52.5l-133 -839q-11 -69 5 -129
t53 -104.5t93 -69.5t125 -25t133.5 25t116.5 69.5t87.5 104.5t46.5 129l132 835q4 29 19 54.5t36.5 44.5t47.5 30t54 11q29 0 52.5 -11t39.5 -30t22.5 -44.5t2.5 -54.5z" />
    <glyph glyph-name="v" unicode="v" horiz-adv-x="1413" 
d="M251 1327q-8 28 -5 55t15 50.5t32.5 41.5t46.5 29q57 25 103 5.5t63 -74.5l281 -963l570 963q16 27 39 46t49 28t53 8t51 -13q22 -11 36 -30t18.5 -43t-1 -51.5t-21.5 -55.5l-750 -1260q-19 -32 -52 -52.5t-71 -20.5q-37 0 -63 20t-36 52z" />
    <glyph glyph-name="w" unicode="w" horiz-adv-x="2367" 
d="M1318 1438q17 30 46.5 48.5t63.5 18.5q35 0 59.5 -19t32.5 -49l247 -962l552 955q17 27 40 46t48 28t50.5 8t48.5 -13q46 -22 56.5 -71t-22.5 -105l-736 -1262q-19 -32 -51.5 -51.5t-68.5 -19.5q-37 0 -63.5 20t-35.5 52l-245 929l-519 -928q-17 -33 -51 -53t-71 -20
q-39 0 -66 20.5t-36 53.5l-348 1255q-8 29 -4.5 57.5t16.5 53t34 43.5t49 30q28 12 55 13t49.5 -8.5t39.5 -29t25 -48.5l262 -955z" />
    <glyph glyph-name="x" unicode="x" horiz-adv-x="1393" 
d="M1362 197q13 -20 16.5 -45t-3 -50.5t-21.5 -49t-38 -40.5q-24 -18 -52 -26t-54 -6t-48.5 13.5t-36.5 31.5l-341 557l-519 -557q-20 -20 -45 -31.5t-51 -13.5t-50.5 6t-43.5 26q-17 17 -25 39.5t-6.5 47.5t12.5 49.5t31 44.5l558 598l-332 516q-14 20 -17 43.5t3 47.5
t20.5 46t37.5 39q24 18 50.5 26t51.5 6t45.5 -13.5t34.5 -31.5l313 -479l449 475q20 22 45.5 34t52 14.5t52 -5.5t45.5 -26q17 -18 25 -42t6 -49t-13 -49.5t-31 -44.5l-481 -507z" />
    <glyph glyph-name="y" unicode="y" horiz-adv-x="1602" 
d="M517 -819q-15 -26 -38.5 -44t-49.5 -27t-53.5 -8t-49.5 13q-23 12 -36.5 32t-17.5 44t1.5 51t20.5 53l388 668l-428 1360q-8 26 -5 53t15 51t32.5 44t47.5 32t53.5 12.5t50 -8.5t41 -27t25.5 -42l368 -1147l668 1147q16 24 39.5 42t50 27t52.5 8.5t49 -12.5
q22 -12 36.5 -32t19 -44t-1 -51t-21.5 -53z" />
    <glyph glyph-name="z" unicode="z" horiz-adv-x="1450" 
d="M224 0q-32 0 -58.5 12.5t-44.5 33.5t-26 49.5t-3 60.5q5 29 19.5 55t35.5 47l1028 983h-754q-26 0 -47.5 10t-36 27t-21 40.5t-2.5 49.5t18 49t34 40.5t44.5 27.5t50.5 10h1010q30 0 55 -11.5t42 -31.5t24.5 -47t2.5 -57q-5 -28 -18.5 -52t-33.5 -44l-1036 -998h799
q26 0 47.5 -10t36 -27.5t21 -40.5t2.5 -49t-18 -49.5t-34 -40.5t-44.5 -27t-50.5 -10h-1042z" />
    <glyph glyph-name="braceleft" unicode="{" horiz-adv-x="844" 
d="M612 -475q-91 7 -161.5 36t-115 87t-59.5 149t6 222l78 493q7 48 2 93.5t-24 86t-52.5 74.5t-81.5 57l30 189q118 51 175 127.5t72 171.5l81 508q21 132 66.5 222t109.5 145.5t143 82.5t167 33q27 2 51 -6t42 -23.5t29 -37.5t12 -48q-1 -26 -13 -51t-31 -45.5t-44.5 -34
t-53.5 -16.5q-39 -5 -72 -10.5t-58 -21t-42 -44.5t-25 -80l-79 -495q-15 -97 -38 -169.5t-53.5 -128.5t-69.5 -98.5t-86 -79.5q36 -37 60 -80.5t36 -101.5t11 -132.5t-16 -172.5l-77 -487q-9 -54 -0.5 -84.5t29.5 -46t52.5 -20t69.5 -5.5q27 -2 48.5 -15t34 -33.5
t16.5 -45.5t-3 -49q-9 -26 -27 -48t-40.5 -37.5t-48.5 -23.5t-50 -6z" />
    <glyph glyph-name="bar" unicode="|" horiz-adv-x="856" 
d="M651 2273q4 29 18.5 54.5t35.5 44.5t47.5 30t55.5 11t52.5 -11t39.5 -30t22.5 -44.5t2.5 -54.5l-346 -2183q-5 -29 -19.5 -54.5t-36.5 -44.5t-49 -29.5t-56 -10.5t-52.5 10.5t-38.5 29.5t-21 44.5t-1 54.5z" />
    <glyph glyph-name="braceright" unicode="}" horiz-adv-x="844" 
d="M79 -475q-25 -2 -48 6t-41 23.5t-28.5 37.5t-11.5 48q1 24 13 49t31 45.5t44 34t53 14.5q39 2 72.5 8t59.5 23.5t44 48.5t26 83l76 480q15 98 38 172.5t53 132.5t68.5 101.5t85.5 80.5q-35 37 -60.5 79.5t-38.5 98.5t-13 128.5t15 169.5l79 495q8 51 0 80t-28 44.5
t-50.5 21t-68.5 10.5q-27 3 -48.5 16.5t-34.5 34t-17 45.5t4 51t26 48t41.5 37.5t50 23.5t52.5 6q86 -6 156.5 -33t117 -82.5t64 -145.5t-3.5 -222l-81 -508q-15 -95 18.5 -171.5t134.5 -127.5l-30 -189q-56 -23 -100 -57t-75.5 -74.5t-51.5 -86t-27 -93.5l-78 -493
q-21 -131 -65 -222t-107 -149t-143 -87t-173 -36z" />
    <glyph glyph-name="asciitilde" unicode="~" horiz-adv-x="1765" 
d="M1544 958q19 25 44 41.5t51.5 24.5t53 6t48.5 -14q22 -15 35.5 -38t16.5 -49t-4 -53.5t-25 -52.5q-21 -28 -50 -62t-65.5 -69.5t-79.5 -69t-90.5 -60t-100 -42.5t-107.5 -16t-104.5 16.5t-96 41t-91 53t-89.5 53t-92 41t-98 16.5q-31 0 -61.5 -13t-60.5 -35.5
t-59.5 -53.5t-57.5 -66q-19 -23 -44 -38t-52 -21t-53 -1.5t-47 19.5q-22 15 -34 38t-14.5 48.5t6 52.5t27.5 50l53 56t68 66t80 66.5t91 58t99 41t104 15.5q55 0 111 -16t110 -40t105 -52.5l96.5 -52.5t84.5 -40t69 -16q29 0 56 11.5t54 33.5t54.5 53z" />
    <glyph glyph-name="sarainarrowthai" 
d="M108 2388q26 0 48 -10t37.5 -27.5t22 -41.5t2.5 -52q-5 -28 -19 -51t-35 -40t-46 -26.5t-51 -9.5h-1191q-26 0 -48.5 9.5t-38 26.5t-22.5 40t-2 51q4 28 18.5 52t35.5 41.5t46.5 27.5t51.5 10h1191z" />
    <glyph glyph-name="saraiinarrowthai" 
d="M-1124 2130q-26 0 -48.5 9.5t-38 26.5t-22.5 40t-2 51q4 28 18.5 52t35.5 41.5t46.5 27.5t51.5 10h1040l21 135q4 28 18.5 52.5t35.5 43t46 29t51 10.5t47.5 -10.5t36 -29t20.5 -43t2 -52.5l-42 -266q-5 -28 -19 -51t-34.5 -40t-46 -26.5t-51.5 -9.5h-1166z" />
    <glyph glyph-name="sarauenarrowthai" 
d="M69 2380q3 17 -1.5 32.5t-14.5 27.5t-24.5 19t-30.5 7q-17 0 -33.5 -7t-30.5 -19t-23.5 -27.5t-12.5 -32.5t2 -32.5t15 -27.5t24.5 -19t31.5 -7q16 0 32.5 7t30 19t23 27.5t12.5 32.5zM-264 2388q10 54 37 99t66 77.5t87 51t98 18.5q54 0 97 -19t72 -52.5t41.5 -79
t3.5 -99.5t-36 -100t-66.5 -80.5t-88 -54t-98.5 -19.5h-1073q-26 0 -48.5 9.5t-38 26.5t-22.5 40t-2 51q4 28 18.5 52t35.5 41.5t46.5 27.5t51.5 10h819z" />
    <glyph glyph-name="saraueenarrowthai" 
d="M-1120 2130q-26 0 -48.5 9.5t-38 26.5t-22.5 40t-2 51q4 28 18.5 52t35.5 41.5t46.5 27.5t51.5 10h602l21 135q4 28 18.5 52.5t35.5 43t46.5 29t51.5 10.5t47.5 -10.5t36 -29t20.5 -43t2 -52.5l-21 -135h176l21 135q4 28 18.5 52.5t35.5 43t46 29t51 10.5t47.5 -10.5
t36 -29t20.5 -43t2 -52.5l-42 -266q-5 -28 -19 -51t-34.5 -40t-46 -26.5t-51.5 -9.5h-1162z" />
    <glyph glyph-name="sarauchochanthai" 
d="M-636 -659q-4 -26 -18 -50t-34.5 -42t-45 -29t-50.5 -11t-48.5 11t-37.5 29t-22 42t-3 50l38 237h-94q-55 0 -88 33.5t-24 89.5q4 28 18 50t34 37.5t45.5 23.5t52.5 8h226q26 0 47.5 -10t36 -27.5t21 -40.5t2.5 -49z" />
    <glyph glyph-name="sarauuchochanthai" 
d="M-937 -180q27 0 49.5 -10t37.5 -28t21 -42t2 -51l-31 -197q-6 -40 16.5 -69t62.5 -29q46 0 76.5 29t36.5 69l34 217q4 26 18.5 50t35.5 42t46.5 28.5t51.5 10.5t47.5 -10.5t36 -28.5t20.5 -42t2 -50l-34 -217q-12 -74 -50 -139t-93.5 -113t-124 -76t-140.5 -28
q-74 0 -135 25t-102 71.5t-58.5 112.5t-4.5 147l10 66h-54q-27 0 -49.5 10t-37 27.5t-21 41.5t-2.5 52q4 27 18.5 51t35 42t46 28t52.5 10h181z" />
    <glyph glyph-name="saraileftthai" 
d="M-317 2388q26 0 48 -10t37.5 -27.5t22 -41.5t2.5 -52q-5 -28 -19 -51t-35 -40t-46 -26.5t-51 -9.5h-967q-26 0 -48.5 9.5t-38 26.5t-22.5 40t-2 51q4 28 18.5 52t35.5 41.5t46.5 27.5t51.5 10h967z" />
    <glyph glyph-name="saraileftthai" unicode="&#xf701;" 
d="M-317 2388q26 0 48 -10t37.5 -27.5t22 -41.5t2.5 -52q-5 -28 -19 -51t-35 -40t-46 -26.5t-51 -9.5h-967q-26 0 -48.5 9.5t-38 26.5t-22.5 40t-2 51q4 28 18.5 52t35.5 41.5t46.5 27.5t51.5 10h967z" />
    <glyph glyph-name="saraiileftthai" 
d="M-1325 2130q-26 0 -48.5 9.5t-38 26.5t-22.5 40t-2 51q4 28 18.5 52t35.5 41.5t46.5 27.5t51.5 10h815l21 135q4 28 19 52.5t36 43t46 29t51 10.5t48.5 -10.5t37.5 -29t21.5 -43t2.5 -52.5l-42 -266q-5 -28 -19 -51t-35 -40t-46 -26.5t-51 -9.5h-946z" />
    <glyph glyph-name="saraiileftthai" unicode="&#xf702;" 
d="M-1325 2130q-26 0 -48.5 9.5t-38 26.5t-22.5 40t-2 51q4 28 18.5 52t35.5 41.5t46.5 27.5t51.5 10h815l21 135q4 28 19 52.5t36 43t46 29t51 10.5t48.5 -10.5t37.5 -29t21.5 -43t2.5 -52.5l-42 -266q-5 -28 -19 -51t-35 -40t-46 -26.5t-51 -9.5h-946z" />
    <glyph glyph-name="saraueleftthai" 
d="M-340 2380q3 17 -1.5 32.5t-14.5 27.5t-24.5 19t-31.5 7t-33.5 -7t-30.5 -19t-23.5 -27.5t-12.5 -32.5t2 -32.5t15 -27.5t24.5 -19t31.5 -7t33.5 7t30 19t23 27.5t12.5 32.5zM-674 2388q10 54 37.5 99t66.5 77.5t86.5 51t98.5 18.5q54 0 97.5 -19t72 -52.5t41 -79
t3.5 -99.5t-36 -100t-67 -80.5t-88 -54t-99 -19.5h-864q-26 0 -48.5 9.5t-38 26.5t-22.5 40t-2 51q4 28 18.5 52t35.5 41.5t46.5 27.5t51.5 10h610z" />
    <glyph glyph-name="saraueleftthai" unicode="&#xf703;" 
d="M-340 2380q3 17 -1.5 32.5t-14.5 27.5t-24.5 19t-31.5 7t-33.5 -7t-30.5 -19t-23.5 -27.5t-12.5 -32.5t2 -32.5t15 -27.5t24.5 -19t31.5 -7t33.5 7t30 19t23 27.5t12.5 32.5zM-674 2388q10 54 37.5 99t66.5 77.5t86.5 51t98.5 18.5q54 0 97.5 -19t72 -52.5t41 -79
t3.5 -99.5t-36 -100t-67 -80.5t-88 -54t-99 -19.5h-864q-26 0 -48.5 9.5t-38 26.5t-22.5 40t-2 51q4 28 18.5 52t35.5 41.5t46.5 27.5t51.5 10h610z" />
    <glyph glyph-name="saraueeleftthai" 
d="M-1325 2130q-26 0 -48.5 9.5t-38 26.5t-22.5 40t-2 51q4 28 18.5 52t35.5 41.5t46.5 27.5t51.5 10h393l21 135q4 28 18 52.5t34.5 43t45 29t50.5 10.5t47.5 -10.5t36 -29t20.5 -43t2 -52.5l-21 -135h176l21 135q4 28 18 52.5t34.5 43t45 29t50.5 10.5t47.5 -10.5t36 -29
t20.5 -43t2 -52.5l-42 -266q-5 -28 -19 -51t-35 -40t-46 -26.5t-51 -9.5h-946z" />
    <glyph glyph-name="saraueeleftthai" unicode="&#xf704;" 
d="M-1325 2130q-26 0 -48.5 9.5t-38 26.5t-22.5 40t-2 51q4 28 18.5 52t35.5 41.5t46.5 27.5t51.5 10h393l21 135q4 28 18 52.5t34.5 43t45 29t50.5 10.5t47.5 -10.5t36 -29t20.5 -43t2 -52.5l-21 -135h176l21 135q4 28 18 52.5t34.5 43t45 29t50.5 10.5t47.5 -10.5t36 -29
t20.5 -43t2 -52.5l-42 -266q-5 -28 -19 -51t-35 -40t-46 -26.5t-51 -9.5h-946z" />
    <glyph glyph-name="maieklowleftthai" 
d="M-627 2630q4 27 19 51.5t36 43t47 29.5t54 11q27 0 49.5 -11t37.5 -29.5t21 -43t2 -51.5l-58 -369q-5 -28 -19 -52.5t-34.5 -43t-46.5 -29t-53 -10.5q-28 0 -50.5 10.5t-38 29t-22.5 43t-2 52.5z" />
    <glyph glyph-name="maieklowleftthai" unicode="&#xf705;" 
d="M-627 2630q4 27 19 51.5t36 43t47 29.5t54 11q27 0 49.5 -11t37.5 -29.5t21 -43t2 -51.5l-58 -369q-5 -28 -19 -52.5t-34.5 -43t-46.5 -29t-53 -10.5q-28 0 -50.5 10.5t-38 29t-22.5 43t-2 52.5z" />
    <glyph glyph-name="maitholowleftthai" 
d="M-945 2482q-23 -11 -46 -15.5t-44 -1.5t-38 13.5t-28 28.5t-12 40.5t6.5 44t23 41t36.5 33.5q82 50 175 50q66 0 119 -22.5t88 -61.5t50 -92.5t5 -114.5q-3 -16 -8 -30t-13 -28q3 0 15.5 1.5t41.5 3.5h327q26 0 47.5 -10t36 -27.5t21 -40.5t2.5 -49t-17.5 -48.5
t-33.5 -39t-44.5 -26t-50.5 -9.5h-807l36.5 43.5l48.5 56.5l52 61l47.5 58t35.5 47t15 29q6 37 -5.5 57.5t-38.5 20.5q-10 0 -22 -4t-21 -9z" />
    <glyph glyph-name="maitholowleftthai" unicode="&#xf706;" 
d="M-945 2482q-23 -11 -46 -15.5t-44 -1.5t-38 13.5t-28 28.5t-12 40.5t6.5 44t23 41t36.5 33.5q82 50 175 50q66 0 119 -22.5t88 -61.5t50 -92.5t5 -114.5q-3 -16 -8 -30t-13 -28q3 0 15.5 1.5t41.5 3.5h327q26 0 47.5 -10t36 -27.5t21 -40.5t2.5 -49t-17.5 -48.5
t-33.5 -39t-44.5 -26t-50.5 -9.5h-807l36.5 43.5l48.5 56.5l52 61l47.5 58t35.5 47t15 29q6 37 -5.5 57.5t-38.5 20.5q-10 0 -22 -4t-21 -9z" />
    <glyph glyph-name="maitrilowleftthai" 
d="M-1346 2159q-11 13 -25.5 35.5t-26.5 52.5t-17.5 66.5t0.5 78.5q10 66 45.5 125t87 103t115.5 70t132 26q55 0 104.5 -17.5t82.5 -60.5q54 43 108 60.5t110 17.5q66 0 122 -22.5t94.5 -63.5t56 -97.5t6.5 -124.5q-2 -14 -6.5 -26.5t-9.5 -22.5h127q23 0 42 -9.5
t32.5 -25.5t19 -37.5t1.5 -45.5q-4 -25 -16.5 -46t-30.5 -36.5t-40 -24t-45 -8.5h-496q78 99 123 166.5t52 107.5q6 41 -18.5 63.5t-58.5 22.5q-12 0 -30 -6t-36 -21.5t-33.5 -41.5t-23.5 -66h-189q5 40 0 66t-16.5 41.5t-27.5 21.5t-33 6t-34.5 -6t-32.5 -17t-26 -27
t-14 -36q-5 -31 6 -52.5t24 -37.5q17 -18 21 -41t-2 -45.5t-20.5 -43t-33.5 -34.5q-21 -15 -44.5 -21.5t-46.5 -4.5t-43.5 12t-35.5 27z" />
    <glyph glyph-name="maitrilowleftthai" unicode="&#xf707;" 
d="M-1346 2159q-11 13 -25.5 35.5t-26.5 52.5t-17.5 66.5t0.5 78.5q10 66 45.5 125t87 103t115.5 70t132 26q55 0 104.5 -17.5t82.5 -60.5q54 43 108 60.5t110 17.5q66 0 122 -22.5t94.5 -63.5t56 -97.5t6.5 -124.5q-2 -14 -6.5 -26.5t-9.5 -22.5h127q23 0 42 -9.5
t32.5 -25.5t19 -37.5t1.5 -45.5q-4 -25 -16.5 -46t-30.5 -36.5t-40 -24t-45 -8.5h-496q78 99 123 166.5t52 107.5q6 41 -18.5 63.5t-58.5 22.5q-12 0 -30 -6t-36 -21.5t-33.5 -41.5t-23.5 -66h-189q5 40 0 66t-16.5 41.5t-27.5 21.5t-33 6t-34.5 -6t-32.5 -17t-26 -27
t-14 -36q-5 -31 6 -52.5t24 -37.5q17 -18 21 -41t-2 -45.5t-20.5 -43t-33.5 -34.5q-21 -15 -44.5 -21.5t-46.5 -4.5t-43.5 12t-35.5 27z" />
    <glyph glyph-name="maichattawalowleftthai" 
d="M-703 2593l19 119q4 27 18.5 51t35.5 42t46.5 28t51.5 10t47.5 -10t36 -28t20.5 -42t2 -51l-19 -119h127q24 0 44.5 -9.5t34 -25.5t19.5 -37.5t2 -46.5t-17 -46.5t-31.5 -37.5t-42 -25.5t-47.5 -9.5h-127l-18 -119q-5 -27 -18.5 -51t-33.5 -42t-45 -28t-51 -10t-48.5 10
t-37.5 28t-22 42t-2 51l18 119h-127q-25 0 -45 9.5t-33.5 25.5t-19.5 37.5t-2 46.5t17 46.5t31.5 37.5t41.5 25.5t48 9.5h127z" />
    <glyph glyph-name="maichattawalowleftthai" unicode="&#xf708;" 
d="M-703 2593l19 119q4 27 18.5 51t35.5 42t46.5 28t51.5 10t47.5 -10t36 -28t20.5 -42t2 -51l-19 -119h127q24 0 44.5 -9.5t34 -25.5t19.5 -37.5t2 -46.5t-17 -46.5t-31.5 -37.5t-42 -25.5t-47.5 -9.5h-127l-18 -119q-5 -27 -18.5 -51t-33.5 -42t-45 -28t-51 -10t-48.5 10
t-37.5 28t-22 42t-2 51l18 119h-127q-25 0 -45 9.5t-33.5 25.5t-19.5 37.5t-2 46.5t17 46.5t31.5 37.5t41.5 25.5t48 9.5h127z" />
    <glyph glyph-name="thanthakhatlowleftthai" 
d="M-577 2277q14 -17 17.5 -39.5t-1.5 -46t-18 -45.5t-32 -37q-21 -17 -44.5 -24t-46.5 -5.5t-44 10.5t-37 24q-11 10 -22.5 30t-20 47t-12.5 59.5t2 67.5q10 66 37.5 118.5t69.5 89t97.5 56t121.5 19.5h250q26 0 47 -10t35 -27.5t19.5 -40.5t1.5 -49t-17 -48.5t-32 -39
t-43 -26t-50 -9.5h-254q-9 0 -24 -7.5t-19 -29.5q-2 -7 1 -13.5t7 -11.5q4 -6 11 -12z" />
    <glyph glyph-name="thanthakhatlowleftthai" unicode="&#xf709;" 
d="M-577 2277q14 -17 17.5 -39.5t-1.5 -46t-18 -45.5t-32 -37q-21 -17 -44.5 -24t-46.5 -5.5t-44 10.5t-37 24q-11 10 -22.5 30t-20 47t-12.5 59.5t2 67.5q10 66 37.5 118.5t69.5 89t97.5 56t121.5 19.5h250q26 0 47 -10t35 -27.5t19.5 -40.5t1.5 -49t-17 -48.5t-32 -39
t-43 -26t-50 -9.5h-254q-9 0 -24 -7.5t-19 -29.5q-2 -7 1 -13.5t7 -11.5q4 -6 11 -12z" />
    <glyph glyph-name="maieklowrightthai" 
d="M-13 2630q4 27 18.5 51.5t35.5 43t47 29.5t54 11t50 -11t37 -29.5t21 -43t2 -51.5l-62 -389q-4 -28 -18 -52.5t-34.5 -43t-46 -29.5t-53.5 -11q-27 0 -50 11t-38 29.5t-22 43t-3 52.5z" />
    <glyph glyph-name="maieklowrightthai" unicode="&#xf70a;" 
d="M-13 2630q4 27 18.5 51.5t35.5 43t47 29.5t54 11t50 -11t37 -29.5t21 -43t2 -51.5l-62 -389q-4 -28 -18 -52.5t-34.5 -43t-46 -29.5t-53.5 -11q-27 0 -50 11t-38 29.5t-22 43t-3 52.5z" />
    <glyph glyph-name="maitholowrightthai" 
d="M-447 2478q-22 -11 -46 -16.5t-46 -4.5t-40 10t-29 27q-11 19 -12.5 44t6 51t24.5 49t43 37q40 22 84.5 33.5t90.5 11.5q66 0 118.5 -22.5t87.5 -61.5t50 -92.5t5 -114.5q-2 -15 -6.5 -30.5t-13.5 -26.5q15 4 37 4h364q26 0 47.5 -10t35.5 -27.5t20.5 -40.5t2.5 -49
t-17.5 -48.5t-33.5 -39t-44.5 -26t-50.5 -9.5h-819l40 43l50 53.5l52 58t47 56t34.5 47.5t15.5 33q5 31 -7.5 51t-42.5 23q-12 0 -24.5 -4t-22.5 -9z" />
    <glyph glyph-name="maitholowrightthai" unicode="&#xf70b;" 
d="M-447 2478q-22 -11 -46 -16.5t-46 -4.5t-40 10t-29 27q-11 19 -12.5 44t6 51t24.5 49t43 37q40 22 84.5 33.5t90.5 11.5q66 0 118.5 -22.5t87.5 -61.5t50 -92.5t5 -114.5q-2 -15 -6.5 -30.5t-13.5 -26.5q15 4 37 4h364q26 0 47.5 -10t35.5 -27.5t20.5 -40.5t2.5 -49
t-17.5 -48.5t-33.5 -39t-44.5 -26t-50.5 -9.5h-819l40 43l50 53.5l52 58t47 56t34.5 47.5t15.5 33q5 31 -7.5 51t-42.5 23q-12 0 -24.5 -4t-22.5 -9z" />
    <glyph glyph-name="maitrilowrightthai" 
d="M-928 2159q-12 13 -26.5 35.5t-26 52.5t-17 66.5t0.5 78.5q10 66 45.5 125t87 103t115 70t131.5 26q56 0 105.5 -17.5t82.5 -60.5q54 43 108 60.5t110 17.5q66 0 122 -22.5t94 -63.5t55.5 -97.5t6.5 -124.5q-2 -13 -7 -26t-10 -23h230q23 0 42 -9.5t32.5 -25.5t19 -37.5
t1.5 -45.5q-4 -25 -16.5 -46t-30.5 -36.5t-40 -24t-45 -8.5h-597q78 99 123 166.5t52 107.5q6 41 -18.5 63.5t-58.5 22.5q-12 0 -30 -6t-36.5 -21.5t-34 -41.5t-23.5 -66h-188q5 40 0 66t-16.5 41.5t-27.5 21.5t-33 6t-35 -6t-33 -17t-26 -27t-14 -36q-5 -31 6.5 -52.5
t23.5 -37.5q18 -18 22 -41t-2 -45.5t-20.5 -43t-33.5 -34.5q-21 -15 -44.5 -21.5t-47 -4.5t-44 12t-34.5 27z" />
    <glyph glyph-name="maitrilowrightthai" unicode="&#xf70c;" 
d="M-928 2159q-12 13 -26.5 35.5t-26 52.5t-17 66.5t0.5 78.5q10 66 45.5 125t87 103t115 70t131.5 26q56 0 105.5 -17.5t82.5 -60.5q54 43 108 60.5t110 17.5q66 0 122 -22.5t94 -63.5t55.5 -97.5t6.5 -124.5q-2 -13 -7 -26t-10 -23h230q23 0 42 -9.5t32.5 -25.5t19 -37.5
t1.5 -45.5q-4 -25 -16.5 -46t-30.5 -36.5t-40 -24t-45 -8.5h-597q78 99 123 166.5t52 107.5q6 41 -18.5 63.5t-58.5 22.5q-12 0 -30 -6t-36.5 -21.5t-34 -41.5t-23.5 -66h-188q5 40 0 66t-16.5 41.5t-27.5 21.5t-33 6t-35 -6t-33 -17t-26 -27t-14 -36q-5 -31 6.5 -52.5
t23.5 -37.5q18 -18 22 -41t-2 -45.5t-20.5 -43t-33.5 -34.5q-21 -15 -44.5 -21.5t-47 -4.5t-44 12t-34.5 27z" />
    <glyph glyph-name="maichattawalowrightthai" 
d="M-11 2593l18 119q4 27 19 51t36 42t46 28t51 10t47.5 -10t36 -28t20.5 -42t2 -51l-19 -119h127q25 0 45 -9.5t33.5 -25.5t19.5 -37.5t2 -46.5t-16.5 -46.5t-31.5 -37.5t-42 -25.5t-48 -9.5h-127l-18 -119q-5 -27 -18.5 -51t-33.5 -42t-45 -28t-51 -10t-47.5 10t-37 28
t-22.5 42t-2 51l18 119h-127q-24 0 -44.5 9.5t-34 25.5t-19.5 37.5t-2 46.5t17 46.5t31.5 37.5t42 25.5t47.5 9.5h127z" />
    <glyph glyph-name="maichattawalowrightthai" unicode="&#xf70d;" 
d="M-11 2593l18 119q4 27 19 51t36 42t46 28t51 10t47.5 -10t36 -28t20.5 -42t2 -51l-19 -119h127q25 0 45 -9.5t33.5 -25.5t19.5 -37.5t2 -46.5t-16.5 -46.5t-31.5 -37.5t-42 -25.5t-48 -9.5h-127l-18 -119q-5 -27 -18.5 -51t-33.5 -42t-45 -28t-51 -10t-47.5 10t-37 28
t-22.5 42t-2 51l18 119h-127q-24 0 -44.5 9.5t-34 25.5t-19.5 37.5t-2 46.5t17 46.5t31.5 37.5t42 25.5t47.5 9.5h127z" />
    <glyph glyph-name="thanthakhatlowrightthai" 
d="M-94 2277q14 -18 17.5 -41t-1.5 -46t-18 -44.5t-32 -36.5q-21 -17 -44.5 -24t-46.5 -5.5t-44 10.5t-37 24q-11 10 -22.5 30t-20 47t-12.5 59.5t2 67.5q10 66 38 118.5t70 89t97.5 56t121.5 19.5h249q26 0 46.5 -10t34.5 -27.5t19.5 -40.5t1.5 -49t-17 -48.5t-32 -39
t-42.5 -26t-49.5 -9.5h-253q-10 0 -24.5 -7.5t-18.5 -29.5q-2 -8 1 -14.5t7 -11.5q4 -6 10 -11z" />
    <glyph glyph-name="thanthakhatlowrightthai" unicode="&#xf70e;" 
d="M-94 2277q14 -18 17.5 -41t-1.5 -46t-18 -44.5t-32 -36.5q-21 -17 -44.5 -24t-46.5 -5.5t-44 10.5t-37 24q-11 10 -22.5 30t-20 47t-12.5 59.5t2 67.5q10 66 38 118.5t70 89t97.5 56t121.5 19.5h249q26 0 46.5 -10t34.5 -27.5t19.5 -40.5t1.5 -49t-17 -48.5t-32 -39
t-42.5 -26t-49.5 -9.5h-253q-10 0 -24.5 -7.5t-18.5 -29.5q-2 -8 1 -14.5t7 -11.5q4 -6 10 -11z" />
    <glyph glyph-name="maihanakatleftthai" 
d="M349 2388q28 0 50 -10.5t36.5 -29t20.5 -43t2 -52.5t-17.5 -50.5t-34 -38.5t-45.5 -25t-53 -9l-874 -4q-68 0 -116.5 20.5t-77.5 57.5t-39 87t-1 108l13 79q4 28 17.5 52t33 41.5t44.5 27.5t53 10t50 -10t37 -27.5t21 -41.5t2 -52l-8 -50q-2 -16 7.5 -28t25.5 -12h853z
" />
    <glyph glyph-name="maihanakatleftthai" unicode="&#xf710;" 
d="M349 2388q28 0 50 -10.5t36.5 -29t20.5 -43t2 -52.5t-17.5 -50.5t-34 -38.5t-45.5 -25t-53 -9l-874 -4q-68 0 -116.5 20.5t-77.5 57.5t-39 87t-1 108l13 79q4 28 17.5 52t33 41.5t44.5 27.5t53 10t50 -10t37 -27.5t21 -41.5t2 -52l-8 -50q-2 -16 7.5 -28t25.5 -12h853z
" />
    <glyph glyph-name="nikhahitleftthai" 
d="M-262 2355q-9 -60 -40.5 -113t-78 -92.5t-104 -62.5t-118.5 -23q-60 0 -110 23t-84 62.5t-49 92.5t-6 113q10 61 42 115t78.5 94t104 63t117.5 23q61 0 111.5 -23t84 -63t48 -94t4.5 -115zM-458 2355q3 20 -2 37t-16.5 30t-28.5 20t-37 7q-40 0 -71 -27t-38 -67
q-6 -40 16.5 -69t62.5 -29q20 0 39 8t35 21.5t26.5 31t13.5 37.5z" />
    <glyph glyph-name="nikhahitleftthai" unicode="&#xf711;" 
d="M-262 2355q-9 -60 -40.5 -113t-78 -92.5t-104 -62.5t-118.5 -23q-60 0 -110 23t-84 62.5t-49 92.5t-6 113q10 61 42 115t78.5 94t104 63t117.5 23q61 0 111.5 -23t84 -63t48 -94t4.5 -115zM-458 2355q3 20 -2 37t-16.5 30t-28.5 20t-37 7q-40 0 -71 -27t-38 -67
q-6 -40 16.5 -69t62.5 -29q20 0 39 8t35 21.5t26.5 31t13.5 37.5z" />
    <glyph glyph-name="maitaikhuleftthai" 
d="M-635 2430q-1 -19 6.5 -32.5t20 -22t28.5 -12.5t32 -4q76 0 109 86q10 23 26.5 42t37.5 31t44.5 15.5t47.5 -2.5q22 -6 38.5 -20t25.5 -33t9.5 -42t-9.5 -48q-20 -49 -53 -96t-78.5 -84t-103.5 -59.5t-127 -22.5q-130 0 -203 86q-45 -47 -105 -66.5t-122 -19.5
q-78 0 -139 27.5t-100.5 76t-55 115.5t-3.5 145q14 88 51 159t91.5 121t124.5 77.5t150 27.5h770q25 0 45 -9.5t33.5 -25.5t19.5 -37.5t2 -45.5q-4 -25 -16.5 -46.5t-31.5 -37.5t-42 -25.5t-48 -9.5h-786q-29 0 -52.5 -14t-40 -35t-27 -46.5t-13.5 -48.5q-4 -23 -1.5 -47
t13.5 -43.5t30.5 -32t50.5 -12.5q18 0 37 4.5t36 14t30.5 24.5t20.5 36q13 38 49.5 61t77.5 23q44 0 73 -25t27 -67z" />
    <glyph glyph-name="maitaikhuleftthai" unicode="&#xf712;" 
d="M-635 2430q-1 -19 6.5 -32.5t20 -22t28.5 -12.5t32 -4q76 0 109 86q10 23 26.5 42t37.5 31t44.5 15.5t47.5 -2.5q22 -6 38.5 -20t25.5 -33t9.5 -42t-9.5 -48q-20 -49 -53 -96t-78.5 -84t-103.5 -59.5t-127 -22.5q-130 0 -203 86q-45 -47 -105 -66.5t-122 -19.5
q-78 0 -139 27.5t-100.5 76t-55 115.5t-3.5 145q14 88 51 159t91.5 121t124.5 77.5t150 27.5h770q25 0 45 -9.5t33.5 -25.5t19.5 -37.5t2 -45.5q-4 -25 -16.5 -46.5t-31.5 -37.5t-42 -25.5t-48 -9.5h-786q-29 0 -52.5 -14t-40 -35t-27 -46.5t-13.5 -48.5q-4 -23 -1.5 -47
t13.5 -43.5t30.5 -32t50.5 -12.5q18 0 37 4.5t36 14t30.5 24.5t20.5 36q13 38 49.5 61t77.5 23q44 0 73 -25t27 -67z" />
    <glyph glyph-name="maiekupperleftthai" 
d="M-331 3187q4 27 17.5 51.5t33.5 43t45 29.5t52 11q28 0 49.5 -11t35.5 -29.5t19.5 -43t1.5 -51.5l-43 -275q-5 -27 -17.5 -51.5t-31.5 -43t-43.5 -29.5t-52.5 -11q-27 0 -49.5 11t-37 29.5t-21 43t-1.5 51.5z" />
    <glyph glyph-name="maiekupperleftthai" unicode="&#xf713;" 
d="M-331 3187q4 27 17.5 51.5t33.5 43t45 29.5t52 11q28 0 49.5 -11t35.5 -29.5t19.5 -43t1.5 -51.5l-43 -275q-5 -27 -17.5 -51.5t-31.5 -43t-43.5 -29.5t-52.5 -11q-27 0 -49.5 11t-37 29.5t-21 43t-1.5 51.5z" />
    <glyph glyph-name="maithoupperleftthai" 
d="M-488 3150q-22 -11 -45.5 -16.5t-45.5 -4.5t-40.5 10t-29.5 27t-12 43.5t7 51t25 48.5t41 37q81 45 176 45q66 0 118.5 -22.5t87.5 -61.5t50 -92t5 -114q-6 -31 -20 -57q5 1 15.5 2t20.5 1h347q26 0 47.5 -10t36 -27.5t21 -40.5t2.5 -49t-17.5 -48t-33.5 -38.5t-44.5 -26
t-50.5 -9.5h-806q15 18 38.5 43.5l49.5 54.5l53 58.5t48.5 55.5t36 46.5t16.5 31.5q9 64 -50 70q-12 0 -25 -1.5t-22 -6.5z" />
    <glyph glyph-name="maithoupperleftthai" unicode="&#xf714;" 
d="M-488 3150q-22 -11 -45.5 -16.5t-45.5 -4.5t-40.5 10t-29.5 27t-12 43.5t7 51t25 48.5t41 37q81 45 176 45q66 0 118.5 -22.5t87.5 -61.5t50 -92t5 -114q-6 -31 -20 -57q5 1 15.5 2t20.5 1h347q26 0 47.5 -10t36 -27.5t21 -40.5t2.5 -49t-17.5 -48t-33.5 -38.5t-44.5 -26
t-50.5 -9.5h-806q15 18 38.5 43.5l49.5 54.5l53 58.5t48.5 55.5t36 46.5t16.5 31.5q9 64 -50 70q-12 0 -25 -1.5t-22 -6.5z" />
    <glyph glyph-name="maitriupperleftthai" 
d="M-624 2966q14 -17 18 -38t-0.5 -42t-17.5 -41t-32 -35q-20 -15 -41 -21.5t-41.5 -5t-39 10.5t-32.5 24q-21 23 -35.5 46t-22 48.5t-8.5 54.5t5 64q9 60 40.5 113t77.5 92.5t102.5 62.5t116.5 23q47 0 92 -18t65 -52q14 14 34.5 26.5t44.5 22.5t49.5 15.5t50.5 5.5
q60 0 108.5 -22.5t81.5 -61t47.5 -91t6.5 -112.5h172q24 0 44.5 -9.5t34 -26t19.5 -39t2 -48.5t-17 -48t-32 -37.5t-42 -24.5t-47 -9h-523l143 209q4 7 7.5 15.5t5.5 17.5q4 22 -8 39.5t-36 17.5q-11 0 -24.5 -3t-26.5 -13.5t-23.5 -30t-15.5 -51.5h-193q4 29 1 48t-11 30
t-20.5 15.5t-26.5 4.5q-29 0 -47.5 -19.5t-21.5 -41.5q-2 -14 2 -33.5t14 -31.5z" />
    <glyph glyph-name="maitriupperleftthai" unicode="&#xf715;" 
d="M-624 2966q14 -17 18 -38t-0.5 -42t-17.5 -41t-32 -35q-20 -15 -41 -21.5t-41.5 -5t-39 10.5t-32.5 24q-21 23 -35.5 46t-22 48.5t-8.5 54.5t5 64q9 60 40.5 113t77.5 92.5t102.5 62.5t116.5 23q47 0 92 -18t65 -52q14 14 34.5 26.5t44.5 22.5t49.5 15.5t50.5 5.5
q60 0 108.5 -22.5t81.5 -61t47.5 -91t6.5 -112.5h172q24 0 44.5 -9.5t34 -26t19.5 -39t2 -48.5t-17 -48t-32 -37.5t-42 -24.5t-47 -9h-523l143 209q4 7 7.5 15.5t5.5 17.5q4 22 -8 39.5t-36 17.5q-11 0 -24.5 -3t-26.5 -13.5t-23.5 -30t-15.5 -51.5h-193q4 29 1 48t-11 30
t-20.5 15.5t-26.5 4.5q-29 0 -47.5 -19.5t-21.5 -41.5q-2 -14 2 -33.5t14 -31.5z" />
    <glyph glyph-name="maichattawaupperleftthai" 
d="M-341 3174l11 70q4 28 19 52t36 41.5t46 27.5t51 10t47.5 -10t36 -27.5t20.5 -41.5t2 -52l-11 -70h82q23 0 41.5 -8.5t31 -23.5t18 -35t2.5 -43q-4 -23 -16 -43.5t-29 -35.5t-38.5 -23.5t-44.5 -8.5h-82l-10 -65q-5 -28 -18.5 -52t-33.5 -41.5t-45 -27.5t-51 -10t-48 10
t-37.5 27.5t-22.5 41.5t-2 52l10 65h-82q-23 0 -41.5 8.5t-31 23.5t-18 35.5t-1.5 43.5q3 23 15 43t29 35t38.5 23.5t44.5 8.5h82z" />
    <glyph glyph-name="maichattawaupperleftthai" unicode="&#xf716;" 
d="M-341 3174l11 70q4 28 19 52t36 41.5t46 27.5t51 10t47.5 -10t36 -27.5t20.5 -41.5t2 -52l-11 -70h82q23 0 41.5 -8.5t31 -23.5t18 -35t2.5 -43q-4 -23 -16 -43.5t-29 -35.5t-38.5 -23.5t-44.5 -8.5h-82l-10 -65q-5 -28 -18.5 -52t-33.5 -41.5t-45 -27.5t-51 -10t-48 10
t-37.5 27.5t-22.5 41.5t-2 52l10 65h-82q-23 0 -41.5 8.5t-31 23.5t-18 35.5t-1.5 43.5q3 23 15 43t29 35t38.5 23.5t44.5 8.5h82z" />
    <glyph glyph-name="thanthakhatupperleftthai" 
d="M-257 2793q14 -18 17.5 -41t-2 -46t-19 -44t-32.5 -36q-21 -17 -44 -24.5t-46 -6t-44 10.5t-37 24q-11 10 -22.5 30t-20.5 47t-13 59.5t2 67.5q10 66 38 118.5t70.5 89t98 56t121.5 19.5h184q26 0 47 -9.5t34.5 -26t19.5 -39t2 -48.5t-17 -48.5t-32 -39t-43 -26t-50 -9.5
h-188q-13 0 -24.5 -5t-15.5 -30q-2 -8 1 -15.5t6 -13.5q4 -7 9 -14z" />
    <glyph glyph-name="thanthakhatupperleftthai" unicode="&#xf717;" 
d="M-257 2793q14 -18 17.5 -41t-2 -46t-19 -44t-32.5 -36q-21 -17 -44 -24.5t-46 -6t-44 10.5t-37 24q-11 10 -22.5 30t-20.5 47t-13 59.5t2 67.5q10 66 38 118.5t70.5 89t98 56t121.5 19.5h184q26 0 47 -9.5t34.5 -26t19.5 -39t2 -48.5t-17 -48.5t-32 -39t-43 -26t-50 -9.5
h-188q-13 0 -24.5 -5t-15.5 -30q-2 -8 1 -15.5t6 -13.5q4 -7 9 -14z" />
    <glyph glyph-name="maiekupperleftthai.alt1" 
d="M-531 3187q4 27 17.5 51.5t33.5 43t45 29.5t52 11q28 0 49.5 -11t35.5 -29.5t19.5 -43t1.5 -51.5l-43 -275q-5 -27 -17.5 -51.5t-31.5 -43t-43.5 -29.5t-52.5 -11q-27 0 -49.5 11t-37 29.5t-21 43t-1.5 51.5z" />
    <glyph glyph-name="maichattawaupperleftthai.alt1" 
d="M-541 3174l11 70q4 28 19 52t36 41.5t46 27.5t51 10t47.5 -10t36 -27.5t20.5 -41.5t2 -52l-11 -70h82q23 0 42 -8.5t31.5 -23.5t18 -35t2.5 -43q-4 -23 -16 -43.5t-29 -35.5t-39 -23.5t-45 -8.5h-82l-10 -65q-5 -28 -18.5 -52t-33.5 -41.5t-45 -27.5t-51 -10t-48 10
t-37.5 27.5t-22.5 41.5t-2 52l10 65h-82q-23 0 -41.5 8.5t-31 23.5t-18 35.5t-1.5 43.5q3 23 15 43t29 35t38.5 23.5t44.5 8.5h82z" />
    <glyph glyph-name="maithothai.alt2" 
d="M-126 3133q-22 -11 -45 -15.5t-44 -1.5t-38.5 13.5t-28.5 28.5t-12 40.5t6.5 44t23 41.5t36.5 34q41 25 85 37t91 12q66 0 118.5 -22.5t87 -61.5t49.5 -92.5t5 -114.5q-3 -16 -10 -30.5t-14 -24.5q5 0 24.5 1t35.5 1h328q26 0 47.5 -10t35.5 -27.5t20.5 -40.5t2.5 -49
t-17.5 -48.5t-33 -39t-44 -26t-50.5 -9.5h-806l36.5 43.5l48 56.5l52 61.5t48 59.5t35.5 50t16 33q5 30 -7 48.5t-40 18.5q-10 0 -21.5 -3t-20.5 -8z" />
    <glyph glyph-name="maitrithai.alt2" 
d="M-262 2814q-38 49 -50.5 98t-4.5 99q10 60 41 112.5t77 92t102 62.5t116 23q23 0 47 -6t45 -16.5t38 -23.5t27 -27q15 14 35.5 27t44.5 23.5t49.5 16.5t49.5 6q60 0 109 -22.5t82 -60.5t48 -89.5t8 -109.5h168q26 0 47 -9.5t34.5 -26t19.5 -39t2 -48.5t-17 -48t-32 -38
t-43 -24.5t-50 -8.5h-520l143 205q8 9 10 19.5t3 13.5q3 21 -9.5 39t-34.5 18q-8 0 -19 -2.5t-23 -12t-22.5 -28.5t-15.5 -51h-213q9 55 -5 74.5t-41 19.5q-25 0 -44 -20t-23 -41q-1 -7 -2 -19.5t10 -30.5t14.5 -38.5t-0.5 -41.5t-15.5 -40.5t-30.5 -34.5q-20 -15 -41.5 -22
t-42.5 -6t-39.5 10t-31.5 26z" />
    </font>
</defs>
</svg>
