<?xml version="1.0" standalone="no"?>
<!DOCTYPE svg PUBLIC "-//W3C//DTD SVG 1.1//EN" "http://www.w3.org/Graphics/SVG/1.1/DTD/svg11.dtd" >
<svg xmlns="http://www.w3.org/2000/svg" xmlns:xlink="http://www.w3.org/1999/xlink" version="1.1">
<metadata>
Created by FontForge 20160405 at Fri Feb  3 02:26:53 2017
 By www-data
Copyright (c) 2013 by Aviation Partners. All rights reserved.
</metadata>
<defs>
<font id="Alleyn-Light-Italic" horiz-adv-x="608" >
  <font-face 
    font-family="Alleyn Light"
    font-weight="300"
    font-style="italic"
    font-stretch="normal"
    units-per-em="1000"
    panose-1="2 0 0 0 0 0 0 0 0 0"
    ascent="800"
    descent="-200"
    x-height="512"
    cap-height="697"
    bbox="-204 -211.018 1297 939"
    underline-thickness="50"
    underline-position="-100"
    stemh="32"
    stemv="34"
    unicode-range="U+0020-FB02"
  />
<missing-glyph horiz-adv-x="511" 
d="M175 697h360l-122 -697h-360zM93 31h292l112 634h-292z" />
    <glyph glyph-name=".notdef" horiz-adv-x="511" 
d="M175 697h360l-122 -697h-360zM93 31h292l112 634h-292z" />
    <glyph glyph-name="b" unicode="b" horiz-adv-x="615" 
d="M93 0h-16c-3 0 -6 2 -6 5l129 731c1 3 4 6 7 6h20c4 0 4 -2 3 -5l-47 -271c-7 -38 -15 -75 -15 -76h8c44 66 130 134 238 134c97 0 175 -62 175 -192c0 -216 -158 -344 -298 -344c-85 0 -132 26 -183 62l-8 -45c0 -3 -4 -5 -7 -5zM286 17c134 0 268 113 268 309
c0 106 -53 170 -155 170c-99 0 -227 -90 -255 -249l-29 -164c41 -33 79 -66 171 -66z" />
    <glyph glyph-name="c" unicode="c" horiz-adv-x="512" 
d="M457 76c7 -15 7 -15 7 -16c0 -3 -1 -5 -3 -7c-55 -37 -123 -65 -185 -65c-124 0 -201 70 -201 198c0 215 136 338 294 338c62 0 122 -27 164 -64c0 -1 1 -3 1 -5s0 -3 -1 -4l-10 -13c-1 -2 -3 -2 -5 -2s-4 0 -5 1c-37 34 -92 59 -147 59c-138 0 -258 -110 -258 -305
c0 -113 65 -174 173 -174c56 0 117 27 166 61c2 1 4 2 6 2s3 -1 4 -4z" />
    <glyph glyph-name="d" unicode="d" horiz-adv-x="615" 
d="M625 742c2 0 5 -2 5 -5l-128 -731c-1 -3 -4 -6 -7 -6h-15c-3 0 -6 2 -6 6l20 116l-8 -1c-45 -67 -126 -133 -237 -133c-98 0 -176 62 -176 191c0 215 157 345 299 345c83 0 128 -25 180 -61l48 274c1 2 4 5 8 5h17zM377 496c-136 0 -270 -114 -270 -310
c0 -106 54 -169 156 -169c99 0 226 89 254 248l29 164c-41 34 -78 67 -169 67z" />
    <glyph glyph-name="e" unicode="e" horiz-adv-x="584" 
d="M121 284h397c3 17 4 37 4 52c0 101 -57 160 -152 160c-115 0 -213 -78 -249 -212zM546 265c0 -4 -6 -7 -8 -8h-424c-3 -18 -5 -39 -5 -56c0 -117 73 -184 191 -184c69 0 133 22 163 34c2 1 5 0 6 -3l6 -17c0 -3 -1 -7 -5 -9c-30 -17 -121 -34 -177 -34
c-135 0 -217 82 -217 209c0 198 143 327 297 327c115 0 180 -65 180 -185c0 -23 -2 -47 -7 -74z" />
    <glyph glyph-name="f" unicode="f" horiz-adv-x="346" 
d="M484 712c-17 5 -56 11 -88 11c-86 0 -145 -40 -162 -136l-13 -75h178c3 0 6 -3 6 -6l-3 -15c0 -3 -5 -6 -8 -6h-178l-84 -479c-1 -3 -4 -6 -7 -6h-17c-3 0 -7 0 -7 6l84 479h-87c-3 0 -5 3 -5 6l3 15c0 3 4 6 7 6h87l12 71c17 103 88 169 201 169c38 0 97 -7 97 -19v-6
l-6 -11c-2 -3 -4 -4 -10 -4z" />
    <glyph glyph-name="g" unicode="g" horiz-adv-x="607" 
d="M267 48c102 0 221 96 246 242l21 124c-44 38 -91 82 -181 82c-130 0 -243 -105 -243 -284c0 -102 56 -164 157 -164zM209 -210c-76 0 -102 8 -143 29c-3 1 -6 5 -6 7c0 1 3 7 4 9l6 11c1 2 4 4 7 4c2 0 4 -1 6 -2c33 -16 61 -28 133 -28c105 0 227 68 247 186l10 58
c2 11 17 89 18 90h-8c-40 -68 -122 -133 -230 -133c-103 0 -175 68 -175 187c0 178 130 316 270 316c90 0 142 -34 195 -75l10 58c0 2 4 5 8 5h16c3 0 5 -3 5 -5l-87 -495c-24 -134 -150 -222 -286 -222z" />
    <glyph glyph-name="h" unicode="h" horiz-adv-x="584" 
d="M387 524c94 0 148 -49 148 -138c0 -17 -2 -36 -5 -56l-57 -324c-1 -3 -4 -6 -7 -6h-18c-2 0 -5 1 -5 6l54 309c3 20 5 40 5 57c0 79 -32 124 -121 124c-105 0 -211 -103 -226 -189l-53 -301c-1 -3 -3 -6 -6 -6h-18c-3 0 -6 2 -6 6l128 731c1 2 4 5 8 5h18c2 0 4 -2 4 -5
l-46 -261c-1 -9 -12 -62 -12 -62l8 -1c46 55 115 111 207 111z" />
    <glyph glyph-name="i" unicode="i" horiz-adv-x="217" 
d="M185 512c3 0 5 -3 5 -5l-88 -501c-1 -3 -4 -6 -7 -6h-17c-3 0 -6 2 -6 6l88 501c0 2 4 5 8 5h17zM183 715c2 14 16 27 32 27c14 0 25 -11 25 -24c0 -18 -19 -31 -34 -31c-14 0 -24 9 -24 22c0 2 1 4 1 6z" />
    <glyph glyph-name="j" unicode="j" horiz-adv-x="217" 
d="M-182 -171c17 -5 53 -10 86 -10c83 0 142 42 159 137l97 550c0 3 4 6 7 6h18c4 0 5 -2 5 -6l-97 -546c-18 -103 -86 -170 -197 -170c-42 0 -100 6 -100 18c0 1 6 21 18 21h4zM183 715c2 14 16 27 32 27c15 0 26 -11 26 -24c0 -18 -19 -31 -35 -31c-14 0 -24 9 -24 22
c0 2 1 4 1 6z" />
    <glyph glyph-name="k" unicode="k" horiz-adv-x="501" 
d="M280 305l174 -300c0 -2 -2 -5 -5 -5h-20c-5 0 -8 2 -10 6l-159 281l-127 -101l-31 -180c-1 -3 -3 -6 -6 -6h-18c-3 0 -6 2 -6 6l128 731c1 2 4 5 8 5h18c2 0 4 -2 4 -5l-80 -454l-11 -55l8 -1l337 281c3 2 8 4 11 4h27c2 0 3 -2 3 -3s-1 -3 -1 -3z" />
    <glyph glyph-name="l" unicode="l" horiz-adv-x="217" 
d="M226 742c2 0 4 -2 4 -5l-128 -731c-1 -3 -3 -6 -6 -6h-18c-3 0 -6 2 -6 6l128 731c1 2 4 5 8 5h18z" />
    <glyph glyph-name="m" unicode="m" horiz-adv-x="918" 
d="M729 524c89 0 140 -48 140 -135c0 -18 -2 -38 -6 -59l-57 -324c-1 -3 -4 -6 -7 -6h-17c-3 0 -6 2 -6 6l54 309c4 23 6 46 6 66c0 75 -30 115 -114 115c-102 0 -200 -103 -215 -189l-53 -301c-1 -3 -4 -6 -7 -6h-17c-3 0 -6 2 -6 6l54 309c4 23 6 45 6 64
c0 71 -35 117 -115 117c-101 0 -200 -107 -215 -193l-52 -297c-1 -3 -3 -6 -6 -6h-18c-3 0 -7 1 -7 6l88 501c0 2 4 5 9 5h18c3 0 4 -3 4 -5l-6 -32c-1 -9 -12 -61 -12 -61l8 -1c43 55 107 111 195 111c82 0 134 -48 142 -128c54 76 128 128 212 128z" />
    <glyph glyph-name="n" unicode="n" horiz-adv-x="586" 
d="M385 524c94 0 150 -51 150 -142c0 -16 -2 -33 -5 -52l-57 -324c-1 -3 -4 -6 -7 -6h-18c-2 0 -5 1 -5 6l54 309c3 20 5 42 5 59c0 79 -34 122 -123 122c-105 0 -209 -103 -224 -189l-53 -301c-1 -3 -3 -6 -6 -6h-18c-3 0 -6 2 -6 6l88 501c0 2 4 5 8 5h18c3 0 4 -3 4 -5
l-6 -32c-1 -9 -12 -61 -12 -61l8 -1c44 55 113 111 205 111z" />
    <glyph glyph-name="o" unicode="o" horiz-adv-x="615" 
d="M379 524c124 0 207 -84 207 -212c0 -189 -147 -324 -302 -324c-125 0 -208 83 -208 210c0 189 146 326 303 326zM289 17c135 0 263 114 263 295c0 114 -71 184 -178 184c-135 0 -266 -117 -266 -296c0 -115 72 -183 181 -183z" />
    <glyph glyph-name="p" unicode="p" horiz-adv-x="615" 
d="M59 -200h-18c-3 0 -5 1 -5 5l124 701c0 3 4 6 7 6h20c2 0 3 -1 3 -5l-8 -42c-7 -38 -13 -74 -14 -75h7c42 69 131 134 239 134c97 0 175 -62 175 -192c0 -216 -158 -344 -298 -344c-85 0 -130 26 -182 62l-43 -245c-1 -3 -4 -5 -7 -5zM286 17c134 0 268 113 268 309
c0 106 -53 170 -155 170c-99 0 -227 -89 -255 -248l-29 -165c41 -33 79 -66 171 -66z" />
    <glyph glyph-name="q" unicode="q" horiz-adv-x="615" 
d="M570 512h15c3 0 5 -3 5 -5l-124 -702c0 -3 -4 -6 -7 -6h-19c-2 0 -6 1 -4 5l43 243c6 37 14 74 15 75h-8c-42 -68 -130 -134 -237 -134c-98 0 -176 62 -176 191c0 215 157 345 299 345c83 0 130 -25 182 -61l8 44c0 2 4 5 8 5zM377 496c-136 0 -270 -114 -270 -310
c0 -106 54 -169 156 -169c99 0 226 89 254 248l29 164c-41 34 -78 67 -169 67z" />
    <glyph glyph-name="r" unicode="r" horiz-adv-x="392" 
d="M449 514c4 -2 5 -6 5 -8l-7 -23c-1 -2 -4 -4 -7 -4c-14 9 -40 15 -67 15c-104 0 -206 -114 -232 -264l-39 -224c-1 -3 -3 -6 -6 -6h-18c-3 0 -6 2 -6 6l88 501c0 2 4 5 8 5h18c3 0 4 -3 4 -5l-10 -56c-2 -9 -12 -62 -12 -63l6 1c47 78 122 135 216 135c20 0 43 -4 59 -10
z" />
    <glyph glyph-name="s" unicode="s" horiz-adv-x="470" 
d="M198 17c104 0 184 61 184 136c0 117 -273 66 -273 208c0 88 83 163 195 163c94 0 140 -22 155 -33c2 -2 3 -5 1 -8c-5 -7 -9 -14 -12 -16c-2 -1 -3 -2 -7 0c-28 14 -73 28 -134 28c-99 0 -165 -56 -165 -128c0 -120 275 -68 275 -211c0 -93 -99 -168 -217 -168
c-94 0 -140 22 -155 33c-2 2 -3 5 -1 8c5 7 9 14 12 16c2 1 3 2 7 0c28 -14 74 -28 135 -28z" />
    <glyph glyph-name="t" unicode="t" horiz-adv-x="390" 
d="M338 6c-24 -12 -55 -18 -90 -18c-86 0 -127 42 -127 114c0 13 1 26 4 41l60 342h-87c-3 0 -5 3 -5 6l3 15c0 3 4 6 7 6h87l26 149c0 2 4 4 8 4h18c3 0 5 -2 5 -4l-26 -149h179c3 0 6 -3 6 -6l-3 -15c0 -3 -5 -6 -8 -6h-179l-60 -338c-3 -14 -3 -27 -4 -38
c0 -64 35 -92 99 -92c31 0 58 9 80 16c3 1 7 0 8 -5l4 -14c0 -3 -1 -6 -5 -8z" />
    <glyph glyph-name="u" unicode="u" horiz-adv-x="586" 
d="M245 -12c-94 0 -147 51 -147 140c0 17 1 34 5 54l57 324c0 3 4 6 7 6h18c3 0 5 -3 5 -6l-55 -308c-4 -21 -5 -43 -6 -60c0 -80 36 -121 126 -121c104 0 208 103 223 189l53 300c0 3 3 6 6 6h18c3 0 6 -3 6 -6l-89 -501c0 -3 -4 -5 -7 -5h-18c-3 0 -5 2 -5 5l6 31
c1 9 13 63 13 63l-9 1c-44 -55 -115 -112 -207 -112z" />
    <glyph glyph-name="v" unicode="v" horiz-adv-x="500" 
d="M525 512c2 0 3 -2 3 -6l-281 -501c-1 -2 -4 -5 -7 -5h-23c-3 0 -6 3 -7 5c-103 501 -103 502 -103 502c0 3 2 5 5 5h20c3 0 5 -3 6 -5c34 -169 103 -475 91 -475l7 1s17 44 61 122l198 352c1 2 5 5 8 5h22z" />
    <glyph glyph-name="w" unicode="w" horiz-adv-x="747" 
d="M760 512c3 0 6 -2 6 -6l-210 -499c-3 -4 -9 -7 -12 -7h-29c-3 0 -9 4 -10 8l-60 359c-6 48 -10 87 -10 88l-6 -1c-1 0 -16 -40 -41 -87l-188 -359c-3 -4 -8 -8 -11 -8h-30c-4 0 -9 3 -9 7c-34 499 -34 500 -34 500c0 3 4 5 8 5h16c5 0 7 -3 8 -6l24 -351
c4 -56 3 -112 2 -127l7 1c77 150 156 299 235 449c1 3 5 7 11 7h19c6 0 7 -4 9 -7l75 -450l7 1c-1 0 21 63 48 126l147 351c1 3 5 6 10 6h18z" />
    <glyph glyph-name="x" unicode="x" horiz-adv-x="476" 
d="M415 8c0 -1 1 -2 1 -3c0 -3 -3 -5 -5 -5h-18c-7 0 -11 3 -13 9l-84 153c-19 35 -36 68 -36 68h-5c-1 -1 -27 -32 -59 -68l-138 -152c-5 -5 -10 -10 -14 -10h-21c-3 0 -5 2 -5 4c0 1 1 3 2 4l225 248c-136 247 -136 248 -136 249c0 3 2 7 5 7h20c5 0 7 -5 9 -9l85 -154
c19 -35 34 -66 34 -66h5l198 220c4 4 8 9 14 9h20c2 0 4 -2 4 -4s-1 -4 -2 -5l-222 -245z" />
    <glyph glyph-name="y" unicode="y" horiz-adv-x="508" 
d="M513 512h19c2 0 3 -1 3 -3s0 -3 -1 -5l-397 -696c-2 -4 -7 -8 -11 -8h-15c-3 0 -4 2 -4 8l105 186c-31 156 -73 355 -106 510c0 4 3 8 7 8h16c7 0 8 -4 10 -7l72 -351l22 -118h8l51 96l210 373c2 4 5 7 11 7z" />
    <glyph glyph-name="z" unicode="z" horiz-adv-x="507" 
d="M433 26c2 0 7 -1 7 -5l-2 -15c-1 -3 -4 -6 -9 -6h-396c-3 0 -5 2 -5 6l2 15c1 3 3 6 6 9l438 455h-346c-3 0 -5 3 -5 7l3 15c0 2 4 5 7 5h375c4 0 6 -3 6 -5l-3 -17c-1 -3 -3 -6 -6 -9c-144 -149 -293 -304 -438 -455h366z" />
    <glyph glyph-name="A" unicode="A" horiz-adv-x="682" 
d="M641 9c0 -6 -3 -9 -7 -9h-17c-5 0 -9 4 -10 8l-48 189h-409l-114 -189c-3 -4 -7 -8 -12 -8h-19c-3 0 -5 2 -5 5c0 2 0 3 1 4l416 681c2 3 8 7 14 7h21c5 0 11 -4 12 -7zM167 222h385l-82 321l-31 129h-4l-74 -129z" />
    <glyph glyph-name="B" unicode="B" horiz-adv-x="688" 
d="M499 366c86 -11 126 -76 126 -144c0 -113 -87 -222 -270 -222h-267c-3 0 -6 2 -6 6l121 686c0 2 3 5 7 5h278c100 0 162 -57 162 -137s-62 -166 -150 -186zM179 380h230c116 0 207 65 207 175c0 68 -49 114 -140 114h-247zM344 27c136 0 247 52 247 198
c0 92 -78 128 -189 128h-228l-58 -326h228z" />
    <glyph glyph-name="C" unicode="C" horiz-adv-x="720" 
d="M743 607l1 -4l-16 -14c-1 -1 -2 -1 -4 -1s-4 0 -6 1c-49 54 -126 90 -209 90c-190 0 -374 -164 -374 -400c0 -159 105 -261 258 -261c83 0 172 36 241 90c1 0 3 1 5 1s4 -1 5 -1l13 -16c0 -2 0 -4 -2 -7c-75 -61 -169 -97 -267 -97c-180 0 -287 125 -287 289
c0 227 180 432 409 432c97 0 184 -48 233 -102z" />
    <glyph glyph-name="D" unicode="D" horiz-adv-x="778" 
d="M446 697c190 0 311 -96 311 -271c0 -278 -198 -426 -433 -426h-236c-4 0 -7 2 -7 5l122 687c0 2 3 5 7 5h236zM329 27c219 0 394 146 394 396c0 158 -104 246 -281 246h-213l-113 -642h213z" />
    <glyph glyph-name="E" unicode="E" horiz-adv-x="649" 
d="M664 669h-435l-52 -298h384c2 0 6 -1 6 -4l-3 -17c0 -3 -4 -6 -8 -6h-384l-56 -317h435c4 0 7 -2 7 -4l-3 -17c-1 -3 -4 -6 -8 -6h-459c-3 0 -6 2 -6 6l121 686c0 2 3 5 7 5h459c4 0 7 -3 7 -5l-3 -17c-1 -3 -5 -6 -9 -6z" />
    <glyph glyph-name="F" unicode="F" horiz-adv-x="610" 
d="M669 697c4 0 7 -3 7 -5l-3 -17c-1 -3 -5 -6 -9 -6h-435l-52 -298h384c2 0 6 -1 6 -4l-3 -17c0 -3 -4 -6 -8 -6h-384l-59 -338c-1 -3 -4 -6 -7 -6h-18c-3 0 -6 2 -6 6l121 686c0 2 3 5 7 5h459z" />
    <glyph glyph-name="G" unicode="G" horiz-adv-x="754" 
d="M709 327c2 0 6 -1 6 -5l-40 -228c0 -5 -5 -11 -8 -14c-83 -56 -177 -92 -266 -92c-185 0 -300 123 -300 292c0 227 181 429 410 429c97 0 180 -41 232 -101c1 -1 1 -2 1 -3s-1 -3 -2 -4l-14 -12c-1 -1 -2 -1 -4 -1s-4 0 -6 1c-49 54 -126 90 -209 90
c-188 0 -374 -165 -374 -398c0 -158 107 -263 268 -263c93 0 198 48 243 86l34 196h-210c-3 0 -5 3 -5 6l3 16c1 2 4 5 7 5h234z" />
    <glyph glyph-name="H" unicode="H" horiz-adv-x="770" 
d="M762 697c3 0 6 -3 6 -5l-121 -686c-1 -3 -4 -6 -7 -6h-17c-3 0 -7 1 -7 6l60 340h-503l-60 -340c-1 -3 -4 -6 -7 -6h-18c-3 0 -6 2 -6 6l121 686c0 2 3 5 7 5h18c3 0 6 -3 6 -5l-57 -319h503l57 319c0 2 3 5 8 5h17z" />
    <glyph glyph-name="I" unicode="I" horiz-adv-x="237" 
d="M228 697c3 0 6 -3 6 -5l-121 -686c-1 -3 -4 -6 -7 -6h-18c-3 0 -6 2 -6 6l121 686c0 2 3 5 7 5h18z" />
    <glyph glyph-name="J" unicode="J" horiz-adv-x="459" 
d="M35 63c27 -25 54 -45 104 -45c111 0 186 76 207 191l86 483c0 2 3 5 8 5h18c3 0 6 -3 6 -5l-87 -489c-23 -127 -121 -215 -242 -215c-48 0 -94 18 -128 55c-1 1 -1 2 -1 5l19 15c1 1 3 2 5 2c1 0 3 -1 5 -2z" />
    <glyph glyph-name="K" unicode="K" horiz-adv-x="649" 
d="M328 376c290 -372 290 -370 290 -371c0 -2 -3 -5 -6 -5h-22c-5 0 -8 2 -11 4l-273 354l-152 -113l-41 -239c-1 -3 -4 -6 -7 -6h-18c-3 0 -6 2 -6 6l121 686c0 2 3 5 7 5h18c3 0 6 -3 6 -5l-73 -411l526 411c3 2 9 5 13 5h27c2 0 5 -2 2 -5z" />
    <glyph glyph-name="L" unicode="L" horiz-adv-x="578" 
d="M536 27c2 0 5 -2 5 -5l-3 -17c0 -3 -3 -5 -6 -5h-444c-3 0 -6 2 -6 6l121 686c0 2 3 5 7 5h18c3 0 6 -3 6 -5l-118 -665h420z" />
    <glyph glyph-name="M" unicode="M" horiz-adv-x="889" 
d="M874 690l-97 -685c0 -3 -3 -5 -6 -5h-20c-5 0 -6 3 -6 6l70 491c5 34 15 102 23 145h-10c-111 -147 -246 -337 -359 -491c-6 -5 -14 -8 -19 -8h-4c-5 0 -14 4 -17 10l-185 489h-9c-8 -45 -22 -113 -29 -145l-104 -490c-2 -4 -2 -7 -7 -7h-20c-3 0 -6 2 -6 5l148 687
c1 2 3 5 6 5h23c4 0 10 -4 12 -7l196 -508l370 506c4 5 11 9 16 9h27c3 0 6 -5 7 -7z" />
    <glyph glyph-name="N" unicode="N" horiz-adv-x="761" 
d="M754 697c3 0 6 -3 6 -5l-121 -686c-1 -3 -4 -6 -7 -6h-18c-2 0 -7 2 -10 4l-375 635h-8c-2 -16 -12 -84 -21 -136l-87 -497c-1 -3 -4 -6 -7 -6h-18c-4 0 -6 2 -6 5v1l121 686c0 2 3 5 7 5h15c2 0 7 -2 8 -6l376 -635h9c4 32 9 70 22 140l88 496c0 2 3 5 7 5h19z" />
    <glyph glyph-name="O" unicode="O" horiz-adv-x="821" 
d="M511 709c179 0 289 -126 289 -289c0 -227 -183 -432 -409 -432c-180 0 -290 125 -290 289c0 227 181 432 410 432zM393 18c188 0 372 167 372 403c0 158 -104 258 -256 258c-190 0 -374 -166 -374 -402c0 -159 105 -259 258 -259z" />
    <glyph glyph-name="P" unicode="P" horiz-adv-x="667" 
d="M462 697c133 0 213 -70 213 -177c0 -150 -125 -245 -287 -245h-228l-47 -269c-1 -3 -4 -6 -7 -6h-18c-3 0 -6 2 -6 6l121 686c0 2 3 5 7 5h252zM400 303c132 0 241 86 241 214c0 93 -69 152 -178 152h-234l-64 -366h235z" />
    <glyph glyph-name="Q" unicode="Q" horiz-adv-x="812" 
d="M510 709c179 0 290 -126 290 -289c0 -112 -47 -224 -127 -308c44 -68 57 -89 64 -97c4 -5 6 -9 6 -9c0 -3 -3 -6 -5 -6h-25c-4 0 -9 4 -13 9l-53 80c-71 -59 -163 -101 -255 -101c-180 0 -291 125 -291 289c0 227 180 432 409 432zM393 18c85 0 169 35 238 97
c-70 107 -94 143 -103 156c-4 6 -5 8 -5 8c0 3 4 6 6 6h24c5 0 8 -6 11 -11l91 -138c67 76 110 177 110 283c0 158 -105 260 -256 260c-190 0 -374 -164 -374 -400c0 -159 105 -261 258 -261z" />
    <glyph glyph-name="R" unicode="R" horiz-adv-x="696" 
d="M398 275h-238l-47 -269c-1 -3 -4 -6 -7 -6h-18c-3 0 -6 2 -6 6l121 686c0 2 3 5 7 5h252c133 0 213 -69 213 -176c0 -132 -102 -223 -241 -245c171 -270 171 -270 171 -271c0 -2 -2 -5 -5 -5h-22c-5 0 -10 4 -13 8zM165 303h235c131 0 241 86 241 214
c0 93 -70 152 -178 152h-234z" />
    <glyph glyph-name="S" unicode="S" horiz-adv-x="628" 
d="M87 93c51 -45 119 -75 203 -75c141 0 249 75 249 190c0 75 -73 116 -209 140c-114 20 -185 78 -185 158c0 125 125 203 261 203c94 0 160 -25 219 -80c1 -1 1 -2 1 -4s-1 -5 -3 -7l-12 -10c-2 -1 -4 -2 -6 -2c-3 0 -5 1 -6 3c-46 44 -107 70 -195 70
c-127 0 -224 -70 -224 -169c0 -63 46 -110 165 -131c140 -24 229 -82 229 -168c0 -137 -129 -223 -287 -223c-89 0 -156 23 -224 81c-1 1 -3 4 -1 6l16 16c2 2 4 3 6 3c1 0 2 0 3 -1z" />
    <glyph glyph-name="T" unicode="T" horiz-adv-x="599" 
d="M673 697c4 0 7 -3 7 -5l-3 -17c-1 -3 -5 -6 -9 -6h-257l-116 -663c-1 -3 -4 -6 -7 -6h-19c-3 0 -6 2 -6 6l116 663h-259c-2 0 -3 2 -3 6l3 17c0 2 3 5 5 5h548z" />
    <glyph glyph-name="U" unicode="U" horiz-adv-x="779" 
d="M783 692l-70 -394c-33 -185 -173 -310 -345 -310c-153 0 -247 95 -247 242c0 21 2 44 6 68l70 394c0 2 3 5 7 5h18c3 0 6 -3 6 -5l-68 -384c-4 -24 -6 -47 -6 -69c0 -133 74 -221 216 -221c165 0 284 120 314 290l68 384c0 2 3 5 7 5h18c3 0 6 -3 6 -5z" />
    <glyph glyph-name="V" unicode="V" horiz-adv-x="678" 
d="M754 697c3 0 5 -2 5 -5c0 -1 0 -2 -1 -3l-419 -682c-3 -4 -8 -7 -12 -7h-19c-5 0 -10 3 -10 7c-178 682 -178 683 -178 683c0 4 2 7 5 7h20c5 0 8 -3 8 -6l139 -537l15 -69c6 -27 10 -46 12 -54h6l17 28c11 18 26 49 55 95l327 537c2 3 5 6 10 6h20z" />
    <glyph glyph-name="W" unicode="W" horiz-adv-x="909" 
d="M938 697c3 0 5 -4 5 -7l-235 -683c-2 -4 -5 -7 -10 -7h-24c-7 0 -10 3 -10 7l-133 544c-107 -177 -222 -368 -327 -544c-3 -4 -6 -7 -11 -7h-25c-5 0 -8 3 -8 7l7 683c1 3 4 7 6 7h17c5 0 8 -3 8 -7c-2 -166 -5 -333 -5 -500c0 -28 -2 -77 -4 -146l8 -1l315 529
c3 4 9 7 14 7h20c4 0 8 -3 9 -7l129 -529l8 1c24 78 41 134 51 155l168 491c2 4 5 7 10 7h17z" />
    <glyph glyph-name="X" unicode="X" horiz-adv-x="641" 
d="M603 10c1 -1 1 -2 1 -4c0 -3 -3 -6 -6 -6h-19c-5 0 -10 4 -14 10l-207 322l-321 -324c-5 -4 -9 -8 -14 -8h-23c-3 0 -5 2 -5 5c0 2 1 3 2 5l345 345c-215 335 -216 335 -216 336c0 3 4 6 7 6h22c5 0 9 -3 11 -7l196 -312c101 101 209 212 308 312c4 3 9 7 13 7h26
c2 0 5 -2 5 -5c0 -1 -1 -2 -2 -3l-332 -332z" />
    <glyph glyph-name="Y" unicode="Y" horiz-adv-x="604" 
d="M695 697c2 0 3 -2 3 -4c0 -1 0 -2 -1 -3l-351 -404l-49 -280c-1 -3 -4 -6 -8 -6h-18c-3 0 -6 2 -6 6l49 280l-208 404c0 3 1 7 4 7h21c3 0 7 -4 9 -7l194 -376l325 377c2 4 5 6 10 6h26z" />
    <glyph glyph-name="Z" unicode="Z" horiz-adv-x="665" 
d="M43 6l2 13c0 3 4 8 9 13c192 207 401 428 592 637h-470c-2 0 -4 2 -4 6l3 17c0 2 3 5 6 5h504c4 0 7 -3 7 -5l-3 -13c0 -4 -3 -8 -6 -11l-596 -641h491c4 0 7 -2 7 -4l-3 -17c-1 -3 -4 -6 -8 -6h-526c-3 0 -5 2 -5 6z" />
    <glyph glyph-name="space" unicode=" " horiz-adv-x="333" 
 />
    <glyph glyph-name="zero" unicode="0" 
d="M407 709c126 0 194 -66 194 -221c0 -41 -5 -87 -14 -140c-46 -258 -149 -360 -308 -360c-126 0 -193 64 -193 218c0 41 4 88 14 142c45 257 148 361 307 361zM285 18c137 0 226 93 268 330c9 50 13 95 13 133c0 139 -58 199 -165 199c-137 0 -227 -97 -268 -332
c-9 -51 -14 -96 -14 -134c0 -139 59 -196 166 -196z" />
    <glyph glyph-name="one" unicode="1" 
d="M500 698c3 0 5 -3 5 -5l-121 -687c-1 -3 -4 -6 -7 -6h-19c-3 0 -6 2 -6 6l115 653c-49 -38 -104 -81 -158 -123l-81 -64c-2 -1 -4 -1 -5 -1c-2 0 -4 0 -4 2l-11 14c0 1 -1 2 -1 3s1 4 3 5l263 202c1 1 3 1 7 1h20z" />
    <glyph glyph-name="two" unicode="2" 
d="M170 558c34 82 127 151 239 151c113 0 180 -70 180 -166c0 -79 -36 -149 -99 -201l-385 -314h391c3 0 6 -3 6 -5l-3 -17c-1 -3 -4 -6 -7 -6h-419c-3 0 -6 2 -6 6l4 24c1 6 8 14 13 18l391 316c50 49 80 111 80 170c0 83 -60 146 -153 146s-167 -61 -205 -130
c-1 -3 -3 -4 -7 -4l-17 4c-2 1 -6 5 -3 8z" />
    <glyph glyph-name="three" unicode="3" 
d="M267 -12c-105 0 -157 66 -172 101c-2 5 -4 11 2 15c2 2 5 3 14 7c4 1 7 -2 8 -4c25 -48 75 -89 152 -89c113 0 223 94 223 219c0 84 -62 133 -155 133h-20c-3 0 -6 2 -6 6l3 19c1 2 5 5 8 5h10c94 0 183 68 183 168c0 65 -50 112 -125 112c-70 0 -133 -48 -150 -74
c-2 -3 -5 -6 -8 -3l-19 11c-1 1 -2 3 -2 4c34 40 94 91 180 91c92 0 159 -54 159 -134c0 -82 -61 -150 -139 -186v-4c78 -28 114 -83 114 -151c0 -136 -128 -246 -260 -246z" />
    <glyph glyph-name="four" unicode="4" 
d="M89 215h358l78 438zM523 690c6 5 13 7 17 7h18c3 0 6 -3 6 -5l-85 -477h110c3 0 5 -2 5 -6l-3 -17c0 -3 -4 -5 -7 -5h-110l-31 -181c-1 -3 -4 -6 -7 -6h-19c-3 0 -6 2 -6 6l31 181h-398c-2 0 -4 2 -4 6l3 18l5 4z" />
    <glyph glyph-name="five" unicode="5" 
d="M243 704c1 2 4 5 8 5h344c3 0 5 -3 5 -5l-4 -18c0 -3 -3 -5 -6 -6h-323l-74 -262c38 16 87 37 154 37c120 0 200 -73 200 -186c0 -157 -138 -281 -284 -281c-112 0 -164 66 -179 101c-2 5 -4 11 2 15c2 2 5 3 14 7c4 1 7 -2 8 -4c26 -49 79 -89 158 -89
c121 0 247 106 247 246c0 98 -71 161 -176 161c-70 0 -122 -20 -163 -52c-2 -2 -7 -4 -9 -4l-10 4c-1 0 -2 3 -2 5c0 1 0 3 1 4z" />
    <glyph glyph-name="six" unicode="6" 
d="M358 443c114 0 194 -73 194 -181c0 -158 -128 -274 -265 -274c-123 0 -196 67 -196 196c0 25 3 55 8 85c43 239 201 440 450 440c3 0 4 -3 4 -6l-3 -18c0 -3 -3 -5 -6 -5c-195 0 -331 -140 -397 -330l5 -5c66 69 127 98 206 98zM288 18c117 0 231 98 231 240
c0 96 -67 156 -162 156c-122 0 -234 -89 -234 -236c0 -94 60 -160 165 -160z" />
    <glyph glyph-name="seven" unicode="7" 
d="M125 5l1 1c176 257 371 510 487 663h-436c-2 0 -4 2 -4 6l3 18c0 2 4 5 7 5h461c4 0 6 -3 6 -5l-4 -23c-3 -11 -10 -20 -10 -20l-20 -26c-122 -159 -300 -394 -448 -613c-4 -6 -12 -11 -16 -11h-24c-2 0 -3 2 -3 4v1z" />
    <glyph glyph-name="eight" unicode="8" 
d="M440 380c64 -32 96 -91 96 -152c0 -131 -123 -240 -256 -240c-113 0 -184 73 -184 171c0 83 56 177 163 221l1 11c-47 34 -67 80 -67 125c0 109 103 193 215 193c93 0 154 -57 154 -137c0 -61 -35 -132 -121 -181zM229 542c-1 -8 -2 -15 -2 -23c0 -65 50 -121 126 -121
c93 0 175 84 175 167c0 64 -49 115 -126 115c-87 0 -160 -63 -173 -138zM286 18c112 0 216 97 216 206c0 80 -62 144 -155 144c-117 0 -217 -97 -217 -203c0 -83 62 -147 156 -147z" />
    <glyph glyph-name="nine" unicode="9" 
d="M327 254c-114 0 -194 73 -194 181c0 158 128 274 265 274c123 0 196 -67 196 -196c0 -25 -3 -55 -8 -85c-43 -239 -201 -440 -450 -440c-3 0 -4 3 -4 6l3 18c0 3 3 5 6 5c195 0 331 140 397 330l-5 5c-66 -69 -127 -98 -206 -98zM397 679c-117 0 -231 -98 -231 -240
c0 -96 67 -156 162 -156c122 0 234 89 234 236c0 94 -60 160 -165 160z" />
    <glyph glyph-name="exclam" unicode="!" horiz-adv-x="284" 
d="M268 709c3 0 5 -2 5 -4l-35 -196l-63 -300c-1 -2 -5 -6 -7 -6h-4c-4 0 -7 3 -7 6l43 299l35 197c0 2 4 4 8 4h25zM95 26c4 21 24 39 46 39c19 0 33 -14 33 -32c0 -23 -23 -45 -47 -45c-20 0 -33 15 -33 32c0 2 1 4 1 6z" />
    <glyph glyph-name="quotedbl" unicode="&#x22;" horiz-adv-x="358" 
d="M212 742c3 0 6 -2 8 -4l-52 -225c-1 -2 -5 -6 -7 -6h-4c-3 0 -6 2 -6 6l23 186l7 39c0 2 3 4 7 4h24zM387 742c3 0 6 -2 8 -4l-52 -225c-1 -2 -5 -6 -7 -6h-4c-3 0 -6 2 -6 6l23 186l7 39c0 2 3 4 7 4h24z" />
    <glyph glyph-name="numbersign" unicode="#" 
d="M87 448c0 3 3 6 6 6h146l50 214c1 4 6 7 10 7h18c1 0 3 -3 3 -5l-50 -216h189l50 214c1 4 7 7 11 7h18c1 0 3 -3 3 -5l-50 -216h98c4 0 7 -3 7 -6v-19c0 -4 -3 -7 -7 -7h-106l-42 -183h148c4 0 7 -3 7 -6v-18c0 -4 -3 -7 -7 -7h-155l-46 -200c-1 -5 -5 -8 -9 -8h-18
c-4 0 -5 3 -5 6l47 202h-190l-46 -200c-1 -5 -5 -8 -8 -8h-19c-3 0 -4 3 -4 6l46 202h-89c-3 0 -6 3 -6 7v18c0 3 3 6 6 6h96l42 183h-138c-3 0 -6 3 -6 7v19zM262 422l-42 -183h189l43 183h-190z" />
    <glyph glyph-name="dollar" unicode="$" horiz-adv-x="617" 
d="M621 631c1 -1 1 -2 1 -4s-1 -5 -3 -7l-12 -10c-2 -1 -4 -2 -6 -2c-3 0 -5 1 -6 3c-46 44 -107 70 -195 70c-127 0 -224 -70 -224 -169c0 -63 46 -110 165 -131c140 -24 229 -82 229 -168c0 -134 -123 -219 -276 -223l-11 -58c-1 -3 -5 -6 -8 -6h-18c-2 0 -5 1 -5 6l11 58
c-79 3 -141 27 -204 81c-1 1 -3 4 -1 6l16 16c2 2 4 3 6 3c1 0 2 0 3 -1c51 -45 119 -75 203 -75c141 0 249 75 249 190c0 75 -73 116 -209 140c-114 20 -185 78 -185 158c0 121 116 198 247 203l13 69c0 2 4 5 8 5h18c3 0 5 -3 5 -5l-13 -69c85 -3 146 -28 202 -80z" />
    <glyph glyph-name="percent" unicode="%" horiz-adv-x="798" 
d="M708 698h17c2 0 2 -3 2 -5c-159 -208 -363 -477 -521 -686c-3 -4 -6 -7 -11 -7h-21c-2 0 -3 2 -3 4c0 1 0 2 1 3l525 685c3 4 8 6 11 6zM275 705c67 0 103 -35 103 -116c0 -21 -2 -44 -7 -70c-23 -129 -78 -185 -162 -185c-65 0 -101 36 -101 116c0 20 2 43 7 69
c23 131 79 186 160 186zM214 361c66 0 130 69 130 222c0 64 -25 94 -74 94c-63 0 -127 -70 -127 -223c0 -64 24 -93 71 -93zM695 364c65 0 101 -35 101 -116c0 -20 -2 -44 -7 -70c-23 -130 -78 -184 -160 -184c-67 0 -103 34 -103 114c0 21 2 44 7 70c23 131 78 186 162 186
zM634 20c64 0 129 69 129 222c0 65 -26 94 -73 94c-64 0 -129 -68 -129 -222c0 -64 25 -94 73 -94z" />
    <glyph glyph-name="ampersand" unicode="&#x26;" horiz-adv-x="702" 
d="M626 7l-90 109c-76 -76 -164 -128 -258 -128c-107 0 -186 72 -186 168c0 108 79 167 211 247c-55 65 -81 101 -81 140c0 81 81 166 188 166c81 0 138 -47 138 -113c0 -77 -47 -127 -196 -206l189 -229c43 57 85 131 109 209c1 2 4 5 7 5h15c2 0 4 -3 5 -5
c-26 -81 -67 -164 -120 -229c78 -96 101 -122 107 -130c2 -3 2 -4 2 -4c0 -3 -1 -7 -8 -7h-18c-4 0 -9 1 -14 7zM282 18c83 0 168 46 236 121l-199 240c-111 -65 -191 -120 -191 -214c0 -80 46 -147 154 -147zM406 679c-67 0 -149 -53 -149 -133c0 -38 24 -73 76 -131
c112 54 181 105 181 175c0 57 -39 89 -108 89z" />
    <glyph glyph-name="quotesingle" unicode="'" horiz-adv-x="183" 
d="M212 742c3 0 6 -2 8 -4l-52 -225c-1 -2 -5 -6 -7 -6h-4c-3 0 -6 2 -6 6l23 186l7 39c0 2 3 4 7 4h24z" />
    <glyph glyph-name="parenleft" unicode="(" horiz-adv-x="296" 
d="M299 721c10 11 19 21 30 21h6c5 0 8 -3 8 -7c0 -2 0 -4 -2 -6c-172 -207 -222 -450 -222 -632c0 -97 16 -196 60 -286c1 -2 1 -3 1 -4c0 -5 -5 -8 -11 -8h-6c-10 0 -16 9 -23 20c-36 87 -55 195 -55 301c0 199 77 426 214 601z" />
    <glyph glyph-name="parenright" unicode=")" horiz-adv-x="296" 
d="M208 721c37 -87 55 -190 55 -295c0 -195 -76 -425 -217 -609c-8 -9 -17 -18 -27 -18h-6c-5 0 -9 2 -9 6c0 1 1 4 3 6c172 208 221 453 221 631c0 97 -16 196 -59 287c-1 1 -1 3 -1 4c0 5 4 9 11 9h6c11 0 17 -10 23 -21z" />
    <glyph glyph-name="asterisk" unicode="*" horiz-adv-x="519" 
d="M384 740c2 4 6 6 10 4l16 -11c4 -2 6 -7 4 -9l-104 -161c61 1 131 5 193 7c3 0 6 -3 6 -6v-19c0 -4 -3 -7 -6 -7l-193 9c33 -49 72 -114 104 -164c0 -2 -1 -7 -4 -8l-16 -9c-4 -2 -8 0 -9 1l-87 172l-89 -171c-2 -2 -6 -4 -9 -2l-18 9c-3 1 -4 5 -3 8l104 164l-191 -9
c-3 1 -6 3 -6 7v19c0 2 4 5 6 6l191 -7l-104 160c-2 4 1 8 3 10l17 11c4 2 8 0 10 -4l89 -170z" />
    <glyph glyph-name="plus" unicode="+" 
d="M87 341c0 3 3 6 6 6h233v232c0 3 3 6 7 6h18c3 0 5 -3 5 -6v-232h233c4 0 7 -3 7 -6v-18c0 -4 -3 -6 -7 -6h-233v-233c0 -4 -2 -7 -5 -7h-18c-4 0 -7 3 -7 7v233h-233c-3 0 -6 2 -6 6v18z" />
    <glyph glyph-name="comma" unicode="," horiz-adv-x="231" 
d="M94 -32v6c0 20 -34 24 -34 48c0 21 24 43 46 43c17 0 32 -13 32 -39c0 -49 -27 -110 -99 -185c-1 -1 -3 -2 -5 -2c-1 0 -2 0 -3 1c-6 4 -6 5 -6 6s0 3 1 4c52 59 63 89 68 118z" />
    <glyph glyph-name="hyphen" unicode="-" horiz-adv-x="339" 
d="M74 297c0 2 4 5 8 5h238c4 0 6 -3 6 -5l-3 -19c-1 -3 -5 -6 -9 -6h-238c-2 0 -5 1 -5 6z" />
    <glyph glyph-name="period" unicode="." horiz-adv-x="225" 
d="M55 26c4 21 25 39 47 39c19 0 33 -14 33 -32c0 -23 -23 -45 -47 -45c-20 0 -34 15 -34 33c0 1 1 3 1 5z" />
    <glyph glyph-name="slash" unicode="/" horiz-adv-x="335" 
d="M410 742h14c2 0 3 -2 3 -4c0 -1 0 -3 -1 -4c-135 -262 -281 -546 -417 -808c-2 -3 -8 -7 -11 -7h-15c-2 0 -3 2 -3 4c0 1 0 3 1 4l417 807c3 4 9 8 12 8z" />
    <glyph glyph-name="colon" unicode=":" horiz-adv-x="240" 
d="M145 486c4 21 25 38 47 38c19 0 33 -14 33 -31c0 -23 -23 -45 -47 -45c-20 0 -34 15 -34 33c0 1 1 3 1 5zM64 26c4 21 25 39 47 39c19 0 33 -14 33 -32c0 -23 -23 -45 -47 -45c-20 0 -34 15 -34 33c0 1 1 3 1 5z" />
    <glyph glyph-name="semicolon" unicode=";" horiz-adv-x="244" 
d="M149 486c4 21 25 38 46 38c19 0 34 -14 34 -31c0 -23 -23 -45 -48 -45c-19 0 -33 15 -33 32c0 2 1 4 1 6zM100 -32v6c0 21 -33 24 -33 48c0 21 24 43 45 43c18 0 33 -13 33 -39c0 -49 -27 -110 -99 -185c-1 -1 -3 -2 -5 -2c-1 0 -2 0 -3 1c-6 5 -6 6 -6 6c0 2 0 3 1 4
c48 56 62 90 67 118z" />
    <glyph glyph-name="less" unicode="&#x3c;" 
d="M584 526c0 -4 -2 -7 -5 -8l-440 -188l440 -188c3 -1 5 -4 5 -8v-19c0 -3 -4 -7 -8 -5l-473 205l-3 3l-1 23c0 1 2 3 4 5l473 205c4 2 8 -2 8 -5v-20z" />
    <glyph glyph-name="equal" unicode="=" 
d="M590 422h-496c-4 0 -7 3 -7 7v18c0 3 3 6 7 6h496c4 0 7 -3 7 -6v-18c0 -4 -3 -7 -7 -7zM590 208h-496c-4 0 -7 3 -7 7v18c0 3 3 6 7 6h496c4 0 7 -3 7 -6v-18c0 -4 -3 -7 -7 -7z" />
    <glyph glyph-name="greater" unicode="&#x3e;" 
d="M99 526v20c0 3 4 7 8 5l473 -205c2 -2 4 -4 4 -5l-1 -23l-3 -3l-473 -205c-4 -2 -8 2 -8 5v19c0 4 2 7 5 8l440 188l-440 188c-3 1 -5 4 -5 8z" />
    <glyph glyph-name="question" unicode="?" horiz-adv-x="528" 
d="M358 679c-66 0 -132 -22 -188 -59c-2 -1 -4 -2 -6 -2s-4 1 -4 3l-7 13c-1 1 -2 4 -2 5c0 2 0 4 3 6c67 46 124 64 207 64c118 0 188 -65 188 -152c0 -116 -93 -176 -255 -273l-18 -102c-1 -4 -5 -7 -9 -7h-20c-3 0 -5 2 -5 7l19 108c1 8 8 14 15 19
c132 74 237 143 237 241c0 77 -61 129 -155 129zM192 26c4 21 24 39 46 39c19 0 34 -14 34 -32c0 -23 -23 -45 -48 -45c-20 0 -33 15 -33 32c0 2 1 4 1 6z" />
    <glyph glyph-name="at" unicode="@" horiz-adv-x="1023" 
d="M781 -122c-75 -31 -174 -63 -295 -63c-254 0 -399 142 -399 351c0 326 275 562 556 562c212 0 353 -118 353 -317c0 -181 -123 -382 -280 -382c-43 0 -70 29 -70 83c0 19 3 40 10 66c-2 0 -4 1 -6 0c-71 -100 -143 -149 -231 -149c-80 0 -129 52 -129 146
c0 120 101 349 286 349c58 0 112 -30 154 -103l25 84c1 4 6 7 8 7h18c3 0 6 -3 6 -7l-96 -301c-10 -33 -15 -62 -15 -84c0 -39 17 -61 49 -61c142 0 237 197 237 347c0 171 -121 293 -326 293c-286 0 -515 -247 -515 -529c0 -213 150 -326 370 -326c123 0 213 34 285 60
c3 1 6 -1 7 -2c4 -16 4 -16 4 -17c0 -3 -3 -5 -6 -7zM438 59c122 0 247 186 271 326c-19 43 -57 112 -136 112c-114 0 -249 -152 -249 -315c0 -82 45 -123 114 -123z" />
    <glyph glyph-name="bracketleft" unicode="[" horiz-adv-x="319" 
d="M362 714h-135l-156 -887h135c4 0 7 -3 7 -6l-3 -16c0 -3 -5 -6 -9 -6h-159c-4 0 -6 3 -6 6l164 931c1 3 4 6 8 6h159c3 0 7 -2 7 -6l-3 -16c0 -3 -5 -6 -9 -6z" />
    <glyph glyph-name="backslash" unicode="\" horiz-adv-x="335" 
d="M127 742h14c3 0 9 -4 10 -8l133 -807c0 -4 -3 -8 -6 -8h-15c-4 0 -7 4 -9 7c-43 262 -88 546 -131 808c0 4 1 8 4 8z" />
    <glyph glyph-name="bracketright" unicode="]" horiz-adv-x="318" 
d="M298 714h-134c-4 0 -6 3 -6 6l3 16c1 3 4 6 8 6h159c3 0 5 -2 5 -6l-164 -931c0 -3 -5 -6 -7 -6h-159c-4 0 -6 3 -6 6l3 16c0 3 4 6 8 6h134z" />
    <glyph glyph-name="asciicircum" unicode="^" horiz-adv-x="606" 
d="M577 375c3 -5 -1 -8 -7 -8h-18c-4 0 -9 3 -12 8l-196 336l-196 -336c-3 -5 -8 -8 -13 -8h-18c-6 0 -9 3 -6 8l206 349c2 5 9 9 14 9h25c5 0 12 -4 14 -9z" />
    <glyph glyph-name="underscore" unicode="_" horiz-adv-x="573" 
d="M616 -176v-16h-583v16h583z" />
    <glyph glyph-name="grave" unicode="`" horiz-adv-x="450" 
d="M305 747l35 -111c0 -4 -3 -9 -8 -9h-6c-5 0 -8 2 -8 4l-62 114c-1 1 -1 2 -1 3c0 3 3 5 7 5h34c4 0 8 -2 9 -6z" />
    <glyph glyph-name="braceleft" unicode="{" horiz-adv-x="380" 
d="M434 737l-2 -15c-1 -3 -5 -6 -8 -6h-10c-103 0 -139 -32 -158 -140l-15 -87c-17 -97 -75 -186 -155 -215l-1 -7c56 -22 83 -84 83 -158c0 -19 -2 -38 -5 -58l-14 -84c-4 -22 -6 -41 -6 -57c0 -62 32 -83 114 -83h10c3 0 6 -3 6 -5l-3 -16c0 -3 -5 -6 -8 -6h-26
c-88 0 -123 35 -123 108c0 18 2 38 6 60l14 83c4 21 5 40 5 58c0 97 -48 149 -95 150l-4 5l3 14c0 3 2 6 4 6c60 0 141 69 165 204l15 86c20 115 67 168 176 168h26c2 0 6 -1 6 -5z" />
    <glyph glyph-name="bar" unicode="|" horiz-adv-x="249" 
d="M242 742c3 0 5 -2 5 -6l-164 -930c0 -3 -4 -6 -7 -6h-18c-4 0 -6 3 -6 6l164 930c1 3 4 6 8 6h18z" />
    <glyph glyph-name="braceright" unicode="}" horiz-adv-x="380" 
d="M159 722l2 15c1 2 5 5 8 5h26c87 0 124 -35 124 -109c0 -18 -2 -37 -6 -59l-15 -86c-4 -22 -6 -42 -6 -60c0 -96 49 -144 99 -144c2 0 2 -3 2 -6l-3 -14l-6 -5c-55 -1 -141 -75 -164 -209l-14 -82c-19 -114 -70 -168 -177 -168h-26c-3 0 -6 3 -6 6l3 16c0 2 5 5 8 5h10
c101 0 139 33 157 140l14 83c16 99 78 189 157 217l1 7c-57 23 -85 86 -85 160c0 18 2 36 5 55l15 87c4 22 6 41 6 57c0 63 -32 83 -113 83h-10c-3 0 -6 2 -6 6z" />
    <glyph glyph-name="asciitilde" unicode="~" horiz-adv-x="703" 
d="M680 425c3 0 6 -3 5 -6c-12 -92 -77 -162 -151 -162c-56 0 -114 41 -157 70c-44 30 -86 60 -126 60c-63 0 -106 -58 -119 -131c-1 -5 -5 -8 -9 -8h-18c-3 0 -5 3 -4 6c11 92 76 162 151 162c55 0 113 -40 156 -69c45 -30 88 -60 127 -60c64 0 106 57 118 130c1 5 4 8 8 8
h19z" />
    <glyph glyph-name="degree" unicode="&#xb0;" horiz-adv-x="453" 
d="M111 568c0 85 71 149 150 149c82 0 151 -66 151 -149c0 -81 -67 -149 -151 -149c-81 0 -150 66 -150 149zM143 568c0 -67 53 -118 118 -118c68 0 120 52 120 118c0 68 -52 119 -120 119c-66 0 -118 -51 -118 -119z" />
    <glyph glyph-name="cent" unicode="&#xa2;" horiz-adv-x="510" 
d="M407 697c4 0 6 -3 6 -5l-14 -76c57 -4 109 -29 147 -63c1 -2 1 -5 1 -7l-9 -14c-3 -2 -7 -3 -9 -3c-1 0 -2 1 -3 1c-37 34 -89 59 -144 59c-137 0 -261 -108 -261 -302c0 -114 62 -176 171 -176c56 0 119 29 168 62c1 0 2 1 3 1c3 0 5 -2 7 -3l9 -17c-1 -2 -1 -4 -4 -6
c-51 -35 -110 -61 -170 -66l-13 -76c-1 -3 -4 -6 -8 -6h-18c-3 0 -6 2 -6 6l13 76c-115 8 -184 78 -184 200c0 203 128 325 278 334l14 76c0 2 4 5 8 5h18z" />
    <glyph glyph-name="sterling" unicode="&#xa3;" horiz-adv-x="576" 
d="M504 -4c-14 -4 -72 -8 -108 -8c-56 0 -124 23 -208 23c-47 0 -97 -9 -135 -15c-4 -1 -7 2 -7 5l-6 39c0 4 5 9 8 10c79 31 135 144 145 276h-88c-3 0 -6 3 -6 7l3 16c0 2 5 5 8 6h85c1 113 3 123 9 156c19 111 120 198 239 198c71 0 117 -19 145 -46c1 -1 1 -2 1 -3
c0 -2 -1 -4 -2 -5l-11 -9c-2 -3 -5 -4 -8 -4c-1 0 -3 0 -5 2c-30 27 -74 35 -124 35c-106 0 -183 -68 -200 -166c-7 -41 -10 -81 -11 -158h185c2 0 6 -1 6 -5l-3 -17c0 -4 -4 -6 -8 -7h-179c-2 -9 -2 -19 -4 -29c-4 -47 -39 -207 -157 -266c0 -1 1 -4 1 -6
c42 11 86 13 128 13c72 0 142 -22 217 -22c33 0 63 6 91 6c3 0 5 -1 6 -2l1 -17c0 -3 -3 -6 -8 -7z" />
    <glyph glyph-name="section" unicode="&#xa7;" horiz-adv-x="529" 
d="M312 104c77 -50 119 -88 119 -143c0 -94 -94 -171 -222 -171c-67 0 -131 27 -171 62c-1 0 -1 2 -1 4c0 1 0 3 1 4c18 18 19 18 19 18c2 0 5 -1 8 -2c38 -31 90 -58 143 -58c98 0 188 48 188 134c0 59 -58 97 -161 150c-94 48 -141 94 -141 154c0 90 87 150 181 186
c-82 50 -124 85 -124 139c0 95 92 171 222 171c65 0 129 -24 170 -63l-1 -6l-17 -15c-1 -1 -2 -1 -3 -1c-2 0 -3 0 -5 1c-39 29 -93 56 -143 56c-102 0 -190 -48 -190 -134c0 -56 62 -96 161 -149c92 -58 143 -92 143 -154c0 -88 -89 -147 -176 -183zM130 285
c-1 -7 -2 -14 -2 -21c0 -58 51 -91 129 -136c14 -8 19 -11 26 -14c93 43 170 98 170 164c0 58 -51 90 -128 136l-27 16c-81 -38 -158 -86 -168 -145z" />
    <glyph glyph-name="bullet" unicode="&#x2022;" horiz-adv-x="389" 
d="M100 338c0 76 62 138 134 138c73 0 135 -63 135 -138c0 -74 -61 -138 -135 -138c-72 0 -134 62 -134 138z" />
    <glyph glyph-name="paragraph" unicode="&#xb6;" horiz-adv-x="596" 
d="M636 669h-43l-153 -864c0 -3 -4 -6 -7 -6h-17c-4 0 -7 3 -7 6l153 864h-161l-153 -864c0 -3 -4 -6 -7 -6h-18c-4 0 -7 3 -7 6l87 490c-125 0 -198 73 -198 168c0 141 114 234 265 234h271c4 0 6 -3 6 -5l-3 -16c-1 -4 -4 -7 -8 -7z" />
    <glyph glyph-name="germandbls" unicode="&#xdf;" horiz-adv-x="621" 
d="M251 45c29 -17 62 -30 93 -30c99 0 188 92 188 188c0 72 -62 154 -190 162c-3 1 -6 2 -6 7l7 39c1 5 6 9 11 12c76 37 162 100 162 194c0 54 -36 105 -120 105c-88 0 -175 -39 -205 -211l-89 -505c-1 -3 -4 -6 -7 -6h-18c-3 0 -5 2 -5 6l89 505c29 163 108 241 242 241
c94 0 148 -56 148 -126c0 -81 -63 -171 -173 -221l-2 -10c135 -21 191 -105 191 -184c0 -120 -112 -223 -226 -223c-21 0 -111 17 -111 35c0 1 0 2 1 3l9 16c2 3 5 4 7 4s3 0 4 -1z" />
    <glyph glyph-name="registered" unicode="&#xae;" horiz-adv-x="883" 
d="M537 300l126 -153c4 -5 1 -10 -7 -10h-29c-5 0 -11 2 -16 8c-42 50 -82 105 -126 156h-124v-158c0 -3 -3 -6 -7 -6h-26c-4 0 -8 3 -8 6v424c0 3 4 6 8 6h160c95 0 160 -55 160 -136c0 -61 -43 -110 -111 -137zM361 339h138c65 0 106 36 106 98c0 61 -41 98 -106 98h-138
v-196zM479 752c220 0 398 -179 398 -398s-178 -398 -398 -398s-397 179 -397 398s177 398 397 398zM479 -13c202 0 367 165 367 367s-165 366 -367 366s-366 -164 -366 -366s164 -367 366 -367z" />
    <glyph glyph-name="copyright" unicode="&#xa9;" horiz-adv-x="883" 
d="M621 212l13 -15c3 -5 3 -9 -1 -13c-39 -35 -93 -55 -149 -55c-132 0 -220 92 -220 226c0 133 88 224 220 224c57 0 106 -22 149 -56c4 -3 4 -9 1 -11l-15 -14c-4 -4 -9 -4 -12 -1c-35 33 -80 45 -123 45c-98 0 -178 -75 -178 -187c0 -114 80 -187 178 -187
c43 0 93 17 125 46c4 3 8 2 12 -2zM479 752c220 0 398 -179 398 -398s-178 -398 -398 -398s-397 179 -397 398s177 398 397 398zM479 -13c202 0 367 165 367 367s-165 366 -367 366s-366 -164 -366 -366s164 -367 366 -367z" />
    <glyph glyph-name="trademark" unicode="&#x2122;" horiz-adv-x="805" 
d="M643 391c-1 -2 -7 -4 -10 -5h-10c-3 0 -9 0 -10 3l-118 280h-9v-333c0 -5 -4 -9 -9 -9h-11c-5 0 -9 4 -9 9v352c0 4 4 9 9 9h43c4 0 7 -3 7 -6l112 -275c35 88 76 188 111 275c1 3 5 6 9 6h35c4 0 9 -5 9 -9v-352c0 -5 -5 -9 -9 -9h-12c-5 0 -9 4 -9 9v327h-8zM351 688
v-9c0 -5 -4 -8 -8 -8h-118v-335c0 -5 -3 -9 -8 -9h-15c-5 0 -8 4 -8 9v335h-118c-4 0 -8 3 -8 8v9c0 4 4 9 8 9h267c4 0 8 -5 8 -9z" />
    <glyph glyph-name="acute" unicode="&#xb4;" horiz-adv-x="450" 
d="M296 636l73 111c3 4 7 6 11 6h34c3 0 6 -1 6 -4c0 -1 -1 -3 -2 -4l-103 -114c-2 -2 -4 -4 -9 -4h-6c-4 0 -5 2 -5 5c0 1 0 3 1 4z" />
    <glyph glyph-name="dieresis" unicode="&#xa8;" horiz-adv-x="467" 
d="M232 647c-19 0 -32 14 -32 30c0 22 21 40 44 40c16 0 30 -13 30 -30c0 -20 -22 -40 -42 -40zM423 647c-17 0 -31 14 -31 30c0 22 24 40 43 40s32 -13 32 -30c0 -20 -21 -40 -44 -40z" />
    <glyph glyph-name="plusminus" unicode="&#xb1;" 
d="M88 386c0 3 3 6 6 6h233v232c0 3 3 6 7 6h18c3 0 5 -3 5 -6v-232h233c4 0 7 -3 7 -6v-19c0 -3 -3 -6 -7 -6h-233v-232c0 -5 -2 -7 -5 -7h-18c-4 0 -7 2 -7 7v232h-233c-3 0 -6 3 -6 6v19zM590 0h-496c-4 0 -7 3 -7 7v18c0 3 3 6 7 6h496c4 0 7 -3 7 -6v-18
c0 -4 -3 -7 -7 -7z" />
    <glyph glyph-name="yen" unicode="&#xa5;" horiz-adv-x="604" 
d="M697 698c2 0 2 -1 2 -3c0 -1 0 -3 -1 -4c-74 -85 -154 -176 -227 -262h134c2 0 6 -1 6 -5l-3 -17c0 -3 -4 -6 -8 -6h-155l-98 -115l-5 -30h233c4 0 6 -3 6 -5l-3 -18c-1 -3 -4 -6 -8 -6h-233l-39 -221c-1 -3 -4 -6 -8 -6h-18c-3 0 -6 2 -6 6l39 221h-233c-3 0 -5 2 -5 6
l3 18c0 2 4 5 7 5h233l5 30l-60 115h-153c-3 0 -5 3 -5 6l3 17c1 2 4 5 7 5h132l-134 262c0 3 2 7 5 7h24c3 0 6 -4 8 -7l194 -377l327 378c1 4 5 6 10 6h24z" />
    <glyph glyph-name="mu" unicode="&#xb5;" horiz-adv-x="577" 
d="M236 -12c-59 0 -102 23 -128 66l-44 -249c0 -3 -4 -6 -7 -6h-19c-4 0 -6 3 -6 6l124 701c0 3 4 6 7 6h18c4 0 7 -3 7 -6l-56 -316c-3 -19 -5 -37 -5 -53c0 -78 40 -120 128 -120c104 0 205 103 220 189l53 300c0 3 4 6 6 6h19c3 0 6 -3 6 -6l-89 -501c0 -3 -4 -5 -7 -5
h-19c-2 0 -5 2 -5 5l6 31c1 9 13 62 13 62l-9 1c-44 -55 -121 -111 -213 -111z" />
    <glyph glyph-name="ordfeminine" unicode="&#xaa;" horiz-adv-x="551" 
d="M438 500l10 56h-38c-120 0 -221 -19 -221 -113c0 -43 33 -66 91 -66c57 0 145 50 158 123zM447 363c-1 -3 -5 -6 -8 -6h-16c-2 0 -5 1 -5 6l11 65h-6c-39 -50 -80 -80 -155 -80c-69 0 -112 36 -112 89c0 119 131 144 244 144h52l7 38c1 8 2 15 2 22c0 53 -36 84 -103 84
c-51 0 -94 -15 -118 -25c-2 0 -7 1 -9 2c-3 16 -3 17 -3 17c0 14 95 34 149 34c60 0 115 -32 115 -113c0 -11 -1 -24 -3 -37z" />
    <glyph glyph-name="ordmasculine" unicode="&#xba;" horiz-adv-x="613" 
d="M348 360c97 0 194 81 194 214c0 84 -54 134 -133 134c-97 0 -194 -82 -194 -214c0 -85 54 -134 133 -134zM414 736c95 0 160 -67 160 -162c0 -139 -114 -243 -231 -243c-97 0 -160 64 -160 160c0 137 110 245 231 245z" />
    <glyph glyph-name="ae" unicode="&#xe6;" horiz-adv-x="953" 
d="M744 523c114 0 180 -64 180 -185c0 -16 -1 -80 -14 -80l-427 -1c-3 -18 -5 -36 -5 -53c0 -117 78 -187 196 -187c68 0 126 19 158 31c1 0 1 1 2 1c3 0 6 -3 7 -4l2 -14c0 -2 -2 -6 -3 -7c-49 -21 -97 -36 -178 -36c-108 0 -183 59 -211 151c-51 -89 -147 -151 -251 -151
c-87 0 -144 47 -144 115c0 162 177 189 330 189h70l5 30c3 19 5 37 5 53c0 75 -38 120 -139 120c-57 0 -98 -14 -129 -25l-10 -4c-2 0 -3 -1 -5 -1s-4 1 -5 4l-3 13c0 26 110 41 170 41c70 0 140 -41 153 -134c60 82 150 134 246 134zM438 189l13 77h-59
c-164 0 -303 -26 -303 -155c0 -60 45 -94 129 -94c78 0 202 69 220 172zM491 284h395v1c2 17 4 32 4 47c0 101 -55 163 -151 163c-115 0 -213 -77 -248 -210v-1z" />
    <glyph glyph-name="oslash" unicode="&#xf8;" horiz-adv-x="613" 
d="M378 524c44 0 85 -12 117 -32l20 25c4 5 10 7 14 7h14c3 0 4 -2 4 -4c0 -1 0 -2 -1 -3l-30 -41c43 -37 69 -96 69 -166c0 -188 -148 -322 -302 -322c-46 0 -86 11 -117 31l-17 -23c-3 -4 -7 -8 -13 -8h-17c-3 0 -5 1 -5 3c0 1 1 2 2 4l28 38c-44 37 -69 95 -69 166
c0 189 147 325 303 325zM112 255c-3 -17 -5 -34 -5 -50c0 -63 23 -114 57 -147l313 410c-29 18 -64 28 -104 28c-125 0 -234 -93 -261 -241zM288 17c134 0 263 112 263 291c0 61 -21 113 -55 145l-311 -411c28 -17 63 -25 103 -25z" />
    <glyph glyph-name="questiondown" unicode="&#xbf;" horiz-adv-x="528" 
d="M215 -180c66 0 132 22 188 59c2 1 4 2 6 2s4 -1 4 -3l7 -13c1 -1 2 -4 2 -5c0 -2 0 -4 -3 -6c-67 -46 -124 -64 -207 -64c-118 0 -188 65 -188 152c0 116 93 176 255 273l18 102c1 4 5 7 9 7h20c3 0 5 -2 5 -7l-19 -108c-1 -8 -8 -14 -15 -19
c-132 -74 -237 -143 -237 -241c0 -77 61 -129 155 -129zM381 486c-4 -21 -24 -39 -46 -39c-19 0 -34 14 -34 32c0 23 23 45 48 45c20 0 33 -15 33 -32c0 -2 -1 -4 -1 -6z" />
    <glyph glyph-name="exclamdown" unicode="&#xa1;" horiz-adv-x="284" 
d="M62 -201c-3 0 -5 1 -5 5l35 197l61 297c1 2 5 6 7 6h4c3 0 7 -2 7 -5v-1l-42 -296l-35 -198c-1 -3 -4 -5 -8 -5h-24zM234 486c-3 -20 -24 -38 -46 -38c-19 0 -33 15 -33 32c0 24 25 44 47 44c19 0 33 -13 33 -31c0 -2 -1 -5 -1 -7z" />
    <glyph glyph-name="logicalnot" unicode="&#xac;" 
d="M571 118c-3 0 -7 3 -7 5v252h-471c-3 0 -6 3 -6 7v19c0 3 3 6 6 6h496c4 0 7 -3 7 -6v-278c0 -2 -4 -5 -7 -5h-18z" />
    <glyph glyph-name="guillemotleft" unicode="&#xab;" horiz-adv-x="550" 
d="M101 284c163 -199 163 -199 163 -200c0 -2 -1 -4 -2 -5l-15 -12c-1 -1 -2 -1 -4 -1s-4 0 -5 1l-173 210c-1 2 -2 4 -2 7s1 6 4 8l247 211c1 1 4 1 6 1s3 0 4 -1l10 -12c1 -1 1 -2 1 -3c0 -2 -1 -4 -1 -4zM351 284c162 -199 162 -199 162 -200c0 -2 -1 -4 -2 -5l-14 -12
c-1 -1 -2 -1 -4 -1s-4 0 -5 1l-173 210c-1 2 -2 4 -2 7s1 6 4 8l247 211c1 1 4 1 6 1s3 0 4 -1l9 -12c1 -1 1 -2 1 -3c0 -2 -1 -4 -1 -4z" />
    <glyph glyph-name="guillemotright" unicode="&#xbb;" horiz-adv-x="551" 
d="M279 86l232 200c-163 198 -163 199 -163 199c0 2 1 4 3 6l14 12c1 1 3 2 5 2s4 -1 5 -2l172 -211c1 -2 1 -4 1 -6c0 -3 -1 -7 -5 -9l-246 -210c-1 -1 -2 -1 -4 -1s-4 0 -5 1c-11 12 -12 13 -12 14s1 4 3 5zM29 86l232 200c-163 198 -163 199 -163 199c0 2 1 4 3 6l14 12
c1 1 3 2 5 2s4 -1 5 -2l174 -211v-5c0 -4 -1 -7 -4 -10l-248 -210c-1 -1 -3 -1 -5 -1c-1 0 -3 0 -4 1c-11 12 -12 13 -12 14s1 4 3 5z" />
    <glyph glyph-name="ellipsis" unicode="&#x2026;" horiz-adv-x="887" 
d="M134 26c-3 -20 -25 -38 -47 -38c-20 0 -34 15 -34 33c0 23 25 44 48 44c19 0 34 -14 34 -32c0 -3 -1 -5 -1 -7zM466 26c-3 -20 -25 -38 -47 -38c-20 0 -33 15 -33 32c0 24 24 45 47 45c19 0 34 -14 34 -32c0 -3 -1 -5 -1 -7zM797 26c-3 -20 -24 -38 -47 -38
c-18 0 -33 15 -33 33c0 23 26 44 47 44c20 0 34 -14 34 -32c0 -2 -1 -5 -1 -7z" />
    <glyph glyph-name="endash" unicode="&#x2013;" horiz-adv-x="588" 
d="M74 297c0 2 4 5 7 5h489c4 0 6 -3 6 -5l-3 -19c-1 -3 -5 -6 -9 -6h-489c-3 0 -4 2 -4 4v2z" />
    <glyph glyph-name="emdash" unicode="&#x2014;" horiz-adv-x="1024" 
d="M73 297c0 2 4 5 7 5h927c4 0 6 -3 6 -5l-3 -19c-1 -3 -5 -6 -9 -6h-927c-2 0 -4 2 -4 6z" />
    <glyph glyph-name="quotedblleft" unicode="&#x201c;" horiz-adv-x="409" 
d="M195 612c-1 -3 -1 -5 -1 -7c0 -19 33 -23 33 -49c0 -20 -24 -41 -44 -41c-18 0 -34 12 -34 38c0 48 27 111 100 185c0 1 3 2 5 2c1 0 2 0 3 -1l5 -4c1 -1 1 -2 1 -3s-1 -2 -1 -3c-48 -55 -62 -90 -67 -117zM373 612c-1 -3 -1 -5 -1 -7c0 -19 33 -23 33 -48
c0 -21 -22 -42 -44 -42c-18 0 -33 12 -33 37c0 49 27 112 99 186c0 1 3 2 5 2c1 0 2 0 3 -1l5 -4c1 -1 1 -2 1 -3s-1 -2 -1 -3c-48 -55 -62 -90 -67 -117z" />
    <glyph glyph-name="quotedblright" unicode="&#x201d;" horiz-adv-x="409" 
d="M392 648v6c0 18 -33 22 -33 49c0 19 23 42 45 42c18 0 32 -13 32 -39c0 -48 -26 -111 -98 -185c-1 -1 -3 -2 -5 -2c-1 0 -2 0 -3 1c-6 5 -6 6 -6 6c0 2 0 3 1 4c48 55 62 89 67 118zM214 648v6c0 19 -34 23 -34 49c0 19 24 42 46 42c17 0 32 -13 32 -39
c0 -48 -27 -111 -99 -185c-1 -1 -3 -2 -5 -2c-1 0 -2 0 -3 1c-6 4 -6 5 -6 6s0 3 1 4c52 58 62 88 68 118z" />
    <glyph glyph-name="quoteleft" unicode="&#x2018;" horiz-adv-x="231" 
d="M195 612c-1 -3 -1 -5 -1 -7c0 -19 33 -23 33 -49c0 -20 -24 -41 -44 -41c-18 0 -34 12 -34 38c0 48 27 111 100 185c0 1 3 2 5 2c1 0 2 0 3 -1l5 -4c1 -1 1 -2 1 -3s-1 -2 -1 -3c-48 -55 -62 -90 -67 -117z" />
    <glyph glyph-name="quoteright" unicode="&#x2019;" horiz-adv-x="231" 
d="M214 648v6c0 19 -34 23 -34 49c0 19 24 42 46 42c17 0 32 -13 32 -39c0 -48 -27 -111 -99 -185c-1 -1 -3 -2 -5 -2c-1 0 -2 0 -3 1c-6 4 -6 5 -6 6s0 3 1 4c52 58 62 88 68 118z" />
    <glyph glyph-name="divide" unicode="&#xf7;" 
d="M377 145c0 -22 -19 -39 -40 -39s-39 17 -39 39s18 40 39 40s40 -18 40 -40zM377 500c0 -22 -19 -39 -40 -39s-39 17 -39 39c0 21 18 40 39 40s40 -19 40 -40zM590 310h-496c-4 0 -7 3 -7 7v18c0 3 3 6 7 6h496c4 0 7 -3 7 -6v-18c0 -4 -3 -7 -7 -7z" />
    <glyph glyph-name="Euro" unicode="&#x20ac;" horiz-adv-x="723" 
d="M626 76c1 1 2 1 4 1s5 -1 5 -4l10 -14c0 -1 1 -2 1 -3c0 -2 -2 -5 -5 -6c-65 -38 -142 -62 -217 -62c-172 0 -275 112 -287 265h-87c-3 0 -4 3 -4 6l3 16c1 3 3 6 6 7h80c2 48 7 88 27 140h-82c-2 0 -4 2 -4 6l3 18c1 2 3 5 6 6h89c67 147 210 257 378 257
c75 0 143 -23 195 -62c1 -1 1 -2 1 -4c0 -1 0 -2 -1 -3l-15 -18c-1 -1 -9 -5 -10 -2c-47 38 -110 59 -176 59c-137 0 -270 -88 -338 -227h366c2 0 6 -1 6 -5l-3 -19c-1 -3 -4 -6 -8 -7h-373c-21 -47 -26 -89 -26 -139h374c3 0 6 -2 6 -6l-3 -17c0 -3 -4 -6 -8 -7h-368
c12 -145 117 -234 259 -234c66 0 137 18 196 58z" />
    <glyph glyph-name="guilsinglleft" unicode="&#x2039;" horiz-adv-x="326" 
d="M101 284l163 -198v-2c0 -2 -1 -4 -2 -5l-14 -12c-1 -1 -2 -1 -4 -1s-4 0 -5 1l-174 210c-1 2 -2 4 -2 7s1 6 4 8l248 211c1 1 4 1 6 1s3 0 4 -1l9 -12c1 -1 1 -2 1 -3c0 -2 -1 -4 -1 -4z" />
    <glyph glyph-name="guilsinglright" unicode="&#x203a;" horiz-adv-x="326" 
d="M29 86l233 200l-163 198c-1 0 -1 1 -1 1c0 2 1 4 3 6l14 12c1 1 3 2 5 2s4 -1 5 -2l174 -211v-5c0 -4 -1 -7 -4 -10l-248 -210c-1 -1 -3 -1 -5 -1c-1 0 -3 0 -4 1l-11 12s-1 1 -1 2s1 4 3 5z" />
    <glyph glyph-name="periodcentered" unicode="&#xb7;" horiz-adv-x="282" 
d="M235 337c-4 -20 -25 -38 -46 -38c-20 0 -33 14 -33 31c0 24 23 45 47 45c19 0 33 -14 33 -31c0 -3 -1 -5 -1 -7z" />
    <glyph glyph-name="quotesinglbase" unicode="&#x201a;" horiz-adv-x="231" 
d="M94 -32v6c0 20 -34 24 -34 48c0 21 24 43 46 43c17 0 32 -13 32 -39c0 -49 -27 -110 -99 -185c-1 -1 -3 -2 -5 -2c-1 0 -2 0 -3 1c-6 4 -6 5 -6 6s0 3 1 4c52 59 63 89 68 118z" />
    <glyph glyph-name="quotedblbase" unicode="&#x201e;" horiz-adv-x="410" 
d="M94 -32v6c0 20 -34 24 -34 48c0 21 24 43 46 43c17 0 32 -13 32 -39c0 -49 -27 -110 -99 -185c-1 -1 -3 -2 -5 -2c-1 0 -2 0 -3 1c-6 4 -6 5 -6 6s0 3 1 4c52 59 63 89 68 118zM273 -32v6c0 19 -33 23 -33 48c0 21 23 43 45 43c18 0 32 -13 32 -39
c0 -48 -26 -110 -98 -185c-1 -1 -3 -2 -5 -2c-1 0 -2 0 -3 1c-6 5 -6 6 -6 6c0 2 0 3 1 4c48 56 62 90 67 118z" />
    <glyph glyph-name="circumflex" unicode="&#x2c6;" horiz-adv-x="447" 
d="M426 635c1 -4 -4 -8 -8 -8h-21c-5 0 -9 5 -11 9l-53 100l-88 -102c-5 -5 -10 -7 -13 -7h-22c-3 0 -7 2 -7 6l101 112c5 5 11 9 15 9h35c4 0 10 -4 13 -9z" />
    <glyph glyph-name="tilde" unicode="&#x2dc;" horiz-adv-x="470" 
d="M487 732h16c5 0 6 -4 5 -7c-23 -49 -64 -88 -107 -88c-51 0 -98 63 -139 63c-33 0 -54 -21 -66 -58c-2 -5 -7 -7 -11 -7h-17c-4 0 -4 6 -4 10c18 50 65 84 106 84c43 0 103 -61 138 -61c27 0 55 29 69 59c2 4 6 5 10 5z" />
    <glyph glyph-name="macron" unicode="&#xaf;" horiz-adv-x="468" 
d="M499 726l-3 -14c-1 -4 -5 -7 -9 -7h-295c-3 0 -8 1 -8 7l3 14c0 3 4 6 10 6h295c4 0 7 -3 7 -6z" />
    <glyph glyph-name="cedilla" unicode="&#xb8;" horiz-adv-x="461" 
d="M262 -61c17 -11 25 -27 25 -46c0 -56 -68 -103 -144 -103c-27 0 -64 -1 -64 12l3 13c0 3 7 7 10 7c15 -4 25 -6 41 -6c69 0 119 27 119 71c0 28 -26 27 -26 46c0 17 20 62 25 62h19c3 0 6 -2 6 -5c0 -15 -10 -36 -14 -51z" />
    <glyph glyph-name="ring" unicode="&#x2da;" horiz-adv-x="477" 
d="M229 726c11 63 73 113 136 113c59 0 102 -41 102 -96c0 -71 -70 -134 -142 -134c-56 0 -98 40 -98 96c0 7 1 14 2 21zM257 726c-1 -6 -2 -12 -2 -18c0 -44 33 -77 77 -77c50 0 107 51 107 109c0 43 -32 76 -75 76c-50 0 -99 -40 -107 -90z" />
    <glyph glyph-name="breve" unicode="&#x2d8;" horiz-adv-x="464" 
d="M478 750c3 0 5 -5 5 -10c-29 -64 -88 -112 -162 -112s-114 47 -121 112c0 6 6 10 11 10h14c4 0 7 -3 9 -7c8 -49 41 -86 92 -86c52 0 99 37 125 86c2 4 9 7 13 7h14z" />
    <glyph glyph-name="dotaccent" unicode="&#x2d9;" horiz-adv-x="464" 
d="M322 646c-15 0 -29 13 -29 29c0 23 23 41 42 41c21 0 35 -13 35 -30c0 -20 -23 -40 -48 -40z" />
    <glyph glyph-name="hungarumlaut" unicode="&#x2dd;" horiz-adv-x="421" 
d="M212 637l72 111c3 4 7 6 11 6h35c3 0 5 -2 5 -4c0 -1 -1 -2 -2 -4l-101 -114c-1 -2 -4 -4 -10 -4h-6c-3 0 -5 3 -5 6c0 1 0 2 1 3zM361 637l72 111c3 4 7 6 11 6h34c3 0 6 -1 6 -4c0 -1 -1 -3 -2 -4l-101 -114c-1 -2 -4 -4 -10 -4h-6c-3 0 -5 3 -5 6c0 1 0 2 1 3z" />
    <glyph glyph-name="ogonek" unicode="&#x2db;" horiz-adv-x="465" 
d="M279 -165l-2 -13c-8 -15 -44 -22 -71 -22c-74 0 -103 38 -105 91c-1 27 6 58 17 88c4 11 8 16 14 16h16c3 0 6 -2 6 -5c0 -1 -2 -5 -3 -8c-9 -21 -16 -50 -16 -74c0 -47 24 -79 83 -79c17 0 36 4 51 11c1 0 2 1 3 1c5 0 7 -3 7 -6z" />
    <glyph glyph-name="caron" unicode="&#x2c7;" horiz-adv-x="447" 
d="M227 746c-1 4 4 8 8 8h21c5 0 9 -5 11 -9l53 -100l88 102c5 5 10 7 13 7h22c3 0 7 -2 7 -6l-101 -112c-5 -5 -11 -9 -15 -9h-35c-4 0 -10 4 -13 9z" />
    <glyph glyph-name="dagger" unicode="&#x2020;" horiz-adv-x="543" 
d="M121 507c0 2 4 5 7 5h194l35 200c0 2 5 4 9 4h19c3 0 5 -2 5 -4l-35 -200h196c4 0 6 -3 6 -5l-3 -18c-1 -4 -5 -7 -9 -7h-196l-92 -527c-1 -3 -4 -6 -7 -6h-19c-3 0 -7 1 -7 6l92 527h-194c-3 0 -4 2 -4 7z" />
    <glyph glyph-name="daggerdbl" unicode="&#x2021;" horiz-adv-x="543" 
d="M121 507c0 2 4 5 7 5h194l35 200c0 2 5 4 9 4h19c3 0 5 -2 5 -4l-35 -200h196c4 0 6 -3 6 -5l-3 -18c-1 -4 -5 -7 -9 -7h-196l-52 -296h196c2 0 6 -1 6 -5l-3 -18c0 -3 -4 -6 -8 -6h-196l-35 -201c-1 -4 -4 -7 -7 -7h-19c-4 0 -7 2 -7 7l35 201h-194c-3 0 -5 3 -5 6l3 18
c1 2 4 5 7 5h194l52 296h-194c-3 0 -4 2 -4 7z" />
    <glyph glyph-name="notequal" unicode="&#x2260;" 
d="M87 448c0 3 3 6 6 6h278l76 202c2 5 7 7 10 7h14c4 0 7 -4 5 -8l-76 -201h189c4 0 7 -3 7 -6v-19c0 -4 -3 -7 -7 -7h-200l-69 -183h269c4 0 7 -3 7 -6v-18c0 -4 -3 -7 -7 -7h-282l-73 -200c-2 -6 -6 -8 -10 -8h-15c-5 0 -6 5 -4 10l74 198h-186c-3 0 -6 3 -6 7v18
c0 3 3 6 6 6h198l68 183h-266c-3 0 -6 3 -6 7v19z" />
    <glyph glyph-name="approxequal" unicode="&#x2248;" 
d="M592 470c3 -3 4 -5 1 -9c-36 -59 -76 -93 -132 -93c-88 0 -159 93 -241 93c-44 0 -76 -33 -109 -80c-1 -3 -6 -4 -9 -1l-10 9c-3 3 -4 7 -1 11c44 62 77 90 132 90c89 0 158 -93 242 -93c41 0 74 31 107 78c2 3 8 4 11 1c0 0 7 -3 9 -6zM592 282c3 -3 4 -6 1 -10
c-36 -58 -76 -92 -132 -92c-88 0 -159 92 -241 92c-44 0 -76 -32 -109 -79c-1 -3 -6 -4 -9 -1l-10 9c-3 3 -4 7 -1 11c44 61 77 90 132 90c89 0 158 -93 242 -93c41 0 74 31 107 78c2 3 8 4 11 1c0 0 7 -3 9 -6z" />
    <glyph glyph-name="lessequal" unicode="&#x2264;" 
d="M87 68c0 3 3 5 6 5h496c4 0 7 -2 7 -5v-18c0 -4 -3 -7 -7 -7h-496c-3 0 -6 3 -6 7v18zM585 606c0 -4 -2 -7 -5 -8l-440 -188l440 -189c3 -1 5 -3 5 -7v-20c0 -3 -4 -7 -8 -5l-473 205c-3 3 -3 3 -3 4l-1 22c0 1 2 3 4 5l473 205c4 2 8 -2 8 -5v-19z" />
    <glyph glyph-name="greaterequal" unicode="&#x2265;" 
d="M596 68v-18c0 -4 -3 -7 -6 -7h-496c-4 0 -7 3 -7 7v18c0 3 3 5 7 5h496c3 0 6 -2 6 -5zM98 606v19c0 3 4 7 8 5l473 -205c2 -2 4 -4 4 -5l-1 -22c0 -1 0 -1 -3 -4l-473 -205c-4 -2 -8 2 -8 5v20c0 4 2 6 5 7l440 189l-440 188c-3 1 -5 4 -5 8z" />
    <glyph glyph-name="dotlessi" unicode="&#x131;" horiz-adv-x="217" 
d="M186 512c3 0 4 -3 4 -5l-88 -501c-1 -3 -3 -6 -6 -6h-18c-3 0 -6 2 -6 6l88 501c0 2 4 5 8 5h18z" />
    <glyph glyph-name="a" unicode="a" horiz-adv-x="551" 
d="M438 189l14 79h-59c-165 0 -303 -29 -303 -157c0 -60 45 -94 128 -94c80 0 202 69 220 172zM176 483c-1 2 -1 3 -1 4c0 2 2 4 4 5c48 20 92 32 167 32c79 0 153 -39 153 -145c0 -15 -1 -31 -4 -48l-57 -325c-1 -3 -4 -6 -8 -6h-16c-3 0 -6 2 -6 6l15 86h-8
c-43 -53 -129 -104 -215 -104c-87 0 -143 47 -143 115c0 162 177 189 331 189h68l5 31c3 19 5 37 5 53c0 75 -38 120 -138 120c-58 0 -102 -15 -133 -26l-8 -3c-2 -1 -3 -1 -4 -1c-2 0 -3 1 -4 2z" />
    <glyph glyph-name="fraction" unicode="&#x2044;" horiz-adv-x="783" 
d="M702 697h15c3 0 5 -1 5 -3c0 -1 0 -2 -1 -3l-523 -682c-4 -5 -8 -9 -13 -9h-17c-4 0 -5 1 -5 3c0 1 0 3 1 4l525 684c3 4 9 6 13 6z" />
    <glyph glyph-name="perthousand" unicode="&#x2030;" horiz-adv-x="1159" 
d="M707 698h17c2 0 2 -3 2 -5c-158 -208 -363 -477 -520 -686c-3 -4 -6 -7 -11 -7h-21c-2 0 -3 2 -3 4c0 1 0 2 1 3l524 685c3 4 8 6 11 6zM275 705c67 0 103 -35 103 -116c0 -21 -2 -44 -7 -70c-23 -129 -78 -185 -162 -185c-66 0 -101 35 -101 115c0 21 2 44 7 70
c23 131 78 186 160 186zM214 361c66 0 130 69 130 222c0 64 -25 94 -74 94c-64 0 -128 -70 -128 -223c0 -64 25 -93 72 -93zM694 364c66 0 102 -35 102 -116c0 -20 -2 -44 -7 -70c-23 -130 -78 -184 -161 -184c-66 0 -102 34 -102 114c0 21 2 44 7 70c23 131 78 186 161 186
zM633 20c65 0 130 69 130 222c0 65 -26 94 -74 94c-64 0 -128 -68 -128 -223c0 -64 25 -93 72 -93zM1036 364c65 0 101 -35 101 -116c0 -20 -2 -44 -7 -70c-23 -130 -78 -184 -160 -184c-67 0 -103 34 -103 114c0 21 2 44 7 70c23 131 78 186 162 186zM975 20
c64 0 129 69 129 222c0 65 -26 94 -73 94c-64 0 -129 -68 -129 -222c0 -64 25 -94 73 -94z" />
    <glyph glyph-name="OE" unicode="&#x152;" horiz-adv-x="1267" 
d="M1285 669h-436l-52 -298h384c2 0 6 -1 6 -4l-3 -17c0 -3 -4 -6 -8 -6h-384l-56 -317h436c4 0 7 -2 7 -4l-3 -17c-1 -3 -4 -6 -8 -6h-461c-3 0 -6 2 -6 7l30 179c-73 -111 -208 -198 -345 -198c-180 0 -286 126 -286 289c0 228 186 432 414 432c138 0 242 -83 275 -198
c7 40 28 186 40 186h461c4 0 7 -3 7 -5l-3 -17c-1 -3 -5 -6 -9 -6zM392 18c190 0 374 165 374 401c0 158 -105 260 -258 260c-189 0 -374 -164 -374 -400c0 -159 106 -261 258 -261z" />
    <glyph glyph-name="oe" unicode="&#x153;" horiz-adv-x="1019" 
d="M1014 266c0 -4 -6 -7 -9 -8h-424c-3 -18 -5 -37 -5 -53c0 -118 79 -188 196 -188c68 0 124 20 156 32c1 0 3 1 4 1c3 0 6 0 7 -3l3 -16c0 -26 -121 -43 -183 -43c-118 0 -196 66 -213 166c-54 -100 -155 -166 -264 -166c-125 0 -208 83 -208 210c0 189 148 326 303 326
c109 0 185 -67 203 -167c53 100 154 167 261 167c116 0 180 -63 180 -184c0 -23 -2 -47 -7 -74zM287 17c136 0 264 114 264 295c0 114 -71 184 -179 184c-134 0 -266 -117 -266 -296c0 -115 73 -183 181 -183zM588 284h398c3 17 4 34 4 49c0 101 -59 163 -154 163
c-113 0 -213 -78 -248 -212z" />
    <glyph glyph-name="Adieresis" unicode="&#xc4;" horiz-adv-x="682" 
d="M619 9c0 -6 -3 -9 -7 -9h-17c-5 0 -9 4 -10 8l-48 189h-409l-114 -189c-3 -4 -7 -8 -12 -8h-19c-3 0 -5 2 -5 5c0 2 0 3 1 4l416 681c2 3 8 7 14 7h21c5 0 11 -4 12 -7zM145 222h385l-82 321l-31 129h-4l-74 -129zM348 832c-19 0 -32 14 -32 30c0 22 21 40 44 40
c16 0 30 -13 30 -30c0 -20 -22 -40 -42 -40zM539 832c-17 0 -31 14 -31 30c0 22 24 40 43 40s32 -13 32 -30c0 -20 -21 -40 -44 -40z" />
    <glyph glyph-name="Aring" unicode="&#xc5;" horiz-adv-x="682" 
d="M339 778c0 68 65 134 139 134c59 0 102 -42 102 -96c0 -63 -56 -119 -115 -131c176 -677 176 -678 176 -678c0 -4 -3 -7 -7 -7h-18c-5 0 -9 4 -10 8l-48 189h-409l-114 -189c-3 -4 -7 -8 -12 -8h-18c-3 0 -5 2 -5 5c0 2 0 3 1 4c135 219 278 456 413 676
c-44 10 -75 45 -75 93zM166 222h385l-82 321l-30 128l-4 1l-75 -129zM477 890c-54 0 -110 -50 -110 -108c0 -44 33 -77 78 -77c52 0 106 51 106 110c0 42 -31 75 -74 75z" />
    <glyph glyph-name="Ccedilla" unicode="&#xc7;" horiz-adv-x="720" 
d="M387 -59c17 -11 26 -27 26 -46c0 -55 -66 -103 -144 -103c-8 0 -61 -2 -63 12l2 13c1 3 6 7 9 7c16 -4 26 -6 42 -6c67 0 118 28 118 70c0 28 -26 28 -26 47c0 14 13 39 18 54c-170 9 -268 130 -268 288c0 227 185 432 414 432c97 0 179 -37 230 -99l1 -4l-18 -17
c-1 -1 -2 -1 -4 -1s-4 0 -6 1c-49 54 -126 90 -209 90c-190 0 -374 -164 -374 -400c0 -159 105 -261 258 -261c83 0 172 36 241 90c1 0 3 1 5 1s4 -1 5 -1l12 -15c0 -2 0 -4 -2 -7c-72 -58 -161 -94 -254 -100c-4 -15 -9 -30 -13 -45z" />
    <glyph glyph-name="Eacute" unicode="&#xc9;" horiz-adv-x="649" 
d="M642 669h-435l-52 -298h384c2 0 6 -1 6 -4l-3 -17c0 -3 -4 -6 -8 -6h-384l-56 -317h435c4 0 7 -2 7 -4l-3 -17c-1 -3 -4 -6 -8 -6h-459c-3 0 -6 2 -6 6l121 686c0 2 3 5 7 5h459c4 0 7 -3 7 -5l-3 -17c-1 -3 -5 -6 -9 -6zM393 821l73 111c3 4 7 6 11 6h34c3 0 6 -1 6 -4
c0 -1 -1 -3 -2 -4l-103 -114c-2 -2 -4 -4 -9 -4h-6c-4 0 -5 2 -5 5c0 1 0 3 1 4z" />
    <glyph glyph-name="Ntilde" unicode="&#xd1;" horiz-adv-x="761" 
d="M732 697c3 0 6 -3 6 -5l-121 -686c-1 -3 -4 -6 -7 -6h-18c-2 0 -7 2 -10 4l-375 635h-8c-2 -16 -12 -84 -21 -136l-87 -497c-1 -3 -4 -6 -7 -6h-18c-4 0 -6 2 -6 5v1l121 686c0 2 3 5 7 5h15c2 0 7 -2 8 -6l376 -635h9c4 32 9 70 22 140l88 496c0 2 3 5 7 5h19zM639 917
h16c5 0 6 -4 5 -7c-23 -49 -64 -88 -107 -88c-51 0 -98 63 -139 63c-33 0 -54 -21 -66 -58c-2 -5 -7 -7 -11 -7h-17c-4 0 -4 6 -4 10c18 50 65 84 106 84c43 0 103 -61 138 -61c27 0 55 29 69 59c2 4 6 5 10 5z" />
    <glyph glyph-name="Odieresis" unicode="&#xd6;" horiz-adv-x="821" 
d="M489 709c179 0 289 -126 289 -289c0 -227 -183 -432 -409 -432c-180 0 -290 125 -290 289c0 227 181 432 410 432zM371 18c188 0 372 167 372 403c0 158 -104 258 -256 258c-190 0 -374 -166 -374 -402c0 -159 105 -259 258 -259zM416 832c-19 0 -32 14 -32 30
c0 22 21 40 44 40c16 0 30 -13 30 -30c0 -20 -22 -40 -42 -40zM607 832c-17 0 -31 14 -31 30c0 22 24 40 43 40s32 -13 32 -30c0 -20 -21 -40 -44 -40z" />
    <glyph glyph-name="Udieresis" unicode="&#xdc;" horiz-adv-x="779" 
d="M761 692l-70 -394c-33 -185 -173 -310 -345 -310c-153 0 -247 95 -247 242c0 21 2 44 6 68l70 394c0 2 3 5 7 5h18c3 0 6 -3 6 -5l-68 -384c-4 -24 -6 -47 -6 -69c0 -133 74 -221 216 -221c165 0 284 120 314 290l68 384c0 2 3 5 7 5h18c3 0 6 -3 6 -5zM396 832
c-19 0 -32 14 -32 30c0 22 21 40 44 40c16 0 30 -13 30 -30c0 -20 -22 -40 -42 -40zM587 832c-17 0 -31 14 -31 30c0 22 24 40 43 40s32 -13 32 -30c0 -20 -21 -40 -44 -40z" />
    <glyph glyph-name="aacute" unicode="&#xe1;" horiz-adv-x="551" 
d="M416 189l14 79h-59c-165 0 -303 -29 -303 -157c0 -60 45 -94 128 -94c80 0 202 69 220 172zM154 483c-1 2 -1 3 -1 4c0 2 2 4 4 5c48 20 92 32 167 32c79 0 153 -39 153 -145c0 -15 -1 -31 -4 -48l-57 -325c-1 -3 -4 -6 -8 -6h-16c-3 0 -6 2 -6 6l15 86h-8
c-43 -53 -129 -104 -215 -104c-87 0 -143 47 -143 115c0 162 177 189 331 189h68l5 31c3 19 5 37 5 53c0 75 -38 120 -138 120c-58 0 -102 -15 -133 -26l-8 -3c-2 -1 -3 -1 -4 -1c-2 0 -3 1 -4 2zM307 636l73 111c3 4 7 6 11 6h34c3 0 6 -1 6 -4c0 -1 -1 -3 -2 -4l-103 -114
c-2 -2 -4 -4 -9 -4h-6c-4 0 -5 2 -5 5c0 1 0 3 1 4z" />
    <glyph glyph-name="agrave" unicode="&#xe0;" horiz-adv-x="551" 
d="M416 189l14 79h-59c-165 0 -303 -29 -303 -157c0 -60 45 -94 128 -94c80 0 202 69 220 172zM154 483c-1 2 -1 3 -1 4c0 2 2 4 4 5c48 20 92 32 167 32c79 0 153 -39 153 -145c0 -15 -1 -31 -4 -48l-57 -325c-1 -3 -4 -6 -8 -6h-16c-3 0 -6 2 -6 6l15 86h-8
c-43 -53 -129 -104 -215 -104c-87 0 -143 47 -143 115c0 162 177 189 331 189h68l5 31c3 19 5 37 5 53c0 75 -38 120 -138 120c-58 0 -102 -15 -133 -26l-8 -3c-2 -1 -3 -1 -4 -1c-2 0 -3 1 -4 2zM341 747l35 -111c0 -4 -3 -9 -8 -9h-6c-5 0 -8 2 -8 4l-62 114
c-1 1 -1 2 -1 3c0 3 3 5 7 5h34c4 0 8 -2 9 -6z" />
    <glyph glyph-name="acircumflex" unicode="&#xe2;" horiz-adv-x="551" 
d="M416 189l14 79h-59c-165 0 -303 -29 -303 -157c0 -60 45 -94 128 -94c80 0 202 69 220 172zM154 483c-1 2 -1 3 -1 4c0 2 2 4 4 5c48 20 92 32 167 32c79 0 153 -39 153 -145c0 -15 -1 -31 -4 -48l-57 -325c-1 -3 -4 -6 -8 -6h-16c-3 0 -6 2 -6 6l15 86h-8
c-43 -53 -129 -104 -215 -104c-87 0 -143 47 -143 115c0 162 177 189 331 189h68l5 31c3 19 5 37 5 53c0 75 -38 120 -138 120c-58 0 -102 -15 -133 -26l-8 -3c-2 -1 -3 -1 -4 -1c-2 0 -3 1 -4 2zM449 635c1 -4 -4 -8 -8 -8h-21c-5 0 -9 5 -11 9l-53 100l-88 -102
c-5 -5 -10 -7 -13 -7h-22c-3 0 -7 2 -7 6l101 112c5 5 11 9 15 9h35c4 0 10 -4 13 -9z" />
    <glyph glyph-name="adieresis" unicode="&#xe4;" horiz-adv-x="551" 
d="M416 189l14 79h-59c-165 0 -303 -29 -303 -157c0 -60 45 -94 128 -94c80 0 202 69 220 172zM154 483c-1 2 -1 3 -1 4c0 2 2 4 4 5c48 20 92 32 167 32c79 0 153 -39 153 -145c0 -15 -1 -31 -4 -48l-57 -325c-1 -3 -4 -6 -8 -6h-16c-3 0 -6 2 -6 6l15 86h-8
c-43 -53 -129 -104 -215 -104c-87 0 -143 47 -143 115c0 162 177 189 331 189h68l5 31c3 19 5 37 5 53c0 75 -38 120 -138 120c-58 0 -102 -15 -133 -26l-8 -3c-2 -1 -3 -1 -4 -1c-2 0 -3 1 -4 2zM249 647c-19 0 -32 14 -32 30c0 22 21 40 44 40c16 0 30 -13 30 -30
c0 -20 -22 -40 -42 -40zM440 647c-17 0 -31 14 -31 30c0 22 24 40 43 40s32 -13 32 -30c0 -20 -21 -40 -44 -40z" />
    <glyph glyph-name="atilde" unicode="&#xe3;" horiz-adv-x="551" 
d="M416 189l14 79h-59c-165 0 -303 -29 -303 -157c0 -60 45 -94 128 -94c80 0 202 69 220 172zM154 483c-1 2 -1 3 -1 4c0 2 2 4 4 5c48 20 92 32 167 32c79 0 153 -39 153 -145c0 -15 -1 -31 -4 -48l-57 -325c-1 -3 -4 -6 -8 -6h-16c-3 0 -6 2 -6 6l15 86h-8
c-43 -53 -129 -104 -215 -104c-87 0 -143 47 -143 115c0 162 177 189 331 189h68l5 31c3 19 5 37 5 53c0 75 -38 120 -138 120c-58 0 -102 -15 -133 -26l-8 -3c-2 -1 -3 -1 -4 -1c-2 0 -3 1 -4 2zM504 732h16c5 0 6 -4 5 -7c-23 -49 -64 -88 -107 -88c-51 0 -98 63 -139 63
c-33 0 -54 -21 -66 -58c-2 -5 -7 -7 -11 -7h-17c-4 0 -4 6 -4 10c18 50 65 84 106 84c43 0 103 -61 138 -61c27 0 55 29 69 59c2 4 6 5 10 5z" />
    <glyph glyph-name="aring" unicode="&#xe5;" horiz-adv-x="551" 
d="M416 189l14 79h-59c-165 0 -303 -29 -303 -157c0 -60 45 -94 128 -94c80 0 202 69 220 172zM154 483c-1 2 -1 3 -1 4c0 2 2 4 4 5c48 20 92 32 167 32c79 0 153 -39 153 -145c0 -15 -1 -31 -4 -48l-57 -325c-1 -3 -4 -6 -8 -6h-16c-3 0 -6 2 -6 6l15 86h-8
c-43 -53 -129 -104 -215 -104c-87 0 -143 47 -143 115c0 162 177 189 331 189h68l5 31c3 19 5 37 5 53c0 75 -38 120 -138 120c-58 0 -102 -15 -133 -26l-8 -3c-2 -1 -3 -1 -4 -1c-2 0 -3 1 -4 2zM245 726c11 63 73 113 136 113c59 0 102 -41 102 -96
c0 -71 -70 -134 -142 -134c-56 0 -98 40 -98 96c0 7 1 14 2 21zM273 726c-1 -6 -2 -12 -2 -18c0 -44 33 -77 77 -77c50 0 107 51 107 109c0 43 -32 76 -75 76c-50 0 -99 -40 -107 -90z" />
    <glyph glyph-name="ccedilla" unicode="&#xe7;" horiz-adv-x="512" 
d="M264 -59v-1c17 -10 25 -28 25 -47c0 -56 -67 -104 -144 -104c-27 0 -64 -1 -64 12l3 13c0 3 7 7 10 7c15 -4 25 -6 41 -6c69 0 119 29 119 74c0 26 -27 27 -27 46c0 14 15 40 19 54v1c-107 11 -171 79 -171 196c0 215 138 338 296 338c62 0 120 -27 162 -64
c0 -1 1 -3 1 -5s0 -3 -1 -4l-13 -16c-1 -2 -3 -2 -5 -2s-4 0 -5 1c-37 34 -89 62 -144 62c-138 0 -258 -110 -258 -305c0 -113 65 -174 173 -174c56 0 117 27 166 61c2 1 4 2 6 2s3 -1 4 -3l7 -15v-2c0 -3 -1 -5 -3 -7c-55 -37 -122 -64 -184 -66v-1c-4 -15 -9 -30 -13 -45z
" />
    <glyph glyph-name="eacute" unicode="&#xe9;" horiz-adv-x="584" 
d="M99 284h397c3 17 4 37 4 52c0 101 -57 160 -152 160c-115 0 -213 -78 -249 -212zM524 265c0 -4 -6 -7 -8 -8h-424c-3 -18 -5 -39 -5 -56c0 -117 73 -184 191 -184c69 0 133 22 163 34c2 1 5 0 6 -3l6 -17c0 -3 -1 -7 -5 -9c-30 -17 -121 -34 -177 -34
c-135 0 -217 82 -217 209c0 198 143 327 297 327c115 0 180 -65 180 -185c0 -23 -2 -47 -7 -74zM336 636l73 111c3 4 7 6 11 6h34c3 0 6 -1 6 -4c0 -1 -1 -3 -2 -4l-103 -114c-2 -2 -4 -4 -9 -4h-6c-4 0 -5 2 -5 5c0 1 0 3 1 4z" />
    <glyph glyph-name="egrave" unicode="&#xe8;" horiz-adv-x="584" 
d="M99 284h397c3 17 4 37 4 52c0 101 -57 160 -152 160c-115 0 -213 -78 -249 -212zM524 265c0 -4 -6 -7 -8 -8h-424c-3 -18 -5 -39 -5 -56c0 -117 73 -184 191 -184c69 0 133 22 163 34c2 1 5 0 6 -3l6 -17c0 -3 -1 -7 -5 -9c-30 -17 -121 -34 -177 -34
c-135 0 -217 82 -217 209c0 198 143 327 297 327c115 0 180 -65 180 -185c0 -23 -2 -47 -7 -74zM372 747l35 -111c0 -4 -3 -9 -8 -9h-6c-5 0 -8 2 -8 4l-62 114c-1 1 -1 2 -1 3c0 3 3 5 7 5h34c4 0 8 -2 9 -6z" />
    <glyph glyph-name="ecircumflex" unicode="&#xea;" horiz-adv-x="584" 
d="M99 284h397c3 17 4 37 4 52c0 101 -57 160 -152 160c-115 0 -213 -78 -249 -212zM524 265c0 -4 -6 -7 -8 -8h-424c-3 -18 -5 -39 -5 -56c0 -117 73 -184 191 -184c69 0 133 22 163 34c2 1 5 0 6 -3l6 -17c0 -3 -1 -7 -5 -9c-30 -17 -121 -34 -177 -34
c-135 0 -217 82 -217 209c0 198 143 327 297 327c115 0 180 -65 180 -185c0 -23 -2 -47 -7 -74zM476 635c1 -4 -4 -8 -8 -8h-21c-5 0 -9 5 -11 9l-53 100l-88 -102c-5 -5 -10 -7 -13 -7h-22c-3 0 -7 2 -7 6l101 112c5 5 11 9 15 9h35c4 0 10 -4 13 -9z" />
    <glyph glyph-name="edieresis" unicode="&#xeb;" horiz-adv-x="584" 
d="M99 284h397c3 17 4 37 4 52c0 101 -57 160 -152 160c-115 0 -213 -78 -249 -212zM524 265c0 -4 -6 -7 -8 -8h-424c-3 -18 -5 -39 -5 -56c0 -117 73 -184 191 -184c69 0 133 22 163 34c2 1 5 0 6 -3l6 -17c0 -3 -1 -7 -5 -9c-30 -17 -121 -34 -177 -34
c-135 0 -217 82 -217 209c0 198 143 327 297 327c115 0 180 -65 180 -185c0 -23 -2 -47 -7 -74zM278 647c-19 0 -32 14 -32 30c0 22 21 40 44 40c16 0 30 -13 30 -30c0 -20 -22 -40 -42 -40zM469 647c-17 0 -31 14 -31 30c0 22 24 40 43 40s32 -13 32 -30
c0 -20 -21 -40 -44 -40z" />
    <glyph glyph-name="iacute" unicode="&#xed;" horiz-adv-x="217" 
d="M164 512c3 0 4 -3 4 -5l-88 -501c-1 -3 -3 -6 -6 -6h-18c-3 0 -6 2 -6 6l88 501c0 2 4 5 8 5h18zM151 636l73 111c3 4 7 6 11 6h34c3 0 6 -1 6 -4c0 -1 -1 -3 -2 -4l-103 -114c-2 -2 -4 -4 -9 -4h-6c-4 0 -5 2 -5 5c0 1 0 3 1 4z" />
    <glyph glyph-name="igrave" unicode="&#xec;" horiz-adv-x="217" 
d="M164 512c3 0 4 -3 4 -5l-88 -501c-1 -3 -3 -6 -6 -6h-18c-3 0 -6 2 -6 6l88 501c0 2 4 5 8 5h18zM180 747l35 -111c0 -4 -3 -9 -8 -9h-6c-5 0 -8 2 -8 4l-62 114c-1 1 -1 2 -1 3c0 3 3 5 7 5h34c4 0 8 -2 9 -6z" />
    <glyph glyph-name="icircumflex" unicode="&#xee;" horiz-adv-x="217" 
d="M164 512c3 0 4 -3 4 -5l-88 -501c-1 -3 -3 -6 -6 -6h-18c-3 0 -6 2 -6 6l88 501c0 2 4 5 8 5h18zM286 635c1 -4 -4 -8 -8 -8h-21c-5 0 -9 5 -11 9l-53 100l-88 -102c-5 -5 -10 -7 -13 -7h-22c-3 0 -7 2 -7 6l101 112c5 5 11 9 15 9h35c4 0 10 -4 13 -9z" />
    <glyph glyph-name="idieresis" unicode="&#xef;" horiz-adv-x="217" 
d="M164 512c3 0 4 -3 4 -5l-88 -501c-1 -3 -3 -6 -6 -6h-18c-3 0 -6 2 -6 6l88 501c0 2 4 5 8 5h18zM86 647c-19 0 -32 14 -32 30c0 22 21 40 44 40c16 0 30 -13 30 -30c0 -20 -22 -40 -42 -40zM277 647c-17 0 -31 14 -31 30c0 22 24 40 43 40s32 -13 32 -30
c0 -20 -21 -40 -44 -40z" />
    <glyph glyph-name="ntilde" unicode="&#xf1;" horiz-adv-x="586" 
d="M363 524c94 0 150 -51 150 -142c0 -16 -2 -33 -5 -52l-57 -324c-1 -3 -4 -6 -7 -6h-18c-2 0 -5 1 -5 6l54 309c3 20 5 42 5 59c0 79 -34 122 -123 122c-105 0 -209 -103 -224 -189l-53 -301c-1 -3 -3 -6 -6 -6h-18c-3 0 -6 2 -6 6l88 501c0 2 4 5 8 5h18c3 0 4 -3 4 -5
l-6 -32c-1 -9 -12 -61 -12 -61l8 -1c44 55 113 111 205 111zM519 732h16c5 0 6 -4 5 -7c-23 -49 -64 -88 -107 -88c-51 0 -98 63 -139 63c-33 0 -54 -21 -66 -58c-2 -5 -7 -7 -11 -7h-17c-4 0 -4 6 -4 10c18 50 65 84 106 84c43 0 103 -61 138 -61c27 0 55 29 69 59
c2 4 6 5 10 5z" />
    <glyph glyph-name="oacute" unicode="&#xf3;" horiz-adv-x="615" 
d="M357 524c124 0 207 -84 207 -212c0 -189 -147 -324 -302 -324c-125 0 -208 83 -208 210c0 189 146 326 303 326zM267 17c135 0 263 114 263 295c0 114 -71 184 -178 184c-135 0 -266 -117 -266 -296c0 -115 72 -183 181 -183zM328 636l73 111c3 4 7 6 11 6h34
c3 0 6 -1 6 -4c0 -1 -1 -3 -2 -4l-103 -114c-2 -2 -4 -4 -9 -4h-6c-4 0 -5 2 -5 5c0 1 0 3 1 4z" />
    <glyph glyph-name="ograve" unicode="&#xf2;" horiz-adv-x="615" 
d="M357 524c124 0 207 -84 207 -212c0 -189 -147 -324 -302 -324c-125 0 -208 83 -208 210c0 189 146 326 303 326zM267 17c135 0 263 114 263 295c0 114 -71 184 -178 184c-135 0 -266 -117 -266 -296c0 -115 72 -183 181 -183zM370 747l35 -111c0 -4 -3 -9 -8 -9h-6
c-5 0 -8 2 -8 4l-62 114c-1 1 -1 2 -1 3c0 3 3 5 7 5h34c4 0 8 -2 9 -6z" />
    <glyph glyph-name="ocircumflex" unicode="&#xf4;" horiz-adv-x="615" 
d="M357 524c124 0 207 -84 207 -212c0 -189 -147 -324 -302 -324c-125 0 -208 83 -208 210c0 189 146 326 303 326zM267 17c135 0 263 114 263 295c0 114 -71 184 -178 184c-135 0 -266 -117 -266 -296c0 -115 72 -183 181 -183zM485 635c1 -4 -4 -8 -8 -8h-21
c-5 0 -9 5 -11 9l-53 100l-88 -102c-5 -5 -10 -7 -13 -7h-22c-3 0 -7 2 -7 6l101 112c5 5 11 9 15 9h35c4 0 10 -4 13 -9z" />
    <glyph glyph-name="odieresis" unicode="&#xf6;" horiz-adv-x="615" 
d="M357 524c124 0 207 -84 207 -212c0 -189 -147 -324 -302 -324c-125 0 -208 83 -208 210c0 189 146 326 303 326zM267 17c135 0 263 114 263 295c0 114 -71 184 -178 184c-135 0 -266 -117 -266 -296c0 -115 72 -183 181 -183zM283 647c-19 0 -32 14 -32 30
c0 22 21 40 44 40c16 0 30 -13 30 -30c0 -20 -22 -40 -42 -40zM474 647c-17 0 -31 14 -31 30c0 22 24 40 43 40s32 -13 32 -30c0 -20 -21 -40 -44 -40z" />
    <glyph glyph-name="otilde" unicode="&#xf5;" horiz-adv-x="615" 
d="M357 524c124 0 207 -84 207 -212c0 -189 -147 -324 -302 -324c-125 0 -208 83 -208 210c0 189 146 326 303 326zM267 17c135 0 263 114 263 295c0 114 -71 184 -178 184c-135 0 -266 -117 -266 -296c0 -115 72 -183 181 -183zM538 732h16c5 0 6 -4 5 -7
c-23 -49 -64 -88 -107 -88c-51 0 -98 63 -139 63c-33 0 -54 -21 -66 -58c-2 -5 -7 -7 -11 -7h-17c-4 0 -4 6 -4 10c18 50 65 84 106 84c43 0 103 -61 138 -61c27 0 55 29 69 59c2 4 6 5 10 5z" />
    <glyph glyph-name="uacute" unicode="&#xfa;" horiz-adv-x="586" 
d="M223 -12c-94 0 -147 51 -147 140c0 17 1 34 5 54l57 324c0 3 4 6 7 6h18c3 0 5 -3 5 -6l-55 -308c-4 -21 -5 -43 -6 -60c0 -80 36 -121 126 -121c104 0 208 103 223 189l53 300c0 3 3 6 6 6h18c3 0 6 -3 6 -6l-89 -501c0 -3 -4 -5 -7 -5h-18c-3 0 -5 2 -5 5l6 31
c1 9 13 63 13 63l-9 1c-44 -55 -115 -112 -207 -112zM315 636l73 111c3 4 7 6 11 6h34c3 0 6 -1 6 -4c0 -1 -1 -3 -2 -4l-103 -114c-2 -2 -4 -4 -9 -4h-6c-4 0 -5 2 -5 5c0 1 0 3 1 4z" />
    <glyph glyph-name="ugrave" unicode="&#xf9;" horiz-adv-x="586" 
d="M223 -12c-94 0 -147 51 -147 140c0 17 1 34 5 54l57 324c0 3 4 6 7 6h18c3 0 5 -3 5 -6l-55 -308c-4 -21 -5 -43 -6 -60c0 -80 36 -121 126 -121c104 0 208 103 223 189l53 300c0 3 3 6 6 6h18c3 0 6 -3 6 -6l-89 -501c0 -3 -4 -5 -7 -5h-18c-3 0 -5 2 -5 5l6 31
c1 9 13 63 13 63l-9 1c-44 -55 -115 -112 -207 -112zM361 747l35 -111c0 -4 -3 -9 -8 -9h-6c-5 0 -8 2 -8 4l-62 114c-1 1 -1 2 -1 3c0 3 3 5 7 5h34c4 0 8 -2 9 -6z" />
    <glyph glyph-name="ucircumflex" unicode="&#xfb;" horiz-adv-x="586" 
d="M223 -12c-94 0 -147 51 -147 140c0 17 1 34 5 54l57 324c0 3 4 6 7 6h18c3 0 5 -3 5 -6l-55 -308c-4 -21 -5 -43 -6 -60c0 -80 36 -121 126 -121c104 0 208 103 223 189l53 300c0 3 3 6 6 6h18c3 0 6 -3 6 -6l-89 -501c0 -3 -4 -5 -7 -5h-18c-3 0 -5 2 -5 5l6 31
c1 9 13 63 13 63l-9 1c-44 -55 -115 -112 -207 -112zM461 635c1 -4 -4 -8 -8 -8h-21c-5 0 -9 5 -11 9l-53 100l-88 -102c-5 -5 -10 -7 -13 -7h-22c-3 0 -7 2 -7 6l101 112c5 5 11 9 15 9h35c4 0 10 -4 13 -9z" />
    <glyph glyph-name="udieresis" unicode="&#xfc;" horiz-adv-x="586" 
d="M223 -12c-94 0 -147 51 -147 140c0 17 1 34 5 54l57 324c0 3 4 6 7 6h18c3 0 5 -3 5 -6l-55 -308c-4 -21 -5 -43 -6 -60c0 -80 36 -121 126 -121c104 0 208 103 223 189l53 300c0 3 3 6 6 6h18c3 0 6 -3 6 -6l-89 -501c0 -3 -4 -5 -7 -5h-18c-3 0 -5 2 -5 5l6 31
c1 9 13 63 13 63l-9 1c-44 -55 -115 -112 -207 -112zM267 647c-19 0 -32 14 -32 30c0 22 21 40 44 40c16 0 30 -13 30 -30c0 -20 -22 -40 -42 -40zM458 647c-17 0 -31 14 -31 30c0 22 24 40 43 40s32 -13 32 -30c0 -20 -21 -40 -44 -40z" />
    <glyph glyph-name="Agrave" unicode="&#xc0;" horiz-adv-x="682" 
d="M619 9c0 -6 -3 -9 -7 -9h-17c-5 0 -9 4 -10 8l-48 189h-409l-114 -189c-3 -4 -7 -8 -12 -8h-19c-3 0 -5 2 -5 5c0 2 0 3 1 4l416 681c2 3 8 7 14 7h21c5 0 11 -4 12 -7zM145 222h385l-82 321l-31 129h-4l-74 -129zM437 932l35 -111c0 -4 -3 -9 -8 -9h-6c-5 0 -8 2 -8 4
l-62 114c-1 1 -1 2 -1 3c0 3 3 5 7 5h34c4 0 8 -2 9 -6z" />
    <glyph glyph-name="Atilde" unicode="&#xc3;" horiz-adv-x="682" 
d="M619 9c0 -6 -3 -9 -7 -9h-17c-5 0 -9 4 -10 8l-48 189h-409l-114 -189c-3 -4 -7 -8 -12 -8h-19c-3 0 -5 2 -5 5c0 2 0 3 1 4l416 681c2 3 8 7 14 7h21c5 0 11 -4 12 -7zM145 222h385l-82 321l-31 129h-4l-74 -129zM602 917h16c5 0 6 -4 5 -7c-23 -49 -64 -88 -107 -88
c-51 0 -98 63 -139 63c-33 0 -54 -21 -66 -58c-2 -5 -7 -7 -11 -7h-17c-4 0 -4 6 -4 10c18 50 65 84 106 84c43 0 103 -61 138 -61c27 0 55 29 69 59c2 4 6 5 10 5z" />
    <glyph glyph-name="Otilde" unicode="&#xd5;" horiz-adv-x="821" 
d="M489 709c179 0 289 -126 289 -289c0 -227 -183 -432 -409 -432c-180 0 -290 125 -290 289c0 227 181 432 410 432zM371 18c188 0 372 167 372 403c0 158 -104 258 -256 258c-190 0 -374 -166 -374 -402c0 -159 105 -259 258 -259zM674 917h16c5 0 6 -4 5 -7
c-23 -49 -64 -88 -107 -88c-51 0 -98 63 -139 63c-33 0 -54 -21 -66 -58c-2 -5 -7 -7 -11 -7h-17c-4 0 -4 6 -4 10c18 50 65 84 106 84c43 0 103 -61 138 -61c27 0 55 29 69 59c2 4 6 5 10 5z" />
    <glyph glyph-name="ydieresis" unicode="&#xff;" horiz-adv-x="508" 
d="M491 512h19c2 0 3 -1 3 -3s0 -3 -1 -5l-397 -696c-2 -4 -7 -8 -11 -8h-15c-3 0 -4 2 -4 8l105 186c-31 156 -73 355 -106 510c0 4 3 8 7 8h16c7 0 8 -4 10 -7l72 -351l22 -118h8l51 96l210 373c2 4 5 7 11 7zM224 647c-19 0 -32 14 -32 30c0 22 21 40 44 40
c16 0 30 -13 30 -30c0 -20 -22 -40 -42 -40zM415 647c-17 0 -31 14 -31 30c0 22 24 40 43 40s32 -13 32 -30c0 -20 -21 -40 -44 -40z" />
    <glyph glyph-name="Ydieresis" unicode="&#x178;" horiz-adv-x="604" 
d="M673 697c2 0 3 -2 3 -4c0 -1 0 -2 -1 -3l-351 -404l-49 -280c-1 -3 -4 -6 -8 -6h-18c-3 0 -6 2 -6 6l49 280l-208 404c0 3 1 7 4 7h21c3 0 7 -4 9 -7l194 -376l325 377c2 4 5 6 10 6h26zM305 832c-19 0 -32 14 -32 30c0 22 21 40 44 40c16 0 30 -13 30 -30
c0 -20 -22 -40 -42 -40zM496 832c-17 0 -31 14 -31 30c0 22 24 40 43 40s32 -13 32 -30c0 -20 -21 -40 -44 -40z" />
    <glyph glyph-name="Acircumflex" unicode="&#xc2;" horiz-adv-x="682" 
d="M619 9c0 -6 -3 -9 -7 -9h-17c-5 0 -9 4 -10 8l-48 189h-409l-114 -189c-3 -4 -7 -8 -12 -8h-19c-3 0 -5 2 -5 5c0 2 0 3 1 4l416 681c2 3 8 7 14 7h21c5 0 11 -4 12 -7zM145 222h385l-82 321l-31 129h-4l-74 -129zM549 820c1 -4 -4 -8 -8 -8h-21c-5 0 -9 5 -11 9l-53 100
l-88 -102c-5 -5 -10 -7 -13 -7h-22c-3 0 -7 2 -7 6l101 112c5 5 11 9 15 9h35c4 0 10 -4 13 -9z" />
    <glyph glyph-name="Ecircumflex" unicode="&#xca;" horiz-adv-x="649" 
d="M642 669h-435l-52 -298h384c2 0 6 -1 6 -4l-3 -17c0 -3 -4 -6 -8 -6h-384l-56 -317h435c4 0 7 -2 7 -4l-3 -17c-1 -3 -4 -6 -8 -6h-459c-3 0 -6 2 -6 6l121 686c0 2 3 5 7 5h459c4 0 7 -3 7 -5l-3 -17c-1 -3 -5 -6 -9 -6zM525 820c1 -4 -4 -8 -8 -8h-21c-5 0 -9 5 -11 9
l-53 100l-88 -102c-5 -5 -10 -7 -13 -7h-22c-3 0 -7 2 -7 6l101 112c5 5 11 9 15 9h35c4 0 10 -4 13 -9z" />
    <glyph glyph-name="Aacute" unicode="&#xc1;" horiz-adv-x="682" 
d="M619 9c0 -6 -3 -9 -7 -9h-17c-5 0 -9 4 -10 8l-48 189h-409l-114 -189c-3 -4 -7 -8 -12 -8h-19c-3 0 -5 2 -5 5c0 2 0 3 1 4l416 681c2 3 8 7 14 7h21c5 0 11 -4 12 -7zM145 222h385l-82 321l-31 129h-4l-74 -129zM411 821l73 111c3 4 7 6 11 6h34c3 0 6 -1 6 -4
c0 -1 -1 -3 -2 -4l-103 -114c-2 -2 -4 -4 -9 -4h-6c-4 0 -5 2 -5 5c0 1 0 3 1 4z" />
    <glyph glyph-name="Edieresis" unicode="&#xcb;" horiz-adv-x="649" 
d="M642 669h-435l-52 -298h384c2 0 6 -1 6 -4l-3 -17c0 -3 -4 -6 -8 -6h-384l-56 -317h435c4 0 7 -2 7 -4l-3 -17c-1 -3 -4 -6 -8 -6h-459c-3 0 -6 2 -6 6l121 686c0 2 3 5 7 5h459c4 0 7 -3 7 -5l-3 -17c-1 -3 -5 -6 -9 -6zM337 832c-19 0 -32 14 -32 30c0 22 21 40 44 40
c16 0 30 -13 30 -30c0 -20 -22 -40 -42 -40zM528 832c-17 0 -31 14 -31 30c0 22 24 40 43 40s32 -13 32 -30c0 -20 -21 -40 -44 -40z" />
    <glyph glyph-name="Egrave" unicode="&#xc8;" horiz-adv-x="649" 
d="M642 669h-435l-52 -298h384c2 0 6 -1 6 -4l-3 -17c0 -3 -4 -6 -8 -6h-384l-56 -317h435c4 0 7 -2 7 -4l-3 -17c-1 -3 -4 -6 -8 -6h-459c-3 0 -6 2 -6 6l121 686c0 2 3 5 7 5h459c4 0 7 -3 7 -5l-3 -17c-1 -3 -5 -6 -9 -6zM434 932l35 -111c0 -4 -3 -9 -8 -9h-6
c-5 0 -8 2 -8 4l-62 114c-1 1 -1 2 -1 3c0 3 3 5 7 5h34c4 0 8 -2 9 -6z" />
    <glyph glyph-name="Iacute" unicode="&#xcd;" horiz-adv-x="237" 
d="M206 697c3 0 6 -3 6 -5l-121 -686c-1 -3 -4 -6 -7 -6h-18c-3 0 -6 2 -6 6l121 686c0 2 3 5 7 5h18zM194 821l73 111c3 4 7 6 11 6h34c3 0 6 -1 6 -4c0 -1 -1 -3 -2 -4l-103 -114c-2 -2 -4 -4 -9 -4h-6c-4 0 -5 2 -5 5c0 1 0 3 1 4z" />
    <glyph glyph-name="Icircumflex" unicode="&#xce;" horiz-adv-x="237" 
d="M206 697c3 0 6 -3 6 -5l-121 -686c-1 -3 -4 -6 -7 -6h-18c-3 0 -6 2 -6 6l121 686c0 2 3 5 7 5h18zM330 820c1 -4 -4 -8 -8 -8h-21c-5 0 -9 5 -11 9l-53 100l-88 -102c-5 -5 -10 -7 -13 -7h-22c-3 0 -7 2 -7 6l101 112c5 5 11 9 15 9h35c4 0 10 -4 13 -9z" />
    <glyph glyph-name="Idieresis" unicode="&#xcf;" horiz-adv-x="237" 
d="M206 697c3 0 6 -3 6 -5l-121 -686c-1 -3 -4 -6 -7 -6h-18c-3 0 -6 2 -6 6l121 686c0 2 3 5 7 5h18zM130 832c-19 0 -32 14 -32 30c0 22 21 40 44 40c16 0 30 -13 30 -30c0 -20 -22 -40 -42 -40zM321 832c-17 0 -31 14 -31 30c0 22 24 40 43 40s32 -13 32 -30
c0 -20 -21 -40 -44 -40z" />
    <glyph glyph-name="Igrave" unicode="&#xcc;" horiz-adv-x="237" 
d="M206 697c3 0 6 -3 6 -5l-121 -686c-1 -3 -4 -6 -7 -6h-18c-3 0 -6 2 -6 6l121 686c0 2 3 5 7 5h18zM226 932l35 -111c0 -4 -3 -9 -8 -9h-6c-5 0 -8 2 -8 4l-62 114c-1 1 -1 2 -1 3c0 3 3 5 7 5h34c4 0 8 -2 9 -6z" />
    <glyph glyph-name="Oacute" unicode="&#xd3;" horiz-adv-x="821" 
d="M489 709c179 0 289 -126 289 -289c0 -227 -183 -432 -409 -432c-180 0 -290 125 -290 289c0 227 181 432 410 432zM371 18c188 0 372 167 372 403c0 158 -104 258 -256 258c-190 0 -374 -166 -374 -402c0 -159 105 -259 258 -259zM472 821l73 111c3 4 7 6 11 6h34
c3 0 6 -1 6 -4c0 -1 -1 -3 -2 -4l-103 -114c-2 -2 -4 -4 -9 -4h-6c-4 0 -5 2 -5 5c0 1 0 3 1 4z" />
    <glyph glyph-name="Ocircumflex" unicode="&#xd4;" horiz-adv-x="821" 
d="M489 709c179 0 289 -126 289 -289c0 -227 -183 -432 -409 -432c-180 0 -290 125 -290 289c0 227 181 432 410 432zM371 18c188 0 372 167 372 403c0 158 -104 258 -256 258c-190 0 -374 -166 -374 -402c0 -159 105 -259 258 -259zM616 820c1 -4 -4 -8 -8 -8h-21
c-5 0 -9 5 -11 9l-53 100l-88 -102c-5 -5 -10 -7 -13 -7h-22c-3 0 -7 2 -7 6l101 112c5 5 11 9 15 9h35c4 0 10 -4 13 -9z" />
    <glyph glyph-name="Ograve" unicode="&#xd2;" horiz-adv-x="821" 
d="M489 709c179 0 289 -126 289 -289c0 -227 -183 -432 -409 -432c-180 0 -290 125 -290 289c0 227 181 432 410 432zM371 18c188 0 372 167 372 403c0 158 -104 258 -256 258c-190 0 -374 -166 -374 -402c0 -159 105 -259 258 -259zM514 932l35 -111c0 -4 -3 -9 -8 -9h-6
c-5 0 -8 2 -8 4l-62 114c-1 1 -1 2 -1 3c0 3 3 5 7 5h34c4 0 8 -2 9 -6z" />
    <glyph glyph-name="Uacute" unicode="&#xda;" horiz-adv-x="779" 
d="M761 692l-70 -394c-33 -185 -173 -310 -345 -310c-153 0 -247 95 -247 242c0 21 2 44 6 68l70 394c0 2 3 5 7 5h18c3 0 6 -3 6 -5l-68 -384c-4 -24 -6 -47 -6 -69c0 -133 74 -221 216 -221c165 0 284 120 314 290l68 384c0 2 3 5 7 5h18c3 0 6 -3 6 -5zM447 821l73 111
c3 4 7 6 11 6h34c3 0 6 -1 6 -4c0 -1 -1 -3 -2 -4l-103 -114c-2 -2 -4 -4 -9 -4h-6c-4 0 -5 2 -5 5c0 1 0 3 1 4z" />
    <glyph glyph-name="Ucircumflex" unicode="&#xdb;" horiz-adv-x="779" 
d="M761 692l-70 -394c-33 -185 -173 -310 -345 -310c-153 0 -247 95 -247 242c0 21 2 44 6 68l70 394c0 2 3 5 7 5h18c3 0 6 -3 6 -5l-68 -384c-4 -24 -6 -47 -6 -69c0 -133 74 -221 216 -221c165 0 284 120 314 290l68 384c0 2 3 5 7 5h18c3 0 6 -3 6 -5zM596 820
c1 -4 -4 -8 -8 -8h-21c-5 0 -9 5 -11 9l-53 100l-88 -102c-5 -5 -10 -7 -13 -7h-22c-3 0 -7 2 -7 6l101 112c5 5 11 9 15 9h35c4 0 10 -4 13 -9z" />
    <glyph glyph-name="Ugrave" unicode="&#xd9;" horiz-adv-x="779" 
d="M761 692l-70 -394c-33 -185 -173 -310 -345 -310c-153 0 -247 95 -247 242c0 21 2 44 6 68l70 394c0 2 3 5 7 5h18c3 0 6 -3 6 -5l-68 -384c-4 -24 -6 -47 -6 -69c0 -133 74 -221 216 -221c165 0 284 120 314 290l68 384c0 2 3 5 7 5h18c3 0 6 -3 6 -5zM495 932l35 -111
c0 -4 -3 -9 -8 -9h-6c-5 0 -8 2 -8 4l-62 114c-1 1 -1 2 -1 3c0 3 3 5 7 5h34c4 0 8 -2 9 -6z" />
    <glyph glyph-name="multiply" unicode="&#xd7;" 
d="M552 142c2 -3 2 -7 0 -10l-12 -11c-3 -2 -7 -2 -9 0l-189 189l-189 -189c-3 -2 -7 -2 -10 1l-12 11c-2 3 -2 7 0 9l189 189l-189 189c-3 3 -3 7 -1 9l13 13c3 3 7 3 10 0l189 -189l188 188c3 3 7 3 9 1l13 -13c2 -3 2 -7 0 -10l-189 -188z" />
    <glyph glyph-name="brokenbar" unicode="&#xa6;" horiz-adv-x="249" 
d="M242 742c3 0 5 -2 5 -6l-68 -387c0 -3 -4 -6 -7 -6h-18c-4 0 -6 3 -6 6l68 387c1 3 4 6 8 6h18zM147 203c2 0 5 -2 5 -5l-69 -392c0 -3 -4 -6 -7 -6h-18c-4 0 -6 3 -6 6l69 392c1 2 4 5 8 5h18z" />
    <glyph glyph-name="currency" unicode="&#xa4;" 
d="M552 143c2 -3 2 -7 0 -10l-12 -11c-3 -2 -7 -2 -9 0l-55 53c-36 -30 -83 -50 -135 -50c-51 0 -98 19 -134 50l-55 -54c-3 -2 -7 -2 -10 1l-12 11c-2 3 -2 7 0 9l55 55c-31 36 -50 83 -50 135c0 51 19 98 50 134l-54 54c-3 3 -3 7 -1 9l13 13c3 3 7 3 10 0l54 -54
c36 31 83 50 134 50c52 0 99 -19 135 -50l54 54c3 3 7 3 9 1l13 -13c2 -3 2 -7 0 -10l-54 -54c31 -36 50 -83 50 -134c0 -52 -19 -99 -50 -135zM341 156c97 0 176 79 176 176s-79 176 -176 176s-176 -79 -176 -176s79 -176 176 -176z" />
    <glyph glyph-name="uni00AD" unicode="&#xad;" horiz-adv-x="351" 
d="M82 297c0 2 4 5 8 5h238c4 0 6 -3 6 -5l-3 -19c-1 -3 -5 -6 -9 -6h-238c-2 0 -5 1 -5 6z" />
    <glyph glyph-name="Eth" unicode="&#xd0;" horiz-adv-x="778" 
d="M445 697c193 0 313 -93 313 -269c0 -277 -198 -428 -435 -428h-236c-4 0 -7 2 -7 5l59 330h-63c-3 0 -5 2 -5 6l3 18c0 2 4 5 7 5h63l58 328c0 2 3 5 7 5h236zM328 27c219 0 394 146 394 396c0 158 -104 246 -281 246h-213l-53 -305h176c4 0 6 -3 6 -5l-3 -18
c-1 -3 -4 -6 -8 -6h-176l-55 -308h213z" />
    <glyph glyph-name="Oslash" unicode="&#xd8;" horiz-adv-x="821" 
d="M515 710c62 0 115 -16 158 -43v1c13 17 31 44 43 44h14c3 0 5 -1 5 -3c0 -1 0 -2 -1 -3l-39 -51v-2c67 -52 105 -138 105 -235c0 -226 -188 -430 -413 -430c-65 0 -123 19 -168 46l-27 -37c-4 -5 -9 -9 -14 -9h-17c-3 0 -5 1 -5 3c0 1 1 2 2 4l41 53v2
c-63 52 -98 133 -98 227c0 227 185 433 414 433zM393 18c187 0 372 163 372 397c0 91 -35 166 -92 212l-432 -565v-2c41 -28 93 -42 152 -42zM141 349c-4 -24 -6 -47 -6 -68c0 -88 32 -161 84 -206l434 567c-41 24 -90 38 -144 38c-174 0 -333 -133 -368 -331z" />
    <glyph glyph-name="AE" unicode="&#xc6;" horiz-adv-x="1125" 
d="M1142 669h-434l-52 -298h384c2 0 6 -1 6 -4l-3 -17c0 -3 -4 -6 -8 -6h-384l-56 -317h434c4 0 7 -2 7 -4l-3 -17c-1 -3 -4 -6 -8 -6h-459c-3 0 -6 2 -6 6l33 191h-374c-60 -62 -125 -129 -185 -189c-6 -6 -9 -8 -14 -8h-19c-2 0 -4 2 -4 4c0 1 0 2 1 3l665 681
c7 7 15 9 21 9h463c4 0 7 -3 7 -5l-3 -17c-1 -3 -5 -6 -9 -6zM246 222h352l78 444z" />
    <glyph glyph-name="Yacute" unicode="&#xdd;" horiz-adv-x="604" 
d="M673 697c2 0 3 -2 3 -4c0 -1 0 -2 -1 -3l-351 -404l-49 -280c-1 -3 -4 -6 -8 -6h-18c-3 0 -6 2 -6 6l49 280l-208 404c0 3 1 7 4 7h21c3 0 7 -4 9 -7l194 -376l325 377c2 4 5 6 10 6h26zM344 821l73 111c3 4 7 6 11 6h34c3 0 6 -1 6 -4c0 -1 -1 -3 -2 -4l-103 -114
c-2 -2 -4 -4 -9 -4h-6c-4 0 -5 2 -5 5c0 1 0 3 1 4z" />
    <glyph glyph-name="yacute" unicode="&#xfd;" horiz-adv-x="508" 
d="M491 512h19c2 0 3 -1 3 -3s0 -3 -1 -5l-397 -696c-2 -4 -7 -8 -11 -8h-15c-3 0 -4 2 -4 8l105 186c-31 156 -73 355 -106 510c0 4 3 8 7 8h16c7 0 8 -4 10 -7l72 -351l22 -118h8l51 96l210 373c2 4 5 7 11 7zM265 636l73 111c3 4 7 6 11 6h34c3 0 6 -1 6 -4
c0 -1 -1 -3 -2 -4l-103 -114c-2 -2 -4 -4 -9 -4h-6c-4 0 -5 2 -5 5c0 1 0 3 1 4z" />
    <glyph glyph-name="eth" unicode="&#xf0;" horiz-adv-x="575" 
d="M555 727l-107 -60c81 -98 115 -198 115 -296c0 -31 -3 -62 -8 -93c-36 -200 -148 -290 -289 -290c-117 0 -197 63 -197 189c0 192 136 308 275 308c111 0 157 -43 181 -91c1 0 5 2 7 4c-13 118 -51 183 -111 256l-135 -76c-1 -1 -2 -1 -4 -1c-3 0 -6 2 -7 6
c-3 8 -3 9 -3 9c0 2 3 5 5 7l128 71c-9 9 -44 44 -62 59c-3 2 -5 5 -5 6s0 3 1 4l12 12c1 0 3 1 5 1s4 -1 7 -3c25 -16 58 -52 70 -65l114 63c1 0 6 -3 7 -5l5 -12c-1 0 -3 -2 -4 -3zM271 17c106 0 214 61 245 233c3 18 4 34 4 49c0 121 -93 158 -172 158
c-120 0 -245 -97 -245 -278c0 -114 71 -162 168 -162z" />
    <glyph glyph-name="Thorn" unicode="&#xde;" horiz-adv-x="644" 
d="M222 697c3 0 6 -3 6 -5l-23 -127h228c133 0 213 -68 213 -174c0 -150 -126 -248 -287 -248h-228l-24 -137c-1 -3 -4 -6 -7 -6h-18c-3 0 -6 2 -6 6l121 686c0 2 3 5 7 5h18zM371 170c132 0 242 90 242 216c0 92 -70 152 -178 152h-235l-65 -368h236z" />
    <glyph glyph-name="thorn" unicode="&#xfe;" horiz-adv-x="616" 
d="M59 -200h-18c-3 0 -5 1 -5 5l164 931c1 3 5 6 8 6h20c2 0 3 -1 3 -5l-48 -271c-7 -38 -15 -75 -15 -76h7c40 66 131 134 239 134c97 0 176 -63 176 -193c0 -215 -159 -343 -299 -343c-85 0 -130 26 -182 62l-43 -245c-1 -3 -4 -5 -7 -5zM286 17c134 0 268 113 268 309
c0 106 -53 170 -155 170c-99 0 -227 -90 -255 -249l-29 -164c41 -33 79 -66 171 -66z" />
    <glyph glyph-name="onesuperior" unicode="&#xb9;" horiz-adv-x="223" 
d="M113 577c-1 -1 -3 -2 -5 -2c-1 0 -2 0 -3 1c-8 12 -9 13 -9 14c0 2 1 3 2 5l129 99c2 1 7 4 8 4h21c3 0 4 -2 4 -4l-62 -351c-1 -3 -3 -5 -6 -5h-21c-2 0 -5 0 -5 5l56 318z" />
    <glyph glyph-name="twosuperior" unicode="&#xb2;" horiz-adv-x="270" 
d="M285 520l-177 -150h179c2 0 4 -2 4 -4l-3 -18c-1 -3 -4 -5 -6 -5h-219c-2 0 -4 2 -4 5l3 17c1 5 4 9 11 15l198 168c21 18 30 41 30 69c0 38 -27 64 -69 64c-36 0 -74 -24 -91 -58c-3 -5 -7 -9 -11 -7c-6 2 -9 3 -13 5c-3 1 -4 5 -4 7c0 1 0 4 1 5c20 41 65 76 123 76
c59 0 97 -38 97 -88c0 -32 -12 -70 -49 -101z" />
    <glyph glyph-name="threesuperior" unicode="&#xb3;" horiz-adv-x="258" 
d="M71 403l16 8c1 0 3 1 5 1c1 0 2 -1 3 -2c11 -26 37 -45 68 -45c50 0 99 41 99 99c0 39 -29 63 -71 63h-19c-3 0 -4 2 -4 4l4 20c0 2 2 4 5 4h15c43 0 81 32 81 77c0 31 -22 49 -54 49c-55 0 -72 -47 -79 -40l-14 9c-2 0 -2 2 -2 4c0 15 43 55 100 55c49 0 84 -32 84 -75
c0 -30 -23 -62 -58 -90c30 -22 44 -52 44 -83c0 -69 -70 -124 -136 -124c-63 0 -88 36 -93 57c0 3 2 7 6 9z" />
    <glyph glyph-name="onequarter" unicode="&#xbc;" horiz-adv-x="760" 
d="M432 110c1 6 6 13 10 17l216 224c6 6 13 8 18 8h17c3 0 5 -3 5 -5l-42 -236h51c2 0 4 -2 4 -5l-3 -18c0 -3 -3 -5 -6 -5h-51l-15 -86c0 -2 -2 -4 -5 -4h-21c-3 0 -6 2 -6 4l15 86h-184c-3 0 -5 2 -5 7zM471 118h153l34 193zM232 661l-110 -84c-1 -1 -7 -4 -8 -1l-9 12v6
l132 100c2 1 7 4 8 4h21c3 0 4 -2 4 -4l-62 -351c-1 -3 -3 -5 -6 -5h-21c-2 0 -5 0 -5 5zM668 698h15c3 0 5 -1 5 -3c0 -1 0 -2 -1 -3l-523 -683c-4 -5 -8 -9 -13 -9h-17c-4 0 -5 1 -5 3c0 1 0 3 1 4l525 685c3 4 9 6 13 6z" />
    <glyph glyph-name="onehalf" unicode="&#xbd;" horiz-adv-x="797" 
d="M232 661l-110 -84c-1 -1 -7 -4 -8 -1l-9 12v6l132 100c2 1 7 4 8 4h21c3 0 4 -2 4 -4l-62 -351c-1 -3 -3 -5 -6 -5h-21c-2 0 -5 0 -5 5zM735 177l-178 -150h180c2 0 5 -2 5 -4l-4 -18c0 -3 -3 -5 -5 -5h-219c-3 0 -6 2 -6 5l3 17c1 4 6 8 9 12c1 2 3 2 3 3l199 168
c18 16 28 44 28 69c0 38 -26 63 -67 63c-36 0 -74 -22 -91 -55c-2 -6 -5 -9 -11 -8l-16 6c-3 1 -3 2 -3 3c0 2 0 3 1 5c21 38 69 77 125 77c58 0 97 -37 97 -87c0 -31 -13 -70 -50 -101zM668 698h15c3 0 5 -1 5 -3c0 -1 0 -2 -1 -3l-523 -683c-4 -5 -8 -9 -13 -9h-17
c-4 0 -5 1 -5 3c0 1 0 3 1 4l525 685c3 4 9 6 13 6z" />
    <glyph glyph-name="threequarters" unicode="&#xbe;" horiz-adv-x="776" 
d="M82 403l9 5c1 1 3 1 4 1c2 0 3 -1 4 -1c11 -26 40 -43 76 -43c50 0 99 41 99 99c0 39 -29 63 -71 63h-18c-3 0 -4 2 -4 4l4 20c0 2 2 4 5 4h14c44 0 82 32 82 77c0 31 -22 49 -55 49c-37 0 -64 -30 -67 -35c-2 -2 -5 -6 -9 -6c-1 0 -2 0 -3 1l-14 9c-2 0 -2 2 -2 4
c0 15 43 55 100 55c49 0 83 -32 83 -74c0 -30 -23 -63 -56 -91c28 -22 43 -53 43 -84c0 -68 -69 -123 -136 -123c-61 0 -94 43 -94 58c0 4 2 6 6 8zM457 110c1 7 5 12 9 17l217 224c6 6 13 8 18 8h16c3 0 5 -3 5 -5l-42 -236h51c2 0 5 -2 5 -5l-3 -18c0 -3 -4 -5 -7 -5h-51
l-15 -86c0 -2 -2 -4 -5 -4h-20c-3 0 -6 2 -6 4l15 86h-185c-3 0 -4 3 -4 7zM496 118h153l34 193zM694 698h14c3 0 5 -1 5 -3c0 -1 0 -2 -1 -3l-523 -683c-4 -5 -8 -9 -13 -9h-17c-4 0 -5 1 -5 3c0 1 0 3 1 4l526 685c3 4 9 6 13 6z" />
    <glyph glyph-name="florin" unicode="&#x192;" horiz-adv-x="621" 
d="M71 -128c10 -2 25 -8 65 -8c77 0 123 42 150 186l70 384h-115c-3 0 -6 3 -6 6v17c0 4 3 7 6 7h119l10 54c31 177 89 223 177 223c36 0 62 -6 78 -11c3 0 5 -4 5 -7l-4 -13c-1 -3 -5 -5 -8 -5c-11 3 -36 7 -66 7c-78 0 -120 -43 -148 -186l-12 -62h145c3 0 7 -3 7 -7v-17
c0 -3 -4 -6 -7 -6h-149l-70 -376c-31 -171 -90 -224 -176 -224c-25 0 -61 4 -80 13c-2 2 -4 5 -3 8l4 13c1 4 5 5 8 4z" />
    <glyph glyph-name="fi" unicode="&#xfb01;" horiz-adv-x="589" 
d="M462 712c-17 5 -56 11 -88 11c-86 0 -145 -40 -162 -136l-13 -75h178c3 0 6 -3 6 -6l-3 -15c0 -3 -5 -6 -8 -6h-178l-84 -479c-1 -3 -4 -6 -7 -6h-17c-3 0 -7 0 -7 6l84 479h-87c-3 0 -5 3 -5 6l3 15c0 3 4 6 7 6h87l12 71c17 103 88 169 201 169c38 0 97 -7 97 -19v-6
l-6 -11c-2 -3 -4 -4 -10 -4zM534 512c3 0 5 -3 5 -5l-88 -501c-1 -3 -4 -6 -7 -6h-17c-3 0 -6 2 -6 6l88 501c0 2 4 5 8 5h17zM532 715c2 14 16 27 32 27c14 0 25 -11 25 -24c0 -18 -19 -31 -34 -31c-14 0 -24 9 -24 22c0 2 1 4 1 6z" />
    <glyph glyph-name="fl" unicode="&#xfb02;" horiz-adv-x="588" 
d="M462 712c-17 5 -56 11 -88 11c-86 0 -145 -40 -162 -136l-13 -75h178c3 0 6 -3 6 -6l-3 -15c0 -3 -5 -6 -8 -6h-178l-84 -479c-1 -3 -4 -6 -7 -6h-17c-3 0 -7 0 -7 6l84 479h-87c-3 0 -5 3 -5 6l3 15c0 3 4 6 7 6h87l12 71c17 103 88 169 201 169c38 0 97 -7 97 -19v-6
l-6 -11c-2 -3 -4 -4 -10 -4zM575 742c2 0 4 -2 4 -5l-128 -731c-1 -3 -3 -6 -6 -6h-18c-3 0 -6 2 -6 6l128 731c1 2 4 5 8 5h18z" />
    <glyph glyph-name="Lslash" unicode="&#x141;" horiz-adv-x="578" 
d="M536 27c2 0 5 -2 5 -5l-3 -17c0 -3 -3 -5 -6 -5h-444c-3 0 -6 2 -6 6l42 243c-145 -77 -145 -77 -146 -77c-2 0 -4 1 -4 4l3 17c0 3 3 6 5 7l147 77l74 415c0 2 3 5 7 5h18c3 0 6 -3 6 -5l-70 -396l149 78c2 1 3 1 5 1c1 0 3 0 3 -3l-3 -16c0 -3 -3 -6 -7 -9l-152 -79
l-43 -241h420z" />
    <glyph glyph-name="lslash" unicode="&#x142;" horiz-adv-x="217" 
d="M302 374c2 1 3 1 5 1c1 0 4 0 4 -3l-3 -16c0 -3 -4 -6 -8 -9l-152 -78l-46 -263c-1 -3 -3 -6 -6 -6h-18c-3 0 -6 2 -6 6l43 245l-147 -78c-1 0 -2 -1 -3 -1c-2 0 -4 1 -4 4l3 17c0 12 122 68 156 86l80 458c1 2 4 5 8 5h18c2 0 4 -2 4 -5l-77 -440c49 25 100 52 149 77z
" />
    <glyph glyph-name="Zcaron" unicode="&#x17d;" horiz-adv-x="665" 
d="M21 6l2 13c0 3 4 8 9 13c192 207 401 428 592 637h-470c-2 0 -4 2 -4 6l3 17c0 2 3 5 6 5h504c4 0 7 -3 7 -5l-3 -13c0 -4 -3 -8 -6 -11l-596 -641h491c4 0 7 -2 7 -4l-3 -17c-1 -3 -4 -6 -8 -6h-526c-3 0 -5 2 -5 6zM343 931c-1 4 4 8 8 8h21c5 0 9 -5 11 -9l53 -100
l88 102c5 5 10 7 13 7h22c3 0 7 -2 7 -6l-101 -112c-5 -5 -11 -9 -15 -9h-35c-4 0 -10 4 -13 9z" />
    <glyph glyph-name="zcaron" unicode="&#x17e;" horiz-adv-x="507" 
d="M411 26c2 0 7 -1 7 -5l-2 -15c-1 -3 -4 -6 -9 -6h-396c-3 0 -5 2 -5 6l2 15c1 3 3 6 6 9l438 455h-346c-3 0 -5 3 -5 7l3 15c0 2 4 5 7 5h375c4 0 6 -3 6 -5l-3 -17c-1 -3 -3 -6 -6 -9c-144 -149 -293 -304 -438 -455h366zM230 746c-1 4 4 8 8 8h21c5 0 9 -5 11 -9
l53 -100l88 102c5 5 10 7 13 7h22c3 0 7 -2 7 -6l-101 -112c-5 -5 -11 -9 -15 -9h-35c-4 0 -10 4 -13 9z" />
    <glyph glyph-name="Scaron" unicode="&#x160;" horiz-adv-x="628" 
d="M65 93c51 -45 119 -75 203 -75c141 0 249 75 249 190c0 75 -73 116 -209 140c-114 20 -185 78 -185 158c0 125 125 203 261 203c94 0 160 -25 219 -80c1 -1 1 -2 1 -4s-1 -5 -3 -7l-12 -10c-2 -1 -4 -2 -6 -2c-3 0 -5 1 -6 3c-46 44 -107 70 -195 70
c-127 0 -224 -70 -224 -169c0 -63 46 -110 165 -131c140 -24 229 -82 229 -168c0 -137 -129 -223 -287 -223c-89 0 -156 23 -224 81c-1 1 -3 4 -1 6l16 16c2 2 4 3 6 3c1 0 2 0 3 -1zM328 931c-1 4 4 8 8 8h21c5 0 9 -5 11 -9l53 -100l88 102c5 5 10 7 13 7h22
c3 0 7 -2 7 -6l-101 -112c-5 -5 -11 -9 -15 -9h-35c-4 0 -10 4 -13 9z" />
    <glyph glyph-name="scaron" unicode="&#x161;" horiz-adv-x="470" 
d="M176 17c104 0 184 61 184 136c0 117 -273 66 -273 208c0 88 83 163 195 163c94 0 140 -22 155 -33c2 -2 3 -5 1 -8c-5 -7 -9 -14 -12 -16c-2 -1 -3 -2 -7 0c-28 14 -73 28 -134 28c-99 0 -165 -56 -165 -128c0 -120 275 -68 275 -211c0 -93 -99 -168 -217 -168
c-94 0 -140 22 -155 33c-2 2 -3 5 -1 8c5 7 9 14 12 16c2 1 3 2 7 0c28 -14 74 -28 135 -28zM217 746c-1 4 4 8 8 8h21c5 0 9 -5 11 -9l53 -100l88 102c5 5 10 7 13 7h22c3 0 7 -2 7 -6l-101 -112c-5 -5 -11 -9 -15 -9h-35c-4 0 -10 4 -13 9z" />
    <glyph glyph-name="minus" unicode="&#x2212;" 
d="M87 341c0 3 3 6 6 6h496c4 0 7 -3 7 -6v-19c0 -4 -3 -6 -7 -6h-496c-3 0 -6 2 -6 6v19z" />
    </font>
</defs>
</svg>
