<?xml version="1.0" standalone="no"?>
<!DOCTYPE svg PUBLIC "-//W3C//DTD SVG 1.1//EN" "http://www.w3.org/Graphics/SVG/1.1/DTD/svg11.dtd" >
<svg xmlns="http://www.w3.org/2000/svg" xmlns:xlink="http://www.w3.org/1999/xlink" version="1.1">
<metadata>
Created by FontForge 20160405 at Fri Feb  3 02:26:46 2017
 By www-data
Copyright (c) 2013 by Aviation Partners. All rights reserved.
</metadata>
<defs>
<font id="Alleyn-Book" horiz-adv-x="619" >
  <font-face 
    font-family="Alleyn Book"
    font-weight="400"
    font-stretch="normal"
    units-per-em="1000"
    panose-1="2 0 0 0 0 0 0 0 0 0"
    ascent="800"
    descent="-200"
    x-height="517"
    cap-height="704"
    bbox="-136.6 -210.047 1196 949"
    underline-thickness="50"
    underline-position="-100"
    stemh="80"
    stemv="86"
    unicode-range="U+0020-FB02"
  />
<missing-glyph horiz-adv-x="518" 
d="M76 704h365v-704h-365v704zM115 665v-626h287v626h-287z" />
    <glyph glyph-name=".notdef" horiz-adv-x="518" 
d="M76 704h365v-704h-365v704zM115 665v-626h287v626h-287z" />
    <glyph glyph-name="b" unicode="b" horiz-adv-x="629" 
d="M345 529c114 0 224 -84 224 -266c0 -171 -108 -275 -237 -275c-83 0 -134 28 -184 61v-35c0 -8 -7 -14 -14 -14h-26c-8 0 -14 6 -14 14v713c0 9 6 15 14 15h29c8 0 14 -6 13 -15v-247c0 -22 -2 -64 -2 -64h11c30 59 99 113 186 113zM320 41c107 0 190 78 190 217
c0 134 -66 217 -174 217c-90 0 -186 -83 -186 -231v-139c38 -30 81 -64 170 -64z" />
    <glyph glyph-name="c" unicode="c" horiz-adv-x="527" 
d="M473 99l15 -21c6 -7 4 -16 -1 -21c-49 -42 -114 -69 -181 -69c-148 0 -247 96 -247 270c0 175 99 271 247 271c67 0 132 -28 181 -70c5 -5 7 -14 1 -20l-15 -22c-5 -5 -16 -4 -22 -2c-41 33 -94 60 -145 60c-113 0 -188 -76 -188 -217c0 -140 75 -217 188 -217
c52 0 104 26 145 60c6 4 16 3 22 -2z" />
    <glyph glyph-name="d" unicode="d" horiz-adv-x="629" 
d="M317 476c-107 0 -199 -79 -199 -218c0 -134 61 -217 171 -217c90 0 189 84 189 231v149c-37 26 -73 55 -161 55zM279 -12c-115 0 -220 83 -220 261c0 174 116 280 247 280c81 0 125 -22 172 -50v249c0 7 6 14 14 14h29c8 0 14 -7 14 -14v-714c0 -8 -6 -14 -14 -14h-26
c-9 0 -15 6 -15 14v85l-10 1c-30 -60 -103 -112 -191 -112z" />
    <glyph glyph-name="e" unicode="e" horiz-adv-x="597" 
d="M120 293h355c-1 117 -73 184 -167 184c-98 0 -174 -65 -188 -184zM534 262c0 -8 -8 -15 -15 -15h-401c0 -124 91 -207 205 -207c62 0 117 16 152 33c2 1 4 1 6 1c4 0 9 -2 12 -7l9 -20c1 -2 1 -3 1 -5c0 -33 -114 -54 -183 -54c-157 0 -261 102 -261 267
c0 170 102 274 250 274c136 0 225 -87 225 -267z" />
    <glyph glyph-name="f" unicode="f" horiz-adv-x="357" 
d="M398 738c7 -2 9 -11 7 -19c-1 -3 -4 -15 -5 -19c-2 -7 -9 -12 -16 -10c-19 4 -56 11 -89 11c-73 0 -119 -34 -119 -117v-67h164c6 0 13 -7 13 -15v-17c0 -8 -7 -14 -13 -14h-164v-457c0 -8 -7 -14 -14 -14h-27c-9 0 -15 6 -15 14v457h-76c-8 0 -14 6 -14 14v17
c0 8 6 15 14 15h76v61c0 106 60 174 177 174c46 0 74 -6 101 -14z" />
    <glyph glyph-name="g" unicode="g" horiz-adv-x="621" 
d="M290 71c90 0 180 77 180 210v119c-41 36 -94 76 -176 76c-108 0 -175 -74 -175 -204c0 -123 65 -201 171 -201zM275 -210c-69 0 -165 17 -165 42c0 3 0 6 2 9l6 17c1 5 7 8 13 8h5c30 -10 87 -23 144 -23c96 0 190 65 190 167v44c0 11 2 73 2 73c-3 0 -7 1 -11 2
c-26 -60 -94 -111 -180 -111c-122 0 -222 94 -222 252c0 151 97 259 225 259c80 0 136 -31 188 -70v44c0 7 6 14 15 14h26c8 0 14 -7 14 -14v-484c0 -137 -100 -229 -252 -229z" />
    <glyph glyph-name="h" unicode="h" horiz-adv-x="600" 
d="M150 487c0 -12 -2 -50 -2 -50l9 -4c31 51 93 96 173 96c115 0 178 -73 178 -199v-316c0 -8 -6 -14 -14 -14h-29c-8 0 -14 6 -14 14v301c0 102 -39 160 -135 160c-92 0 -166 -82 -166 -158v-303c0 -8 -5 -14 -13 -14h-29c-8 0 -14 6 -14 14v714c0 7 6 14 14 14h29
c8 0 13 -7 13 -14v-241z" />
    <glyph glyph-name="i" unicode="i" horiz-adv-x="245" 
d="M137 517c8 0 13 -7 13 -14v-489c0 -8 -5 -14 -13 -14h-29c-8 0 -14 6 -14 14v489c0 7 6 14 14 14h29zM80 700c0 23 19 42 41 42c23 0 42 -19 42 -42c0 -24 -19 -42 -42 -42c-22 0 -41 18 -41 42z" />
    <glyph glyph-name="j" unicode="j" horiz-adv-x="245" 
d="M121 742c24 0 42 -19 42 -42c0 -24 -18 -42 -42 -42c-22 0 -41 18 -41 42c0 23 19 42 41 42zM-27 -210c-45 0 -74 5 -100 14c-8 2 -11 11 -9 19c1 3 5 16 6 19c2 7 10 11 18 10c19 -4 55 -11 87 -11c74 0 119 35 119 117v544c0 8 6 15 14 15h28c8 0 14 -6 14 -15v-537
c0 -107 -60 -175 -177 -175z" />
    <glyph glyph-name="k" unicode="k" horiz-adv-x="520" 
d="M276 304c71 -94 144 -187 216 -283c2 -3 3 -6 3 -8c0 -7 -6 -13 -14 -13h-35c-4 0 -12 3 -15 7c-65 87 -130 173 -194 259l-87 -81v-171c0 -8 -5 -14 -13 -14h-29c-8 0 -14 6 -14 14v714c0 8 6 14 14 14h29c8 0 13 -6 13 -14v-419c0 -18 -1 -36 -2 -54c3 -1 6 -3 9 -4
c11 14 22 26 34 38l220 220c5 4 11 8 17 8h34c8 0 13 -7 13 -14c0 -3 -1 -6 -4 -9c-78 -77 -139 -137 -195 -190z" />
    <glyph glyph-name="l" unicode="l" horiz-adv-x="245" 
d="M137 742c8 0 13 -6 13 -14v-714c0 -8 -5 -14 -13 -14h-29c-8 0 -14 6 -14 14v714c0 8 6 14 14 14h29z" />
    <glyph glyph-name="m" unicode="m" horiz-adv-x="923" 
d="M659 529c109 0 170 -71 170 -192v-323c0 -8 -6 -14 -14 -14h-29c-8 0 -14 6 -14 14v302c0 101 -32 159 -126 159c-89 0 -156 -85 -156 -158v-303c0 -8 -6 -14 -14 -14h-29c-7 0 -13 6 -13 14v303c0 101 -33 158 -125 158c-89 0 -159 -84 -159 -160v-301
c0 -8 -5 -14 -12 -14h-29c-9 0 -15 6 -15 14v489c0 7 6 14 15 14h27c8 0 13 -7 13 -14v-16c0 -11 -1 -44 -1 -50c3 -2 6 -3 9 -4c30 51 90 96 167 96c72 0 125 -35 153 -112c48 76 106 112 182 112z" />
    <glyph glyph-name="n" unicode="n" horiz-adv-x="602" 
d="M329 529c116 0 179 -73 179 -199v-316c0 -8 -6 -14 -14 -14h-29c-8 0 -14 6 -14 14v301c0 102 -39 160 -135 160c-108 0 -166 -94 -166 -177v-284c0 -8 -5 -14 -13 -14h-29c-8 0 -14 6 -14 14v489c0 7 6 14 14 14h28c8 0 13 -7 13 -14v-16c0 -11 -1 -44 -1 -50
c3 -2 6 -3 9 -4c30 51 92 96 172 96z" />
    <glyph glyph-name="o" unicode="o" horiz-adv-x="627" 
d="M313 39c113 0 196 85 196 218c0 134 -83 220 -196 220c-111 0 -195 -86 -195 -220c0 -133 84 -218 195 -218zM313 529c145 0 254 -113 254 -271c0 -160 -109 -270 -254 -270c-146 0 -254 109 -254 269c0 159 108 272 254 272z" />
    <glyph glyph-name="p" unicode="p" horiz-adv-x="629" 
d="M137 -200h-27c-8 0 -16 7 -16 14v688c0 9 6 15 14 15h27c8 0 13 -6 13 -15v-22v-64h11c29 60 99 113 186 113c114 0 224 -84 224 -266c0 -171 -108 -275 -237 -275c-83 0 -131 28 -182 61v-235c0 -7 -6 -14 -13 -14zM320 41c107 0 190 78 190 217c0 134 -66 217 -174 217
c-90 0 -186 -83 -186 -231v-139c38 -30 81 -64 170 -64z" />
    <glyph glyph-name="q" unicode="q" horiz-adv-x="629" 
d="M285 -12c-116 0 -226 84 -226 264c0 173 108 277 238 277c82 0 134 -28 184 -61v35c0 7 6 14 14 14h26c8 0 14 -7 14 -14v-689c0 -8 -6 -14 -14 -14h-29c-8 0 -15 6 -14 14v222c0 22 3 65 3 65h-11c-29 -60 -99 -113 -185 -113zM309 476c-107 0 -190 -79 -190 -218
c0 -134 66 -217 174 -217c91 0 185 84 185 231v140c-37 29 -80 64 -169 64z" />
    <glyph glyph-name="r" unicode="r" horiz-adv-x="409" 
d="M392 517c7 -3 11 -8 11 -14c0 -14 -3 -45 -16 -45c-1 0 -2 1 -3 1c-15 7 -40 13 -62 13c-93 0 -172 -95 -172 -239v-219c0 -8 -5 -14 -13 -14h-29c-8 0 -14 6 -14 14v489c0 8 6 14 14 14h26c8 0 14 -7 14 -15v-28v-59h9c31 65 96 114 176 114c19 0 44 -5 59 -12z" />
    <glyph glyph-name="s" unicode="s" horiz-adv-x="488" 
d="M88 69c35 -15 92 -30 145 -30c84 0 137 41 137 98c0 61 -57 81 -150 103c-72 16 -154 49 -154 140c0 82 70 149 180 149c61 0 166 -19 166 -45c0 -7 -11 -36 -24 -36c-1 0 -3 0 -5 1c-34 15 -83 28 -134 28c-78 0 -124 -37 -124 -89c0 -128 304 -64 304 -245
c0 -88 -79 -155 -193 -155c-70 0 -177 21 -177 47c0 2 1 5 2 7l10 21c2 4 7 7 12 7c2 0 3 -1 5 -1z" />
    <glyph glyph-name="t" unicode="t" horiz-adv-x="402" 
d="M278 -12c-106 0 -159 61 -159 160v323h-75c-8 0 -14 7 -14 14v17c0 9 6 15 14 15h75v135c0 7 7 14 15 14h28c7 0 14 -7 14 -14v-135h166c6 0 13 -6 13 -15v-17c0 -7 -7 -14 -13 -14h-166v-319c0 -77 36 -110 100 -110c29 0 56 5 71 11c7 3 15 -2 18 -7l7 -21
c2 -7 0 -15 -6 -18c-22 -10 -51 -19 -88 -19z" />
    <glyph glyph-name="u" unicode="u" horiz-adv-x="602" 
d="M272 -12c-116 0 -178 71 -178 198v316c0 8 6 15 14 15h29c7 0 13 -7 13 -15v-300c0 -103 40 -160 136 -160c107 0 165 92 165 177v283c0 8 6 15 14 15h29c7 0 14 -7 14 -15v-488c0 -8 -7 -14 -14 -14h-28c-8 0 -14 6 -14 14v16c0 11 1 43 1 50c-3 1 -6 2 -8 4
c-30 -51 -94 -96 -173 -96z" />
    <glyph glyph-name="v" unicode="v" horiz-adv-x="524" 
d="M470 517c7 0 13 -6 13 -13c0 -2 0 -4 -1 -6l-189 -488c-2 -5 -8 -10 -13 -10h-36c-5 0 -12 5 -14 10l-188 488c-1 2 -2 4 -2 6c0 7 6 13 13 13h30c5 0 11 -5 13 -10l127 -330c21 -53 30 -93 33 -104h10c7 22 14 54 34 104l127 330c2 5 8 10 14 10h29z" />
    <glyph glyph-name="w" unicode="w" horiz-adv-x="766" 
d="M702 517c8 0 14 -6 14 -15v-3c-39 -162 -79 -325 -118 -487c-3 -6 -10 -12 -16 -12h-39c-6 0 -14 6 -16 12c-18 52 -70 197 -105 304c-17 50 -37 112 -36 112h-7c0 -1 -8 -29 -19 -66l-120 -350c-3 -5 -11 -12 -16 -12h-41c-6 0 -13 5 -15 12c-38 162 -79 325 -118 487
c-1 1 -1 3 -1 4c0 8 6 14 15 14h27c6 0 12 -6 14 -12c13 -51 44 -186 69 -291l11 -47c10 -44 16 -90 18 -96h9c15 43 30 98 49 155l89 254c2 7 9 13 16 13h34c7 0 14 -6 16 -12c29 -85 60 -170 88 -255l49 -155h9c1 6 9 51 19 96l10 47c26 105 57 240 70 291c1 7 8 12 14 12
h27z" />
    <glyph glyph-name="x" unicode="x" horiz-adv-x="501" 
d="M458 22c2 -3 2 -6 2 -9c0 -7 -4 -13 -12 -13h-34c-5 0 -13 5 -17 11c-47 63 -125 179 -143 204h-8c-6 -10 -20 -35 -40 -62c-30 -40 -102 -153 -122 -153h-31c-8 0 -13 6 -13 12c0 3 1 7 3 10l175 239c-57 78 -113 156 -170 233c-2 3 -3 6 -3 9c0 7 4 14 12 14h35
c5 0 14 -6 17 -12l96 -134c22 -30 39 -57 42 -65h9c2 6 17 29 36 54l96 136l13 14c4 4 7 7 11 7h32c7 0 12 -6 12 -13c0 -4 -1 -7 -3 -10c-56 -77 -113 -154 -171 -232z" />
    <glyph glyph-name="y" unicode="y" horiz-adv-x="529" 
d="M446 517h28c9 0 14 -6 14 -13c0 -3 0 -5 -1 -7l-272 -685c-2 -7 -9 -12 -15 -12h-26c-9 0 -13 6 -13 13c0 2 0 5 1 7c20 49 34 88 73 182c-62 156 -128 334 -194 495c-1 2 -1 4 -1 6c0 8 5 14 13 14h30c7 0 13 -6 16 -11l112 -294l48 -137h11l31 91c4 13 9 25 13 37
l118 303c3 6 9 11 14 11z" />
    <glyph glyph-name="z" unicode="z" horiz-adv-x="520" 
d="M455 49c9 0 15 -7 15 -14v-21c0 -8 -6 -14 -15 -14h-392c-8 0 -14 6 -14 14v20c0 10 3 15 7 19c88 110 191 240 333 414h-317c-8 0 -14 7 -14 15v21c0 7 6 14 14 14h373c9 0 15 -7 15 -14v-21c0 -14 -14 -27 -22 -37l-320 -396h337z" />
    <glyph glyph-name="A" unicode="A" horiz-adv-x="707" 
d="M685 17c1 -2 1 -3 1 -5c0 -7 -6 -12 -14 -12h-30c-8 0 -16 6 -20 15l-75 174h-389l-74 -174c-4 -9 -11 -15 -20 -15h-30c-8 0 -13 5 -13 12c0 1 0 3 1 5l296 675c3 6 11 12 20 12h31c8 0 16 -6 19 -12zM181 241h344c-40 90 -81 190 -121 282l-50 122h-2l-50 -122
c-38 -92 -81 -192 -121 -282z" />
    <glyph glyph-name="B" unicode="B" horiz-adv-x="706" 
d="M490 379v-7c90 -19 137 -94 137 -174c0 -105 -67 -198 -243 -198h-266c-8 0 -14 6 -14 15v675c0 8 6 14 14 14h281c118 0 193 -76 193 -175c0 -73 -40 -127 -102 -150zM161 649v-252h212c99 0 160 46 160 128c0 73 -53 124 -145 124h-227zM369 54c119 0 198 37 198 144
c0 106 -79 145 -193 145h-213v-289h208z" />
    <glyph glyph-name="C" unicode="C" horiz-adv-x="731" 
d="M665 620c3 -4 5 -8 5 -11s-1 -6 -3 -8l-20 -22c-2 -3 -5 -4 -8 -4c-4 0 -8 1 -11 4c-54 51 -132 81 -209 81c-162 0 -290 -123 -290 -308s128 -308 290 -308c77 0 155 30 209 80c3 3 7 4 11 4s6 -1 8 -3l20 -21c2 -3 3 -6 3 -10s-1 -8 -5 -11c-63 -59 -151 -95 -246 -95
c-210 0 -350 158 -350 364s140 364 350 364c94 0 183 -35 246 -96z" />
    <glyph glyph-name="D" unicode="D" horiz-adv-x="794" 
d="M351 704c222 0 374 -122 374 -352c0 -229 -152 -352 -374 -352h-233c-8 0 -14 6 -14 13v677c0 8 6 14 14 14h233zM361 54c183 0 304 111 304 298c0 188 -121 297 -304 297h-200v-595h200z" />
    <glyph glyph-name="E" unicode="E" horiz-adv-x="666" 
d="M577 649h-416v-261h367c8 0 15 -7 15 -14v-27c0 -7 -7 -13 -15 -13h-367v-280h416c8 0 15 -6 15 -13v-27c0 -8 -7 -14 -15 -14h-459c-8 0 -14 6 -14 14v676c0 7 6 14 14 14h459c8 0 15 -7 15 -14v-27c0 -8 -7 -14 -15 -14z" />
    <glyph glyph-name="F" unicode="F" horiz-adv-x="627" 
d="M577 704c8 0 15 -7 15 -14v-27c0 -8 -7 -14 -15 -14h-416v-261h367c8 0 15 -7 15 -14v-27c0 -7 -7 -13 -15 -13h-367v-320c0 -8 -6 -14 -13 -14h-30c-8 0 -14 6 -14 14v676c0 7 6 14 14 14h459z" />
    <glyph glyph-name="G" unicode="G" horiz-adv-x="769" 
d="M681 344c8 0 14 -6 14 -14v-226c0 -9 -3 -17 -8 -21c-74 -61 -165 -95 -256 -95c-214 0 -362 156 -362 363s140 365 350 365c94 0 184 -35 247 -95c6 -6 7 -15 2 -20l-20 -22c-5 -5 -14 -5 -20 1c-54 50 -132 80 -209 80c-162 0 -290 -123 -290 -308
c0 -182 129 -308 300 -308c83 0 151 28 209 75v170h-198c-7 0 -14 6 -14 14v27c0 8 7 14 14 14h241z" />
    <glyph glyph-name="H" unicode="H" horiz-adv-x="787" 
d="M669 704c8 0 14 -6 14 -14v-676c0 -8 -6 -14 -14 -14h-28c-9 0 -15 6 -15 14v322h-465v-322c0 -8 -6 -14 -13 -14h-30c-8 0 -14 6 -14 14v676c0 8 6 14 14 14h30c7 0 13 -6 13 -14v-300h465v300c0 8 6 14 15 14h28z" />
    <glyph glyph-name="I" unicode="I" horiz-adv-x="265" 
d="M148 704c7 0 13 -6 13 -14v-676c0 -8 -6 -14 -13 -14h-30c-8 0 -14 6 -14 14v676c0 8 6 14 14 14h30z" />
    <glyph glyph-name="J" unicode="J" horiz-adv-x="481" 
d="M370 704c8 0 14 -6 14 -14v-481c0 -131 -87 -221 -213 -221c-52 0 -106 19 -147 59c-5 5 -5 13 0 19l21 20c4 6 12 6 19 0c30 -24 66 -42 105 -42c101 0 157 68 157 171v475c0 8 6 14 15 14h29z" />
    <glyph glyph-name="K" unicode="K" horiz-adv-x="670" 
d="M655 21c9 -9 2 -21 -7 -21h-40c-8 0 -18 4 -24 10l-317 333l-106 -94v-235c0 -8 -6 -14 -13 -14h-30c-8 0 -14 6 -14 14v676c0 8 6 14 14 14h30c7 0 13 -6 13 -14v-372l410 376c6 5 17 10 26 10h43c7 0 11 -11 3 -19l-335 -305z" />
    <glyph glyph-name="L" unicode="L" horiz-adv-x="596" 
d="M562 54c8 0 14 -6 14 -14v-26c0 -8 -6 -14 -14 -14h-444c-8 0 -14 6 -14 14v676c0 7 6 14 14 14h30c7 0 13 -7 13 -14v-636h401z" />
    <glyph glyph-name="M" unicode="M" horiz-adv-x="914" 
d="M797 690l24 -676c1 -8 -6 -14 -14 -14h-30c-8 0 -14 6 -14 14c0 0 -16 429 -17 449c-1 33 0 102 0 140h-8c-43 -77 -211 -374 -255 -452c-6 -7 -14 -11 -23 -11h-8c-8 0 -17 4 -22 11l-256 452h-8c0 -38 1 -107 0 -140c-1 -20 -17 -448 -17 -448c0 -9 -5 -15 -13 -15h-31
c-8 0 -14 6 -14 14l25 676c0 8 6 14 15 14h34c9 0 19 -7 24 -15l267 -472l267 471c5 9 16 16 24 16h35c8 0 15 -6 15 -14z" />
    <glyph glyph-name="N" unicode="N" horiz-adv-x="778" 
d="M660 704c8 0 14 -6 14 -14v-676c0 -8 -6 -14 -14 -14h-30c-8 0 -19 6 -24 13l-443 594h-8c2 -22 6 -93 6 -149v-444c0 -8 -6 -14 -13 -14h-30c-8 0 -14 6 -14 14v676c0 8 6 14 14 14h30c7 0 17 -6 23 -14l444 -595h7c-1 29 -5 82 -5 144v451c0 8 6 14 14 14h29z" />
    <glyph glyph-name="O" unicode="O" horiz-adv-x="837" 
d="M767 350c0 -207 -151 -362 -349 -362s-349 155 -349 362c0 199 140 366 349 366s349 -167 349 -366zM418 44c162 0 289 125 289 306c0 186 -127 310 -289 310s-288 -124 -288 -310c0 -181 126 -306 288 -306z" />
    <glyph glyph-name="P" unicode="P" horiz-adv-x="685" 
d="M369 704c155 0 255 -86 256 -221c1 -132 -101 -217 -256 -217h-208v-253c0 -7 -6 -13 -13 -13h-30c-8 0 -14 6 -14 13v678c0 7 6 13 14 13h251zM382 321c110 0 183 64 183 162c0 101 -73 166 -184 166h-220v-328h221z" />
    <glyph glyph-name="Q" unicode="Q" horiz-adv-x="832" 
d="M779 21c8 -9 1 -21 -7 -21h-38c-10 0 -20 7 -27 15l-54 64c-62 -57 -144 -91 -235 -91c-198 0 -349 155 -349 362c0 199 140 366 349 366s349 -167 349 -366c0 -87 -26 -166 -74 -228zM130 350c0 -181 126 -306 288 -306c77 0 146 29 199 81l-128 152c-7 8 -3 25 9 25h33
c10 0 17 -7 24 -15l98 -119c34 51 54 113 54 182c0 186 -128 310 -289 310c-162 0 -288 -124 -288 -310z" />
    <glyph glyph-name="R" unicode="R" horiz-adv-x="719" 
d="M368 266h-207v-253c0 -7 -6 -13 -13 -13h-30c-8 0 -14 6 -14 13v678c0 7 6 13 14 13h251c154 0 256 -86 256 -221c0 -110 -72 -187 -187 -212l208 -253c2 -2 3 -5 3 -7c0 -6 -5 -11 -11 -11h-37c-9 0 -20 7 -27 15c-67 82 -137 169 -206 251zM161 649v-328h221
c110 0 183 64 183 162c0 101 -74 166 -184 166h-220z" />
    <glyph glyph-name="S" unicode="S" horiz-adv-x="647" 
d="M321 395c166 -30 257 -92 257 -201c0 -125 -106 -206 -261 -206c-94 0 -179 30 -242 84c-6 4 -8 13 -2 20l20 22c5 7 13 8 20 2c55 -45 126 -72 206 -72c121 0 199 56 199 145c0 85 -67 123 -230 152c-135 22 -210 87 -210 187c0 113 110 188 240 188
c89 0 177 -28 235 -82c6 -7 7 -15 1 -22l-17 -20c-6 -6 -15 -7 -22 0c-53 45 -117 68 -198 68c-111 0 -178 -52 -178 -131c0 -67 54 -112 182 -134z" />
    <glyph glyph-name="T" unicode="T" horiz-adv-x="614" 
d="M579 704c8 0 15 -6 15 -14v-27c0 -8 -7 -14 -15 -14h-243v-635c0 -8 -6 -14 -14 -14h-30c-8 0 -14 6 -14 14v635h-244c-8 0 -14 6 -14 14v27c0 8 6 14 14 14h545z" />
    <glyph glyph-name="U" unicode="U" horiz-adv-x="796" 
d="M684 704c8 0 14 -6 14 -14v-388c0 -188 -124 -314 -300 -314c-179 0 -300 127 -300 314v388c0 8 6 14 14 14h30c7 0 13 -6 13 -14v-377c0 -158 92 -269 243 -269c152 0 242 111 242 269v377c0 8 5 14 14 14h30z" />
    <glyph glyph-name="V" unicode="V" horiz-adv-x="703" 
d="M670 704c8 0 12 -5 12 -12c0 -3 -1 -6 -2 -9l-293 -668c-3 -8 -13 -15 -21 -15h-29c-9 0 -18 7 -22 15l-293 668c-2 3 -2 6 -2 9c0 7 4 12 13 12h29c9 0 17 -6 21 -15c43 -99 241 -551 269 -623c57 138 221 517 268 623c4 9 12 15 20 15h30z" />
    <glyph glyph-name="W" unicode="W" horiz-adv-x="949" 
d="M869 704c8 0 13 -7 12 -16l-111 -673c-2 -9 -10 -15 -19 -15h-32c-10 0 -18 7 -22 15l-223 508l-223 -508c-4 -8 -11 -15 -20 -15h-34c-8 0 -17 6 -18 15l-111 673c-2 9 4 16 12 16h29c9 0 16 -6 18 -15c0 0 65 -397 71 -436c7 -41 14 -109 20 -167h9l214 493
c4 9 12 15 21 15h25c9 0 18 -6 22 -15l214 -493h8c6 58 12 126 19 167c6 39 73 436 73 436c1 9 9 15 17 15h29z" />
    <glyph glyph-name="X" unicode="X" horiz-adv-x="668" 
d="M649 21c7 -8 2 -21 -8 -21h-33c-9 0 -20 8 -27 16l-247 300l-247 -300c-7 -8 -18 -16 -27 -16h-32c-11 0 -16 13 -9 21l280 338l-268 324c-8 9 -2 21 9 21h33c9 0 19 -6 26 -15l235 -287l235 287c7 9 17 15 26 15h34c11 0 16 -12 9 -21l-269 -324z" />
    <glyph glyph-name="Y" unicode="Y" horiz-adv-x="625" 
d="M607 704c10 0 16 -12 10 -20l-275 -399v-271c0 -8 -6 -14 -15 -14h-29c-9 0 -15 6 -15 14v271l-275 399c-6 8 0 20 10 20h31c8 0 17 -6 23 -15l240 -347l239 347c6 9 16 15 24 15h32z" />
    <glyph glyph-name="Z" unicode="Z" horiz-adv-x="681" 
d="M64 14v23c0 7 4 14 9 19l455 593h-439c-8 0 -14 6 -14 14v27c0 7 6 14 14 14h503c8 0 15 -7 15 -14v-25c0 -7 -3 -12 -7 -17l-457 -594h460c8 0 14 -6 14 -13v-27c0 -8 -6 -14 -14 -14h-525c-8 0 -14 6 -14 14z" />
    <glyph glyph-name="space" unicode=" " horiz-adv-x="337" 
 />
    <glyph glyph-name="zero" unicode="0" 
d="M308 716c162 0 249 -108 249 -365s-87 -363 -249 -363c-161 0 -248 106 -248 363s87 365 248 365zM308 43c124 0 190 90 190 308s-66 310 -190 310c-123 0 -188 -92 -188 -310s65 -308 188 -308z" />
    <glyph glyph-name="one" unicode="1" 
d="M409 704c8 0 14 -6 14 -14v-676c0 -8 -6 -14 -14 -14h-30c-9 0 -15 6 -15 14v613c-59 -53 -123 -112 -183 -165c-3 -3 -6 -4 -10 -4c-3 0 -7 2 -9 5l-18 21c-3 3 -4 6 -4 9c0 4 2 7 5 10l225 199c1 1 4 2 8 2h31z" />
    <glyph glyph-name="two" unicode="2" 
d="M93 558c20 85 102 158 217 158c130 0 221 -91 221 -211c0 -61 -21 -118 -66 -161l-300 -290h352c8 0 15 -5 15 -13v-27c0 -8 -7 -14 -15 -14h-415c-8 0 -15 6 -15 14v30c0 15 12 25 21 34l321 312c32 32 42 72 42 114c0 87 -68 156 -161 156c-82 0 -143 -51 -163 -118
c-3 -5 -9 -10 -15 -10c-1 0 -2 1 -3 1l-26 8c-7 1 -11 6 -11 13c0 1 1 3 1 4z" />
    <glyph glyph-name="three" unicode="3" 
d="M148 127c29 -48 82 -83 149 -83c93 0 167 68 167 163c0 94 -71 153 -164 153h-28c-8 0 -15 6 -15 14v27c0 8 7 14 15 14h18c78 0 139 50 139 127c0 69 -58 118 -131 118c-66 0 -113 -48 -123 -67c-4 -8 -11 -11 -18 -7l-26 15c-6 3 -9 11 -5 18c22 40 75 97 172 97
c108 0 190 -74 190 -173c0 -70 -41 -121 -94 -152c87 -34 130 -102 130 -190c0 -121 -103 -213 -227 -213c-121 0 -182 72 -201 112c-3 8 0 17 7 20l25 13c8 4 16 1 20 -6z" />
    <glyph glyph-name="four" unicode="4" 
d="M409 690c5 5 16 14 23 14h27c8 0 14 -7 14 -14v-456h98c8 0 14 -6 14 -14v-27c0 -8 -6 -14 -14 -14h-98v-165c0 -8 -6 -14 -14 -14h-29c-8 0 -14 6 -14 14v165h-370c-8 0 -14 6 -14 15v23c0 8 3 15 6 19zM103 234h313v381z" />
    <glyph glyph-name="five" unicode="5" 
d="M138 688c2 10 7 16 17 16h340c7 0 14 -6 14 -14v-27c0 -8 -7 -14 -14 -14h-305l-21 -214c35 12 77 27 128 27c137 0 241 -94 241 -234c0 -137 -109 -240 -245 -240c-128 0 -193 72 -211 113c-1 2 -2 4 -2 6c0 12 29 27 43 27c4 -1 8 -4 11 -7c29 -48 84 -83 159 -83
c99 0 185 77 185 185c0 107 -82 178 -187 178c-64 0 -108 -17 -139 -46c-4 -4 -9 -7 -14 -7c-2 0 -4 1 -6 2l-18 9c-5 2 -7 7 -7 13v3z" />
    <glyph glyph-name="six" unicode="6" 
d="M311 456c133 0 232 -98 232 -233c0 -134 -105 -235 -232 -235c-149 0 -236 101 -236 281c0 238 127 444 375 444c8 0 15 -7 15 -15v-25c0 -9 -7 -15 -15 -15c-164 0 -272 -109 -311 -278l6 -4c48 57 109 80 166 80zM311 44c97 0 172 72 172 179c0 108 -75 178 -172 178
s-176 -64 -176 -172c0 -106 68 -185 176 -185z" />
    <glyph glyph-name="seven" unicode="7" 
d="M206 17c-6 -11 -17 -17 -25 -17h-33c-7 0 -15 8 -10 18c126 247 265 486 350 630h-402c-7 0 -14 7 -14 15v27c0 7 7 14 14 14h455c7 0 14 -7 14 -14v-23c0 -11 -4 -20 -8 -28c-69 -117 -216 -374 -341 -622z" />
    <glyph glyph-name="eight" unicode="8" 
d="M410 384c79 -35 122 -108 122 -182c0 -120 -95 -214 -223 -214c-129 0 -223 94 -223 214c0 74 43 147 122 182v9c-60 38 -87 92 -87 147c0 100 81 176 188 176c106 0 188 -76 188 -176c0 -55 -27 -109 -87 -147v-9zM309 660c-74 0 -130 -54 -130 -120s57 -128 130 -128
c72 0 130 62 130 128s-56 120 -130 120zM309 44c91 0 163 72 163 158c0 84 -72 156 -163 156c-92 0 -163 -72 -163 -156c0 -86 71 -158 163 -158z" />
    <glyph glyph-name="nine" unicode="9" 
d="M307 247c-133 0 -232 98 -232 233s105 236 232 236c148 0 237 -102 237 -282c0 -237 -128 -444 -377 -444c-8 0 -15 7 -15 16v24c0 9 7 15 15 15c165 0 273 108 312 278l-6 4c-47 -57 -110 -80 -166 -80zM307 660c-97 0 -172 -73 -172 -180s75 -178 172 -178
s176 65 176 172s-68 186 -176 186z" />
    <glyph glyph-name="exclam" unicode="!" horiz-adv-x="302" 
d="M178 716c8 0 14 -6 14 -14v-193c-3 -102 -7 -208 -11 -309c0 -9 -7 -14 -15 -14h-12c-8 0 -14 6 -14 14l-12 308v194c0 8 7 14 15 14h35zM114 35c0 24 21 46 46 46s48 -22 48 -46c0 -27 -23 -47 -48 -47s-46 20 -46 47z" />
    <glyph glyph-name="quotedbl" unicode="&#x22;" horiz-adv-x="390" 
d="M126 742c7 0 13 -8 14 -15l-14 -222c-1 -8 -8 -14 -16 -14h-7c-7 0 -14 7 -14 14l-15 222c0 8 7 15 15 15h37zM301 742c8 0 14 -7 15 -15l-15 -223c-1 -7 -7 -13 -14 -13h-8c-8 0 -15 7 -15 14l-15 222c0 8 6 15 15 15h37z" />
    <glyph glyph-name="numbersign" unicode="#" 
d="M50 470c0 9 8 16 17 16h139l45 200c2 7 10 14 18 14h13c11 0 20 -5 20 -16v-3c-17 -70 -30 -124 -46 -195h165c14 65 30 136 45 200c2 7 11 14 18 14h14c10 0 19 -5 19 -16v-3l-45 -195h92c9 0 17 -7 17 -16v-19c0 -9 -8 -16 -17 -16h-105l-40 -180h130
c10 0 17 -7 17 -16v-19c0 -9 -7 -17 -17 -17h-142l-44 -192c-2 -8 -10 -14 -17 -14h-17c-10 0 -16 7 -16 15v4c15 62 29 125 42 187h-162l-45 -192c-1 -8 -9 -14 -17 -14h-18c-10 0 -16 6 -16 15c0 1 1 2 1 4c14 62 28 125 43 187h-89c-8 0 -15 8 -15 17v19c0 9 7 16 15 16
h100l41 180h-126c-9 0 -17 7 -17 16v19zM244 435l-40 -180h163l42 180h-165z" />
    <glyph glyph-name="dollar" unicode="$" horiz-adv-x="637" 
d="M109 116c55 -45 126 -72 206 -72c121 0 199 56 199 145c0 84 -67 123 -230 152c-135 22 -210 86 -210 187c0 104 94 176 211 186v61c0 8 6 14 14 14h29c8 0 14 -6 14 -14v-60c79 -5 155 -33 207 -81c3 -4 5 -8 5 -12s-1 -7 -4 -10l-17 -20c-3 -3 -7 -5 -11 -5s-8 2 -11 5
c-53 45 -117 68 -198 68c-111 0 -178 -52 -178 -131c0 -67 53 -112 182 -134c166 -29 257 -93 257 -201c0 -117 -93 -195 -232 -204v-49c0 -8 -6 -15 -14 -15h-29c-8 0 -14 7 -14 15v49c-83 5 -157 33 -214 82c-4 2 -6 6 -6 11c0 3 1 6 4 9l20 22c3 4 6 6 10 6s7 -1 10 -4z
" />
    <glyph glyph-name="percent" unicode="%" horiz-adv-x="799" 
d="M179 713c87 0 134 -57 134 -189c0 -134 -47 -190 -134 -190c-85 0 -131 56 -131 190c0 132 46 189 131 189zM179 378c56 0 85 45 85 146c0 100 -29 143 -85 143c-53 0 -83 -43 -83 -143c0 -101 30 -146 83 -146zM645 373c87 0 134 -56 134 -190s-47 -189 -134 -189
c-85 0 -132 55 -132 189s47 190 132 190zM645 38c56 0 86 44 86 145c0 100 -30 145 -86 145c-53 0 -83 -45 -83 -145c0 -101 30 -145 83 -145zM607 704h18c8 0 13 -10 9 -18l-394 -671c-5 -9 -13 -15 -22 -15h-21c-8 0 -13 10 -8 18l395 671c5 9 14 15 23 15z" />
    <glyph glyph-name="ampersand" unicode="&#x26;" horiz-adv-x="718" 
d="M316 660c-65 0 -111 -42 -111 -99c0 -38 24 -75 87 -135c74 38 133 89 133 139c0 62 -42 95 -109 95zM313 44c67 0 134 40 184 102l-220 215c-72 -47 -133 -89 -133 -154c0 -83 59 -163 169 -163zM320 716c94 0 163 -63 163 -145c0 -67 -39 -121 -151 -185l195 -194
c31 55 56 118 66 180c1 9 8 13 15 11l24 -4c6 -1 11 -8 10 -16c-13 -69 -39 -143 -77 -208l134 -134c7 -9 2 -21 -7 -21h-39c-7 0 -17 6 -24 13l-94 94c-71 -80 -152 -119 -236 -119c-124 0 -215 91 -215 208c0 89 61 143 156 204c-69 67 -93 109 -93 158
c0 82 66 158 173 158z" />
    <glyph glyph-name="quotesingle" unicode="'" horiz-adv-x="215" 
d="M126 742c7 0 14 -6 14 -14c0 -11 -1 -25 -1 -38l-13 -185c0 -7 -8 -15 -15 -14h-9c-8 0 -14 6 -14 14l-14 222c0 8 4 15 14 15h38z" />
    <glyph glyph-name="parenleft" unicode="(" horiz-adv-x="322" 
d="M197 722c8 11 17 20 29 20h23c10 0 16 -7 10 -17c-95 -146 -124 -311 -124 -454c0 -141 29 -309 124 -453c6 -10 0 -18 -10 -18h-23c-12 0 -21 10 -29 21c-78 129 -123 298 -123 450c0 156 43 320 123 451z" />
    <glyph glyph-name="parenright" unicode=")" horiz-adv-x="322" 
d="M125 722c80 -131 123 -295 123 -451c0 -152 -45 -321 -123 -450c-8 -11 -17 -21 -29 -21h-23c-10 0 -16 8 -10 18c95 144 124 312 124 453c0 143 -29 308 -124 454c-6 10 0 17 10 17h23c12 0 21 -9 29 -20z" />
    <glyph glyph-name="asterisk" unicode="*" horiz-adv-x="526" 
d="M340 739c2 3 6 6 9 6s7 0 11 -1h4c12 -7 20 -7 20 -18v-2l-11 -22l-83 -130c56 2 114 6 169 8c10 0 18 -7 18 -17v-14c0 -10 -8 -16 -18 -16l-169 8l83 -131l11 -21c0 -7 -4 -14 -12 -16l-12 -7c-2 -1 -5 -1 -7 -1c-6 0 -10 3 -13 8l-77 152l-78 -152c-4 -6 -9 -9 -15 -9
c-1 0 -4 0 -5 1c-18 9 -25 14 -25 24c0 1 0 3 1 4c24 49 63 99 93 148c-56 -3 -112 -6 -169 -8c-9 0 -16 6 -16 16v14c0 10 7 17 16 17l170 -8l-84 129c-3 5 -11 16 -11 21c0 7 3 13 9 17l10 4c5 2 11 2 16 2c4 0 8 -3 10 -6c34 -66 47 -90 77 -151z" />
    <glyph glyph-name="plus" unicode="+" 
d="M46 346c0 7 6 14 13 14h222v222c0 7 6 14 15 14h25c8 0 15 -7 15 -14v-222h221c8 0 14 -7 14 -14v-24c0 -8 -6 -15 -14 -15h-221v-221c0 -9 -7 -15 -15 -15h-25c-9 0 -15 6 -15 15v221h-222c-7 0 -13 7 -13 15v24z" />
    <glyph glyph-name="comma" unicode="," horiz-adv-x="256" 
d="M122 -21c0 19 -44 29 -44 64c0 24 22 49 50 49s54 -24 54 -65c0 -52 -28 -127 -80 -187c-3 0 -6 -4 -11 -4c-6 0 -12 4 -13 11l-2 4c-1 0 -2 1 -2 2s1 2 2 3c28 42 46 94 46 123z" />
    <glyph glyph-name="hyphen" unicode="-" horiz-adv-x="356" 
d="M45 299c0 8 5 14 14 14h238c9 0 15 -6 15 -14v-22c0 -8 -6 -14 -15 -14h-238c-9 0 -14 6 -14 14v22z" />
    <glyph glyph-name="period" unicode="." horiz-adv-x="253" 
d="M126 -12c-28 0 -52 24 -52 52c0 27 24 51 52 51c29 0 53 -24 53 -51c0 -28 -24 -52 -53 -52z" />
    <glyph glyph-name="slash" unicode="/" horiz-adv-x="352" 
d="M302 742h20c9 0 15 -8 12 -17l-269 -794c-1 -7 -9 -12 -15 -12h-22c-9 0 -15 9 -12 19l270 793c2 6 10 11 16 11z" />
    <glyph glyph-name="colon" unicode=":" horiz-adv-x="268" 
d="M135 -12c-28 0 -52 24 -52 52c0 27 24 51 52 51c29 0 53 -24 53 -51c0 -28 -24 -52 -53 -52zM135 425c-28 0 -52 24 -52 51c0 29 24 53 52 53c29 0 53 -24 53 -53c0 -27 -24 -51 -53 -51z" />
    <glyph glyph-name="semicolon" unicode=";" horiz-adv-x="269" 
d="M85 476c0 29 24 53 52 53c29 0 52 -24 52 -53c0 -27 -23 -51 -52 -51c-28 0 -52 24 -52 51zM129 -21c0 19 -44 29 -44 64c0 24 22 49 50 49s54 -24 54 -65c0 -52 -28 -127 -80 -187c-3 0 -6 -4 -11 -4c-6 0 -12 4 -13 11l-2 4c-1 0 -2 1 -2 2s1 2 2 3c28 42 46 94 46 123
z" />
    <glyph glyph-name="less" unicode="&#x3c;" 
d="M559 528c0 -6 -4 -13 -9 -14l-422 -181l422 -181c5 -2 9 -8 9 -13v-27c0 -8 -7 -13 -14 -13h-2l-33 14c-149 62 -295 130 -444 192c-5 3 -8 8 -8 13v25c0 5 1 13 8 18l474 205c2 0 4 1 4 1c8 0 15 -5 15 -14v-25z" />
    <glyph glyph-name="equal" unicode="=" 
d="M553 415h-489c-8 0 -14 6 -14 14v24c0 7 6 14 14 14h489c8 0 14 -7 14 -14v-24c0 -8 -6 -14 -14 -14zM553 200h-489c-8 0 -14 6 -14 15v24c0 8 6 13 14 13h489c8 0 14 -5 14 -13v-24c0 -9 -6 -15 -14 -15z" />
    <glyph glyph-name="greater" unicode="&#x3e;" 
d="M57 528v25c0 9 7 14 15 14l29 -12c214 -92 334 -143 450 -195c4 -2 8 -8 8 -12v-30c0 -5 -4 -9 -8 -12l-474 -206c-2 0 -3 -1 -5 -1c-8 0 -15 4 -15 13v27c0 6 5 11 10 13l422 181l-422 181c-5 1 -10 8 -10 14z" />
    <glyph glyph-name="question" unicode="?" horiz-adv-x="544" 
d="M269 716c136 0 221 -80 221 -186c0 -93 -72 -159 -203 -245v-98c0 -8 -6 -15 -14 -15h-30c-9 0 -15 7 -15 15v115c0 7 6 15 12 19c89 58 188 118 188 203c0 79 -70 135 -162 135c-58 0 -118 -19 -166 -54c-7 -4 -15 -4 -20 2l-18 26c-4 6 -2 14 3 18c54 37 119 65 204 65
zM257 81c25 0 48 -22 48 -46c0 -27 -23 -47 -48 -47s-46 20 -46 47c0 24 21 46 46 46z" />
    <glyph glyph-name="at" unicode="@" horiz-adv-x="1022" 
d="M719 27c-52 0 -90 42 -84 132l-8 1c-46 -85 -111 -133 -188 -133c-98 0 -165 81 -165 210c0 122 81 292 233 292c60 0 115 -25 157 -83l7 57c1 8 9 14 15 14h25c8 0 13 -9 14 -18c-6 -43 -36 -252 -41 -294c-2 -14 -3 -37 -3 -50c0 -50 16 -83 48 -83
c113 0 171 141 171 267c0 195 -147 342 -367 342c-245 0 -410 -190 -410 -420c0 -257 178 -397 416 -397c113 0 197 27 263 54c5 3 14 1 16 -4c0 0 5 -12 7 -18s-1 -13 -6 -16c-70 -29 -159 -61 -280 -61c-287 0 -465 181 -465 438c0 279 203 470 461 470
c238 0 412 -153 412 -401c0 -158 -91 -298 -228 -299zM452 79c112 0 196 177 196 303c-13 22 -52 97 -137 97c-97 0 -177 -115 -177 -246c0 -102 49 -154 118 -154z" />
    <glyph glyph-name="bracketleft" unicode="[" horiz-adv-x="345" 
d="M275 695h-126v-847h126c8 0 15 -6 15 -14v-19c0 -8 -7 -15 -15 -15h-167c-8 0 -14 7 -14 15v914c0 7 6 13 14 13h167c8 0 15 -6 15 -13v-19c0 -8 -7 -15 -15 -15z" />
    <glyph glyph-name="backslash" unicode="\" horiz-adv-x="352" 
d="M30 742h20c5 0 13 -5 15 -11l272 -793c3 -10 -3 -19 -12 -19h-23c-6 0 -14 5 -15 12l-269 794c-3 9 3 17 12 17z" />
    <glyph glyph-name="bracketright" unicode="]" horiz-adv-x="345" 
d="M194 695h-126c-8 0 -14 7 -14 15v19c0 7 6 13 14 13h168c8 0 14 -6 14 -13v-914c0 -8 -6 -15 -14 -15h-168c-8 0 -14 7 -14 15v19c0 8 6 14 14 14h126v847z" />
    <glyph glyph-name="asciicircum" unicode="^" horiz-adv-x="618" 
d="M549 374c1 -3 2 -6 2 -8c0 -8 -6 -14 -15 -14h-26c-6 0 -14 5 -17 10l-181 315l-181 -314c-3 -5 -11 -11 -16 -11h-28c-9 0 -16 6 -16 13c0 3 1 5 3 8l205 348c2 5 12 10 17 10h32c6 0 14 -5 17 -10z" />
    <glyph glyph-name="underscore" unicode="_" horiz-adv-x="580" 
d="M585 -150v-34h-590v34h590z" />
    <glyph glyph-name="grave" unicode="`" horiz-adv-x="475" 
d="M219 752l52 -110c4 -10 -1 -21 -13 -21h-12c-4 0 -11 4 -13 7l-84 112c-5 9 -1 22 11 22h44c5 0 12 -5 15 -10z" />
    <glyph glyph-name="braceleft" unicode="{" horiz-adv-x="409" 
d="M354 730v-18c0 -9 -7 -15 -14 -15h-11c-93 0 -120 -32 -120 -129v-80c0 -99 -41 -176 -115 -210v-11c74 -33 115 -111 115 -211v-81c0 -96 27 -128 120 -128h11c7 0 14 -6 14 -14v-18c0 -9 -7 -15 -14 -15h-26c-111 0 -160 55 -160 172v80c0 126 -56 193 -127 196
c-5 1 -12 8 -12 14v21c0 8 5 15 11 15c73 4 128 67 128 193v80c0 117 49 171 160 171h26c7 0 14 -6 14 -12z" />
    <glyph glyph-name="bar" unicode="|" horiz-adv-x="267" 
d="M144 742c6 0 13 -6 13 -13v-914c0 -8 -7 -15 -13 -15h-20c-8 0 -14 7 -14 15v914c0 7 6 13 14 13h20z" />
    <glyph glyph-name="braceright" unicode="}" horiz-adv-x="409" 
d="M54 712v18c0 6 7 12 14 12h27c111 0 159 -54 159 -171v-80c0 -126 56 -189 129 -193c6 0 11 -7 11 -15v-21c0 -6 -7 -13 -12 -14c-71 -3 -128 -70 -128 -196v-80c0 -117 -48 -172 -159 -172h-27c-7 0 -14 6 -14 15v18c0 8 7 14 14 14h11c93 0 121 32 121 128v81
c0 100 41 178 115 211v11c-74 34 -115 111 -115 210v80c0 97 -28 129 -121 129h-11c-7 0 -14 6 -14 15z" />
    <glyph glyph-name="asciitilde" unicode="~" horiz-adv-x="709" 
d="M640 431c6 0 12 -8 12 -15c-12 -94 -81 -169 -159 -169c-103 0 -195 125 -272 125c-54 0 -94 -50 -105 -117c-2 -7 -9 -13 -15 -13h-26c-7 0 -13 5 -13 14c12 96 81 170 160 170c101 0 200 -125 272 -125c54 0 95 50 106 116c1 7 7 14 15 14h25z" />
    <glyph glyph-name="degree" unicode="&#xb0;" horiz-adv-x="466" 
d="M74 571c0 87 72 157 157 157s156 -71 156 -157c0 -85 -70 -155 -156 -155s-157 69 -157 155zM120 571c0 -62 49 -111 111 -111s111 50 111 111c0 63 -49 111 -111 111c-63 0 -111 -48 -111 -111z" />
    <glyph glyph-name="cent" unicode="&#xa2;" horiz-adv-x="526" 
d="M317 704c8 0 14 -6 14 -14v-68c57 -6 111 -32 153 -68c3 -3 4 -7 4 -10s-1 -6 -3 -9l-15 -23c-3 -2 -8 -3 -13 -3c-3 0 -7 0 -9 1c-41 34 -94 60 -145 60c-113 0 -188 -76 -188 -217c0 -140 75 -217 188 -217c52 0 104 26 145 60c2 1 5 2 8 2c5 0 10 -2 14 -4l15 -22
c2 -3 3 -6 3 -9c0 -4 -1 -8 -4 -11c-42 -36 -96 -61 -153 -68v-70c0 -8 -6 -14 -14 -14h-29c-9 0 -15 6 -15 14v70c-131 13 -217 108 -217 269c0 162 86 256 217 269v68c0 8 6 14 15 14h29z" />
    <glyph glyph-name="sterling" unicode="&#xa3;" horiz-adv-x="588" 
d="M531 0c-13 -4 -71 -9 -106 -9c-58 0 -117 22 -216 22c-43 0 -87 -5 -124 -15c-1 0 -3 -1 -4 -1c-7 0 -14 5 -16 13c-11 44 -11 45 -11 46c0 6 4 12 9 14c58 25 98 95 98 188c0 12 -1 40 -3 62h-79c-7 0 -15 7 -15 15v18c0 7 8 14 15 14h73c-14 88 -15 106 -15 136
c0 120 82 213 209 213c65 0 164 -29 164 -61c0 -4 -1 -7 -3 -10l-14 -15c-3 -3 -7 -5 -12 -5c-3 0 -7 1 -10 3c-34 26 -75 36 -123 36c-93 0 -151 -62 -151 -151c0 -39 5 -77 16 -146h171c8 0 14 -7 14 -14v-18c0 -9 -6 -15 -14 -15h-164c0 -17 1 -35 1 -65
c0 -55 -25 -141 -98 -197c0 -1 0 -2 1 -3c26 6 59 9 101 9c69 0 137 -21 212 -21c32 0 59 9 90 9c6 0 11 -5 13 -11l4 -25c0 -9 -5 -14 -13 -16z" />
    <glyph glyph-name="section" unicode="&#xa7;" horiz-adv-x="552" 
d="M348 100c82 -46 127 -85 127 -153c0 -89 -71 -157 -201 -157c-70 0 -137 25 -185 64c-4 3 -6 6 -6 10s2 7 4 10l21 23c2 3 6 4 9 4c4 0 7 -1 11 -4c38 -31 94 -53 140 -53c81 0 148 29 148 92c0 59 -64 98 -176 154c-109 54 -171 112 -171 185c0 68 53 128 137 168
c-83 45 -129 84 -129 151c0 89 70 158 199 158c70 0 139 -24 187 -64c3 -3 4 -8 4 -12c0 -3 -1 -6 -3 -9l-19 -21c-3 -3 -6 -5 -10 -5c-3 0 -6 1 -9 4l-18 11c-39 23 -79 42 -124 42c-83 0 -147 -31 -147 -92s58 -95 176 -155c113 -57 170 -112 170 -188
c0 -65 -53 -124 -135 -163zM129 279c0 -70 70 -105 173 -156c64 32 121 88 121 136c0 72 -70 108 -174 160c-53 -28 -120 -85 -120 -140z" />
    <glyph glyph-name="bullet" unicode="&#x2022;" horiz-adv-x="408" 
d="M62 338c0 79 67 144 144 144s143 -66 143 -144c0 -79 -64 -145 -143 -145c-77 0 -144 64 -144 145z" />
    <glyph glyph-name="paragraph" unicode="&#xb6;" horiz-adv-x="600" 
d="M534 654h-28v-839c0 -8 -7 -15 -14 -15h-23c-8 0 -15 7 -15 15v839h-137v-839c0 -8 -7 -15 -15 -15h-22c-9 0 -15 7 -15 15v478c-133 0 -221 92 -221 205c0 128 83 206 231 206h259c8 0 14 -7 14 -15v-20c0 -8 -6 -15 -14 -15z" />
    <glyph glyph-name="germandbls" unicode="&#xdf;" horiz-adv-x="635" 
d="M506 191c0 70 -72 156 -208 162c-8 0 -14 7 -14 17v43c0 7 4 15 10 18c62 30 128 80 128 157c0 51 -41 111 -124 111c-77 0 -148 -41 -148 -196v-487c0 -9 -6 -16 -14 -16h-29c-7 0 -13 7 -13 16v487c0 163 73 249 207 249c110 0 179 -73 179 -157
c0 -67 -39 -140 -129 -187v-7c145 -33 214 -121 214 -209c0 -110 -82 -204 -196 -204c-38 0 -79 12 -117 32c-5 5 -9 16 -5 24l7 15c4 9 14 12 21 8c30 -16 65 -28 93 -28c84 0 138 75 138 152z" />
    <glyph glyph-name="registered" unicode="&#xae;" horiz-adv-x="882" 
d="M629 156c7 -9 2 -22 -13 -22h-30c-7 0 -18 5 -24 12c-55 67 -86 107 -119 147h-108v-145c0 -7 -6 -14 -16 -14h-25c-10 0 -17 7 -17 14v414c0 7 7 15 17 15h155c98 0 165 -57 165 -142c0 -63 -39 -111 -103 -137zM335 348h124c60 0 96 32 96 87c0 54 -36 87 -96 87h-124
v-174zM441 750c219 0 397 -177 397 -397c0 -217 -178 -397 -397 -397s-396 180 -396 397c0 220 177 397 396 397zM441 5c192 0 348 156 348 348s-156 349 -348 349c-193 0 -348 -157 -348 -349s155 -348 348 -348z" />
    <glyph glyph-name="copyright" unicode="&#xa9;" horiz-adv-x="882" 
d="M585 223l14 -17c5 -7 5 -17 -2 -24c-40 -35 -95 -56 -152 -56c-134 0 -222 94 -222 228c0 136 88 229 222 229c58 0 110 -22 152 -57c8 -6 7 -18 2 -23l-15 -16c-7 -7 -18 -7 -24 -1c-30 29 -74 43 -115 43c-91 0 -165 -70 -165 -175s74 -173 165 -173c41 0 88 17 116 42
c7 6 17 6 24 0zM441 750c219 0 397 -177 397 -397c0 -217 -178 -397 -397 -397s-396 180 -396 397c0 220 177 397 396 397zM441 5c192 0 348 156 348 348s-156 349 -348 349c-193 0 -348 -157 -348 -349s155 -348 348 -348z" />
    <glyph glyph-name="trademark" unicode="&#x2122;" horiz-adv-x="833" 
d="M621 393c-3 -5 -11 -8 -16 -9h-11c-5 0 -14 1 -16 8l-115 270h-9v-319c0 -9 -7 -16 -15 -16h-11c-8 0 -15 7 -15 16v345c0 8 7 16 15 16h55c6 0 12 -5 13 -10l103 -252c18 43 85 207 103 252c2 5 9 10 15 10h48c8 0 16 -8 16 -16v-345c0 -9 -8 -16 -16 -16h-12
c-9 0 -15 7 -15 16v313h-9zM322 688v-9c0 -9 -6 -15 -15 -15h-108v-321c0 -9 -7 -16 -15 -16h-16c-8 0 -15 7 -15 16v321h-107c-8 0 -15 6 -15 15v9c0 8 7 16 15 16h261c9 0 15 -8 15 -16z" />
    <glyph glyph-name="acute" unicode="&#xb4;" horiz-adv-x="475" 
d="M209 642l52 110c2 5 10 10 15 10h44c12 0 17 -13 11 -22l-84 -112c-1 -3 -8 -7 -12 -7h-13c-12 0 -18 11 -13 21z" />
    <glyph glyph-name="dieresis" unicode="&#xa8;" horiz-adv-x="484" 
d="M148 639c-25 0 -44 19 -44 44s19 44 44 44c21 0 44 -19 44 -44s-23 -44 -44 -44zM339 639c-23 0 -44 19 -44 44s21 44 44 44c24 0 45 -19 45 -44s-21 -44 -45 -44z" />
    <glyph glyph-name="plusminus" unicode="&#xb1;" 
d="M47 393c0 8 6 14 13 14h223v215c0 7 6 14 15 14h24c8 0 15 -7 15 -14v-215h220c8 0 14 -6 14 -14v-24c0 -8 -6 -15 -14 -15h-220v-215c0 -9 -7 -16 -15 -16h-24c-9 0 -15 7 -15 16v215h-223c-7 0 -13 7 -13 15v24zM557 0h-496c-8 0 -14 6 -14 14v25c0 7 6 13 14 13h496
c8 0 14 -6 14 -13v-25c0 -8 -6 -14 -14 -14z" />
    <glyph glyph-name="yen" unicode="&#xa5;" horiz-adv-x="625" 
d="M607 704c7 0 12 -6 12 -13c0 -2 0 -5 -2 -7c-58 -82 -114 -164 -171 -246h110c8 0 14 -7 14 -14v-24c0 -8 -6 -15 -14 -15h-146l-62 -89l-6 -26h214c8 0 14 -6 14 -14v-23c0 -8 -6 -14 -14 -14h-214v-205c0 -8 -6 -14 -15 -14h-29c-9 0 -15 6 -15 14v205h-216
c-7 0 -14 6 -14 14v23c0 8 7 14 14 15h216l-7 25l-62 89h-147c-7 0 -14 7 -14 15v24c0 7 7 14 14 14h111c-57 82 -114 164 -170 246c-2 2 -3 5 -3 7c0 7 6 13 13 13h31c8 0 17 -6 23 -15c80 -116 161 -232 240 -347c80 115 160 231 239 347c6 9 16 15 24 15h32z" />
    <glyph glyph-name="mu" unicode="&#xb5;" horiz-adv-x="595" 
d="M268 -12c-44 0 -85 15 -120 44v-217c0 -9 -7 -15 -14 -15h-30c-8 0 -14 6 -14 15v687c0 8 6 15 14 15h29c8 0 15 -7 15 -15v-308c0 -101 40 -153 134 -153c110 0 168 93 168 179v282c0 8 7 15 14 15h30c7 0 14 -7 14 -15v-488c0 -8 -7 -14 -14 -14h-30c-7 0 -14 6 -14 14
v16c0 4 1 30 1 30l-4 22c-40 -61 -107 -94 -179 -94z" />
    <glyph glyph-name="ordfeminine" unicode="&#xaa;" horiz-adv-x="567" 
d="M365 488v45h-26c-104 0 -184 -15 -184 -84c0 -44 32 -70 90 -70c50 0 120 45 120 109zM419 354c0 -8 -6 -14 -15 -14h-20c-10 0 -15 6 -15 15v32l-3 15c-26 -43 -69 -71 -129 -71c-81 0 -136 46 -136 114c0 110 111 131 225 131h39v27c0 56 -37 92 -105 92
c-47 0 -86 -14 -105 -23h-3c-6 0 -23 4 -23 32c0 21 80 39 144 39c73 0 146 -42 146 -155v-234z" />
    <glyph glyph-name="ordmasculine" unicode="&#xba;" horiz-adv-x="625" 
d="M312 378c81 0 142 62 142 160c0 96 -61 157 -142 157c-80 0 -142 -61 -142 -158s62 -159 142 -159zM312 743c111 0 196 -88 196 -204c0 -124 -85 -208 -196 -208c-112 0 -195 83 -195 206c0 118 83 206 195 206z" />
    <glyph glyph-name="ae" unicode="&#xe6;" horiz-adv-x="951" 
d="M663 529c136 0 225 -87 225 -267c0 -8 -6 -15 -14 -15h-402c0 -124 91 -207 205 -207c63 0 118 15 154 32c6 3 14 0 18 -7l7 -18c3 -6 0 -14 -6 -18c-46 -25 -95 -41 -175 -41c-107 0 -190 50 -232 136c-38 -84 -117 -136 -210 -136c-100 0 -174 61 -174 147
c0 144 147 169 298 169h57c0 3 1 27 0 30c0 87 -44 142 -147 142c-61 0 -104 -16 -129 -27c-8 -3 -16 -2 -19 5l-10 24c-3 6 1 14 7 17c42 20 87 34 167 34c69 0 141 -32 171 -113c45 71 119 113 209 113zM414 194v64h-43c-142 0 -253 -22 -253 -116c0 -65 46 -101 129 -101
c69 0 167 62 167 153zM474 293h355c-1 117 -73 184 -167 184c-98 0 -173 -65 -188 -184z" />
    <glyph glyph-name="oslash" unicode="&#xf8;" horiz-adv-x="625" 
d="M467 476c62 -47 99 -125 99 -218c0 -160 -109 -270 -254 -270c-43 0 -82 10 -116 27l-11 -17c-5 -9 -14 -16 -23 -16h-17c-9 0 -15 10 -10 18l22 39c-61 46 -99 123 -99 218c0 159 108 272 254 272c42 0 83 -10 118 -29l12 20c4 9 13 15 22 15h17c9 0 14 -9 10 -18z
M117 257c0 -74 27 -133 69 -171l217 368c-27 15 -57 23 -91 23c-111 0 -195 -86 -195 -220zM312 39c113 0 196 85 196 218c0 75 -26 134 -68 173l-218 -370c26 -13 57 -21 90 -21z" />
    <glyph glyph-name="questiondown" unicode="&#xbf;" horiz-adv-x="544" 
d="M275 -210c-135 0 -221 79 -221 185c0 93 73 159 203 246v97c0 9 6 15 14 15h31c9 0 15 -6 15 -15v-114c0 -8 -6 -16 -12 -20c-89 -57 -188 -118 -188 -202c0 -79 69 -136 161 -136c59 0 119 19 167 54c6 5 14 4 19 -1l18 -26c4 -6 2 -15 -3 -19
c-53 -37 -119 -64 -204 -64zM287 435c-25 0 -47 21 -47 46c0 27 22 48 47 48c26 0 47 -21 47 -48c0 -25 -21 -46 -47 -46z" />
    <glyph glyph-name="exclamdown" unicode="&#xa1;" horiz-adv-x="302" 
d="M124 -200c-8 0 -15 6 -15 14v193c4 101 8 203 11 305c1 8 7 14 15 14h13c7 0 13 -7 14 -14c3 -102 8 -203 11 -305v-193c0 -8 -6 -14 -14 -14h-35zM188 481c0 -25 -22 -46 -46 -46c-26 0 -48 21 -48 46c0 27 22 48 48 48c24 0 46 -21 46 -48z" />
    <glyph glyph-name="logicalnot" unicode="&#xac;" 
d="M531 118c-8 0 -14 6 -14 14v236h-457c-8 0 -13 6 -13 14v25c0 8 5 14 13 14h496c8 0 15 -6 15 -14v-275c0 -8 -7 -14 -15 -14h-25z" />
    <glyph glyph-name="guillemotleft" unicode="&#xab;" horiz-adv-x="558" 
d="M96 287l187 -187c5 -5 6 -13 0 -19l-15 -15c-6 -6 -14 -6 -20 0l-211 211c-5 6 -5 14 0 20l211 211c6 6 14 6 20 0l15 -15c6 -6 5 -13 0 -19zM340 287l187 -187c5 -5 6 -13 0 -19l-15 -15c-6 -6 -14 -6 -20 0l-211 211c-5 6 -5 14 0 20l211 211c6 6 14 6 20 0l15 -15
c6 -6 5 -13 0 -19z" />
    <glyph glyph-name="guillemotright" unicode="&#xbb;" horiz-adv-x="559" 
d="M282 100l187 187l-187 187c-5 6 -6 13 0 19l15 15c6 6 14 6 20 0l211 -211c5 -6 5 -14 0 -20l-211 -211c-6 -6 -14 -6 -20 0l-15 15c-6 6 -5 14 0 19zM38 100l187 187l-187 187c-5 6 -6 13 0 19l15 15c6 6 14 6 20 0l211 -211c5 -6 5 -14 0 -20l-211 -211
c-6 -6 -14 -6 -20 0l-15 15c-6 6 -5 14 0 19z" />
    <glyph glyph-name="ellipsis" unicode="&#x2026;" horiz-adv-x="892" 
d="M445 -12c-27 0 -52 24 -52 52c0 27 25 51 52 51c29 0 54 -24 54 -51c0 -28 -25 -52 -54 -52zM764 -12c-26 0 -51 24 -51 52c0 27 25 51 51 51c30 0 54 -24 54 -51c0 -28 -24 -52 -54 -52zM125 -12c-27 0 -51 24 -51 52c0 27 24 51 51 51c30 0 53 -24 53 -51
c0 -28 -23 -52 -53 -52z" />
    <glyph glyph-name="endash" unicode="&#x2013;" horiz-adv-x="599" 
d="M45 299c0 7 5 14 13 14h483c7 0 13 -7 13 -14v-22c0 -8 -6 -15 -13 -15h-483c-8 0 -13 7 -13 15v22z" />
    <glyph glyph-name="emdash" unicode="&#x2014;" horiz-adv-x="1022" 
d="M45 299c0 7 5 14 13 14h904c9 0 15 -7 15 -14v-22c0 -8 -6 -15 -15 -15h-904c-8 0 -13 7 -13 15v22z" />
    <glyph glyph-name="quotedblleft" unicode="&#x201c;" horiz-adv-x="441" 
d="M135 610c4 -24 44 -30 44 -65c0 -23 -22 -49 -49 -49c-29 0 -56 25 -56 66c0 52 28 127 81 187c0 1 1 1 9 4c6 0 13 -5 14 -11l3 -4c0 -1 1 -2 1 -3s-1 -2 -1 -3c-28 -40 -46 -93 -46 -122zM318 610c4 -24 44 -30 44 -65c0 -23 -21 -49 -50 -49c-28 0 -55 25 -55 66
c0 52 28 127 82 187c1 1 4 2 7 4c7 0 14 -5 15 -11l3 -4c0 -1 1 -2 1 -3s-1 -2 -1 -3c-27 -40 -46 -93 -46 -122z" />
    <glyph glyph-name="quotedblright" unicode="&#x201d;" horiz-adv-x="441" 
d="M306 643c0 18 -44 29 -44 64c0 24 22 49 50 49c29 0 54 -24 54 -66c0 -51 -27 -127 -80 -187c-3 0 -5 -4 -10 -4c-8 0 -18 7 -18 17c0 1 1 3 2 5c27 40 46 92 46 122zM122 643c0 18 -44 29 -44 64c0 24 22 49 50 49s54 -24 54 -66c0 -51 -28 -127 -80 -187
c-3 0 -5 -4 -10 -4c-8 0 -18 7 -18 17c0 1 1 3 2 5c28 39 46 92 46 122z" />
    <glyph glyph-name="quoteleft" unicode="&#x2018;" horiz-adv-x="257" 
d="M135 610c4 -24 44 -30 44 -65c0 -23 -22 -49 -49 -49c-29 0 -56 25 -56 66c0 52 28 127 81 187c1 1 4 2 8 4c7 0 14 -4 15 -11l3 -4c0 -1 1 -2 1 -3s-1 -2 -1 -3c-28 -41 -46 -93 -46 -122z" />
    <glyph glyph-name="quoteright" unicode="&#x2019;" horiz-adv-x="256" 
d="M122 643c0 18 -44 29 -44 64c0 24 22 49 50 49s54 -24 54 -66c0 -51 -28 -127 -80 -187c-3 0 -5 -4 -10 -4c-8 0 -18 7 -18 17c0 1 1 3 2 5c28 39 46 92 46 122z" />
    <glyph glyph-name="divide" unicode="&#xf7;" 
d="M355 148c0 -28 -22 -52 -52 -52c-29 0 -52 24 -52 52c0 29 23 53 52 53c30 0 52 -24 52 -53zM355 503c0 -29 -22 -53 -52 -53c-29 0 -52 24 -52 53c0 28 23 52 52 52c30 0 52 -24 52 -52zM553 302h-489c-8 0 -14 6 -14 14v25c0 7 6 13 14 13h489c8 0 14 -6 14 -13v-25
c0 -8 -6 -14 -14 -14z" />
    <glyph glyph-name="Euro" unicode="&#x20ac;" horiz-adv-x="725" 
d="M618 93c3 1 6 2 9 2c5 0 9 -2 12 -6l15 -24c2 -2 3 -5 3 -8c0 -4 -3 -8 -8 -11c-57 -37 -126 -58 -198 -58c-172 0 -297 104 -337 256h-76c-8 0 -14 5 -14 13v24c0 8 6 15 14 15h66c-3 19 -4 38 -4 55c0 19 1 39 5 59h-67c-8 0 -14 7 -14 15v23c0 8 6 14 14 14h77
c41 151 166 254 336 254c72 0 141 -22 198 -59c5 -3 7 -8 7 -12c0 -6 -16 -37 -29 -37c-3 0 -6 1 -9 3c-49 30 -109 48 -167 48c-125 0 -231 -75 -274 -197h345c8 0 14 -6 14 -14v-23c0 -8 -6 -15 -14 -15h-358c-3 -20 -5 -40 -5 -59c0 -17 2 -36 5 -55h358
c8 0 14 -7 14 -15v-24c0 -8 -6 -13 -14 -13h-346c40 -125 148 -200 275 -200c59 0 119 16 167 49z" />
    <glyph glyph-name="guilsinglleft" unicode="&#x2039;" horiz-adv-x="342" 
d="M283 100c5 -5 6 -13 0 -19l-15 -15c-6 -6 -14 -6 -20 0l-211 211c-5 6 -5 14 0 20l211 211c6 6 14 6 20 0l15 -15c6 -6 5 -13 0 -19l-187 -187z" />
    <glyph glyph-name="guilsinglright" unicode="&#x203a;" horiz-adv-x="342" 
d="M38 100l187 187l-187 187c-5 6 -6 13 0 19l15 15c6 6 14 6 20 0l211 -211c5 -6 5 -14 0 -20l-211 -211c-6 -6 -14 -6 -20 0l-15 15c-6 6 -5 14 0 19z" />
    <glyph glyph-name="periodcentered" unicode="&#xb7;" horiz-adv-x="310" 
d="M172 285c-27 0 -51 25 -51 53c0 27 24 51 51 51c30 0 53 -24 53 -51c0 -28 -23 -53 -53 -53z" />
    <glyph glyph-name="quotesinglbase" unicode="&#x201a;" horiz-adv-x="256" 
d="M122 -21c0 19 -44 29 -44 64c0 24 22 49 50 49s54 -24 54 -65c0 -52 -28 -127 -80 -187c-3 0 -6 -4 -11 -4c-6 0 -12 4 -13 11l-2 4c-1 0 -2 1 -2 2s1 2 2 3c28 42 46 94 46 123z" />
    <glyph glyph-name="quotedblbase" unicode="&#x201e;" horiz-adv-x="441" 
d="M122 -21c0 19 -44 29 -44 64c0 24 22 49 50 49s54 -24 54 -65c0 -52 -28 -127 -80 -187c-3 0 -6 -4 -11 -4c-6 0 -12 4 -13 11l-2 4c-1 0 -2 1 -2 2s1 2 2 3c28 42 46 94 46 123zM306 -21c-4 23 -45 28 -45 64c0 24 22 49 50 49c29 0 55 -24 55 -65
c0 -52 -27 -127 -81 -187c-2 0 -8 -4 -10 -4c-7 0 -12 4 -13 11l-3 4c-1 0 -1 1 -1 2s0 2 1 3c28 41 47 94 47 123z" />
    <glyph glyph-name="circumflex" unicode="&#x2c6;" horiz-adv-x="474" 
d="M361 642c1 -2 1 -4 1 -7c0 -7 -5 -15 -14 -15h-25c-5 0 -12 5 -16 9l-68 99c-20 -31 -66 -108 -84 -108h-24c-9 0 -15 8 -15 15c2 6 6 11 10 17l68 99c4 5 13 11 18 11h55c19 0 71 -86 94 -120z" />
    <glyph glyph-name="tilde" unicode="&#x2dc;" horiz-adv-x="486" 
d="M387 742h16c8 0 15 -9 14 -17c-14 -58 -51 -94 -99 -94c-26 0 -57 14 -83 32c-25 17 -48 30 -67 30c-28 0 -44 -19 -50 -52c-2 -6 -9 -12 -15 -12h-16c-9 0 -15 8 -15 17c12 58 53 93 99 93c24 0 55 -15 83 -32c26 -17 49 -29 66 -29c25 0 44 24 52 52c3 6 9 12 15 12z
" />
    <glyph glyph-name="macron" unicode="&#xaf;" horiz-adv-x="485" 
d="M408 729v-19c0 -9 -7 -16 -16 -16h-294c-10 0 -16 7 -16 16v19c0 8 6 14 16 14h294c9 0 16 -6 16 -14z" />
    <glyph glyph-name="cedilla" unicode="&#xb8;" horiz-adv-x="481" 
d="M312 -52c25 -14 35 -36 35 -58c0 -55 -59 -100 -135 -100c-32 0 -73 -2 -73 20v15c0 7 7 15 14 15c13 0 29 -5 44 -5c60 0 94 23 94 57c0 24 -30 28 -31 53l7 50c2 6 8 12 15 12h14c10 0 20 -4 20 -14c0 -14 -2 -32 -4 -45z" />
    <glyph glyph-name="ring" unicode="&#x2da;" horiz-adv-x="489" 
d="M125 727c0 66 56 118 122 118s122 -53 122 -120c0 -68 -56 -121 -122 -121s-122 52 -122 123zM162 727c0 -50 39 -87 86 -87c46 0 85 38 85 87c0 46 -39 85 -85 85c-47 0 -86 -39 -86 -85z" />
    <glyph glyph-name="breve" unicode="&#x2d8;" horiz-adv-x="482" 
d="M377 758c8 0 16 -6 16 -15c0 -1 -1 -2 -1 -3c-18 -72 -71 -118 -149 -118c-80 0 -132 46 -150 118v2c0 9 7 16 15 16h18c6 0 14 -6 16 -13c13 -49 49 -81 100 -81c53 0 88 29 101 81c2 9 8 13 16 13h18z" />
    <glyph glyph-name="dotaccent" unicode="&#x2d9;" horiz-adv-x="482" 
d="M241 638c-22 0 -43 19 -43 44s21 44 43 44c25 0 47 -19 47 -44s-22 -44 -47 -44z" />
    <glyph glyph-name="hungarumlaut" unicode="&#x2dd;" horiz-adv-x="461" 
d="M125 642l47 104c4 13 18 16 26 16h34c8 0 13 -6 13 -13c0 -5 -3 -10 -5 -14l-72 -100c-7 -7 -14 -14 -23 -14h-6c-8 0 -16 4 -16 13c0 3 1 5 2 8zM291 642c20 40 46 120 74 120h34c8 0 14 -6 14 -13c0 -3 -1 -7 -3 -9l-76 -106l-8 -9l-7 -3c-2 0 -5 -1 -7 -1h-6
c-9 0 -16 5 -16 15c0 2 0 4 1 6z" />
    <glyph glyph-name="ogonek" unicode="&#x2db;" horiz-adv-x="483" 
d="M346 -155v-14c0 -5 -5 -13 -11 -16c-20 -9 -33 -14 -65 -13c-80 0 -128 43 -128 123c0 24 3 47 7 67c0 7 7 15 14 15h17c11 0 17 -8 15 -17c-3 -14 -6 -30 -6 -45c0 -58 29 -96 89 -96c17 0 35 4 51 9c9 3 17 -4 17 -13z" />
    <glyph glyph-name="caron" unicode="&#x2c7;" horiz-adv-x="474" 
d="M360 740l-76 -109c-3 -6 -13 -11 -17 -11h-56c-4 0 -14 5 -17 11l-71 103c-3 5 -6 9 -6 15s5 13 14 13h24c6 0 13 -5 17 -9l69 -99c19 30 66 108 82 108h24c9 0 15 -7 15 -15c0 -3 -1 -5 -2 -7z" />
    <glyph glyph-name="dagger" unicode="&#x2020;" horiz-adv-x="559" 
d="M54 508c0 7 7 14 14 14h185v184c0 8 6 15 15 15h23c7 0 14 -7 14 -15v-184h185c8 0 15 -6 15 -14v-19c0 -9 -7 -15 -15 -15h-185v-511c0 -8 -7 -13 -14 -13h-22c-9 0 -16 5 -16 13v511h-185c-7 0 -14 6 -14 15v19z" />
    <glyph glyph-name="daggerdbl" unicode="&#x2021;" horiz-adv-x="559" 
d="M54 508c0 7 6 14 14 14h185v184c0 8 6 15 15 15h22c8 0 15 -7 15 -15v-184h185c8 0 15 -7 15 -14v-19c0 -9 -7 -15 -15 -15h-185v-282h185c8 0 15 -7 15 -15v-19c0 -8 -7 -13 -15 -13h-185v-183c0 -8 -7 -14 -15 -14h-21c-9 0 -16 6 -16 14v183h-185c-8 0 -14 5 -14 13
v19c0 8 6 15 14 15h185v282h-185c-8 0 -14 6 -14 15v19z" />
    <glyph glyph-name="notequal" unicode="&#x2260;" 
d="M50 453c0 7 6 14 14 14h271l72 190c3 6 10 11 16 11h16c7 0 13 -7 13 -15c0 -2 -1 -3 -1 -5l-71 -181h173c8 0 14 -7 14 -14v-24c0 -8 -6 -14 -14 -14h-192l-60 -163h252c8 0 14 -5 14 -13v-24c0 -9 -6 -15 -14 -15h-272l-71 -189c-3 -7 -9 -11 -15 -11h-16
c-9 0 -14 6 -14 13c0 2 0 5 1 7l68 180h-170c-8 0 -14 6 -14 15v24c0 8 6 13 14 13h190l61 163h-251c-8 0 -14 6 -14 14v24z" />
    <glyph glyph-name="approxequal" unicode="&#x2248;" 
d="M565 475c2 -3 3 -7 3 -10c0 -2 0 -4 -1 -5c-32 -63 -76 -100 -140 -100c-87 0 -168 90 -241 90c-39 0 -74 -28 -101 -69c-3 -5 -8 -7 -13 -7c-4 0 -8 2 -11 6l-9 9c-2 2 -3 5 -3 9c0 2 1 4 2 6c35 65 79 101 141 101c92 0 164 -91 242 -91c35 0 71 28 100 68
c3 5 8 7 11 7c7 0 14 -5 20 -14zM565 285c2 -3 3 -7 3 -10c0 -2 0 -4 -1 -6c-32 -62 -76 -100 -140 -100c-87 0 -168 92 -241 92c-41 0 -73 -27 -101 -70c-3 -5 -8 -8 -12 -8c-5 0 -9 2 -12 7l-9 9c-2 2 -3 5 -3 8s1 5 2 7c35 64 79 101 141 101c92 0 163 -91 242 -91
c35 0 71 27 100 68c3 4 8 6 12 6c7 0 13 -5 19 -13z" />
    <glyph glyph-name="lessequal" unicode="&#x2264;" 
d="M51 73c0 7 7 14 15 14h485c8 0 14 -7 14 -14v-24c0 -7 -6 -14 -14 -14h-485c-8 0 -15 7 -15 14v24zM560 602c0 -6 -5 -12 -10 -14l-420 -176l420 -176c5 -2 10 -9 10 -15v-27c0 -8 -7 -14 -14 -14c-2 0 -3 0 -5 1l-475 203c-7 5 -8 11 -8 19v24c0 4 4 11 8 13l475 203h5
c7 0 14 -5 14 -13v-28z" />
    <glyph glyph-name="greaterequal" unicode="&#x2265;" 
d="M565 73v-24c0 -7 -6 -14 -14 -14h-484c-9 0 -15 7 -15 14v24c0 7 6 14 15 14h484c8 0 14 -7 14 -14zM57 602v28c0 8 6 13 14 13h6l473 -202c4 -3 9 -10 9 -14c0 -14 2 -36 -9 -43l-473 -203c-2 -1 -4 -1 -6 -1c-8 0 -14 6 -14 14v27c0 6 5 13 10 15l420 176l-420 176
c-5 2 -10 8 -10 14z" />
    <glyph glyph-name="dotlessi" unicode="&#x131;" horiz-adv-x="245" 
d="M137 517c8 0 13 -7 13 -14v-489c0 -8 -5 -14 -13 -14h-29c-8 0 -14 6 -14 14v489c0 7 6 14 14 14h29z" />
    <glyph glyph-name="a" unicode="a" horiz-adv-x="565" 
d="M414 194v65h-43c-142 0 -253 -23 -253 -117c0 -65 46 -101 129 -101c69 0 167 62 167 153zM115 494c42 21 89 35 168 35c93 0 188 -54 188 -200v-315c0 -8 -6 -14 -14 -14h-24c-9 0 -15 6 -15 16v68h-9c-29 -49 -101 -96 -176 -96c-100 0 -174 61 -174 147
c0 144 147 169 299 169h56c0 3 1 27 0 30c0 87 -44 142 -147 142c-60 0 -105 -16 -129 -27c-8 -3 -16 -2 -18 4c-2 4 -9 21 -11 25c-3 6 0 14 6 16z" />
    <glyph glyph-name="fraction" unicode="&#x2044;" horiz-adv-x="791" 
d="M602 704h17c9 0 15 -9 10 -18l-394 -671c-5 -8 -14 -15 -23 -15h-18c-9 0 -15 9 -10 18l395 671c5 9 15 15 23 15z" />
    <glyph glyph-name="perthousand" unicode="&#x2030;" horiz-adv-x="1157" 
d="M179 713c87 0 134 -57 134 -189c0 -134 -47 -190 -134 -190c-85 0 -131 56 -131 190c0 132 46 189 131 189zM179 378c56 0 85 45 85 146c0 100 -29 143 -85 143c-53 0 -83 -43 -83 -143c0 -101 30 -146 83 -146zM645 373c87 0 134 -56 134 -190s-47 -189 -134 -189
c-85 0 -132 55 -132 189s47 190 132 190zM645 38c56 0 86 44 86 145c0 100 -30 145 -86 145c-53 0 -83 -45 -83 -145c0 -101 30 -145 83 -145zM607 704h18c8 0 13 -10 9 -18l-394 -671c-5 -9 -13 -15 -22 -15h-21c-8 0 -13 10 -8 18l395 671c5 9 14 15 23 15zM981 373
c87 0 134 -56 134 -190s-47 -189 -134 -189c-85 0 -132 55 -132 189s47 190 132 190zM981 38c56 0 86 44 86 145c0 100 -30 145 -86 145c-53 0 -83 -45 -83 -145c0 -101 30 -145 83 -145z" />
    <glyph glyph-name="OE" unicode="&#x152;" horiz-adv-x="1270" 
d="M1181 649h-416v-261h367c7 0 14 -7 14 -14v-27c0 -7 -7 -13 -14 -13h-367v-280h416c8 0 15 -6 15 -13v-27c0 -8 -7 -14 -15 -14h-459c-8 0 -14 7 -14 15c0 44 -1 89 -1 133c-59 -97 -166 -160 -289 -160c-198 0 -349 155 -349 362c0 199 140 366 349 366
c126 0 232 -65 289 -162c0 46 1 89 1 135c0 7 6 15 14 15h459c8 0 15 -7 15 -14v-27c0 -8 -7 -14 -15 -14zM418 44c162 0 289 125 289 306c0 186 -127 310 -289 310s-288 -124 -288 -310c0 -181 126 -306 288 -306z" />
    <glyph glyph-name="oe" unicode="&#x153;" horiz-adv-x="1015" 
d="M982 262c0 -8 -7 -15 -15 -15h-400c0 -124 91 -208 205 -208c63 0 117 17 152 34c2 1 4 1 6 1c5 0 10 -2 12 -7l9 -20c1 -2 1 -3 1 -5c0 -32 -111 -54 -183 -54c-111 0 -195 52 -233 139c-41 -86 -123 -139 -224 -139c-146 0 -254 109 -254 269c0 159 108 272 254 272
c100 0 183 -55 224 -142c38 89 118 142 221 142c136 0 225 -87 225 -267zM312 39c113 0 196 85 196 218c0 134 -83 220 -196 220c-111 0 -195 -86 -195 -220c0 -133 84 -218 195 -218zM568 293h356c0 117 -74 184 -168 184c-98 0 -173 -65 -188 -184z" />
    <glyph glyph-name="Adieresis" unicode="&#xc4;" horiz-adv-x="707" 
d="M685 17c1 -2 1 -3 1 -5c0 -7 -6 -12 -14 -12h-30c-8 0 -16 6 -20 15l-75 174h-389l-74 -174c-4 -9 -11 -15 -20 -15h-30c-8 0 -13 5 -13 12c0 1 0 3 1 5l296 675c3 6 11 12 20 12h31c8 0 16 -6 19 -12zM181 241h344c-40 90 -81 190 -121 282l-50 122h-2l-50 -122
c-38 -92 -81 -192 -121 -282zM258 826c-25 0 -44 19 -44 44s19 44 44 44c21 0 44 -19 44 -44s-23 -44 -44 -44zM449 826c-23 0 -44 19 -44 44s21 44 44 44c24 0 45 -19 45 -44s-21 -44 -45 -44z" />
    <glyph glyph-name="Aring" unicode="&#xc5;" horiz-adv-x="707" 
d="M232 801c0 66 56 119 121 119c67 0 123 -54 123 -121c0 -54 -36 -99 -85 -114l292 -661c2 -6 3 -11 3 -13c0 -7 -5 -11 -13 -11h-30c-9 0 -16 6 -20 15l-75 174h-389l-75 -174c-3 -9 -11 -15 -19 -15h-30c-9 0 -15 4 -15 11c1 9 11 28 17 40l279 634
c-49 15 -84 59 -84 116zM182 241h344c-44 95 -87 203 -128 298c-9 19 -39 106 -46 106l-53 -132c-39 -90 -78 -185 -117 -272zM269 801c0 -50 39 -87 86 -87c46 0 85 38 85 87c0 46 -39 85 -85 85c-47 0 -86 -39 -86 -85z" />
    <glyph glyph-name="Ccedilla" unicode="&#xc7;" horiz-adv-x="731" 
d="M435 -50c23 -14 34 -36 34 -58c0 -55 -59 -100 -135 -100c-33 0 -74 -1 -74 20v15c0 8 8 15 16 15l26 -4c6 -1 11 -1 17 -1c61 0 94 23 94 57c0 29 -31 29 -31 51c0 13 5 30 7 45c-194 13 -320 165 -320 362c0 206 140 364 350 364c94 0 183 -35 246 -96c3 -4 5 -8 5 -11
s-1 -6 -3 -8l-20 -22c-2 -3 -5 -4 -8 -4c-4 0 -8 1 -11 4c-54 51 -132 81 -209 81c-162 0 -290 -123 -290 -308s128 -308 290 -308c77 0 155 30 209 80c3 3 7 4 11 4s6 -1 8 -3l20 -21c2 -3 3 -6 3 -10s-1 -8 -5 -11c-59 -55 -140 -89 -227 -95z" />
    <glyph glyph-name="Eacute" unicode="&#xc9;" horiz-adv-x="666" 
d="M577 649h-416v-261h367c8 0 15 -7 15 -14v-27c0 -7 -7 -13 -15 -13h-367v-280h416c8 0 15 -6 15 -13v-27c0 -8 -7 -14 -15 -14h-459c-8 0 -14 6 -14 14v676c0 7 6 14 14 14h459c8 0 15 -7 15 -14v-27c0 -8 -7 -14 -15 -14zM282 829l52 110c2 5 10 10 15 10h44
c12 0 17 -13 11 -22l-84 -112c-1 -3 -8 -7 -12 -7h-13c-12 0 -18 11 -13 21z" />
    <glyph glyph-name="Ntilde" unicode="&#xd1;" horiz-adv-x="778" 
d="M660 704c8 0 14 -6 14 -14v-676c0 -8 -6 -14 -14 -14h-30c-8 0 -19 6 -24 13l-443 594h-8c2 -22 6 -93 6 -149v-444c0 -8 -6 -14 -13 -14h-30c-8 0 -14 6 -14 14v676c0 8 6 14 14 14h30c7 0 17 -6 23 -14l444 -595h7c-1 29 -5 82 -5 144v451c0 8 6 14 14 14h29zM531 929
h16c8 0 15 -9 14 -17c-14 -58 -51 -94 -99 -94c-26 0 -57 14 -83 32c-25 17 -48 30 -67 30c-28 0 -44 -19 -50 -52c-2 -6 -9 -12 -15 -12h-16c-9 0 -15 8 -15 17c12 58 53 93 99 93c24 0 55 -15 83 -32c26 -17 49 -29 66 -29c25 0 44 24 52 52c3 6 9 12 15 12z" />
    <glyph glyph-name="Odieresis" unicode="&#xd6;" horiz-adv-x="837" 
d="M767 350c0 -207 -151 -362 -349 -362s-349 155 -349 362c0 199 140 366 349 366s349 -167 349 -366zM418 44c162 0 289 125 289 306c0 186 -127 310 -289 310s-288 -124 -288 -310c0 -181 126 -306 288 -306zM321 826c-25 0 -44 19 -44 44s19 44 44 44
c21 0 44 -19 44 -44s-23 -44 -44 -44zM512 826c-23 0 -44 19 -44 44s21 44 44 44c24 0 45 -19 45 -44s-21 -44 -45 -44z" />
    <glyph glyph-name="Udieresis" unicode="&#xdc;" horiz-adv-x="796" 
d="M684 704c8 0 14 -6 14 -14v-388c0 -188 -124 -314 -300 -314c-179 0 -300 127 -300 314v388c0 8 6 14 14 14h30c7 0 13 -6 13 -14v-377c0 -158 92 -269 243 -269c152 0 242 111 242 269v377c0 8 5 14 14 14h30zM301 826c-25 0 -44 19 -44 44s19 44 44 44
c21 0 44 -19 44 -44s-23 -44 -44 -44zM492 826c-23 0 -44 19 -44 44s21 44 44 44c24 0 45 -19 45 -44s-21 -44 -45 -44z" />
    <glyph glyph-name="aacute" unicode="&#xe1;" horiz-adv-x="565" 
d="M414 194v65h-43c-142 0 -253 -23 -253 -117c0 -65 46 -101 129 -101c69 0 167 62 167 153zM115 494c42 21 89 35 168 35c93 0 188 -54 188 -200v-315c0 -8 -6 -14 -14 -14h-24c-9 0 -15 6 -15 16v68h-9c-29 -49 -101 -96 -176 -96c-100 0 -174 61 -174 147
c0 144 147 169 299 169h56c0 3 1 27 0 30c0 87 -44 142 -147 142c-60 0 -105 -16 -129 -27c-8 -3 -16 -2 -18 4c-2 4 -9 21 -11 25c-3 6 0 14 6 16zM228 642l52 110c2 5 10 10 15 10h44c12 0 17 -13 11 -22l-84 -112c-1 -3 -8 -7 -12 -7h-13c-12 0 -18 11 -13 21z" />
    <glyph glyph-name="agrave" unicode="&#xe0;" horiz-adv-x="565" 
d="M414 194v65h-43c-142 0 -253 -23 -253 -117c0 -65 46 -101 129 -101c69 0 167 62 167 153zM115 494c42 21 89 35 168 35c93 0 188 -54 188 -200v-315c0 -8 -6 -14 -14 -14h-24c-9 0 -15 6 -15 16v68h-9c-29 -49 -101 -96 -176 -96c-100 0 -174 61 -174 147
c0 144 147 169 299 169h56c0 3 1 27 0 30c0 87 -44 142 -147 142c-60 0 -105 -16 -129 -27c-8 -3 -16 -2 -18 4c-2 4 -9 21 -11 25c-3 6 0 14 6 16zM280 752l52 -110c4 -10 -1 -21 -13 -21h-12c-4 0 -11 4 -13 7l-84 112c-5 9 -1 22 11 22h44c5 0 12 -5 15 -10z" />
    <glyph glyph-name="acircumflex" unicode="&#xe2;" horiz-adv-x="565" 
d="M414 194v65h-43c-142 0 -253 -23 -253 -117c0 -65 46 -101 129 -101c69 0 167 62 167 153zM115 494c42 21 89 35 168 35c93 0 188 -54 188 -200v-315c0 -8 -6 -14 -14 -14h-24c-9 0 -15 6 -15 16v68h-9c-29 -49 -101 -96 -176 -96c-100 0 -174 61 -174 147
c0 144 147 169 299 169h56c0 3 1 27 0 30c0 87 -44 142 -147 142c-60 0 -105 -16 -129 -27c-8 -3 -16 -2 -18 4c-2 4 -9 21 -11 25c-3 6 0 14 6 16zM401 642c1 -2 1 -4 1 -7c0 -7 -5 -15 -14 -15h-25c-5 0 -12 5 -16 9l-68 99c-20 -31 -66 -108 -84 -108h-24
c-9 0 -15 8 -15 15c2 6 6 11 10 17l68 99c4 5 13 11 18 11h55c19 0 71 -86 94 -120z" />
    <glyph glyph-name="adieresis" unicode="&#xe4;" horiz-adv-x="565" 
d="M414 194v65h-43c-142 0 -253 -23 -253 -117c0 -65 46 -101 129 -101c69 0 167 62 167 153zM115 494c42 21 89 35 168 35c93 0 188 -54 188 -200v-315c0 -8 -6 -14 -14 -14h-24c-9 0 -15 6 -15 16v68h-9c-29 -49 -101 -96 -176 -96c-100 0 -174 61 -174 147
c0 144 147 169 299 169h56c0 3 1 27 0 30c0 87 -44 142 -147 142c-60 0 -105 -16 -129 -27c-8 -3 -16 -2 -18 4c-2 4 -9 21 -11 25c-3 6 0 14 6 16zM185 639c-25 0 -44 19 -44 44s19 44 44 44c21 0 44 -19 44 -44s-23 -44 -44 -44zM376 639c-23 0 -44 19 -44 44s21 44 44 44
c24 0 45 -19 45 -44s-21 -44 -45 -44z" />
    <glyph glyph-name="atilde" unicode="&#xe3;" horiz-adv-x="565" 
d="M414 194v65h-43c-142 0 -253 -23 -253 -117c0 -65 46 -101 129 -101c69 0 167 62 167 153zM115 494c42 21 89 35 168 35c93 0 188 -54 188 -200v-315c0 -8 -6 -14 -14 -14h-24c-9 0 -15 6 -15 16v68h-9c-29 -49 -101 -96 -176 -96c-100 0 -174 61 -174 147
c0 144 147 169 299 169h56c0 3 1 27 0 30c0 87 -44 142 -147 142c-60 0 -105 -16 -129 -27c-8 -3 -16 -2 -18 4c-2 4 -9 21 -11 25c-3 6 0 14 6 16zM424 742h16c8 0 15 -9 14 -17c-14 -58 -51 -94 -99 -94c-26 0 -57 14 -83 32c-25 17 -48 30 -67 30c-28 0 -44 -19 -50 -52
c-2 -6 -9 -12 -15 -12h-16c-9 0 -15 8 -15 17c12 58 53 93 99 93c24 0 55 -15 83 -32c26 -17 49 -29 66 -29c25 0 44 24 52 52c3 6 9 12 15 12z" />
    <glyph glyph-name="aring" unicode="&#xe5;" horiz-adv-x="565" 
d="M414 194v65h-43c-142 0 -253 -23 -253 -117c0 -65 46 -101 129 -101c69 0 167 62 167 153zM115 494c42 21 89 35 168 35c93 0 188 -54 188 -200v-315c0 -8 -6 -14 -14 -14h-24c-9 0 -15 6 -15 16v68h-9c-29 -49 -101 -96 -176 -96c-100 0 -174 61 -174 147
c0 144 147 169 299 169h56c0 3 1 27 0 30c0 87 -44 142 -147 142c-60 0 -105 -16 -129 -27c-8 -3 -16 -2 -18 4c-2 4 -9 21 -11 25c-3 6 0 14 6 16zM161 727c0 66 56 118 122 118s122 -53 122 -120c0 -68 -56 -121 -122 -121s-122 52 -122 123zM198 727c0 -50 39 -87 86 -87
c46 0 85 38 85 87c0 46 -39 85 -85 85c-47 0 -86 -39 -86 -85z" />
    <glyph glyph-name="ccedilla" unicode="&#xe7;" horiz-adv-x="527" 
d="M322 -50c24 -14 35 -36 35 -58c0 -55 -59 -100 -135 -100c-32 0 -74 -2 -74 20v15c0 7 7 15 15 15c10 0 22 -5 35 -5c67 0 103 21 103 57c0 29 -31 29 -31 50v3l6 43c-131 11 -217 106 -217 268c0 175 99 271 247 271c67 0 132 -28 181 -70c3 -3 5 -7 5 -12
c0 -2 -2 -6 -4 -8l-15 -22c-3 -3 -7 -4 -12 -4c-3 0 -7 1 -10 2c-41 33 -94 60 -145 60c-113 0 -188 -76 -188 -217c0 -140 75 -217 188 -217c46 0 93 21 132 50c9 6 24 10 31 10c2 0 3 -1 4 -2l15 -21c2 -3 4 -7 4 -10c0 -4 -2 -8 -5 -11c-45 -38 -103 -63 -161 -68
c-2 -13 -2 -27 -4 -39z" />
    <glyph glyph-name="eacute" unicode="&#xe9;" horiz-adv-x="597" 
d="M120 293h355c-1 117 -73 184 -167 184c-98 0 -174 -65 -188 -184zM534 262c0 -8 -8 -15 -15 -15h-401c0 -124 91 -207 205 -207c62 0 117 16 152 33c2 1 4 1 6 1c4 0 9 -2 12 -7l9 -20c1 -2 1 -3 1 -5c0 -33 -114 -54 -183 -54c-157 0 -261 102 -261 267
c0 170 102 274 250 274c136 0 225 -87 225 -267zM267 642l52 110c2 5 10 10 15 10h44c12 0 17 -13 11 -22l-84 -112c-1 -3 -8 -7 -12 -7h-13c-12 0 -18 11 -13 21z" />
    <glyph glyph-name="egrave" unicode="&#xe8;" horiz-adv-x="597" 
d="M120 293h355c-1 117 -73 184 -167 184c-98 0 -174 -65 -188 -184zM534 262c0 -8 -8 -15 -15 -15h-401c0 -124 91 -207 205 -207c62 0 117 16 152 33c2 1 4 1 6 1c4 0 9 -2 12 -7l9 -20c1 -2 1 -3 1 -5c0 -33 -114 -54 -183 -54c-157 0 -261 102 -261 267
c0 170 102 274 250 274c136 0 225 -87 225 -267zM299 752l52 -110c4 -10 -1 -21 -13 -21h-12c-4 0 -11 4 -13 7l-84 112c-5 9 -1 22 11 22h44c5 0 12 -5 15 -10z" />
    <glyph glyph-name="ecircumflex" unicode="&#xea;" horiz-adv-x="597" 
d="M120 293h355c-1 117 -73 184 -167 184c-98 0 -174 -65 -188 -184zM534 262c0 -8 -8 -15 -15 -15h-401c0 -124 91 -207 205 -207c62 0 117 16 152 33c2 1 4 1 6 1c4 0 9 -2 12 -7l9 -20c1 -2 1 -3 1 -5c0 -33 -114 -54 -183 -54c-157 0 -261 102 -261 267
c0 170 102 274 250 274c136 0 225 -87 225 -267zM423 642c1 -2 1 -4 1 -7c0 -7 -5 -15 -14 -15h-25c-5 0 -12 5 -16 9l-68 99c-20 -31 -66 -108 -84 -108h-24c-9 0 -15 8 -15 15c2 6 6 11 10 17l68 99c4 5 13 11 18 11h55c19 0 71 -86 94 -120z" />
    <glyph glyph-name="edieresis" unicode="&#xeb;" horiz-adv-x="597" 
d="M120 293h355c-1 117 -73 184 -167 184c-98 0 -174 -65 -188 -184zM534 262c0 -8 -8 -15 -15 -15h-401c0 -124 91 -207 205 -207c62 0 117 16 152 33c2 1 4 1 6 1c4 0 9 -2 12 -7l9 -20c1 -2 1 -3 1 -5c0 -33 -114 -54 -183 -54c-157 0 -261 102 -261 267
c0 170 102 274 250 274c136 0 225 -87 225 -267zM207 639c-25 0 -44 19 -44 44s19 44 44 44c21 0 44 -19 44 -44s-23 -44 -44 -44zM398 639c-23 0 -44 19 -44 44s21 44 44 44c24 0 45 -19 45 -44s-21 -44 -45 -44z" />
    <glyph glyph-name="iacute" unicode="&#xed;" horiz-adv-x="245" 
d="M87 642l52 110c2 5 10 10 15 10h44c12 0 17 -13 11 -22l-84 -112c-1 -3 -8 -7 -12 -7h-13c-12 0 -18 11 -13 21zM137 517c8 0 13 -7 13 -14v-489c0 -8 -5 -14 -13 -14h-29c-8 0 -14 6 -14 14v489c0 7 6 14 14 14h29z" />
    <glyph glyph-name="igrave" unicode="&#xec;" horiz-adv-x="245" 
d="M113 752l52 -110c4 -10 -1 -21 -13 -21h-12c-4 0 -11 4 -13 7l-84 112c-5 9 -1 22 11 22h44c5 0 12 -5 15 -10zM137 517c8 0 13 -7 13 -14v-489c0 -8 -5 -14 -13 -14h-29c-8 0 -14 6 -14 14v489c0 7 6 14 14 14h29z" />
    <glyph glyph-name="icircumflex" unicode="&#xee;" horiz-adv-x="245" 
d="M137 517c8 0 13 -7 13 -14v-489c0 -8 -5 -14 -13 -14h-29c-8 0 -14 6 -14 14v489c0 7 6 14 14 14h29zM244 642c1 -2 1 -4 1 -7c0 -7 -5 -15 -14 -15h-25c-5 0 -12 5 -16 9l-68 99c-20 -31 -66 -108 -84 -108h-24c-9 0 -15 8 -15 15c2 6 6 11 10 17l68 99c4 5 13 11 18 11
h55c19 0 71 -86 94 -120z" />
    <glyph glyph-name="idieresis" unicode="&#xef;" horiz-adv-x="245" 
d="M27 639c-25 0 -44 19 -44 44s19 44 44 44c21 0 44 -19 44 -44s-23 -44 -44 -44zM218 639c-23 0 -44 19 -44 44s21 44 44 44c24 0 45 -19 45 -44s-21 -44 -45 -44zM137 517c8 0 13 -7 13 -14v-489c0 -8 -5 -14 -13 -14h-29c-8 0 -14 6 -14 14v489c0 7 6 14 14 14h29z" />
    <glyph glyph-name="ntilde" unicode="&#xf1;" horiz-adv-x="602" 
d="M329 529c116 0 179 -73 179 -199v-316c0 -8 -6 -14 -14 -14h-29c-8 0 -14 6 -14 14v301c0 102 -39 160 -135 160c-108 0 -166 -94 -166 -177v-284c0 -8 -5 -14 -13 -14h-29c-8 0 -14 6 -14 14v489c0 7 6 14 14 14h28c8 0 13 -7 13 -14v-16c0 -11 -1 -44 -1 -50
c3 -2 6 -3 9 -4c30 51 92 96 172 96zM441 742h16c8 0 15 -9 14 -17c-14 -58 -51 -94 -99 -94c-26 0 -57 14 -83 32c-25 17 -48 30 -67 30c-28 0 -44 -19 -50 -52c-2 -6 -9 -12 -15 -12h-16c-9 0 -15 8 -15 17c12 58 53 93 99 93c24 0 55 -15 83 -32c26 -17 49 -29 66 -29
c25 0 44 24 52 52c3 6 9 12 15 12z" />
    <glyph glyph-name="oacute" unicode="&#xf3;" horiz-adv-x="627" 
d="M313 39c113 0 196 85 196 218c0 134 -83 220 -196 220c-111 0 -195 -86 -195 -220c0 -133 84 -218 195 -218zM313 529c145 0 254 -113 254 -271c0 -160 -109 -270 -254 -270c-146 0 -254 109 -254 269c0 159 108 272 254 272zM263 642l52 110c2 5 10 10 15 10h44
c12 0 17 -13 11 -22l-84 -112c-1 -3 -8 -7 -12 -7h-13c-12 0 -18 11 -13 21z" />
    <glyph glyph-name="ograve" unicode="&#xf2;" horiz-adv-x="627" 
d="M313 39c113 0 196 85 196 218c0 134 -83 220 -196 220c-111 0 -195 -86 -195 -220c0 -133 84 -218 195 -218zM313 529c145 0 254 -113 254 -271c0 -160 -109 -270 -254 -270c-146 0 -254 109 -254 269c0 159 108 272 254 272zM299 752l52 -110c4 -10 -1 -21 -13 -21h-12
c-4 0 -11 4 -13 7l-84 112c-5 9 -1 22 11 22h44c5 0 12 -5 15 -10z" />
    <glyph glyph-name="ocircumflex" unicode="&#xf4;" horiz-adv-x="627" 
d="M313 39c113 0 196 85 196 218c0 134 -83 220 -196 220c-111 0 -195 -86 -195 -220c0 -133 84 -218 195 -218zM313 529c145 0 254 -113 254 -271c0 -160 -109 -270 -254 -270c-146 0 -254 109 -254 269c0 159 108 272 254 272zM435 642c1 -2 1 -4 1 -7
c0 -7 -5 -15 -14 -15h-25c-5 0 -12 5 -16 9l-68 99c-20 -31 -66 -108 -84 -108h-24c-9 0 -15 8 -15 15c2 6 6 11 10 17l68 99c4 5 13 11 18 11h55c19 0 71 -86 94 -120z" />
    <glyph glyph-name="odieresis" unicode="&#xf6;" horiz-adv-x="627" 
d="M313 39c113 0 196 85 196 218c0 134 -83 220 -196 220c-111 0 -195 -86 -195 -220c0 -133 84 -218 195 -218zM313 529c145 0 254 -113 254 -271c0 -160 -109 -270 -254 -270c-146 0 -254 109 -254 269c0 159 108 272 254 272zM217 639c-25 0 -44 19 -44 44s19 44 44 44
c21 0 44 -19 44 -44s-23 -44 -44 -44zM408 639c-23 0 -44 19 -44 44s21 44 44 44c24 0 45 -19 45 -44s-21 -44 -45 -44z" />
    <glyph glyph-name="otilde" unicode="&#xf5;" horiz-adv-x="627" 
d="M313 39c113 0 196 85 196 218c0 134 -83 220 -196 220c-111 0 -195 -86 -195 -220c0 -133 84 -218 195 -218zM313 529c145 0 254 -113 254 -271c0 -160 -109 -270 -254 -270c-146 0 -254 109 -254 269c0 159 108 272 254 272zM456 742h16c8 0 15 -9 14 -17
c-14 -58 -51 -94 -99 -94c-26 0 -57 14 -83 32c-25 17 -48 30 -67 30c-28 0 -44 -19 -50 -52c-2 -6 -9 -12 -15 -12h-16c-9 0 -15 8 -15 17c12 58 53 93 99 93c24 0 55 -15 83 -32c26 -17 49 -29 66 -29c25 0 44 24 52 52c3 6 9 12 15 12z" />
    <glyph glyph-name="uacute" unicode="&#xfa;" horiz-adv-x="602" 
d="M272 -12c-116 0 -178 71 -178 198v316c0 8 6 15 14 15h29c7 0 13 -7 13 -15v-300c0 -103 40 -160 136 -160c107 0 165 92 165 177v283c0 8 6 15 14 15h29c7 0 14 -7 14 -15v-488c0 -8 -7 -14 -14 -14h-28c-8 0 -14 6 -14 14v16c0 11 1 43 1 50c-3 1 -6 2 -8 4
c-30 -51 -94 -96 -173 -96zM258 642l52 110c2 5 10 10 15 10h44c12 0 17 -13 11 -22l-84 -112c-1 -3 -8 -7 -12 -7h-13c-12 0 -18 11 -13 21z" />
    <glyph glyph-name="ugrave" unicode="&#xf9;" horiz-adv-x="602" 
d="M272 -12c-116 0 -178 71 -178 198v316c0 8 6 15 14 15h29c7 0 13 -7 13 -15v-300c0 -103 40 -160 136 -160c107 0 165 92 165 177v283c0 8 6 15 14 15h29c7 0 14 -7 14 -15v-488c0 -8 -7 -14 -14 -14h-28c-8 0 -14 6 -14 14v16c0 11 1 43 1 50c-3 1 -6 2 -8 4
c-30 -51 -94 -96 -173 -96zM292 752l52 -110c4 -10 -1 -21 -13 -21h-12c-4 0 -11 4 -13 7l-84 112c-5 9 -1 22 11 22h44c5 0 12 -5 15 -10z" />
    <glyph glyph-name="ucircumflex" unicode="&#xfb;" horiz-adv-x="602" 
d="M272 -12c-116 0 -178 71 -178 198v316c0 8 6 15 14 15h29c7 0 13 -7 13 -15v-300c0 -103 40 -160 136 -160c107 0 165 92 165 177v283c0 8 6 15 14 15h29c7 0 14 -7 14 -15v-488c0 -8 -7 -14 -14 -14h-28c-8 0 -14 6 -14 14v16c0 11 1 43 1 50c-3 1 -6 2 -8 4
c-30 -51 -94 -96 -173 -96zM418 642c1 -2 1 -4 1 -7c0 -7 -5 -15 -14 -15h-25c-5 0 -12 5 -16 9l-68 99c-20 -31 -66 -108 -84 -108h-24c-9 0 -15 8 -15 15c2 6 6 11 10 17l68 99c4 5 13 11 18 11h55c19 0 71 -86 94 -120z" />
    <glyph glyph-name="udieresis" unicode="&#xfc;" horiz-adv-x="602" 
d="M272 -12c-116 0 -178 71 -178 198v316c0 8 6 15 14 15h29c7 0 13 -7 13 -15v-300c0 -103 40 -160 136 -160c107 0 165 92 165 177v283c0 8 6 15 14 15h29c7 0 14 -7 14 -15v-488c0 -8 -7 -14 -14 -14h-28c-8 0 -14 6 -14 14v16c0 11 1 43 1 50c-3 1 -6 2 -8 4
c-30 -51 -94 -96 -173 -96zM205 639c-25 0 -44 19 -44 44s19 44 44 44c21 0 44 -19 44 -44s-23 -44 -44 -44zM396 639c-23 0 -44 19 -44 44s21 44 44 44c24 0 45 -19 45 -44s-21 -44 -45 -44z" />
    <glyph glyph-name="Agrave" unicode="&#xc0;" horiz-adv-x="707" 
d="M685 17c1 -2 1 -3 1 -5c0 -7 -6 -12 -14 -12h-30c-8 0 -16 6 -20 15l-75 174h-389l-74 -174c-4 -9 -11 -15 -20 -15h-30c-8 0 -13 5 -13 12c0 1 0 3 1 5l296 675c3 6 11 12 20 12h31c8 0 16 -6 19 -12zM181 241h344c-40 90 -81 190 -121 282l-50 122h-2l-50 -122
c-38 -92 -81 -192 -121 -282zM339 939l52 -110c4 -10 -1 -21 -13 -21h-12c-4 0 -11 4 -13 7l-84 112c-5 9 -1 22 11 22h44c5 0 12 -5 15 -10z" />
    <glyph glyph-name="Atilde" unicode="&#xc3;" horiz-adv-x="707" 
d="M685 17c1 -2 1 -3 1 -5c0 -7 -6 -12 -14 -12h-30c-8 0 -16 6 -20 15l-75 174h-389l-74 -174c-4 -9 -11 -15 -20 -15h-30c-8 0 -13 5 -13 12c0 1 0 3 1 5l296 675c3 6 11 12 20 12h31c8 0 16 -6 19 -12zM181 241h344c-40 90 -81 190 -121 282l-50 122h-2l-50 -122
c-38 -92 -81 -192 -121 -282zM496 929h16c8 0 15 -9 14 -17c-14 -58 -51 -94 -99 -94c-26 0 -57 14 -83 32c-25 17 -48 30 -67 30c-28 0 -44 -19 -50 -52c-2 -6 -9 -12 -15 -12h-16c-9 0 -15 8 -15 17c12 58 53 93 99 93c24 0 55 -15 83 -32c26 -17 49 -29 66 -29
c25 0 44 24 52 52c3 6 9 12 15 12z" />
    <glyph glyph-name="Otilde" unicode="&#xd5;" horiz-adv-x="837" 
d="M767 350c0 -207 -151 -362 -349 -362s-349 155 -349 362c0 199 140 366 349 366s349 -167 349 -366zM418 44c162 0 289 125 289 306c0 186 -127 310 -289 310s-288 -124 -288 -310c0 -181 126 -306 288 -306zM562 929h16c8 0 15 -9 14 -17c-14 -58 -51 -94 -99 -94
c-26 0 -57 14 -83 32c-25 17 -48 30 -67 30c-28 0 -44 -19 -50 -52c-2 -6 -9 -12 -15 -12h-16c-9 0 -15 8 -15 17c12 58 53 93 99 93c24 0 55 -15 83 -32c26 -17 49 -29 66 -29c25 0 44 24 52 52c3 6 9 12 15 12z" />
    <glyph glyph-name="ydieresis" unicode="&#xff;" horiz-adv-x="529" 
d="M446 517h28c9 0 14 -6 14 -13c0 -3 0 -5 -1 -7l-272 -685c-2 -7 -9 -12 -15 -12h-26c-9 0 -13 6 -13 13c0 2 0 5 1 7c20 49 34 88 73 182c-62 156 -128 334 -194 495c-1 2 -1 4 -1 6c0 8 5 14 13 14h30c7 0 13 -6 16 -11l112 -294l48 -137h11l31 91c4 13 9 25 13 37
l118 303c3 6 9 11 14 11zM166 639c-25 0 -44 19 -44 44s19 44 44 44c21 0 44 -19 44 -44s-23 -44 -44 -44zM357 639c-23 0 -44 19 -44 44s21 44 44 44c24 0 45 -19 45 -44s-21 -44 -45 -44z" />
    <glyph glyph-name="Ydieresis" unicode="&#x178;" horiz-adv-x="625" 
d="M607 704c10 0 16 -12 10 -20l-275 -399v-271c0 -8 -6 -14 -15 -14h-29c-9 0 -15 6 -15 14v271l-275 399c-6 8 0 20 10 20h31c8 0 17 -6 23 -15l240 -347l239 347c6 9 16 15 24 15h32zM214 826c-25 0 -44 19 -44 44s19 44 44 44c21 0 44 -19 44 -44s-23 -44 -44 -44z
M405 826c-23 0 -44 19 -44 44s21 44 44 44c24 0 45 -19 45 -44s-21 -44 -45 -44z" />
    <glyph glyph-name="Acircumflex" unicode="&#xc2;" horiz-adv-x="707" 
d="M685 17c1 -2 1 -3 1 -5c0 -7 -6 -12 -14 -12h-30c-8 0 -16 6 -20 15l-75 174h-389l-74 -174c-4 -9 -11 -15 -20 -15h-30c-8 0 -13 5 -13 12c0 1 0 3 1 5l296 675c3 6 11 12 20 12h31c8 0 16 -6 19 -12zM181 241h344c-40 90 -81 190 -121 282l-50 122h-2l-50 -122
c-38 -92 -81 -192 -121 -282zM474 829c1 -2 1 -4 1 -7c0 -7 -5 -15 -14 -15h-25c-5 0 -12 5 -16 9l-68 99c-20 -31 -66 -108 -84 -108h-24c-9 0 -15 8 -15 15c2 6 6 11 10 17l68 99c4 5 13 11 18 11h55c19 0 71 -86 94 -120z" />
    <glyph glyph-name="Ecircumflex" unicode="&#xca;" horiz-adv-x="666" 
d="M577 649h-416v-261h367c8 0 15 -7 15 -14v-27c0 -7 -7 -13 -15 -13h-367v-280h416c8 0 15 -6 15 -13v-27c0 -8 -7 -14 -15 -14h-459c-8 0 -14 6 -14 14v676c0 7 6 14 14 14h459c8 0 15 -7 15 -14v-27c0 -8 -7 -14 -15 -14zM451 829c1 -2 1 -4 1 -7c0 -7 -5 -15 -14 -15
h-25c-5 0 -12 5 -16 9l-68 99c-20 -31 -66 -108 -84 -108h-24c-9 0 -15 8 -15 15c2 6 6 11 10 17l68 99c4 5 13 11 18 11h55c19 0 71 -86 94 -120z" />
    <glyph glyph-name="Aacute" unicode="&#xc1;" horiz-adv-x="707" 
d="M685 17c1 -2 1 -3 1 -5c0 -7 -6 -12 -14 -12h-30c-8 0 -16 6 -20 15l-75 174h-389l-74 -174c-4 -9 -11 -15 -20 -15h-30c-8 0 -13 5 -13 12c0 1 0 3 1 5l296 675c3 6 11 12 20 12h31c8 0 16 -6 19 -12zM181 241h344c-40 90 -81 190 -121 282l-50 122h-2l-50 -122
c-38 -92 -81 -192 -121 -282zM323 829l52 110c2 5 10 10 15 10h44c12 0 17 -13 11 -22l-84 -112c-1 -3 -8 -7 -12 -7h-13c-12 0 -18 11 -13 21z" />
    <glyph glyph-name="Edieresis" unicode="&#xcb;" horiz-adv-x="666" 
d="M577 649h-416v-261h367c8 0 15 -7 15 -14v-27c0 -7 -7 -13 -15 -13h-367v-280h416c8 0 15 -6 15 -13v-27c0 -8 -7 -14 -15 -14h-459c-8 0 -14 6 -14 14v676c0 7 6 14 14 14h459c8 0 15 -7 15 -14v-27c0 -8 -7 -14 -15 -14zM240 826c-25 0 -44 19 -44 44s19 44 44 44
c21 0 44 -19 44 -44s-23 -44 -44 -44zM431 826c-23 0 -44 19 -44 44s21 44 44 44c24 0 45 -19 45 -44s-21 -44 -45 -44z" />
    <glyph glyph-name="Egrave" unicode="&#xc8;" horiz-adv-x="666" 
d="M577 649h-416v-261h367c8 0 15 -7 15 -14v-27c0 -7 -7 -13 -15 -13h-367v-280h416c8 0 15 -6 15 -13v-27c0 -8 -7 -14 -15 -14h-459c-8 0 -14 6 -14 14v676c0 7 6 14 14 14h459c8 0 15 -7 15 -14v-27c0 -8 -7 -14 -15 -14zM339 939l52 -110c4 -10 -1 -21 -13 -21h-12
c-4 0 -11 4 -13 7l-84 112c-5 9 -1 22 11 22h44c5 0 12 -5 15 -10z" />
    <glyph glyph-name="Iacute" unicode="&#xcd;" horiz-adv-x="259" 
d="M145 704c7 0 13 -6 13 -14v-676c0 -8 -6 -14 -13 -14h-30c-8 0 -14 6 -14 14v676c0 8 6 14 14 14h30zM94 829l52 110c2 5 10 10 15 10h44c12 0 17 -13 11 -22l-84 -112c-1 -3 -8 -7 -12 -7h-13c-12 0 -18 11 -13 21z" />
    <glyph glyph-name="Icircumflex" unicode="&#xce;" horiz-adv-x="259" 
d="M145 704c7 0 13 -6 13 -14v-676c0 -8 -6 -14 -13 -14h-30c-8 0 -14 6 -14 14v676c0 8 6 14 14 14h30zM252 829c1 -2 1 -4 1 -7c0 -7 -5 -15 -14 -15h-25c-5 0 -12 5 -16 9l-68 99c-20 -31 -66 -108 -84 -108h-24c-9 0 -15 8 -15 15c2 6 6 11 10 17l68 99c4 5 13 11 18 11
h55c19 0 71 -86 94 -120z" />
    <glyph glyph-name="Idieresis" unicode="&#xcf;" horiz-adv-x="259" 
d="M145 704c7 0 13 -6 13 -14v-676c0 -8 -6 -14 -13 -14h-30c-8 0 -14 6 -14 14v676c0 8 6 14 14 14h30zM36 826c-25 0 -44 19 -44 44s19 44 44 44c21 0 44 -19 44 -44s-23 -44 -44 -44zM227 826c-23 0 -44 19 -44 44s21 44 44 44c24 0 45 -19 45 -44s-21 -44 -45 -44z" />
    <glyph glyph-name="Igrave" unicode="&#xcc;" horiz-adv-x="259" 
d="M145 704c7 0 13 -6 13 -14v-676c0 -8 -6 -14 -13 -14h-30c-8 0 -14 6 -14 14v676c0 8 6 14 14 14h30zM122 939l52 -110c4 -10 -1 -21 -13 -21h-12c-4 0 -11 4 -13 7l-84 112c-5 9 -1 22 11 22h44c5 0 12 -5 15 -10z" />
    <glyph glyph-name="Oacute" unicode="&#xd3;" horiz-adv-x="837" 
d="M767 350c0 -207 -151 -362 -349 -362s-349 155 -349 362c0 199 140 366 349 366s349 -167 349 -366zM418 44c162 0 289 125 289 306c0 186 -127 310 -289 310s-288 -124 -288 -310c0 -181 126 -306 288 -306zM378 829l52 110c2 5 10 10 15 10h44c12 0 17 -13 11 -22
l-84 -112c-1 -3 -8 -7 -12 -7h-13c-12 0 -18 11 -13 21z" />
    <glyph glyph-name="Ocircumflex" unicode="&#xd4;" horiz-adv-x="837" 
d="M767 350c0 -207 -151 -362 -349 -362s-349 155 -349 362c0 199 140 366 349 366s349 -167 349 -366zM418 44c162 0 289 125 289 306c0 186 -127 310 -289 310s-288 -124 -288 -310c0 -181 126 -306 288 -306zM537 829c1 -2 1 -4 1 -7c0 -7 -5 -15 -14 -15h-25
c-5 0 -12 5 -16 9l-68 99c-20 -31 -66 -108 -84 -108h-24c-9 0 -15 8 -15 15c2 6 6 11 10 17l68 99c4 5 13 11 18 11h55c19 0 71 -86 94 -120z" />
    <glyph glyph-name="Ograve" unicode="&#xd2;" horiz-adv-x="837" 
d="M767 350c0 -207 -151 -362 -349 -362s-349 155 -349 362c0 199 140 366 349 366s349 -167 349 -366zM418 44c162 0 289 125 289 306c0 186 -127 310 -289 310s-288 -124 -288 -310c0 -181 126 -306 288 -306zM411 939l52 -110c4 -10 -1 -21 -13 -21h-12c-4 0 -11 4 -13 7
l-84 112c-5 9 -1 22 11 22h44c5 0 12 -5 15 -10z" />
    <glyph glyph-name="Uacute" unicode="&#xda;" horiz-adv-x="796" 
d="M684 704c8 0 14 -6 14 -14v-388c0 -188 -124 -314 -300 -314c-179 0 -300 127 -300 314v388c0 8 6 14 14 14h30c7 0 13 -6 13 -14v-377c0 -158 92 -269 243 -269c152 0 242 111 242 269v377c0 8 5 14 14 14h30zM351 829l52 110c2 5 10 10 15 10h44c12 0 17 -13 11 -22
l-84 -112c-1 -3 -8 -7 -12 -7h-13c-12 0 -18 11 -13 21z" />
    <glyph glyph-name="Ucircumflex" unicode="&#xdb;" horiz-adv-x="796" 
d="M684 704c8 0 14 -6 14 -14v-388c0 -188 -124 -314 -300 -314c-179 0 -300 127 -300 314v388c0 8 6 14 14 14h30c7 0 13 -6 13 -14v-377c0 -158 92 -269 243 -269c152 0 242 111 242 269v377c0 8 5 14 14 14h30zM517 829c1 -2 1 -4 1 -7c0 -7 -5 -15 -14 -15h-25
c-5 0 -12 5 -16 9l-68 99c-20 -31 -66 -108 -84 -108h-24c-9 0 -15 8 -15 15c2 6 6 11 10 17l68 99c4 5 13 11 18 11h55c19 0 71 -86 94 -120z" />
    <glyph glyph-name="Ugrave" unicode="&#xd9;" horiz-adv-x="796" 
d="M684 704c8 0 14 -6 14 -14v-388c0 -188 -124 -314 -300 -314c-179 0 -300 127 -300 314v388c0 8 6 14 14 14h30c7 0 13 -6 13 -14v-377c0 -158 92 -269 243 -269c152 0 242 111 242 269v377c0 8 5 14 14 14h30zM389 939l52 -110c4 -10 -1 -21 -13 -21h-12
c-4 0 -11 4 -13 7l-84 112c-5 9 -1 22 11 22h44c5 0 12 -5 15 -10z" />
    <glyph glyph-name="multiply" unicode="&#xd7;" 
d="M89 534l16 14c6 6 15 6 20 0l180 -179l178 178c7 7 16 6 21 1l17 -15c6 -6 6 -15 -1 -22l-178 -178l179 -180c5 -5 5 -14 -1 -20l-15 -15c-5 -5 -14 -5 -20 0l-179 179l-179 -179c-6 -5 -15 -5 -21 1l-16 15c-5 6 -5 14 0 20l180 180l-180 180c-6 5 -6 14 -1 20z" />
    <glyph glyph-name="brokenbar" unicode="&#xa6;" horiz-adv-x="267" 
d="M144 742c6 0 13 -6 13 -13v-380c0 -8 -7 -14 -13 -14h-20c-8 0 -14 6 -14 14v380c0 7 6 13 14 13h20zM144 210c6 0 13 -6 13 -13v-382c0 -8 -7 -15 -13 -15h-20c-8 0 -14 7 -14 15v382c0 7 6 13 14 13h20z" />
    <glyph glyph-name="currency" unicode="&#xa4;" 
d="M473 202l51 -50c6 -5 6 -14 0 -19l-15 -15c-6 -6 -15 -6 -20 0l-50 49c-36 -27 -82 -45 -131 -45s-93 17 -129 44l-49 -49c-6 -5 -15 -5 -21 1l-16 15c-6 6 -5 15 0 20l50 50c-28 36 -45 80 -45 130c0 48 17 94 46 129l-51 51c-5 5 -5 14 0 20l15 14c6 6 15 6 21 0
l49 -50c36 29 81 46 130 46s94 -17 130 -45l49 49c6 6 15 6 20 0l17 -15c6 -6 6 -15 0 -21l-50 -50c28 -35 45 -80 45 -128c0 -50 -17 -95 -46 -131zM147 333c0 -90 72 -163 161 -163c90 0 163 73 163 163c0 89 -73 162 -163 162c-89 0 -161 -73 -161 -162z" />
    <glyph glyph-name="uni00AD" unicode="&#xad;" horiz-adv-x="368" 
d="M52 299c0 8 6 14 15 14h238c9 0 15 -6 15 -14v-22c0 -8 -6 -14 -15 -14h-238c-9 0 -15 6 -15 14v22z" />
    <glyph glyph-name="Eth" unicode="&#xd0;" horiz-adv-x="791" 
d="M347 704c223 0 375 -122 375 -352c0 -229 -152 -352 -375 -352h-232c-9 0 -15 6 -15 13v312h-52c-8 0 -14 6 -14 15v26c0 8 6 14 14 14h52v310c0 8 6 14 15 14h232zM357 54c184 0 305 111 305 298c0 188 -121 297 -305 297h-199v-269h162c9 0 15 -6 15 -14v-26
c0 -9 -6 -15 -15 -15h-162v-271h199z" />
    <glyph glyph-name="Oslash" unicode="&#xd8;" horiz-adv-x="837" 
d="M619 653c93 -66 148 -178 148 -303c0 -207 -151 -362 -349 -362c-61 0 -117 14 -167 41l-16 -28c-5 -9 -14 -16 -23 -16h-19c-9 0 -15 10 -10 18l30 49c-89 65 -144 172 -144 298c0 199 140 366 349 366c61 0 116 -14 163 -39l17 28c5 9 14 15 23 15h18c8 0 13 -9 9 -18z
M130 350c0 -106 43 -194 112 -247l309 525c-39 20 -85 32 -133 32c-162 0 -288 -124 -288 -310zM418 44c162 0 289 125 289 306c0 111 -46 200 -117 254l-310 -527c41 -22 88 -33 138 -33z" />
    <glyph glyph-name="AE" unicode="&#xc6;" horiz-adv-x="1145" 
d="M1056 649h-414v-261h366c8 0 14 -7 14 -14v-27c0 -7 -6 -13 -14 -13h-366v-280h414c8 0 15 -6 15 -13v-27c0 -8 -7 -14 -15 -14h-458c-9 0 -15 6 -15 14v171h-345l-143 -177c-8 -9 -16 -14 -25 -14h-41c-7 0 -11 4 -11 8c0 3 1 5 3 8c185 227 369 454 554 682
c5 7 16 12 25 12h456c8 0 15 -7 15 -14v-27c0 -8 -7 -14 -15 -14zM280 239h303v381c-87 -105 -200 -252 -303 -381z" />
    <glyph glyph-name="Yacute" unicode="&#xdd;" horiz-adv-x="625" 
d="M607 704c10 0 16 -12 10 -20l-275 -399v-271c0 -8 -6 -14 -15 -14h-29c-9 0 -15 6 -15 14v271l-275 399c-6 8 0 20 10 20h31c8 0 17 -6 23 -15l240 -347l239 347c6 9 16 15 24 15h32zM263 829l52 110c2 5 10 10 15 10h44c12 0 17 -13 11 -22l-84 -112c-1 -3 -8 -7 -12 -7
h-13c-12 0 -18 11 -13 21z" />
    <glyph glyph-name="yacute" unicode="&#xfd;" horiz-adv-x="529" 
d="M446 517h28c9 0 14 -6 14 -13c0 -3 0 -5 -1 -7l-272 -685c-2 -7 -9 -12 -15 -12h-26c-9 0 -13 6 -13 13c0 2 0 5 1 7c20 49 34 88 73 182c-62 156 -128 334 -194 495c-1 2 -1 4 -1 6c0 8 5 14 13 14h30c7 0 13 -6 16 -11l112 -294l48 -137h11l31 91c4 13 9 25 13 37
l118 303c3 6 9 11 14 11zM215 642l52 110c2 5 10 10 15 10h44c12 0 17 -13 11 -22l-84 -112c-1 -3 -8 -7 -12 -7h-13c-12 0 -18 11 -13 21z" />
    <glyph glyph-name="eth" unicode="&#xf0;" horiz-adv-x="587" 
d="M373 660l11 -17c104 -113 155 -237 155 -363c0 -194 -98 -292 -243 -292c-137 0 -240 84 -240 253c0 157 100 250 230 250c98 0 122 -39 172 -67c-26 87 -69 146 -129 209l-113 -70c-2 -1 -5 -2 -7 -2c-5 0 -10 3 -13 8l-6 10c-1 2 -2 5 -2 8c0 5 2 9 7 12l103 62
c-18 18 -74 57 -74 69c0 7 23 23 31 23c17 0 64 -44 87 -65c31 19 62 39 94 58c1 1 3 1 5 1c10 0 22 -15 22 -24c0 -5 -3 -9 -7 -12zM296 39c95 0 182 53 182 213c0 144 -103 189 -183 189c-97 0 -178 -70 -178 -201c0 -141 80 -201 179 -201z" />
    <glyph glyph-name="Thorn" unicode="&#xde;" horiz-adv-x="661" 
d="M142 704c7 0 13 -6 13 -14v-114h208c154 0 256 -86 256 -221c0 -131 -100 -216 -256 -216h-208v-126c0 -7 -6 -13 -13 -13h-30c-8 0 -14 6 -14 13v677c0 8 6 14 14 14h30zM376 193c110 0 183 64 183 162c0 101 -73 167 -184 167h-220v-329h221z" />
    <glyph glyph-name="thorn" unicode="&#xfe;" horiz-adv-x="624" 
d="M137 -200h-29c-8 0 -14 7 -14 14v914c0 8 6 14 14 14h30c9 0 12 -5 12 -14v-267c1 -19 1 -38 1 -38h9c29 58 98 106 185 106c109 0 219 -81 219 -266c0 -173 -104 -275 -237 -275c-73 0 -122 23 -177 65v-239c0 -7 -6 -14 -13 -14zM320 40c106 0 185 77 185 217
c0 137 -63 218 -170 218c-90 0 -185 -77 -185 -210v-151c43 -41 96 -74 170 -74z" />
    <glyph glyph-name="onesuperior" unicode="&#xb9;" horiz-adv-x="239" 
d="M48 569c-3 -3 -6 -5 -9 -5c-4 0 -7 2 -10 5l-11 13c-3 3 -4 7 -4 10s1 6 4 9l110 96c3 3 8 7 13 7h19c9 0 14 -5 14 -14v-341c0 -7 -5 -13 -14 -13h-19c-9 0 -14 6 -14 13v290c-26 -23 -54 -48 -79 -70z" />
    <glyph glyph-name="twosuperior" unicode="&#xb2;" horiz-adv-x="282" 
d="M225 518l-133 -131h154c6 0 13 -7 13 -14v-18c0 -8 -7 -13 -13 -13h-212c-8 0 -14 5 -14 13v17c0 12 8 19 14 25l160 159c14 14 16 29 16 47c0 39 -29 67 -70 67c-32 0 -61 -20 -70 -47c-4 -9 -12 -17 -20 -14c-2 0 -12 4 -15 5c-9 3 -14 11 -11 18c12 45 54 84 116 84
c68 0 119 -49 119 -112c0 -30 -9 -60 -34 -86z" />
    <glyph glyph-name="threesuperior" unicode="&#xb3;" horiz-adv-x="270" 
d="M60 419c13 -22 40 -38 67 -38c40 0 73 29 73 71c0 41 -32 69 -73 69h-18c-9 0 -14 5 -14 13v18c0 7 5 14 14 14h14c33 0 59 22 59 54c0 30 -24 50 -55 50c-32 0 -50 -25 -52 -29c-5 -8 -13 -12 -22 -8l-15 9c-6 4 -8 12 -5 19c10 21 38 55 94 55c58 0 104 -42 104 -95
c0 -29 -16 -55 -36 -74c34 -22 53 -59 53 -98c0 -65 -55 -113 -121 -113c-68 0 -99 39 -108 60c-4 8 -1 16 6 20l17 9c7 4 15 1 18 -6z" />
    <glyph glyph-name="onequarter" unicode="&#xbc;" horiz-adv-x="731" 
d="M395 127c2 6 5 11 9 16l171 214c10 9 17 11 25 11h8c11 0 19 -5 19 -14v-220h41c7 0 14 -5 14 -14v-18c0 -7 -7 -14 -14 -14h-41v-64c0 -11 0 -24 -14 -24h-20c-9 0 -14 5 -14 13v75h-172c-8 0 -14 6 -14 15v14c0 3 1 7 2 10zM446 128h135v170
c-44 -57 -90 -113 -135 -170zM137 640l-80 -71c-3 -3 -6 -4 -8 -4c-4 0 -7 1 -10 5l-11 13c-3 3 -4 6 -4 9s1 7 4 10l110 96c3 3 8 6 12 6h20c9 0 14 -5 14 -13v-342c0 -6 -5 -13 -14 -13h-20c-8 0 -13 7 -13 13v291zM560 704h17c9 0 15 -9 10 -18l-394 -671
c-5 -8 -14 -15 -23 -15h-18c-9 0 -15 9 -10 18l395 671c5 9 15 15 23 15z" />
    <glyph glyph-name="onehalf" unicode="&#xbd;" horiz-adv-x="773" 
d="M137 640l-80 -71c-3 -3 -6 -4 -8 -4c-4 0 -7 1 -10 5l-11 13c-3 3 -4 6 -4 9s1 7 4 10l110 96c3 3 8 6 12 6h20c9 0 14 -5 14 -13v-342c0 -6 -5 -13 -14 -13h-20c-8 0 -13 7 -13 13v291zM700 176l-134 -130h155c7 0 13 -7 13 -14v-18c0 -9 -6 -14 -13 -14h-213
c-7 0 -14 5 -14 14v17c0 12 8 18 14 24l161 160c13 13 15 29 16 46c0 39 -30 68 -70 68c-33 0 -62 -20 -71 -48c-2 -8 -9 -15 -16 -15c-12 0 -31 10 -31 20c0 2 1 3 1 4c12 46 55 84 117 84c67 0 119 -48 119 -112c0 -28 -9 -61 -34 -86zM560 704h17c9 0 15 -9 10 -18
l-394 -671c-5 -8 -14 -15 -23 -15h-18c-9 0 -15 9 -10 18l395 671c5 9 15 15 23 15z" />
    <glyph glyph-name="threequarters" unicode="&#xbe;" horiz-adv-x="749" 
d="M73 419c13 -22 40 -38 67 -38c40 0 73 29 73 71c0 41 -32 69 -73 69h-18c-9 0 -14 5 -14 13v18c0 7 5 14 14 14h14c33 0 59 22 59 54c0 30 -24 50 -55 50c-32 0 -50 -25 -52 -29c-5 -8 -13 -12 -22 -8l-16 9c-5 3 -7 12 -4 19c9 21 38 55 94 55c58 0 104 -42 104 -95
c0 -29 -16 -55 -36 -74c34 -22 53 -59 53 -98c0 -65 -55 -113 -121 -113c-68 0 -99 39 -108 60c-4 8 -1 16 6 20l16 9c8 4 16 1 19 -6zM603 357c4 4 14 11 21 11h17c8 0 13 -7 13 -14v-220h42c8 0 14 -5 14 -14v-18c0 -8 -6 -14 -14 -14h-42v-75c0 -8 -5 -13 -12 -13h-21
c-8 0 -14 5 -14 13v75h-171c-9 0 -15 6 -15 15v14c0 7 3 14 6 20zM474 128h136v170zM576 704h17c9 0 15 -9 10 -18l-394 -671c-5 -8 -14 -15 -23 -15h-18c-9 0 -15 9 -10 18l395 671c5 9 15 15 23 15z" />
    <glyph glyph-name="florin" unicode="&#x192;" horiz-adv-x="618" 
d="M31 -149c-7 2 -12 8 -10 16l5 24c2 8 9 13 17 11c12 -4 28 -11 58 -11c69 0 107 44 131 169l66 363h-101c-8 0 -13 6 -12 14l2 17c1 8 8 14 16 14h102l13 70c29 144 87 201 179 201c33 0 58 -6 79 -10c8 -1 13 -8 11 -16l-4 -22c-2 -9 -9 -14 -17 -13
c-16 3 -36 10 -61 10c-66 0 -106 -34 -128 -150c-2 -10 -10 -57 -13 -70h128c8 0 13 -6 12 -14l-1 -17c-2 -8 -9 -14 -17 -14h-130l-64 -354c-31 -167 -86 -230 -183 -230c-25 0 -57 5 -78 12z" />
    <glyph glyph-name="fi" unicode="&#xfb01;" horiz-adv-x="621" 
d="M398 738c7 -2 9 -11 7 -19c-1 -3 -4 -15 -5 -19c-2 -7 -9 -12 -16 -10c-19 4 -56 11 -89 11c-73 0 -119 -34 -119 -117v-67h164c6 0 13 -7 13 -15v-17c0 -8 -7 -14 -13 -14h-164v-457c0 -8 -7 -14 -14 -14h-27c-9 0 -15 6 -15 14v457h-76c-8 0 -14 6 -14 14v17
c0 8 6 15 14 15h76v61c0 106 60 174 177 174c46 0 74 -6 101 -14zM512 517c8 0 13 -7 13 -14v-489c0 -8 -5 -14 -13 -14h-29c-8 0 -14 6 -14 14v489c0 7 6 14 14 14h29zM455 700c0 23 19 42 41 42c23 0 42 -19 42 -42c0 -24 -19 -42 -42 -42c-22 0 -41 18 -41 42z" />
    <glyph glyph-name="fl" unicode="&#xfb02;" horiz-adv-x="620" 
d="M398 738c7 -2 9 -11 7 -19c-1 -3 -4 -15 -5 -19c-2 -7 -9 -12 -16 -10c-19 4 -56 11 -89 11c-73 0 -119 -34 -119 -117v-67h164c6 0 13 -7 13 -15v-17c0 -8 -7 -14 -13 -14h-164v-457c0 -8 -7 -14 -14 -14h-27c-9 0 -15 6 -15 14v457h-76c-8 0 -14 6 -14 14v17
c0 8 6 15 14 15h76v61c0 106 60 174 177 174c46 0 74 -6 101 -14zM512 742c8 0 13 -6 13 -14v-714c0 -8 -5 -14 -13 -14h-29c-8 0 -14 6 -14 14v714c0 8 6 14 14 14h29z" />
    <glyph glyph-name="Lslash" unicode="&#x141;" horiz-adv-x="596" 
d="M562 54c8 0 14 -6 14 -14v-26c0 -8 -6 -14 -14 -14h-444c-8 0 -14 6 -14 14v217l-110 -64c-8 -5 -18 0 -18 9v26c0 9 3 14 11 18l117 67v403c0 7 6 14 14 14h30c7 0 13 -7 13 -14v-369l114 65c8 5 17 -1 17 -9v-26c0 -8 -3 -13 -11 -18l-120 -69v-210h401z" />
    <glyph glyph-name="lslash" unicode="&#x142;" horiz-adv-x="245" 
d="M281 351c0 -8 -4 -13 -12 -18l-119 -69v-250c0 -8 -5 -14 -13 -14h-29c-8 0 -14 6 -14 14v218l-112 -65c-8 -5 -18 0 -18 9v26c0 9 3 14 11 18l119 69v439c0 8 6 14 14 14h29c8 0 13 -6 13 -14v-406l113 64c8 5 18 -1 18 -9v-26z" />
    <glyph glyph-name="Zcaron" unicode="&#x17d;" horiz-adv-x="681" 
d="M64 14v23c0 7 4 14 9 19l455 593h-439c-8 0 -14 6 -14 14v27c0 7 6 14 14 14h503c8 0 15 -7 15 -14v-25c0 -7 -3 -12 -7 -17l-457 -594h460c8 0 14 -6 14 -13v-27c0 -8 -6 -14 -14 -14h-525c-8 0 -14 6 -14 14zM460 927l-76 -109c-3 -6 -13 -11 -17 -11h-56
c-4 0 -14 5 -17 11l-71 103c-3 5 -6 9 -6 15s5 13 14 13h24c6 0 13 -5 17 -9l69 -99c19 30 66 108 82 108h24c9 0 15 -7 15 -15c0 -3 -1 -5 -2 -7z" />
    <glyph glyph-name="zcaron" unicode="&#x17e;" horiz-adv-x="520" 
d="M455 49c9 0 15 -7 15 -14v-21c0 -8 -6 -14 -15 -14h-392c-8 0 -14 6 -14 14v20c0 10 3 15 7 19c88 110 191 240 333 414h-317c-8 0 -14 7 -14 15v21c0 7 6 14 14 14h373c9 0 15 -7 15 -14v-21c0 -14 -14 -27 -22 -37l-320 -396h337zM379 740l-76 -109
c-3 -6 -13 -11 -17 -11h-56c-4 0 -14 5 -17 11l-71 103c-3 5 -6 9 -6 15s5 13 14 13h24c6 0 13 -5 17 -9l69 -99c19 30 66 108 82 108h24c9 0 15 -7 15 -15c0 -3 -1 -5 -2 -7z" />
    <glyph glyph-name="Scaron" unicode="&#x160;" horiz-adv-x="647" 
d="M321 395c166 -30 257 -92 257 -201c0 -125 -106 -206 -261 -206c-94 0 -179 30 -242 84c-6 4 -8 13 -2 20l20 22c5 7 13 8 20 2c55 -45 126 -72 206 -72c121 0 199 56 199 145c0 85 -67 123 -230 152c-135 22 -210 87 -210 187c0 113 110 188 240 188
c89 0 177 -28 235 -82c6 -7 7 -15 1 -22l-17 -20c-6 -6 -15 -7 -22 0c-53 45 -117 68 -198 68c-111 0 -178 -52 -178 -131c0 -67 54 -112 182 -134zM445 927l-76 -109c-3 -6 -13 -11 -17 -11h-56c-4 0 -14 5 -17 11l-71 103c-3 5 -6 9 -6 15s5 13 14 13h24c6 0 13 -5 17 -9
l69 -99c19 30 66 108 82 108h24c9 0 15 -7 15 -15c0 -3 -1 -5 -2 -7z" />
    <glyph glyph-name="scaron" unicode="&#x161;" horiz-adv-x="488" 
d="M88 69c35 -15 92 -30 145 -30c84 0 137 41 137 98c0 61 -57 81 -150 103c-72 16 -154 49 -154 140c0 82 70 149 180 149c61 0 166 -19 166 -45c0 -7 -11 -36 -24 -36c-1 0 -3 0 -5 1c-34 15 -83 28 -134 28c-78 0 -124 -37 -124 -89c0 -128 304 -64 304 -245
c0 -88 -79 -155 -193 -155c-70 0 -177 21 -177 47c0 2 1 5 2 7l10 21c2 4 7 7 12 7c2 0 3 -1 5 -1zM370 740l-76 -109c-3 -6 -13 -11 -17 -11h-56c-4 0 -14 5 -17 11l-71 103c-3 5 -6 9 -6 15s5 13 14 13h24c6 0 13 -5 17 -9l69 -99c19 30 66 108 82 108h24
c9 0 15 -7 15 -15c0 -3 -1 -5 -2 -7z" />
    <glyph glyph-name="minus" unicode="&#x2212;" 
d="M46 346c0 7 6 14 13 14h498c8 0 14 -7 14 -14v-24c0 -8 -6 -15 -14 -15h-498c-7 0 -13 7 -13 15v24z" />
    </font>
</defs>
</svg>
